999
dxflib 3.26.4.0
  0
SECTION
  2
HEADER
  9
$ACADVER
  1
AC1015
  9
$HANDSEED
  5
FFFF
  9
$ANGBASE
 50
0.0
  9
$ANGDIR
 70
1
  9
$DIMADEC
 70
0
  9
$DIMASZ
 40
0.18
  9
$DIMATFIT
 70
0
  9
$DIMAUNIT
 70
0
  9
$DIMAZIN
 70
0
  9
$DIMBLK
  1
0
  9
$DIMBLK1
  1
0
  9
$DIMBLK2
  1
0
  9
$DIMDEC
 70
4
  9
$DIMDLI
 40
0.36
  9
$DIMDSEP
 70
0
  9
$DIMEXE
 40
0.18
  9
$DIMEXO
 40
0.0625
  9
$DIMGAP
 40
0.09
  9
$DIMLFAC
 40
0.0
  9
$DIMLUNIT
 70
2
  9
$DIMSCALE
 40
0.0
  9
$DIMTAD
 70
0
  9
$DIMTIH
 70
0
  9
$DIMTSZ
 40
0.0
  9
$DIMTXT
 40
0.18
  9
$DIMZIN
 70
0
  9
$DWGCODEPAGE
  3
ANSI_1252
  9
$INSUNITS
 70
4
  9
$LTSCALE
 40
1.0
  9
$MAXACTVP
 70
64
  9
$MEASUREMENT
 70
1
  9
$MIRRTEXT
 70
0
  9
$PDMODE
 70
0
  9
$PDSIZE
 40
0.0
  0
ENDSEC
  0
SECTION
  2
TABLES
  0
TABLE
  2
VPORT
  5
8
100
AcDbSymbolTable
 70
1
  0
VPORT
  5
30
100
AcDbSymbolTableRecord
100
AcDbViewportTableRecord
  2
*Active
 70
0
 10
0.0
 20
0.0
 11
1.0
 21
1.0
 12
286.3055555555554861
 22
148.5
 13
0.0
 23
0.0
 14
10.0
 24
10.0
 15
10.0
 25
10.0
 16
0.0
 26
0.0
 36
1.0
 17
0.0
 27
0.0
 37
0.0
 40
297.0
 41
1.92798353909465
 42
50.0
 43
0.0
 44
0.0
 50
0.0
 51
0.0
 71
0
 72
100
 73
1
 74
3
 75
1
 76
1
 77
0
 78
0
281
0
 65
1
110
0.0
120
0.0
130
0.0
111
1.0
121
0.0
131
0.0
112
0.0
122
1.0
132
0.0
 79
0
146
0.0
  0
ENDTAB
  0
TABLE
  2
LTYPE
  5
5
100
AcDbSymbolTable
 70
42
  0
LTYPE
  5
16
100
AcDbSymbolTableRecord
100
AcDbLinetypeTableRecord
  2
CONTINUOUS
 70
0
  3
Solid line
 72
65
 73
0
 40
0.0
  0
LTYPE
  5
31
100
AcDbSymbolTableRecord
100
AcDbLinetypeTableRecord
  2
HIDDEN
 70
0
  3
Hidden __ __ __ __ __ __ __ __ __ __ __ __ __ __
 72
65
 73
2
 40
9.5249999999999986
 49
6.3499999999999996
 74
0
 49
-3.1749999999999998
 74
0
  0
LTYPE
  5
32
100
AcDbSymbolTableRecord
100
AcDbLinetypeTableRecord
  2
HIDDEN2
 70
0
  3
Hidden (.5x) _ _ _ _ _ _ _ _ _ _ _ _ _ _ _ _ _ 
 72
65
 73
2
 40
4.7624999999999993
 49
3.1749999999999998
 74
0
 49
-1.5874999999999999
 74
0
  0
LTYPE
  5
33
100
AcDbSymbolTableRecord
100
AcDbLinetypeTableRecord
  2
DASHDOT
 70
0
  3
Dash Dot ____ _ ____ _
 72
65
 73
4
 40
2.0
 49
1.25
 74
0
 49
-0.25
 74
0
 49
0.25
 74
0
 49
-0.25
 74
0
  0
LTYPE
  5
34
100
AcDbSymbolTableRecord
100
AcDbLinetypeTableRecord
  2
ACAD_ISO08W100
 70
0
  3
ISO long-dash short-dash ____ __ ____ __ ____ _
 72
65
 73
4
 40
36.0
 49
24.0
 74
0
 49
-3.0
 74
0
 49
6.0
 74
0
 49
-3.0
 74
0
  0
LTYPE
  5
35
100
AcDbSymbolTableRecord
100
AcDbLinetypeTableRecord
  2
PHANTOM2
 70
0
  3
Phantom (.5x) ___ _ _ ___ _ _ ___ _ _ ___ _ _
 72
65
 73
6
 40
31.7500000000000036
 49
15.875
 74
0
 49
-3.1749999999999998
 74
0
 49
3.1749999999999998
 74
0
 49
-3.1749999999999998
 74
0
 49
3.1749999999999998
 74
0
 49
-3.1749999999999998
 74
0
  0
LTYPE
  5
14
100
AcDbSymbolTableRecord
100
AcDbLinetypeTableRecord
  2
BYBLOCK
 70
0
  3

 72
65
 73
0
 40
0.0
  0
LTYPE
  5
36
100
AcDbSymbolTableRecord
100
AcDbLinetypeTableRecord
  2
BORDER2
 70
0
  3
Border (.5x) __.__.__.__.__.__.__.__.__.__.__.
 72
65
 73
6
 40
22.2249999999999979
 49
6.3499999999999996
 74
0
 49
-3.1749999999999998
 74
0
 49
6.3499999999999996
 74
0
 49
-3.1749999999999998
 74
0
 49
0.0
 74
0
 49
-3.1749999999999998
 74
0
  0
LTYPE
  5
37
100
AcDbSymbolTableRecord
100
AcDbLinetypeTableRecord
  2
DASHED2
 70
0
  3
Dashed (.5x) _ _ _ _ _ _ _ _ _ _ _ _ _ _ _ _ _ 
 72
65
 73
2
 40
9.5249999999999986
 49
6.3499999999999996
 74
0
 49
-3.1749999999999998
 74
0
  0
LTYPE
  5
38
100
AcDbSymbolTableRecord
100
AcDbLinetypeTableRecord
  2
DIVIDEX2
 70
0
  3
Divide (2x) ________  .  .  ________  .  .  _
 72
65
 73
6
 40
63.5
 49
25.3999999999999986
 74
0
 49
-12.6999999999999993
 74
0
 49
0.0
 74
0
 49
-12.6999999999999993
 74
0
 49
0.0
 74
0
 49
-12.6999999999999993
 74
0
  0
LTYPE
  5
39
100
AcDbSymbolTableRecord
100
AcDbLinetypeTableRecord
  2
DIVIDE
 70
0
  3
Divide ____ . . ____ . . ____ . . ____ . . ____
 72
65
 73
6
 40
31.75
 49
12.6999999999999993
 74
0
 49
-6.3499999999999996
 74
0
 49
0.0
 74
0
 49
-6.3499999999999996
 74
0
 49
0.0
 74
0
 49
-6.3499999999999996
 74
0
  0
LTYPE
  5
3A
100
AcDbSymbolTableRecord
100
AcDbLinetypeTableRecord
  2
DASHDOTX2
 70
0
  3
Dash dot (2x) ____  .  ____  .  ____  .  ___
 72
65
 73
4
 40
50.7999999999999972
 49
25.3999999999999986
 74
0
 49
-12.6999999999999993
 74
0
 49
0.0
 74
0
 49
-12.6999999999999993
 74
0
  0
LTYPE
  5
3B
100
AcDbSymbolTableRecord
100
AcDbLinetypeTableRecord
  2
BORDERX2
 70
0
  3
Border (2x) ____  ____  .  ____  ____  .  ___
 72
65
 73
6
 40
88.8999999999999915
 49
25.3999999999999986
 74
0
 49
-12.6999999999999993
 74
0
 49
25.3999999999999986
 74
0
 49
-12.6999999999999993
 74
0
 49
0.0
 74
0
 49
-12.6999999999999993
 74
0
  0
LTYPE
  5
3C
100
AcDbSymbolTableRecord
100
AcDbLinetypeTableRecord
  2
ACAD_ISO12W100
 70
0
  3
ISO dash double-dot __ . . __ . . __ . . __ . . 
 72
65
 73
6
 40
21.0
 49
12.0
 74
0
 49
-3.0
 74
0
 49
0.0
 74
0
 49
-3.0
 74
0
 49
0.0
 74
0
 49
-3.0
 74
0
  0
LTYPE
  5
3D
100
AcDbSymbolTableRecord
100
AcDbLinetypeTableRecord
  2
ACAD_ISO06W100
 70
0
  3
ISO long-dash triple-dot ____ ... ____ ... ____
 72
65
 73
8
 40
36.0
 49
24.0
 74
0
 49
-3.0
 74
0
 49
0.0
 74
0
 49
-3.0
 74
0
 49
0.0
 74
0
 49
-3.0
 74
0
 49
0.0
 74
0
 49
-3.0
 74
0
  0
LTYPE
  5
3E
100
AcDbSymbolTableRecord
100
AcDbLinetypeTableRecord
  2
ACAD_ISO03W100
 70
0
  3
ISO dash space __    __    __    __    __    __
 72
65
 73
2
 40
30.0
 49
12.0
 74
0
 49
-18.0
 74
0
  0
LTYPE
  5
3F
100
AcDbSymbolTableRecord
100
AcDbLinetypeTableRecord
  2
CENTERX2
 70
0
  3
Center (2x) ________  __  ________  __  _____
 72
65
 73
4
 40
101.6000000000000085
 49
63.5
 74
0
 49
-12.6999999999999993
 74
0
 49
12.6999999999999993
 74
0
 49
-12.6999999999999993
 74
0
  0
LTYPE
  5
40
100
AcDbSymbolTableRecord
100
AcDbLinetypeTableRecord
  2
ACAD_ISO02W100
 70
0
  3
ISO dash __ __ __ __ __ __ __ __ __ __ __ __ __
 72
65
 73
2
 40
15.0
 49
12.0
 74
0
 49
-3.0
 74
0
  0
LTYPE
  5
41
100
AcDbSymbolTableRecord
100
AcDbLinetypeTableRecord
  2
DIVIDE2
 70
0
  3
Divide (.5x) __..__..__..__..__..__..__..__.._
 72
65
 73
6
 40
15.875
 49
6.3499999999999996
 74
0
 49
-3.1749999999999998
 74
0
 49
0.0
 74
0
 49
-3.1749999999999998
 74
0
 49
0.0
 74
0
 49
-3.1749999999999998
 74
0
  0
LTYPE
  5
42
100
AcDbSymbolTableRecord
100
AcDbLinetypeTableRecord
  2
CENTER2
 70
0
  3
Center (.5x) ___ _ ___ _ ___ _ ___ _ ___ _ ___
 72
65
 73
4
 40
28.5750000000000028
 49
19.0500000000000007
 74
0
 49
-3.1749999999999998
 74
0
 49
3.1749999999999998
 74
0
 49
-3.1749999999999998
 74
0
  0
LTYPE
  5
43
100
AcDbSymbolTableRecord
100
AcDbLinetypeTableRecord
  2
PHANTOMX2
 70
0
  3
Phantom (2x) ____________    ____    ____   _
 72
65
 73
6
 40
127.0000000000000142
 49
63.5
 74
0
 49
-12.6999999999999993
 74
0
 49
12.6999999999999993
 74
0
 49
-12.6999999999999993
 74
0
 49
12.6999999999999993
 74
0
 49
-12.6999999999999993
 74
0
  0
LTYPE
  5
44
100
AcDbSymbolTableRecord
100
AcDbLinetypeTableRecord
  2
BORDER
 70
0
  3
Border __ __ . __ __ . __ __ . __ __ . __ __ .
 72
65
 73
6
 40
44.4499999999999957
 49
12.6999999999999993
 74
0
 49
-6.3499999999999996
 74
0
 49
12.6999999999999993
 74
0
 49
-6.3499999999999996
 74
0
 49
0.0
 74
0
 49
-6.3499999999999996
 74
0
  0
LTYPE
  5
45
100
AcDbSymbolTableRecord
100
AcDbLinetypeTableRecord
  2
DASHDOT2
 70
0
  3
Dash dot (.5x) _._._._._._._._._._._._._._._.
 72
65
 73
4
 40
12.6999999999999993
 49
6.3499999999999996
 74
0
 49
-3.1749999999999998
 74
0
 49
0.0
 74
0
 49
-3.1749999999999998
 74
0
  0
LTYPE
  5
46
100
AcDbSymbolTableRecord
100
AcDbLinetypeTableRecord
  2
CENTER
 70
0
  3
Center ____ _ ____ _ ____ _ ____ _ ____ _ ____
 72
65
 73
4
 40
50.8000000000000043
 49
31.75
 74
0
 49
-6.3499999999999996
 74
0
 49
6.3499999999999996
 74
0
 49
-6.3499999999999996
 74
0
  0
LTYPE
  5
47
100
AcDbSymbolTableRecord
100
AcDbLinetypeTableRecord
  2
DASHED
 70
0
  3
Dashed __ __ __ __ __
 72
65
 73
2
 40
0.75
 49
0.5
 74
0
 49
-0.25
 74
0
  0
LTYPE
  5
48
100
AcDbSymbolTableRecord
100
AcDbLinetypeTableRecord
  2
DOTX2
 70
0
  3
Dot (2x) .  .  .  .  .  .  .  .  .  .  .  .  .  .
 72
65
 73
2
 40
12.6999999999999993
 49
0.0
 74
0
 49
-12.6999999999999993
 74
0
  0
LTYPE
  5
49
100
AcDbSymbolTableRecord
100
AcDbLinetypeTableRecord
  2
ACAD_ISO14W100
 70
0
  3
ISO dash triple-dot __ . . . __ . . . __ . . . _
 72
65
 73
8
 40
24.0
 49
12.0
 74
0
 49
-3.0
 74
0
 49
0.0
 74
0
 49
-3.0
 74
0
 49
0.0
 74
0
 49
-3.0
 74
0
 49
0.0
 74
0
 49
-3.0
 74
0
  0
LTYPE
  5
4A
100
AcDbSymbolTableRecord
100
AcDbLinetypeTableRecord
  2
PHANTOM
 70
0
  3
Phantom ______  __  __  ______  __  __  ______ 
 72
65
 73
6
 40
63.5000000000000071
 49
31.75
 74
0
 49
-6.3499999999999996
 74
0
 49
6.3499999999999996
 74
0
 49
-6.3499999999999996
 74
0
 49
6.3499999999999996
 74
0
 49
-6.3499999999999996
 74
0
  0
LTYPE
  5
4B
100
AcDbSymbolTableRecord
100
AcDbLinetypeTableRecord
  2
ACAD_ISO13W100
 70
0
  3
ISO double-dash double-dot __ __ . . __ __ . . _
 72
65
 73
8
 40
36.0
 49
12.0
 74
0
 49
-3.0
 74
0
 49
12.0
 74
0
 49
-3.0
 74
0
 49
0.0
 74
0
 49
-3.0
 74
0
 49
0.0
 74
0
 49
-3.0
 74
0
  0
LTYPE
  5
4C
100
AcDbSymbolTableRecord
100
AcDbLinetypeTableRecord
  2
ACAD_ISO15W100
 70
0
  3
ISO double-dash triple-dot __ __ . . . __ __ . .
 72
65
 73
10
 40
39.0
 49
12.0
 74
0
 49
-3.0
 74
0
 49
12.0
 74
0
 49
-3.0
 74
0
 49
0.0
 74
0
 49
-3.0
 74
0
 49
0.0
 74
0
 49
-3.0
 74
0
 49
0.0
 74
0
 49
-3.0
 74
0
  0
LTYPE
  5
4D
100
AcDbSymbolTableRecord
100
AcDbLinetypeTableRecord
  2
ACAD_ISO07W100
 70
0
  3
ISO dot . . . . . . . . . . . . . . . . . . . . 
 72
65
 73
2
 40
3.0
 49
0.0
 74
0
 49
-3.0
 74
0
  0
LTYPE
  5
4E
100
AcDbSymbolTableRecord
100
AcDbLinetypeTableRecord
  2
ACAD_ISO04W100
 70
0
  3
ISO long-dash dot ____ . ____ . ____ . ____ . _
 72
65
 73
4
 40
30.0
 49
24.0
 74
0
 49
-3.0
 74
0
 49
0.0
 74
0
 49
-3.0
 74
0
  0
LTYPE
  5
4F
100
AcDbSymbolTableRecord
100
AcDbLinetypeTableRecord
  2
ACAD_ISO05W100
 70
0
  3
ISO long-dash double-dot ____ .. ____ .. ____ . 
 72
65
 73
6
 40
33.0
 49
24.0
 74
0
 49
-3.0
 74
0
 49
0.0
 74
0
 49
-3.0
 74
0
 49
0.0
 74
0
 49
-3.0
 74
0
  0
LTYPE
  5
50
100
AcDbSymbolTableRecord
100
AcDbLinetypeTableRecord
  2
ACAD_ISO11W100
 70
0
  3
ISO double-dash dot __ __ . __ __ . __ __ . __ _
 72
65
 73
6
 40
33.0
 49
12.0
 74
0
 49
-3.0
 74
0
 49
12.0
 74
0
 49
-3.0
 74
0
 49
0.0
 74
0
 49
-3.0
 74
0
  0
LTYPE
  5
15
100
AcDbSymbolTableRecord
100
AcDbLinetypeTableRecord
  2
BYLAYER
 70
0
  3

 72
65
 73
0
 40
0.0
  0
LTYPE
  5
51
100
AcDbSymbolTableRecord
100
AcDbLinetypeTableRecord
  2
DOT
 70
0
  3
Dot . . . . . . . . . . . . . . . . . . . . . . . .
 72
65
 73
2
 40
6.3499999999999996
 49
0.0
 74
0
 49
-6.3499999999999996
 74
0
  0
LTYPE
  5
52
100
AcDbSymbolTableRecord
100
AcDbLinetypeTableRecord
  2
HIDDENX2
 70
0
  3
Hidden (2x) ____ ____ ____ ____ ____ ____ ____ 
 72
65
 73
2
 40
19.0499999999999972
 49
12.6999999999999993
 74
0
 49
-6.3499999999999996
 74
0
  0
LTYPE
  5
53
100
AcDbSymbolTableRecord
100
AcDbLinetypeTableRecord
  2
DOTTED
 70
0
  3
Dotted .  .  .  .
 72
65
 73
2
 40
0.2
 49
0.1
 74
0
 49
-0.1
 74
0
  0
LTYPE
  5
54
100
AcDbSymbolTableRecord
100
AcDbLinetypeTableRecord
  2
ACAD_ISO09W100
 70
0
  3
ISO long-dash double-short-dash ____ __ __ ____
 72
65
 73
6
 40
45.0
 49
24.0
 74
0
 49
-3.0
 74
0
 49
6.0
 74
0
 49
-3.0
 74
0
 49
6.0
 74
0
 49
-3.0
 74
0
  0
LTYPE
  5
55
100
AcDbSymbolTableRecord
100
AcDbLinetypeTableRecord
  2
DOT2
 70
0
  3
Dot (.5x) ........................................
 72
65
 73
2
 40
3.1749999999999998
 49
0.0
 74
0
 49
-3.1749999999999998
 74
0
  0
LTYPE
  5
56
100
AcDbSymbolTableRecord
100
AcDbLinetypeTableRecord
  2
DASHEDX2
 70
0
  3
Dashed (2x) ____  ____  ____  ____  ____  ___
 72
65
 73
2
 40
38.0999999999999943
 49
25.3999999999999986
 74
0
 49
-12.6999999999999993
 74
0
  0
LTYPE
  5
57
100
AcDbSymbolTableRecord
100
AcDbLinetypeTableRecord
  2
ACAD_ISO10W100
 70
0
  3
ISO dash dot __ . __ . __ . __ . __ . __ . __ . 
 72
65
 73
4
 40
18.0
 49
12.0
 74
0
 49
-3.0
 74
0
 49
0.0
 74
0
 49
-3.0
 74
0
  0
ENDTAB
  0
TABLE
  2
LAYER
  5
2
100
AcDbSymbolTable
 70
5
  0
LAYER
  5
58
100
AcDbSymbolTableRecord
100
AcDbLayerTableRecord
  2
cut_in
 70
0
 62
5
420
255
  6
CONTINUOUS
370
25
390
F
  0
LAYER
  5
59
100
AcDbSymbolTableRecord
100
AcDbLayerTableRecord
  2
trace_in
 70
0
 62
6
420
16711935
  6
CONTINUOUS
370
25
390
F
  0
LAYER
  5
5A
100
AcDbSymbolTableRecord
100
AcDbLayerTableRecord
  2
cut_out
 70
0
 62
174
420
128
  6
CONTINUOUS
370
25
390
F
  0
LAYER
  5
5B
100
AcDbSymbolTableRecord
100
AcDbLayerTableRecord
  2
trace_out
 70
0
 62
214
420
8388736
  6
CONTINUOUS
370
25
390
F
  0
LAYER
  5
10
100
AcDbSymbolTableRecord
100
AcDbLayerTableRecord
  2
0
 70
0
 62
7
420
16777215
  6
CONTINUOUS
370
25
390
F
  0
ENDTAB
  0
TABLE
  2
STYLE
  5
3
100
AcDbSymbolTable
 70
1
  0
STYLE
  5
5C
100
AcDbSymbolTableRecord
100
AcDbTextStyleTableRecord
  2
Standard
 70
0
 40
0.0
 41
1.0
 50
0.0
 71
0
 42
2.5
  3

  4

1001
ACAD
1000
txt
1071
0
  0
ENDTAB
  0
TABLE
  2
VIEW
  5
6
100
AcDbSymbolTable
 70
0
  0
ENDTAB
  0
TABLE
  2
UCS
  5
7
100
AcDbSymbolTable
 70
0
  0
ENDTAB
  0
TABLE
  2
APPID
  5
9
100
AcDbSymbolTable
 70
1
  0
APPID
  5
12
100
AcDbSymbolTableRecord
100
AcDbRegAppTableRecord
  2
ACAD
 70
0
  0
APPID
  5
5D
100
AcDbSymbolTableRecord
100
AcDbRegAppTableRecord
  2
QCAD
 70
0
  0
ENDTAB
  0
TABLE
  2
DIMSTYLE
  5
A
100
AcDbSymbolTable
 70
1
100
AcDbDimStyleTable
 71
0
  0
DIMSTYLE
105
27
100
AcDbSymbolTableRecord
100
AcDbDimStyleTableRecord
  2
Standard
 41
0.18
 42
0.0625
 43
3.75
 44
0.18
 70
0
 73
0
 74
0
 77
0
 78
8
140
0.18
141
2.5
143
0.03937007874016
147
0.09
171
3
172
1
271
2
272
2
274
3
278
44
283
0
284
8
340
5C
  0
ENDTAB
  0
TABLE
  2
BLOCK_RECORD
  5
1
100
AcDbSymbolTable
 70
1
  0
BLOCK_RECORD
  5
1F
100
AcDbSymbolTableRecord
100
AcDbBlockTableRecord
  2
*Model_Space
340
22
  0
BLOCK_RECORD
  5
1B
100
AcDbSymbolTableRecord
100
AcDbBlockTableRecord
  2
*Paper_Space
340
1E
  0
BLOCK_RECORD
  5
23
100
AcDbSymbolTableRecord
100
AcDbBlockTableRecord
  2
*Paper_Space0
340
26
  0
ENDTAB
  0
ENDSEC
  0
SECTION
  2
BLOCKS
  0
BLOCK
  5
20
100
AcDbEntity
  8
0
100
AcDbBlockBegin
  2
*Model_Space
 70
0
 10
0.0
 20
0.0
 30
0.0
  3
*Model_Space
  1

  0
ENDBLK
  5
21
100
AcDbEntity
  8
0
100
AcDbBlockEnd
  0
BLOCK
  5
1C
100
AcDbEntity
 67
1
  8
0
100
AcDbBlockBegin
  2
*Paper_Space
 70
0
 10
0.0
 20
0.0
 30
0.0
  3
*Paper_Space
  1

  0
ENDBLK
  5
1D
100
AcDbEntity
 67
1
  8
0
100
AcDbBlockEnd
  0
BLOCK
  5
24
100
AcDbEntity
  8
0
100
AcDbBlockBegin
  2
*Paper_Space0
 70
0
 10
0.0
 20
0.0
 30
0.0
  3
*Paper_Space0
  1

  0
ENDBLK
  5
25
100
AcDbEntity
  8
0
100
AcDbBlockEnd
  0
ENDSEC
  0
SECTION
  2
ENTITIES
  0
LINE
  5
5E
100
AcDbEntity
  8
trace_out
 62
256
370
-1
 48
1.0
  6
CONTINUOUS
100
AcDbLine
 10
108.1749999999999972
 20
-60.3214459999999946
 30
0.0
 11
108.6767770000000013
 21
-60.8232229999999987
 31
0.0
  0
LINE
  5
5F
100
AcDbEntity
  8
trace_out
 62
256
370
-1
 48
1.0
  6
CONTINUOUS
100
AcDbLine
 10
108.6767770000000013
 20
-60.8232229999999987
 30
0.0
 11
108.7078679999999906
 21
-60.8611079999999944
 31
0.0
  0
LINE
  5
60
100
AcDbEntity
  8
trace_out
 62
256
370
-1
 48
1.0
  6
CONTINUOUS
100
AcDbLine
 10
108.7078679999999906
 20
-60.8611079999999944
 30
0.0
 11
108.7297339999999934
 21
-60.9138990000000007
 31
0.0
  0
LINE
  5
61
100
AcDbEntity
  8
trace_out
 62
256
370
-1
 48
1.0
  6
CONTINUOUS
100
AcDbLine
 10
108.7297339999999934
 20
-60.9138990000000007
 30
0.0
 11
108.7451959999999929
 21
-60.9512269999999958
 31
0.0
  0
LINE
  5
62
100
AcDbEntity
  8
trace_out
 62
256
370
-1
 48
1.0
  6
CONTINUOUS
100
AcDbLine
 10
108.7451959999999929
 20
-60.9512269999999958
 30
0.0
 11
108.75
 21
-61.0
 31
0.0
  0
LINE
  5
63
100
AcDbEntity
  8
trace_out
 62
256
370
-1
 48
1.0
  6
CONTINUOUS
100
AcDbLine
 10
108.75
 20
-61.0
 30
0.0
 11
108.75
 21
-68.3964459999999974
 31
0.0
  0
LINE
  5
64
100
AcDbEntity
  8
trace_out
 62
256
370
-1
 48
1.0
  6
CONTINUOUS
100
AcDbLine
 10
108.75
 20
-68.3964459999999974
 30
0.0
 11
109.5160539999999969
 21
-69.1624999999999943
 31
0.0
  0
LINE
  5
65
100
AcDbEntity
  8
trace_out
 62
256
370
-1
 48
1.0
  6
CONTINUOUS
100
AcDbLine
 10
109.5160539999999969
 20
-69.1624999999999943
 30
0.0
 11
109.7999999999999972
 21
-69.1624999999999943
 31
0.0
  0
LINE
  5
66
100
AcDbEntity
  8
trace_out
 62
256
370
-1
 48
1.0
  6
CONTINUOUS
100
AcDbLine
 10
109.7999999999999972
 20
-69.1624999999999943
 30
0.0
 11
109.7999999999999972
 21
-69.1499999999999915
 31
0.0
  0
LINE
  5
67
100
AcDbEntity
  8
trace_out
 62
256
370
-1
 48
1.0
  6
CONTINUOUS
100
AcDbLine
 10
109.7999999999999972
 20
-69.1499999999999915
 30
0.0
 11
109.8190299999999979
 21
-69.0543289999999956
 31
0.0
  0
LINE
  5
68
100
AcDbEntity
  8
trace_out
 62
256
370
-1
 48
1.0
  6
CONTINUOUS
100
AcDbLine
 10
109.8190299999999979
 20
-69.0543289999999956
 30
0.0
 11
109.8732229999999959
 21
-68.9732229999999902
 31
0.0
  0
LINE
  5
69
100
AcDbEntity
  8
trace_out
 62
256
370
-1
 48
1.0
  6
CONTINUOUS
100
AcDbLine
 10
109.8732229999999959
 20
-68.9732229999999902
 30
0.0
 11
109.9543290000000013
 21
-68.9190299999999922
 31
0.0
  0
LINE
  5
6A
100
AcDbEntity
  8
trace_out
 62
256
370
-1
 48
1.0
  6
CONTINUOUS
100
AcDbLine
 10
109.9543290000000013
 20
-68.9190299999999922
 30
0.0
 11
110.0499999999999972
 21
-68.8999999999999915
 31
0.0
  0
LINE
  5
6B
100
AcDbEntity
  8
trace_out
 62
256
370
-1
 48
1.0
  6
CONTINUOUS
100
AcDbLine
 10
110.0499999999999972
 20
-68.8999999999999915
 30
0.0
 11
110.9499999999999886
 21
-68.8999999999999915
 31
0.0
  0
LINE
  5
6C
100
AcDbEntity
  8
trace_out
 62
256
370
-1
 48
1.0
  6
CONTINUOUS
100
AcDbLine
 10
110.9499999999999886
 20
-68.8999999999999915
 30
0.0
 11
111.0456709999999987
 21
-68.9190299999999922
 31
0.0
  0
LINE
  5
6D
100
AcDbEntity
  8
trace_out
 62
256
370
-1
 48
1.0
  6
CONTINUOUS
100
AcDbLine
 10
111.0456709999999987
 20
-68.9190299999999922
 30
0.0
 11
111.1267769999999899
 21
-68.9732229999999902
 31
0.0
  0
LINE
  5
6E
100
AcDbEntity
  8
trace_out
 62
256
370
-1
 48
1.0
  6
CONTINUOUS
100
AcDbLine
 10
111.1267769999999899
 20
-68.9732229999999902
 30
0.0
 11
111.1809700000000021
 21
-69.0543289999999956
 31
0.0
  0
LINE
  5
6F
100
AcDbEntity
  8
trace_out
 62
256
370
-1
 48
1.0
  6
CONTINUOUS
100
AcDbLine
 10
111.1809700000000021
 20
-69.0543289999999956
 30
0.0
 11
111.1999999999999886
 21
-69.1499999999999915
 31
0.0
  0
LINE
  5
70
100
AcDbEntity
  8
trace_out
 62
256
370
-1
 48
1.0
  6
CONTINUOUS
100
AcDbLine
 10
111.1999999999999886
 20
-69.1499999999999915
 30
0.0
 11
111.1999999999999886
 21
-69.1624999999999943
 31
0.0
  0
LINE
  5
71
100
AcDbEntity
  8
trace_out
 62
256
370
-1
 48
1.0
  6
CONTINUOUS
100
AcDbLine
 10
111.1999999999999886
 20
-69.1624999999999943
 30
0.0
 11
112.2999999999999972
 21
-69.1624999999999943
 31
0.0
  0
LINE
  5
72
100
AcDbEntity
  8
trace_out
 62
256
370
-1
 48
1.0
  6
CONTINUOUS
100
AcDbLine
 10
112.2999999999999972
 20
-69.1624999999999943
 30
0.0
 11
112.2999999999999972
 21
-69.1499999999999915
 31
0.0
  0
LINE
  5
73
100
AcDbEntity
  8
trace_out
 62
256
370
-1
 48
1.0
  6
CONTINUOUS
100
AcDbLine
 10
112.2999999999999972
 20
-69.1499999999999915
 30
0.0
 11
112.3190299999999979
 21
-69.0543289999999956
 31
0.0
  0
LINE
  5
74
100
AcDbEntity
  8
trace_out
 62
256
370
-1
 48
1.0
  6
CONTINUOUS
100
AcDbLine
 10
112.3190299999999979
 20
-69.0543289999999956
 30
0.0
 11
112.3732229999999959
 21
-68.9732229999999902
 31
0.0
  0
LINE
  5
75
100
AcDbEntity
  8
trace_out
 62
256
370
-1
 48
1.0
  6
CONTINUOUS
100
AcDbLine
 10
112.3732229999999959
 20
-68.9732229999999902
 30
0.0
 11
112.4543290000000013
 21
-68.9190299999999922
 31
0.0
  0
LINE
  5
76
100
AcDbEntity
  8
trace_out
 62
256
370
-1
 48
1.0
  6
CONTINUOUS
100
AcDbLine
 10
112.4543290000000013
 20
-68.9190299999999922
 30
0.0
 11
112.5499999999999972
 21
-68.8999999999999915
 31
0.0
  0
LINE
  5
77
100
AcDbEntity
  8
trace_out
 62
256
370
-1
 48
1.0
  6
CONTINUOUS
100
AcDbLine
 10
112.5499999999999972
 20
-68.8999999999999915
 30
0.0
 11
113.4499999999999886
 21
-68.8999999999999915
 31
0.0
  0
LINE
  5
78
100
AcDbEntity
  8
trace_out
 62
256
370
-1
 48
1.0
  6
CONTINUOUS
100
AcDbLine
 10
113.4499999999999886
 20
-68.8999999999999915
 30
0.0
 11
113.5456709999999987
 21
-68.9190299999999922
 31
0.0
  0
LINE
  5
79
100
AcDbEntity
  8
trace_out
 62
256
370
-1
 48
1.0
  6
CONTINUOUS
100
AcDbLine
 10
113.5456709999999987
 20
-68.9190299999999922
 30
0.0
 11
113.6267769999999899
 21
-68.9732229999999902
 31
0.0
  0
LINE
  5
7A
100
AcDbEntity
  8
trace_out
 62
256
370
-1
 48
1.0
  6
CONTINUOUS
100
AcDbLine
 10
113.6267769999999899
 20
-68.9732229999999902
 30
0.0
 11
113.6809699999999879
 21
-69.0543289999999956
 31
0.0
  0
LINE
  5
7B
100
AcDbEntity
  8
trace_out
 62
256
370
-1
 48
1.0
  6
CONTINUOUS
100
AcDbLine
 10
113.6809699999999879
 20
-69.0543289999999956
 30
0.0
 11
113.6999999999999886
 21
-69.1499999999999915
 31
0.0
  0
LINE
  5
7C
100
AcDbEntity
  8
trace_out
 62
256
370
-1
 48
1.0
  6
CONTINUOUS
100
AcDbLine
 10
113.6999999999999886
 20
-69.1499999999999915
 30
0.0
 11
113.6999999999999886
 21
-69.1624999999999943
 31
0.0
  0
LINE
  5
7D
100
AcDbEntity
  8
trace_out
 62
256
370
-1
 48
1.0
  6
CONTINUOUS
100
AcDbLine
 10
113.6999999999999886
 20
-69.1624999999999943
 30
0.0
 11
114.7999999999999972
 21
-69.1624999999999943
 31
0.0
  0
LINE
  5
7E
100
AcDbEntity
  8
trace_out
 62
256
370
-1
 48
1.0
  6
CONTINUOUS
100
AcDbLine
 10
114.7999999999999972
 20
-69.1624999999999943
 30
0.0
 11
114.7999999999999972
 21
-69.1499999999999915
 31
0.0
  0
LINE
  5
7F
100
AcDbEntity
  8
trace_out
 62
256
370
-1
 48
1.0
  6
CONTINUOUS
100
AcDbLine
 10
114.7999999999999972
 20
-69.1499999999999915
 30
0.0
 11
114.8190299999999979
 21
-69.0543289999999956
 31
0.0
  0
LINE
  5
80
100
AcDbEntity
  8
trace_out
 62
256
370
-1
 48
1.0
  6
CONTINUOUS
100
AcDbLine
 10
114.8190299999999979
 20
-69.0543289999999956
 30
0.0
 11
114.8732229999999959
 21
-68.9732229999999902
 31
0.0
  0
LINE
  5
81
100
AcDbEntity
  8
trace_out
 62
256
370
-1
 48
1.0
  6
CONTINUOUS
100
AcDbLine
 10
114.8732229999999959
 20
-68.9732229999999902
 30
0.0
 11
114.9543290000000013
 21
-68.9190299999999922
 31
0.0
  0
LINE
  5
82
100
AcDbEntity
  8
trace_out
 62
256
370
-1
 48
1.0
  6
CONTINUOUS
100
AcDbLine
 10
114.9543290000000013
 20
-68.9190299999999922
 30
0.0
 11
115.0499999999999972
 21
-68.8999999999999915
 31
0.0
  0
LINE
  5
83
100
AcDbEntity
  8
trace_out
 62
256
370
-1
 48
1.0
  6
CONTINUOUS
100
AcDbLine
 10
115.0499999999999972
 20
-68.8999999999999915
 30
0.0
 11
115.9499999999999886
 21
-68.8999999999999915
 31
0.0
  0
LINE
  5
84
100
AcDbEntity
  8
trace_out
 62
256
370
-1
 48
1.0
  6
CONTINUOUS
100
AcDbLine
 10
115.9499999999999886
 20
-68.8999999999999915
 30
0.0
 11
116.0456709999999987
 21
-68.9190299999999922
 31
0.0
  0
LINE
  5
85
100
AcDbEntity
  8
trace_out
 62
256
370
-1
 48
1.0
  6
CONTINUOUS
100
AcDbLine
 10
116.0456709999999987
 20
-68.9190299999999922
 30
0.0
 11
116.1267769999999899
 21
-68.9732229999999902
 31
0.0
  0
LINE
  5
86
100
AcDbEntity
  8
trace_out
 62
256
370
-1
 48
1.0
  6
CONTINUOUS
100
AcDbLine
 10
116.1267769999999899
 20
-68.9732229999999902
 30
0.0
 11
116.1809699999999879
 21
-69.0543289999999956
 31
0.0
  0
LINE
  5
87
100
AcDbEntity
  8
trace_out
 62
256
370
-1
 48
1.0
  6
CONTINUOUS
100
AcDbLine
 10
116.1809699999999879
 20
-69.0543289999999956
 30
0.0
 11
116.1999999999999886
 21
-69.1499999999999915
 31
0.0
  0
LINE
  5
88
100
AcDbEntity
  8
trace_out
 62
256
370
-1
 48
1.0
  6
CONTINUOUS
100
AcDbLine
 10
116.1999999999999886
 20
-69.1499999999999915
 30
0.0
 11
116.1999999999999886
 21
-69.1624999999999943
 31
0.0
  0
LINE
  5
89
100
AcDbEntity
  8
trace_out
 62
256
370
-1
 48
1.0
  6
CONTINUOUS
100
AcDbLine
 10
116.1999999999999886
 20
-69.1624999999999943
 30
0.0
 11
117.2999999999999972
 21
-69.1624999999999943
 31
0.0
  0
LINE
  5
8A
100
AcDbEntity
  8
trace_out
 62
256
370
-1
 48
1.0
  6
CONTINUOUS
100
AcDbLine
 10
117.2999999999999972
 20
-69.1624999999999943
 30
0.0
 11
117.2999999999999972
 21
-69.1499999999999915
 31
0.0
  0
LINE
  5
8B
100
AcDbEntity
  8
trace_out
 62
256
370
-1
 48
1.0
  6
CONTINUOUS
100
AcDbLine
 10
117.2999999999999972
 20
-69.1499999999999915
 30
0.0
 11
117.3190299999999979
 21
-69.0543289999999956
 31
0.0
  0
LINE
  5
8C
100
AcDbEntity
  8
trace_out
 62
256
370
-1
 48
1.0
  6
CONTINUOUS
100
AcDbLine
 10
117.3190299999999979
 20
-69.0543289999999956
 30
0.0
 11
117.3732229999999959
 21
-68.9732229999999902
 31
0.0
  0
LINE
  5
8D
100
AcDbEntity
  8
trace_out
 62
256
370
-1
 48
1.0
  6
CONTINUOUS
100
AcDbLine
 10
117.3732229999999959
 20
-68.9732229999999902
 30
0.0
 11
117.4543290000000013
 21
-68.9190299999999922
 31
0.0
  0
LINE
  5
8E
100
AcDbEntity
  8
trace_out
 62
256
370
-1
 48
1.0
  6
CONTINUOUS
100
AcDbLine
 10
117.4543290000000013
 20
-68.9190299999999922
 30
0.0
 11
117.5499999999999972
 21
-68.8999999999999915
 31
0.0
  0
LINE
  5
8F
100
AcDbEntity
  8
trace_out
 62
256
370
-1
 48
1.0
  6
CONTINUOUS
100
AcDbLine
 10
117.5499999999999972
 20
-68.8999999999999915
 30
0.0
 11
118.4499999999999886
 21
-68.8999999999999915
 31
0.0
  0
LINE
  5
90
100
AcDbEntity
  8
trace_out
 62
256
370
-1
 48
1.0
  6
CONTINUOUS
100
AcDbLine
 10
118.4499999999999886
 20
-68.8999999999999915
 30
0.0
 11
118.5456709999999987
 21
-68.9190299999999922
 31
0.0
  0
LINE
  5
91
100
AcDbEntity
  8
trace_out
 62
256
370
-1
 48
1.0
  6
CONTINUOUS
100
AcDbLine
 10
118.5456709999999987
 20
-68.9190299999999922
 30
0.0
 11
118.6267769999999899
 21
-68.9732229999999902
 31
0.0
  0
LINE
  5
92
100
AcDbEntity
  8
trace_out
 62
256
370
-1
 48
1.0
  6
CONTINUOUS
100
AcDbLine
 10
118.6267769999999899
 20
-68.9732229999999902
 30
0.0
 11
118.6809699999999879
 21
-69.0543289999999956
 31
0.0
  0
LINE
  5
93
100
AcDbEntity
  8
trace_out
 62
256
370
-1
 48
1.0
  6
CONTINUOUS
100
AcDbLine
 10
118.6809699999999879
 20
-69.0543289999999956
 30
0.0
 11
118.6999999999999886
 21
-69.1499999999999915
 31
0.0
  0
LINE
  5
94
100
AcDbEntity
  8
trace_out
 62
256
370
-1
 48
1.0
  6
CONTINUOUS
100
AcDbLine
 10
118.6999999999999886
 20
-69.1499999999999915
 30
0.0
 11
118.6999999999999886
 21
-69.1624999999999943
 31
0.0
  0
LINE
  5
95
100
AcDbEntity
  8
trace_out
 62
256
370
-1
 48
1.0
  6
CONTINUOUS
100
AcDbLine
 10
118.6999999999999886
 20
-69.1624999999999943
 30
0.0
 11
119.7999999999999972
 21
-69.1624999999999943
 31
0.0
  0
LINE
  5
96
100
AcDbEntity
  8
trace_out
 62
256
370
-1
 48
1.0
  6
CONTINUOUS
100
AcDbLine
 10
119.7999999999999972
 20
-69.1624999999999943
 30
0.0
 11
119.7999999999999972
 21
-69.1499999999999915
 31
0.0
  0
LINE
  5
97
100
AcDbEntity
  8
trace_out
 62
256
370
-1
 48
1.0
  6
CONTINUOUS
100
AcDbLine
 10
119.7999999999999972
 20
-69.1499999999999915
 30
0.0
 11
119.8190299999999979
 21
-69.0543289999999956
 31
0.0
  0
LINE
  5
98
100
AcDbEntity
  8
trace_out
 62
256
370
-1
 48
1.0
  6
CONTINUOUS
100
AcDbLine
 10
119.8190299999999979
 20
-69.0543289999999956
 30
0.0
 11
119.8732229999999959
 21
-68.9732229999999902
 31
0.0
  0
LINE
  5
99
100
AcDbEntity
  8
trace_out
 62
256
370
-1
 48
1.0
  6
CONTINUOUS
100
AcDbLine
 10
119.8732229999999959
 20
-68.9732229999999902
 30
0.0
 11
119.9543290000000013
 21
-68.9190299999999922
 31
0.0
  0
LINE
  5
9A
100
AcDbEntity
  8
trace_out
 62
256
370
-1
 48
1.0
  6
CONTINUOUS
100
AcDbLine
 10
119.9543290000000013
 20
-68.9190299999999922
 30
0.0
 11
120.0499999999999972
 21
-68.8999999999999915
 31
0.0
  0
LINE
  5
9B
100
AcDbEntity
  8
trace_out
 62
256
370
-1
 48
1.0
  6
CONTINUOUS
100
AcDbLine
 10
120.0499999999999972
 20
-68.8999999999999915
 30
0.0
 11
120.9499999999999886
 21
-68.8999999999999915
 31
0.0
  0
LINE
  5
9C
100
AcDbEntity
  8
trace_out
 62
256
370
-1
 48
1.0
  6
CONTINUOUS
100
AcDbLine
 10
120.9499999999999886
 20
-68.8999999999999915
 30
0.0
 11
121.0456709999999987
 21
-68.9190299999999922
 31
0.0
  0
LINE
  5
9D
100
AcDbEntity
  8
trace_out
 62
256
370
-1
 48
1.0
  6
CONTINUOUS
100
AcDbLine
 10
121.0456709999999987
 20
-68.9190299999999922
 30
0.0
 11
121.1267769999999899
 21
-68.9732229999999902
 31
0.0
  0
LINE
  5
9E
100
AcDbEntity
  8
trace_out
 62
256
370
-1
 48
1.0
  6
CONTINUOUS
100
AcDbLine
 10
121.1267769999999899
 20
-68.9732229999999902
 30
0.0
 11
121.1453799999999887
 21
-69.001064999999997
 31
0.0
  0
LINE
  5
9F
100
AcDbEntity
  8
trace_out
 62
256
370
-1
 48
1.0
  6
CONTINUOUS
100
AcDbLine
 10
121.1453799999999887
 20
-69.001064999999997
 30
0.0
 11
122.75
 21
-67.3964459999999974
 31
0.0
  0
LINE
  5
A0
100
AcDbEntity
  8
trace_out
 62
256
370
-1
 48
1.0
  6
CONTINUOUS
100
AcDbLine
 10
122.75
 20
-67.3964459999999974
 30
0.0
 11
122.75
 21
-65.6009930000000026
 31
0.0
  0
LINE
  5
A1
100
AcDbEntity
  8
trace_out
 62
256
370
-1
 48
1.0
  6
CONTINUOUS
100
AcDbLine
 10
122.75
 20
-65.6009930000000026
 30
0.0
 11
122.7263969999999915
 21
-65.6203620000000001
 31
0.0
  0
LINE
  5
A2
100
AcDbEntity
  8
trace_out
 62
256
370
-1
 48
1.0
  6
CONTINUOUS
100
AcDbLine
 10
122.7263969999999915
 20
-65.6203620000000001
 30
0.0
 11
122.7263929999999874
 21
-65.6203670000000017
 31
0.0
  0
LINE
  5
A3
100
AcDbEntity
  8
trace_out
 62
256
370
-1
 48
1.0
  6
CONTINUOUS
100
AcDbLine
 10
122.7263929999999874
 20
-65.6203670000000017
 30
0.0
 11
122.6362729999999885
 21
-65.6576960000000014
 31
0.0
  0
LINE
  5
A4
100
AcDbEntity
  8
trace_out
 62
256
370
-1
 48
1.0
  6
CONTINUOUS
100
AcDbLine
 10
122.6362729999999885
 20
-65.6576960000000014
 30
0.0
 11
122.5874999999999915
 21
-65.6624999999999943
 31
0.0
  0
LINE
  5
A5
100
AcDbEntity
  8
trace_out
 62
256
370
-1
 48
1.0
  6
CONTINUOUS
100
AcDbLine
 10
122.5874999999999915
 20
-65.6624999999999943
 30
0.0
 11
121.6999999999999886
 21
-65.6624999999999943
 31
0.0
  0
LINE
  5
A6
100
AcDbEntity
  8
trace_out
 62
256
370
-1
 48
1.0
  6
CONTINUOUS
100
AcDbLine
 10
121.6999999999999886
 20
-65.6624999999999943
 30
0.0
 11
121.6999999999999886
 21
-65.6749999999999972
 31
0.0
  0
LINE
  5
A7
100
AcDbEntity
  8
trace_out
 62
256
370
-1
 48
1.0
  6
CONTINUOUS
100
AcDbLine
 10
121.6999999999999886
 20
-65.6749999999999972
 30
0.0
 11
121.6809699999999879
 21
-65.770670999999993
 31
0.0
  0
LINE
  5
A8
100
AcDbEntity
  8
trace_out
 62
256
370
-1
 48
1.0
  6
CONTINUOUS
100
AcDbLine
 10
121.6809699999999879
 20
-65.770670999999993
 30
0.0
 11
121.6267769999999899
 21
-65.8517769999999985
 31
0.0
  0
LINE
  5
A9
100
AcDbEntity
  8
trace_out
 62
256
370
-1
 48
1.0
  6
CONTINUOUS
100
AcDbLine
 10
121.6267769999999899
 20
-65.8517769999999985
 30
0.0
 11
121.5456709999999987
 21
-65.9059699999999964
 31
0.0
  0
LINE
  5
AA
100
AcDbEntity
  8
trace_out
 62
256
370
-1
 48
1.0
  6
CONTINUOUS
100
AcDbLine
 10
121.5456709999999987
 20
-65.9059699999999964
 30
0.0
 11
121.4499999999999886
 21
-65.9249999999999972
 31
0.0
  0
LINE
  5
AB
100
AcDbEntity
  8
trace_out
 62
256
370
-1
 48
1.0
  6
CONTINUOUS
100
AcDbLine
 10
121.4499999999999886
 20
-65.9249999999999972
 30
0.0
 11
120.5499999999999972
 21
-65.9249999999999972
 31
0.0
  0
LINE
  5
AC
100
AcDbEntity
  8
trace_out
 62
256
370
-1
 48
1.0
  6
CONTINUOUS
100
AcDbLine
 10
120.5499999999999972
 20
-65.9249999999999972
 30
0.0
 11
120.4543290000000013
 21
-65.9059699999999964
 31
0.0
  0
LINE
  5
AD
100
AcDbEntity
  8
trace_out
 62
256
370
-1
 48
1.0
  6
CONTINUOUS
100
AcDbLine
 10
120.4543290000000013
 20
-65.9059699999999964
 30
0.0
 11
120.3732229999999959
 21
-65.8517769999999985
 31
0.0
  0
LINE
  5
AE
100
AcDbEntity
  8
trace_out
 62
256
370
-1
 48
1.0
  6
CONTINUOUS
100
AcDbLine
 10
120.3732229999999959
 20
-65.8517769999999985
 30
0.0
 11
120.3190299999999979
 21
-65.770670999999993
 31
0.0
  0
LINE
  5
AF
100
AcDbEntity
  8
trace_out
 62
256
370
-1
 48
1.0
  6
CONTINUOUS
100
AcDbLine
 10
120.3190299999999979
 20
-65.770670999999993
 30
0.0
 11
120.2999999999999972
 21
-65.6749999999999972
 31
0.0
  0
LINE
  5
B0
100
AcDbEntity
  8
trace_out
 62
256
370
-1
 48
1.0
  6
CONTINUOUS
100
AcDbLine
 10
120.2999999999999972
 20
-65.6749999999999972
 30
0.0
 11
120.2999999999999972
 21
-65.1499999999999915
 31
0.0
  0
LINE
  5
B1
100
AcDbEntity
  8
trace_out
 62
256
370
-1
 48
1.0
  6
CONTINUOUS
100
AcDbLine
 10
120.2999999999999972
 20
-65.1499999999999915
 30
0.0
 11
120.3190299999999979
 21
-65.0543289999999956
 31
0.0
  0
LINE
  5
B2
100
AcDbEntity
  8
trace_out
 62
256
370
-1
 48
1.0
  6
CONTINUOUS
100
AcDbLine
 10
120.3190299999999979
 20
-65.0543289999999956
 30
0.0
 11
120.3732229999999959
 21
-64.9732229999999902
 31
0.0
  0
LINE
  5
B3
100
AcDbEntity
  8
trace_out
 62
256
370
-1
 48
1.0
  6
CONTINUOUS
100
AcDbLine
 10
120.3732229999999959
 20
-64.9732229999999902
 30
0.0
 11
120.4543290000000013
 21
-64.9190299999999922
 31
0.0
  0
LINE
  5
B4
100
AcDbEntity
  8
trace_out
 62
256
370
-1
 48
1.0
  6
CONTINUOUS
100
AcDbLine
 10
120.4543290000000013
 20
-64.9190299999999922
 30
0.0
 11
120.5499999999999972
 21
-64.8999999999999915
 31
0.0
  0
LINE
  5
B5
100
AcDbEntity
  8
trace_out
 62
256
370
-1
 48
1.0
  6
CONTINUOUS
100
AcDbLine
 10
120.5499999999999972
 20
-64.8999999999999915
 30
0.0
 11
121.4499999999999886
 21
-64.8999999999999915
 31
0.0
  0
LINE
  5
B6
100
AcDbEntity
  8
trace_out
 62
256
370
-1
 48
1.0
  6
CONTINUOUS
100
AcDbLine
 10
121.4499999999999886
 20
-64.8999999999999915
 30
0.0
 11
121.5456709999999987
 21
-64.9190299999999922
 31
0.0
  0
LINE
  5
B7
100
AcDbEntity
  8
trace_out
 62
256
370
-1
 48
1.0
  6
CONTINUOUS
100
AcDbLine
 10
121.5456709999999987
 20
-64.9190299999999922
 30
0.0
 11
121.6267769999999899
 21
-64.9732229999999902
 31
0.0
  0
LINE
  5
B8
100
AcDbEntity
  8
trace_out
 62
256
370
-1
 48
1.0
  6
CONTINUOUS
100
AcDbLine
 10
121.6267769999999899
 20
-64.9732229999999902
 30
0.0
 11
121.6809699999999879
 21
-65.0543289999999956
 31
0.0
  0
LINE
  5
B9
100
AcDbEntity
  8
trace_out
 62
256
370
-1
 48
1.0
  6
CONTINUOUS
100
AcDbLine
 10
121.6809699999999879
 20
-65.0543289999999956
 30
0.0
 11
121.6999999999999886
 21
-65.1499999999999915
 31
0.0
  0
LINE
  5
BA
100
AcDbEntity
  8
trace_out
 62
256
370
-1
 48
1.0
  6
CONTINUOUS
100
AcDbLine
 10
121.6999999999999886
 20
-65.1499999999999915
 30
0.0
 11
121.6999999999999886
 21
-65.1624999999999943
 31
0.0
  0
LINE
  5
BB
100
AcDbEntity
  8
trace_out
 62
256
370
-1
 48
1.0
  6
CONTINUOUS
100
AcDbLine
 10
121.6999999999999886
 20
-65.1624999999999943
 30
0.0
 11
122.4839459999999889
 21
-65.1624999999999943
 31
0.0
  0
LINE
  5
BC
100
AcDbEntity
  8
trace_out
 62
256
370
-1
 48
1.0
  6
CONTINUOUS
100
AcDbLine
 10
122.4839459999999889
 20
-65.1624999999999943
 30
0.0
 11
122.75
 21
-64.8964459999999974
 31
0.0
  0
LINE
  5
BD
100
AcDbEntity
  8
trace_out
 62
256
370
-1
 48
1.0
  6
CONTINUOUS
100
AcDbLine
 10
122.75
 20
-64.8964459999999974
 30
0.0
 11
122.75
 21
-61.0
 31
0.0
  0
LINE
  5
BE
100
AcDbEntity
  8
trace_out
 62
256
370
-1
 48
1.0
  6
CONTINUOUS
100
AcDbLine
 10
122.75
 20
-61.0
 30
0.0
 11
122.7548039999999929
 21
-60.9512269999999958
 31
0.0
  0
LINE
  5
BF
100
AcDbEntity
  8
trace_out
 62
256
370
-1
 48
1.0
  6
CONTINUOUS
100
AcDbLine
 10
122.7548039999999929
 20
-60.9512269999999958
 30
0.0
 11
122.7921329999999926
 21
-60.861106999999997
 31
0.0
  0
LINE
  5
C0
100
AcDbEntity
  8
trace_out
 62
256
370
-1
 48
1.0
  6
CONTINUOUS
100
AcDbLine
 10
122.7921329999999926
 20
-60.861106999999997
 30
0.0
 11
122.7921369999999968
 21
-60.8611019999999954
 31
0.0
  0
LINE
  5
C1
100
AcDbEntity
  8
trace_out
 62
256
370
-1
 48
1.0
  6
CONTINUOUS
100
AcDbLine
 10
122.7921369999999968
 20
-60.8611019999999954
 30
0.0
 11
122.8232229999999987
 21
-60.8232229999999987
 31
0.0
  0
LINE
  5
C2
100
AcDbEntity
  8
trace_out
 62
256
370
-1
 48
1.0
  6
CONTINUOUS
100
AcDbLine
 10
122.8232229999999987
 20
-60.8232229999999987
 30
0.0
 11
123.3249999999999886
 21
-60.3214459999999946
 31
0.0
  0
LINE
  5
C3
100
AcDbEntity
  8
trace_out
 62
256
370
-1
 48
1.0
  6
CONTINUOUS
100
AcDbLine
 10
123.3249999999999886
 20
-60.3214459999999946
 30
0.0
 11
123.3249999999999886
 21
-59.5079999999999956
 31
0.0
  0
LINE
  5
C4
100
AcDbEntity
  8
trace_out
 62
256
370
-1
 48
1.0
  6
CONTINUOUS
100
AcDbLine
 10
123.3249999999999886
 20
-59.5079999999999956
 30
0.0
 11
129.6749999999999829
 21
-59.5079999999999956
 31
0.0
  0
LINE
  5
C5
100
AcDbEntity
  8
trace_out
 62
256
370
-1
 48
1.0
  6
CONTINUOUS
100
AcDbLine
 10
129.6749999999999829
 20
-59.5079999999999956
 30
0.0
 11
129.6749999999999829
 21
-61.0319999999999965
 31
0.0
  0
LINE
  5
C6
100
AcDbEntity
  8
trace_out
 62
256
370
-1
 48
1.0
  6
CONTINUOUS
100
AcDbLine
 10
129.6749999999999829
 20
-61.0319999999999965
 30
0.0
 11
123.3249999999999886
 21
-61.0319999999999965
 31
0.0
  0
LINE
  5
C7
100
AcDbEntity
  8
trace_out
 62
256
370
-1
 48
1.0
  6
CONTINUOUS
100
AcDbLine
 10
123.3249999999999886
 20
-61.0319999999999965
 30
0.0
 11
123.3249999999999886
 21
-61.0285539999999997
 31
0.0
  0
LINE
  5
C8
100
AcDbEntity
  8
trace_out
 62
256
370
-1
 48
1.0
  6
CONTINUOUS
100
AcDbLine
 10
123.3249999999999886
 20
-61.0285539999999997
 30
0.0
 11
123.25
 21
-61.1035539999999955
 31
0.0
  0
LINE
  5
C9
100
AcDbEntity
  8
trace_out
 62
256
370
-1
 48
1.0
  6
CONTINUOUS
100
AcDbLine
 10
123.25
 20
-61.1035539999999955
 30
0.0
 11
123.25
 21
-65.0
 31
0.0
  0
LINE
  5
CA
100
AcDbEntity
  8
trace_out
 62
256
370
-1
 48
1.0
  6
CONTINUOUS
100
AcDbLine
 10
123.25
 20
-65.0
 30
0.0
 11
123.25
 21
-67.5
 31
0.0
  0
LINE
  5
CB
100
AcDbEntity
  8
trace_out
 62
256
370
-1
 48
1.0
  6
CONTINUOUS
100
AcDbLine
 10
123.25
 20
-67.5
 30
0.0
 11
123.2451959999999929
 21
-67.5487729999999971
 31
0.0
  0
LINE
  5
CC
100
AcDbEntity
  8
trace_out
 62
256
370
-1
 48
1.0
  6
CONTINUOUS
100
AcDbLine
 10
123.2451959999999929
 20
-67.5487729999999971
 30
0.0
 11
123.2078669999999931
 21
-67.6388929999999959
 31
0.0
  0
LINE
  5
CD
100
AcDbEntity
  8
trace_out
 62
256
370
-1
 48
1.0
  6
CONTINUOUS
100
AcDbLine
 10
123.2078669999999931
 20
-67.6388929999999959
 30
0.0
 11
123.2078619999999916
 21
-67.638897
 31
0.0
  0
LINE
  5
CE
100
AcDbEntity
  8
trace_out
 62
256
370
-1
 48
1.0
  6
CONTINUOUS
100
AcDbLine
 10
123.2078619999999916
 20
-67.638897
 30
0.0
 11
123.1767759999999896
 21
-67.6767770000000013
 31
0.0
  0
LINE
  5
CF
100
AcDbEntity
  8
trace_out
 62
256
370
-1
 48
1.0
  6
CONTINUOUS
100
AcDbLine
 10
123.1767759999999896
 20
-67.6767770000000013
 30
0.0
 11
121.2642769999999928
 21
-69.5892769999999956
 31
0.0
  0
LINE
  5
D0
100
AcDbEntity
  8
trace_out
 62
256
370
-1
 48
1.0
  6
CONTINUOUS
100
AcDbLine
 10
121.2642769999999928
 20
-69.5892769999999956
 30
0.0
 11
121.2263969999999915
 21
-69.6203620000000001
 31
0.0
  0
LINE
  5
D1
100
AcDbEntity
  8
trace_out
 62
256
370
-1
 48
1.0
  6
CONTINUOUS
100
AcDbLine
 10
121.2263969999999915
 20
-69.6203620000000001
 30
0.0
 11
121.2263929999999874
 21
-69.6203670000000017
 31
0.0
  0
LINE
  5
D2
100
AcDbEntity
  8
trace_out
 62
256
370
-1
 48
1.0
  6
CONTINUOUS
100
AcDbLine
 10
121.2263929999999874
 20
-69.6203670000000017
 30
0.0
 11
121.1999999999999886
 21
-69.6312989999999985
 31
0.0
  0
LINE
  5
D3
100
AcDbEntity
  8
trace_out
 62
256
370
-1
 48
1.0
  6
CONTINUOUS
100
AcDbLine
 10
121.1999999999999886
 20
-69.6312989999999985
 30
0.0
 11
121.1999999999999886
 21
-69.6749999999999972
 31
0.0
  0
LINE
  5
D4
100
AcDbEntity
  8
trace_out
 62
256
370
-1
 48
1.0
  6
CONTINUOUS
100
AcDbLine
 10
121.1999999999999886
 20
-69.6749999999999972
 30
0.0
 11
121.1809699999999879
 21
-69.770670999999993
 31
0.0
  0
LINE
  5
D5
100
AcDbEntity
  8
trace_out
 62
256
370
-1
 48
1.0
  6
CONTINUOUS
100
AcDbLine
 10
121.1809699999999879
 20
-69.770670999999993
 30
0.0
 11
121.1267769999999899
 21
-69.8517769999999985
 31
0.0
  0
LINE
  5
D6
100
AcDbEntity
  8
trace_out
 62
256
370
-1
 48
1.0
  6
CONTINUOUS
100
AcDbLine
 10
121.1267769999999899
 20
-69.8517769999999985
 30
0.0
 11
121.0456709999999987
 21
-69.9059699999999964
 31
0.0
  0
LINE
  5
D7
100
AcDbEntity
  8
trace_out
 62
256
370
-1
 48
1.0
  6
CONTINUOUS
100
AcDbLine
 10
121.0456709999999987
 20
-69.9059699999999964
 30
0.0
 11
120.9499999999999886
 21
-69.9249999999999972
 31
0.0
  0
LINE
  5
D8
100
AcDbEntity
  8
trace_out
 62
256
370
-1
 48
1.0
  6
CONTINUOUS
100
AcDbLine
 10
120.9499999999999886
 20
-69.9249999999999972
 30
0.0
 11
120.0499999999999972
 21
-69.9249999999999972
 31
0.0
  0
LINE
  5
D9
100
AcDbEntity
  8
trace_out
 62
256
370
-1
 48
1.0
  6
CONTINUOUS
100
AcDbLine
 10
120.0499999999999972
 20
-69.9249999999999972
 30
0.0
 11
119.9543290000000013
 21
-69.9059699999999964
 31
0.0
  0
LINE
  5
DA
100
AcDbEntity
  8
trace_out
 62
256
370
-1
 48
1.0
  6
CONTINUOUS
100
AcDbLine
 10
119.9543290000000013
 20
-69.9059699999999964
 30
0.0
 11
119.8732229999999959
 21
-69.8517769999999985
 31
0.0
  0
LINE
  5
DB
100
AcDbEntity
  8
trace_out
 62
256
370
-1
 48
1.0
  6
CONTINUOUS
100
AcDbLine
 10
119.8732229999999959
 20
-69.8517769999999985
 30
0.0
 11
119.8190299999999979
 21
-69.770670999999993
 31
0.0
  0
LINE
  5
DC
100
AcDbEntity
  8
trace_out
 62
256
370
-1
 48
1.0
  6
CONTINUOUS
100
AcDbLine
 10
119.8190299999999979
 20
-69.770670999999993
 30
0.0
 11
119.7999999999999972
 21
-69.6749999999999972
 31
0.0
  0
LINE
  5
DD
100
AcDbEntity
  8
trace_out
 62
256
370
-1
 48
1.0
  6
CONTINUOUS
100
AcDbLine
 10
119.7999999999999972
 20
-69.6749999999999972
 30
0.0
 11
119.7999999999999972
 21
-69.6624999999999943
 31
0.0
  0
LINE
  5
DE
100
AcDbEntity
  8
trace_out
 62
256
370
-1
 48
1.0
  6
CONTINUOUS
100
AcDbLine
 10
119.7999999999999972
 20
-69.6624999999999943
 30
0.0
 11
118.6999999999999886
 21
-69.6624999999999943
 31
0.0
  0
LINE
  5
DF
100
AcDbEntity
  8
trace_out
 62
256
370
-1
 48
1.0
  6
CONTINUOUS
100
AcDbLine
 10
118.6999999999999886
 20
-69.6624999999999943
 30
0.0
 11
118.6999999999999886
 21
-69.6749999999999972
 31
0.0
  0
LINE
  5
E0
100
AcDbEntity
  8
trace_out
 62
256
370
-1
 48
1.0
  6
CONTINUOUS
100
AcDbLine
 10
118.6999999999999886
 20
-69.6749999999999972
 30
0.0
 11
118.6809699999999879
 21
-69.770670999999993
 31
0.0
  0
LINE
  5
E1
100
AcDbEntity
  8
trace_out
 62
256
370
-1
 48
1.0
  6
CONTINUOUS
100
AcDbLine
 10
118.6809699999999879
 20
-69.770670999999993
 30
0.0
 11
118.6267769999999899
 21
-69.8517769999999985
 31
0.0
  0
LINE
  5
E2
100
AcDbEntity
  8
trace_out
 62
256
370
-1
 48
1.0
  6
CONTINUOUS
100
AcDbLine
 10
118.6267769999999899
 20
-69.8517769999999985
 30
0.0
 11
118.5456709999999987
 21
-69.9059699999999964
 31
0.0
  0
LINE
  5
E3
100
AcDbEntity
  8
trace_out
 62
256
370
-1
 48
1.0
  6
CONTINUOUS
100
AcDbLine
 10
118.5456709999999987
 20
-69.9059699999999964
 30
0.0
 11
118.4499999999999886
 21
-69.9249999999999972
 31
0.0
  0
LINE
  5
E4
100
AcDbEntity
  8
trace_out
 62
256
370
-1
 48
1.0
  6
CONTINUOUS
100
AcDbLine
 10
118.4499999999999886
 20
-69.9249999999999972
 30
0.0
 11
117.5499999999999972
 21
-69.9249999999999972
 31
0.0
  0
LINE
  5
E5
100
AcDbEntity
  8
trace_out
 62
256
370
-1
 48
1.0
  6
CONTINUOUS
100
AcDbLine
 10
117.5499999999999972
 20
-69.9249999999999972
 30
0.0
 11
117.4543290000000013
 21
-69.9059699999999964
 31
0.0
  0
LINE
  5
E6
100
AcDbEntity
  8
trace_out
 62
256
370
-1
 48
1.0
  6
CONTINUOUS
100
AcDbLine
 10
117.4543290000000013
 20
-69.9059699999999964
 30
0.0
 11
117.3732229999999959
 21
-69.8517769999999985
 31
0.0
  0
LINE
  5
E7
100
AcDbEntity
  8
trace_out
 62
256
370
-1
 48
1.0
  6
CONTINUOUS
100
AcDbLine
 10
117.3732229999999959
 20
-69.8517769999999985
 30
0.0
 11
117.3190299999999979
 21
-69.770670999999993
 31
0.0
  0
LINE
  5
E8
100
AcDbEntity
  8
trace_out
 62
256
370
-1
 48
1.0
  6
CONTINUOUS
100
AcDbLine
 10
117.3190299999999979
 20
-69.770670999999993
 30
0.0
 11
117.2999999999999972
 21
-69.6749999999999972
 31
0.0
  0
LINE
  5
E9
100
AcDbEntity
  8
trace_out
 62
256
370
-1
 48
1.0
  6
CONTINUOUS
100
AcDbLine
 10
117.2999999999999972
 20
-69.6749999999999972
 30
0.0
 11
117.2999999999999972
 21
-69.6624999999999943
 31
0.0
  0
LINE
  5
EA
100
AcDbEntity
  8
trace_out
 62
256
370
-1
 48
1.0
  6
CONTINUOUS
100
AcDbLine
 10
117.2999999999999972
 20
-69.6624999999999943
 30
0.0
 11
116.1999999999999886
 21
-69.6624999999999943
 31
0.0
  0
LINE
  5
EB
100
AcDbEntity
  8
trace_out
 62
256
370
-1
 48
1.0
  6
CONTINUOUS
100
AcDbLine
 10
116.1999999999999886
 20
-69.6624999999999943
 30
0.0
 11
116.1999999999999886
 21
-69.6749999999999972
 31
0.0
  0
LINE
  5
EC
100
AcDbEntity
  8
trace_out
 62
256
370
-1
 48
1.0
  6
CONTINUOUS
100
AcDbLine
 10
116.1999999999999886
 20
-69.6749999999999972
 30
0.0
 11
116.1809699999999879
 21
-69.770670999999993
 31
0.0
  0
LINE
  5
ED
100
AcDbEntity
  8
trace_out
 62
256
370
-1
 48
1.0
  6
CONTINUOUS
100
AcDbLine
 10
116.1809699999999879
 20
-69.770670999999993
 30
0.0
 11
116.1267769999999899
 21
-69.8517769999999985
 31
0.0
  0
LINE
  5
EE
100
AcDbEntity
  8
trace_out
 62
256
370
-1
 48
1.0
  6
CONTINUOUS
100
AcDbLine
 10
116.1267769999999899
 20
-69.8517769999999985
 30
0.0
 11
116.0456709999999987
 21
-69.9059699999999964
 31
0.0
  0
LINE
  5
EF
100
AcDbEntity
  8
trace_out
 62
256
370
-1
 48
1.0
  6
CONTINUOUS
100
AcDbLine
 10
116.0456709999999987
 20
-69.9059699999999964
 30
0.0
 11
115.9499999999999886
 21
-69.9249999999999972
 31
0.0
  0
LINE
  5
F0
100
AcDbEntity
  8
trace_out
 62
256
370
-1
 48
1.0
  6
CONTINUOUS
100
AcDbLine
 10
115.9499999999999886
 20
-69.9249999999999972
 30
0.0
 11
115.0499999999999972
 21
-69.9249999999999972
 31
0.0
  0
LINE
  5
F1
100
AcDbEntity
  8
trace_out
 62
256
370
-1
 48
1.0
  6
CONTINUOUS
100
AcDbLine
 10
115.0499999999999972
 20
-69.9249999999999972
 30
0.0
 11
114.9543290000000013
 21
-69.9059699999999964
 31
0.0
  0
LINE
  5
F2
100
AcDbEntity
  8
trace_out
 62
256
370
-1
 48
1.0
  6
CONTINUOUS
100
AcDbLine
 10
114.9543290000000013
 20
-69.9059699999999964
 30
0.0
 11
114.8732229999999959
 21
-69.8517769999999985
 31
0.0
  0
LINE
  5
F3
100
AcDbEntity
  8
trace_out
 62
256
370
-1
 48
1.0
  6
CONTINUOUS
100
AcDbLine
 10
114.8732229999999959
 20
-69.8517769999999985
 30
0.0
 11
114.8190299999999979
 21
-69.770670999999993
 31
0.0
  0
LINE
  5
F4
100
AcDbEntity
  8
trace_out
 62
256
370
-1
 48
1.0
  6
CONTINUOUS
100
AcDbLine
 10
114.8190299999999979
 20
-69.770670999999993
 30
0.0
 11
114.7999999999999972
 21
-69.6749999999999972
 31
0.0
  0
LINE
  5
F5
100
AcDbEntity
  8
trace_out
 62
256
370
-1
 48
1.0
  6
CONTINUOUS
100
AcDbLine
 10
114.7999999999999972
 20
-69.6749999999999972
 30
0.0
 11
114.7999999999999972
 21
-69.6624999999999943
 31
0.0
  0
LINE
  5
F6
100
AcDbEntity
  8
trace_out
 62
256
370
-1
 48
1.0
  6
CONTINUOUS
100
AcDbLine
 10
114.7999999999999972
 20
-69.6624999999999943
 30
0.0
 11
113.6999999999999886
 21
-69.6624999999999943
 31
0.0
  0
LINE
  5
F7
100
AcDbEntity
  8
trace_out
 62
256
370
-1
 48
1.0
  6
CONTINUOUS
100
AcDbLine
 10
113.6999999999999886
 20
-69.6624999999999943
 30
0.0
 11
113.6999999999999886
 21
-69.6749999999999972
 31
0.0
  0
LINE
  5
F8
100
AcDbEntity
  8
trace_out
 62
256
370
-1
 48
1.0
  6
CONTINUOUS
100
AcDbLine
 10
113.6999999999999886
 20
-69.6749999999999972
 30
0.0
 11
113.6809699999999879
 21
-69.770670999999993
 31
0.0
  0
LINE
  5
F9
100
AcDbEntity
  8
trace_out
 62
256
370
-1
 48
1.0
  6
CONTINUOUS
100
AcDbLine
 10
113.6809699999999879
 20
-69.770670999999993
 30
0.0
 11
113.6267769999999899
 21
-69.8517769999999985
 31
0.0
  0
LINE
  5
FA
100
AcDbEntity
  8
trace_out
 62
256
370
-1
 48
1.0
  6
CONTINUOUS
100
AcDbLine
 10
113.6267769999999899
 20
-69.8517769999999985
 30
0.0
 11
113.5456709999999987
 21
-69.9059699999999964
 31
0.0
  0
LINE
  5
FB
100
AcDbEntity
  8
trace_out
 62
256
370
-1
 48
1.0
  6
CONTINUOUS
100
AcDbLine
 10
113.5456709999999987
 20
-69.9059699999999964
 30
0.0
 11
113.4499999999999886
 21
-69.9249999999999972
 31
0.0
  0
LINE
  5
FC
100
AcDbEntity
  8
trace_out
 62
256
370
-1
 48
1.0
  6
CONTINUOUS
100
AcDbLine
 10
113.4499999999999886
 20
-69.9249999999999972
 30
0.0
 11
112.5499999999999972
 21
-69.9249999999999972
 31
0.0
  0
LINE
  5
FD
100
AcDbEntity
  8
trace_out
 62
256
370
-1
 48
1.0
  6
CONTINUOUS
100
AcDbLine
 10
112.5499999999999972
 20
-69.9249999999999972
 30
0.0
 11
112.4543290000000013
 21
-69.9059699999999964
 31
0.0
  0
LINE
  5
FE
100
AcDbEntity
  8
trace_out
 62
256
370
-1
 48
1.0
  6
CONTINUOUS
100
AcDbLine
 10
112.4543290000000013
 20
-69.9059699999999964
 30
0.0
 11
112.3732229999999959
 21
-69.8517769999999985
 31
0.0
  0
LINE
  5
FF
100
AcDbEntity
  8
trace_out
 62
256
370
-1
 48
1.0
  6
CONTINUOUS
100
AcDbLine
 10
112.3732229999999959
 20
-69.8517769999999985
 30
0.0
 11
112.3190299999999979
 21
-69.770670999999993
 31
0.0
  0
LINE
  5
100
100
AcDbEntity
  8
trace_out
 62
256
370
-1
 48
1.0
  6
CONTINUOUS
100
AcDbLine
 10
112.3190299999999979
 20
-69.770670999999993
 30
0.0
 11
112.2999999999999972
 21
-69.6749999999999972
 31
0.0
  0
LINE
  5
101
100
AcDbEntity
  8
trace_out
 62
256
370
-1
 48
1.0
  6
CONTINUOUS
100
AcDbLine
 10
112.2999999999999972
 20
-69.6749999999999972
 30
0.0
 11
112.2999999999999972
 21
-69.6624999999999943
 31
0.0
  0
LINE
  5
102
100
AcDbEntity
  8
trace_out
 62
256
370
-1
 48
1.0
  6
CONTINUOUS
100
AcDbLine
 10
112.2999999999999972
 20
-69.6624999999999943
 30
0.0
 11
111.1999999999999886
 21
-69.6624999999999943
 31
0.0
  0
LINE
  5
103
100
AcDbEntity
  8
trace_out
 62
256
370
-1
 48
1.0
  6
CONTINUOUS
100
AcDbLine
 10
111.1999999999999886
 20
-69.6624999999999943
 30
0.0
 11
111.1999999999999886
 21
-69.6749999999999972
 31
0.0
  0
LINE
  5
104
100
AcDbEntity
  8
trace_out
 62
256
370
-1
 48
1.0
  6
CONTINUOUS
100
AcDbLine
 10
111.1999999999999886
 20
-69.6749999999999972
 30
0.0
 11
111.1809700000000021
 21
-69.770670999999993
 31
0.0
  0
LINE
  5
105
100
AcDbEntity
  8
trace_out
 62
256
370
-1
 48
1.0
  6
CONTINUOUS
100
AcDbLine
 10
111.1809700000000021
 20
-69.770670999999993
 30
0.0
 11
111.1267769999999899
 21
-69.8517769999999985
 31
0.0
  0
LINE
  5
106
100
AcDbEntity
  8
trace_out
 62
256
370
-1
 48
1.0
  6
CONTINUOUS
100
AcDbLine
 10
111.1267769999999899
 20
-69.8517769999999985
 30
0.0
 11
111.0456709999999987
 21
-69.9059699999999964
 31
0.0
  0
LINE
  5
107
100
AcDbEntity
  8
trace_out
 62
256
370
-1
 48
1.0
  6
CONTINUOUS
100
AcDbLine
 10
111.0456709999999987
 20
-69.9059699999999964
 30
0.0
 11
110.9499999999999886
 21
-69.9249999999999972
 31
0.0
  0
LINE
  5
108
100
AcDbEntity
  8
trace_out
 62
256
370
-1
 48
1.0
  6
CONTINUOUS
100
AcDbLine
 10
110.9499999999999886
 20
-69.9249999999999972
 30
0.0
 11
110.0499999999999972
 21
-69.9249999999999972
 31
0.0
  0
LINE
  5
109
100
AcDbEntity
  8
trace_out
 62
256
370
-1
 48
1.0
  6
CONTINUOUS
100
AcDbLine
 10
110.0499999999999972
 20
-69.9249999999999972
 30
0.0
 11
109.9543290000000013
 21
-69.9059699999999964
 31
0.0
  0
LINE
  5
10A
100
AcDbEntity
  8
trace_out
 62
256
370
-1
 48
1.0
  6
CONTINUOUS
100
AcDbLine
 10
109.9543290000000013
 20
-69.9059699999999964
 30
0.0
 11
109.8732229999999959
 21
-69.8517769999999985
 31
0.0
  0
LINE
  5
10B
100
AcDbEntity
  8
trace_out
 62
256
370
-1
 48
1.0
  6
CONTINUOUS
100
AcDbLine
 10
109.8732229999999959
 20
-69.8517769999999985
 30
0.0
 11
109.8190299999999979
 21
-69.770670999999993
 31
0.0
  0
LINE
  5
10C
100
AcDbEntity
  8
trace_out
 62
256
370
-1
 48
1.0
  6
CONTINUOUS
100
AcDbLine
 10
109.8190299999999979
 20
-69.770670999999993
 30
0.0
 11
109.7999999999999972
 21
-69.6749999999999972
 31
0.0
  0
LINE
  5
10D
100
AcDbEntity
  8
trace_out
 62
256
370
-1
 48
1.0
  6
CONTINUOUS
100
AcDbLine
 10
109.7999999999999972
 20
-69.6749999999999972
 30
0.0
 11
109.7999999999999972
 21
-69.6624999999999943
 31
0.0
  0
LINE
  5
10E
100
AcDbEntity
  8
trace_out
 62
256
370
-1
 48
1.0
  6
CONTINUOUS
100
AcDbLine
 10
109.7999999999999972
 20
-69.6624999999999943
 30
0.0
 11
109.4124999999999943
 21
-69.6624999999999943
 31
0.0
  0
LINE
  5
10F
100
AcDbEntity
  8
trace_out
 62
256
370
-1
 48
1.0
  6
CONTINUOUS
100
AcDbLine
 10
109.4124999999999943
 20
-69.6624999999999943
 30
0.0
 11
109.3637269999999972
 21
-69.6576960000000014
 31
0.0
  0
LINE
  5
110
100
AcDbEntity
  8
trace_out
 62
256
370
-1
 48
1.0
  6
CONTINUOUS
100
AcDbLine
 10
109.3637269999999972
 20
-69.6576960000000014
 30
0.0
 11
109.326398999999995
 21
-69.642234000000002
 31
0.0
  0
LINE
  5
111
100
AcDbEntity
  8
trace_out
 62
256
370
-1
 48
1.0
  6
CONTINUOUS
100
AcDbLine
 10
109.326398999999995
 20
-69.642234000000002
 30
0.0
 11
109.2736079999999959
 21
-69.6203679999999991
 31
0.0
  0
LINE
  5
112
100
AcDbEntity
  8
trace_out
 62
256
370
-1
 48
1.0
  6
CONTINUOUS
100
AcDbLine
 10
109.2736079999999959
 20
-69.6203679999999991
 30
0.0
 11
109.235722999999993
 21
-69.5892769999999956
 31
0.0
  0
LINE
  5
113
100
AcDbEntity
  8
trace_out
 62
256
370
-1
 48
1.0
  6
CONTINUOUS
100
AcDbLine
 10
109.235722999999993
 20
-69.5892769999999956
 30
0.0
 11
108.3232229999999987
 21
-68.6767770000000013
 31
0.0
  0
LINE
  5
114
100
AcDbEntity
  8
trace_out
 62
256
370
-1
 48
1.0
  6
CONTINUOUS
100
AcDbLine
 10
108.3232229999999987
 20
-68.6767770000000013
 30
0.0
 11
108.2921369999999968
 21
-68.638897
 31
0.0
  0
LINE
  5
115
100
AcDbEntity
  8
trace_out
 62
256
370
-1
 48
1.0
  6
CONTINUOUS
100
AcDbLine
 10
108.2921369999999968
 20
-68.638897
 30
0.0
 11
108.2921329999999926
 21
-68.6388929999999959
 31
0.0
  0
LINE
  5
116
100
AcDbEntity
  8
trace_out
 62
256
370
-1
 48
1.0
  6
CONTINUOUS
100
AcDbLine
 10
108.2921329999999926
 20
-68.6388929999999959
 30
0.0
 11
108.2548039999999929
 21
-68.5487729999999971
 31
0.0
  0
LINE
  5
117
100
AcDbEntity
  8
trace_out
 62
256
370
-1
 48
1.0
  6
CONTINUOUS
100
AcDbLine
 10
108.2548039999999929
 20
-68.5487729999999971
 30
0.0
 11
108.25
 21
-68.5
 31
0.0
  0
LINE
  5
118
100
AcDbEntity
  8
trace_out
 62
256
370
-1
 48
1.0
  6
CONTINUOUS
100
AcDbLine
 10
108.25
 20
-68.5
 30
0.0
 11
108.25
 21
-61.1035539999999955
 31
0.0
  0
LINE
  5
119
100
AcDbEntity
  8
trace_out
 62
256
370
-1
 48
1.0
  6
CONTINUOUS
100
AcDbLine
 10
108.25
 20
-61.1035539999999955
 30
0.0
 11
108.1749999999999972
 21
-61.0285539999999997
 31
0.0
  0
LINE
  5
11A
100
AcDbEntity
  8
trace_out
 62
256
370
-1
 48
1.0
  6
CONTINUOUS
100
AcDbLine
 10
108.1749999999999972
 20
-61.0285539999999997
 30
0.0
 11
108.1749999999999972
 21
-61.0319999999999965
 31
0.0
  0
LINE
  5
11B
100
AcDbEntity
  8
trace_out
 62
256
370
-1
 48
1.0
  6
CONTINUOUS
100
AcDbLine
 10
108.1749999999999972
 20
-61.0319999999999965
 30
0.0
 11
101.8249999999999886
 21
-61.0319999999999965
 31
0.0
  0
LINE
  5
11C
100
AcDbEntity
  8
trace_out
 62
256
370
-1
 48
1.0
  6
CONTINUOUS
100
AcDbLine
 10
101.8249999999999886
 20
-61.0319999999999965
 30
0.0
 11
101.8249999999999886
 21
-59.5079999999999956
 31
0.0
  0
LINE
  5
11D
100
AcDbEntity
  8
trace_out
 62
256
370
-1
 48
1.0
  6
CONTINUOUS
100
AcDbLine
 10
101.8249999999999886
 20
-59.5079999999999956
 30
0.0
 11
108.1749999999999972
 21
-59.5079999999999956
 31
0.0
  0
LINE
  5
11E
100
AcDbEntity
  8
trace_out
 62
256
370
-1
 48
1.0
  6
CONTINUOUS
100
AcDbLine
 10
108.1749999999999972
 20
-59.5079999999999956
 30
0.0
 11
108.1749999999999972
 21
-60.3214459999999946
 31
0.0
  0
LINE
  5
11F
100
AcDbEntity
  8
trace_out
 62
256
370
-1
 48
1.0
  6
CONTINUOUS
100
AcDbLine
 10
111.5107179999999971
 20
-61.7812719999999942
 30
0.0
 11
111.5270289999999989
 21
-61.939592999999995
 31
0.0
  0
LINE
  5
120
100
AcDbEntity
  8
trace_out
 62
256
370
-1
 48
1.0
  6
CONTINUOUS
100
AcDbLine
 10
111.5270289999999989
 20
-61.939592999999995
 30
0.0
 11
111.5505189999999942
 21
-62.0970099999999974
 31
0.0
  0
LINE
  5
121
100
AcDbEntity
  8
trace_out
 62
256
370
-1
 48
1.0
  6
CONTINUOUS
100
AcDbLine
 10
111.5505189999999942
 20
-62.0970099999999974
 30
0.0
 11
111.5811409999999881
 21
-62.2531959999999955
 31
0.0
  0
LINE
  5
122
100
AcDbEntity
  8
trace_out
 62
256
370
-1
 48
1.0
  6
CONTINUOUS
100
AcDbLine
 10
111.5811409999999881
 20
-62.2531959999999955
 30
0.0
 11
111.6188310000000001
 21
-62.407827999999995
 31
0.0
  0
LINE
  5
123
100
AcDbEntity
  8
trace_out
 62
256
370
-1
 48
1.0
  6
CONTINUOUS
100
AcDbLine
 10
111.6188310000000001
 20
-62.407827999999995
 30
0.0
 11
111.6635109999999997
 21
-62.5605879999999956
 31
0.0
  0
LINE
  5
124
100
AcDbEntity
  8
trace_out
 62
256
370
-1
 48
1.0
  6
CONTINUOUS
100
AcDbLine
 10
111.6635109999999997
 20
-62.5605879999999956
 30
0.0
 11
111.7150879999999944
 21
-62.7111579999999975
 31
0.0
  0
LINE
  5
125
100
AcDbEntity
  8
trace_out
 62
256
370
-1
 48
1.0
  6
CONTINUOUS
100
AcDbLine
 10
111.7150879999999944
 20
-62.7111579999999975
 30
0.0
 11
111.7734569999999934
 21
-62.8592289999999991
 31
0.0
  0
LINE
  5
126
100
AcDbEntity
  8
trace_out
 62
256
370
-1
 48
1.0
  6
CONTINUOUS
100
AcDbLine
 10
111.7734569999999934
 20
-62.8592289999999991
 30
0.0
 11
111.8384959999999921
 21
-63.0044929999999965
 31
0.0
  0
LINE
  5
127
100
AcDbEntity
  8
trace_out
 62
256
370
-1
 48
1.0
  6
CONTINUOUS
100
AcDbLine
 10
111.8384959999999921
 20
-63.0044929999999965
 30
0.0
 11
111.8738639999999975
 21
-63.0757829999999942
 31
0.0
  0
LINE
  5
128
100
AcDbEntity
  8
trace_out
 62
256
370
-1
 48
1.0
  6
CONTINUOUS
100
AcDbLine
 10
111.8738639999999975
 20
-63.0757829999999942
 30
0.0
 11
110.7466879999999918
 21
-63.7265589999999946
 31
0.0
  0
LINE
  5
129
100
AcDbEntity
  8
trace_out
 62
256
370
-1
 48
1.0
  6
CONTINUOUS
100
AcDbLine
 10
110.7466879999999918
 20
-63.7265589999999946
 30
0.0
 11
110.7025869999999941
 21
-63.641223999999994
 31
0.0
  0
LINE
  5
12A
100
AcDbEntity
  8
trace_out
 62
256
370
-1
 48
1.0
  6
CONTINUOUS
100
AcDbLine
 10
110.7025869999999941
 20
-63.641223999999994
 30
0.0
 11
110.6264579999999995
 21
-63.4803129999999953
 31
0.0
  0
LINE
  5
12B
100
AcDbEntity
  8
trace_out
 62
256
370
-1
 48
1.0
  6
CONTINUOUS
100
AcDbLine
 10
110.6264579999999995
 20
-63.4803129999999953
 30
0.0
 11
110.25
 21
-63.8567719999999994
 31
0.0
  0
LINE
  5
12C
100
AcDbEntity
  8
trace_out
 62
256
370
-1
 48
1.0
  6
CONTINUOUS
100
AcDbLine
 10
110.25
 20
-63.8567719999999994
 30
0.0
 11
110.25
 21
-66.3964459999999974
 31
0.0
  0
LINE
  5
12D
100
AcDbEntity
  8
trace_out
 62
256
370
-1
 48
1.0
  6
CONTINUOUS
100
AcDbLine
 10
110.25
 20
-66.3964459999999974
 30
0.0
 11
110.6767770000000013
 21
-66.8232229999999987
 31
0.0
  0
LINE
  5
12E
100
AcDbEntity
  8
trace_out
 62
256
370
-1
 48
1.0
  6
CONTINUOUS
100
AcDbLine
 10
110.6767770000000013
 20
-66.8232229999999987
 30
0.0
 11
110.7078679999999906
 21
-66.8611080000000015
 31
0.0
  0
LINE
  5
12F
100
AcDbEntity
  8
trace_out
 62
256
370
-1
 48
1.0
  6
CONTINUOUS
100
AcDbLine
 10
110.7078679999999906
 20
-66.8611080000000015
 30
0.0
 11
110.7451969999999903
 21
-66.9512280000000004
 31
0.0
  0
LINE
  5
130
100
AcDbEntity
  8
trace_out
 62
256
370
-1
 48
1.0
  6
CONTINUOUS
100
AcDbLine
 10
110.7451969999999903
 20
-66.9512280000000004
 30
0.0
 11
110.7451969999999903
 21
-66.9512369999999919
 31
0.0
  0
LINE
  5
131
100
AcDbEntity
  8
trace_out
 62
256
370
-1
 48
1.0
  6
CONTINUOUS
100
AcDbLine
 10
110.7451969999999903
 20
-66.9512369999999919
 30
0.0
 11
110.75
 21
-67.0
 31
0.0
  0
LINE
  5
132
100
AcDbEntity
  8
trace_out
 62
256
370
-1
 48
1.0
  6
CONTINUOUS
100
AcDbLine
 10
110.75
 20
-67.0
 30
0.0
 11
110.75
 21
-67.0750000000000028
 31
0.0
  0
LINE
  5
133
100
AcDbEntity
  8
trace_out
 62
256
370
-1
 48
1.0
  6
CONTINUOUS
100
AcDbLine
 10
110.75
 20
-67.0750000000000028
 30
0.0
 11
110.9499999999999886
 21
-67.0750000000000028
 31
0.0
  0
LINE
  5
134
100
AcDbEntity
  8
trace_out
 62
256
370
-1
 48
1.0
  6
CONTINUOUS
100
AcDbLine
 10
110.9499999999999886
 20
-67.0750000000000028
 30
0.0
 11
111.0456709999999987
 21
-67.0940300000000036
 31
0.0
  0
LINE
  5
135
100
AcDbEntity
  8
trace_out
 62
256
370
-1
 48
1.0
  6
CONTINUOUS
100
AcDbLine
 10
111.0456709999999987
 20
-67.0940300000000036
 30
0.0
 11
111.1267769999999899
 21
-67.1482230000000015
 31
0.0
  0
LINE
  5
136
100
AcDbEntity
  8
trace_out
 62
256
370
-1
 48
1.0
  6
CONTINUOUS
100
AcDbLine
 10
111.1267769999999899
 20
-67.1482230000000015
 30
0.0
 11
111.1809700000000021
 21
-67.2293289999999928
 31
0.0
  0
LINE
  5
137
100
AcDbEntity
  8
trace_out
 62
256
370
-1
 48
1.0
  6
CONTINUOUS
100
AcDbLine
 10
111.1809700000000021
 20
-67.2293289999999928
 30
0.0
 11
111.1999999999999886
 21
-67.3250000000000028
 31
0.0
  0
LINE
  5
138
100
AcDbEntity
  8
trace_out
 62
256
370
-1
 48
1.0
  6
CONTINUOUS
100
AcDbLine
 10
111.1999999999999886
 20
-67.3250000000000028
 30
0.0
 11
111.1999999999999886
 21
-67.8499999999999943
 31
0.0
  0
LINE
  5
139
100
AcDbEntity
  8
trace_out
 62
256
370
-1
 48
1.0
  6
CONTINUOUS
100
AcDbLine
 10
111.1999999999999886
 20
-67.8499999999999943
 30
0.0
 11
111.1809700000000021
 21
-67.9456709999999902
 31
0.0
  0
LINE
  5
13A
100
AcDbEntity
  8
trace_out
 62
256
370
-1
 48
1.0
  6
CONTINUOUS
100
AcDbLine
 10
111.1809700000000021
 20
-67.9456709999999902
 30
0.0
 11
111.1267769999999899
 21
-68.0267769999999956
 31
0.0
  0
LINE
  5
13B
100
AcDbEntity
  8
trace_out
 62
256
370
-1
 48
1.0
  6
CONTINUOUS
100
AcDbLine
 10
111.1267769999999899
 20
-68.0267769999999956
 30
0.0
 11
111.0456709999999987
 21
-68.0809699999999935
 31
0.0
  0
LINE
  5
13C
100
AcDbEntity
  8
trace_out
 62
256
370
-1
 48
1.0
  6
CONTINUOUS
100
AcDbLine
 10
111.0456709999999987
 20
-68.0809699999999935
 30
0.0
 11
110.9499999999999886
 21
-68.0999999999999943
 31
0.0
  0
LINE
  5
13D
100
AcDbEntity
  8
trace_out
 62
256
370
-1
 48
1.0
  6
CONTINUOUS
100
AcDbLine
 10
110.9499999999999886
 20
-68.0999999999999943
 30
0.0
 11
110.0499999999999972
 21
-68.0999999999999943
 31
0.0
  0
LINE
  5
13E
100
AcDbEntity
  8
trace_out
 62
256
370
-1
 48
1.0
  6
CONTINUOUS
100
AcDbLine
 10
110.0499999999999972
 20
-68.0999999999999943
 30
0.0
 11
109.9543290000000013
 21
-68.0809699999999935
 31
0.0
  0
LINE
  5
13F
100
AcDbEntity
  8
trace_out
 62
256
370
-1
 48
1.0
  6
CONTINUOUS
100
AcDbLine
 10
109.9543290000000013
 20
-68.0809699999999935
 30
0.0
 11
109.8732229999999959
 21
-68.0267769999999956
 31
0.0
  0
LINE
  5
140
100
AcDbEntity
  8
trace_out
 62
256
370
-1
 48
1.0
  6
CONTINUOUS
100
AcDbLine
 10
109.8732229999999959
 20
-68.0267769999999956
 30
0.0
 11
109.8190299999999979
 21
-67.9456709999999902
 31
0.0
  0
LINE
  5
141
100
AcDbEntity
  8
trace_out
 62
256
370
-1
 48
1.0
  6
CONTINUOUS
100
AcDbLine
 10
109.8190299999999979
 20
-67.9456709999999902
 30
0.0
 11
109.7999999999999972
 21
-67.8499999999999943
 31
0.0
  0
LINE
  5
142
100
AcDbEntity
  8
trace_out
 62
256
370
-1
 48
1.0
  6
CONTINUOUS
100
AcDbLine
 10
109.7999999999999972
 20
-67.8499999999999943
 30
0.0
 11
109.7999999999999972
 21
-67.3250000000000028
 31
0.0
  0
LINE
  5
143
100
AcDbEntity
  8
trace_out
 62
256
370
-1
 48
1.0
  6
CONTINUOUS
100
AcDbLine
 10
109.7999999999999972
 20
-67.3250000000000028
 30
0.0
 11
109.8190299999999979
 21
-67.2293289999999928
 31
0.0
  0
LINE
  5
144
100
AcDbEntity
  8
trace_out
 62
256
370
-1
 48
1.0
  6
CONTINUOUS
100
AcDbLine
 10
109.8190299999999979
 20
-67.2293289999999928
 30
0.0
 11
109.8732229999999959
 21
-67.1482230000000015
 31
0.0
  0
LINE
  5
145
100
AcDbEntity
  8
trace_out
 62
256
370
-1
 48
1.0
  6
CONTINUOUS
100
AcDbLine
 10
109.8732229999999959
 20
-67.1482230000000015
 30
0.0
 11
109.9543290000000013
 21
-67.0940300000000036
 31
0.0
  0
LINE
  5
146
100
AcDbEntity
  8
trace_out
 62
256
370
-1
 48
1.0
  6
CONTINUOUS
100
AcDbLine
 10
109.9543290000000013
 20
-67.0940300000000036
 30
0.0
 11
110.0499999999999972
 21
-67.0750000000000028
 31
0.0
  0
LINE
  5
147
100
AcDbEntity
  8
trace_out
 62
256
370
-1
 48
1.0
  6
CONTINUOUS
100
AcDbLine
 10
110.0499999999999972
 20
-67.0750000000000028
 30
0.0
 11
110.2214460000000003
 21
-67.0750000000000028
 31
0.0
  0
LINE
  5
148
100
AcDbEntity
  8
trace_out
 62
256
370
-1
 48
1.0
  6
CONTINUOUS
100
AcDbLine
 10
110.2214460000000003
 20
-67.0750000000000028
 30
0.0
 11
109.8232229999999987
 21
-66.6767770000000013
 31
0.0
  0
LINE
  5
149
100
AcDbEntity
  8
trace_out
 62
256
370
-1
 48
1.0
  6
CONTINUOUS
100
AcDbLine
 10
109.8232229999999987
 20
-66.6767770000000013
 30
0.0
 11
109.7921369999999968
 21
-66.638897
 31
0.0
  0
LINE
  5
14A
100
AcDbEntity
  8
trace_out
 62
256
370
-1
 48
1.0
  6
CONTINUOUS
100
AcDbLine
 10
109.7921369999999968
 20
-66.638897
 30
0.0
 11
109.7921329999999926
 21
-66.6388929999999959
 31
0.0
  0
LINE
  5
14B
100
AcDbEntity
  8
trace_out
 62
256
370
-1
 48
1.0
  6
CONTINUOUS
100
AcDbLine
 10
109.7921329999999926
 20
-66.6388929999999959
 30
0.0
 11
109.7548039999999929
 21
-66.5487729999999971
 31
0.0
  0
LINE
  5
14C
100
AcDbEntity
  8
trace_out
 62
256
370
-1
 48
1.0
  6
CONTINUOUS
100
AcDbLine
 10
109.7548039999999929
 20
-66.5487729999999971
 30
0.0
 11
109.75
 21
-66.5
 31
0.0
  0
LINE
  5
14D
100
AcDbEntity
  8
trace_out
 62
256
370
-1
 48
1.0
  6
CONTINUOUS
100
AcDbLine
 10
109.75
 20
-66.5
 30
0.0
 11
109.75
 21
-63.7532189999999943
 31
0.0
  0
LINE
  5
14E
100
AcDbEntity
  8
trace_out
 62
256
370
-1
 48
1.0
  6
CONTINUOUS
100
AcDbLine
 10
109.75
 20
-63.7532189999999943
 30
0.0
 11
109.7548039999999929
 21
-63.7044459999999972
 31
0.0
  0
LINE
  5
14F
100
AcDbEntity
  8
trace_out
 62
256
370
-1
 48
1.0
  6
CONTINUOUS
100
AcDbLine
 10
109.7548039999999929
 20
-63.7044459999999972
 30
0.0
 11
109.7921329999999926
 21
-63.6143259999999984
 31
0.0
  0
LINE
  5
150
100
AcDbEntity
  8
trace_out
 62
256
370
-1
 48
1.0
  6
CONTINUOUS
100
AcDbLine
 10
109.7921329999999926
 20
-63.6143259999999984
 30
0.0
 11
109.7921369999999968
 21
-63.6143209999999968
 31
0.0
  0
LINE
  5
151
100
AcDbEntity
  8
trace_out
 62
256
370
-1
 48
1.0
  6
CONTINUOUS
100
AcDbLine
 10
109.7921369999999968
 20
-63.6143209999999968
 30
0.0
 11
109.8232229999999987
 21
-63.5764420000000001
 31
0.0
  0
LINE
  5
152
100
AcDbEntity
  8
trace_out
 62
256
370
-1
 48
1.0
  6
CONTINUOUS
100
AcDbLine
 10
109.8232229999999987
 20
-63.5764420000000001
 30
0.0
 11
110.4300859999999886
 21
-62.969578999999996
 31
0.0
  0
LINE
  5
153
100
AcDbEntity
  8
trace_out
 62
256
370
-1
 48
1.0
  6
CONTINUOUS
100
AcDbLine
 10
110.4300859999999886
 20
-62.969578999999996
 30
0.0
 11
110.4165029999999916
 21
-62.9288409999999985
 31
0.0
  0
LINE
  5
154
100
AcDbEntity
  8
trace_out
 62
256
370
-1
 48
1.0
  6
CONTINUOUS
100
AcDbLine
 10
110.4165029999999916
 20
-62.9288409999999985
 30
0.0
 11
110.3630759999999924
 21
-62.7443069999999992
 31
0.0
  0
LINE
  5
155
100
AcDbEntity
  8
trace_out
 62
256
370
-1
 48
1.0
  6
CONTINUOUS
100
AcDbLine
 10
110.3630759999999924
 20
-62.7443069999999992
 30
0.0
 11
110.3170749999999884
 21
-62.5577830000000006
 31
0.0
  0
LINE
  5
156
100
AcDbEntity
  8
trace_out
 62
256
370
-1
 48
1.0
  6
CONTINUOUS
100
AcDbLine
 10
110.3170749999999884
 20
-62.5577830000000006
 30
0.0
 11
110.2785729999999944
 21
-62.3695689999999985
 31
0.0
  0
LINE
  5
157
100
AcDbEntity
  8
trace_out
 62
256
370
-1
 48
1.0
  6
CONTINUOUS
100
AcDbLine
 10
110.2785729999999944
 20
-62.3695689999999985
 30
0.0
 11
110.2476339999999908
 21
-62.1799639999999982
 31
0.0
  0
LINE
  5
158
100
AcDbEntity
  8
trace_out
 62
256
370
-1
 48
1.0
  6
CONTINUOUS
100
AcDbLine
 10
110.2476339999999908
 20
-62.1799639999999982
 30
0.0
 11
110.2243050000000011
 21
-61.9892729999999972
 31
0.0
  0
LINE
  5
159
100
AcDbEntity
  8
trace_out
 62
256
370
-1
 48
1.0
  6
CONTINUOUS
100
AcDbLine
 10
110.2243050000000011
 20
-61.9892729999999972
 30
0.0
 11
110.2086249999999978
 21
-61.7978019999999972
 31
0.0
  0
LINE
  5
15A
100
AcDbEntity
  8
trace_out
 62
256
370
-1
 48
1.0
  6
CONTINUOUS
100
AcDbLine
 10
110.2086249999999978
 20
-61.7978019999999972
 30
0.0
 11
110.2041679999999957
 21
-61.7018479999999983
 31
0.0
  0
LINE
  5
15B
100
AcDbEntity
  8
trace_out
 62
256
370
-1
 48
1.0
  6
CONTINUOUS
100
AcDbLine
 10
110.2041679999999957
 20
-61.7018479999999983
 30
0.0
 11
111.5057189999999991
 21
-61.7018479999999983
 31
0.0
  0
LINE
  5
15C
100
AcDbEntity
  8
trace_out
 62
256
370
-1
 48
1.0
  6
CONTINUOUS
100
AcDbLine
 10
111.5057189999999991
 20
-61.7018479999999983
 30
0.0
 11
111.5107179999999971
 21
-61.7812719999999942
 31
0.0
  0
LINE
  5
15D
100
AcDbEntity
  8
trace_out
 62
256
370
-1
 48
1.0
  6
CONTINUOUS
100
AcDbLine
 10
112.1179039999999958
 20
-63.4884789999999981
 30
0.0
 11
112.2111869999999954
 21
-63.6174369999999954
 31
0.0
  0
LINE
  5
15E
100
AcDbEntity
  8
trace_out
 62
256
370
-1
 48
1.0
  6
CONTINUOUS
100
AcDbLine
 10
112.2111869999999954
 20
-63.6174369999999954
 30
0.0
 11
112.3102359999999891
 21
-63.7420219999999986
 31
0.0
  0
LINE
  5
15F
100
AcDbEntity
  8
trace_out
 62
256
370
-1
 48
1.0
  6
CONTINUOUS
100
AcDbLine
 10
112.3102359999999891
 20
-63.7420219999999986
 30
0.0
 11
112.4148459999999972
 21
-63.8619749999999939
 31
0.0
  0
LINE
  5
160
100
AcDbEntity
  8
trace_out
 62
256
370
-1
 48
1.0
  6
CONTINUOUS
100
AcDbLine
 10
112.4148459999999972
 20
-63.8619749999999939
 30
0.0
 11
112.524799999999999
 21
-63.9770489999999938
 31
0.0
  0
LINE
  5
161
100
AcDbEntity
  8
trace_out
 62
256
370
-1
 48
1.0
  6
CONTINUOUS
100
AcDbLine
 10
112.524799999999999
 20
-63.9770489999999938
 30
0.0
 11
112.6398719999999969
 21
-64.0870060000000024
 31
0.0
  0
LINE
  5
162
100
AcDbEntity
  8
trace_out
 62
256
370
-1
 48
1.0
  6
CONTINUOUS
100
AcDbLine
 10
112.6398719999999969
 20
-64.0870060000000024
 30
0.0
 11
112.7598229999999973
 21
-64.1916179999999912
 31
0.0
  0
LINE
  5
163
100
AcDbEntity
  8
trace_out
 62
256
370
-1
 48
1.0
  6
CONTINUOUS
100
AcDbLine
 10
112.7598229999999973
 20
-64.1916179999999912
 30
0.0
 11
112.884405000000001
 21
-64.2906689999999941
 31
0.0
  0
LINE
  5
164
100
AcDbEntity
  8
trace_out
 62
256
370
-1
 48
1.0
  6
CONTINUOUS
100
AcDbLine
 10
112.884405000000001
 20
-64.2906689999999941
 30
0.0
 11
113.0133620000000008
 21
-64.3839550000000003
 31
0.0
  0
LINE
  5
165
100
AcDbEntity
  8
trace_out
 62
256
370
-1
 48
1.0
  6
CONTINUOUS
100
AcDbLine
 10
113.0133620000000008
 20
-64.3839550000000003
 30
0.0
 11
113.0796539999999908
 21
-64.427983999999995
 31
0.0
  0
LINE
  5
166
100
AcDbEntity
  8
trace_out
 62
256
370
-1
 48
1.0
  6
CONTINUOUS
100
AcDbLine
 10
113.0796539999999908
 20
-64.427983999999995
 30
0.0
 11
112.4288789999999949
 21
-65.5551600000000008
 31
0.0
  0
LINE
  5
167
100
AcDbEntity
  8
trace_out
 62
256
370
-1
 48
1.0
  6
CONTINUOUS
100
AcDbLine
 10
112.4288789999999949
 20
-65.5551600000000008
 30
0.0
 11
112.3480199999999911
 21
-65.5033059999999949
 31
0.0
  0
LINE
  5
168
100
AcDbEntity
  8
trace_out
 62
256
370
-1
 48
1.0
  6
CONTINUOUS
100
AcDbLine
 10
112.3480199999999911
 20
-65.5033059999999949
 30
0.0
 11
112.1900409999999937
 21
-65.3939919999999972
 31
0.0
  0
LINE
  5
169
100
AcDbEntity
  8
trace_out
 62
256
370
-1
 48
1.0
  6
CONTINUOUS
100
AcDbLine
 10
112.1900409999999937
 20
-65.3939919999999972
 30
0.0
 11
112.036563000000001
 21
-65.2784449999999907
 31
0.0
  0
LINE
  5
16A
100
AcDbEntity
  8
trace_out
 62
256
370
-1
 48
1.0
  6
CONTINUOUS
100
AcDbLine
 10
112.036563000000001
 20
-65.2784449999999907
 30
0.0
 11
111.8878299999999939
 21
-65.156848999999994
 31
0.0
  0
LINE
  5
16B
100
AcDbEntity
  8
trace_out
 62
256
370
-1
 48
1.0
  6
CONTINUOUS
100
AcDbLine
 10
111.8878299999999939
 20
-65.156848999999994
 30
0.0
 11
111.786524
 21
-65.0670289999999909
 31
0.0
  0
LINE
  5
16C
100
AcDbEntity
  8
trace_out
 62
256
370
-1
 48
1.0
  6
CONTINUOUS
100
AcDbLine
 10
111.786524
 20
-65.0670289999999909
 30
0.0
 11
111.75
 21
-65.1035540000000026
 31
0.0
  0
LINE
  5
16D
100
AcDbEntity
  8
trace_out
 62
256
370
-1
 48
1.0
  6
CONTINUOUS
100
AcDbLine
 10
111.75
 20
-65.1035540000000026
 30
0.0
 11
111.75
 21
-65.8964459999999974
 31
0.0
  0
LINE
  5
16E
100
AcDbEntity
  8
trace_out
 62
256
370
-1
 48
1.0
  6
CONTINUOUS
100
AcDbLine
 10
111.75
 20
-65.8964459999999974
 30
0.0
 11
112.9285529999999937
 21
-67.0750000000000028
 31
0.0
  0
LINE
  5
16F
100
AcDbEntity
  8
trace_out
 62
256
370
-1
 48
1.0
  6
CONTINUOUS
100
AcDbLine
 10
112.9285529999999937
 20
-67.0750000000000028
 30
0.0
 11
113.4499999999999886
 21
-67.0750000000000028
 31
0.0
  0
LINE
  5
170
100
AcDbEntity
  8
trace_out
 62
256
370
-1
 48
1.0
  6
CONTINUOUS
100
AcDbLine
 10
113.4499999999999886
 20
-67.0750000000000028
 30
0.0
 11
113.5456709999999987
 21
-67.0940300000000036
 31
0.0
  0
LINE
  5
171
100
AcDbEntity
  8
trace_out
 62
256
370
-1
 48
1.0
  6
CONTINUOUS
100
AcDbLine
 10
113.5456709999999987
 20
-67.0940300000000036
 30
0.0
 11
113.6267769999999899
 21
-67.1482230000000015
 31
0.0
  0
LINE
  5
172
100
AcDbEntity
  8
trace_out
 62
256
370
-1
 48
1.0
  6
CONTINUOUS
100
AcDbLine
 10
113.6267769999999899
 20
-67.1482230000000015
 30
0.0
 11
113.6809699999999879
 21
-67.2293289999999928
 31
0.0
  0
LINE
  5
173
100
AcDbEntity
  8
trace_out
 62
256
370
-1
 48
1.0
  6
CONTINUOUS
100
AcDbLine
 10
113.6809699999999879
 20
-67.2293289999999928
 30
0.0
 11
113.6999999999999886
 21
-67.3250000000000028
 31
0.0
  0
LINE
  5
174
100
AcDbEntity
  8
trace_out
 62
256
370
-1
 48
1.0
  6
CONTINUOUS
100
AcDbLine
 10
113.6999999999999886
 20
-67.3250000000000028
 30
0.0
 11
113.6999999999999886
 21
-67.8499999999999943
 31
0.0
  0
LINE
  5
175
100
AcDbEntity
  8
trace_out
 62
256
370
-1
 48
1.0
  6
CONTINUOUS
100
AcDbLine
 10
113.6999999999999886
 20
-67.8499999999999943
 30
0.0
 11
113.6809699999999879
 21
-67.9456709999999902
 31
0.0
  0
LINE
  5
176
100
AcDbEntity
  8
trace_out
 62
256
370
-1
 48
1.0
  6
CONTINUOUS
100
AcDbLine
 10
113.6809699999999879
 20
-67.9456709999999902
 30
0.0
 11
113.6267769999999899
 21
-68.0267769999999956
 31
0.0
  0
LINE
  5
177
100
AcDbEntity
  8
trace_out
 62
256
370
-1
 48
1.0
  6
CONTINUOUS
100
AcDbLine
 10
113.6267769999999899
 20
-68.0267769999999956
 30
0.0
 11
113.5456709999999987
 21
-68.0809699999999935
 31
0.0
  0
LINE
  5
178
100
AcDbEntity
  8
trace_out
 62
256
370
-1
 48
1.0
  6
CONTINUOUS
100
AcDbLine
 10
113.5456709999999987
 20
-68.0809699999999935
 30
0.0
 11
113.4499999999999886
 21
-68.0999999999999943
 31
0.0
  0
LINE
  5
179
100
AcDbEntity
  8
trace_out
 62
256
370
-1
 48
1.0
  6
CONTINUOUS
100
AcDbLine
 10
113.4499999999999886
 20
-68.0999999999999943
 30
0.0
 11
112.5499999999999972
 21
-68.0999999999999943
 31
0.0
  0
LINE
  5
17A
100
AcDbEntity
  8
trace_out
 62
256
370
-1
 48
1.0
  6
CONTINUOUS
100
AcDbLine
 10
112.5499999999999972
 20
-68.0999999999999943
 30
0.0
 11
112.4543290000000013
 21
-68.0809699999999935
 31
0.0
  0
LINE
  5
17B
100
AcDbEntity
  8
trace_out
 62
256
370
-1
 48
1.0
  6
CONTINUOUS
100
AcDbLine
 10
112.4543290000000013
 20
-68.0809699999999935
 30
0.0
 11
112.3732229999999959
 21
-68.0267769999999956
 31
0.0
  0
LINE
  5
17C
100
AcDbEntity
  8
trace_out
 62
256
370
-1
 48
1.0
  6
CONTINUOUS
100
AcDbLine
 10
112.3732229999999959
 20
-68.0267769999999956
 30
0.0
 11
112.3190299999999979
 21
-67.9456709999999902
 31
0.0
  0
LINE
  5
17D
100
AcDbEntity
  8
trace_out
 62
256
370
-1
 48
1.0
  6
CONTINUOUS
100
AcDbLine
 10
112.3190299999999979
 20
-67.9456709999999902
 30
0.0
 11
112.2999999999999972
 21
-67.8499999999999943
 31
0.0
  0
LINE
  5
17E
100
AcDbEntity
  8
trace_out
 62
256
370
-1
 48
1.0
  6
CONTINUOUS
100
AcDbLine
 10
112.2999999999999972
 20
-67.8499999999999943
 30
0.0
 11
112.2999999999999972
 21
-67.3250000000000028
 31
0.0
  0
LINE
  5
17F
100
AcDbEntity
  8
trace_out
 62
256
370
-1
 48
1.0
  6
CONTINUOUS
100
AcDbLine
 10
112.2999999999999972
 20
-67.3250000000000028
 30
0.0
 11
112.3190299999999979
 21
-67.2293289999999928
 31
0.0
  0
LINE
  5
180
100
AcDbEntity
  8
trace_out
 62
256
370
-1
 48
1.0
  6
CONTINUOUS
100
AcDbLine
 10
112.3190299999999979
 20
-67.2293289999999928
 30
0.0
 11
112.3417589999999961
 21
-67.1953120000000013
 31
0.0
  0
LINE
  5
181
100
AcDbEntity
  8
trace_out
 62
256
370
-1
 48
1.0
  6
CONTINUOUS
100
AcDbLine
 10
112.3417589999999961
 20
-67.1953120000000013
 30
0.0
 11
111.3232229999999987
 21
-66.1767770000000013
 31
0.0
  0
LINE
  5
182
100
AcDbEntity
  8
trace_out
 62
256
370
-1
 48
1.0
  6
CONTINUOUS
100
AcDbLine
 10
111.3232229999999987
 20
-66.1767770000000013
 30
0.0
 11
111.2921369999999968
 21
-66.138897
 31
0.0
  0
LINE
  5
183
100
AcDbEntity
  8
trace_out
 62
256
370
-1
 48
1.0
  6
CONTINUOUS
100
AcDbLine
 10
111.2921369999999968
 20
-66.138897
 30
0.0
 11
111.2921329999999926
 21
-66.1388929999999959
 31
0.0
  0
LINE
  5
184
100
AcDbEntity
  8
trace_out
 62
256
370
-1
 48
1.0
  6
CONTINUOUS
100
AcDbLine
 10
111.2921329999999926
 20
-66.1388929999999959
 30
0.0
 11
111.2548039999999929
 21
-66.0487729999999971
 31
0.0
  0
LINE
  5
185
100
AcDbEntity
  8
trace_out
 62
256
370
-1
 48
1.0
  6
CONTINUOUS
100
AcDbLine
 10
111.2548039999999929
 20
-66.0487729999999971
 30
0.0
 11
111.25
 21
-66.0
 31
0.0
  0
LINE
  5
186
100
AcDbEntity
  8
trace_out
 62
256
370
-1
 48
1.0
  6
CONTINUOUS
100
AcDbLine
 10
111.25
 20
-66.0
 30
0.0
 11
111.25
 21
-65.0
 31
0.0
  0
LINE
  5
187
100
AcDbEntity
  8
trace_out
 62
256
370
-1
 48
1.0
  6
CONTINUOUS
100
AcDbLine
 10
111.25
 20
-65.0
 30
0.0
 11
111.2548039999999929
 21
-64.9512270000000029
 31
0.0
  0
LINE
  5
188
100
AcDbEntity
  8
trace_out
 62
256
370
-1
 48
1.0
  6
CONTINUOUS
100
AcDbLine
 10
111.2548039999999929
 20
-64.9512270000000029
 30
0.0
 11
111.2921329999999926
 21
-64.8611070000000041
 31
0.0
  0
LINE
  5
189
100
AcDbEntity
  8
trace_out
 62
256
370
-1
 48
1.0
  6
CONTINUOUS
100
AcDbLine
 10
111.2921329999999926
 20
-64.8611070000000041
 30
0.0
 11
111.2921369999999968
 21
-64.8611020000000025
 31
0.0
  0
LINE
  5
18A
100
AcDbEntity
  8
trace_out
 62
256
370
-1
 48
1.0
  6
CONTINUOUS
100
AcDbLine
 10
111.2921369999999968
 20
-64.8611020000000025
 30
0.0
 11
111.3232229999999987
 21
-64.8232229999999987
 31
0.0
  0
LINE
  5
18B
100
AcDbEntity
  8
trace_out
 62
256
370
-1
 48
1.0
  6
CONTINUOUS
100
AcDbLine
 10
111.3232229999999987
 20
-64.8232229999999987
 30
0.0
 11
111.4330839999999938
 21
-64.7133609999999919
 31
0.0
  0
LINE
  5
18C
100
AcDbEntity
  8
trace_out
 62
256
370
-1
 48
1.0
  6
CONTINUOUS
100
AcDbLine
 10
111.4330839999999938
 20
-64.7133609999999919
 30
0.0
 11
111.3450050000000005
 21
-64.6140149999999949
 31
0.0
  0
LINE
  5
18D
100
AcDbEntity
  8
trace_out
 62
256
370
-1
 48
1.0
  6
CONTINUOUS
100
AcDbLine
 10
111.3450050000000005
 20
-64.6140149999999949
 30
0.0
 11
111.2234109999999987
 21
-64.4652809999999903
 31
0.0
  0
LINE
  5
18E
100
AcDbEntity
  8
trace_out
 62
256
370
-1
 48
1.0
  6
CONTINUOUS
100
AcDbLine
 10
111.2234109999999987
 20
-64.4652809999999903
 30
0.0
 11
111.1078660000000013
 21
-64.311799999999991
 31
0.0
  0
LINE
  5
18F
100
AcDbEntity
  8
trace_out
 62
256
370
-1
 48
1.0
  6
CONTINUOUS
100
AcDbLine
 10
111.1078660000000013
 20
-64.311799999999991
 30
0.0
 11
110.9985539999999986
 21
-64.1538199999999961
 31
0.0
  0
LINE
  5
190
100
AcDbEntity
  8
trace_out
 62
256
370
-1
 48
1.0
  6
CONTINUOUS
100
AcDbLine
 10
110.9985539999999986
 20
-64.1538199999999961
 30
0.0
 11
110.9466879999999946
 21
-64.0729690000000005
 31
0.0
  0
LINE
  5
191
100
AcDbEntity
  8
trace_out
 62
256
370
-1
 48
1.0
  6
CONTINUOUS
100
AcDbLine
 10
110.9466879999999946
 20
-64.0729690000000005
 30
0.0
 11
112.0738640000000004
 21
-63.4221939999999975
 31
0.0
  0
LINE
  5
192
100
AcDbEntity
  8
trace_out
 62
256
370
-1
 48
1.0
  6
CONTINUOUS
100
AcDbLine
 10
112.0738640000000004
 20
-63.4221939999999975
 30
0.0
 11
112.1179039999999958
 21
-63.4884789999999981
 31
0.0
  0
LINE
  5
193
100
AcDbEntity
  8
trace_out
 62
256
370
-1
 48
1.0
  6
CONTINUOUS
100
AcDbLine
 10
113.4973469999999907
 20
-64.6633669999999938
 30
0.0
 11
113.6426129999999972
 21
-64.7284039999999976
 31
0.0
  0
LINE
  5
194
100
AcDbEntity
  8
trace_out
 62
256
370
-1
 48
1.0
  6
CONTINUOUS
100
AcDbLine
 10
113.6426129999999972
 20
-64.7284039999999976
 30
0.0
 11
113.7906849999999963
 21
-64.78676999999999
 31
0.0
  0
LINE
  5
195
100
AcDbEntity
  8
trace_out
 62
256
370
-1
 48
1.0
  6
CONTINUOUS
100
AcDbLine
 10
113.7906849999999963
 20
-64.78676999999999
 30
0.0
 11
113.9412559999999957
 21
-64.8383450000000039
 31
0.0
  0
LINE
  5
196
100
AcDbEntity
  8
trace_out
 62
256
370
-1
 48
1.0
  6
CONTINUOUS
100
AcDbLine
 10
113.9412559999999957
 20
-64.8383450000000039
 30
0.0
 11
114.0940169999999938
 21
-64.8830229999999943
 31
0.0
  0
LINE
  5
197
100
AcDbEntity
  8
trace_out
 62
256
370
-1
 48
1.0
  6
CONTINUOUS
100
AcDbLine
 10
114.0940169999999938
 20
-64.8830229999999943
 30
0.0
 11
114.2486499999999978
 21
-64.9207099999999997
 31
0.0
  0
LINE
  5
198
100
AcDbEntity
  8
trace_out
 62
256
370
-1
 48
1.0
  6
CONTINUOUS
100
AcDbLine
 10
114.2486499999999978
 20
-64.9207099999999997
 30
0.0
 11
114.4048370000000006
 21
-64.9513290000000012
 31
0.0
  0
LINE
  5
199
100
AcDbEntity
  8
trace_out
 62
256
370
-1
 48
1.0
  6
CONTINUOUS
100
AcDbLine
 10
114.4048370000000006
 20
-64.9513290000000012
 30
0.0
 11
114.5622539999999958
 21
-64.9748179999999991
 31
0.0
  0
LINE
  5
19A
100
AcDbEntity
  8
trace_out
 62
256
370
-1
 48
1.0
  6
CONTINUOUS
100
AcDbLine
 10
114.5622539999999958
 20
-64.9748179999999991
 30
0.0
 11
114.7205759999999941
 21
-64.9911259999999942
 31
0.0
  0
LINE
  5
19B
100
AcDbEntity
  8
trace_out
 62
256
370
-1
 48
1.0
  6
CONTINUOUS
100
AcDbLine
 10
114.7205759999999941
 20
-64.9911259999999942
 30
0.0
 11
114.7999999999999972
 21
-64.9961289999999963
 31
0.0
  0
LINE
  5
19C
100
AcDbEntity
  8
trace_out
 62
256
370
-1
 48
1.0
  6
CONTINUOUS
100
AcDbLine
 10
114.7999999999999972
 20
-64.9961289999999963
 30
0.0
 11
114.7999999999999972
 21
-66.2976799999999997
 31
0.0
  0
LINE
  5
19D
100
AcDbEntity
  8
trace_out
 62
256
370
-1
 48
1.0
  6
CONTINUOUS
100
AcDbLine
 10
114.7999999999999972
 20
-66.2976799999999997
 30
0.0
 11
114.7040469999999885
 21
-66.2932040000000029
 31
0.0
  0
LINE
  5
19E
100
AcDbEntity
  8
trace_out
 62
256
370
-1
 48
1.0
  6
CONTINUOUS
100
AcDbLine
 10
114.7040469999999885
 20
-66.2932040000000029
 30
0.0
 11
114.5463449999999881
 21
-66.2802909999999912
 31
0.0
  0
LINE
  5
19F
100
AcDbEntity
  8
trace_out
 62
256
370
-1
 48
1.0
  6
CONTINUOUS
100
AcDbLine
 10
114.5463449999999881
 20
-66.2802909999999912
 30
0.0
 11
115.3410539999999997
 21
-67.0750000000000028
 31
0.0
  0
LINE
  5
1A0
100
AcDbEntity
  8
trace_out
 62
256
370
-1
 48
1.0
  6
CONTINUOUS
100
AcDbLine
 10
115.3410539999999997
 20
-67.0750000000000028
 30
0.0
 11
115.9499999999999886
 21
-67.0750000000000028
 31
0.0
  0
LINE
  5
1A1
100
AcDbEntity
  8
trace_out
 62
256
370
-1
 48
1.0
  6
CONTINUOUS
100
AcDbLine
 10
115.9499999999999886
 20
-67.0750000000000028
 30
0.0
 11
116.0456709999999987
 21
-67.0940300000000036
 31
0.0
  0
LINE
  5
1A2
100
AcDbEntity
  8
trace_out
 62
256
370
-1
 48
1.0
  6
CONTINUOUS
100
AcDbLine
 10
116.0456709999999987
 20
-67.0940300000000036
 30
0.0
 11
116.1267769999999899
 21
-67.1482230000000015
 31
0.0
  0
LINE
  5
1A3
100
AcDbEntity
  8
trace_out
 62
256
370
-1
 48
1.0
  6
CONTINUOUS
100
AcDbLine
 10
116.1267769999999899
 20
-67.1482230000000015
 30
0.0
 11
116.1809699999999879
 21
-67.2293289999999928
 31
0.0
  0
LINE
  5
1A4
100
AcDbEntity
  8
trace_out
 62
256
370
-1
 48
1.0
  6
CONTINUOUS
100
AcDbLine
 10
116.1809699999999879
 20
-67.2293289999999928
 30
0.0
 11
116.1999999999999886
 21
-67.3250000000000028
 31
0.0
  0
LINE
  5
1A5
100
AcDbEntity
  8
trace_out
 62
256
370
-1
 48
1.0
  6
CONTINUOUS
100
AcDbLine
 10
116.1999999999999886
 20
-67.3250000000000028
 30
0.0
 11
116.1999999999999886
 21
-67.8499999999999943
 31
0.0
  0
LINE
  5
1A6
100
AcDbEntity
  8
trace_out
 62
256
370
-1
 48
1.0
  6
CONTINUOUS
100
AcDbLine
 10
116.1999999999999886
 20
-67.8499999999999943
 30
0.0
 11
116.1809699999999879
 21
-67.9456709999999902
 31
0.0
  0
LINE
  5
1A7
100
AcDbEntity
  8
trace_out
 62
256
370
-1
 48
1.0
  6
CONTINUOUS
100
AcDbLine
 10
116.1809699999999879
 20
-67.9456709999999902
 30
0.0
 11
116.1267769999999899
 21
-68.0267769999999956
 31
0.0
  0
LINE
  5
1A8
100
AcDbEntity
  8
trace_out
 62
256
370
-1
 48
1.0
  6
CONTINUOUS
100
AcDbLine
 10
116.1267769999999899
 20
-68.0267769999999956
 30
0.0
 11
116.0456709999999987
 21
-68.0809699999999935
 31
0.0
  0
LINE
  5
1A9
100
AcDbEntity
  8
trace_out
 62
256
370
-1
 48
1.0
  6
CONTINUOUS
100
AcDbLine
 10
116.0456709999999987
 20
-68.0809699999999935
 30
0.0
 11
115.9499999999999886
 21
-68.0999999999999943
 31
0.0
  0
LINE
  5
1AA
100
AcDbEntity
  8
trace_out
 62
256
370
-1
 48
1.0
  6
CONTINUOUS
100
AcDbLine
 10
115.9499999999999886
 20
-68.0999999999999943
 30
0.0
 11
115.0499999999999972
 21
-68.0999999999999943
 31
0.0
  0
LINE
  5
1AB
100
AcDbEntity
  8
trace_out
 62
256
370
-1
 48
1.0
  6
CONTINUOUS
100
AcDbLine
 10
115.0499999999999972
 20
-68.0999999999999943
 30
0.0
 11
114.9543290000000013
 21
-68.0809699999999935
 31
0.0
  0
LINE
  5
1AC
100
AcDbEntity
  8
trace_out
 62
256
370
-1
 48
1.0
  6
CONTINUOUS
100
AcDbLine
 10
114.9543290000000013
 20
-68.0809699999999935
 30
0.0
 11
114.8732229999999959
 21
-68.0267769999999956
 31
0.0
  0
LINE
  5
1AD
100
AcDbEntity
  8
trace_out
 62
256
370
-1
 48
1.0
  6
CONTINUOUS
100
AcDbLine
 10
114.8732229999999959
 20
-68.0267769999999956
 30
0.0
 11
114.8190299999999979
 21
-67.9456709999999902
 31
0.0
  0
LINE
  5
1AE
100
AcDbEntity
  8
trace_out
 62
256
370
-1
 48
1.0
  6
CONTINUOUS
100
AcDbLine
 10
114.8190299999999979
 20
-67.9456709999999902
 30
0.0
 11
114.7999999999999972
 21
-67.8499999999999943
 31
0.0
  0
LINE
  5
1AF
100
AcDbEntity
  8
trace_out
 62
256
370
-1
 48
1.0
  6
CONTINUOUS
100
AcDbLine
 10
114.7999999999999972
 20
-67.8499999999999943
 30
0.0
 11
114.7999999999999972
 21
-67.3250000000000028
 31
0.0
  0
LINE
  5
1B0
100
AcDbEntity
  8
trace_out
 62
256
370
-1
 48
1.0
  6
CONTINUOUS
100
AcDbLine
 10
114.7999999999999972
 20
-67.3250000000000028
 30
0.0
 11
114.8139269999999925
 21
-67.2549810000000008
 31
0.0
  0
LINE
  5
1B1
100
AcDbEntity
  8
trace_out
 62
256
370
-1
 48
1.0
  6
CONTINUOUS
100
AcDbLine
 10
114.8139269999999925
 20
-67.2549810000000008
 30
0.0
 11
113.6733289999999954
 21
-66.1143830000000037
 31
0.0
  0
LINE
  5
1B2
100
AcDbEntity
  8
trace_out
 62
256
370
-1
 48
1.0
  6
CONTINUOUS
100
AcDbLine
 10
113.6733289999999954
 20
-66.1143830000000037
 30
0.0
 11
113.5730080000000015
 21
-66.0853389999999905
 31
0.0
  0
LINE
  5
1B3
100
AcDbEntity
  8
trace_out
 62
256
370
-1
 48
1.0
  6
CONTINUOUS
100
AcDbLine
 10
113.5730080000000015
 20
-66.0853389999999905
 30
0.0
 11
113.3907589999999885
 21
-66.0245740000000012
 31
0.0
  0
LINE
  5
1B4
100
AcDbEntity
  8
trace_out
 62
256
370
-1
 48
1.0
  6
CONTINUOUS
100
AcDbLine
 10
113.3907589999999885
 20
-66.0245740000000012
 30
0.0
 11
113.211086999999992
 21
-65.9565649999999977
 31
0.0
  0
LINE
  5
1B5
100
AcDbEntity
  8
trace_out
 62
256
370
-1
 48
1.0
  6
CONTINUOUS
100
AcDbLine
 10
113.211086999999992
 20
-65.9565649999999977
 30
0.0
 11
113.0342809999999929
 21
-65.8814220000000006
 31
0.0
  0
LINE
  5
1B6
100
AcDbEntity
  8
trace_out
 62
256
370
-1
 48
1.0
  6
CONTINUOUS
100
AcDbLine
 10
113.0342809999999929
 20
-65.8814220000000006
 30
0.0
 11
112.8606219999999922
 21
-65.7992649999999912
 31
0.0
  0
LINE
  5
1B7
100
AcDbEntity
  8
trace_out
 62
256
370
-1
 48
1.0
  6
CONTINUOUS
100
AcDbLine
 10
112.8606219999999922
 20
-65.7992649999999912
 30
0.0
 11
112.7752890000000008
 21
-65.7551600000000036
 31
0.0
  0
LINE
  5
1B8
100
AcDbEntity
  8
trace_out
 62
256
370
-1
 48
1.0
  6
CONTINUOUS
100
AcDbLine
 10
112.7752890000000008
 20
-65.7551600000000036
 30
0.0
 11
113.4260649999999941
 21
-64.6279839999999979
 31
0.0
  0
LINE
  5
1B9
100
AcDbEntity
  8
trace_out
 62
256
370
-1
 48
1.0
  6
CONTINUOUS
100
AcDbLine
 10
113.4260649999999941
 20
-64.6279839999999979
 30
0.0
 11
113.4973469999999907
 21
-64.6633669999999938
 31
0.0
  0
LINE
  5
1BA
100
AcDbEntity
  8
trace_out
 62
256
370
-1
 48
1.0
  6
CONTINUOUS
100
AcDbLine
 10
117.2247109999999992
 20
-65.7551600000000036
 30
0.0
 11
117.1393750000000011
 21
-65.7992600000000039
 31
0.0
  0
LINE
  5
1BB
100
AcDbEntity
  8
trace_out
 62
256
370
-1
 48
1.0
  6
CONTINUOUS
100
AcDbLine
 10
117.1393750000000011
 20
-65.7992600000000039
 30
0.0
 11
116.9784629999999908
 21
-65.8753859999999918
 31
0.0
  0
LINE
  5
1BC
100
AcDbEntity
  8
trace_out
 62
256
370
-1
 48
1.0
  6
CONTINUOUS
100
AcDbLine
 10
116.9784629999999908
 20
-65.8753859999999918
 30
0.0
 11
118.1767770000000013
 21
-67.0737000000000023
 31
0.0
  0
LINE
  5
1BD
100
AcDbEntity
  8
trace_out
 62
256
370
-1
 48
1.0
  6
CONTINUOUS
100
AcDbLine
 10
118.1767770000000013
 20
-67.0737000000000023
 30
0.0
 11
118.1778439999999932
 21
-67.0750000000000028
 31
0.0
  0
LINE
  5
1BE
100
AcDbEntity
  8
trace_out
 62
256
370
-1
 48
1.0
  6
CONTINUOUS
100
AcDbLine
 10
118.1778439999999932
 20
-67.0750000000000028
 30
0.0
 11
118.4499999999999886
 21
-67.0750000000000028
 31
0.0
  0
LINE
  5
1BF
100
AcDbEntity
  8
trace_out
 62
256
370
-1
 48
1.0
  6
CONTINUOUS
100
AcDbLine
 10
118.4499999999999886
 20
-67.0750000000000028
 30
0.0
 11
118.5456709999999987
 21
-67.0940300000000036
 31
0.0
  0
LINE
  5
1C0
100
AcDbEntity
  8
trace_out
 62
256
370
-1
 48
1.0
  6
CONTINUOUS
100
AcDbLine
 10
118.5456709999999987
 20
-67.0940300000000036
 30
0.0
 11
118.6267769999999899
 21
-67.1482230000000015
 31
0.0
  0
LINE
  5
1C1
100
AcDbEntity
  8
trace_out
 62
256
370
-1
 48
1.0
  6
CONTINUOUS
100
AcDbLine
 10
118.6267769999999899
 20
-67.1482230000000015
 30
0.0
 11
118.6809699999999879
 21
-67.2293289999999928
 31
0.0
  0
LINE
  5
1C2
100
AcDbEntity
  8
trace_out
 62
256
370
-1
 48
1.0
  6
CONTINUOUS
100
AcDbLine
 10
118.6809699999999879
 20
-67.2293289999999928
 30
0.0
 11
118.6999999999999886
 21
-67.3250000000000028
 31
0.0
  0
LINE
  5
1C3
100
AcDbEntity
  8
trace_out
 62
256
370
-1
 48
1.0
  6
CONTINUOUS
100
AcDbLine
 10
118.6999999999999886
 20
-67.3250000000000028
 30
0.0
 11
118.6999999999999886
 21
-67.8499999999999943
 31
0.0
  0
LINE
  5
1C4
100
AcDbEntity
  8
trace_out
 62
256
370
-1
 48
1.0
  6
CONTINUOUS
100
AcDbLine
 10
118.6999999999999886
 20
-67.8499999999999943
 30
0.0
 11
118.6809699999999879
 21
-67.9456709999999902
 31
0.0
  0
LINE
  5
1C5
100
AcDbEntity
  8
trace_out
 62
256
370
-1
 48
1.0
  6
CONTINUOUS
100
AcDbLine
 10
118.6809699999999879
 20
-67.9456709999999902
 30
0.0
 11
118.6267769999999899
 21
-68.0267769999999956
 31
0.0
  0
LINE
  5
1C6
100
AcDbEntity
  8
trace_out
 62
256
370
-1
 48
1.0
  6
CONTINUOUS
100
AcDbLine
 10
118.6267769999999899
 20
-68.0267769999999956
 30
0.0
 11
118.5456709999999987
 21
-68.0809699999999935
 31
0.0
  0
LINE
  5
1C7
100
AcDbEntity
  8
trace_out
 62
256
370
-1
 48
1.0
  6
CONTINUOUS
100
AcDbLine
 10
118.5456709999999987
 20
-68.0809699999999935
 30
0.0
 11
118.4499999999999886
 21
-68.0999999999999943
 31
0.0
  0
LINE
  5
1C8
100
AcDbEntity
  8
trace_out
 62
256
370
-1
 48
1.0
  6
CONTINUOUS
100
AcDbLine
 10
118.4499999999999886
 20
-68.0999999999999943
 30
0.0
 11
117.5499999999999972
 21
-68.0999999999999943
 31
0.0
  0
LINE
  5
1C9
100
AcDbEntity
  8
trace_out
 62
256
370
-1
 48
1.0
  6
CONTINUOUS
100
AcDbLine
 10
117.5499999999999972
 20
-68.0999999999999943
 30
0.0
 11
117.4543290000000013
 21
-68.0809699999999935
 31
0.0
  0
LINE
  5
1CA
100
AcDbEntity
  8
trace_out
 62
256
370
-1
 48
1.0
  6
CONTINUOUS
100
AcDbLine
 10
117.4543290000000013
 20
-68.0809699999999935
 30
0.0
 11
117.3732229999999959
 21
-68.0267769999999956
 31
0.0
  0
LINE
  5
1CB
100
AcDbEntity
  8
trace_out
 62
256
370
-1
 48
1.0
  6
CONTINUOUS
100
AcDbLine
 10
117.3732229999999959
 20
-68.0267769999999956
 30
0.0
 11
117.3190299999999979
 21
-67.9456709999999902
 31
0.0
  0
LINE
  5
1CC
100
AcDbEntity
  8
trace_out
 62
256
370
-1
 48
1.0
  6
CONTINUOUS
100
AcDbLine
 10
117.3190299999999979
 20
-67.9456709999999902
 30
0.0
 11
117.2999999999999972
 21
-67.8499999999999943
 31
0.0
  0
LINE
  5
1CD
100
AcDbEntity
  8
trace_out
 62
256
370
-1
 48
1.0
  6
CONTINUOUS
100
AcDbLine
 10
117.2999999999999972
 20
-67.8499999999999943
 30
0.0
 11
117.2999999999999972
 21
-67.3250000000000028
 31
0.0
  0
LINE
  5
1CE
100
AcDbEntity
  8
trace_out
 62
256
370
-1
 48
1.0
  6
CONTINUOUS
100
AcDbLine
 10
117.2999999999999972
 20
-67.3250000000000028
 30
0.0
 11
117.3190299999999979
 21
-67.2293289999999928
 31
0.0
  0
LINE
  5
1CF
100
AcDbEntity
  8
trace_out
 62
256
370
-1
 48
1.0
  6
CONTINUOUS
100
AcDbLine
 10
117.3190299999999979
 20
-67.2293289999999928
 30
0.0
 11
117.3732229999999959
 21
-67.1482230000000015
 31
0.0
  0
LINE
  5
1D0
100
AcDbEntity
  8
trace_out
 62
256
370
-1
 48
1.0
  6
CONTINUOUS
100
AcDbLine
 10
117.3732229999999959
 20
-67.1482230000000015
 30
0.0
 11
117.4543290000000013
 21
-67.0940300000000036
 31
0.0
  0
LINE
  5
1D1
100
AcDbEntity
  8
trace_out
 62
256
370
-1
 48
1.0
  6
CONTINUOUS
100
AcDbLine
 10
117.4543290000000013
 20
-67.0940300000000036
 30
0.0
 11
117.4840809999999891
 21
-67.0881119999999953
 31
0.0
  0
LINE
  5
1D2
100
AcDbEntity
  8
trace_out
 62
256
370
-1
 48
1.0
  6
CONTINUOUS
100
AcDbLine
 10
117.4840809999999891
 20
-67.0881119999999953
 30
0.0
 11
116.4677219999999949
 21
-66.0717530000000011
 31
0.0
  0
LINE
  5
1D3
100
AcDbEntity
  8
trace_out
 62
256
370
-1
 48
1.0
  6
CONTINUOUS
100
AcDbLine
 10
116.4677219999999949
 20
-66.0717530000000011
 30
0.0
 11
116.426991000000001
 21
-66.0853340000000031
 31
0.0
  0
LINE
  5
1D4
100
AcDbEntity
  8
trace_out
 62
256
370
-1
 48
1.0
  6
CONTINUOUS
100
AcDbLine
 10
116.426991000000001
 20
-66.0853340000000031
 30
0.0
 11
116.2424570000000017
 21
-66.1387589999999932
 31
0.0
  0
LINE
  5
1D5
100
AcDbEntity
  8
trace_out
 62
256
370
-1
 48
1.0
  6
CONTINUOUS
100
AcDbLine
 10
116.2424570000000017
 20
-66.1387589999999932
 30
0.0
 11
116.055932999999996
 21
-66.1847569999999905
 31
0.0
  0
LINE
  5
1D6
100
AcDbEntity
  8
trace_out
 62
256
370
-1
 48
1.0
  6
CONTINUOUS
100
AcDbLine
 10
116.055932999999996
 20
-66.1847569999999905
 30
0.0
 11
115.8677179999999964
 21
-66.2232559999999921
 31
0.0
  0
LINE
  5
1D7
100
AcDbEntity
  8
trace_out
 62
256
370
-1
 48
1.0
  6
CONTINUOUS
100
AcDbLine
 10
115.8677179999999964
 20
-66.2232559999999921
 30
0.0
 11
115.6781139999999937
 21
-66.2541939999999983
 31
0.0
  0
LINE
  5
1D8
100
AcDbEntity
  8
trace_out
 62
256
370
-1
 48
1.0
  6
CONTINUOUS
100
AcDbLine
 10
115.6781139999999937
 20
-66.2541939999999983
 30
0.0
 11
115.4874239999999901
 21
-66.2775199999999955
 31
0.0
  0
LINE
  5
1D9
100
AcDbEntity
  8
trace_out
 62
256
370
-1
 48
1.0
  6
CONTINUOUS
100
AcDbLine
 10
115.4874239999999901
 20
-66.2775199999999955
 30
0.0
 11
115.2959529999999972
 21
-66.2931980000000038
 31
0.0
  0
LINE
  5
1DA
100
AcDbEntity
  8
trace_out
 62
256
370
-1
 48
1.0
  6
CONTINUOUS
100
AcDbLine
 10
115.2959529999999972
 20
-66.2931980000000038
 30
0.0
 11
115.1999999999999886
 21
-66.2976799999999997
 31
0.0
  0
LINE
  5
1DB
100
AcDbEntity
  8
trace_out
 62
256
370
-1
 48
1.0
  6
CONTINUOUS
100
AcDbLine
 10
115.1999999999999886
 20
-66.2976799999999997
 30
0.0
 11
115.1999999999999886
 21
-64.9961289999999963
 31
0.0
  0
LINE
  5
1DC
100
AcDbEntity
  8
trace_out
 62
256
370
-1
 48
1.0
  6
CONTINUOUS
100
AcDbLine
 10
115.1999999999999886
 20
-64.9961289999999963
 30
0.0
 11
115.2794239999999917
 21
-64.9911309999999958
 31
0.0
  0
LINE
  5
1DD
100
AcDbEntity
  8
trace_out
 62
256
370
-1
 48
1.0
  6
CONTINUOUS
100
AcDbLine
 10
115.2794239999999917
 20
-64.9911309999999958
 30
0.0
 11
115.4377470000000017
 21
-64.9748230000000007
 31
0.0
  0
LINE
  5
1DE
100
AcDbEntity
  8
trace_out
 62
256
370
-1
 48
1.0
  6
CONTINUOUS
100
AcDbLine
 10
115.4377470000000017
 20
-64.9748230000000007
 30
0.0
 11
115.5951639999999969
 21
-64.9513350000000003
 31
0.0
  0
LINE
  5
1DF
100
AcDbEntity
  8
trace_out
 62
256
370
-1
 48
1.0
  6
CONTINUOUS
100
AcDbLine
 10
115.5951639999999969
 20
-64.9513350000000003
 30
0.0
 11
115.7513509999999997
 21
-64.9207150000000013
 31
0.0
  0
LINE
  5
1E0
100
AcDbEntity
  8
trace_out
 62
256
370
-1
 48
1.0
  6
CONTINUOUS
100
AcDbLine
 10
115.7513509999999997
 20
-64.9207150000000013
 30
0.0
 11
115.9059850000000012
 21
-64.8830279999999959
 31
0.0
  0
LINE
  5
1E1
100
AcDbEntity
  8
trace_out
 62
256
370
-1
 48
1.0
  6
CONTINUOUS
100
AcDbLine
 10
115.9059850000000012
 20
-64.8830279999999959
 30
0.0
 11
116.0587450000000018
 21
-64.8383499999999913
 31
0.0
  0
LINE
  5
1E2
100
AcDbEntity
  8
trace_out
 62
256
370
-1
 48
1.0
  6
CONTINUOUS
100
AcDbLine
 10
116.0587450000000018
 20
-64.8383499999999913
 30
0.0
 11
116.2093169999999986
 21
-64.7867749999999916
 31
0.0
  0
LINE
  5
1E3
100
AcDbEntity
  8
trace_out
 62
256
370
-1
 48
1.0
  6
CONTINUOUS
100
AcDbLine
 10
116.2093169999999986
 20
-64.7867749999999916
 30
0.0
 11
116.3573889999999977
 21
-64.7284089999999992
 31
0.0
  0
LINE
  5
1E4
100
AcDbEntity
  8
trace_out
 62
256
370
-1
 48
1.0
  6
CONTINUOUS
100
AcDbLine
 10
116.3573889999999977
 20
-64.7284089999999992
 30
0.0
 11
116.5026549999999901
 21
-64.6633719999999954
 31
0.0
  0
LINE
  5
1E5
100
AcDbEntity
  8
trace_out
 62
256
370
-1
 48
1.0
  6
CONTINUOUS
100
AcDbLine
 10
116.5026549999999901
 20
-64.6633719999999954
 30
0.0
 11
116.5739349999999916
 21
-64.6279839999999979
 31
0.0
  0
LINE
  5
1E6
100
AcDbEntity
  8
trace_out
 62
256
370
-1
 48
1.0
  6
CONTINUOUS
100
AcDbLine
 10
116.5739349999999916
 20
-64.6279839999999979
 30
0.0
 11
117.2247109999999992
 21
-65.7551600000000036
 31
0.0
  0
LINE
  5
1E7
100
AcDbEntity
  8
trace_out
 62
256
370
-1
 48
1.0
  6
CONTINUOUS
100
AcDbLine
 10
119.0533119999999911
 20
-64.0729690000000005
 30
0.0
 11
119.001458999999997
 21
-64.1538290000000018
 31
0.0
  0
LINE
  5
1E8
100
AcDbEntity
  8
trace_out
 62
256
370
-1
 48
1.0
  6
CONTINUOUS
100
AcDbLine
 10
119.001458999999997
 20
-64.1538290000000018
 30
0.0
 11
118.8921469999999943
 21
-64.3118099999999941
 31
0.0
  0
LINE
  5
1E9
100
AcDbEntity
  8
trace_out
 62
256
370
-1
 48
1.0
  6
CONTINUOUS
100
AcDbLine
 10
118.8921469999999943
 20
-64.3118099999999941
 30
0.0
 11
118.7766019999999969
 21
-64.4652909999999935
 31
0.0
  0
LINE
  5
1EA
100
AcDbEntity
  8
trace_out
 62
256
370
-1
 48
1.0
  6
CONTINUOUS
100
AcDbLine
 10
118.7766019999999969
 20
-64.4652909999999935
 30
0.0
 11
118.6550079999999951
 21
-64.614024999999998
 31
0.0
  0
LINE
  5
1EB
100
AcDbEntity
  8
trace_out
 62
256
370
-1
 48
1.0
  6
CONTINUOUS
100
AcDbLine
 10
118.6550079999999951
 20
-64.614024999999998
 30
0.0
 11
118.5669269999999926
 21
-64.71337299999999
 31
0.0
  0
LINE
  5
1EC
100
AcDbEntity
  8
trace_out
 62
256
370
-1
 48
1.0
  6
CONTINUOUS
100
AcDbLine
 10
118.5669269999999926
 20
-64.71337299999999
 30
0.0
 11
119.7642769999999928
 21
-65.9107229999999902
 31
0.0
  0
LINE
  5
1ED
100
AcDbEntity
  8
trace_out
 62
256
370
-1
 48
1.0
  6
CONTINUOUS
100
AcDbLine
 10
119.7642769999999928
 20
-65.9107229999999902
 30
0.0
 11
119.7953619999999972
 21
-65.948601999999994
 31
0.0
  0
LINE
  5
1EE
100
AcDbEntity
  8
trace_out
 62
256
370
-1
 48
1.0
  6
CONTINUOUS
100
AcDbLine
 10
119.7953619999999972
 20
-65.948601999999994
 30
0.0
 11
119.7953669999999988
 21
-65.9486069999999955
 31
0.0
  0
LINE
  5
1EF
100
AcDbEntity
  8
trace_out
 62
256
370
-1
 48
1.0
  6
CONTINUOUS
100
AcDbLine
 10
119.7953669999999988
 20
-65.9486069999999955
 30
0.0
 11
119.8326959999999985
 21
-66.0387269999999944
 31
0.0
  0
LINE
  5
1F0
100
AcDbEntity
  8
trace_out
 62
256
370
-1
 48
1.0
  6
CONTINUOUS
100
AcDbLine
 10
119.8326959999999985
 20
-66.0387269999999944
 30
0.0
 11
119.8374999999999915
 21
-66.0874999999999915
 31
0.0
  0
LINE
  5
1F1
100
AcDbEntity
  8
trace_out
 62
256
370
-1
 48
1.0
  6
CONTINUOUS
100
AcDbLine
 10
119.8374999999999915
 20
-66.0874999999999915
 30
0.0
 11
119.8374999999999915
 21
-66.5714459999999946
 31
0.0
  0
LINE
  5
1F2
100
AcDbEntity
  8
trace_out
 62
256
370
-1
 48
1.0
  6
CONTINUOUS
100
AcDbLine
 10
119.8374999999999915
 20
-66.5714459999999946
 30
0.0
 11
120.3410539999999997
 21
-67.0750000000000028
 31
0.0
  0
LINE
  5
1F3
100
AcDbEntity
  8
trace_out
 62
256
370
-1
 48
1.0
  6
CONTINUOUS
100
AcDbLine
 10
120.3410539999999997
 20
-67.0750000000000028
 30
0.0
 11
120.9499999999999886
 21
-67.0750000000000028
 31
0.0
  0
LINE
  5
1F4
100
AcDbEntity
  8
trace_out
 62
256
370
-1
 48
1.0
  6
CONTINUOUS
100
AcDbLine
 10
120.9499999999999886
 20
-67.0750000000000028
 30
0.0
 11
121.0456709999999987
 21
-67.0940300000000036
 31
0.0
  0
LINE
  5
1F5
100
AcDbEntity
  8
trace_out
 62
256
370
-1
 48
1.0
  6
CONTINUOUS
100
AcDbLine
 10
121.0456709999999987
 20
-67.0940300000000036
 30
0.0
 11
121.1267769999999899
 21
-67.1482230000000015
 31
0.0
  0
LINE
  5
1F6
100
AcDbEntity
  8
trace_out
 62
256
370
-1
 48
1.0
  6
CONTINUOUS
100
AcDbLine
 10
121.1267769999999899
 20
-67.1482230000000015
 30
0.0
 11
121.1809699999999879
 21
-67.2293289999999928
 31
0.0
  0
LINE
  5
1F7
100
AcDbEntity
  8
trace_out
 62
256
370
-1
 48
1.0
  6
CONTINUOUS
100
AcDbLine
 10
121.1809699999999879
 20
-67.2293289999999928
 30
0.0
 11
121.1999999999999886
 21
-67.3250000000000028
 31
0.0
  0
LINE
  5
1F8
100
AcDbEntity
  8
trace_out
 62
256
370
-1
 48
1.0
  6
CONTINUOUS
100
AcDbLine
 10
121.1999999999999886
 20
-67.3250000000000028
 30
0.0
 11
121.1999999999999886
 21
-67.8499999999999943
 31
0.0
  0
LINE
  5
1F9
100
AcDbEntity
  8
trace_out
 62
256
370
-1
 48
1.0
  6
CONTINUOUS
100
AcDbLine
 10
121.1999999999999886
 20
-67.8499999999999943
 30
0.0
 11
121.1809699999999879
 21
-67.9456709999999902
 31
0.0
  0
LINE
  5
1FA
100
AcDbEntity
  8
trace_out
 62
256
370
-1
 48
1.0
  6
CONTINUOUS
100
AcDbLine
 10
121.1809699999999879
 20
-67.9456709999999902
 30
0.0
 11
121.1267769999999899
 21
-68.0267769999999956
 31
0.0
  0
LINE
  5
1FB
100
AcDbEntity
  8
trace_out
 62
256
370
-1
 48
1.0
  6
CONTINUOUS
100
AcDbLine
 10
121.1267769999999899
 20
-68.0267769999999956
 30
0.0
 11
121.0456709999999987
 21
-68.0809699999999935
 31
0.0
  0
LINE
  5
1FC
100
AcDbEntity
  8
trace_out
 62
256
370
-1
 48
1.0
  6
CONTINUOUS
100
AcDbLine
 10
121.0456709999999987
 20
-68.0809699999999935
 30
0.0
 11
120.9499999999999886
 21
-68.0999999999999943
 31
0.0
  0
LINE
  5
1FD
100
AcDbEntity
  8
trace_out
 62
256
370
-1
 48
1.0
  6
CONTINUOUS
100
AcDbLine
 10
120.9499999999999886
 20
-68.0999999999999943
 30
0.0
 11
120.0499999999999972
 21
-68.0999999999999943
 31
0.0
  0
LINE
  5
1FE
100
AcDbEntity
  8
trace_out
 62
256
370
-1
 48
1.0
  6
CONTINUOUS
100
AcDbLine
 10
120.0499999999999972
 20
-68.0999999999999943
 30
0.0
 11
119.9543290000000013
 21
-68.0809699999999935
 31
0.0
  0
LINE
  5
1FF
100
AcDbEntity
  8
trace_out
 62
256
370
-1
 48
1.0
  6
CONTINUOUS
100
AcDbLine
 10
119.9543290000000013
 20
-68.0809699999999935
 30
0.0
 11
119.8732229999999959
 21
-68.0267769999999956
 31
0.0
  0
LINE
  5
200
100
AcDbEntity
  8
trace_out
 62
256
370
-1
 48
1.0
  6
CONTINUOUS
100
AcDbLine
 10
119.8732229999999959
 20
-68.0267769999999956
 30
0.0
 11
119.8190299999999979
 21
-67.9456709999999902
 31
0.0
  0
LINE
  5
201
100
AcDbEntity
  8
trace_out
 62
256
370
-1
 48
1.0
  6
CONTINUOUS
100
AcDbLine
 10
119.8190299999999979
 20
-67.9456709999999902
 30
0.0
 11
119.7999999999999972
 21
-67.8499999999999943
 31
0.0
  0
LINE
  5
202
100
AcDbEntity
  8
trace_out
 62
256
370
-1
 48
1.0
  6
CONTINUOUS
100
AcDbLine
 10
119.7999999999999972
 20
-67.8499999999999943
 30
0.0
 11
119.7999999999999972
 21
-67.3250000000000028
 31
0.0
  0
LINE
  5
203
100
AcDbEntity
  8
trace_out
 62
256
370
-1
 48
1.0
  6
CONTINUOUS
100
AcDbLine
 10
119.7999999999999972
 20
-67.3250000000000028
 30
0.0
 11
119.8139269999999925
 21
-67.2549810000000008
 31
0.0
  0
LINE
  5
204
100
AcDbEntity
  8
trace_out
 62
256
370
-1
 48
1.0
  6
CONTINUOUS
100
AcDbLine
 10
119.8139269999999925
 20
-67.2549810000000008
 30
0.0
 11
119.4107229999999902
 21
-66.8517769999999985
 31
0.0
  0
LINE
  5
205
100
AcDbEntity
  8
trace_out
 62
256
370
-1
 48
1.0
  6
CONTINUOUS
100
AcDbLine
 10
119.4107229999999902
 20
-66.8517769999999985
 30
0.0
 11
119.3796369999999882
 21
-66.8138969999999972
 31
0.0
  0
LINE
  5
206
100
AcDbEntity
  8
trace_out
 62
256
370
-1
 48
1.0
  6
CONTINUOUS
100
AcDbLine
 10
119.3796369999999882
 20
-66.8138969999999972
 30
0.0
 11
119.3796329999999983
 21
-66.8138929999999931
 31
0.0
  0
LINE
  5
207
100
AcDbEntity
  8
trace_out
 62
256
370
-1
 48
1.0
  6
CONTINUOUS
100
AcDbLine
 10
119.3796329999999983
 20
-66.8138929999999931
 30
0.0
 11
119.3423039999999986
 21
-66.7237729999999942
 31
0.0
  0
LINE
  5
208
100
AcDbEntity
  8
trace_out
 62
256
370
-1
 48
1.0
  6
CONTINUOUS
100
AcDbLine
 10
119.3423039999999986
 20
-66.7237729999999942
 30
0.0
 11
119.3374999999999915
 21
-66.6749999999999972
 31
0.0
  0
LINE
  5
209
100
AcDbEntity
  8
trace_out
 62
256
370
-1
 48
1.0
  6
CONTINUOUS
100
AcDbLine
 10
119.3374999999999915
 20
-66.6749999999999972
 30
0.0
 11
119.3374999999999915
 21
-66.1910539999999941
 31
0.0
  0
LINE
  5
20A
100
AcDbEntity
  8
trace_out
 62
256
370
-1
 48
1.0
  6
CONTINUOUS
100
AcDbLine
 10
119.3374999999999915
 20
-66.1910539999999941
 30
0.0
 11
118.213485999999989
 21
-65.0670399999999916
 31
0.0
  0
LINE
  5
20B
100
AcDbEntity
  8
trace_out
 62
256
370
-1
 48
1.0
  6
CONTINUOUS
100
AcDbLine
 10
118.213485999999989
 20
-65.0670399999999916
 30
0.0
 11
118.1121799999999951
 21
-65.1568609999999921
 31
0.0
  0
LINE
  5
20C
100
AcDbEntity
  8
trace_out
 62
256
370
-1
 48
1.0
  6
CONTINUOUS
100
AcDbLine
 10
118.1121799999999951
 20
-65.1568609999999921
 30
0.0
 11
117.963446999999988
 21
-65.2784570000000031
 31
0.0
  0
LINE
  5
20D
100
AcDbEntity
  8
trace_out
 62
256
370
-1
 48
1.0
  6
CONTINUOUS
100
AcDbLine
 10
117.963446999999988
 20
-65.2784570000000031
 30
0.0
 11
117.8099679999999978
 21
-65.3940049999999928
 31
0.0
  0
LINE
  5
20E
100
AcDbEntity
  8
trace_out
 62
256
370
-1
 48
1.0
  6
CONTINUOUS
100
AcDbLine
 10
117.8099679999999978
 20
-65.3940049999999928
 30
0.0
 11
117.6519890000000004
 21
-65.5033200000000022
 31
0.0
  0
LINE
  5
20F
100
AcDbEntity
  8
trace_out
 62
256
370
-1
 48
1.0
  6
CONTINUOUS
100
AcDbLine
 10
117.6519890000000004
 20
-65.5033200000000022
 30
0.0
 11
117.5711209999999909
 21
-65.5551600000000008
 31
0.0
  0
LINE
  5
210
100
AcDbEntity
  8
trace_out
 62
256
370
-1
 48
1.0
  6
CONTINUOUS
100
AcDbLine
 10
117.5711209999999909
 20
-65.5551600000000008
 30
0.0
 11
116.920345999999995
 21
-64.427983999999995
 31
0.0
  0
LINE
  5
211
100
AcDbEntity
  8
trace_out
 62
256
370
-1
 48
1.0
  6
CONTINUOUS
100
AcDbLine
 10
116.920345999999995
 20
-64.427983999999995
 30
0.0
 11
116.986629999999991
 21
-64.3839430000000021
 31
0.0
  0
LINE
  5
212
100
AcDbEntity
  8
trace_out
 62
256
370
-1
 48
1.0
  6
CONTINUOUS
100
AcDbLine
 10
116.986629999999991
 20
-64.3839430000000021
 30
0.0
 11
117.1155859999999933
 21
-64.2906579999999934
 31
0.0
  0
LINE
  5
213
100
AcDbEntity
  8
trace_out
 62
256
370
-1
 48
1.0
  6
CONTINUOUS
100
AcDbLine
 10
117.1155859999999933
 20
-64.2906579999999934
 30
0.0
 11
117.2401669999999996
 21
-64.1916059999999931
 31
0.0
  0
LINE
  5
214
100
AcDbEntity
  8
trace_out
 62
256
370
-1
 48
1.0
  6
CONTINUOUS
100
AcDbLine
 10
117.2401669999999996
 20
-64.1916059999999931
 30
0.0
 11
117.3601179999999999
 21
-64.0869950000000017
 31
0.0
  0
LINE
  5
215
100
AcDbEntity
  8
trace_out
 62
256
370
-1
 48
1.0
  6
CONTINUOUS
100
AcDbLine
 10
117.3601179999999999
 20
-64.0869950000000017
 30
0.0
 11
117.4751890000000003
 21
-63.9770380000000003
 31
0.0
  0
LINE
  5
216
100
AcDbEntity
  8
trace_out
 62
256
370
-1
 48
1.0
  6
CONTINUOUS
100
AcDbLine
 10
117.4751890000000003
 20
-63.9770380000000003
 30
0.0
 11
117.585142999999988
 21
-63.8619649999999979
 31
0.0
  0
LINE
  5
217
100
AcDbEntity
  8
trace_out
 62
256
370
-1
 48
1.0
  6
CONTINUOUS
100
AcDbLine
 10
117.585142999999988
 20
-63.8619649999999979
 30
0.0
 11
117.6897529999999961
 21
-63.7420119999999955
 31
0.0
  0
LINE
  5
218
100
AcDbEntity
  8
trace_out
 62
256
370
-1
 48
1.0
  6
CONTINUOUS
100
AcDbLine
 10
117.6897529999999961
 20
-63.7420119999999955
 30
0.0
 11
117.7888009999999923
 21
-63.6174279999999968
 31
0.0
  0
LINE
  5
219
100
AcDbEntity
  8
trace_out
 62
256
370
-1
 48
1.0
  6
CONTINUOUS
100
AcDbLine
 10
117.7888009999999923
 20
-63.6174279999999968
 30
0.0
 11
117.8820839999999919
 21
-63.488470999999997
 31
0.0
  0
LINE
  5
21A
100
AcDbEntity
  8
trace_out
 62
256
370
-1
 48
1.0
  6
CONTINUOUS
100
AcDbLine
 10
117.8820839999999919
 20
-63.488470999999997
 30
0.0
 11
117.9261359999999996
 21
-63.4221939999999975
 31
0.0
  0
LINE
  5
21B
100
AcDbEntity
  8
trace_out
 62
256
370
-1
 48
1.0
  6
CONTINUOUS
100
AcDbLine
 10
117.9261359999999996
 20
-63.4221939999999975
 30
0.0
 11
119.0533119999999911
 21
-64.0729690000000005
 31
0.0
  0
LINE
  5
21C
100
AcDbEntity
  8
trace_out
 62
256
370
-1
 48
1.0
  6
CONTINUOUS
100
AcDbLine
 10
119.7913549999999958
 20
-61.7978009999999998
 30
0.0
 11
119.7756739999999951
 21
-61.9892709999999951
 31
0.0
  0
LINE
  5
21D
100
AcDbEntity
  8
trace_out
 62
256
370
-1
 48
1.0
  6
CONTINUOUS
100
AcDbLine
 10
119.7756739999999951
 20
-61.9892709999999951
 30
0.0
 11
119.7523459999999886
 21
-62.1799609999999987
 31
0.0
  0
LINE
  5
21E
100
AcDbEntity
  8
trace_out
 62
256
370
-1
 48
1.0
  6
CONTINUOUS
100
AcDbLine
 10
119.7523459999999886
 20
-62.1799609999999987
 30
0.0
 11
119.7214059999999876
 21
-62.3695649999999944
 31
0.0
  0
LINE
  5
21F
100
AcDbEntity
  8
trace_out
 62
256
370
-1
 48
1.0
  6
CONTINUOUS
100
AcDbLine
 10
119.7214059999999876
 20
-62.3695649999999944
 30
0.0
 11
119.7020469999999932
 21
-62.4642029999999977
 31
0.0
  0
LINE
  5
220
100
AcDbEntity
  8
trace_out
 62
256
370
-1
 48
1.0
  6
CONTINUOUS
100
AcDbLine
 10
119.7020469999999932
 20
-62.4642029999999977
 30
0.0
 11
120.126702999999992
 21
-62.4642029999999977
 31
0.0
  0
LINE
  5
221
100
AcDbEntity
  8
trace_out
 62
256
370
-1
 48
1.0
  6
CONTINUOUS
100
AcDbLine
 10
120.126702999999992
 20
-62.4642029999999977
 30
0.0
 11
120.1754759999999891
 21
-62.4690069999999977
 31
0.0
  0
LINE
  5
222
100
AcDbEntity
  8
trace_out
 62
256
370
-1
 48
1.0
  6
CONTINUOUS
100
AcDbLine
 10
120.1754759999999891
 20
-62.4690069999999977
 30
0.0
 11
120.265595999999988
 21
-62.5063359999999975
 31
0.0
  0
LINE
  5
223
100
AcDbEntity
  8
trace_out
 62
256
370
-1
 48
1.0
  6
CONTINUOUS
100
AcDbLine
 10
120.265595999999988
 20
-62.5063359999999975
 30
0.0
 11
120.2655999999999921
 21
-62.5063399999999945
 31
0.0
  0
LINE
  5
224
100
AcDbEntity
  8
trace_out
 62
256
370
-1
 48
1.0
  6
CONTINUOUS
100
AcDbLine
 10
120.2655999999999921
 20
-62.5063399999999945
 30
0.0
 11
120.3034799999999933
 21
-62.5374259999999964
 31
0.0
  0
LINE
  5
225
100
AcDbEntity
  8
trace_out
 62
256
370
-1
 48
1.0
  6
CONTINUOUS
100
AcDbLine
 10
120.3034799999999933
 20
-62.5374259999999964
 30
0.0
 11
120.8410529999999881
 21
-63.0749999999999957
 31
0.0
  0
LINE
  5
226
100
AcDbEntity
  8
trace_out
 62
256
370
-1
 48
1.0
  6
CONTINUOUS
100
AcDbLine
 10
120.8410529999999881
 20
-63.0749999999999957
 30
0.0
 11
121.4499999999999886
 21
-63.0749999999999957
 31
0.0
  0
LINE
  5
227
100
AcDbEntity
  8
trace_out
 62
256
370
-1
 48
1.0
  6
CONTINUOUS
100
AcDbLine
 10
121.4499999999999886
 20
-63.0749999999999957
 30
0.0
 11
121.5456709999999987
 21
-63.0940299999999965
 31
0.0
  0
LINE
  5
228
100
AcDbEntity
  8
trace_out
 62
256
370
-1
 48
1.0
  6
CONTINUOUS
100
AcDbLine
 10
121.5456709999999987
 20
-63.0940299999999965
 30
0.0
 11
121.6267769999999899
 21
-63.1482229999999944
 31
0.0
  0
LINE
  5
229
100
AcDbEntity
  8
trace_out
 62
256
370
-1
 48
1.0
  6
CONTINUOUS
100
AcDbLine
 10
121.6267769999999899
 20
-63.1482229999999944
 30
0.0
 11
121.6809699999999879
 21
-63.2293289999999999
 31
0.0
  0
LINE
  5
22A
100
AcDbEntity
  8
trace_out
 62
256
370
-1
 48
1.0
  6
CONTINUOUS
100
AcDbLine
 10
121.6809699999999879
 20
-63.2293289999999999
 30
0.0
 11
121.6999999999999886
 21
-63.3249999999999957
 31
0.0
  0
LINE
  5
22B
100
AcDbEntity
  8
trace_out
 62
256
370
-1
 48
1.0
  6
CONTINUOUS
100
AcDbLine
 10
121.6999999999999886
 20
-63.3249999999999957
 30
0.0
 11
121.6999999999999886
 21
-63.8499999999999943
 31
0.0
  0
LINE
  5
22C
100
AcDbEntity
  8
trace_out
 62
256
370
-1
 48
1.0
  6
CONTINUOUS
100
AcDbLine
 10
121.6999999999999886
 20
-63.8499999999999943
 30
0.0
 11
121.6809699999999879
 21
-63.9456709999999973
 31
0.0
  0
LINE
  5
22D
100
AcDbEntity
  8
trace_out
 62
256
370
-1
 48
1.0
  6
CONTINUOUS
100
AcDbLine
 10
121.6809699999999879
 20
-63.9456709999999973
 30
0.0
 11
121.6267769999999899
 21
-64.0267769999999956
 31
0.0
  0
LINE
  5
22E
100
AcDbEntity
  8
trace_out
 62
256
370
-1
 48
1.0
  6
CONTINUOUS
100
AcDbLine
 10
121.6267769999999899
 20
-64.0267769999999956
 30
0.0
 11
121.5456709999999987
 21
-64.0809699999999935
 31
0.0
  0
LINE
  5
22F
100
AcDbEntity
  8
trace_out
 62
256
370
-1
 48
1.0
  6
CONTINUOUS
100
AcDbLine
 10
121.5456709999999987
 20
-64.0809699999999935
 30
0.0
 11
121.4499999999999886
 21
-64.0999999999999943
 31
0.0
  0
LINE
  5
230
100
AcDbEntity
  8
trace_out
 62
256
370
-1
 48
1.0
  6
CONTINUOUS
100
AcDbLine
 10
121.4499999999999886
 20
-64.0999999999999943
 30
0.0
 11
120.5499999999999972
 21
-64.0999999999999943
 31
0.0
  0
LINE
  5
231
100
AcDbEntity
  8
trace_out
 62
256
370
-1
 48
1.0
  6
CONTINUOUS
100
AcDbLine
 10
120.5499999999999972
 20
-64.0999999999999943
 30
0.0
 11
120.4543290000000013
 21
-64.0809699999999935
 31
0.0
  0
LINE
  5
232
100
AcDbEntity
  8
trace_out
 62
256
370
-1
 48
1.0
  6
CONTINUOUS
100
AcDbLine
 10
120.4543290000000013
 20
-64.0809699999999935
 30
0.0
 11
120.3732229999999959
 21
-64.0267769999999956
 31
0.0
  0
LINE
  5
233
100
AcDbEntity
  8
trace_out
 62
256
370
-1
 48
1.0
  6
CONTINUOUS
100
AcDbLine
 10
120.3732229999999959
 20
-64.0267769999999956
 30
0.0
 11
120.3190299999999979
 21
-63.9456709999999973
 31
0.0
  0
LINE
  5
234
100
AcDbEntity
  8
trace_out
 62
256
370
-1
 48
1.0
  6
CONTINUOUS
100
AcDbLine
 10
120.3190299999999979
 20
-63.9456709999999973
 30
0.0
 11
120.2999999999999972
 21
-63.8499999999999943
 31
0.0
  0
LINE
  5
235
100
AcDbEntity
  8
trace_out
 62
256
370
-1
 48
1.0
  6
CONTINUOUS
100
AcDbLine
 10
120.2999999999999972
 20
-63.8499999999999943
 30
0.0
 11
120.2999999999999972
 21
-63.3249999999999957
 31
0.0
  0
LINE
  5
236
100
AcDbEntity
  8
trace_out
 62
256
370
-1
 48
1.0
  6
CONTINUOUS
100
AcDbLine
 10
120.2999999999999972
 20
-63.3249999999999957
 30
0.0
 11
120.3139269999999925
 21
-63.2549809999999937
 31
0.0
  0
LINE
  5
237
100
AcDbEntity
  8
trace_out
 62
256
370
-1
 48
1.0
  6
CONTINUOUS
100
AcDbLine
 10
120.3139269999999925
 20
-63.2549809999999937
 30
0.0
 11
120.0231489999999894
 21
-62.9642029999999977
 31
0.0
  0
LINE
  5
238
100
AcDbEntity
  8
trace_out
 62
256
370
-1
 48
1.0
  6
CONTINUOUS
100
AcDbLine
 10
120.0231489999999894
 20
-62.9642029999999977
 30
0.0
 11
119.571684999999988
 21
-62.9642029999999977
 31
0.0
  0
LINE
  5
239
100
AcDbEntity
  8
trace_out
 62
256
370
-1
 48
1.0
  6
CONTINUOUS
100
AcDbLine
 10
119.571684999999988
 20
-62.9642029999999977
 30
0.0
 11
119.5227099999999893
 21
-63.1110819999999961
 31
0.0
  0
LINE
  5
23A
100
AcDbEntity
  8
trace_out
 62
256
370
-1
 48
1.0
  6
CONTINUOUS
100
AcDbLine
 10
119.5227099999999893
 20
-63.1110819999999961
 30
0.0
 11
119.4546989999999909
 21
-63.2907519999999977
 31
0.0
  0
LINE
  5
23B
100
AcDbEntity
  8
trace_out
 62
256
370
-1
 48
1.0
  6
CONTINUOUS
100
AcDbLine
 10
119.4546989999999909
 20
-63.2907519999999977
 30
0.0
 11
119.3795539999999988
 21
-63.4675579999999968
 31
0.0
  0
LINE
  5
23C
100
AcDbEntity
  8
trace_out
 62
256
370
-1
 48
1.0
  6
CONTINUOUS
100
AcDbLine
 10
119.3795539999999988
 20
-63.4675579999999968
 30
0.0
 11
119.2973949999999945
 21
-63.641213999999998
 31
0.0
  0
LINE
  5
23D
100
AcDbEntity
  8
trace_out
 62
256
370
-1
 48
1.0
  6
CONTINUOUS
100
AcDbLine
 10
119.2973949999999945
 20
-63.641213999999998
 30
0.0
 11
119.253311999999994
 21
-63.7265589999999946
 31
0.0
  0
LINE
  5
23E
100
AcDbEntity
  8
trace_out
 62
256
370
-1
 48
1.0
  6
CONTINUOUS
100
AcDbLine
 10
119.253311999999994
 20
-63.7265589999999946
 30
0.0
 11
118.1261359999999883
 21
-63.0757829999999942
 31
0.0
  0
LINE
  5
23F
100
AcDbEntity
  8
trace_out
 62
256
370
-1
 48
1.0
  6
CONTINUOUS
100
AcDbLine
 10
118.1261359999999883
 20
-63.0757829999999942
 30
0.0
 11
118.1615209999999934
 21
-63.0045009999999976
 31
0.0
  0
LINE
  5
240
100
AcDbEntity
  8
trace_out
 62
256
370
-1
 48
1.0
  6
CONTINUOUS
100
AcDbLine
 10
118.1615209999999934
 20
-63.0045009999999976
 30
0.0
 11
118.2265599999999921
 21
-62.8592359999999957
 31
0.0
  0
LINE
  5
241
100
AcDbEntity
  8
trace_out
 62
256
370
-1
 48
1.0
  6
CONTINUOUS
100
AcDbLine
 10
118.2265599999999921
 20
-62.8592359999999957
 30
0.0
 11
118.2849289999999911
 21
-62.7111649999999941
 31
0.0
  0
LINE
  5
242
100
AcDbEntity
  8
trace_out
 62
256
370
-1
 48
1.0
  6
CONTINUOUS
100
AcDbLine
 10
118.2849289999999911
 20
-62.7111649999999941
 30
0.0
 11
118.3365069999999974
 21
-62.5605939999999947
 31
0.0
  0
LINE
  5
243
100
AcDbEntity
  8
trace_out
 62
256
370
-1
 48
1.0
  6
CONTINUOUS
100
AcDbLine
 10
118.3365069999999974
 20
-62.5605939999999947
 30
0.0
 11
118.3811869999999971
 21
-62.4078329999999966
 31
0.0
  0
LINE
  5
244
100
AcDbEntity
  8
trace_out
 62
256
370
-1
 48
1.0
  6
CONTINUOUS
100
AcDbLine
 10
118.3811869999999971
 20
-62.4078329999999966
 30
0.0
 11
118.4188769999999948
 21
-62.2531999999999996
 31
0.0
  0
LINE
  5
245
100
AcDbEntity
  8
trace_out
 62
256
370
-1
 48
1.0
  6
CONTINUOUS
100
AcDbLine
 10
118.4188769999999948
 20
-62.2531999999999996
 30
0.0
 11
118.4494989999999888
 21
-62.0970129999999969
 31
0.0
  0
LINE
  5
246
100
AcDbEntity
  8
trace_out
 62
256
370
-1
 48
1.0
  6
CONTINUOUS
100
AcDbLine
 10
118.4494989999999888
 20
-62.0970129999999969
 30
0.0
 11
118.4729899999999958
 21
-61.9395959999999945
 31
0.0
  0
LINE
  5
247
100
AcDbEntity
  8
trace_out
 62
256
370
-1
 48
1.0
  6
CONTINUOUS
100
AcDbLine
 10
118.4729899999999958
 20
-61.9395959999999945
 30
0.0
 11
118.4893009999999975
 21
-61.7812729999999988
 31
0.0
  0
LINE
  5
248
100
AcDbEntity
  8
trace_out
 62
256
370
-1
 48
1.0
  6
CONTINUOUS
100
AcDbLine
 10
118.4893009999999975
 20
-61.7812729999999988
 30
0.0
 11
118.4942810000000009
 21
-61.7018479999999983
 31
0.0
  0
LINE
  5
249
100
AcDbEntity
  8
trace_out
 62
256
370
-1
 48
1.0
  6
CONTINUOUS
100
AcDbLine
 10
118.4942810000000009
 20
-61.7018479999999983
 30
0.0
 11
119.7958319999999901
 21
-61.7018479999999983
 31
0.0
  0
LINE
  5
24A
100
AcDbEntity
  8
trace_out
 62
256
370
-1
 48
1.0
  6
CONTINUOUS
100
AcDbLine
 10
119.7958319999999901
 20
-61.7018479999999983
 30
0.0
 11
119.7913549999999958
 21
-61.7978009999999998
 31
0.0
  0
LINE
  5
24B
100
AcDbEntity
  8
trace_out
 62
256
370
-1
 48
1.0
  6
CONTINUOUS
100
AcDbLine
 10
115.1956929999999915
 20
-56.7053379999999976
 30
0.0
 11
115.3910609999999934
 21
-56.717302999999994
 31
0.0
  0
LINE
  5
24C
100
AcDbEntity
  8
trace_out
 62
256
370
-1
 48
1.0
  6
CONTINUOUS
100
AcDbLine
 10
115.3910609999999934
 20
-56.717302999999994
 30
0.0
 11
115.5857789999999881
 21
-56.7372219999999956
 31
0.0
  0
LINE
  5
24D
100
AcDbEntity
  8
trace_out
 62
256
370
-1
 48
1.0
  6
CONTINUOUS
100
AcDbLine
 10
115.5857789999999881
 20
-56.7372219999999956
 30
0.0
 11
115.7795229999999975
 21
-56.7650620000000004
 31
0.0
  0
LINE
  5
24E
100
AcDbEntity
  8
trace_out
 62
256
370
-1
 48
1.0
  6
CONTINUOUS
100
AcDbLine
 10
115.7795229999999975
 20
-56.7650620000000004
 30
0.0
 11
115.9719709999999964
 21
-56.8007769999999965
 31
0.0
  0
LINE
  5
24F
100
AcDbEntity
  8
trace_out
 62
256
370
-1
 48
1.0
  6
CONTINUOUS
100
AcDbLine
 10
115.9719709999999964
 20
-56.8007769999999965
 30
0.0
 11
116.1628029999999967
 21
-56.8443070000000006
 31
0.0
  0
LINE
  5
250
100
AcDbEntity
  8
trace_out
 62
256
370
-1
 48
1.0
  6
CONTINUOUS
100
AcDbLine
 10
116.1628029999999967
 20
-56.8443070000000006
 30
0.0
 11
116.3517019999999889
 21
-56.8955799999999954
 31
0.0
  0
LINE
  5
251
100
AcDbEntity
  8
trace_out
 62
256
370
-1
 48
1.0
  6
CONTINUOUS
100
AcDbLine
 10
116.3517019999999889
 20
-56.8955799999999954
 30
0.0
 11
116.5383530000000007
 21
-56.9545109999999966
 31
0.0
  0
LINE
  5
252
100
AcDbEntity
  8
trace_out
 62
256
370
-1
 48
1.0
  6
CONTINUOUS
100
AcDbLine
 10
116.5383530000000007
 20
-56.9545109999999966
 30
0.0
 11
116.7224469999999883
 21
-57.0210030000000003
 31
0.0
  0
LINE
  5
253
100
AcDbEntity
  8
trace_out
 62
256
370
-1
 48
1.0
  6
CONTINUOUS
100
AcDbLine
 10
116.7224469999999883
 20
-57.0210030000000003
 30
0.0
 11
116.9036779999999993
 21
-57.0949430000000007
 31
0.0
  0
LINE
  5
254
100
AcDbEntity
  8
trace_out
 62
256
370
-1
 48
1.0
  6
CONTINUOUS
100
AcDbLine
 10
116.9036779999999993
 20
-57.0949430000000007
 30
0.0
 11
117.0817440000000005
 21
-57.1762099999999975
 31
0.0
  0
LINE
  5
255
100
AcDbEntity
  8
trace_out
 62
256
370
-1
 48
1.0
  6
CONTINUOUS
100
AcDbLine
 10
117.0817440000000005
 20
-57.1762099999999975
 30
0.0
 11
117.2563490000000002
 21
-57.2646680000000003
 31
0.0
  0
LINE
  5
256
100
AcDbEntity
  8
trace_out
 62
256
370
-1
 48
1.0
  6
CONTINUOUS
100
AcDbLine
 10
117.2563490000000002
 20
-57.2646680000000003
 30
0.0
 11
117.4272029999999916
 21
-57.360170999999994
 31
0.0
  0
LINE
  5
257
100
AcDbEntity
  8
trace_out
 62
256
370
-1
 48
1.0
  6
CONTINUOUS
100
AcDbLine
 10
117.4272029999999916
 20
-57.360170999999994
 30
0.0
 11
117.5940209999999979
 21
-57.4625589999999988
 31
0.0
  0
LINE
  5
258
100
AcDbEntity
  8
trace_out
 62
256
370
-1
 48
1.0
  6
CONTINUOUS
100
AcDbLine
 10
117.5940209999999979
 20
-57.4625589999999988
 30
0.0
 11
117.6199989999999929
 21
-57.4799999999999969
 31
0.0
  0
LINE
  5
259
100
AcDbEntity
  8
trace_out
 62
256
370
-1
 48
1.0
  6
CONTINUOUS
100
AcDbLine
 10
117.6199989999999929
 20
-57.4799999999999969
 30
0.0
 11
123.3249999999999886
 21
-57.4799999999999969
 31
0.0
  0
LINE
  5
25A
100
AcDbEntity
  8
trace_out
 62
256
370
-1
 48
1.0
  6
CONTINUOUS
100
AcDbLine
 10
123.3249999999999886
 20
-57.4799999999999969
 30
0.0
 11
123.3249999999999886
 21
-56.9679999999999964
 31
0.0
  0
LINE
  5
25B
100
AcDbEntity
  8
trace_out
 62
256
370
-1
 48
1.0
  6
CONTINUOUS
100
AcDbLine
 10
123.3249999999999886
 20
-56.9679999999999964
 30
0.0
 11
129.6749999999999829
 21
-56.9679999999999964
 31
0.0
  0
LINE
  5
25C
100
AcDbEntity
  8
trace_out
 62
256
370
-1
 48
1.0
  6
CONTINUOUS
100
AcDbLine
 10
129.6749999999999829
 20
-56.9679999999999964
 30
0.0
 11
129.6749999999999829
 21
-58.4919999999999973
 31
0.0
  0
LINE
  5
25D
100
AcDbEntity
  8
trace_out
 62
256
370
-1
 48
1.0
  6
CONTINUOUS
100
AcDbLine
 10
129.6749999999999829
 20
-58.4919999999999973
 30
0.0
 11
123.3249999999999886
 21
-58.4919999999999973
 31
0.0
  0
LINE
  5
25E
100
AcDbEntity
  8
trace_out
 62
256
370
-1
 48
1.0
  6
CONTINUOUS
100
AcDbLine
 10
123.3249999999999886
 20
-58.4919999999999973
 30
0.0
 11
123.3249999999999886
 21
-57.9799999999999969
 31
0.0
  0
LINE
  5
25F
100
AcDbEntity
  8
trace_out
 62
256
370
-1
 48
1.0
  6
CONTINUOUS
100
AcDbLine
 10
123.3249999999999886
 20
-57.9799999999999969
 30
0.0
 11
118.2608409999999992
 21
-57.9799999999999969
 31
0.0
  0
LINE
  5
260
100
AcDbEntity
  8
trace_out
 62
256
370
-1
 48
1.0
  6
CONTINUOUS
100
AcDbLine
 10
118.2608409999999992
 20
-57.9799999999999969
 30
0.0
 11
118.3581399999999917
 21
-58.0714399999999955
 31
0.0
  0
LINE
  5
261
100
AcDbEntity
  8
trace_out
 62
256
370
-1
 48
1.0
  6
CONTINUOUS
100
AcDbLine
 10
118.3581399999999917
 20
-58.0714399999999955
 30
0.0
 11
118.4951889999999963
 21
-58.2111869999999954
 31
0.0
  0
LINE
  5
262
100
AcDbEntity
  8
trace_out
 62
256
370
-1
 48
1.0
  6
CONTINUOUS
100
AcDbLine
 10
118.4951889999999963
 20
-58.2111869999999954
 30
0.0
 11
118.62642799999999
 21
-58.3564039999999977
 31
0.0
  0
LINE
  5
263
100
AcDbEntity
  8
trace_out
 62
256
370
-1
 48
1.0
  6
CONTINUOUS
100
AcDbLine
 10
118.62642799999999
 20
-58.3564039999999977
 30
0.0
 11
118.7516379999999998
 21
-58.5068509999999975
 31
0.0
  0
LINE
  5
264
100
AcDbEntity
  8
trace_out
 62
256
370
-1
 48
1.0
  6
CONTINUOUS
100
AcDbLine
 10
118.7516379999999998
 20
-58.5068509999999975
 30
0.0
 11
118.8706109999999967
 21
-58.6622759999999985
 31
0.0
  0
LINE
  5
265
100
AcDbEntity
  8
trace_out
 62
256
370
-1
 48
1.0
  6
CONTINUOUS
100
AcDbLine
 10
118.8706109999999967
 20
-58.6622759999999985
 30
0.0
 11
118.9831499999999949
 21
-58.8224230000000006
 31
0.0
  0
LINE
  5
266
100
AcDbEntity
  8
trace_out
 62
256
370
-1
 48
1.0
  6
CONTINUOUS
100
AcDbLine
 10
118.9831499999999949
 20
-58.8224230000000006
 30
0.0
 11
119.0890659999999883
 21
-58.9870239999999981
 31
0.0
  0
LINE
  5
267
100
AcDbEntity
  8
trace_out
 62
256
370
-1
 48
1.0
  6
CONTINUOUS
100
AcDbLine
 10
119.0890659999999883
 20
-58.9870239999999981
 30
0.0
 11
119.1881839999999926
 21
-59.1558059999999983
 31
0.0
  0
LINE
  5
268
100
AcDbEntity
  8
trace_out
 62
256
370
-1
 48
1.0
  6
CONTINUOUS
100
AcDbLine
 10
119.1881839999999926
 20
-59.1558059999999983
 30
0.0
 11
119.2803389999999979
 21
-59.3284880000000001
 31
0.0
  0
LINE
  5
269
100
AcDbEntity
  8
trace_out
 62
256
370
-1
 48
1.0
  6
CONTINUOUS
100
AcDbLine
 10
119.2803389999999979
 20
-59.3284880000000001
 30
0.0
 11
119.3653789999999901
 21
-59.5047829999999962
 31
0.0
  0
LINE
  5
26A
100
AcDbEntity
  8
trace_out
 62
256
370
-1
 48
1.0
  6
CONTINUOUS
100
AcDbLine
 10
119.3653789999999901
 20
-59.5047829999999962
 30
0.0
 11
119.4431609999999893
 21
-59.6843989999999991
 31
0.0
  0
LINE
  5
26B
100
AcDbEntity
  8
trace_out
 62
256
370
-1
 48
1.0
  6
CONTINUOUS
100
AcDbLine
 10
119.4431609999999893
 20
-59.6843989999999991
 30
0.0
 11
119.5135559999999941
 21
-59.8670359999999988
 31
0.0
  0
LINE
  5
26C
100
AcDbEntity
  8
trace_out
 62
256
370
-1
 48
1.0
  6
CONTINUOUS
100
AcDbLine
 10
119.5135559999999941
 20
-59.8670359999999988
 30
0.0
 11
119.5764479999999992
 21
-60.0523910000000001
 31
0.0
  0
LINE
  5
26D
100
AcDbEntity
  8
trace_out
 62
256
370
-1
 48
1.0
  6
CONTINUOUS
100
AcDbLine
 10
119.5764479999999992
 20
-60.0523910000000001
 30
0.0
 11
119.6317309999999878
 21
-60.2401549999999943
 31
0.0
  0
LINE
  5
26E
100
AcDbEntity
  8
trace_out
 62
256
370
-1
 48
1.0
  6
CONTINUOUS
100
AcDbLine
 10
119.6317309999999878
 20
-60.2401549999999943
 30
0.0
 11
119.6793139999999909
 21
-60.4300169999999994
 31
0.0
  0
LINE
  5
26F
100
AcDbEntity
  8
trace_out
 62
256
370
-1
 48
1.0
  6
CONTINUOUS
100
AcDbLine
 10
119.6793139999999909
 20
-60.4300169999999994
 30
0.0
 11
119.7191179999999946
 21
-60.621660999999996
 31
0.0
  0
LINE
  5
270
100
AcDbEntity
  8
trace_out
 62
256
370
-1
 48
1.0
  6
CONTINUOUS
100
AcDbLine
 10
119.7191179999999946
 20
-60.621660999999996
 30
0.0
 11
119.7510759999999976
 21
-60.8147679999999937
 31
0.0
  0
LINE
  5
271
100
AcDbEntity
  8
trace_out
 62
256
370
-1
 48
1.0
  6
CONTINUOUS
100
AcDbLine
 10
119.7510759999999976
 20
-60.8147679999999937
 30
0.0
 11
119.7751349999999917
 21
-61.0090179999999975
 31
0.0
  0
LINE
  5
272
100
AcDbEntity
  8
trace_out
 62
256
370
-1
 48
1.0
  6
CONTINUOUS
100
AcDbLine
 10
119.7751349999999917
 20
-61.0090179999999975
 30
0.0
 11
119.79125599999999
 21
-61.2040869999999941
 31
0.0
  0
LINE
  5
273
100
AcDbEntity
  8
trace_out
 62
256
370
-1
 48
1.0
  6
CONTINUOUS
100
AcDbLine
 10
119.79125599999999
 20
-61.2040869999999941
 30
0.0
 11
119.7958319999999901
 21
-61.3018479999999997
 31
0.0
  0
LINE
  5
274
100
AcDbEntity
  8
trace_out
 62
256
370
-1
 48
1.0
  6
CONTINUOUS
100
AcDbLine
 10
119.7958319999999901
 20
-61.3018479999999997
 30
0.0
 11
116.9899750000000012
 21
-61.3018479999999997
 31
0.0
  0
LINE
  5
275
100
AcDbEntity
  8
trace_out
 62
256
370
-1
 48
1.0
  6
CONTINUOUS
100
AcDbLine
 10
116.9899750000000012
 20
-61.3018479999999997
 30
0.0
 11
116.9832329999999985
 21
-61.2396249999999966
 31
0.0
  0
LINE
  5
276
100
AcDbEntity
  8
trace_out
 62
256
370
-1
 48
1.0
  6
CONTINUOUS
100
AcDbLine
 10
116.9832329999999985
 20
-61.2396249999999966
 30
0.0
 11
116.9629520000000014
 21
-61.1161089999999945
 31
0.0
  0
LINE
  5
277
100
AcDbEntity
  8
trace_out
 62
256
370
-1
 48
1.0
  6
CONTINUOUS
100
AcDbLine
 10
116.9629520000000014
 20
-61.1161089999999945
 30
0.0
 11
116.934985999999995
 21
-60.9941029999999955
 31
0.0
  0
LINE
  5
278
100
AcDbEntity
  8
trace_out
 62
256
370
-1
 48
1.0
  6
CONTINUOUS
100
AcDbLine
 10
116.934985999999995
 20
-60.9941029999999955
 30
0.0
 11
116.8994439999999884
 21
-60.8740839999999963
 31
0.0
  0
LINE
  5
279
100
AcDbEntity
  8
trace_out
 62
256
370
-1
 48
1.0
  6
CONTINUOUS
100
AcDbLine
 10
116.8994439999999884
 20
-60.8740839999999963
 30
0.0
 11
116.8564659999999975
 21
-60.7565229999999943
 31
0.0
  0
LINE
  5
27A
100
AcDbEntity
  8
trace_out
 62
256
370
-1
 48
1.0
  6
CONTINUOUS
100
AcDbLine
 10
116.8564659999999975
 20
-60.7565229999999943
 30
0.0
 11
116.8062199999999962
 21
-60.6418809999999979
 31
0.0
  0
LINE
  5
27B
100
AcDbEntity
  8
trace_out
 62
256
370
-1
 48
1.0
  6
CONTINUOUS
100
AcDbLine
 10
116.8062199999999962
 20
-60.6418809999999979
 30
0.0
 11
116.7489029999999985
 21
-60.5306049999999942
 31
0.0
  0
LINE
  5
27C
100
AcDbEntity
  8
trace_out
 62
256
370
-1
 48
1.0
  6
CONTINUOUS
100
AcDbLine
 10
116.7489029999999985
 20
-60.5306049999999942
 30
0.0
 11
116.6847389999999933
 21
-60.4231309999999979
 31
0.0
  0
LINE
  5
27D
100
AcDbEntity
  8
trace_out
 62
256
370
-1
 48
1.0
  6
CONTINUOUS
100
AcDbLine
 10
116.6847389999999933
 20
-60.4231309999999979
 30
0.0
 11
116.6139790000000005
 21
-60.3198809999999952
 31
0.0
  0
LINE
  5
27E
100
AcDbEntity
  8
trace_out
 62
256
370
-1
 48
1.0
  6
CONTINUOUS
100
AcDbLine
 10
116.6139790000000005
 20
-60.3198809999999952
 30
0.0
 11
116.5368999999999886
 21
-60.2212569999999943
 31
0.0
  0
LINE
  5
27F
100
AcDbEntity
  8
trace_out
 62
256
370
-1
 48
1.0
  6
CONTINUOUS
100
AcDbLine
 10
116.5368999999999886
 20
-60.2212569999999943
 30
0.0
 11
116.4538049999999885
 21
-60.1276480000000006
 31
0.0
  0
LINE
  5
280
100
AcDbEntity
  8
trace_out
 62
256
370
-1
 48
1.0
  6
CONTINUOUS
100
AcDbLine
 10
116.4538049999999885
 20
-60.1276480000000006
 30
0.0
 11
116.3650179999999921
 21
-60.0394179999999977
 31
0.0
  0
LINE
  5
281
100
AcDbEntity
  8
trace_out
 62
256
370
-1
 48
1.0
  6
CONTINUOUS
100
AcDbLine
 10
116.3650179999999921
 20
-60.0394179999999977
 30
0.0
 11
116.2708869999999877
 21
-59.9569139999999976
 31
0.0
  0
LINE
  5
282
100
AcDbEntity
  8
trace_out
 62
256
370
-1
 48
1.0
  6
CONTINUOUS
100
AcDbLine
 10
116.2708869999999877
 20
-59.9569139999999976
 30
0.0
 11
116.1717799999999983
 21
-59.8804579999999973
 31
0.0
  0
LINE
  5
283
100
AcDbEntity
  8
trace_out
 62
256
370
-1
 48
1.0
  6
CONTINUOUS
100
AcDbLine
 10
116.1717799999999983
 20
-59.8804579999999973
 30
0.0
 11
116.0680859999999939
 21
-59.8103499999999997
 31
0.0
  0
LINE
  5
284
100
AcDbEntity
  8
trace_out
 62
256
370
-1
 48
1.0
  6
CONTINUOUS
100
AcDbLine
 10
116.0680859999999939
 20
-59.8103499999999997
 30
0.0
 11
115.9602099999999893
 21
-59.7468629999999976
 31
0.0
  0
LINE
  5
285
100
AcDbEntity
  8
trace_out
 62
256
370
-1
 48
1.0
  6
CONTINUOUS
100
AcDbLine
 10
115.9602099999999893
 20
-59.7468629999999976
 30
0.0
 11
115.8485759999999942
 21
-59.6902479999999969
 31
0.0
  0
LINE
  5
286
100
AcDbEntity
  8
trace_out
 62
256
370
-1
 48
1.0
  6
CONTINUOUS
100
AcDbLine
 10
115.8485759999999942
 20
-59.6902479999999969
 30
0.0
 11
115.7336189999999903
 21
-59.6407249999999962
 31
0.0
  0
LINE
  5
287
100
AcDbEntity
  8
trace_out
 62
256
370
-1
 48
1.0
  6
CONTINUOUS
100
AcDbLine
 10
115.7336189999999903
 20
-59.6407249999999962
 30
0.0
 11
115.6157899999999898
 21
-59.5984879999999961
 31
0.0
  0
LINE
  5
288
100
AcDbEntity
  8
trace_out
 62
256
370
-1
 48
1.0
  6
CONTINUOUS
100
AcDbLine
 10
115.6157899999999898
 20
-59.5984879999999961
 30
0.0
 11
115.4955499999999944
 21
-59.5637029999999967
 31
0.0
  0
LINE
  5
289
100
AcDbEntity
  8
trace_out
 62
256
370
-1
 48
1.0
  6
CONTINUOUS
100
AcDbLine
 10
115.4955499999999944
 20
-59.5637029999999967
 30
0.0
 11
115.3733699999999942
 21
-59.5365059999999957
 31
0.0
  0
LINE
  5
28A
100
AcDbEntity
  8
trace_out
 62
256
370
-1
 48
1.0
  6
CONTINUOUS
100
AcDbLine
 10
115.3733699999999942
 20
-59.5365059999999957
 30
0.0
 11
115.2497279999999904
 21
-59.5170029999999954
 31
0.0
  0
LINE
  5
28B
100
AcDbEntity
  8
trace_out
 62
256
370
-1
 48
1.0
  6
CONTINUOUS
100
AcDbLine
 10
115.2497279999999904
 20
-59.5170029999999954
 30
0.0
 11
115.1251089999999948
 21
-59.5052699999999959
 31
0.0
  0
LINE
  5
28C
100
AcDbEntity
  8
trace_out
 62
256
370
-1
 48
1.0
  6
CONTINUOUS
100
AcDbLine
 10
115.1251089999999948
 20
-59.5052699999999959
 30
0.0
 11
115.0
 21
-59.5013539999999992
 31
0.0
  0
LINE
  5
28D
100
AcDbEntity
  8
trace_out
 62
256
370
-1
 48
1.0
  6
CONTINUOUS
100
AcDbLine
 10
115.0
 20
-59.5013539999999992
 30
0.0
 11
114.874890999999991
 21
-59.5052699999999959
 31
0.0
  0
LINE
  5
28E
100
AcDbEntity
  8
trace_out
 62
256
370
-1
 48
1.0
  6
CONTINUOUS
100
AcDbLine
 10
114.874890999999991
 20
-59.5052699999999959
 30
0.0
 11
114.7502719999999954
 21
-59.5170029999999954
 31
0.0
  0
LINE
  5
28F
100
AcDbEntity
  8
trace_out
 62
256
370
-1
 48
1.0
  6
CONTINUOUS
100
AcDbLine
 10
114.7502719999999954
 20
-59.5170029999999954
 30
0.0
 11
114.6266299999999916
 21
-59.5365059999999957
 31
0.0
  0
LINE
  5
290
100
AcDbEntity
  8
trace_out
 62
256
370
-1
 48
1.0
  6
CONTINUOUS
100
AcDbLine
 10
114.6266299999999916
 20
-59.5365059999999957
 30
0.0
 11
114.5044499999999914
 21
-59.5637029999999967
 31
0.0
  0
LINE
  5
291
100
AcDbEntity
  8
trace_out
 62
256
370
-1
 48
1.0
  6
CONTINUOUS
100
AcDbLine
 10
114.5044499999999914
 20
-59.5637029999999967
 30
0.0
 11
114.3842099999999959
 21
-59.5984879999999961
 31
0.0
  0
LINE
  5
292
100
AcDbEntity
  8
trace_out
 62
256
370
-1
 48
1.0
  6
CONTINUOUS
100
AcDbLine
 10
114.3842099999999959
 20
-59.5984879999999961
 30
0.0
 11
114.2663809999999955
 21
-59.6407249999999962
 31
0.0
  0
LINE
  5
293
100
AcDbEntity
  8
trace_out
 62
256
370
-1
 48
1.0
  6
CONTINUOUS
100
AcDbLine
 10
114.2663809999999955
 20
-59.6407249999999962
 30
0.0
 11
114.1514239999999916
 21
-59.6902479999999969
 31
0.0
  0
LINE
  5
294
100
AcDbEntity
  8
trace_out
 62
256
370
-1
 48
1.0
  6
CONTINUOUS
100
AcDbLine
 10
114.1514239999999916
 20
-59.6902479999999969
 30
0.0
 11
114.0397899999999964
 21
-59.7468629999999976
 31
0.0
  0
LINE
  5
295
100
AcDbEntity
  8
trace_out
 62
256
370
-1
 48
1.0
  6
CONTINUOUS
100
AcDbLine
 10
114.0397899999999964
 20
-59.7468629999999976
 30
0.0
 11
113.9319139999999919
 21
-59.8103499999999997
 31
0.0
  0
LINE
  5
296
100
AcDbEntity
  8
trace_out
 62
256
370
-1
 48
1.0
  6
CONTINUOUS
100
AcDbLine
 10
113.9319139999999919
 20
-59.8103499999999997
 30
0.0
 11
113.8282200000000017
 21
-59.8804579999999973
 31
0.0
  0
LINE
  5
297
100
AcDbEntity
  8
trace_out
 62
256
370
-1
 48
1.0
  6
CONTINUOUS
100
AcDbLine
 10
113.8282200000000017
 20
-59.8804579999999973
 30
0.0
 11
113.7291129999999981
 21
-59.9569139999999976
 31
0.0
  0
LINE
  5
298
100
AcDbEntity
  8
trace_out
 62
256
370
-1
 48
1.0
  6
CONTINUOUS
100
AcDbLine
 10
113.7291129999999981
 20
-59.9569139999999976
 30
0.0
 11
113.6349819999999937
 21
-60.0394179999999977
 31
0.0
  0
LINE
  5
299
100
AcDbEntity
  8
trace_out
 62
256
370
-1
 48
1.0
  6
CONTINUOUS
100
AcDbLine
 10
113.6349819999999937
 20
-60.0394179999999977
 30
0.0
 11
113.5461949999999973
 21
-60.1276480000000006
 31
0.0
  0
LINE
  5
29A
100
AcDbEntity
  8
trace_out
 62
256
370
-1
 48
1.0
  6
CONTINUOUS
100
AcDbLine
 10
113.5461949999999973
 20
-60.1276480000000006
 30
0.0
 11
113.4630999999999972
 21
-60.2212569999999943
 31
0.0
  0
LINE
  5
29B
100
AcDbEntity
  8
trace_out
 62
256
370
-1
 48
1.0
  6
CONTINUOUS
100
AcDbLine
 10
113.4630999999999972
 20
-60.2212569999999943
 30
0.0
 11
113.3860209999999995
 21
-60.3198809999999952
 31
0.0
  0
LINE
  5
29C
100
AcDbEntity
  8
trace_out
 62
256
370
-1
 48
1.0
  6
CONTINUOUS
100
AcDbLine
 10
113.3860209999999995
 20
-60.3198809999999952
 30
0.0
 11
113.3152609999999925
 21
-60.4231309999999979
 31
0.0
  0
LINE
  5
29D
100
AcDbEntity
  8
trace_out
 62
256
370
-1
 48
1.0
  6
CONTINUOUS
100
AcDbLine
 10
113.3152609999999925
 20
-60.4231309999999979
 30
0.0
 11
113.2510970000000015
 21
-60.5306049999999942
 31
0.0
  0
LINE
  5
29E
100
AcDbEntity
  8
trace_out
 62
256
370
-1
 48
1.0
  6
CONTINUOUS
100
AcDbLine
 10
113.2510970000000015
 20
-60.5306049999999942
 30
0.0
 11
113.1937799999999896
 21
-60.6418809999999979
 31
0.0
  0
LINE
  5
29F
100
AcDbEntity
  8
trace_out
 62
256
370
-1
 48
1.0
  6
CONTINUOUS
100
AcDbLine
 10
113.1937799999999896
 20
-60.6418809999999979
 30
0.0
 11
113.1435339999999883
 21
-60.7565229999999943
 31
0.0
  0
LINE
  5
2A0
100
AcDbEntity
  8
trace_out
 62
256
370
-1
 48
1.0
  6
CONTINUOUS
100
AcDbLine
 10
113.1435339999999883
 20
-60.7565229999999943
 30
0.0
 11
113.1005559999999974
 21
-60.8740839999999963
 31
0.0
  0
LINE
  5
2A1
100
AcDbEntity
  8
trace_out
 62
256
370
-1
 48
1.0
  6
CONTINUOUS
100
AcDbLine
 10
113.1005559999999974
 20
-60.8740839999999963
 30
0.0
 11
113.0650139999999908
 21
-60.9941029999999955
 31
0.0
  0
LINE
  5
2A2
100
AcDbEntity
  8
trace_out
 62
256
370
-1
 48
1.0
  6
CONTINUOUS
100
AcDbLine
 10
113.0650139999999908
 20
-60.9941029999999955
 30
0.0
 11
113.0370479999999986
 21
-61.1161089999999945
 31
0.0
  0
LINE
  5
2A3
100
AcDbEntity
  8
trace_out
 62
256
370
-1
 48
1.0
  6
CONTINUOUS
100
AcDbLine
 10
113.0370479999999986
 20
-61.1161089999999945
 30
0.0
 11
113.0167670000000015
 21
-61.2396249999999966
 31
0.0
  0
LINE
  5
2A4
100
AcDbEntity
  8
trace_out
 62
256
370
-1
 48
1.0
  6
CONTINUOUS
100
AcDbLine
 10
113.0167670000000015
 20
-61.2396249999999966
 30
0.0
 11
113.0100249999999988
 21
-61.3018479999999997
 31
0.0
  0
LINE
  5
2A5
100
AcDbEntity
  8
trace_out
 62
256
370
-1
 48
1.0
  6
CONTINUOUS
100
AcDbLine
 10
113.0100249999999988
 20
-61.3018479999999997
 30
0.0
 11
110.2041679999999957
 21
-61.3018479999999997
 31
0.0
  0
LINE
  5
2A6
100
AcDbEntity
  8
trace_out
 62
256
370
-1
 48
1.0
  6
CONTINUOUS
100
AcDbLine
 10
110.2041679999999957
 20
-61.3018479999999997
 30
0.0
 11
110.2087439999999958
 21
-61.2040869999999941
 31
0.0
  0
LINE
  5
2A7
100
AcDbEntity
  8
trace_out
 62
256
370
-1
 48
1.0
  6
CONTINUOUS
100
AcDbLine
 10
110.2087439999999958
 20
-61.2040869999999941
 30
0.0
 11
110.2248649999999941
 21
-61.0090179999999975
 31
0.0
  0
LINE
  5
2A8
100
AcDbEntity
  8
trace_out
 62
256
370
-1
 48
1.0
  6
CONTINUOUS
100
AcDbLine
 10
110.2248649999999941
 20
-61.0090179999999975
 30
0.0
 11
110.2489239999999882
 21
-60.8147679999999937
 31
0.0
  0
LINE
  5
2A9
100
AcDbEntity
  8
trace_out
 62
256
370
-1
 48
1.0
  6
CONTINUOUS
100
AcDbLine
 10
110.2489239999999882
 20
-60.8147679999999937
 30
0.0
 11
110.2808819999999912
 21
-60.621660999999996
 31
0.0
  0
LINE
  5
2AA
100
AcDbEntity
  8
trace_out
 62
256
370
-1
 48
1.0
  6
CONTINUOUS
100
AcDbLine
 10
110.2808819999999912
 20
-60.621660999999996
 30
0.0
 11
110.3206859999999949
 21
-60.4300169999999994
 31
0.0
  0
LINE
  5
2AB
100
AcDbEntity
  8
trace_out
 62
256
370
-1
 48
1.0
  6
CONTINUOUS
100
AcDbLine
 10
110.3206859999999949
 20
-60.4300169999999994
 30
0.0
 11
110.368268999999998
 21
-60.2401549999999943
 31
0.0
  0
LINE
  5
2AC
100
AcDbEntity
  8
trace_out
 62
256
370
-1
 48
1.0
  6
CONTINUOUS
100
AcDbLine
 10
110.368268999999998
 20
-60.2401549999999943
 30
0.0
 11
110.4235520000000008
 21
-60.0523910000000001
 31
0.0
  0
LINE
  5
2AD
100
AcDbEntity
  8
trace_out
 62
256
370
-1
 48
1.0
  6
CONTINUOUS
100
AcDbLine
 10
110.4235520000000008
 20
-60.0523910000000001
 30
0.0
 11
110.4864439999999917
 21
-59.8670359999999988
 31
0.0
  0
LINE
  5
2AE
100
AcDbEntity
  8
trace_out
 62
256
370
-1
 48
1.0
  6
CONTINUOUS
100
AcDbLine
 10
110.4864439999999917
 20
-59.8670359999999988
 30
0.0
 11
110.5568389999999965
 21
-59.6843989999999991
 31
0.0
  0
LINE
  5
2AF
100
AcDbEntity
  8
trace_out
 62
256
370
-1
 48
1.0
  6
CONTINUOUS
100
AcDbLine
 10
110.5568389999999965
 20
-59.6843989999999991
 30
0.0
 11
110.6346209999999957
 21
-59.5047829999999962
 31
0.0
  0
LINE
  5
2B0
100
AcDbEntity
  8
trace_out
 62
256
370
-1
 48
1.0
  6
CONTINUOUS
100
AcDbLine
 10
110.6346209999999957
 20
-59.5047829999999962
 30
0.0
 11
110.7196609999999879
 21
-59.3284880000000001
 31
0.0
  0
LINE
  5
2B1
100
AcDbEntity
  8
trace_out
 62
256
370
-1
 48
1.0
  6
CONTINUOUS
100
AcDbLine
 10
110.7196609999999879
 20
-59.3284880000000001
 30
0.0
 11
110.8118159999999932
 21
-59.1558059999999983
 31
0.0
  0
LINE
  5
2B2
100
AcDbEntity
  8
trace_out
 62
256
370
-1
 48
1.0
  6
CONTINUOUS
100
AcDbLine
 10
110.8118159999999932
 20
-59.1558059999999983
 30
0.0
 11
110.9109339999999975
 21
-58.9870239999999981
 31
0.0
  0
LINE
  5
2B3
100
AcDbEntity
  8
trace_out
 62
256
370
-1
 48
1.0
  6
CONTINUOUS
100
AcDbLine
 10
110.9109339999999975
 20
-58.9870239999999981
 30
0.0
 11
111.0168499999999909
 21
-58.8224230000000006
 31
0.0
  0
LINE
  5
2B4
100
AcDbEntity
  8
trace_out
 62
256
370
-1
 48
1.0
  6
CONTINUOUS
100
AcDbLine
 10
111.0168499999999909
 20
-58.8224230000000006
 30
0.0
 11
111.1293889999999891
 21
-58.6622759999999985
 31
0.0
  0
LINE
  5
2B5
100
AcDbEntity
  8
trace_out
 62
256
370
-1
 48
1.0
  6
CONTINUOUS
100
AcDbLine
 10
111.1293889999999891
 20
-58.6622759999999985
 30
0.0
 11
111.2483620000000002
 21
-58.5068509999999975
 31
0.0
  0
LINE
  5
2B6
100
AcDbEntity
  8
trace_out
 62
256
370
-1
 48
1.0
  6
CONTINUOUS
100
AcDbLine
 10
111.2483620000000002
 20
-58.5068509999999975
 30
0.0
 11
111.3735719999999958
 21
-58.3564039999999977
 31
0.0
  0
LINE
  5
2B7
100
AcDbEntity
  8
trace_out
 62
256
370
-1
 48
1.0
  6
CONTINUOUS
100
AcDbLine
 10
111.3735719999999958
 20
-58.3564039999999977
 30
0.0
 11
111.5048109999999895
 21
-58.2111869999999954
 31
0.0
  0
LINE
  5
2B8
100
AcDbEntity
  8
trace_out
 62
256
370
-1
 48
1.0
  6
CONTINUOUS
100
AcDbLine
 10
111.5048109999999895
 20
-58.2111869999999954
 30
0.0
 11
111.6418599999999941
 21
-58.0714399999999955
 31
0.0
  0
LINE
  5
2B9
100
AcDbEntity
  8
trace_out
 62
256
370
-1
 48
1.0
  6
CONTINUOUS
100
AcDbLine
 10
111.6418599999999941
 20
-58.0714399999999955
 30
0.0
 11
111.7391590000000008
 21
-57.9799999999999969
 31
0.0
  0
LINE
  5
2BA
100
AcDbEntity
  8
trace_out
 62
256
370
-1
 48
1.0
  6
CONTINUOUS
100
AcDbLine
 10
111.7391590000000008
 20
-57.9799999999999969
 30
0.0
 11
108.1749999999999972
 21
-57.9799999999999969
 31
0.0
  0
LINE
  5
2BB
100
AcDbEntity
  8
trace_out
 62
256
370
-1
 48
1.0
  6
CONTINUOUS
100
AcDbLine
 10
108.1749999999999972
 20
-57.9799999999999969
 30
0.0
 11
108.1749999999999972
 21
-58.4919999999999973
 31
0.0
  0
LINE
  5
2BC
100
AcDbEntity
  8
trace_out
 62
256
370
-1
 48
1.0
  6
CONTINUOUS
100
AcDbLine
 10
108.1749999999999972
 20
-58.4919999999999973
 30
0.0
 11
101.8249999999999886
 21
-58.4919999999999973
 31
0.0
  0
LINE
  5
2BD
100
AcDbEntity
  8
trace_out
 62
256
370
-1
 48
1.0
  6
CONTINUOUS
100
AcDbLine
 10
101.8249999999999886
 20
-58.4919999999999973
 30
0.0
 11
101.8249999999999886
 21
-56.9679999999999964
 31
0.0
  0
LINE
  5
2BE
100
AcDbEntity
  8
trace_out
 62
256
370
-1
 48
1.0
  6
CONTINUOUS
100
AcDbLine
 10
101.8249999999999886
 20
-56.9679999999999964
 30
0.0
 11
108.1749999999999972
 21
-56.9679999999999964
 31
0.0
  0
LINE
  5
2BF
100
AcDbEntity
  8
trace_out
 62
256
370
-1
 48
1.0
  6
CONTINUOUS
100
AcDbLine
 10
108.1749999999999972
 20
-56.9679999999999964
 30
0.0
 11
108.1749999999999972
 21
-57.4799999999999969
 31
0.0
  0
LINE
  5
2C0
100
AcDbEntity
  8
trace_out
 62
256
370
-1
 48
1.0
  6
CONTINUOUS
100
AcDbLine
 10
108.1749999999999972
 20
-57.4799999999999969
 30
0.0
 11
112.3800009999999929
 21
-57.4799999999999969
 31
0.0
  0
LINE
  5
2C1
100
AcDbEntity
  8
trace_out
 62
256
370
-1
 48
1.0
  6
CONTINUOUS
100
AcDbLine
 10
112.3800009999999929
 20
-57.4799999999999969
 30
0.0
 11
112.4059789999999879
 21
-57.4625589999999988
 31
0.0
  0
LINE
  5
2C2
100
AcDbEntity
  8
trace_out
 62
256
370
-1
 48
1.0
  6
CONTINUOUS
100
AcDbLine
 10
112.4059789999999879
 20
-57.4625589999999988
 30
0.0
 11
112.5727969999999942
 21
-57.360170999999994
 31
0.0
  0
LINE
  5
2C3
100
AcDbEntity
  8
trace_out
 62
256
370
-1
 48
1.0
  6
CONTINUOUS
100
AcDbLine
 10
112.5727969999999942
 20
-57.360170999999994
 30
0.0
 11
112.7436509999999998
 21
-57.2646680000000003
 31
0.0
  0
LINE
  5
2C4
100
AcDbEntity
  8
trace_out
 62
256
370
-1
 48
1.0
  6
CONTINUOUS
100
AcDbLine
 10
112.7436509999999998
 20
-57.2646680000000003
 30
0.0
 11
112.9182559999999995
 21
-57.1762099999999975
 31
0.0
  0
LINE
  5
2C5
100
AcDbEntity
  8
trace_out
 62
256
370
-1
 48
1.0
  6
CONTINUOUS
100
AcDbLine
 10
112.9182559999999995
 20
-57.1762099999999975
 30
0.0
 11
113.0963220000000007
 21
-57.0949430000000007
 31
0.0
  0
LINE
  5
2C6
100
AcDbEntity
  8
trace_out
 62
256
370
-1
 48
1.0
  6
CONTINUOUS
100
AcDbLine
 10
113.0963220000000007
 20
-57.0949430000000007
 30
0.0
 11
113.2775529999999975
 21
-57.0210030000000003
 31
0.0
  0
LINE
  5
2C7
100
AcDbEntity
  8
trace_out
 62
256
370
-1
 48
1.0
  6
CONTINUOUS
100
AcDbLine
 10
113.2775529999999975
 20
-57.0210030000000003
 30
0.0
 11
113.4616469999999993
 21
-56.9545109999999966
 31
0.0
  0
LINE
  5
2C8
100
AcDbEntity
  8
trace_out
 62
256
370
-1
 48
1.0
  6
CONTINUOUS
100
AcDbLine
 10
113.4616469999999993
 20
-56.9545109999999966
 30
0.0
 11
113.6482979999999969
 21
-56.8955799999999954
 31
0.0
  0
LINE
  5
2C9
100
AcDbEntity
  8
trace_out
 62
256
370
-1
 48
1.0
  6
CONTINUOUS
100
AcDbLine
 10
113.6482979999999969
 20
-56.8955799999999954
 30
0.0
 11
113.8371969999999891
 21
-56.8443070000000006
 31
0.0
  0
LINE
  5
2CA
100
AcDbEntity
  8
trace_out
 62
256
370
-1
 48
1.0
  6
CONTINUOUS
100
AcDbLine
 10
113.8371969999999891
 20
-56.8443070000000006
 30
0.0
 11
114.0280289999999894
 21
-56.8007769999999965
 31
0.0
  0
LINE
  5
2CB
100
AcDbEntity
  8
trace_out
 62
256
370
-1
 48
1.0
  6
CONTINUOUS
100
AcDbLine
 10
114.0280289999999894
 20
-56.8007769999999965
 30
0.0
 11
114.2204769999999883
 21
-56.7650620000000004
 31
0.0
  0
LINE
  5
2CC
100
AcDbEntity
  8
trace_out
 62
256
370
-1
 48
1.0
  6
CONTINUOUS
100
AcDbLine
 10
114.2204769999999883
 20
-56.7650620000000004
 30
0.0
 11
114.4142209999999977
 21
-56.7372219999999956
 31
0.0
  0
LINE
  5
2CD
100
AcDbEntity
  8
trace_out
 62
256
370
-1
 48
1.0
  6
CONTINUOUS
100
AcDbLine
 10
114.4142209999999977
 20
-56.7372219999999956
 30
0.0
 11
114.6089389999999923
 21
-56.717302999999994
 31
0.0
  0
LINE
  5
2CE
100
AcDbEntity
  8
trace_out
 62
256
370
-1
 48
1.0
  6
CONTINUOUS
100
AcDbLine
 10
114.6089389999999923
 20
-56.717302999999994
 30
0.0
 11
114.8043069999999943
 21
-56.7053379999999976
 31
0.0
  0
LINE
  5
2CF
100
AcDbEntity
  8
trace_out
 62
256
370
-1
 48
1.0
  6
CONTINUOUS
100
AcDbLine
 10
114.8043069999999943
 20
-56.7053379999999976
 30
0.0
 11
115.0
 21
-56.7013479999999959
 31
0.0
  0
LINE
  5
2D0
100
AcDbEntity
  8
trace_out
 62
256
370
-1
 48
1.0
  6
CONTINUOUS
100
AcDbLine
 10
115.0
 20
-56.7013479999999959
 30
0.0
 11
115.1956929999999915
 21
-56.7053379999999976
 31
0.0
  0
LINE
  5
2D1
100
AcDbEntity
  8
cut_out
 62
256
370
-1
 48
1.0
  6
CONTINUOUS
100
AcDbLine
 10
101.5
 20
-57.9046299999999974
 30
0.0
 11
101.5
 21
-57.904599999999995
 31
0.0
  0
LINE
  5
2D2
100
AcDbEntity
  8
cut_out
 62
256
370
-1
 48
1.0
  6
CONTINUOUS
100
AcDbLine
 10
101.5
 20
-57.904599999999995
 30
0.0
 11
101.5076109999999971
 21
-57.7302889999999991
 31
0.0
  0
LINE
  5
2D3
100
AcDbEntity
  8
cut_out
 62
256
370
-1
 48
1.0
  6
CONTINUOUS
100
AcDbLine
 10
101.5076109999999971
 20
-57.7302889999999991
 30
0.0
 11
101.530383999999998
 21
-57.5573039999999949
 31
0.0
  0
LINE
  5
2D4
100
AcDbEntity
  8
cut_out
 62
256
370
-1
 48
1.0
  6
CONTINUOUS
100
AcDbLine
 10
101.530383999999998
 20
-57.5573039999999949
 30
0.0
 11
101.5681479999999937
 21
-57.3869619999999969
 31
0.0
  0
LINE
  5
2D5
100
AcDbEntity
  8
cut_out
 62
256
370
-1
 48
1.0
  6
CONTINUOUS
100
AcDbLine
 10
101.5681479999999937
 20
-57.3869619999999969
 30
0.0
 11
101.6206150000000008
 21
-57.220559999999999
 31
0.0
  0
LINE
  5
2D6
100
AcDbEntity
  8
cut_out
 62
256
370
-1
 48
1.0
  6
CONTINUOUS
100
AcDbLine
 10
101.6206150000000008
 20
-57.220559999999999
 30
0.0
 11
101.6873839999999944
 21
-57.0593629999999976
 31
0.0
  0
LINE
  5
2D7
100
AcDbEntity
  8
cut_out
 62
256
370
-1
 48
1.0
  6
CONTINUOUS
100
AcDbLine
 10
101.6873839999999944
 20
-57.0593629999999976
 30
0.0
 11
101.7679490000000015
 21
-56.904599999999995
 31
0.0
  0
LINE
  5
2D8
100
AcDbEntity
  8
cut_out
 62
256
370
-1
 48
1.0
  6
CONTINUOUS
100
AcDbLine
 10
101.7679490000000015
 20
-56.904599999999995
 30
0.0
 11
101.8616959999999949
 21
-56.7574469999999991
 31
0.0
  0
LINE
  5
2D9
100
AcDbEntity
  8
cut_out
 62
256
370
-1
 48
1.0
  6
CONTINUOUS
100
AcDbLine
 10
101.8616959999999949
 20
-56.7574469999999991
 30
0.0
 11
101.9679110000000009
 21
-56.6190250000000006
 31
0.0
  0
LINE
  5
2DA
100
AcDbEntity
  8
cut_out
 62
256
370
-1
 48
1.0
  6
CONTINUOUS
100
AcDbLine
 10
101.9679110000000009
 20
-56.6190250000000006
 30
0.0
 11
102.0857859999999988
 21
-56.4903860000000009
 31
0.0
  0
LINE
  5
2DB
100
AcDbEntity
  8
cut_out
 62
256
370
-1
 48
1.0
  6
CONTINUOUS
100
AcDbLine
 10
102.0857859999999988
 20
-56.4903860000000009
 30
0.0
 11
102.2144249999999914
 21
-56.3725109999999958
 31
0.0
  0
LINE
  5
2DC
100
AcDbEntity
  8
cut_out
 62
256
370
-1
 48
1.0
  6
CONTINUOUS
100
AcDbLine
 10
102.2144249999999914
 20
-56.3725109999999958
 30
0.0
 11
102.352846999999997
 21
-56.266295999999997
 31
0.0
  0
LINE
  5
2DD
100
AcDbEntity
  8
cut_out
 62
256
370
-1
 48
1.0
  6
CONTINUOUS
100
AcDbLine
 10
102.352846999999997
 20
-56.266295999999997
 30
0.0
 11
102.5
 21
-56.1725489999999965
 31
0.0
  0
LINE
  5
2DE
100
AcDbEntity
  8
cut_out
 62
256
370
-1
 48
1.0
  6
CONTINUOUS
100
AcDbLine
 10
102.5
 20
-56.1725489999999965
 30
0.0
 11
102.6547629999999884
 21
-56.0919839999999965
 31
0.0
  0
LINE
  5
2DF
100
AcDbEntity
  8
cut_out
 62
256
370
-1
 48
1.0
  6
CONTINUOUS
100
AcDbLine
 10
102.6547629999999884
 20
-56.0919839999999965
 30
0.0
 11
102.8159599999999898
 21
-56.0252149999999958
 31
0.0
  0
LINE
  5
2E0
100
AcDbEntity
  8
cut_out
 62
256
370
-1
 48
1.0
  6
CONTINUOUS
100
AcDbLine
 10
102.8159599999999898
 20
-56.0252149999999958
 30
0.0
 11
102.9823619999999949
 21
-55.9727479999999957
 31
0.0
  0
LINE
  5
2E1
100
AcDbEntity
  8
cut_out
 62
256
370
-1
 48
1.0
  6
CONTINUOUS
100
AcDbLine
 10
102.9823619999999949
 20
-55.9727479999999957
 30
0.0
 11
103.152704
 21
-55.934984
 31
0.0
  0
LINE
  5
2E2
100
AcDbEntity
  8
cut_out
 62
256
370
-1
 48
1.0
  6
CONTINUOUS
100
AcDbLine
 10
103.152704
 20
-55.934984
 30
0.0
 11
103.325688999999997
 21
-55.9122109999999992
 31
0.0
  0
LINE
  5
2E3
100
AcDbEntity
  8
cut_out
 62
256
370
-1
 48
1.0
  6
CONTINUOUS
100
AcDbLine
 10
103.325688999999997
 20
-55.9122109999999992
 30
0.0
 11
103.5
 21
-55.904599999999995
 31
0.0
  0
LINE
  5
2E4
100
AcDbEntity
  8
cut_out
 62
256
370
-1
 48
1.0
  6
CONTINUOUS
100
AcDbLine
 10
103.5
 20
-55.904599999999995
 30
0.0
 11
103.5
 21
-55.9046299999999974
 31
0.0
  0
LINE
  5
2E5
100
AcDbEntity
  8
cut_out
 62
256
370
-1
 48
1.0
  6
CONTINUOUS
100
AcDbLine
 10
103.5
 20
-55.9046299999999974
 30
0.0
 11
127.9124459999999885
 21
-55.9046299999999974
 31
0.0
  0
LINE
  5
2E6
100
AcDbEntity
  8
cut_out
 62
256
370
-1
 48
1.0
  6
CONTINUOUS
100
AcDbLine
 10
127.9124459999999885
 20
-55.9046299999999974
 30
0.0
 11
128.0867389999999943
 21
-55.9122429999999966
 31
0.0
  0
LINE
  5
2E7
100
AcDbEntity
  8
cut_out
 62
256
370
-1
 48
1.0
  6
CONTINUOUS
100
AcDbLine
 10
128.0867389999999943
 20
-55.9122429999999966
 30
0.0
 11
128.2597209999999848
 21
-55.9350189999999969
 31
0.0
  0
LINE
  5
2E8
100
AcDbEntity
  8
cut_out
 62
256
370
-1
 48
1.0
  6
CONTINUOUS
100
AcDbLine
 10
128.2597209999999848
 20
-55.9350189999999969
 30
0.0
 11
128.430059
 21
-55.9727849999999947
 31
0.0
  0
LINE
  5
2E9
100
AcDbEntity
  8
cut_out
 62
256
370
-1
 48
1.0
  6
CONTINUOUS
100
AcDbLine
 10
128.430059
 20
-55.9727849999999947
 30
0.0
 11
128.5964579999999842
 21
-56.0252529999999993
 31
0.0
  0
LINE
  5
2EA
100
AcDbEntity
  8
cut_out
 62
256
370
-1
 48
1.0
  6
CONTINUOUS
100
AcDbLine
 10
128.5964579999999842
 20
-56.0252529999999993
 30
0.0
 11
128.7576509999999814
 21
-56.092023999999995
 31
0.0
  0
LINE
  5
2EB
100
AcDbEntity
  8
cut_out
 62
256
370
-1
 48
1.0
  6
CONTINUOUS
100
AcDbLine
 10
128.7576509999999814
 20
-56.092023999999995
 30
0.0
 11
128.9124109999999916
 21
-56.1725899999999996
 31
0.0
  0
LINE
  5
2EC
100
AcDbEntity
  8
cut_out
 62
256
370
-1
 48
1.0
  6
CONTINUOUS
100
AcDbLine
 10
128.9124109999999916
 20
-56.1725899999999996
 30
0.0
 11
129.0595600000000047
 21
-56.2663379999999975
 31
0.0
  0
LINE
  5
2ED
100
AcDbEntity
  8
cut_out
 62
256
370
-1
 48
1.0
  6
CONTINUOUS
100
AcDbLine
 10
129.0595600000000047
 20
-56.2663379999999975
 30
0.0
 11
129.1979790000000037
 21
-56.3725529999999964
 31
0.0
  0
LINE
  5
2EE
100
AcDbEntity
  8
cut_out
 62
256
370
-1
 48
1.0
  6
CONTINUOUS
100
AcDbLine
 10
129.1979790000000037
 20
-56.3725529999999964
 30
0.0
 11
129.3266140000000064
 21
-56.4904289999999989
 31
0.0
  0
LINE
  5
2EF
100
AcDbEntity
  8
cut_out
 62
256
370
-1
 48
1.0
  6
CONTINUOUS
100
AcDbLine
 10
129.3266140000000064
 20
-56.4904289999999989
 30
0.0
 11
129.444484999999986
 21
-56.619066999999994
 31
0.0
  0
LINE
  5
2F0
100
AcDbEntity
  8
cut_out
 62
256
370
-1
 48
1.0
  6
CONTINUOUS
100
AcDbLine
 10
129.444484999999986
 20
-56.619066999999994
 30
0.0
 11
129.5506969999999853
 21
-56.7574889999999996
 31
0.0
  0
LINE
  5
2F1
100
AcDbEntity
  8
cut_out
 62
256
370
-1
 48
1.0
  6
CONTINUOUS
100
AcDbLine
 10
129.5506969999999853
 20
-56.7574889999999996
 30
0.0
 11
129.644440000000003
 21
-56.904640999999998
 31
0.0
  0
LINE
  5
2F2
100
AcDbEntity
  8
cut_out
 62
256
370
-1
 48
1.0
  6
CONTINUOUS
100
AcDbLine
 10
129.644440000000003
 20
-56.904640999999998
 30
0.0
 11
129.7250009999999918
 21
-57.0594029999999961
 31
0.0
  0
LINE
  5
2F3
100
AcDbEntity
  8
cut_out
 62
256
370
-1
 48
1.0
  6
CONTINUOUS
100
AcDbLine
 10
129.7250009999999918
 20
-57.0594029999999961
 30
0.0
 11
129.791766999999993
 21
-57.2205979999999954
 31
0.0
  0
LINE
  5
2F4
100
AcDbEntity
  8
cut_out
 62
256
370
-1
 48
1.0
  6
CONTINUOUS
100
AcDbLine
 10
129.791766999999993
 20
-57.2205979999999954
 30
0.0
 11
129.8442299999999818
 21
-57.3869989999999959
 31
0.0
  0
LINE
  5
2F5
100
AcDbEntity
  8
cut_out
 62
256
370
-1
 48
1.0
  6
CONTINUOUS
100
AcDbLine
 10
129.8442299999999818
 20
-57.3869989999999959
 30
0.0
 11
129.8819909999999993
 21
-57.5573379999999943
 31
0.0
  0
LINE
  5
2F6
100
AcDbEntity
  8
cut_out
 62
256
370
-1
 48
1.0
  6
CONTINUOUS
100
AcDbLine
 10
129.8819909999999993
 20
-57.5573379999999943
 30
0.0
 11
129.9047620000000052
 21
-57.7303209999999964
 31
0.0
  0
LINE
  5
2F7
100
AcDbEntity
  8
cut_out
 62
256
370
-1
 48
1.0
  6
CONTINUOUS
100
AcDbLine
 10
129.9047620000000052
 20
-57.7303209999999964
 30
0.0
 11
129.9123699999999815
 21
-57.9046299999999974
 31
0.0
  0
LINE
  5
2F8
100
AcDbEntity
  8
cut_out
 62
256
370
-1
 48
1.0
  6
CONTINUOUS
100
AcDbLine
 10
129.9123699999999815
 20
-57.9046299999999974
 30
0.0
 11
129.9124459999999885
 21
-57.9046299999999974
 31
0.0
  0
LINE
  5
2F9
100
AcDbEntity
  8
cut_out
 62
256
370
-1
 48
1.0
  6
CONTINUOUS
100
AcDbLine
 10
129.9124459999999885
 20
-57.9046299999999974
 30
0.0
 11
129.9124459999999885
 21
-69.0
 31
0.0
  0
LINE
  5
2FA
100
AcDbEntity
  8
cut_out
 62
256
370
-1
 48
1.0
  6
CONTINUOUS
100
AcDbLine
 10
129.9124459999999885
 20
-69.0
 30
0.0
 11
129.9048389999999813
 21
-69.1742699999999928
 31
0.0
  0
LINE
  5
2FB
100
AcDbEntity
  8
cut_out
 62
256
370
-1
 48
1.0
  6
CONTINUOUS
100
AcDbLine
 10
129.9048389999999813
 20
-69.1742699999999928
 30
0.0
 11
129.8820690000000013
 21
-69.347258999999994
 31
0.0
  0
LINE
  5
2FC
100
AcDbEntity
  8
cut_out
 62
256
370
-1
 48
1.0
  6
CONTINUOUS
100
AcDbLine
 10
129.8820690000000013
 20
-69.347258999999994
 30
0.0
 11
129.8443079999999838
 21
-69.5176060000000007
 31
0.0
  0
LINE
  5
2FD
100
AcDbEntity
  8
cut_out
 62
256
370
-1
 48
1.0
  6
CONTINUOUS
100
AcDbLine
 10
129.8443079999999838
 20
-69.5176060000000007
 30
0.0
 11
129.7918439999999975
 21
-69.6840129999999931
 31
0.0
  0
LINE
  5
2FE
100
AcDbEntity
  8
cut_out
 62
256
370
-1
 48
1.0
  6
CONTINUOUS
100
AcDbLine
 10
129.7918439999999975
 20
-69.6840129999999931
 30
0.0
 11
129.7250769999999989
 21
-69.8452139999999986
 31
0.0
  0
LINE
  5
2FF
100
AcDbEntity
  8
cut_out
 62
256
370
-1
 48
1.0
  6
CONTINUOUS
100
AcDbLine
 10
129.7250769999999989
 20
-69.8452139999999986
 30
0.0
 11
129.6445139999999867
 21
-69.9999830000000003
 31
0.0
  0
LINE
  5
300
100
AcDbEntity
  8
cut_out
 62
256
370
-1
 48
1.0
  6
CONTINUOUS
100
AcDbLine
 10
129.6445139999999867
 20
-69.9999830000000003
 30
0.0
 11
129.550768000000005
 21
-70.1471420000000023
 31
0.0
  0
LINE
  5
301
100
AcDbEntity
  8
cut_out
 62
256
370
-1
 48
1.0
  6
CONTINUOUS
100
AcDbLine
 10
129.550768000000005
 20
-70.1471420000000023
 30
0.0
 11
129.4445539999999824
 21
-70.2855699999999928
 31
0.0
  0
LINE
  5
302
100
AcDbEntity
  8
cut_out
 62
256
370
-1
 48
1.0
  6
CONTINUOUS
100
AcDbLine
 10
129.4445539999999824
 20
-70.2855699999999928
 30
0.0
 11
129.3266789999999844
 21
-70.4142140000000012
 31
0.0
  0
LINE
  5
303
100
AcDbEntity
  8
cut_out
 62
256
370
-1
 48
1.0
  6
CONTINUOUS
100
AcDbLine
 10
129.3266789999999844
 20
-70.4142140000000012
 30
0.0
 11
129.1980399999999918
 21
-70.5320949999999982
 31
0.0
  0
LINE
  5
304
100
AcDbEntity
  8
cut_out
 62
256
370
-1
 48
1.0
  6
CONTINUOUS
100
AcDbLine
 10
129.1980399999999918
 20
-70.5320949999999982
 30
0.0
 11
129.0596170000000029
 21
-70.6383149999999915
 31
0.0
  0
LINE
  5
305
100
AcDbEntity
  8
cut_out
 62
256
370
-1
 48
1.0
  6
CONTINUOUS
100
AcDbLine
 10
129.0596170000000029
 20
-70.6383149999999915
 30
0.0
 11
128.9124630000000025
 21
-70.7320679999999982
 31
0.0
  0
LINE
  5
306
100
AcDbEntity
  8
cut_out
 62
256
370
-1
 48
1.0
  6
CONTINUOUS
100
AcDbLine
 10
128.9124630000000025
 20
-70.7320679999999982
 30
0.0
 11
128.7576980000000049
 21
-70.8126379999999926
 31
0.0
  0
LINE
  5
307
100
AcDbEntity
  8
cut_out
 62
256
370
-1
 48
1.0
  6
CONTINUOUS
100
AcDbLine
 10
128.7576980000000049
 20
-70.8126379999999926
 30
0.0
 11
128.5964989999999943
 21
-70.8794129999999996
 31
0.0
  0
LINE
  5
308
100
AcDbEntity
  8
cut_out
 62
256
370
-1
 48
1.0
  6
CONTINUOUS
100
AcDbLine
 10
128.5964989999999943
 20
-70.8794129999999996
 30
0.0
 11
128.4300939999999969
 21
-70.9318839999999966
 31
0.0
  0
LINE
  5
309
100
AcDbEntity
  8
cut_out
 62
256
370
-1
 48
1.0
  6
CONTINUOUS
100
AcDbLine
 10
128.4300939999999969
 20
-70.9318839999999966
 30
0.0
 11
128.2597499999999968
 21
-70.9696529999999939
 31
0.0
  0
LINE
  5
30A
100
AcDbEntity
  8
cut_out
 62
256
370
-1
 48
1.0
  6
CONTINUOUS
100
AcDbLine
 10
128.2597499999999968
 20
-70.9696529999999939
 30
0.0
 11
128.0867609999999956
 21
-70.9924309999999963
 31
0.0
  0
LINE
  5
30B
100
AcDbEntity
  8
cut_out
 62
256
370
-1
 48
1.0
  6
CONTINUOUS
100
AcDbLine
 10
128.0867609999999956
 20
-70.9924309999999963
 30
0.0
 11
127.9124459999999885
 21
-71.0000459999999975
 31
0.0
  0
LINE
  5
30C
100
AcDbEntity
  8
cut_out
 62
256
370
-1
 48
1.0
  6
CONTINUOUS
100
AcDbLine
 10
127.9124459999999885
 20
-71.0000459999999975
 30
0.0
 11
127.9124459999999885
 21
-71.0
 31
0.0
  0
LINE
  5
30D
100
AcDbEntity
  8
cut_out
 62
256
370
-1
 48
1.0
  6
CONTINUOUS
100
AcDbLine
 10
127.9124459999999885
 20
-71.0
 30
0.0
 11
103.5
 21
-71.0
 31
0.0
  0
LINE
  5
30E
100
AcDbEntity
  8
cut_out
 62
256
370
-1
 48
1.0
  6
CONTINUOUS
100
AcDbLine
 10
103.5
 20
-71.0
 30
0.0
 11
103.325688999999997
 21
-70.9923890000000029
 31
0.0
  0
LINE
  5
30F
100
AcDbEntity
  8
cut_out
 62
256
370
-1
 48
1.0
  6
CONTINUOUS
100
AcDbLine
 10
103.325688999999997
 20
-70.9923890000000029
 30
0.0
 11
103.152704
 21
-70.969616000000002
 31
0.0
  0
LINE
  5
310
100
AcDbEntity
  8
cut_out
 62
256
370
-1
 48
1.0
  6
CONTINUOUS
100
AcDbLine
 10
103.152704
 20
-70.969616000000002
 30
0.0
 11
102.9823619999999949
 21
-70.9318519999999921
 31
0.0
  0
LINE
  5
311
100
AcDbEntity
  8
cut_out
 62
256
370
-1
 48
1.0
  6
CONTINUOUS
100
AcDbLine
 10
102.9823619999999949
 20
-70.9318519999999921
 30
0.0
 11
102.8159599999999898
 21
-70.8793849999999992
 31
0.0
  0
LINE
  5
312
100
AcDbEntity
  8
cut_out
 62
256
370
-1
 48
1.0
  6
CONTINUOUS
100
AcDbLine
 10
102.8159599999999898
 20
-70.8793849999999992
 30
0.0
 11
102.6547629999999884
 21
-70.8126159999999913
 31
0.0
  0
LINE
  5
313
100
AcDbEntity
  8
cut_out
 62
256
370
-1
 48
1.0
  6
CONTINUOUS
100
AcDbLine
 10
102.6547629999999884
 20
-70.8126159999999913
 30
0.0
 11
102.5
 21
-70.7320509999999985
 31
0.0
  0
LINE
  5
314
100
AcDbEntity
  8
cut_out
 62
256
370
-1
 48
1.0
  6
CONTINUOUS
100
AcDbLine
 10
102.5
 20
-70.7320509999999985
 30
0.0
 11
102.352846999999997
 21
-70.6383039999999909
 31
0.0
  0
LINE
  5
315
100
AcDbEntity
  8
cut_out
 62
256
370
-1
 48
1.0
  6
CONTINUOUS
100
AcDbLine
 10
102.352846999999997
 20
-70.6383039999999909
 30
0.0
 11
102.2144249999999914
 21
-70.5320889999999991
 31
0.0
  0
LINE
  5
316
100
AcDbEntity
  8
cut_out
 62
256
370
-1
 48
1.0
  6
CONTINUOUS
100
AcDbLine
 10
102.2144249999999914
 20
-70.5320889999999991
 30
0.0
 11
102.0857859999999988
 21
-70.4142140000000012
 31
0.0
  0
LINE
  5
317
100
AcDbEntity
  8
cut_out
 62
256
370
-1
 48
1.0
  6
CONTINUOUS
100
AcDbLine
 10
102.0857859999999988
 20
-70.4142140000000012
 30
0.0
 11
101.9679110000000009
 21
-70.2855749999999944
 31
0.0
  0
LINE
  5
318
100
AcDbEntity
  8
cut_out
 62
256
370
-1
 48
1.0
  6
CONTINUOUS
100
AcDbLine
 10
101.9679110000000009
 20
-70.2855749999999944
 30
0.0
 11
101.8616959999999949
 21
-70.147153000000003
 31
0.0
  0
LINE
  5
319
100
AcDbEntity
  8
cut_out
 62
256
370
-1
 48
1.0
  6
CONTINUOUS
100
AcDbLine
 10
101.8616959999999949
 20
-70.147153000000003
 30
0.0
 11
101.7679490000000015
 21
-70.0
 31
0.0
  0
LINE
  5
31A
100
AcDbEntity
  8
cut_out
 62
256
370
-1
 48
1.0
  6
CONTINUOUS
100
AcDbLine
 10
101.7679490000000015
 20
-70.0
 30
0.0
 11
101.6873839999999944
 21
-69.8452369999999974
 31
0.0
  0
LINE
  5
31B
100
AcDbEntity
  8
cut_out
 62
256
370
-1
 48
1.0
  6
CONTINUOUS
100
AcDbLine
 10
101.6873839999999944
 20
-69.8452369999999974
 30
0.0
 11
101.6206150000000008
 21
-69.684039999999996
 31
0.0
  0
LINE
  5
31C
100
AcDbEntity
  8
cut_out
 62
256
370
-1
 48
1.0
  6
CONTINUOUS
100
AcDbLine
 10
101.6206150000000008
 20
-69.684039999999996
 30
0.0
 11
101.5681479999999937
 21
-69.5176379999999909
 31
0.0
  0
LINE
  5
31D
100
AcDbEntity
  8
cut_out
 62
256
370
-1
 48
1.0
  6
CONTINUOUS
100
AcDbLine
 10
101.5681479999999937
 20
-69.5176379999999909
 30
0.0
 11
101.530383999999998
 21
-69.347296
 31
0.0
  0
LINE
  5
31E
100
AcDbEntity
  8
cut_out
 62
256
370
-1
 48
1.0
  6
CONTINUOUS
100
AcDbLine
 10
101.530383999999998
 20
-69.347296
 30
0.0
 11
101.5076109999999971
 21
-69.174311000000003
 31
0.0
  0
LINE
  5
31F
100
AcDbEntity
  8
cut_out
 62
256
370
-1
 48
1.0
  6
CONTINUOUS
100
AcDbLine
 10
101.5076109999999971
 20
-69.174311000000003
 30
0.0
 11
101.5
 21
-69.0
 31
0.0
  0
LINE
  5
320
100
AcDbEntity
  8
cut_out
 62
256
370
-1
 48
1.0
  6
CONTINUOUS
100
AcDbLine
 10
101.5
 20
-69.0
 30
0.0
 11
101.5
 21
-57.9046299999999974
 31
0.0
  0
CIRCLE
  5
321
100
AcDbEntity
  8
cut_in
 62
256
370
-1
 48
1.0
  6
BYLAYER
100
AcDbCircle
 10
104.5
 20
-65.0
 30
0.0
 40
1.5811389999999999
  0
CIRCLE
  5
322
100
AcDbEntity
  8
cut_in
 62
256
370
-1
 48
1.0
  6
BYLAYER
100
AcDbCircle
 10
115.0
 20
-61.5
 30
0.0
 40
1.5
  0
CIRCLE
  5
323
100
AcDbEntity
  8
cut_in
 62
256
370
-1
 48
1.0
  6
BYLAYER
100
AcDbCircle
 10
127.0
 20
-65.0
 30
0.0
 40
1.5
  0
ENDSEC
  0
SECTION
  2
OBJECTS
  0
DICTIONARY
  5
C
100
AcDbDictionary
280
0
281
1
  3
ACAD_GROUP
350
D
  3
ACAD_LAYOUT
350
1A
  3
ACAD_MLINESTYLE
350
17
  3
ACAD_PLOTSETTINGS
350
19
  3
ACAD_PLOTSTYLENAME
350
E
  3
AcDbVariableDictionary
350
324
  3
QCAD_OBJECTS
350
325
  0
DICTIONARY
  5
D
100
AcDbDictionary
280
0
281
1
  0
ACDBDICTIONARYWDFLT
  5
E
100
AcDbDictionary
281
1
  3
Normal
350
F
100
AcDbDictionaryWithDefault
340
F
  0
ACDBPLACEHOLDER
  5
F
  0
DICTIONARY
  5
17
100
AcDbDictionary
280
0
281
1
  3
Standard
350
18
  0
MLINESTYLE
  5
18
100
AcDbMlineStyle
  2
STANDARD
 70
0
  3

 62
256
 51
90.0
 52
90.0
 71
2
 49
0.5
 62
256
  6
BYLAYER
 49
-0.5
 62
256
  6
BYLAYER
  0
DICTIONARY
  5
19
100
AcDbDictionary
280
0
281
1
  0
DICTIONARY
  5
1A
100
AcDbDictionary
281
1
  3
Layout1
350
1E
  3
Layout2
350
26
  3
Model
350
22
  0
LAYOUT
  5
1E
100
AcDbPlotSettings
  1

  2
none_device
  4

  6

 40
0.0
 41
0.0
 42
0.0
 43
0.0
 44
0.0
 45
0.0
 46
0.0
 47
0.0
 48
0.0
 49
0.0
140
0.0
141
0.0
142
1.0
143
1.0
 70
688
 72
0
 73
0
 74
5
  7

 75
16
147
1.0
148
0.0
149
0.0
100
AcDbLayout
  1
Layout1
 70
1
 71
1
 10
0.0
 20
0.0
 11
420.0
 21
297.0
 12
0.0
 22
0.0
 32
0.0
 14
100000000000000000000.0
 24
100000000000000000000.0
 34
100000000000000000000.0
 15
-100000000000000000000.0
 25
-100000000000000000000.0
 35
-100000000000000000000.0
146
0.0
 13
0.0
 23
0.0
 33
0.0
 16
1.0
 26
0.0
 36
0.0
 17
0.0
 27
1.0
 37
0.0
 76
0
330
1B
  0
LAYOUT
  5
22
100
AcDbPlotSettings
  1

  2
none_device
  4

  6

 40
0.0
 41
0.0
 42
0.0
 43
0.0
 44
0.0
 45
0.0
 46
0.0
 47
0.0
 48
0.0
 49
0.0
140
0.0
141
0.0
142
1.0
143
1.0
 70
1712
 72
0
 73
0
 74
0
  7

 75
0
147
1.0
148
0.0
149
0.0
100
AcDbLayout
  1
Model
 70
1
 71
0
 10
0.0
 20
0.0
 11
12.0
 21
9.0
 12
0.0
 22
0.0
 32
0.0
 14
0.0
 24
0.0
 34
0.0
 15
0.0
 25
0.0
 35
0.0
146
0.0
 13
0.0
 23
0.0
 33
0.0
 16
1.0
 26
0.0
 36
0.0
 17
0.0
 27
1.0
 37
0.0
 76
0
330
1F
  0
LAYOUT
  5
26
100
AcDbPlotSettings
  1

  2
none_device
  4

  6

 40
0.0
 41
0.0
 42
0.0
 43
0.0
 44
0.0
 45
0.0
 46
0.0
 47
0.0
 48
0.0
 49
0.0
140
0.0
141
0.0
142
1.0
143
1.0
 70
688
 72
0
 73
0
 74
5
  7

 75
16
147
1.0
148
0.0
149
0.0
100
AcDbLayout
  1
Layout2
 70
1
 71
2
 10
0.0
 20
0.0
 11
12.0
 21
9.0
 12
0.0
 22
0.0
 32
0.0
 14
0.0
 24
0.0
 34
0.0
 15
0.0
 25
0.0
 35
0.0
146
0.0
 13
0.0
 23
0.0
 33
0.0
 16
1.0
 26
0.0
 36
0.0
 17
0.0
 27
1.0
 37
0.0
 76
0
330
23
  0
DICTIONARY
  5
324
100
AcDbDictionary
281
1
  3
DIMASSOC
350
327
  3
HIDETEXT
350
326
  0
DICTIONARYVAR
  5
326
100
DictionaryVariables
280
0
  1
2
  0
DICTIONARYVAR
  5
327
100
DictionaryVariables
280
0
  1
1
  0
DICTIONARY
  5
325
100
AcDbDictionary
281
1
  3
ColorSettings/BackgroundColor
350
328
  3
ColorSettings/ColorMode
350
329
  3
Grid/DisplayGrid00
350
32A
  3
Grid/DisplayGrid01
350
32B
  3
Grid/DisplayGrid02
350
32C
  3
Grid/DisplayGrid03
350
32D
  3
Grid/GridSpacingX00
350
32E
  3
Grid/GridSpacingX01
350
32F
  3
Grid/GridSpacingX02
350
330
  3
Grid/GridSpacingX03
350
331
  3
Grid/GridSpacingY00
350
332
  3
Grid/GridSpacingY01
350
333
  3
Grid/GridSpacingY02
350
334
  3
Grid/GridSpacingY03
350
335
  3
Grid/IsometricGrid00
350
336
  3
Grid/IsometricGrid01
350
337
  3
Grid/IsometricGrid02
350
338
  3
Grid/IsometricGrid03
350
339
  3
Grid/IsometricProjection00
350
33A
  3
Grid/IsometricProjection01
350
33B
  3
Grid/IsometricProjection02
350
33C
  3
Grid/IsometricProjection03
350
33D
  3
Grid/MetaGridSpacingX00
350
33E
  3
Grid/MetaGridSpacingX01
350
33F
  3
Grid/MetaGridSpacingX02
350
340
  3
Grid/MetaGridSpacingX03
350
341
  3
Grid/MetaGridSpacingY00
350
342
  3
Grid/MetaGridSpacingY01
350
343
  3
Grid/MetaGridSpacingY02
350
344
  3
Grid/MetaGridSpacingY03
350
345
  3
MultiPageSettings/Columns
350
346
  3
MultiPageSettings/GlueMarginsBottom
350
347
  3
MultiPageSettings/GlueMarginsLeft
350
348
  3
MultiPageSettings/GlueMarginsRight
350
349
  3
MultiPageSettings/GlueMarginsTop
350
34A
  3
MultiPageSettings/PrintCropMarks
350
34B
  3
MultiPageSettings/Rows
350
34C
  3
PageSettings/OffsetX
350
34D
  3
PageSettings/OffsetY
350
34E
  3
PageSettings/PageOrientation
350
34F
  3
PageSettings/PaperHeight
350
350
  3
PageSettings/PaperWidth
350
351
  3
PageSettings/Scale
350
352
  3
PageSettings/ShowPaperBorders
350
353
  3
PageTagSettings/EnablePageTags
350
354
  3
PageTagSettings/TagAlignment
350
355
  3
PageTagSettings/TagFont
350
356
  3
PageTagSettings/TagPosition
350
357
  3
UnitSettings/PaperUnit
350
358
  3
ViewportCenter
350
359
  3
ViewportHeight
350
35A
  3
ViewportWidth
350
35B
  0
XRECORD
  5
328
330
325
100
AcDbXrecord
280
1
1000
White
  0
XRECORD
  5
329
330
325
100
AcDbXrecord
280
1
1000
FullColor
  0
XRECORD
  5
32A
330
325
100
AcDbXrecord
280
1
290
1
  0
XRECORD
  5
32B
330
325
100
AcDbXrecord
280
1
290
1
  0
XRECORD
  5
32C
330
325
100
AcDbXrecord
280
1
290
1
  0
XRECORD
  5
32D
330
325
100
AcDbXrecord
280
1
290
1
  0
XRECORD
  5
32E
330
325
100
AcDbXrecord
280
1
1000
auto
  0
XRECORD
  5
32F
330
325
100
AcDbXrecord
280
1
1000
auto
  0
XRECORD
  5
330
330
325
100
AcDbXrecord
280
1
1000
auto
  0
XRECORD
  5
331
330
325
100
AcDbXrecord
280
1
1000
auto
  0
XRECORD
  5
332
330
325
100
AcDbXrecord
280
1
1000
auto
  0
XRECORD
  5
333
330
325
100
AcDbXrecord
280
1
1000
auto
  0
XRECORD
  5
334
330
325
100
AcDbXrecord
280
1
1000
auto
  0
XRECORD
  5
335
330
325
100
AcDbXrecord
280
1
1000
auto
  0
XRECORD
  5
336
330
325
100
AcDbXrecord
280
1
290
0
  0
XRECORD
  5
337
330
325
100
AcDbXrecord
280
1
290
0
  0
XRECORD
  5
338
330
325
100
AcDbXrecord
280
1
290
0
  0
XRECORD
  5
339
330
325
100
AcDbXrecord
280
1
290
0
  0
XRECORD
  5
33A
330
325
100
AcDbXrecord
280
1
 90
65537
  0
XRECORD
  5
33B
330
325
100
AcDbXrecord
280
1
 90
65537
  0
XRECORD
  5
33C
330
325
100
AcDbXrecord
280
1
 90
65537
  0
XRECORD
  5
33D
330
325
100
AcDbXrecord
280
1
 90
65537
  0
XRECORD
  5
33E
330
325
100
AcDbXrecord
280
1
1000
auto
  0
XRECORD
  5
33F
330
325
100
AcDbXrecord
280
1
1000
auto
  0
XRECORD
  5
340
330
325
100
AcDbXrecord
280
1
1000
auto
  0
XRECORD
  5
341
330
325
100
AcDbXrecord
280
1
1000
auto
  0
XRECORD
  5
342
330
325
100
AcDbXrecord
280
1
1000
auto
  0
XRECORD
  5
343
330
325
100
AcDbXrecord
280
1
1000
auto
  0
XRECORD
  5
344
330
325
100
AcDbXrecord
280
1
1000
auto
  0
XRECORD
  5
345
330
325
100
AcDbXrecord
280
1
1000
auto
  0
XRECORD
  5
346
330
325
100
AcDbXrecord
280
1
 90
1
  0
XRECORD
  5
347
330
325
100
AcDbXrecord
280
1
 40
10.0
  0
XRECORD
  5
348
330
325
100
AcDbXrecord
280
1
 40
10.0
  0
XRECORD
  5
349
330
325
100
AcDbXrecord
280
1
 40
10.0
  0
XRECORD
  5
34A
330
325
100
AcDbXrecord
280
1
 40
10.0
  0
XRECORD
  5
34B
330
325
100
AcDbXrecord
280
1
290
0
  0
XRECORD
  5
34C
330
325
100
AcDbXrecord
280
1
 90
1
  0
XRECORD
  5
34D
330
325
100
AcDbXrecord
280
1
 40
0.0
  0
XRECORD
  5
34E
330
325
100
AcDbXrecord
280
1
 40
0.0
  0
XRECORD
  5
34F
330
325
100
AcDbXrecord
280
1
1000
Portrait
  0
XRECORD
  5
350
330
325
100
AcDbXrecord
280
1
 40
297.0
  0
XRECORD
  5
351
330
325
100
AcDbXrecord
280
1
 40
210.0
  0
XRECORD
  5
352
330
325
100
AcDbXrecord
280
1
1000
1:1
  0
XRECORD
  5
353
330
325
100
AcDbXrecord
280
1
290
1
  0
XRECORD
  5
354
330
325
100
AcDbXrecord
280
1
290
0
  0
XRECORD
  5
355
330
325
100
AcDbXrecord
280
1
1000
Inside
  0
XRECORD
  5
356
330
325
100
AcDbXrecord
280
1
1000
Arial,10,-1,5,50,0,0,0,0,0
  0
XRECORD
  5
357
330
325
100
AcDbXrecord
280
1
1000
TopLeft
  0
XRECORD
  5
358
330
325
100
AcDbXrecord
280
1
 90
4
  0
XRECORD
  5
35A
330
325
100
AcDbXrecord
280
1
 40
27.9887842080000055
  0
XRECORD
  5
35B
330
325
100
AcDbXrecord
280
1
 40
52.8878974320000026
  0
ENDSEC
  0
EOF
