999
dxflib 3.26.4.0
  0
SECTION
  2
HEADER
  9
$ACADVER
  1
AC1015
  9
$HANDSEED
  5
FFFF
  9
$DIMADEC
 70
0
  9
$DIMASZ
 40
2.5
  9
$DIMATFIT
 70
0
  9
$DIMAUNIT
 70
0
  9
$DIMAZIN
 70
2
  9
$DIMBLK
  1
0
  9
$DIMBLK1
  1
0
  9
$DIMBLK2
  1
0
  9
$DIMDEC
 70
4
  9
$DIMDLI
 40
5.0
  9
$DIMDSEP
 70
46
  9
$DIMEXE
 40
1.25
  9
$DIMEXO
 40
0.625
  9
$DIMGAP
 40
0.625
  9
$DIMLFAC
 40
1.0
  9
$DIMLUNIT
 70
2
  9
$DIMSCALE
 40
1.0
  9
$DIMTAD
 70
1
  9
$DIMTIH
 70
0
  9
$DIMTSZ
 40
0.0
  9
$DIMTXT
 40
2.5
  9
$DIMZIN
 70
8
  9
$DWGCODEPAGE
  3
ANSI_1252
  9
$INSUNITS
 70
4
  9
$LTSCALE
 40
1.0
  9
$MAXACTVP
 70
64
  9
$MEASUREMENT
 70
1
  9
$MIRRTEXT
 70
0
  9
$PDMODE
 70
0
  9
$PDSIZE
 40
0.0
  0
ENDSEC
  0
SECTION
  2
TABLES
  0
TABLE
  2
VPORT
  5
8
100
AcDbSymbolTable
 70
1
  0
VPORT
  5
30
100
AcDbSymbolTableRecord
100
AcDbViewportTableRecord
  2
*Active
 70
0
 10
0.0
 20
0.0
 11
1.0
 21
1.0
 12
286.3055555555554861
 22
148.5
 13
0.0
 23
0.0
 14
10.0
 24
10.0
 15
10.0
 25
10.0
 16
0.0
 26
0.0
 36
1.0
 17
0.0
 27
0.0
 37
0.0
 40
297.0
 41
1.92798353909465
 42
50.0
 43
0.0
 44
0.0
 50
0.0
 51
0.0
 71
0
 72
100
 73
1
 74
3
 75
1
 76
1
 77
0
 78
0
281
0
 65
1
110
0.0
120
0.0
130
0.0
111
1.0
121
0.0
131
0.0
112
0.0
122
1.0
132
0.0
 79
0
146
0.0
  0
ENDTAB
  0
TABLE
  2
LTYPE
  5
5
100
AcDbSymbolTable
 70
41
  0
LTYPE
  5
16
100
AcDbSymbolTableRecord
100
AcDbLinetypeTableRecord
  2
Continuous
 70
0
  3
Solid line
 72
65
 73
0
 40
0.0
  0
LTYPE
  5
31
100
AcDbSymbolTableRecord
100
AcDbLinetypeTableRecord
  2
ACAD_ISO03W100
 70
0
  3
ISO dash space __    __    __    __    __    __
 72
65
 73
2
 40
30.0
 49
12.0
 74
0
 49
-18.0
 74
0
  0
LTYPE
  5
32
100
AcDbSymbolTableRecord
100
AcDbLinetypeTableRecord
  2
CENTER
 70
0
  3
Center ____ _ ____ _ ____ _ ____ _ ____ _ ____
 72
65
 73
4
 40
50.8000000000000043
 49
31.75
 74
0
 49
-6.3499999999999996
 74
0
 49
6.3499999999999996
 74
0
 49
-6.3499999999999996
 74
0
  0
LTYPE
  5
33
100
AcDbSymbolTableRecord
100
AcDbLinetypeTableRecord
  2
DOTX2
 70
0
  3
Dot (2x) .  .  .  .  .  .  .  .  .  .  .  .  .  .
 72
65
 73
2
 40
12.6999999999999993
 49
0.1
 74
0
 49
-12.5999999999999996
 74
0
  0
LTYPE
  5
34
100
AcDbSymbolTableRecord
100
AcDbLinetypeTableRecord
  2
ACAD_ISO10W100
 70
0
  3
ISO dash dot __ . __ . __ . __ . __ . __ . __ . 
 72
65
 73
4
 40
18.0
 49
12.0
 74
0
 49
-2.9500000000000002
 74
0
 49
0.1
 74
0
 49
-2.9500000000000002
 74
0
  0
LTYPE
  5
35
100
AcDbSymbolTableRecord
100
AcDbLinetypeTableRecord
  2
HIDDEN
 70
0
  3
Hidden __ __ __ __ __ __ __ __ __ __ __ __ __ __
 72
65
 73
2
 40
9.5249999999999986
 49
6.3499999999999996
 74
0
 49
-3.1749999999999998
 74
0
  0
LTYPE
  5
36
100
AcDbSymbolTableRecord
100
AcDbLinetypeTableRecord
  2
CENTERX2
 70
0
  3
Center (2x) ________  __  ________  __  _____
 72
65
 73
4
 40
101.6000000000000085
 49
63.5
 74
0
 49
-12.6999999999999993
 74
0
 49
12.6999999999999993
 74
0
 49
-12.6999999999999993
 74
0
  0
LTYPE
  5
37
100
AcDbSymbolTableRecord
100
AcDbLinetypeTableRecord
  2
ACAD_ISO12W100
 70
0
  3
ISO dash double-dot __ . . __ . . __ . . __ . . 
 72
65
 73
6
 40
21.0
 49
12.0
 74
0
 49
-2.9500000000000002
 74
0
 49
0.1
 74
0
 49
-2.9000000000000004
 74
0
 49
0.1
 74
0
 49
-2.9500000000000002
 74
0
  0
LTYPE
  5
38
100
AcDbSymbolTableRecord
100
AcDbLinetypeTableRecord
  2
ACAD_ISO04W100
 70
0
  3
ISO long-dash dot ____ . ____ . ____ . ____ . _
 72
65
 73
4
 40
30.0
 49
24.0
 74
0
 49
-2.9500000000000002
 74
0
 49
0.1
 74
0
 49
-2.9500000000000002
 74
0
  0
LTYPE
  5
39
100
AcDbSymbolTableRecord
100
AcDbLinetypeTableRecord
  2
DASHED2
 70
0
  3
Dashed (.5x) _ _ _ _ _ _ _ _ _ _ _ _ _ _ _ _ _ 
 72
65
 73
2
 40
9.5249999999999986
 49
6.3499999999999996
 74
0
 49
-3.1749999999999998
 74
0
  0
LTYPE
  5
3A
100
AcDbSymbolTableRecord
100
AcDbLinetypeTableRecord
  2
HIDDEN2
 70
0
  3
Hidden (.5x) _ _ _ _ _ _ _ _ _ _ _ _ _ _ _ _ _ 
 72
65
 73
2
 40
4.7624999999999993
 49
3.1749999999999998
 74
0
 49
-1.5874999999999999
 74
0
  0
LTYPE
  5
3B
100
AcDbSymbolTableRecord
100
AcDbLinetypeTableRecord
  2
PHANTOMX2
 70
0
  3
Phantom (2x) ____________    ____    ____   _
 72
65
 73
6
 40
127.0000000000000142
 49
63.5
 74
0
 49
-12.6999999999999993
 74
0
 49
12.6999999999999993
 74
0
 49
-12.6999999999999993
 74
0
 49
12.6999999999999993
 74
0
 49
-12.6999999999999993
 74
0
  0
LTYPE
  5
3C
100
AcDbSymbolTableRecord
100
AcDbLinetypeTableRecord
  2
DASHEDX2
 70
0
  3
Dashed (2x) ____  ____  ____  ____  ____  ___
 72
65
 73
2
 40
38.0999999999999943
 49
25.3999999999999986
 74
0
 49
-12.6999999999999993
 74
0
  0
LTYPE
  5
3D
100
AcDbSymbolTableRecord
100
AcDbLinetypeTableRecord
  2
PHANTOM2
 70
0
  3
Phantom (.5x) ___ _ _ ___ _ _ ___ _ _ ___ _ _
 72
65
 73
6
 40
31.7500000000000036
 49
15.875
 74
0
 49
-3.1749999999999998
 74
0
 49
3.1749999999999998
 74
0
 49
-3.1749999999999998
 74
0
 49
3.1749999999999998
 74
0
 49
-3.1749999999999998
 74
0
  0
LTYPE
  5
3E
100
AcDbSymbolTableRecord
100
AcDbLinetypeTableRecord
  2
PHANTOM
 70
0
  3
Phantom ______  __  __  ______  __  __  ______ 
 72
65
 73
6
 40
63.5000000000000071
 49
31.75
 74
0
 49
-6.3499999999999996
 74
0
 49
6.3499999999999996
 74
0
 49
-6.3499999999999996
 74
0
 49
6.3499999999999996
 74
0
 49
-6.3499999999999996
 74
0
  0
LTYPE
  5
3F
100
AcDbSymbolTableRecord
100
AcDbLinetypeTableRecord
  2
ACAD_ISO11W100
 70
0
  3
ISO double-dash dot __ __ . __ __ . __ __ . __ _
 72
65
 73
6
 40
33.0
 49
12.0
 74
0
 49
-3.0
 74
0
 49
12.0
 74
0
 49
-2.9500000000000002
 74
0
 49
0.1
 74
0
 49
-2.9500000000000002
 74
0
  0
LTYPE
  5
40
100
AcDbSymbolTableRecord
100
AcDbLinetypeTableRecord
  2
ACAD_ISO13W100
 70
0
  3
ISO double-dash double-dot __ __ . . __ __ . . _
 72
65
 73
8
 40
36.0000000000000071
 49
12.0
 74
0
 49
-3.0
 74
0
 49
12.0
 74
0
 49
-2.9500000000000002
 74
0
 49
0.1
 74
0
 49
-2.9000000000000004
 74
0
 49
0.1
 74
0
 49
-2.9500000000000002
 74
0
  0
LTYPE
  5
41
100
AcDbSymbolTableRecord
100
AcDbLinetypeTableRecord
  2
HIDDENX2
 70
0
  3
Hidden (2x) ____ ____ ____ ____ ____ ____ ____ 
 72
65
 73
2
 40
19.0499999999999972
 49
12.6999999999999993
 74
0
 49
-6.3499999999999996
 74
0
  0
LTYPE
  5
42
100
AcDbSymbolTableRecord
100
AcDbLinetypeTableRecord
  2
ACAD_ISO14W100
 70
0
  3
ISO dash triple-dot __ . . . __ . . . __ . . . _
 72
65
 73
8
 40
24.0000000000000036
 49
12.0
 74
0
 49
-2.9500000000000002
 74
0
 49
0.1
 74
0
 49
-2.9000000000000004
 74
0
 49
0.1
 74
0
 49
-2.9000000000000004
 74
0
 49
0.1
 74
0
 49
-2.9500000000000002
 74
0
  0
LTYPE
  5
15
100
AcDbSymbolTableRecord
100
AcDbLinetypeTableRecord
  2
BYLAYER
 70
0
  3

 72
65
 73
0
 40
0.0
  0
LTYPE
  5
43
100
AcDbSymbolTableRecord
100
AcDbLinetypeTableRecord
  2
DOT
 70
0
  3
Dot . . . . . . . . . . . . . . . . . . . . . . . .
 72
65
 73
2
 40
6.3499999999999996
 49
0.1
 74
0
 49
-6.25
 74
0
  0
LTYPE
  5
44
100
AcDbSymbolTableRecord
100
AcDbLinetypeTableRecord
  2
DASHDOT
 70
0
  3
Dash dot __ . __ . __ . __ . __ . __ . __ . __
 72
65
 73
4
 40
25.4000000000000021
 49
12.6999999999999993
 74
0
 49
-6.2999999999999998
 74
0
 49
0.1
 74
0
 49
-6.2999999999999998
 74
0
  0
LTYPE
  5
45
100
AcDbSymbolTableRecord
100
AcDbLinetypeTableRecord
  2
DASHDOT2
 70
0
  3
Dash dot (.5x) _._._._._._._._._._._._._._._.
 72
65
 73
4
 40
12.6999999999999993
 49
6.3499999999999996
 74
0
 49
-3.125
 74
0
 49
0.1
 74
0
 49
-3.125
 74
0
  0
LTYPE
  5
46
100
AcDbSymbolTableRecord
100
AcDbLinetypeTableRecord
  2
CENTER2
 70
0
  3
Center (.5x) ___ _ ___ _ ___ _ ___ _ ___ _ ___
 72
65
 73
4
 40
28.5750000000000028
 49
19.0500000000000007
 74
0
 49
-3.1749999999999998
 74
0
 49
3.1749999999999998
 74
0
 49
-3.1749999999999998
 74
0
  0
LTYPE
  5
47
100
AcDbSymbolTableRecord
100
AcDbLinetypeTableRecord
  2
DOT2
 70
0
  3
Dot (.5x) ........................................
 72
65
 73
2
 40
3.1749999999999998
 49
0.1
 74
0
 49
-3.0749999999999997
 74
0
  0
LTYPE
  5
48
100
AcDbSymbolTableRecord
100
AcDbLinetypeTableRecord
  2
DASHDOTX2
 70
0
  3
Dash dot (2x) ____  .  ____  .  ____  .  ___
 72
65
 73
4
 40
50.7999999999999972
 49
25.3999999999999986
 74
0
 49
-12.6499999999999986
 74
0
 49
0.1
 74
0
 49
-12.6499999999999986
 74
0
  0
LTYPE
  5
49
100
AcDbSymbolTableRecord
100
AcDbLinetypeTableRecord
  2
ACAD_ISO08W100
 70
0
  3
ISO long-dash short-dash ____ __ ____ __ ____ _
 72
65
 73
4
 40
36.0
 49
24.0
 74
0
 49
-3.0
 74
0
 49
6.0
 74
0
 49
-3.0
 74
0
  0
LTYPE
  5
4A
100
AcDbSymbolTableRecord
100
AcDbLinetypeTableRecord
  2
DASHED
 70
0
  3
Dashed __ __ __ __ __ __ __ __ __ __ __ __ __ _
 72
65
 73
2
 40
19.0499999999999972
 49
12.6999999999999993
 74
0
 49
-6.3499999999999996
 74
0
  0
LTYPE
  5
4B
100
AcDbSymbolTableRecord
100
AcDbLinetypeTableRecord
  2
BORDER2
 70
0
  3
Border (.5x) __.__.__.__.__.__.__.__.__.__.__.
 72
65
 73
6
 40
22.2250000000000014
 49
6.3499999999999996
 74
0
 49
-3.1749999999999998
 74
0
 49
6.3499999999999996
 74
0
 49
-3.125
 74
0
 49
0.1
 74
0
 49
-3.125
 74
0
  0
LTYPE
  5
4C
100
AcDbSymbolTableRecord
100
AcDbLinetypeTableRecord
  2
DIVIDEX2
 70
0
  3
Divide (2x) ________  .  .  ________  .  .  _
 72
65
 73
6
 40
63.5
 49
25.3999999999999986
 74
0
 49
-12.6499999999999986
 74
0
 49
0.1
 74
0
 49
-12.5999999999999979
 74
0
 49
0.1
 74
0
 49
-12.6499999999999986
 74
0
  0
LTYPE
  5
4D
100
AcDbSymbolTableRecord
100
AcDbLinetypeTableRecord
  2
ACAD_ISO07W100
 70
0
  3
ISO dot . . . . . . . . . . . . . . . . . . . . 
 72
65
 73
2
 40
3.0
 49
0.1
 74
0
 49
-2.8999999999999999
 74
0
  0
LTYPE
  5
4E
100
AcDbSymbolTableRecord
100
AcDbLinetypeTableRecord
  2
ACAD_ISO02W100
 70
0
  3
ISO dash __ __ __ __ __ __ __ __ __ __ __ __ __
 72
65
 73
2
 40
15.0
 49
12.0
 74
0
 49
-3.0
 74
0
  0
LTYPE
  5
4F
100
AcDbSymbolTableRecord
100
AcDbLinetypeTableRecord
  2
DIVIDE
 70
0
  3
Divide ____ . . ____ . . ____ . . ____ . . ____
 72
65
 73
6
 40
31.7500000000000036
 49
12.6999999999999993
 74
0
 49
-6.2999999999999998
 74
0
 49
0.1
 74
0
 49
-6.25
 74
0
 49
0.1
 74
0
 49
-6.2999999999999998
 74
0
  0
LTYPE
  5
50
100
AcDbSymbolTableRecord
100
AcDbLinetypeTableRecord
  2
ACAD_ISO09W100
 70
0
  3
ISO long-dash double-short-dash ____ __ __ ____
 72
65
 73
6
 40
45.0
 49
24.0
 74
0
 49
-3.0
 74
0
 49
6.0
 74
0
 49
-3.0
 74
0
 49
6.0
 74
0
 49
-3.0
 74
0
  0
LTYPE
  5
51
100
AcDbSymbolTableRecord
100
AcDbLinetypeTableRecord
  2
ACAD_ISO06W100
 70
0
  3
ISO long-dash triple-dot ____ ... ____ ... ____
 72
65
 73
8
 40
36.0000000000000071
 49
24.0
 74
0
 49
-2.9500000000000002
 74
0
 49
0.1
 74
0
 49
-2.9000000000000004
 74
0
 49
0.1
 74
0
 49
-2.9000000000000004
 74
0
 49
0.1
 74
0
 49
-2.9500000000000002
 74
0
  0
LTYPE
  5
52
100
AcDbSymbolTableRecord
100
AcDbLinetypeTableRecord
  2
BORDERX2
 70
0
  3
Border (2x) ____  ____  .  ____  ____  .  ___
 72
65
 73
6
 40
88.8999999999999773
 49
25.3999999999999986
 74
0
 49
-12.6999999999999993
 74
0
 49
25.3999999999999986
 74
0
 49
-12.6499999999999986
 74
0
 49
0.1
 74
0
 49
-12.6499999999999986
 74
0
  0
LTYPE
  5
53
100
AcDbSymbolTableRecord
100
AcDbLinetypeTableRecord
  2
DIVIDE2
 70
0
  3
Divide (.5x) __..__..__..__..__..__..__..__.._
 72
65
 73
6
 40
15.8749999999999982
 49
6.3499999999999996
 74
0
 49
-3.125
 74
0
 49
0.1
 74
0
 49
-3.0750000000000002
 74
0
 49
0.1
 74
0
 49
-3.125
 74
0
  0
LTYPE
  5
14
100
AcDbSymbolTableRecord
100
AcDbLinetypeTableRecord
  2
BYBLOCK
 70
0
  3

 72
65
 73
0
 40
0.0
  0
LTYPE
  5
54
100
AcDbSymbolTableRecord
100
AcDbLinetypeTableRecord
  2
BORDER
 70
0
  3
Border __ __ . __ __ . __ __ . __ __ . __ __ .
 72
65
 73
6
 40
44.4499999999999957
 49
12.6999999999999993
 74
0
 49
-6.3499999999999996
 74
0
 49
12.6999999999999993
 74
0
 49
-6.2999999999999998
 74
0
 49
0.1
 74
0
 49
-6.2999999999999998
 74
0
  0
LTYPE
  5
55
100
AcDbSymbolTableRecord
100
AcDbLinetypeTableRecord
  2
ACAD_ISO05W100
 70
0
  3
ISO long-dash double-dot ____ .. ____ .. ____ . 
 72
65
 73
6
 40
33.0000000000000071
 49
24.0
 74
0
 49
-2.9500000000000002
 74
0
 49
0.1
 74
0
 49
-2.9000000000000004
 74
0
 49
0.1
 74
0
 49
-2.9500000000000002
 74
0
  0
LTYPE
  5
56
100
AcDbSymbolTableRecord
100
AcDbLinetypeTableRecord
  2
ACAD_ISO15W100
 70
0
  3
ISO double-dash triple-dot __ __ . . . __ __ . .
 72
65
 73
10
 40
39.0000000000000071
 49
12.0
 74
0
 49
-3.0
 74
0
 49
12.0
 74
0
 49
-2.9500000000000002
 74
0
 49
0.1
 74
0
 49
-2.9000000000000004
 74
0
 49
0.1
 74
0
 49
-2.9000000000000004
 74
0
 49
0.1
 74
0
 49
-2.9500000000000002
 74
0
  0
ENDTAB
  0
TABLE
  2
LAYER
  5
2
100
AcDbSymbolTable
 70
6
  0
LAYER
  5
57
100
AcDbSymbolTableRecord
100
AcDbLayerTableRecord
  2
cut_2mm
 70
0
 62
214
420
8388736
  6
Continuous
370
25
390
F
  0
LAYER
  5
10
100
AcDbSymbolTableRecord
100
AcDbLayerTableRecord
  2
0
 70
0
 62
7
420
0
  6
Continuous
370
13
390
F
  0
LAYER
  5
58
100
AcDbSymbolTableRecord
100
AcDbLayerTableRecord
  2
cut 1in
 70
0
 62
5
420
255
  6
Continuous
370
25
390
F
  0
LAYER
  5
59
100
AcDbSymbolTableRecord
100
AcDbLayerTableRecord
  2
cut pwr2out
 70
0
 62
174
420
128
  6
Continuous
370
25
390
F
  0
LAYER
  5
5A
100
AcDbSymbolTableRecord
100
AcDbLayerTableRecord
  2
cut 2in
 70
0
 62
174
420
128
  6
Continuous
370
25
390
F
  0
LAYER
  5
5B
100
AcDbSymbolTableRecord
100
AcDbLayerTableRecord
  2
cut
 70
0
 62
174
420
128
  6
Continuous
370
25
390
F
  0
ENDTAB
  0
TABLE
  2
STYLE
  5
3
100
AcDbSymbolTable
 70
1
  0
STYLE
  5
5C
100
AcDbSymbolTableRecord
100
AcDbTextStyleTableRecord
  2
Standard
 70
0
 40
0.0
 41
1.0
 50
0.0
 71
0
 42
2.5
  3

  4

1001
ACAD
1000
txt
1071
0
  0
ENDTAB
  0
TABLE
  2
VIEW
  5
6
100
AcDbSymbolTable
 70
0
  0
ENDTAB
  0
TABLE
  2
UCS
  5
7
100
AcDbSymbolTable
 70
0
  0
ENDTAB
  0
TABLE
  2
APPID
  5
9
100
AcDbSymbolTable
 70
1
  0
APPID
  5
12
100
AcDbSymbolTableRecord
100
AcDbRegAppTableRecord
  2
ACAD
 70
0
  0
APPID
  5
5D
100
AcDbSymbolTableRecord
100
AcDbRegAppTableRecord
  2
QCAD
 70
0
  0
ENDTAB
  0
TABLE
  2
DIMSTYLE
  5
A
100
AcDbSymbolTable
 70
1
100
AcDbDimStyleTable
 71
0
  0
DIMSTYLE
105
27
100
AcDbSymbolTableRecord
100
AcDbDimStyleTableRecord
  2
Standard
 41
2.5
 42
0.625
 43
3.75
 44
1.25
 70
0
 73
0
 74
0
 77
1
 78
8
140
2.5
141
2.5
143
0.03937007874016
147
0.625
171
3
172
1
271
2
272
2
274
3
278
44
283
0
284
8
340
5C
  0
ENDTAB
  0
TABLE
  2
BLOCK_RECORD
  5
1
100
AcDbSymbolTable
 70
1
  0
BLOCK_RECORD
  5
1F
100
AcDbSymbolTableRecord
100
AcDbBlockTableRecord
  2
*Model_Space
340
22
  0
BLOCK_RECORD
  5
1B
100
AcDbSymbolTableRecord
100
AcDbBlockTableRecord
  2
*Paper_Space
340
1E
  0
BLOCK_RECORD
  5
23
100
AcDbSymbolTableRecord
100
AcDbBlockTableRecord
  2
*Paper_Space0
340
26
  0
BLOCK_RECORD
  5
5E
100
AcDbSymbolTableRecord
100
AcDbBlockTableRecord
  2
conn2.56x2
340
0
  0
BLOCK_RECORD
  5
5F
100
AcDbSymbolTableRecord
100
AcDbBlockTableRecord
  2
conn5x3
340
0
  0
BLOCK_RECORD
  5
60
100
AcDbSymbolTableRecord
100
AcDbBlockTableRecord
  2
conn2.54x4
340
0
  0
BLOCK_RECORD
  5
61
100
AcDbSymbolTableRecord
100
AcDbBlockTableRecord
  2
conn5x2F
340
0
  0
BLOCK_RECORD
  5
62
100
AcDbSymbolTableRecord
100
AcDbBlockTableRecord
  2
conn2.56x2F
340
0
  0
BLOCK_RECORD
  5
63
100
AcDbSymbolTableRecord
100
AcDbBlockTableRecord
  2
res
340
0
  0
BLOCK_RECORD
  5
64
100
AcDbSymbolTableRecord
100
AcDbBlockTableRecord
  2
conn5x2
340
0
  0
ENDTAB
  0
ENDSEC
  0
SECTION
  2
BLOCKS
  0
BLOCK
  5
20
100
AcDbEntity
  8
0
100
AcDbBlockBegin
  2
*Model_Space
 70
0
 10
0.0
 20
0.0
 30
0.0
  3
*Model_Space
  1

  0
ENDBLK
  5
21
100
AcDbEntity
  8
0
100
AcDbBlockEnd
  0
BLOCK
  5
1C
100
AcDbEntity
 67
1
  8
0
100
AcDbBlockBegin
  2
*Paper_Space
 70
0
 10
0.0
 20
0.0
 30
0.0
  3
*Paper_Space
  1

  0
ENDBLK
  5
1D
100
AcDbEntity
 67
1
  8
0
100
AcDbBlockEnd
  0
BLOCK
  5
24
100
AcDbEntity
  8
0
100
AcDbBlockBegin
  2
*Paper_Space0
 70
0
 10
0.0
 20
0.0
 30
0.0
  3
*Paper_Space0
  1

  0
ENDBLK
  5
25
100
AcDbEntity
  8
0
100
AcDbBlockEnd
  0
BLOCK
  5
65
100
AcDbEntity
  8
0
100
AcDbBlockBegin
  2
conn2.56x2
 70
0
 10
0.0
 20
0.0
 30
0.0
  3
conn2.56x2
  1

  0
ENDBLK
  5
66
100
AcDbEntity
  8
0
100
AcDbBlockEnd
  0
BLOCK
  5
67
100
AcDbEntity
  8
0
100
AcDbBlockBegin
  2
conn5x3
 70
0
 10
0.0
 20
0.0
 30
0.0
  3
conn5x3
  1

  0
ENDBLK
  5
68
100
AcDbEntity
  8
0
100
AcDbBlockEnd
  0
BLOCK
  5
69
100
AcDbEntity
  8
0
100
AcDbBlockBegin
  2
conn2.54x4
 70
0
 10
0.0
 20
0.0
 30
0.0
  3
conn2.54x4
  1

  0
ENDBLK
  5
6A
100
AcDbEntity
  8
0
100
AcDbBlockEnd
  0
BLOCK
  5
6B
100
AcDbEntity
  8
0
100
AcDbBlockBegin
  2
conn5x2F
 70
0
 10
0.0
 20
0.0
 30
0.0
  3
conn5x2F
  1

  0
ENDBLK
  5
6C
100
AcDbEntity
  8
0
100
AcDbBlockEnd
  0
BLOCK
  5
6D
100
AcDbEntity
  8
0
100
AcDbBlockBegin
  2
conn2.56x2F
 70
0
 10
0.0
 20
0.0
 30
0.0
  3
conn2.56x2F
  1

  0
ENDBLK
  5
6E
100
AcDbEntity
  8
0
100
AcDbBlockEnd
  0
BLOCK
  5
6F
100
AcDbEntity
  8
0
100
AcDbBlockBegin
  2
res
 70
0
 10
0.0
 20
0.0
 30
0.0
  3
res
  1

  0
ENDBLK
  5
70
100
AcDbEntity
  8
0
100
AcDbBlockEnd
  0
BLOCK
  5
71
100
AcDbEntity
  8
0
100
AcDbBlockBegin
  2
conn5x2
 70
0
 10
0.0
 20
0.0
 30
0.0
  3
conn5x2
  1

  0
ENDBLK
  5
72
100
AcDbEntity
  8
0
100
AcDbBlockEnd
  0
ENDSEC
  0
SECTION
  2
ENTITIES
  0
ARC
  5
73
100
AcDbEntity
  8
cut
 62
256
370
-1
 48
1.0
  6
BYLAYER
100
AcDbCircle
 10
-26.0000000000000071
 20
-36.0000000000000142
 30
0.0
 40
1.0
100
AcDbArc
 50
270.0
 51
0.0
  0
LINE
  5
74
100
AcDbEntity
  8
cut pwr2out
 62
256
370
-1
 48
1.0
  6
BYLAYER
100
AcDbLine
 10
-81.0
 20
-1.3819660112501282
 30
0.0
 11
-81.0
 21
-5.5699999999999363
 31
0.0
  0
LINE
  5
75
100
AcDbEntity
  8
cut 2in
 62
256
370
-1
 48
1.0
  6
BYLAYER
100
AcDbLine
 10
-7.9999999999999964
 20
-6.4999999999999218
 30
0.0
 11
0.9999999999999964
 21
-6.4999999999998934
 31
0.0
  0
LINE
  5
76
100
AcDbEntity
  8
cut 1in
 62
256
370
-1
 48
1.0
  6
BYLAYER
100
AcDbLine
 10
-8.0
 20
-6.4999999999999218
 30
0.0
 11
1.0
 21
-6.4999999999998721
 31
0.0
  0
ARC
  5
77
100
AcDbEntity
  8
0
 62
256
370
-1
 48
1.0
  6
BYLAYER
100
AcDbCircle
 10
-71.0
 20
-8.0
 30
0.0
 40
1.8999999999999999
100
AcDbArc
 50
90.0
 51
180.0
  0
LINE
  5
78
100
AcDbEntity
  8
cut pwr2out
 62
256
370
-1
 48
1.0
  6
BYLAYER
100
AcDbLine
 10
-81.0
 20
-33.7000000000000242
 30
0.0
 11
-81.0
 21
-38.6180339887498718
 31
0.0
  0
LINE
  5
79
100
AcDbEntity
  8
cut 2in
 62
256
370
-1
 48
1.0
  6
BYLAYER
100
AcDbLine
 10
0.9999999999999964
 20
-38.618033988749751
 30
0.0
 11
0.9999999999999964
 21
-19.0999999999999588
 31
0.0
  0
LINE
  5
7A
100
AcDbEntity
  8
cut 1in
 62
256
370
-1
 48
1.0
  6
BYLAYER
100
AcDbLine
 10
1.0
 20
-38.6180339887498505
 30
0.0
 11
1.0000000000000071
 21
-11.8999999999998778
 31
0.0
  0
LINE
  5
7B
100
AcDbEntity
  8
cut
 62
256
370
-1
 48
1.0
  6
BYLAYER
100
AcDbLine
 10
-26.0000000000000071
 20
-37.0
 30
0.0
 11
-54.0
 21
-37.0
 31
0.0
  0
LINE
  5
7C
100
AcDbEntity
  8
cut pwr2out
 62
256
370
-1
 48
1.0
  6
BYLAYER
100
AcDbLine
 10
-81.0
 20
-1.3819660112501282
 30
0.0
 11
-75.5527864045000115
 21
1.3416407864998519
 31
0.0
  0
LINE
  5
7D
100
AcDbEntity
  8
cut 2in
 62
256
370
-1
 48
1.0
  6
BYLAYER
100
AcDbLine
 10
1.0000000000000036
 20
-6.4999999999998863
 30
0.0
 11
0.9999999999999964
 21
-1.3819660112501069
 31
0.0
  0
LINE
  5
7E
100
AcDbEntity
  8
cut 1in
 62
256
370
-1
 48
1.0
  6
BYLAYER
100
AcDbLine
 10
1.0
 20
-6.4999999999998721
 30
0.0
 11
1.0
 21
-1.3819660112500927
 31
0.0
  0
LINE
  5
7F
100
AcDbEntity
  8
0
 62
256
370
-1
 48
1.0
  6
Continuous
100
AcDbLine
 10
-72.9000000000000057
 20
-32.0
 30
0.0
 11
-72.9000000000000057
 21
-8.0
 31
0.0
  0
LINE
  5
80
100
AcDbEntity
  8
cut pwr2out
 62
256
370
-1
 48
1.0
  6
BYLAYER
100
AcDbLine
 10
-72.0
 20
-5.569999999999979
 30
0.0
 11
-81.0
 21
-5.5699999999999363
 31
0.0
  0
LINE
  5
81
100
AcDbEntity
  8
cut 2in
 62
256
370
-1
 48
1.0
  6
BYLAYER
100
AcDbLine
 10
-7.9999999999999964
 20
-19.1000000000000405
 30
0.0
 11
0.9999999999999964
 21
-19.0999999999999588
 31
0.0
  0
LINE
  5
82
100
AcDbEntity
  8
cut 1in
 62
256
370
-1
 48
1.0
  6
BYLAYER
100
AcDbLine
 10
-8.0
 20
-11.899999999999892
 30
0.0
 11
1.0000000000000071
 21
-11.8999999999998778
 31
0.0
  0
ARC
  5
83
100
AcDbEntity
  8
cut
 62
256
370
-1
 48
1.0
  6
BYLAYER
100
AcDbCircle
 10
-54.0
 20
-36.0
 30
0.0
 40
1.0
100
AcDbArc
 50
180.0
 51
270.0
  0
LINE
  5
84
100
AcDbEntity
  8
cut pwr2out
 62
256
370
-1
 48
1.0
  6
BYLAYER
100
AcDbLine
 10
-72.0
 20
-33.7000000000000028
 30
0.0
 11
-81.0
 21
-33.7000000000000171
 31
0.0
  0
LINE
  5
85
100
AcDbEntity
  8
cut 2in
 62
256
370
-1
 48
1.0
  6
BYLAYER
100
AcDbLine
 10
-7.9999999999999964
 20
-19.1000000000000405
 30
0.0
 11
-8.0000000000000036
 21
-18.5999999999997847
 31
0.0
  0
LINE
  5
86
100
AcDbEntity
  8
cut 1in
 62
256
370
-1
 48
1.0
  6
BYLAYER
100
AcDbLine
 10
-15.7999999999999972
 20
-8.0876376102805665
 30
0.0
 11
-15.8000000000000114
 21
-10.4876376102804443
 31
0.0
  0
LINE
  5
87
100
AcDbEntity
  8
0
 62
256
370
-1
 48
1.0
  6
Continuous
100
AcDbLine
 10
-71.0
 20
-6.0999999999999943
 30
0.0
 11
-65.1961520000000121
 21
-6.0999999999999943
 31
0.0
  0
LINE
  5
88
100
AcDbEntity
  8
cut pwr2out
 62
256
370
-1
 48
1.0
  6
BYLAYER
100
AcDbLine
 10
-70.5
 20
-7.0
 30
0.0
 11
-65.196152422706632
 21
-6.9999999999999929
 31
0.0
  0
LINE
  5
89
100
AcDbEntity
  8
cut 2in
 62
256
370
-1
 48
1.0
  6
BYLAYER
100
AcDbLine
 10
-15.8000000000000007
 20
-8.0876376102805736
 30
0.0
 11
-15.8000000000000114
 21
-17.5999999999998948
 31
0.0
  0
ARC
  5
8A
100
AcDbEntity
  8
cut 1in
 62
256
370
-1
 48
1.0
  6
BYLAYER
100
AcDbCircle
 10
-14.8038475772933573
 20
-8.0000000000000071
 30
0.0
 40
1.0
100
AcDbArc
 50
90.0
 51
185.0277150252509557
  0
LINE
  5
8B
100
AcDbEntity
  8
cut
 62
256
370
-1
 48
1.0
  6
BYLAYER
100
AcDbLine
 10
-55.0
 20
-36.0
 30
0.0
 11
-55.0
 21
-4.0
 31
0.0
  0
LINE
  5
8C
100
AcDbEntity
  8
cut pwr2out
 62
256
370
-1
 48
1.0
  6
BYLAYER
100
AcDbLine
 10
-81.0
 20
-38.6180339887498505
 30
0.0
 11
-75.5527864045000115
 21
-41.3416407864998519
 31
0.0
  0
ARC
  5
8D
100
AcDbEntity
  8
cut 2in
 62
256
370
-1
 48
1.0
  6
BYLAYER
100
AcDbCircle
 10
-14.803847577293368
 20
-8.0000000000000071
 30
0.0
 40
1.0
100
AcDbArc
 50
90.0
 51
185.0277150252509557
  0
ARC
  5
8E
100
AcDbEntity
  8
cut 1in
 62
256
370
-1
 48
1.0
  6
BYLAYER
100
AcDbCircle
 10
-14.8038475772933573
 20
-10.3999999999997925
 30
0.0
 40
1.0
100
AcDbArc
 50
185.0277150252562137
 51
270.0
  0
ARC
  5
8F
100
AcDbEntity
  8
0
 62
256
370
-1
 48
1.0
  6
BYLAYER
100
AcDbCircle
 10
-71.0
 20
-32.0
 30
0.0
 40
1.8999999999999999
100
AcDbArc
 50
-180.0
 51
-90.0
  0
ARC
  5
90
100
AcDbEntity
  8
cut pwr2out
 62
256
370
-1
 48
1.0
  6
BYLAYER
100
AcDbCircle
 10
-65.196152422706632
 20
-7.9999999999999858
 30
0.0
 40
1.0
100
AcDbArc
 50
354.9722849747448663
 51
90.0
  0
LINE
  5
91
100
AcDbEntity
  8
cut 1in
 62
256
370
-1
 48
1.0
  6
BYLAYER
100
AcDbLine
 10
1.0000000000000142
 20
-1.3819660112501424
 30
0.0
 11
-4.4472135954999885
 21
1.3416407864998661
 31
0.0
  0
ARC
  5
92
100
AcDbEntity
  8
cut
 62
256
370
-1
 48
1.0
  6
BYLAYER
100
AcDbCircle
 10
-53.9999999999999929
 20
-3.9999999999999858
 30
0.0
 40
1.0
100
AcDbArc
 50
90.0
 51
180.0
  0
LINE
  5
93
100
AcDbEntity
  8
cut pwr2out
 62
256
370
-1
 48
1.0
  6
BYLAYER
100
AcDbLine
 10
-64.1999999999999886
 20
-8.0876376102806091
 30
0.0
 11
-64.2000000000000028
 21
-31.9123623897203288
 31
0.0
  0
LINE
  5
94
100
AcDbEntity
  8
cut 2in
 62
256
370
-1
 48
1.0
  6
BYLAYER
100
AcDbLine
 10
-8.0000000000000036
 20
-7.0000000000000924
 30
0.0
 11
-14.8038475772933715
 21
-6.9999999999999716
 31
0.0
  0
LINE
  5
95
100
AcDbEntity
  8
cut 1in
 62
256
370
-1
 48
1.0
  6
BYLAYER
100
AcDbLine
 10
-8.5000000000000071
 20
-7.0
 30
0.0
 11
-14.8038475772933644
 21
-6.9999999999999787
 31
0.0
  0
LINE
  5
96
100
AcDbEntity
  8
0
 62
256
370
-1
 48
1.0
  6
Continuous
100
AcDbLine
 10
-71.0
 20
-33.8999999999999915
 30
0.0
 11
-65.1961520000000121
 21
-33.8999999999999915
 31
0.0
  0
ARC
  5
97
100
AcDbEntity
  8
cut pwr2out
 62
256
370
-1
 48
1.0
  6
BYLAYER
100
AcDbCircle
 10
-65.196152422706632
 20
-32.0
 30
0.0
 40
1.0
100
AcDbArc
 50
270.0
 51
5.0277150252007718
  0
LINE
  5
98
100
AcDbEntity
  8
cut 2in
 62
256
370
-1
 48
1.0
  6
BYLAYER
100
AcDbLine
 10
-8.0000000000000036
 20
-18.5999999999997847
 30
0.0
 11
-14.7999999999999936
 21
-18.5999999999998806
 31
0.0
  0
LINE
  5
99
100
AcDbEntity
  8
cut 1in
 62
256
370
-1
 48
1.0
  6
BYLAYER
100
AcDbLine
 10
-8.5
 20
-11.3999999999998067
 30
0.0
 11
-14.8038475772933609
 21
-11.399999999999828
 31
0.0
  0
LINE
  5
9A
100
AcDbEntity
  8
cut
 62
256
370
-1
 48
1.0
  6
BYLAYER
100
AcDbLine
 10
-26.0
 20
-3.0
 30
0.0
 11
-53.9999999999999929
 21
-2.9999999999999929
 31
0.0
  0
LINE
  5
9B
100
AcDbEntity
  8
cut pwr2out
 62
256
370
-1
 48
1.0
  6
BYLAYER
100
AcDbLine
 10
-65.196152422706632
 20
-33.0
 30
0.0
 11
-71.2999999999999972
 21
-33.0
 31
0.0
  0
LINE
  5
9C
100
AcDbEntity
  8
cut 2in
 62
256
370
-1
 48
1.0
  6
BYLAYER
100
AcDbLine
 10
0.9999999999999964
 20
-38.618033988749751
 30
0.0
 11
-4.4472135954999921
 21
-41.3416407864998803
 31
0.0
  0
LINE
  5
9D
100
AcDbEntity
  8
cut 1in
 62
256
370
-1
 48
1.0
  6
BYLAYER
100
AcDbLine
 10
1.0
 20
-38.6180339887498505
 30
0.0
 11
-4.4472135954999885
 21
-41.3416407865000295
 31
0.0
  0
ARC
  5
9E
100
AcDbEntity
  8
0
 62
256
370
-1
 48
1.0
  6
BYLAYER
100
AcDbCircle
 10
-65.1962000000000046
 20
-8.0
 30
0.0
 40
1.9000000006063156
100
AcDbArc
 50
29.9992803099999925
 51
89.9985525299999978
  0
LINE
  5
9F
100
AcDbEntity
  8
cut pwr2out
 62
256
370
-1
 48
1.0
  6
BYLAYER
100
AcDbLine
 10
-71.2999999999999972
 20
-33.0
 30
0.0
 11
-72.0
 21
-33.7000000000000028
 31
0.0
  0
LINE
  5
A0
100
AcDbEntity
  8
cut 2in
 62
256
370
-1
 48
1.0
  6
BYLAYER
100
AcDbLine
 10
-8.0000000000000036
 20
-7.0000000000000924
 30
0.0
 11
-7.9999999999999964
 21
-6.4999999999999218
 31
0.0
  0
LINE
  5
A1
100
AcDbEntity
  8
cut 1in
 62
256
370
-1
 48
1.0
  6
BYLAYER
100
AcDbLine
 10
-8.5000000000000071
 20
-7.0
 30
0.0
 11
-8.0
 21
-6.4999999999999218
 31
0.0
  0
ARC
  5
A2
100
AcDbEntity
  8
cut
 62
256
370
-1
 48
1.0
  6
BYLAYER
100
AcDbCircle
 10
-26.0
 20
-4.0
 30
0.0
 40
1.0
100
AcDbArc
 50
0.0
 51
90.0
  0
LINE
  5
A3
100
AcDbEntity
  8
cut pwr2out
 62
256
370
-1
 48
1.0
  6
BYLAYER
100
AcDbLine
 10
-70.5
 20
-7.0
 30
0.0
 11
-72.0
 21
-5.569999999999979
 31
0.0
  0
ARC
  5
A4
100
AcDbEntity
  8
cut 2in
 62
256
370
-1
 48
1.0
  6
BYLAYER
100
AcDbCircle
 10
-14.8000000000000149
 20
-17.5999999999998806
 30
0.0
 40
1.0
100
AcDbArc
 50
180.0
 51
270.0000000000007958
  0
LINE
  5
A5
100
AcDbEntity
  8
cut 1in
 62
256
370
-1
 48
1.0
  6
BYLAYER
100
AcDbLine
 10
-8.5
 20
-11.3999999999998067
 30
0.0
 11
-7.9999999999999929
 21
-11.8999999999998778
 31
0.0
  0
ARC
  5
A6
100
AcDbEntity
  8
0
 62
256
370
-1
 48
1.0
  6
BYLAYER
100
AcDbCircle
 10
-65.1961000000000013
 20
-32.0000999999999891
 30
0.0
 40
1.8999047362475834
100
AcDbArc
 50
-90.0015681800000209
 51
-29.9981764300000009
  0
LINE
  5
A7
100
AcDbEntity
  8
cut
 62
256
370
-1
 48
1.0
  6
BYLAYER
100
AcDbLine
 10
-24.9999999999999893
 20
-4.0000000000000071
 30
0.0
 11
-24.9999999999999964
 21
-36.0
 31
0.0
  0
ARC
  5
A8
100
AcDbEntity
  8
0
 62
256
370
-1
 48
1.0
  6
BYLAYER
100
AcDbCircle
 10
-60.0
 20
-35.0
 30
0.0
 40
4.0999998653190222
100
AcDbArc
 50
0.0
 51
149.999998909999988
  0
CIRCLE
  5
A9
100
AcDbEntity
  8
cut
 62
256
370
-1
 48
1.0
  6
BYLAYER
100
AcDbCircle
 10
-11.9999999999999964
 20
-3.4999999999999787
 30
0.0
 40
0.6000000000000001
  0
LINE
  5
AA
100
AcDbEntity
  8
0
 62
256
370
-1
 48
1.0
  6
Continuous
100
AcDbLine
 10
-55.9000000000000057
 20
-4.0
 30
0.0
 11
-55.9000000000000057
 21
-5.0
 31
0.0
  0
CIRCLE
  5
AB
100
AcDbEntity
  8
cut
 62
256
370
-1
 48
1.0
  6
BYLAYER
100
AcDbCircle
 10
-19.9999999999999929
 20
-4.9999999999999787
 30
0.0
 40
0.6000000000000001
  0
ARC
  5
AC
100
AcDbEntity
  8
0
 62
256
370
-1
 48
1.0
  6
BYLAYER
100
AcDbCircle
 10
-54.0
 20
-4.0
 30
0.0
 40
1.8999999999999999
100
AcDbArc
 50
90.0
 51
180.0
  0
CIRCLE
  5
AD
100
AcDbEntity
  8
cut
 62
256
370
-1
 48
1.0
  6
BYLAYER
100
AcDbCircle
 10
-12.0000000000000071
 20
-36.4999999999999716
 30
0.0
 40
0.6000000000000001
  0
ARC
  5
AE
100
AcDbEntity
  8
0
 62
256
370
-1
 48
1.0
  6
BYLAYER
100
AcDbCircle
 10
-60.0
 20
-5.0
 30
0.0
 40
4.0999999999999996
100
AcDbArc
 50
-149.999998909999988
 51
-0.0
  0
POINT
  5
AF
100
AcDbEntity
  8
0
 62
256
370
-1
 48
1.0
  6
BYLAYER
100
AcDbPoint
 10
-40.0
 20
-20.0
 30
0.0
  0
CIRCLE
  5
B0
100
AcDbEntity
  8
cut
 62
256
370
-1
 48
1.0
  6
BYLAYER
100
AcDbCircle
 10
-20.0000000000000036
 20
-34.9999999999999716
 30
0.0
 40
0.6000000000000001
  0
LINE
  5
B1
100
AcDbEntity
  8
0
 62
256
370
-1
 48
1.0
  6
Continuous
100
AcDbLine
 10
-55.9000000000000057
 20
-36.0
 30
0.0
 11
-55.9000000000000057
 21
-35.0
 31
0.0
  0
CIRCLE
  5
B2
100
AcDbEntity
  8
cut
 62
256
370
-1
 48
1.0
  6
BYLAYER
100
AcDbCircle
 10
-60.0
 20
-34.9999999999999716
 30
0.0
 40
0.6000000000000001
  0
ARC
  5
B3
100
AcDbEntity
  8
0
 62
256
370
-1
 48
1.0
  6
BYLAYER
100
AcDbCircle
 10
-54.0
 20
-36.0
 30
0.0
 40
1.8999999999999999
100
AcDbArc
 50
-180.0
 51
-90.0
  0
CIRCLE
  5
B4
100
AcDbEntity
  8
cut
 62
256
370
-1
 48
1.0
  6
BYLAYER
100
AcDbCircle
 10
-68.0
 20
-36.4999999999999716
 30
0.0
 40
0.6000000000000001
  0
CIRCLE
  5
B5
100
AcDbEntity
  8
cut
 62
256
370
-1
 48
1.0
  6
BYLAYER
100
AcDbCircle
 10
-68.0
 20
-3.4999999999999574
 30
0.0
 40
0.6000000000000001
  0
CIRCLE
  5
B6
100
AcDbEntity
  8
cut
 62
256
370
-1
 48
1.0
  6
BYLAYER
100
AcDbCircle
 10
-60.0000000000000142
 20
-4.9999999999999858
 30
0.0
 40
0.6000000000000001
  0
LINE
  5
B7
100
AcDbEntity
  8
0
 62
256
370
-1
 48
1.0
  6
Continuous
100
AcDbLine
 10
-26.0
 20
-2.0999999999999943
 30
0.0
 11
-54.0
 21
-2.0999999999999943
 31
0.0
  0
ARC
  5
B8
100
AcDbEntity
  8
0
 62
256
370
-1
 48
1.0
  6
BYLAYER
100
AcDbCircle
 10
-26.0
 20
-4.0
 30
0.0
 40
1.8999999999999999
100
AcDbArc
 50
0.0
 51
90.0
  0
LINE
  5
B9
100
AcDbEntity
  8
0
 62
256
370
-1
 48
1.0
  6
Continuous
100
AcDbLine
 10
-26.0
 20
-37.8999999999999915
 30
0.0
 11
-54.0
 21
-37.8999999999999915
 31
0.0
  0
LINE
  5
BA
100
AcDbEntity
  8
cut 2in
 62
256
370
-1
 48
1.0
  6
BYLAYER
100
AcDbLine
 10
1.0000000000000213
 20
-1.3819660112501566
 30
0.0
 11
-4.4472135954999956
 21
1.3416407864998874
 31
0.0
  0
LINE
  5
BB
100
AcDbEntity
  8
0
 62
256
370
-1
 48
1.0
  6
Continuous
100
AcDbLine
 10
-24.0999999999999943
 20
-4.0
 30
0.0
 11
-24.0999999999999943
 21
-5.0
 31
0.0
  0
ARC
  5
BC
100
AcDbEntity
  8
0
 62
256
370
-1
 48
1.0
  6
BYLAYER
100
AcDbCircle
 10
-20.0
 20
-35.0
 30
0.0
 40
4.0999999999999996
100
AcDbArc
 50
30.0000010900000049
 51
180.0
  0
ARC
  5
BD
100
AcDbEntity
  8
0
 62
256
370
-1
 48
1.0
  6
BYLAYER
100
AcDbCircle
 10
-26.0
 20
-36.0
 30
0.0
 40
1.8999999999999999
100
AcDbArc
 50
-90.0
 51
-0.0
  0
LINE
  5
BE
100
AcDbEntity
  8
cut_2mm
 62
256
370
-1
 48
1.0
  6
BYLAYER
100
AcDbLine
 10
-8.0
 20
-32.0000000000000071
 30
0.0
 11
-7.9999999999999929
 21
-8.0000000000000107
 31
0.0
  0
LINE
  5
BF
100
AcDbEntity
  8
0
 62
256
370
-1
 48
1.0
  6
Continuous
100
AcDbLine
 10
-24.0999999999999943
 20
-36.0
 30
0.0
 11
-24.0999999999999943
 21
-35.0
 31
0.0
  0
ARC
  5
C0
100
AcDbEntity
  8
0
 62
256
370
-1
 48
1.0
  6
BYLAYER
100
AcDbCircle
 10
-20.0
 20
-5.0
 30
0.0
 40
4.0999998653190222
100
AcDbArc
 50
-180.0
 51
-30.0000010900000049
  0
LINE
  5
C1
100
AcDbEntity
  8
cut_2mm
 62
256
370
-1
 48
1.0
  6
BYLAYER
100
AcDbLine
 10
-8.9999999999999822
 20
-7.0
 30
0.0
 11
-14.803847577293368
 21
-6.9999999999999858
 31
0.0
  0
ARC
  5
C2
100
AcDbEntity
  8
0
 62
256
370
-1
 48
1.0
  6
BYLAYER
100
AcDbCircle
 10
-14.8038999999999987
 20
-7.9998999999999967
 30
0.0
 40
1.8999047362475834
100
AcDbArc
 50
89.9984318199999933
 51
150.0018235699999991
  0
ARC
  5
C3
100
AcDbEntity
  8
0
 62
256
370
-1
 48
1.0
  6
BYLAYER
100
AcDbCircle
 10
-14.8037999999999954
 20
-31.9997999999999934
 30
0.0
 40
1.9002000006062518
100
AcDbArc
 50
-149.9954969300000016
 51
-90.0014473199999827
  0
ARC
  5
C4
100
AcDbEntity
  8
cut_2mm
 62
256
370
-1
 48
1.0
  6
BYLAYER
100
AcDbCircle
 10
-14.8038475772933644
 20
-7.9999999999999858
 30
0.0
 40
1.0
100
AcDbArc
 50
90.0
 51
149.9999999999999716
  0
LINE
  5
C5
100
AcDbEntity
  8
0
 62
256
370
-1
 48
1.0
  6
Continuous
100
AcDbLine
 10
-9.0
 20
-6.0999999999999943
 30
0.0
 11
-14.8038480000000163
 21
-6.0999999999999943
 31
0.0
  0
ARC
  5
C6
100
AcDbEntity
  8
0
 62
256
370
-1
 48
1.0
  6
BYLAYER
100
AcDbCircle
 10
-9.0
 20
-8.0
 30
0.0
 40
1.8999999999999999
100
AcDbArc
 50
0.0
 51
90.0
  0
ARC
  5
C7
100
AcDbEntity
  8
cut_2mm
 62
256
370
-1
 48
1.0
  6
BYLAYER
100
AcDbCircle
 10
-14.803847577293368
 20
-32.0000000000000213
 30
0.0
 40
1.0
100
AcDbArc
 50
210.0000000000001421
 51
270.0
  0
LINE
  5
C8
100
AcDbEntity
  8
0
 62
256
370
-1
 48
1.0
  6
Continuous
100
AcDbLine
 10
-9.0
 20
-33.8999999999999915
 30
0.0
 11
-14.8038480000000163
 21
-33.8999999999999915
 31
0.0
  0
ARC
  5
C9
100
AcDbEntity
  8
0
 62
256
370
-1
 48
1.0
  6
BYLAYER
100
AcDbCircle
 10
-9.0
 20
-32.0
 30
0.0
 40
1.8999999999999999
100
AcDbArc
 50
-90.0
 51
-0.0
  0
LINE
  5
CA
100
AcDbEntity
  8
cut_2mm
 62
256
370
-1
 48
1.0
  6
BYLAYER
100
AcDbLine
 10
-14.803847577293368
 20
-33.0
 30
0.0
 11
-8.9999999999999858
 21
-32.9999999999999787
 31
0.0
  0
LINE
  5
CB
100
AcDbEntity
  8
0
 62
256
370
-1
 48
1.0
  6
Continuous
100
AcDbLine
 10
-7.0999999999999943
 20
-32.0
 30
0.0
 11
-7.0999999999999943
 21
-8.0
 31
0.0
  0
ARC
  5
CC
100
AcDbEntity
  8
cut_2mm
 62
256
370
-1
 48
1.0
  6
BYLAYER
100
AcDbCircle
 10
-60.0000000000000071
 20
-35.0
 30
0.0
 40
5.0
100
AcDbArc
 50
0.0
 51
147.1401196211110118
  0
ARC
  5
CD
100
AcDbEntity
  8
cut_2mm
 62
256
370
-1
 48
1.0
  6
BYLAYER
100
AcDbCircle
 10
-19.9999999999999929
 20
-35.0
 30
0.0
 40
5.0
100
AcDbArc
 50
30.0000000000000036
 51
180.0
  0
ARC
  5
CE
100
AcDbEntity
  8
cut_2mm
 62
256
370
-1
 48
1.0
  6
BYLAYER
100
AcDbCircle
 10
-60.0
 20
-4.9999999999999929
 30
0.0
 40
5.0
100
AcDbArc
 50
212.8598803788893576
 51
0.0
  0
ARC
  5
CF
100
AcDbEntity
  8
cut_2mm
 62
256
370
-1
 48
1.0
  6
BYLAYER
100
AcDbCircle
 10
-20.0000000000000036
 20
-4.9999999999999893
 30
0.0
 40
5.0
100
AcDbArc
 50
180.0
 51
330.0000000000001705
  0
LINE
  5
D0
100
AcDbEntity
  8
cut_2mm
 62
256
370
-1
 48
1.0
  6
BYLAYER
100
AcDbLine
 10
-62.6999999999999815
 20
-11.022457969965421
 30
0.0
 11
-62.7000000000000028
 21
-27.3632467631852805
 31
0.0
  0
LINE
  5
D1
100
AcDbEntity
  8
cut_2mm
 62
256
370
-1
 48
1.0
  6
BYLAYER
100
AcDbLine
 10
-17.3000000000000185
 20
-11.0224579699654228
 30
0.0
 11
-17.2999999999999972
 21
-27.3632467631853089
 31
0.0
  0
LINE
  5
D2
100
AcDbEntity
  8
cut_2mm
 62
256
370
-1
 48
1.0
  6
BYLAYER
100
AcDbLine
 10
-56.5000000000000071
 20
-10.5955339334151084
 30
0.0
 11
-56.5000000000000071
 21
-29.4044660665848987
 31
0.0
  0
LINE
  5
D3
100
AcDbEntity
  8
cut_2mm
 62
256
370
-1
 48
1.0
  6
BYLAYER
100
AcDbLine
 10
-23.4999999999999929
 20
-10.5955339334151084
 30
0.0
 11
-23.4999999999999929
 21
-29.4044660665849271
 31
0.0
  0
LINE
  5
D4
100
AcDbEntity
  8
cut_2mm
 62
256
370
-1
 48
1.0
  6
BYLAYER
100
AcDbLine
 10
-58.0
 20
-11.2896740774065307
 30
0.0
 11
-58.0000000000000142
 21
-27.1507962187238263
 31
0.0
  0
LINE
  5
D5
100
AcDbEntity
  8
cut_2mm
 62
256
370
-1
 48
1.0
  6
BYLAYER
100
AcDbLine
 10
-21.9999999999999964
 20
-11.2896740774065343
 30
0.0
 11
-21.9999999999999858
 21
-27.1507962187238228
 31
0.0
  0
LINE
  5
D6
100
AcDbEntity
  8
cut_2mm
 62
256
370
-1
 48
1.0
  6
BYLAYER
100
AcDbLine
 10
-61.1999999999999886
 20
-11.4899922958351759
 30
0.0
 11
-61.1999999999999957
 21
-26.9893820463087835
 31
0.0
  0
LINE
  5
D7
100
AcDbEntity
  8
cut_2mm
 62
256
370
-1
 48
1.0
  6
BYLAYER
100
AcDbLine
 10
-18.8000000000000043
 20
-11.489992295835183
 30
0.0
 11
-18.8000000000000043
 21
-26.989382046308787
 31
0.0
  0
LINE
  5
D8
100
AcDbEntity
  8
cut_2mm
 62
256
370
-1
 48
1.0
  6
BYLAYER
100
AcDbLine
 10
-59.5999999999999943
 20
-11.5878676368002349
 30
0.0
 11
-59.5999999999999943
 21
-26.9098825719276391
 31
0.0
  0
LINE
  5
D9
100
AcDbEntity
  8
cut_2mm
 62
256
370
-1
 48
1.0
  6
BYLAYER
100
AcDbLine
 10
-20.3999999999999986
 20
-11.5878676368002367
 30
0.0
 11
-20.4000000000000057
 21
-26.9098825719276533
 31
0.0
  0
ARC
  5
DA
100
AcDbEntity
  8
cut_2mm
 62
256
370
-1
 48
1.0
  6
BYLAYER
100
AcDbCircle
 10
-60.0000000000000071
 20
-35.0
 30
0.0
 40
6.5999999999999996
100
AcDbArc
 50
57.974068349821394
 51
114.1477399170222355
  0
ARC
  5
DB
100
AcDbEntity
  8
cut_2mm
 62
256
370
-1
 48
1.0
  6
BYLAYER
100
AcDbCircle
 10
-19.9999999999999929
 20
-35.0
 30
0.0
 40
6.5999999999999996
100
AcDbArc
 50
32.0259316501785847
 51
122.0259316501786202
  0
ARC
  5
DC
100
AcDbEntity
  8
cut_2mm
 62
256
370
-1
 48
1.0
  6
BYLAYER
100
AcDbCircle
 10
-60.0
 20
-4.9999999999999929
 30
0.0
 40
6.5999999999999996
100
AcDbArc
 50
287.6397013942360559
 51
302.0259316501785065
  0
ARC
  5
DD
100
AcDbEntity
  8
cut_2mm
 62
256
370
-1
 48
1.0
  6
BYLAYER
100
AcDbCircle
 10
-20.0000000000000036
 20
-4.9999999999999893
 30
0.0
 40
6.5999999999999996
100
AcDbArc
 50
237.9740683498214651
 51
252.3602986057639441
  0
ARC
  5
DE
100
AcDbEntity
  8
cut_2mm
 62
256
370
-1
 48
1.0
  6
BYLAYER
100
AcDbCircle
 10
-60.0
 20
-4.9999999999999929
 30
0.0
 40
6.5999999999999996
100
AcDbArc
 50
259.5243183036102437
 51
273.4746007930722271
  0
ARC
  5
DF
100
AcDbEntity
  8
cut_2mm
 62
256
370
-1
 48
1.0
  6
BYLAYER
100
AcDbCircle
 10
-20.0000000000000036
 20
-4.9999999999999893
 30
0.0
 40
6.5999999999999996
100
AcDbArc
 50
294.1477399170221361
 51
309.5211963586420438
  0
ARC
  5
E0
100
AcDbEntity
  8
cut_2mm
 62
256
370
-1
 48
1.0
  6
BYLAYER
100
AcDbCircle
 10
-20.0000000000000036
 20
-4.9999999999999893
 30
0.0
 40
6.5999999999999996
100
AcDbArc
 50
266.5253992069277729
 51
280.4756816963897563
  0
POINT
  5
E1
100
AcDbEntity
  8
cut
 62
256
370
-1
 48
1.0
  6
BYLAYER
100
AcDbPoint
 10
-60.0
 20
-20.0
 30
0.0
  0
POINT
  5
E2
100
AcDbEntity
  8
cut
 62
256
370
-1
 48
1.0
  6
BYLAYER
100
AcDbPoint
 10
-20.0
 20
-20.0
 30
0.0
  0
ARC
  5
E3
100
AcDbEntity
  8
cut_2mm
 62
256
370
-1
 48
1.0
  6
BYLAYER
100
AcDbCircle
 10
-8.9999999999999858
 20
-8.0
 30
0.0
 40
1.0
100
AcDbArc
 50
0.0
 51
90.0
  0
ARC
  5
E4
100
AcDbEntity
  8
cut_2mm
 62
256
370
-1
 48
1.0
  6
BYLAYER
100
AcDbCircle
 10
-8.9999999999999858
 20
-31.9999999999999893
 30
0.0
 40
1.0
100
AcDbArc
 50
270.0
 51
0.0
  0
LINE
  5
E5
100
AcDbEntity
  8
cut_2mm
 62
256
370
-1
 48
1.0
  6
BYLAYER
100
AcDbLine
 10
-64.1999999999999886
 20
-7.7129319932501197
 30
0.0
 11
-64.2000000000000028
 21
-32.2870680067499052
 31
0.0
  0
LINE
  5
E6
100
AcDbEntity
  8
cut_2mm
 62
256
370
-1
 48
1.0
  6
BYLAYER
100
AcDbLine
 10
-15.8000000000000043
 20
-10.091168824543157
 30
0.0
 11
-15.7999999999999972
 21
-28.0739621716309244
 31
0.0
  0
LINE
  5
E7
100
AcDbEntity
  8
cut_2mm
 62
256
370
-1
 48
1.0
  6
BYLAYER
100
AcDbLine
 10
-14.3000000000000185
 20
-8.5
 30
0.0
 11
-14.2999999999999972
 21
-29.245002172024769
 31
0.0
  0
LINE
  5
E8
100
AcDbEntity
  8
cut_2mm
 62
256
370
-1
 48
1.0
  6
BYLAYER
100
AcDbLine
 10
-12.8000000000000185
 20
-8.5
 30
0.0
 11
-12.7999999999999972
 21
-30.0
 31
0.0
  0
LINE
  5
E9
100
AcDbEntity
  8
cut_2mm
 62
256
370
-1
 48
1.0
  6
BYLAYER
100
AcDbLine
 10
-11.3000000000000007
 20
-8.5000000000000071
 30
0.0
 11
-11.2999999999999972
 21
-30.0
 31
0.0
  0
LINE
  5
EA
100
AcDbEntity
  8
cut_2mm
 62
256
370
-1
 48
1.0
  6
BYLAYER
100
AcDbLine
 10
-9.8000000000000078
 20
-8.5000000000000142
 30
0.0
 11
-9.7999999999999972
 21
-31.5000000000000355
 31
0.0
  0
LINE
  5
EB
100
AcDbEntity
  8
cut_2mm
 62
256
370
-1
 48
1.0
  6
BYLAYER
100
AcDbLine
 10
-9.8000000000000078
 20
-8.5000000000000142
 30
0.0
 11
-11.3000000000000007
 21
-8.5000000000000071
 31
0.0
  0
LINE
  5
EC
100
AcDbEntity
  8
cut_2mm
 62
256
370
-1
 48
1.0
  6
BYLAYER
100
AcDbLine
 10
-12.8000000000000185
 20
-8.5
 30
0.0
 11
-14.3000000000000185
 21
-8.5
 31
0.0
  0
LINE
  5
ED
100
AcDbEntity
  8
cut_2mm
 62
256
370
-1
 48
1.0
  6
BYLAYER
100
AcDbLine
 10
-14.404466066584888
 20
-31.5000000000000071
 30
0.0
 11
-9.8000000000000114
 21
-31.5000000000000355
 31
0.0
  0
ARC
  5
EE
100
AcDbEntity
  8
cut_2mm
 62
256
370
-1
 48
1.0
  6
BYLAYER
100
AcDbCircle
 10
-60.0000000000000071
 20
-35.0
 30
0.0
 40
8.0999999999999996
100
AcDbArc
 50
98.5196242541429683
 51
109.4712206344906349
  0
ARC
  5
EF
100
AcDbEntity
  8
cut_2mm
 62
256
370
-1
 48
1.0
  6
BYLAYER
100
AcDbCircle
 10
-19.9999999999999929
 20
-35.0
 30
0.0
 40
8.0999999999999996
100
AcDbArc
 50
70.5287793655093509
 51
81.4803757458570175
  0
ARC
  5
F0
100
AcDbEntity
  8
cut_2mm
 62
256
370
-1
 48
1.0
  6
BYLAYER
100
AcDbCircle
 10
-19.9999999999999929
 20
-35.0
 30
0.0
 40
8.0999999999999996
100
AcDbArc
 50
45.2750868450662693
 51
58.7670709844868142
  0
ARC
  5
F1
100
AcDbEntity
  8
cut_2mm
 62
256
370
-1
 48
1.0
  6
BYLAYER
100
AcDbCircle
 10
-60.0000000000000071
 20
-35.0
 30
0.0
 40
8.0999999999999996
100
AcDbArc
 50
75.7050513785753623
 51
87.1694275297246008
  0
ARC
  5
F2
100
AcDbEntity
  8
cut_2mm
 62
256
370
-1
 48
1.0
  6
BYLAYER
100
AcDbCircle
 10
-19.9999999999999929
 20
-35.0
 30
0.0
 40
8.0999999999999996
100
AcDbArc
 50
92.8305724702753992
 51
104.2949486214246235
  0
LINE
  5
F3
100
AcDbEntity
  8
cut_2mm
 62
256
370
-1
 48
1.0
  6
BYLAYER
100
AcDbLine
 10
-12.7999999999999972
 20
-30.0
 30
0.0
 11
-11.3000000000000114
 21
-30.0
 31
0.0
  0
LINE
  5
F4
100
AcDbEntity
  8
cut_2mm
 62
256
370
-1
 48
1.0
  6
BYLAYER
100
AcDbLine
 10
-55.0
 20
-4.9999999999999929
 30
0.0
 11
-55.0000000000000071
 21
-35.0
 31
0.0
  0
LINE
  5
F5
100
AcDbEntity
  8
cut_2mm
 62
256
370
-1
 48
1.0
  6
BYLAYER
100
AcDbLine
 10
-24.9999999999999929
 20
-35.0
 30
0.0
 11
-25.0000000000000036
 21
-4.9999999999999885
 31
0.0
  0
LINE
  5
F6
100
AcDbEntity
  8
0
 62
256
370
-1
 48
1.0
  6
BYLAYER
100
AcDbLine
 10
-76.0
 20
-39.9999999999999716
 30
0.0
 11
-4.0
 21
-40.0
 31
0.0
  0
LINE
  5
F7
100
AcDbEntity
  8
0
 62
256
370
-1
 48
1.0
  6
BYLAYER
100
AcDbLine
 10
-4.0
 20
0.0
 30
0.0
 11
-76.0
 21
0.0
 31
0.0
  0
LINE
  5
F8
100
AcDbEntity
  8
0
 62
256
370
-1
 48
1.0
  6
BYLAYER
100
AcDbLine
 10
-80.0
 20
-2.0
 30
0.0
 11
-80.0
 21
-37.9999999999999716
 31
0.0
  0
LINE
  5
F9
100
AcDbEntity
  8
0
 62
256
370
-1
 48
1.0
  6
BYLAYER
100
AcDbLine
 10
0.0
 20
-2.0
 30
0.0
 11
0.0
 21
-38.0
 31
0.0
  0
CIRCLE
  5
FA
100
AcDbEntity
  8
0
 62
256
370
-1
 48
1.0
  6
BYLAYER
100
AcDbCircle
 10
-60.0
 20
-5.0
 30
0.0
 40
1.6000000000000001
  0
CIRCLE
  5
FB
100
AcDbEntity
  8
0
 62
256
370
-1
 48
1.0
  6
BYLAYER
100
AcDbCircle
 10
-12.0
 20
-36.5
 30
0.0
 40
1.25
  0
CIRCLE
  5
FC
100
AcDbEntity
  8
0
 62
256
370
-1
 48
1.0
  6
BYLAYER
100
AcDbCircle
 10
-68.0
 20
-36.5
 30
0.0
 40
1.25
  0
CIRCLE
  5
FD
100
AcDbEntity
  8
0
 62
256
370
-1
 48
1.0
  6
BYLAYER
100
AcDbCircle
 10
-60.0
 20
-35.0
 30
0.0
 40
1.6000000000000001
  0
CIRCLE
  5
FE
100
AcDbEntity
  8
0
 62
256
370
-1
 48
1.0
  6
BYLAYER
100
AcDbCircle
 10
-20.0
 20
-35.0
 30
0.0
 40
1.6000000000000001
  0
CIRCLE
  5
FF
100
AcDbEntity
  8
0
 62
256
370
-1
 48
1.0
  6
BYLAYER
100
AcDbCircle
 10
-20.0
 20
-5.0
 30
0.0
 40
1.6000000000000001
  0
CIRCLE
  5
100
100
AcDbEntity
  8
0
 62
256
370
-1
 48
1.0
  6
BYLAYER
100
AcDbCircle
 10
-40.0
 20
-35.0
 30
0.0
 40
1.25
  0
CIRCLE
  5
101
100
AcDbEntity
  8
0
 62
256
370
-1
 48
1.0
  6
BYLAYER
100
AcDbCircle
 10
-12.0
 20
-3.5
 30
0.0
 40
1.25
  0
CIRCLE
  5
102
100
AcDbEntity
  8
0
 62
256
370
-1
 48
1.0
  6
BYLAYER
100
AcDbCircle
 10
-68.0
 20
-3.5000000000000142
 30
0.0
 40
1.25
  0
CIRCLE
  5
103
100
AcDbEntity
  8
0
 62
256
370
-1
 48
1.0
  6
BYLAYER
100
AcDbCircle
 10
-40.0
 20
-5.0
 30
0.0
 40
1.25
  0
LINE
  5
104
100
AcDbEntity
  8
0
 62
256
370
-1
 48
1.0
  6
BYLAYER
100
AcDbLine
 10
-80.0
 20
-37.9999999999999716
 30
0.0
 11
-76.0
 21
-39.9999999999999716
 31
0.0
  0
LINE
  5
105
100
AcDbEntity
  8
0
 62
256
370
-1
 48
1.0
  6
BYLAYER
100
AcDbLine
 10
-80.0
 20
-2.0
 30
0.0
 11
-76.0
 21
0.0
 31
0.0
  0
LINE
  5
106
100
AcDbEntity
  8
0
 62
256
370
-1
 48
1.0
  6
BYLAYER
100
AcDbLine
 10
0.0
 20
-2.0
 30
0.0
 11
-4.0
 21
0.0
 31
0.0
  0
LINE
  5
107
100
AcDbEntity
  8
0
 62
256
370
-1
 48
1.0
  6
BYLAYER
100
AcDbLine
 10
0.0
 20
-38.0
 30
0.0
 11
-4.0
 21
-40.0
 31
0.0
  0
ENDSEC
  0
SECTION
  2
OBJECTS
  0
DICTIONARY
  5
C
100
AcDbDictionary
280
0
281
1
  3
ACAD_GROUP
350
D
  3
ACAD_LAYOUT
350
1A
  3
ACAD_MLINESTYLE
350
17
  3
ACAD_PLOTSETTINGS
350
19
  3
ACAD_PLOTSTYLENAME
350
E
  3
AcDbVariableDictionary
350
108
  3
QCAD_OBJECTS
350
109
  0
DICTIONARY
  5
D
100
AcDbDictionary
280
0
281
1
  0
ACDBDICTIONARYWDFLT
  5
E
100
AcDbDictionary
281
1
  3
Normal
350
F
100
AcDbDictionaryWithDefault
340
F
  0
ACDBPLACEHOLDER
  5
F
  0
DICTIONARY
  5
17
100
AcDbDictionary
280
0
281
1
  3
Standard
350
18
  0
MLINESTYLE
  5
18
100
AcDbMlineStyle
  2
STANDARD
 70
0
  3

 62
256
 51
90.0
 52
90.0
 71
2
 49
0.5
 62
256
  6
BYLAYER
 49
-0.5
 62
256
  6
BYLAYER
  0
DICTIONARY
  5
19
100
AcDbDictionary
280
0
281
1
  0
DICTIONARY
  5
1A
100
AcDbDictionary
281
1
  3
Layout1
350
1E
  3
Layout2
350
26
  3
Model
350
22
  0
LAYOUT
  5
1E
100
AcDbPlotSettings
  1

  2
none_device
  4

  6

 40
0.0
 41
0.0
 42
0.0
 43
0.0
 44
0.0
 45
0.0
 46
0.0
 47
0.0
 48
0.0
 49
0.0
140
0.0
141
0.0
142
1.0
143
1.0
 70
688
 72
0
 73
0
 74
5
  7

 75
16
147
1.0
148
0.0
149
0.0
100
AcDbLayout
  1
Layout1
 70
1
 71
1
 10
0.0
 20
0.0
 11
420.0
 21
297.0
 12
0.0
 22
0.0
 32
0.0
 14
100000000000000000000.0
 24
100000000000000000000.0
 34
100000000000000000000.0
 15
-100000000000000000000.0
 25
-100000000000000000000.0
 35
-100000000000000000000.0
146
0.0
 13
0.0
 23
0.0
 33
0.0
 16
1.0
 26
0.0
 36
0.0
 17
0.0
 27
1.0
 37
0.0
 76
0
330
1B
  0
LAYOUT
  5
22
100
AcDbPlotSettings
  1

  2
none_device
  4

  6

 40
0.0
 41
0.0
 42
0.0
 43
0.0
 44
0.0
 45
0.0
 46
0.0
 47
0.0
 48
0.0
 49
0.0
140
0.0
141
0.0
142
1.0
143
1.0
 70
1712
 72
0
 73
0
 74
0
  7

 75
0
147
1.0
148
0.0
149
0.0
100
AcDbLayout
  1
Model
 70
1
 71
0
 10
0.0
 20
0.0
 11
12.0
 21
9.0
 12
0.0
 22
0.0
 32
0.0
 14
0.0
 24
0.0
 34
0.0
 15
0.0
 25
0.0
 35
0.0
146
0.0
 13
0.0
 23
0.0
 33
0.0
 16
1.0
 26
0.0
 36
0.0
 17
0.0
 27
1.0
 37
0.0
 76
0
330
1F
  0
LAYOUT
  5
26
100
AcDbPlotSettings
  1

  2
none_device
  4

  6

 40
0.0
 41
0.0
 42
0.0
 43
0.0
 44
0.0
 45
0.0
 46
0.0
 47
0.0
 48
0.0
 49
0.0
140
0.0
141
0.0
142
1.0
143
1.0
 70
688
 72
0
 73
0
 74
5
  7

 75
16
147
1.0
148
0.0
149
0.0
100
AcDbLayout
  1
Layout2
 70
1
 71
2
 10
0.0
 20
0.0
 11
12.0
 21
9.0
 12
0.0
 22
0.0
 32
0.0
 14
0.0
 24
0.0
 34
0.0
 15
0.0
 25
0.0
 35
0.0
146
0.0
 13
0.0
 23
0.0
 33
0.0
 16
1.0
 26
0.0
 36
0.0
 17
0.0
 27
1.0
 37
0.0
 76
0
330
23
  0
DICTIONARY
  5
108
100
AcDbDictionary
281
1
  3
DIMASSOC
350
10B
  3
HIDETEXT
350
10A
  0
DICTIONARYVAR
  5
10A
100
DictionaryVariables
280
0
  1
2
  0
DICTIONARYVAR
  5
10B
100
DictionaryVariables
280
0
  1
1
  0
DICTIONARY
  5
109
100
AcDbDictionary
281
1
  3
ColorSettings/BackgroundColor
350
10C
  3
ColorSettings/ColorMode
350
10D
  3
Grid/DisplayGrid00
350
10E
  3
Grid/DisplayGrid01
350
10F
  3
Grid/DisplayGrid02
350
110
  3
Grid/DisplayGrid03
350
111
  3
Grid/GridSpacingX00
350
112
  3
Grid/GridSpacingX01
350
113
  3
Grid/GridSpacingX02
350
114
  3
Grid/GridSpacingX03
350
115
  3
Grid/GridSpacingY00
350
116
  3
Grid/GridSpacingY01
350
117
  3
Grid/GridSpacingY02
350
118
  3
Grid/GridSpacingY03
350
119
  3
Grid/IsometricGrid00
350
11A
  3
Grid/IsometricGrid01
350
11B
  3
Grid/IsometricGrid02
350
11C
  3
Grid/IsometricGrid03
350
11D
  3
Grid/IsometricProjection00
350
11E
  3
Grid/IsometricProjection01
350
11F
  3
Grid/IsometricProjection02
350
120
  3
Grid/IsometricProjection03
350
121
  3
Grid/MetaGridSpacingX00
350
122
  3
Grid/MetaGridSpacingX01
350
123
  3
Grid/MetaGridSpacingX02
350
124
  3
Grid/MetaGridSpacingX03
350
125
  3
Grid/MetaGridSpacingY00
350
126
  3
Grid/MetaGridSpacingY01
350
127
  3
Grid/MetaGridSpacingY02
350
128
  3
Grid/MetaGridSpacingY03
350
129
  3
MultiPageSettings/Columns
350
12A
  3
MultiPageSettings/GlueMarginsBottom
350
12B
  3
MultiPageSettings/GlueMarginsLeft
350
12C
  3
MultiPageSettings/GlueMarginsRight
350
12D
  3
MultiPageSettings/GlueMarginsTop
350
12E
  3
MultiPageSettings/PrintCropMarks
350
12F
  3
MultiPageSettings/Rows
350
130
  3
PageSettings/OffsetX
350
131
  3
PageSettings/OffsetY
350
132
  3
PageSettings/PageOrientation
350
133
  3
PageSettings/PaperHeight
350
134
  3
PageSettings/PaperWidth
350
135
  3
PageSettings/Scale
350
136
  3
PageSettings/ShowPaperBorders
350
137
  3
PageTagSettings/EnablePageTags
350
138
  3
PageTagSettings/TagAlignment
350
139
  3
PageTagSettings/TagFont
350
13A
  3
PageTagSettings/TagPosition
350
13B
  3
QCADVersion
350
13C
  3
UnitSettings/PaperUnit
350
13D
  3
ViewportCenter
350
13E
  3
ViewportHeight
350
13F
  3
ViewportWidth
350
140
  0
XRECORD
  5
10C
330
109
100
AcDbXrecord
280
1
1000
White
  0
XRECORD
  5
10D
330
109
100
AcDbXrecord
280
1
1000
FullColor
  0
XRECORD
  5
10E
330
109
100
AcDbXrecord
280
1
290
1
  0
XRECORD
  5
10F
330
109
100
AcDbXrecord
280
1
290
1
  0
XRECORD
  5
110
330
109
100
AcDbXrecord
280
1
290
1
  0
XRECORD
  5
111
330
109
100
AcDbXrecord
280
1
290
1
  0
XRECORD
  5
112
330
109
100
AcDbXrecord
280
1
1000
auto
  0
XRECORD
  5
113
330
109
100
AcDbXrecord
280
1
1000
auto
  0
XRECORD
  5
114
330
109
100
AcDbXrecord
280
1
1000
auto
  0
XRECORD
  5
115
330
109
100
AcDbXrecord
280
1
1000
auto
  0
XRECORD
  5
116
330
109
100
AcDbXrecord
280
1
1000
auto
  0
XRECORD
  5
117
330
109
100
AcDbXrecord
280
1
1000
auto
  0
XRECORD
  5
118
330
109
100
AcDbXrecord
280
1
1000
auto
  0
XRECORD
  5
119
330
109
100
AcDbXrecord
280
1
1000
auto
  0
XRECORD
  5
11A
330
109
100
AcDbXrecord
280
1
290
0
  0
XRECORD
  5
11B
330
109
100
AcDbXrecord
280
1
290
0
  0
XRECORD
  5
11C
330
109
100
AcDbXrecord
280
1
290
0
  0
XRECORD
  5
11D
330
109
100
AcDbXrecord
280
1
290
0
  0
XRECORD
  5
11E
330
109
100
AcDbXrecord
280
1
 90
65537
  0
XRECORD
  5
11F
330
109
100
AcDbXrecord
280
1
 90
65537
  0
XRECORD
  5
120
330
109
100
AcDbXrecord
280
1
 90
65537
  0
XRECORD
  5
121
330
109
100
AcDbXrecord
280
1
 90
65537
  0
XRECORD
  5
122
330
109
100
AcDbXrecord
280
1
1000
auto
  0
XRECORD
  5
123
330
109
100
AcDbXrecord
280
1
1000
auto
  0
XRECORD
  5
124
330
109
100
AcDbXrecord
280
1
1000
auto
  0
XRECORD
  5
125
330
109
100
AcDbXrecord
280
1
1000
auto
  0
XRECORD
  5
126
330
109
100
AcDbXrecord
280
1
1000
auto
  0
XRECORD
  5
127
330
109
100
AcDbXrecord
280
1
1000
auto
  0
XRECORD
  5
128
330
109
100
AcDbXrecord
280
1
1000
auto
  0
XRECORD
  5
129
330
109
100
AcDbXrecord
280
1
1000
auto
  0
XRECORD
  5
12A
330
109
100
AcDbXrecord
280
1
 90
1
  0
XRECORD
  5
12B
330
109
100
AcDbXrecord
280
1
 40
10.0
  0
XRECORD
  5
12C
330
109
100
AcDbXrecord
280
1
 40
10.0
  0
XRECORD
  5
12D
330
109
100
AcDbXrecord
280
1
 40
10.0
  0
XRECORD
  5
12E
330
109
100
AcDbXrecord
280
1
 40
10.0
  0
XRECORD
  5
12F
330
109
100
AcDbXrecord
280
1
290
0
  0
XRECORD
  5
130
330
109
100
AcDbXrecord
280
1
 90
1
  0
XRECORD
  5
131
330
109
100
AcDbXrecord
280
1
 40
0.0
  0
XRECORD
  5
132
330
109
100
AcDbXrecord
280
1
 40
0.0
  0
XRECORD
  5
133
330
109
100
AcDbXrecord
280
1
1000
Portrait
  0
XRECORD
  5
134
330
109
100
AcDbXrecord
280
1
 40
297.0
  0
XRECORD
  5
135
330
109
100
AcDbXrecord
280
1
 40
210.0
  0
XRECORD
  5
136
330
109
100
AcDbXrecord
280
1
1000
1:1
  0
XRECORD
  5
137
330
109
100
AcDbXrecord
280
1
290
1
  0
XRECORD
  5
138
330
109
100
AcDbXrecord
280
1
290
0
  0
XRECORD
  5
139
330
109
100
AcDbXrecord
280
1
1000
Inside
  0
XRECORD
  5
13A
330
109
100
AcDbXrecord
280
1
1000
Arial,10,-1,5,50,0,0,0,0,0
  0
XRECORD
  5
13B
330
109
100
AcDbXrecord
280
1
1000
TopLeft
  0
XRECORD
  5
13C
330
109
100
AcDbXrecord
280
1
1000
3.32.3
  0
XRECORD
  5
13D
330
109
100
AcDbXrecord
280
1
 90
4
  0
XRECORD
  5
13F
330
109
100
AcDbXrecord
280
1
 40
55.0977113520164039
  0
XRECORD
  5
140
330
109
100
AcDbXrecord
280
1
 40
104.1132078145245003
  0
ENDSEC
  0
EOF
