999
dxflib 3.26.4.0
  0
SECTION
  2
HEADER
  9
$ACADVER
  1
AC1015
  9
$HANDSEED
  5
FFFF
  9
$DIMADEC
 70
0
  9
$DIMASZ
 40
2.5
  9
$DIMATFIT
 70
0
  9
$DIMAUNIT
 70
0
  9
$DIMAZIN
 70
2
  9
$DIMBLK
  1
0
  9
$DIMBLK1
  1
0
  9
$DIMBLK2
  1
0
  9
$DIMDEC
 70
4
  9
$DIMDLI
 40
5.0
  9
$DIMDSEP
 70
46
  9
$DIMEXE
 40
1.25
  9
$DIMEXO
 40
0.625
  9
$DIMGAP
 40
0.625
  9
$DIMLFAC
 40
1.0
  9
$DIMLUNIT
 70
2
  9
$DIMSCALE
 40
1.0
  9
$DIMTAD
 70
1
  9
$DIMTIH
 70
0
  9
$DIMTSZ
 40
0.0
  9
$DIMTXT
 40
2.5
  9
$DIMZIN
 70
8
  9
$DWGCODEPAGE
  3
ANSI_1252
  9
$INSUNITS
 70
4
  9
$LTSCALE
 40
1.0
  9
$MAXACTVP
 70
64
  9
$MEASUREMENT
 70
1
  9
$MIRRTEXT
 70
0
  9
$PDMODE
 70
0
  9
$PDSIZE
 40
0.0
  0
ENDSEC
  0
SECTION
  2
TABLES
  0
TABLE
  2
VPORT
  5
8
100
AcDbSymbolTable
 70
1
  0
VPORT
  5
30
100
AcDbSymbolTableRecord
100
AcDbViewportTableRecord
  2
*Active
 70
0
 10
0.0
 20
0.0
 11
1.0
 21
1.0
 12
286.3055555555554861
 22
148.5
 13
0.0
 23
0.0
 14
10.0
 24
10.0
 15
10.0
 25
10.0
 16
0.0
 26
0.0
 36
1.0
 17
0.0
 27
0.0
 37
0.0
 40
297.0
 41
1.92798353909465
 42
50.0
 43
0.0
 44
0.0
 50
0.0
 51
0.0
 71
0
 72
100
 73
1
 74
3
 75
1
 76
1
 77
0
 78
0
281
0
 65
1
110
0.0
120
0.0
130
0.0
111
1.0
121
0.0
131
0.0
112
0.0
122
1.0
132
0.0
 79
0
146
0.0
  0
ENDTAB
  0
TABLE
  2
LTYPE
  5
5
100
AcDbSymbolTable
 70
41
  0
LTYPE
  5
16
100
AcDbSymbolTableRecord
100
AcDbLinetypeTableRecord
  2
Continuous
 70
0
  3
Solid line
 72
65
 73
0
 40
0.0
  0
LTYPE
  5
31
100
AcDbSymbolTableRecord
100
AcDbLinetypeTableRecord
  2
ACAD_ISO03W100
 70
0
  3
ISO dash space __    __    __    __    __    __
 72
65
 73
2
 40
30.0
 49
12.0
 74
0
 49
-18.0
 74
0
  0
LTYPE
  5
32
100
AcDbSymbolTableRecord
100
AcDbLinetypeTableRecord
  2
CENTER
 70
0
  3
Center ____ _ ____ _ ____ _ ____ _ ____ _ ____
 72
65
 73
4
 40
50.8000000000000043
 49
31.75
 74
0
 49
-6.3499999999999996
 74
0
 49
6.3499999999999996
 74
0
 49
-6.3499999999999996
 74
0
  0
LTYPE
  5
33
100
AcDbSymbolTableRecord
100
AcDbLinetypeTableRecord
  2
DOTX2
 70
0
  3
Dot (2x) .  .  .  .  .  .  .  .  .  .  .  .  .  .
 72
65
 73
2
 40
12.6999999999999993
 49
0.1
 74
0
 49
-12.5999999999999996
 74
0
  0
LTYPE
  5
34
100
AcDbSymbolTableRecord
100
AcDbLinetypeTableRecord
  2
ACAD_ISO10W100
 70
0
  3
ISO dash dot __ . __ . __ . __ . __ . __ . __ . 
 72
65
 73
4
 40
18.0
 49
12.0
 74
0
 49
-2.9500000000000002
 74
0
 49
0.1
 74
0
 49
-2.9500000000000002
 74
0
  0
LTYPE
  5
35
100
AcDbSymbolTableRecord
100
AcDbLinetypeTableRecord
  2
HIDDEN
 70
0
  3
Hidden __ __ __ __ __ __ __ __ __ __ __ __ __ __
 72
65
 73
2
 40
9.5249999999999986
 49
6.3499999999999996
 74
0
 49
-3.1749999999999998
 74
0
  0
LTYPE
  5
36
100
AcDbSymbolTableRecord
100
AcDbLinetypeTableRecord
  2
CENTERX2
 70
0
  3
Center (2x) ________  __  ________  __  _____
 72
65
 73
4
 40
101.6000000000000085
 49
63.5
 74
0
 49
-12.6999999999999993
 74
0
 49
12.6999999999999993
 74
0
 49
-12.6999999999999993
 74
0
  0
LTYPE
  5
37
100
AcDbSymbolTableRecord
100
AcDbLinetypeTableRecord
  2
ACAD_ISO12W100
 70
0
  3
ISO dash double-dot __ . . __ . . __ . . __ . . 
 72
65
 73
6
 40
21.0
 49
12.0
 74
0
 49
-2.9500000000000002
 74
0
 49
0.1
 74
0
 49
-2.9000000000000004
 74
0
 49
0.1
 74
0
 49
-2.9500000000000002
 74
0
  0
LTYPE
  5
38
100
AcDbSymbolTableRecord
100
AcDbLinetypeTableRecord
  2
ACAD_ISO04W100
 70
0
  3
ISO long-dash dot ____ . ____ . ____ . ____ . _
 72
65
 73
4
 40
30.0
 49
24.0
 74
0
 49
-2.9500000000000002
 74
0
 49
0.1
 74
0
 49
-2.9500000000000002
 74
0
  0
LTYPE
  5
39
100
AcDbSymbolTableRecord
100
AcDbLinetypeTableRecord
  2
DASHED2
 70
0
  3
Dashed (.5x) _ _ _ _ _ _ _ _ _ _ _ _ _ _ _ _ _ 
 72
65
 73
2
 40
9.5249999999999986
 49
6.3499999999999996
 74
0
 49
-3.1749999999999998
 74
0
  0
LTYPE
  5
3A
100
AcDbSymbolTableRecord
100
AcDbLinetypeTableRecord
  2
HIDDEN2
 70
0
  3
Hidden (.5x) _ _ _ _ _ _ _ _ _ _ _ _ _ _ _ _ _ 
 72
65
 73
2
 40
4.7624999999999993
 49
3.1749999999999998
 74
0
 49
-1.5874999999999999
 74
0
  0
LTYPE
  5
3B
100
AcDbSymbolTableRecord
100
AcDbLinetypeTableRecord
  2
PHANTOMX2
 70
0
  3
Phantom (2x) ____________    ____    ____   _
 72
65
 73
6
 40
127.0000000000000142
 49
63.5
 74
0
 49
-12.6999999999999993
 74
0
 49
12.6999999999999993
 74
0
 49
-12.6999999999999993
 74
0
 49
12.6999999999999993
 74
0
 49
-12.6999999999999993
 74
0
  0
LTYPE
  5
3C
100
AcDbSymbolTableRecord
100
AcDbLinetypeTableRecord
  2
DASHEDX2
 70
0
  3
Dashed (2x) ____  ____  ____  ____  ____  ___
 72
65
 73
2
 40
38.0999999999999943
 49
25.3999999999999986
 74
0
 49
-12.6999999999999993
 74
0
  0
LTYPE
  5
3D
100
AcDbSymbolTableRecord
100
AcDbLinetypeTableRecord
  2
PHANTOM2
 70
0
  3
Phantom (.5x) ___ _ _ ___ _ _ ___ _ _ ___ _ _
 72
65
 73
6
 40
31.7500000000000036
 49
15.875
 74
0
 49
-3.1749999999999998
 74
0
 49
3.1749999999999998
 74
0
 49
-3.1749999999999998
 74
0
 49
3.1749999999999998
 74
0
 49
-3.1749999999999998
 74
0
  0
LTYPE
  5
3E
100
AcDbSymbolTableRecord
100
AcDbLinetypeTableRecord
  2
PHANTOM
 70
0
  3
Phantom ______  __  __  ______  __  __  ______ 
 72
65
 73
6
 40
63.5000000000000071
 49
31.75
 74
0
 49
-6.3499999999999996
 74
0
 49
6.3499999999999996
 74
0
 49
-6.3499999999999996
 74
0
 49
6.3499999999999996
 74
0
 49
-6.3499999999999996
 74
0
  0
LTYPE
  5
3F
100
AcDbSymbolTableRecord
100
AcDbLinetypeTableRecord
  2
ACAD_ISO11W100
 70
0
  3
ISO double-dash dot __ __ . __ __ . __ __ . __ _
 72
65
 73
6
 40
33.0
 49
12.0
 74
0
 49
-3.0
 74
0
 49
12.0
 74
0
 49
-2.9500000000000002
 74
0
 49
0.1
 74
0
 49
-2.9500000000000002
 74
0
  0
LTYPE
  5
40
100
AcDbSymbolTableRecord
100
AcDbLinetypeTableRecord
  2
ACAD_ISO13W100
 70
0
  3
ISO double-dash double-dot __ __ . . __ __ . . _
 72
65
 73
8
 40
36.0000000000000071
 49
12.0
 74
0
 49
-3.0
 74
0
 49
12.0
 74
0
 49
-2.9500000000000002
 74
0
 49
0.1
 74
0
 49
-2.9000000000000004
 74
0
 49
0.1
 74
0
 49
-2.9500000000000002
 74
0
  0
LTYPE
  5
41
100
AcDbSymbolTableRecord
100
AcDbLinetypeTableRecord
  2
HIDDENX2
 70
0
  3
Hidden (2x) ____ ____ ____ ____ ____ ____ ____ 
 72
65
 73
2
 40
19.0499999999999972
 49
12.6999999999999993
 74
0
 49
-6.3499999999999996
 74
0
  0
LTYPE
  5
42
100
AcDbSymbolTableRecord
100
AcDbLinetypeTableRecord
  2
ACAD_ISO14W100
 70
0
  3
ISO dash triple-dot __ . . . __ . . . __ . . . _
 72
65
 73
8
 40
24.0000000000000036
 49
12.0
 74
0
 49
-2.9500000000000002
 74
0
 49
0.1
 74
0
 49
-2.9000000000000004
 74
0
 49
0.1
 74
0
 49
-2.9000000000000004
 74
0
 49
0.1
 74
0
 49
-2.9500000000000002
 74
0
  0
LTYPE
  5
15
100
AcDbSymbolTableRecord
100
AcDbLinetypeTableRecord
  2
BYLAYER
 70
0
  3

 72
65
 73
0
 40
0.0
  0
LTYPE
  5
43
100
AcDbSymbolTableRecord
100
AcDbLinetypeTableRecord
  2
DOT
 70
0
  3
Dot . . . . . . . . . . . . . . . . . . . . . . . .
 72
65
 73
2
 40
6.3499999999999996
 49
0.1
 74
0
 49
-6.25
 74
0
  0
LTYPE
  5
44
100
AcDbSymbolTableRecord
100
AcDbLinetypeTableRecord
  2
DASHDOT
 70
0
  3
Dash dot __ . __ . __ . __ . __ . __ . __ . __
 72
65
 73
4
 40
25.4000000000000021
 49
12.6999999999999993
 74
0
 49
-6.2999999999999998
 74
0
 49
0.1
 74
0
 49
-6.2999999999999998
 74
0
  0
LTYPE
  5
45
100
AcDbSymbolTableRecord
100
AcDbLinetypeTableRecord
  2
DASHDOT2
 70
0
  3
Dash dot (.5x) _._._._._._._._._._._._._._._.
 72
65
 73
4
 40
12.6999999999999993
 49
6.3499999999999996
 74
0
 49
-3.125
 74
0
 49
0.1
 74
0
 49
-3.125
 74
0
  0
LTYPE
  5
46
100
AcDbSymbolTableRecord
100
AcDbLinetypeTableRecord
  2
CENTER2
 70
0
  3
Center (.5x) ___ _ ___ _ ___ _ ___ _ ___ _ ___
 72
65
 73
4
 40
28.5750000000000028
 49
19.0500000000000007
 74
0
 49
-3.1749999999999998
 74
0
 49
3.1749999999999998
 74
0
 49
-3.1749999999999998
 74
0
  0
LTYPE
  5
47
100
AcDbSymbolTableRecord
100
AcDbLinetypeTableRecord
  2
DOT2
 70
0
  3
Dot (.5x) ........................................
 72
65
 73
2
 40
3.1749999999999998
 49
0.1
 74
0
 49
-3.0749999999999997
 74
0
  0
LTYPE
  5
48
100
AcDbSymbolTableRecord
100
AcDbLinetypeTableRecord
  2
DASHDOTX2
 70
0
  3
Dash dot (2x) ____  .  ____  .  ____  .  ___
 72
65
 73
4
 40
50.7999999999999972
 49
25.3999999999999986
 74
0
 49
-12.6499999999999986
 74
0
 49
0.1
 74
0
 49
-12.6499999999999986
 74
0
  0
LTYPE
  5
49
100
AcDbSymbolTableRecord
100
AcDbLinetypeTableRecord
  2
ACAD_ISO08W100
 70
0
  3
ISO long-dash short-dash ____ __ ____ __ ____ _
 72
65
 73
4
 40
36.0
 49
24.0
 74
0
 49
-3.0
 74
0
 49
6.0
 74
0
 49
-3.0
 74
0
  0
LTYPE
  5
4A
100
AcDbSymbolTableRecord
100
AcDbLinetypeTableRecord
  2
DASHED
 70
0
  3
Dashed __ __ __ __ __ __ __ __ __ __ __ __ __ _
 72
65
 73
2
 40
19.0499999999999972
 49
12.6999999999999993
 74
0
 49
-6.3499999999999996
 74
0
  0
LTYPE
  5
4B
100
AcDbSymbolTableRecord
100
AcDbLinetypeTableRecord
  2
BORDER2
 70
0
  3
Border (.5x) __.__.__.__.__.__.__.__.__.__.__.
 72
65
 73
6
 40
22.2250000000000014
 49
6.3499999999999996
 74
0
 49
-3.1749999999999998
 74
0
 49
6.3499999999999996
 74
0
 49
-3.125
 74
0
 49
0.1
 74
0
 49
-3.125
 74
0
  0
LTYPE
  5
4C
100
AcDbSymbolTableRecord
100
AcDbLinetypeTableRecord
  2
DIVIDEX2
 70
0
  3
Divide (2x) ________  .  .  ________  .  .  _
 72
65
 73
6
 40
63.5
 49
25.3999999999999986
 74
0
 49
-12.6499999999999986
 74
0
 49
0.1
 74
0
 49
-12.5999999999999979
 74
0
 49
0.1
 74
0
 49
-12.6499999999999986
 74
0
  0
LTYPE
  5
4D
100
AcDbSymbolTableRecord
100
AcDbLinetypeTableRecord
  2
ACAD_ISO07W100
 70
0
  3
ISO dot . . . . . . . . . . . . . . . . . . . . 
 72
65
 73
2
 40
3.0
 49
0.1
 74
0
 49
-2.8999999999999999
 74
0
  0
LTYPE
  5
4E
100
AcDbSymbolTableRecord
100
AcDbLinetypeTableRecord
  2
ACAD_ISO02W100
 70
0
  3
ISO dash __ __ __ __ __ __ __ __ __ __ __ __ __
 72
65
 73
2
 40
15.0
 49
12.0
 74
0
 49
-3.0
 74
0
  0
LTYPE
  5
4F
100
AcDbSymbolTableRecord
100
AcDbLinetypeTableRecord
  2
DIVIDE
 70
0
  3
Divide ____ . . ____ . . ____ . . ____ . . ____
 72
65
 73
6
 40
31.7500000000000036
 49
12.6999999999999993
 74
0
 49
-6.2999999999999998
 74
0
 49
0.1
 74
0
 49
-6.25
 74
0
 49
0.1
 74
0
 49
-6.2999999999999998
 74
0
  0
LTYPE
  5
50
100
AcDbSymbolTableRecord
100
AcDbLinetypeTableRecord
  2
ACAD_ISO09W100
 70
0
  3
ISO long-dash double-short-dash ____ __ __ ____
 72
65
 73
6
 40
45.0
 49
24.0
 74
0
 49
-3.0
 74
0
 49
6.0
 74
0
 49
-3.0
 74
0
 49
6.0
 74
0
 49
-3.0
 74
0
  0
LTYPE
  5
51
100
AcDbSymbolTableRecord
100
AcDbLinetypeTableRecord
  2
ACAD_ISO06W100
 70
0
  3
ISO long-dash triple-dot ____ ... ____ ... ____
 72
65
 73
8
 40
36.0000000000000071
 49
24.0
 74
0
 49
-2.9500000000000002
 74
0
 49
0.1
 74
0
 49
-2.9000000000000004
 74
0
 49
0.1
 74
0
 49
-2.9000000000000004
 74
0
 49
0.1
 74
0
 49
-2.9500000000000002
 74
0
  0
LTYPE
  5
52
100
AcDbSymbolTableRecord
100
AcDbLinetypeTableRecord
  2
BORDERX2
 70
0
  3
Border (2x) ____  ____  .  ____  ____  .  ___
 72
65
 73
6
 40
88.8999999999999773
 49
25.3999999999999986
 74
0
 49
-12.6999999999999993
 74
0
 49
25.3999999999999986
 74
0
 49
-12.6499999999999986
 74
0
 49
0.1
 74
0
 49
-12.6499999999999986
 74
0
  0
LTYPE
  5
53
100
AcDbSymbolTableRecord
100
AcDbLinetypeTableRecord
  2
DIVIDE2
 70
0
  3
Divide (.5x) __..__..__..__..__..__..__..__.._
 72
65
 73
6
 40
15.8749999999999982
 49
6.3499999999999996
 74
0
 49
-3.125
 74
0
 49
0.1
 74
0
 49
-3.0750000000000002
 74
0
 49
0.1
 74
0
 49
-3.125
 74
0
  0
LTYPE
  5
14
100
AcDbSymbolTableRecord
100
AcDbLinetypeTableRecord
  2
BYBLOCK
 70
0
  3

 72
65
 73
0
 40
0.0
  0
LTYPE
  5
54
100
AcDbSymbolTableRecord
100
AcDbLinetypeTableRecord
  2
BORDER
 70
0
  3
Border __ __ . __ __ . __ __ . __ __ . __ __ .
 72
65
 73
6
 40
44.4499999999999957
 49
12.6999999999999993
 74
0
 49
-6.3499999999999996
 74
0
 49
12.6999999999999993
 74
0
 49
-6.2999999999999998
 74
0
 49
0.1
 74
0
 49
-6.2999999999999998
 74
0
  0
LTYPE
  5
55
100
AcDbSymbolTableRecord
100
AcDbLinetypeTableRecord
  2
ACAD_ISO05W100
 70
0
  3
ISO long-dash double-dot ____ .. ____ .. ____ . 
 72
65
 73
6
 40
33.0000000000000071
 49
24.0
 74
0
 49
-2.9500000000000002
 74
0
 49
0.1
 74
0
 49
-2.9000000000000004
 74
0
 49
0.1
 74
0
 49
-2.9500000000000002
 74
0
  0
LTYPE
  5
56
100
AcDbSymbolTableRecord
100
AcDbLinetypeTableRecord
  2
ACAD_ISO15W100
 70
0
  3
ISO double-dash triple-dot __ __ . . . __ __ . .
 72
65
 73
10
 40
39.0000000000000071
 49
12.0
 74
0
 49
-3.0
 74
0
 49
12.0
 74
0
 49
-2.9500000000000002
 74
0
 49
0.1
 74
0
 49
-2.9000000000000004
 74
0
 49
0.1
 74
0
 49
-2.9000000000000004
 74
0
 49
0.1
 74
0
 49
-2.9500000000000002
 74
0
  0
ENDTAB
  0
TABLE
  2
LAYER
  5
2
100
AcDbSymbolTable
 70
9
  0
LAYER
  5
57
100
AcDbSymbolTableRecord
100
AcDbLayerTableRecord
  2
comp
 70
0
 62
1
420
16711680
  6
Continuous
370
25
390
F
  0
LAYER
  5
58
100
AcDbSymbolTableRecord
100
AcDbLayerTableRecord
  2
cut_2.2mm
 70
0
 62
94
420
32768
  6
Continuous
370
25
390
F
  0
LAYER
  5
59
100
AcDbSymbolTableRecord
100
AcDbLayerTableRecord
  2
cut_2mm
 70
0
 62
214
420
8388736
  6
Continuous
370
25
390
F
  0
LAYER
  5
10
100
AcDbSymbolTableRecord
100
AcDbLayerTableRecord
  2
0
 70
0
 62
7
420
0
  6
Continuous
370
13
390
F
  0
LAYER
  5
5A
100
AcDbSymbolTableRecord
100
AcDbLayerTableRecord
  2
cut_1.7mm
 70
0
 62
134
420
32896
  6
Continuous
370
25
390
F
  0
LAYER
  5
5B
100
AcDbSymbolTableRecord
100
AcDbLayerTableRecord
  2
cut_1.1mm
 70
0
 62
30
420
16744192
  6
Continuous
370
25
390
F
  0
LAYER
  5
5C
100
AcDbSymbolTableRecord
100
AcDbLayerTableRecord
  2
traces
 70
0
 62
30
420
16744192
  6
Continuous
370
25
390
F
  0
LAYER
  5
5D
100
AcDbSymbolTableRecord
100
AcDbLayerTableRecord
  2
cut
 70
0
 62
174
420
128
  6
Continuous
370
25
390
F
  0
LAYER
  5
5E
100
AcDbSymbolTableRecord
100
AcDbLayerTableRecord
  2
engrave
 70
0
 62
54
420
8421376
  6
Continuous
370
25
390
F
  0
ENDTAB
  0
TABLE
  2
STYLE
  5
3
100
AcDbSymbolTable
 70
6
  0
STYLE
  5
5F
100
AcDbSymbolTableRecord
100
AcDbTextStyleTableRecord
  2
Standard
 70
0
 40
0.0
 41
1.0
 50
0.0
 71
0
 42
2.5
  3

  4

1001
ACAD
1000
txt
1071
0
  0
STYLE
  5
60
100
AcDbSymbolTableRecord
100
AcDbTextStyleTableRecord
  2
textstyle0
 70
0
 40
0.0
 41
1.0
 50
0.0
 71
0
 42
1.5
  3

  4

1001
ACAD
1000
Nimbus Sans L
1071
0
  0
STYLE
  5
61
100
AcDbSymbolTableRecord
100
AcDbTextStyleTableRecord
  2
textstyle1
 70
0
 40
0.0
 41
1.0
 50
0.0
 71
0
 42
1.5
  3

  4

1001
ACAD
1000
Nimbus Sans L
1071
0
  0
STYLE
  5
62
100
AcDbSymbolTableRecord
100
AcDbTextStyleTableRecord
  2
textstyle2
 70
0
 40
0.0
 41
1.0
 50
0.0
 71
0
 42
1.5
  3

  4

1001
ACAD
1000
Nimbus Sans L
1071
0
  0
STYLE
  5
63
100
AcDbSymbolTableRecord
100
AcDbTextStyleTableRecord
  2
textstyle3
 70
0
 40
0.0
 41
1.0
 50
0.0
 71
0
 42
1.5
  3

  4

1001
ACAD
1000
Nimbus Sans L
1071
0
  0
STYLE
  5
64
100
AcDbSymbolTableRecord
100
AcDbTextStyleTableRecord
  2
textstyle4
 70
0
 40
0.0
 41
1.0
 50
0.0
 71
0
 42
1.5
  3

  4

1001
ACAD
1000
Nimbus Sans L
1071
0
  0
ENDTAB
  0
TABLE
  2
VIEW
  5
6
100
AcDbSymbolTable
 70
0
  0
ENDTAB
  0
TABLE
  2
UCS
  5
7
100
AcDbSymbolTable
 70
0
  0
ENDTAB
  0
TABLE
  2
APPID
  5
9
100
AcDbSymbolTable
 70
1
  0
APPID
  5
12
100
AcDbSymbolTableRecord
100
AcDbRegAppTableRecord
  2
ACAD
 70
0
  0
APPID
  5
65
100
AcDbSymbolTableRecord
100
AcDbRegAppTableRecord
  2
QCAD
 70
0
  0
ENDTAB
  0
TABLE
  2
DIMSTYLE
  5
A
100
AcDbSymbolTable
 70
1
100
AcDbDimStyleTable
 71
0
  0
DIMSTYLE
105
27
100
AcDbSymbolTableRecord
100
AcDbDimStyleTableRecord
  2
Standard
 41
2.5
 42
0.625
 43
3.75
 44
1.25
 70
0
 73
0
 74
0
 77
1
 78
8
140
2.5
141
2.5
143
0.03937007874016
147
0.625
171
3
172
1
271
2
272
2
274
3
278
44
283
0
284
8
340
5F
  0
ENDTAB
  0
TABLE
  2
BLOCK_RECORD
  5
1
100
AcDbSymbolTable
 70
1
  0
BLOCK_RECORD
  5
1F
100
AcDbSymbolTableRecord
100
AcDbBlockTableRecord
  2
*Model_Space
340
22
  0
BLOCK_RECORD
  5
1B
100
AcDbSymbolTableRecord
100
AcDbBlockTableRecord
  2
*Paper_Space
340
1E
  0
BLOCK_RECORD
  5
23
100
AcDbSymbolTableRecord
100
AcDbBlockTableRecord
  2
*Paper_Space0
340
26
  0
BLOCK_RECORD
  5
66
100
AcDbSymbolTableRecord
100
AcDbBlockTableRecord
  2
conn2.56x2
340
0
  0
BLOCK_RECORD
  5
67
100
AcDbSymbolTableRecord
100
AcDbBlockTableRecord
  2
conn2.54x4
340
0
  0
BLOCK_RECORD
  5
68
100
AcDbSymbolTableRecord
100
AcDbBlockTableRecord
  2
conn5x3
340
0
  0
BLOCK_RECORD
  5
69
100
AcDbSymbolTableRecord
100
AcDbBlockTableRecord
  2
conn5x2F
340
0
  0
BLOCK_RECORD
  5
6A
100
AcDbSymbolTableRecord
100
AcDbBlockTableRecord
  2
conn2.56x2F
340
0
  0
BLOCK_RECORD
  5
6B
100
AcDbSymbolTableRecord
100
AcDbBlockTableRecord
  2
res
340
0
  0
BLOCK_RECORD
  5
6C
100
AcDbSymbolTableRecord
100
AcDbBlockTableRecord
  2
conn5x2
340
0
  0
ENDTAB
  0
ENDSEC
  0
SECTION
  2
BLOCKS
  0
BLOCK
  5
20
100
AcDbEntity
  8
0
100
AcDbBlockBegin
  2
*Model_Space
 70
0
 10
0.0
 20
0.0
 30
0.0
  3
*Model_Space
  1

  0
ENDBLK
  5
21
100
AcDbEntity
  8
0
100
AcDbBlockEnd
  0
BLOCK
  5
1C
100
AcDbEntity
 67
1
  8
0
100
AcDbBlockBegin
  2
*Paper_Space
 70
0
 10
0.0
 20
0.0
 30
0.0
  3
*Paper_Space
  1

  0
ENDBLK
  5
1D
100
AcDbEntity
 67
1
  8
0
100
AcDbBlockEnd
  0
BLOCK
  5
24
100
AcDbEntity
  8
0
100
AcDbBlockBegin
  2
*Paper_Space0
 70
0
 10
0.0
 20
0.0
 30
0.0
  3
*Paper_Space0
  1

  0
ENDBLK
  5
25
100
AcDbEntity
  8
0
100
AcDbBlockEnd
  0
BLOCK
  5
6D
100
AcDbEntity
  8
0
100
AcDbBlockBegin
  2
conn2.56x2
 70
0
 10
0.0
 20
0.0
 30
0.0
  3
conn2.56x2
  1

  0
LINE
  5
6E
100
AcDbEntity
  8
comp
 62
256
370
-1
 48
1.0
  6
BYLAYER
100
AcDbLine
 10
-6.0
 20
-1.269999999999996
 30
0.0
 11
0.0
 21
-1.269999999999996
 31
0.0
  0
LINE
  5
6F
100
AcDbEntity
  8
comp
 62
256
370
-1
 48
1.0
  6
BYLAYER
100
AcDbLine
 10
-6.0
 20
1.2700000000000031
 30
0.0
 11
0.0
 21
1.2700000000000031
 31
0.0
  0
MTEXT
  5
70
100
AcDbEntity
  8
comp
 62
256
370
-1
 48
1.0
  6
BYLAYER
100
AcDbMText
 10
0.5016116035455127
 20
0.0
 30
0.0
 40
1.5
 41
0.0
 71
4
 72
1
  1
d: 3.2\Pp: 0.6\Pu: 2.0
  7
textstyle3
 50
0.0
 73
2
 44
1.0
  0
LINE
  5
71
100
AcDbEntity
  8
comp
 62
256
370
-1
 48
1.0
  6
BYLAYER
100
AcDbLine
 10
0.0
 20
3.6499999999999986
 30
0.0
 11
7.0
 21
3.6499999999999986
 31
0.0
  0
LINE
  5
72
100
AcDbEntity
  8
comp
 62
256
370
-1
 48
1.0
  6
BYLAYER
100
AcDbLine
 10
0.0
 20
-3.6499999999999986
 30
0.0
 11
7.0
 21
-3.6499999999999986
 31
0.0
  0
LINE
  5
73
100
AcDbEntity
  8
comp
 62
256
370
-1
 48
1.0
  6
BYLAYER
100
AcDbLine
 10
0.0
 20
3.6499999999999986
 30
0.0
 11
0.0
 21
-3.6499999999999986
 31
0.0
  0
LINE
  5
74
100
AcDbEntity
  8
comp
 62
256
370
-1
 48
1.0
  6
BYLAYER
100
AcDbLine
 10
7.0
 20
-3.6499999999999986
 30
0.0
 11
7.0
 21
3.6499999999999986
 31
0.0
  0
ENDBLK
  5
75
100
AcDbEntity
  8
0
100
AcDbBlockEnd
  0
BLOCK
  5
76
100
AcDbEntity
  8
0
100
AcDbBlockBegin
  2
conn2.54x4
 70
0
 10
0.0
 20
0.0
 30
0.0
  3
conn2.54x4
  1

  0
LINE
  5
77
100
AcDbEntity
  8
comp
 62
256
370
-1
 48
1.0
  6
BYLAYER
100
AcDbLine
 10
-6.0
 20
1.269999999999996
 30
0.0
 11
0.0
 21
1.269999999999996
 31
0.0
  0
LINE
  5
78
100
AcDbEntity
  8
comp
 62
256
370
-1
 48
1.0
  6
BYLAYER
100
AcDbLine
 10
-6.0
 20
-1.2700000000000031
 30
0.0
 11
0.0
 21
-1.2700000000000031
 31
0.0
  0
LINE
  5
79
100
AcDbEntity
  8
comp
 62
256
370
-1
 48
1.0
  6
BYLAYER
100
AcDbLine
 10
-6.0
 20
-3.8100000000000023
 30
0.0
 11
0.0
 21
-3.8100000000000023
 31
0.0
  0
LINE
  5
7A
100
AcDbEntity
  8
comp
 62
256
370
-1
 48
1.0
  6
BYLAYER
100
AcDbLine
 10
-6.0
 20
3.8099999999999952
 30
0.0
 11
0.0
 21
3.8099999999999952
 31
0.0
  0
MTEXT
  5
7B
100
AcDbEntity
  8
comp
 62
256
370
-1
 48
1.0
  6
BYLAYER
100
AcDbMText
 10
0.5016116035455127
 20
2.5000000000000568
 30
0.0
 40
1.5
 41
0.0
 71
4
 72
1
  1
d: 3.2\Pp: 0.6\Pu: 2.0
  7
textstyle1
 50
0.0
 73
2
 44
1.0
  0
LINE
  5
7C
100
AcDbEntity
  8
comp
 62
256
370
-1
 48
1.0
  6
BYLAYER
100
AcDbLine
 10
0.0
 20
6.1499999999999986
 30
0.0
 11
7.0
 21
6.1499999999999986
 31
0.0
  0
LINE
  5
7D
100
AcDbEntity
  8
comp
 62
256
370
-1
 48
1.0
  6
BYLAYER
100
AcDbLine
 10
0.0
 20
-6.1500000000000057
 30
0.0
 11
7.0
 21
-6.1500000000000057
 31
0.0
  0
LINE
  5
7E
100
AcDbEntity
  8
comp
 62
256
370
-1
 48
1.0
  6
BYLAYER
100
AcDbLine
 10
0.0
 20
6.1499999999999986
 30
0.0
 11
0.0
 21
-6.1500000000000057
 31
0.0
  0
LINE
  5
7F
100
AcDbEntity
  8
comp
 62
256
370
-1
 48
1.0
  6
BYLAYER
100
AcDbLine
 10
7.0
 20
6.1499999999999986
 30
0.0
 11
7.0
 21
-6.1500000000000057
 31
0.0
  0
ENDBLK
  5
80
100
AcDbEntity
  8
0
100
AcDbBlockEnd
  0
BLOCK
  5
81
100
AcDbEntity
  8
0
100
AcDbBlockBegin
  2
conn5x3
 70
0
 10
0.0
 20
0.0
 30
0.0
  3
conn5x3
  1

  0
LINE
  5
82
100
AcDbEntity
  8
comp
 62
256
370
-1
 48
1.0
  6
BYLAYER
100
AcDbLine
 10
-4.0000000000000142
 20
5.0799999999999983
 30
0.0
 11
-0.0000000000000142
 21
5.0799999999999983
 31
0.0
  0
LINE
  5
83
100
AcDbEntity
  8
comp
 62
256
370
-1
 48
1.0
  6
BYLAYER
100
AcDbLine
 10
-4.0000000000000142
 20
0.0
 30
0.0
 11
-0.0000000000000142
 21
0.0
 31
0.0
  0
LINE
  5
84
100
AcDbEntity
  8
comp
 62
256
370
-1
 48
1.0
  6
BYLAYER
100
AcDbLine
 10
-4.0000000000000142
 20
-5.0800000000000054
 30
0.0
 11
-0.0000000000000142
 21
-5.0800000000000054
 31
0.0
  0
MTEXT
  5
85
100
AcDbEntity
  8
comp
 62
256
370
-1
 48
1.0
  6
BYLAYER
100
AcDbMText
 10
1.5016116035454701
 20
2.5399999999999352
 30
0.0
 40
1.5
 41
0.0
 71
4
 72
1
  1
d: 3.7\Pp: 1.0\Pu: 3.0
  7
textstyle4
 50
0.0
 73
2
 44
1.0
  0
LINE
  5
86
100
AcDbEntity
  8
comp
 62
256
370
-1
 48
1.0
  6
BYLAYER
100
AcDbLine
 10
0.0
 20
7.5399999999999991
 30
0.0
 11
10.0
 21
7.5399999999999991
 31
0.0
  0
LINE
  5
87
100
AcDbEntity
  8
comp
 62
256
370
-1
 48
1.0
  6
BYLAYER
100
AcDbLine
 10
0.0
 20
-7.4600000000000009
 30
0.0
 11
10.0
 21
-7.4600000000000009
 31
0.0
  0
LINE
  5
88
100
AcDbEntity
  8
comp
 62
256
370
-1
 48
1.0
  6
BYLAYER
100
AcDbLine
 10
0.0
 20
7.5399999999999991
 30
0.0
 11
0.0
 21
-7.4600000000000009
 31
0.0
  0
LINE
  5
89
100
AcDbEntity
  8
comp
 62
256
370
-1
 48
1.0
  6
BYLAYER
100
AcDbLine
 10
10.0
 20
7.5399999999999991
 30
0.0
 11
10.0
 21
-7.4600000000000009
 31
0.0
  0
LINE
  5
8A
100
AcDbEntity
  8
comp
 62
256
370
-1
 48
1.0
  6
BYLAYER
100
AcDbLine
 10
0.0
 20
7.5399999999999991
 30
0.0
 11
-0.0000000000000142
 21
8.0400000000000063
 31
0.0
  0
LINE
  5
8B
100
AcDbEntity
  8
comp
 62
256
370
-1
 48
1.0
  6
BYLAYER
100
AcDbLine
 10
-0.0000000000000142
 20
8.0400000000000063
 30
0.0
 11
6.4999999999999858
 21
8.0400000000000063
 31
0.0
  0
LINE
  5
8C
100
AcDbEntity
  8
comp
 62
256
370
-1
 48
1.0
  6
BYLAYER
100
AcDbLine
 10
6.4999999999999858
 20
8.0400000000000063
 30
0.0
 11
6.4999999999999858
 21
7.5399999999999991
 31
0.0
  0
ENDBLK
  5
8D
100
AcDbEntity
  8
0
100
AcDbBlockEnd
  0
BLOCK
  5
8E
100
AcDbEntity
  8
0
100
AcDbBlockBegin
  2
conn5x2F
 70
0
 10
0.0
 20
0.0
 30
0.0
  3
conn5x2F
  1

  0
LINE
  5
8F
100
AcDbEntity
  8
comp
 62
256
370
-1
 48
1.0
  6
BYLAYER
100
AcDbLine
 10
-5.0
 20
-3.6999999999999993
 30
0.0
 11
5.0
 21
-3.6999999999999993
 31
0.0
  0
LINE
  5
90
100
AcDbEntity
  8
comp
 62
256
370
-1
 48
1.0
  6
BYLAYER
100
AcDbLine
 10
5.0
 20
-3.6999999999999993
 30
0.0
 11
5.0
 21
-3.6999999999999993
 31
0.0
  0
LINE
  5
91
100
AcDbEntity
  8
comp
 62
256
370
-1
 48
1.0
  6
BYLAYER
100
AcDbLine
 10
5.0
 20
-3.6999999999999993
 30
0.0
 11
-5.0
 21
-3.6999999999999993
 31
0.0
  0
LINE
  5
92
100
AcDbEntity
  8
comp
 62
256
370
-1
 48
1.0
  6
BYLAYER
100
AcDbLine
 10
-5.0
 20
-3.6999999999999993
 30
0.0
 11
-5.0
 21
-3.6999999999999993
 31
0.0
  0
LINE
  5
93
100
AcDbEntity
  8
comp
 62
256
370
-1
 48
1.0
  6
BYLAYER
100
AcDbLine
 10
-5.0
 20
0.0
 30
0.0
 11
5.0
 21
0.0
 31
0.0
  0
LINE
  5
94
100
AcDbEntity
  8
comp
 62
256
370
-1
 48
1.0
  6
BYLAYER
100
AcDbLine
 10
-5.0
 20
4.0
 30
0.0
 11
5.0
 21
4.0
 31
0.0
  0
LINE
  5
95
100
AcDbEntity
  8
comp
 62
256
370
-1
 48
1.0
  6
BYLAYER
100
AcDbLine
 10
-5.0
 20
4.0
 30
0.0
 11
-5.0
 21
-3.6999999999999993
 31
0.0
  0
LINE
  5
96
100
AcDbEntity
  8
comp
 62
256
370
-1
 48
1.0
  6
BYLAYER
100
AcDbLine
 10
5.0
 20
-3.6999999999999993
 30
0.0
 11
5.0
 21
4.0
 31
0.0
  0
ENDBLK
  5
97
100
AcDbEntity
  8
0
100
AcDbBlockEnd
  0
BLOCK
  5
98
100
AcDbEntity
  8
0
100
AcDbBlockBegin
  2
conn2.56x2F
 70
0
 10
0.0
 20
0.0
 30
0.0
  3
conn2.56x2F
  1

  0
LINE
  5
99
100
AcDbEntity
  8
comp
 62
256
370
-1
 48
1.0
  6
BYLAYER
100
AcDbLine
 10
-3.6499999999999773
 20
-3.0
 30
0.0
 11
3.6500000000000057
 21
-3.0
 31
0.0
  0
LINE
  5
9A
100
AcDbEntity
  8
comp
 62
256
370
-1
 48
1.0
  6
BYLAYER
100
AcDbLine
 10
-3.6499999999999773
 20
0.0
 30
0.0
 11
3.6500000000000057
 21
0.0
 31
0.0
  0
LINE
  5
9B
100
AcDbEntity
  8
comp
 62
256
370
-1
 48
1.0
  6
BYLAYER
100
AcDbLine
 10
-3.6499999999999773
 20
2.6999999999999993
 30
0.0
 11
3.6500000000000057
 21
2.6999999999999993
 31
0.0
  0
LINE
  5
9C
100
AcDbEntity
  8
comp
 62
256
370
-1
 48
1.0
  6
BYLAYER
100
AcDbLine
 10
-3.6499999999999773
 20
2.6999999999999993
 30
0.0
 11
-3.6499999999999773
 21
-3.0
 31
0.0
  0
LINE
  5
9D
100
AcDbEntity
  8
comp
 62
256
370
-1
 48
1.0
  6
BYLAYER
100
AcDbLine
 10
3.6500000000000057
 20
2.6999999999999993
 30
0.0
 11
3.6500000000000057
 21
-3.0
 31
0.0
  0
ENDBLK
  5
9E
100
AcDbEntity
  8
0
100
AcDbBlockEnd
  0
BLOCK
  5
9F
100
AcDbEntity
  8
0
100
AcDbBlockBegin
  2
res
 70
0
 10
0.0
 20
0.0
 30
0.0
  3
res
  1

  0
LINE
  5
A0
100
AcDbEntity
  8
comp
 62
256
370
-1
 48
1.0
  6
BYLAYER
100
AcDbLine
 10
-6.0
 20
0.0
 30
0.0
 11
-0.0000000000000142
 21
0.0
 31
0.0
  0
LINE
  5
A1
100
AcDbEntity
  8
comp
 62
256
370
-1
 48
1.0
  6
BYLAYER
100
AcDbLine
 10
-6.0
 20
2.5399999999999991
 30
0.0
 11
-0.0000000000000142
 21
2.5399999999999991
 31
0.0
  0
LINE
  5
A2
100
AcDbEntity
  8
comp
 62
256
370
-1
 48
1.0
  6
BYLAYER
100
AcDbLine
 10
-6.0
 20
-2.5399999999999991
 30
0.0
 11
-0.0000000000000142
 21
-2.5399999999999991
 31
0.0
  0
LINE
  5
A3
100
AcDbEntity
  8
comp
 62
256
370
-1
 48
1.0
  6
BYLAYER
100
AcDbLine
 10
-0.0000000000000142
 20
4.75
 30
0.0
 11
9.9999999999999858
 21
4.75
 31
0.0
  0
LINE
  5
A4
100
AcDbEntity
  8
comp
 62
256
370
-1
 48
1.0
  6
BYLAYER
100
AcDbLine
 10
-0.0000000000000142
 20
-4.75
 30
0.0
 11
9.9999999999999858
 21
-4.75
 31
0.0
  0
LINE
  5
A5
100
AcDbEntity
  8
comp
 62
256
370
-1
 48
1.0
  6
BYLAYER
100
AcDbLine
 10
-0.0000000000000142
 20
4.75
 30
0.0
 11
-0.0000000000000142
 21
-4.75
 31
0.0
  0
LINE
  5
A6
100
AcDbEntity
  8
comp
 62
256
370
-1
 48
1.0
  6
BYLAYER
100
AcDbLine
 10
9.9999999999999858
 20
-4.75
 30
0.0
 11
9.9999999999999858
 21
4.75
 31
0.0
  0
LINE
  5
A7
100
AcDbEntity
  8
comp
 62
256
370
-1
 48
1.0
  6
BYLAYER
100
AcDbLine
 10
9.9999999999999858
 20
-4.6999999999999957
 30
0.0
 11
11.4999999999999858
 21
-4.6999999999999957
 31
0.0
  0
LINE
  5
A8
100
AcDbEntity
  8
comp
 62
256
370
-1
 48
1.0
  6
BYLAYER
100
AcDbLine
 10
11.4999999999999858
 20
-4.6999999999999957
 30
0.0
 11
11.4999999999999858
 21
-2.6999999999999957
 31
0.0
  0
LINE
  5
A9
100
AcDbEntity
  8
comp
 62
256
370
-1
 48
1.0
  6
BYLAYER
100
AcDbLine
 10
11.4999999999999858
 20
-2.6999999999999957
 30
0.0
 11
9.9999999999999858
 21
-2.6999999999999957
 31
0.0
  0
MTEXT
  5
AA
100
AcDbEntity
  8
comp
 62
256
370
-1
 48
1.0
  6
BYLAYER
100
AcDbMText
 10
2.0
 20
0.0
 30
0.0
 40
1.5
 41
0.0
 71
4
 72
1
  1
d: 2.0\Pp: 0.4\Pu: 2.2
  7
textstyle0
 50
0.0
 73
2
 44
1.0
  0
ENDBLK
  5
AB
100
AcDbEntity
  8
0
100
AcDbBlockEnd
  0
BLOCK
  5
AC
100
AcDbEntity
  8
0
100
AcDbBlockBegin
  2
conn5x2
 70
0
 10
0.0
 20
0.0
 30
0.0
  3
conn5x2
  1

  0
LINE
  5
AD
100
AcDbEntity
  8
comp
 62
256
370
-1
 48
1.0
  6
BYLAYER
100
AcDbLine
 10
-4.0000000000000142
 20
2.5399999999999991
 30
0.0
 11
-0.0000000000000142
 21
2.5399999999999991
 31
0.0
  0
LINE
  5
AE
100
AcDbEntity
  8
comp
 62
256
370
-1
 48
1.0
  6
BYLAYER
100
AcDbLine
 10
-4.0000000000000142
 20
-2.5399999999999991
 30
0.0
 11
-0.0000000000000142
 21
-2.5399999999999991
 31
0.0
  0
MTEXT
  5
AF
100
AcDbEntity
  8
comp
 62
256
370
-1
 48
1.0
  6
BYLAYER
100
AcDbMText
 10
1.5016116035455127
 20
0.0
 30
0.0
 40
1.5
 41
0.0
 71
4
 72
1
  1
d: 3.7\Pp: 1.0\Pu: 3.0
  7
textstyle2
 50
0.0
 73
2
 44
1.0
  0
LINE
  5
B0
100
AcDbEntity
  8
comp
 62
256
370
-1
 48
1.0
  6
BYLAYER
100
AcDbLine
 10
0.0
 20
5.0
 30
0.0
 11
10.0
 21
5.0
 31
0.0
  0
LINE
  5
B1
100
AcDbEntity
  8
comp
 62
256
370
-1
 48
1.0
  6
BYLAYER
100
AcDbLine
 10
0.0
 20
-5.0
 30
0.0
 11
10.0
 21
-5.0
 31
0.0
  0
LINE
  5
B2
100
AcDbEntity
  8
comp
 62
256
370
-1
 48
1.0
  6
BYLAYER
100
AcDbLine
 10
0.0
 20
5.0
 30
0.0
 11
0.0
 21
-5.0
 31
0.0
  0
LINE
  5
B3
100
AcDbEntity
  8
comp
 62
256
370
-1
 48
1.0
  6
BYLAYER
100
AcDbLine
 10
10.0
 20
5.0
 30
0.0
 11
10.0
 21
-5.0
 31
0.0
  0
LINE
  5
B4
100
AcDbEntity
  8
comp
 62
256
370
-1
 48
1.0
  6
BYLAYER
100
AcDbLine
 10
0.0
 20
5.0
 30
0.0
 11
-0.0000000000000142
 21
5.5000000000000071
 31
0.0
  0
LINE
  5
B5
100
AcDbEntity
  8
comp
 62
256
370
-1
 48
1.0
  6
BYLAYER
100
AcDbLine
 10
-0.0000000000000142
 20
5.5000000000000071
 30
0.0
 11
6.4999999999999858
 21
5.5000000000000071
 31
0.0
  0
LINE
  5
B6
100
AcDbEntity
  8
comp
 62
256
370
-1
 48
1.0
  6
BYLAYER
100
AcDbLine
 10
6.4999999999999858
 20
5.5000000000000071
 30
0.0
 11
6.4999999999999858
 21
5.0
 31
0.0
  0
LINE
  5
B7
100
AcDbEntity
  8
comp
 62
256
370
-1
 48
1.0
  6
BYLAYER
100
AcDbLine
 10
6.0
 20
5.0
 30
0.0
 11
6.0
 21
4.0
 31
0.0
  0
LINE
  5
B8
100
AcDbEntity
  8
comp
 62
256
370
-1
 48
1.0
  6
BYLAYER
100
AcDbLine
 10
6.0
 20
-4.0
 30
0.0
 11
6.0
 21
-5.0
 31
0.0
  0
ENDBLK
  5
B9
100
AcDbEntity
  8
0
100
AcDbBlockEnd
  0
ENDSEC
  0
SECTION
  2
ENTITIES
  0
LINE
  5
BA
100
AcDbEntity
  8
0
 62
256
370
-1
 48
1.0
  6
BYLAYER
100
AcDbLine
 10
304.0
 20
0.000000000000027
 30
0.0
 11
376.0
 21
0.0000000000000014
 31
0.0
  0
LINE
  5
BB
100
AcDbEntity
  8
0
 62
256
370
-1
 48
1.0
  6
BYLAYER
100
AcDbLine
 10
304.0
 20
-50.0
 30
0.0
 11
376.0
 21
-50.0000000000000284
 31
0.0
  0
LINE
  5
BC
100
AcDbEntity
  8
0
 62
256
370
-1
 48
1.0
  6
BYLAYER
100
AcDbLine
 10
303.9999999999999432
 20
-100.0000000000000284
 30
0.0
 11
376.0
 21
-100.0000000000000568
 31
0.0
  0
LINE
  5
BD
100
AcDbEntity
  8
0
 62
256
370
-1
 48
1.0
  6
BYLAYER
100
AcDbLine
 10
303.9999999999999432
 20
-200.0000000000000284
 30
0.0
 11
376.0
 21
-200.0000000000000568
 31
0.0
  0
LINE
  5
BE
100
AcDbEntity
  8
0
 62
256
370
-1
 48
1.0
  6
BYLAYER
100
AcDbLine
 10
376.0
 20
40.0
 30
0.0
 11
304.0
 21
40.0
 31
0.0
  0
LINE
  5
BF
100
AcDbEntity
  8
0
 62
256
370
-1
 48
1.0
  6
BYLAYER
100
AcDbLine
 10
376.0
 20
-10.0000000000000284
 30
0.0
 11
304.0
 21
-10.0000000000000284
 31
0.0
  0
LINE
  5
C0
100
AcDbEntity
  8
0
 62
256
370
-1
 48
1.0
  6
BYLAYER
100
AcDbLine
 10
376.0
 20
-60.0000000000000639
 30
0.0
 11
304.0
 21
-60.0000000000000568
 31
0.0
  0
LINE
  5
C1
100
AcDbEntity
  8
0
 62
256
370
-1
 48
1.0
  6
BYLAYER
100
AcDbLine
 10
376.0
 20
-160.0000000000000568
 30
0.0
 11
304.0
 21
-160.0000000000000568
 31
0.0
  0
LINE
  5
C2
100
AcDbEntity
  8
0
 62
256
370
-1
 48
1.0
  6
BYLAYER
100
AcDbLine
 10
300.0
 20
38.0
 30
0.0
 11
300.0
 21
2.0000000000000284
 31
0.0
  0
LINE
  5
C3
100
AcDbEntity
  8
0
 62
256
370
-1
 48
1.0
  6
BYLAYER
100
AcDbLine
 10
380.0
 20
38.0
 30
0.0
 11
380.0
 21
2.0
 31
0.0
  0
LINE
  5
C4
100
AcDbEntity
  8
0
 62
256
370
-1
 48
1.0
  6
BYLAYER
100
AcDbLine
 10
300.0
 20
-12.0000000000000284
 30
0.0
 11
300.0
 21
-48.0
 31
0.0
  0
LINE
  5
C5
100
AcDbEntity
  8
0
 62
256
370
-1
 48
1.0
  6
BYLAYER
100
AcDbLine
 10
380.0
 20
-12.0000000000000284
 30
0.0
 11
380.0
 21
-48.0000000000000284
 31
0.0
  0
LINE
  5
C6
100
AcDbEntity
  8
0
 62
256
370
-1
 48
1.0
  6
BYLAYER
100
AcDbLine
 10
300.0
 20
-62.0000000000000639
 30
0.0
 11
300.0
 21
-98.0000000000000284
 31
0.0
  0
LINE
  5
C7
100
AcDbEntity
  8
0
 62
256
370
-1
 48
1.0
  6
BYLAYER
100
AcDbLine
 10
380.0
 20
-62.0000000000000639
 30
0.0
 11
380.0
 21
-98.0000000000000568
 31
0.0
  0
LINE
  5
C8
100
AcDbEntity
  8
0
 62
256
370
-1
 48
1.0
  6
BYLAYER
100
AcDbLine
 10
300.0
 20
-162.0000000000000568
 30
0.0
 11
300.0
 21
-198.0000000000000284
 31
0.0
  0
LINE
  5
C9
100
AcDbEntity
  8
0
 62
256
370
-1
 48
1.0
  6
BYLAYER
100
AcDbLine
 10
380.0
 20
-162.0000000000000568
 30
0.0
 11
380.0
 21
-198.0000000000000568
 31
0.0
  0
CIRCLE
  5
CA
100
AcDbEntity
  8
0
 62
256
370
-1
 48
1.0
  6
BYLAYER
100
AcDbCircle
 10
320.0
 20
35.0
 30
0.0
 40
1.6000000000000001
  0
CIRCLE
  5
CB
100
AcDbEntity
  8
0
 62
256
370
-1
 48
1.0
  6
BYLAYER
100
AcDbCircle
 10
368.0
 20
3.5
 30
0.0
 40
1.25
  0
CIRCLE
  5
CC
100
AcDbEntity
  8
0
 62
256
370
-1
 48
1.0
  6
BYLAYER
100
AcDbCircle
 10
312.0
 20
3.5
 30
0.0
 40
1.25
  0
CIRCLE
  5
CD
100
AcDbEntity
  8
0
 62
256
370
-1
 48
1.0
  6
BYLAYER
100
AcDbCircle
 10
320.0
 20
5.0
 30
0.0
 40
1.6000000000000001
  0
CIRCLE
  5
CE
100
AcDbEntity
  8
0
 62
256
370
-1
 48
1.0
  6
BYLAYER
100
AcDbCircle
 10
360.0
 20
5.0
 30
0.0
 40
1.6000000000000001
  0
CIRCLE
  5
CF
100
AcDbEntity
  8
0
 62
256
370
-1
 48
1.0
  6
BYLAYER
100
AcDbCircle
 10
360.0
 20
35.0
 30
0.0
 40
1.6000000000000001
  0
CIRCLE
  5
D0
100
AcDbEntity
  8
0
 62
256
370
-1
 48
1.0
  6
BYLAYER
100
AcDbCircle
 10
340.0
 20
5.0
 30
0.0
 40
1.25
  0
CIRCLE
  5
D1
100
AcDbEntity
  8
0
 62
256
370
-1
 48
1.0
  6
BYLAYER
100
AcDbCircle
 10
368.0
 20
36.5
 30
0.0
 40
1.25
  0
CIRCLE
  5
D2
100
AcDbEntity
  8
0
 62
256
370
-1
 48
1.0
  6
BYLAYER
100
AcDbCircle
 10
312.0
 20
36.4999999999999858
 30
0.0
 40
1.25
  0
CIRCLE
  5
D3
100
AcDbEntity
  8
0
 62
256
370
-1
 48
1.0
  6
BYLAYER
100
AcDbCircle
 10
340.0
 20
35.0
 30
0.0
 40
1.25
  0
CIRCLE
  5
D4
100
AcDbEntity
  8
0
 62
256
370
-1
 48
1.0
  6
BYLAYER
100
AcDbCircle
 10
320.0
 20
-15.0000000000000284
 30
0.0
 40
1.6000000000000001
  0
CIRCLE
  5
D5
100
AcDbEntity
  8
0
 62
256
370
-1
 48
1.0
  6
BYLAYER
100
AcDbCircle
 10
368.0
 20
-46.5000000000000284
 30
0.0
 40
1.6000000000000001
  0
CIRCLE
  5
D6
100
AcDbEntity
  8
0
 62
256
370
-1
 48
1.0
  6
BYLAYER
100
AcDbCircle
 10
312.0
 20
-46.5000000000000284
 30
0.0
 40
1.6000000000000001
  0
CIRCLE
  5
D7
100
AcDbEntity
  8
0
 62
256
370
-1
 48
1.0
  6
BYLAYER
100
AcDbCircle
 10
320.0
 20
-45.0000000000000284
 30
0.0
 40
1.6000000000000001
  0
CIRCLE
  5
D8
100
AcDbEntity
  8
0
 62
256
370
-1
 48
1.0
  6
BYLAYER
100
AcDbCircle
 10
360.0
 20
-45.0000000000000284
 30
0.0
 40
1.6000000000000001
  0
CIRCLE
  5
D9
100
AcDbEntity
  8
0
 62
256
370
-1
 48
1.0
  6
BYLAYER
100
AcDbCircle
 10
360.0
 20
-15.0000000000000284
 30
0.0
 40
1.6000000000000001
  0
CIRCLE
  5
DA
100
AcDbEntity
  8
0
 62
256
370
-1
 48
1.0
  6
BYLAYER
100
AcDbCircle
 10
368.0
 20
-13.5000000000000284
 30
0.0
 40
1.6000000000000001
  0
CIRCLE
  5
DB
100
AcDbEntity
  8
0
 62
256
370
-1
 48
1.0
  6
BYLAYER
100
AcDbCircle
 10
312.0
 20
-13.5000000000000426
 30
0.0
 40
1.6000000000000001
  0
CIRCLE
  5
DC
100
AcDbEntity
  8
0
 62
256
370
-1
 48
1.0
  6
BYLAYER
100
AcDbCircle
 10
320.0
 20
-65.0000000000000568
 30
0.0
 40
1.6000000000000001
  0
CIRCLE
  5
DD
100
AcDbEntity
  8
0
 62
256
370
-1
 48
1.0
  6
BYLAYER
100
AcDbCircle
 10
368.0
 20
-96.5000000000000568
 30
0.0
 40
1.6000000000000001
  0
CIRCLE
  5
DE
100
AcDbEntity
  8
0
 62
256
370
-1
 48
1.0
  6
BYLAYER
100
AcDbCircle
 10
312.0
 20
-96.5000000000000568
 30
0.0
 40
1.6000000000000001
  0
CIRCLE
  5
DF
100
AcDbEntity
  8
0
 62
256
370
-1
 48
1.0
  6
BYLAYER
100
AcDbCircle
 10
320.0
 20
-95.0000000000000568
 30
0.0
 40
1.6000000000000001
  0
CIRCLE
  5
E0
100
AcDbEntity
  8
0
 62
256
370
-1
 48
1.0
  6
BYLAYER
100
AcDbCircle
 10
360.0
 20
-95.0000000000000568
 30
0.0
 40
1.6000000000000001
  0
CIRCLE
  5
E1
100
AcDbEntity
  8
0
 62
256
370
-1
 48
1.0
  6
BYLAYER
100
AcDbCircle
 10
360.0
 20
-65.0000000000000568
 30
0.0
 40
1.6000000000000001
  0
CIRCLE
  5
E2
100
AcDbEntity
  8
0
 62
256
370
-1
 48
1.0
  6
BYLAYER
100
AcDbCircle
 10
368.0
 20
-63.5000000000000568
 30
0.0
 40
1.6000000000000001
  0
CIRCLE
  5
E3
100
AcDbEntity
  8
0
 62
256
370
-1
 48
1.0
  6
BYLAYER
100
AcDbCircle
 10
312.0
 20
-63.5000000000000711
 30
0.0
 40
1.6000000000000001
  0
CIRCLE
  5
E4
100
AcDbEntity
  8
cut
 62
256
370
-1
 48
1.0
  6
BYLAYER
100
AcDbCircle
 10
340.0
 20
-145.0000000000000284
 30
0.0
 40
1.6000000000000001
  0
CIRCLE
  5
E5
100
AcDbEntity
  8
cut
 62
256
370
-1
 48
1.0
  6
BYLAYER
100
AcDbCircle
 10
340.0
 20
-115.0000000000000284
 30
0.0
 40
1.6000000000000001
  0
CIRCLE
  5
E6
100
AcDbEntity
  8
0
 62
256
370
-1
 48
1.0
  6
BYLAYER
100
AcDbCircle
 10
320.0
 20
-165.0000000000000568
 30
0.0
 40
1.6000000000000001
  0
CIRCLE
  5
E7
100
AcDbEntity
  8
0
 62
256
370
-1
 48
1.0
  6
BYLAYER
100
AcDbCircle
 10
368.0
 20
-196.5000000000000568
 30
0.0
 40
1.6000000000000001
  0
CIRCLE
  5
E8
100
AcDbEntity
  8
0
 62
256
370
-1
 48
1.0
  6
BYLAYER
100
AcDbCircle
 10
312.0
 20
-196.5000000000000568
 30
0.0
 40
1.6000000000000001
  0
CIRCLE
  5
E9
100
AcDbEntity
  8
0
 62
256
370
-1
 48
1.0
  6
BYLAYER
100
AcDbCircle
 10
320.0
 20
-195.0000000000000568
 30
0.0
 40
1.6000000000000001
  0
CIRCLE
  5
EA
100
AcDbEntity
  8
0
 62
256
370
-1
 48
1.0
  6
BYLAYER
100
AcDbCircle
 10
360.0
 20
-195.0000000000000568
 30
0.0
 40
1.6000000000000001
  0
CIRCLE
  5
EB
100
AcDbEntity
  8
0
 62
256
370
-1
 48
1.0
  6
BYLAYER
100
AcDbCircle
 10
360.0
 20
-165.0000000000000568
 30
0.0
 40
1.6000000000000001
  0
CIRCLE
  5
EC
100
AcDbEntity
  8
0
 62
256
370
-1
 48
1.0
  6
BYLAYER
100
AcDbCircle
 10
368.0
 20
-163.5000000000000568
 30
0.0
 40
1.6000000000000001
  0
CIRCLE
  5
ED
100
AcDbEntity
  8
0
 62
256
370
-1
 48
1.0
  6
BYLAYER
100
AcDbCircle
 10
312.0
 20
-163.5000000000000568
 30
0.0
 40
1.6000000000000001
  0
INSERT
  5
EE
100
AcDbEntity
  8
comp
 62
256
370
-1
 48
1.0
  6
BYLAYER
100
AcDbBlockReference
  2
res
 10
0.0
 20
-40.0
 30
0.0
  0
LINE
  5
EF
100
AcDbEntity
  8
0
 62
256
370
-1
 48
1.0
  6
BYLAYER
100
AcDbLine
 10
365.196152422706632
 20
-16.0
 30
0.0
 11
371.0
 21
-16.0
 31
0.0
  0
LINE
  5
F0
100
AcDbEntity
  8
cut
 62
256
370
-1
 48
1.0
  6
BYLAYER
100
AcDbLine
 10
365.196152422706632
 20
-116.0
 30
0.0
 11
371.0
 21
-116.0
 31
0.0
  0
LINE
  5
F1
100
AcDbEntity
  8
cut
 62
256
370
-1
 48
1.0
  6
BYLAYER
100
AcDbLine
 10
309.0
 20
-116.0
 30
0.0
 11
314.803847577293368
 21
-116.0
 31
0.0
  0
LINE
  5
F2
100
AcDbEntity
  8
0
 62
256
370
-1
 48
1.0
  6
BYLAYER
100
AcDbLine
 10
314.803847577293368
 20
-15.9999999999999893
 30
0.0
 11
309.0
 21
-16.0
 31
0.0
  0
LINE
  5
F3
100
AcDbEntity
  8
0
 62
256
370
-1
 48
1.0
  6
BYLAYER
100
AcDbLine
 10
371.0
 20
-44.0
 30
0.0
 11
365.196152422706632
 21
-44.0
 31
0.0
  0
LINE
  5
F4
100
AcDbEntity
  8
cut
 62
256
370
-1
 48
1.0
  6
BYLAYER
100
AcDbLine
 10
314.803847577293368
 20
-144.0
 30
0.0
 11
309.0
 21
-144.0
 31
0.0
  0
LINE
  5
F5
100
AcDbEntity
  8
cut
 62
256
370
-1
 48
1.0
  6
BYLAYER
100
AcDbLine
 10
371.0
 20
-144.0
 30
0.0
 11
365.196152422706632
 21
-144.0
 31
0.0
  0
LINE
  5
F6
100
AcDbEntity
  8
0
 62
256
370
-1
 48
1.0
  6
BYLAYER
100
AcDbLine
 10
309.0
 20
-43.9999999999999289
 30
0.0
 11
314.803847577293368
 21
-44.0000000000000284
 31
0.0
  0
ARC
  5
F7
100
AcDbEntity
  8
cut
 62
256
370
-1
 48
1.0
  6
BYLAYER
100
AcDbCircle
 10
320.0
 20
-145.0
 30
0.0
 40
4.0
100
AcDbArc
 50
0.0
 51
150.0
  0
ARC
  5
F8
100
AcDbEntity
  8
cut
 62
256
370
-1
 48
1.0
  6
BYLAYER
100
AcDbCircle
 10
360.0
 20
-145.0
 30
0.0
 40
4.0
100
AcDbArc
 50
29.9999999999999289
 51
180.0
  0
ARC
  5
F9
100
AcDbEntity
  8
cut
 62
256
370
-1
 48
1.0
  6
BYLAYER
100
AcDbCircle
 10
360.0
 20
-115.0
 30
0.0
 40
4.0
100
AcDbArc
 50
180.0
 51
330.0000000000000568
  0
ARC
  5
FA
100
AcDbEntity
  8
cut
 62
256
370
-1
 48
1.0
  6
BYLAYER
100
AcDbCircle
 10
320.0
 20
-115.0
 30
0.0
 40
4.0
100
AcDbArc
 50
210.0
 51
0.0
  0
LINE
  5
FB
100
AcDbEntity
  8
cut
 62
256
370
-1
 48
1.0
  6
BYLAYER
100
AcDbLine
 10
307.0
 20
-118.0
 30
0.0
 11
307.0
 21
-142.0
 31
0.0
  0
LINE
  5
FC
100
AcDbEntity
  8
0
 62
256
370
-1
 48
1.0
  6
BYLAYER
100
AcDbLine
 10
373.0
 20
-18.0
 30
0.0
 11
373.0
 21
-42.0
 31
0.0
  0
LINE
  5
FD
100
AcDbEntity
  8
cut
 62
256
370
-1
 48
1.0
  6
BYLAYER
100
AcDbLine
 10
373.0
 20
-118.0
 30
0.0
 11
373.0
 21
-142.0
 31
0.0
  0
LINE
  5
FE
100
AcDbEntity
  8
0
 62
256
370
-1
 48
1.0
  6
BYLAYER
100
AcDbLine
 10
307.0
 20
-17.9999999999999929
 30
0.0
 11
307.0
 21
-42.0
 31
0.0
  0
ARC
  5
FF
100
AcDbEntity
  8
cut
 62
256
370
-1
 48
1.0
  6
BYLAYER
100
AcDbCircle
 10
314.803847577293368
 20
-118.0
 30
0.0
 40
2.0
100
AcDbArc
 50
29.9999999999999289
 51
90.0
  0
ARC
  5
100
100
AcDbEntity
  8
0
 62
256
370
-1
 48
1.0
  6
BYLAYER
100
AcDbCircle
 10
365.196152422706632
 20
-18.0
 30
0.0
 40
2.0
100
AcDbArc
 50
90.0
 51
149.9999999999998863
  0
ARC
  5
101
100
AcDbEntity
  8
cut
 62
256
370
-1
 48
1.0
  6
BYLAYER
100
AcDbCircle
 10
365.196152422706632
 20
-118.0
 30
0.0
 40
2.0
100
AcDbArc
 50
90.0
 51
149.9999999999998863
  0
ARC
  5
102
100
AcDbEntity
  8
0
 62
256
370
-1
 48
1.0
  6
BYLAYER
100
AcDbCircle
 10
314.803847577293368
 20
-17.9999999999999929
 30
0.0
 40
2.0
100
AcDbArc
 50
30.0000000000001172
 51
90.0
  0
ARC
  5
103
100
AcDbEntity
  8
0
 62
256
370
-1
 48
1.0
  6
BYLAYER
100
AcDbCircle
 10
371.0
 20
-18.0
 30
0.0
 40
2.0
100
AcDbArc
 50
0.0
 51
90.0
  0
ARC
  5
104
100
AcDbEntity
  8
cut
 62
256
370
-1
 48
1.0
  6
BYLAYER
100
AcDbCircle
 10
371.0
 20
-118.0
 30
0.0
 40
2.0
100
AcDbArc
 50
0.0
 51
90.0
  0
ARC
  5
105
100
AcDbEntity
  8
0
 62
256
370
-1
 48
1.0
  6
BYLAYER
100
AcDbCircle
 10
309.0
 20
-17.9999999999999893
 30
0.0
 40
2.0
100
AcDbArc
 50
90.0
 51
180.0
  0
ARC
  5
106
100
AcDbEntity
  8
0
 62
256
370
-1
 48
1.0
  6
BYLAYER
100
AcDbCircle
 10
371.0
 20
-42.0
 30
0.0
 40
2.0
100
AcDbArc
 50
270.0
 51
0.0
  0
ARC
  5
107
100
AcDbEntity
  8
cut
 62
256
370
-1
 48
1.0
  6
BYLAYER
100
AcDbCircle
 10
371.0
 20
-142.0
 30
0.0
 40
2.0
100
AcDbArc
 50
270.0
 51
0.0
  0
ARC
  5
108
100
AcDbEntity
  8
0
 62
256
370
-1
 48
1.0
  6
BYLAYER
100
AcDbCircle
 10
309.0
 20
-42.0000000000000213
 30
0.0
 40
2.0
100
AcDbArc
 50
180.0
 51
270.0
  0
ARC
  5
109
100
AcDbEntity
  8
0
 62
256
370
-1
 48
1.0
  6
BYLAYER
100
AcDbCircle
 10
365.196152422706632
 20
-42.0
 30
0.0
 40
2.0
100
AcDbArc
 50
210.0000000000001421
 51
270.0
  0
ARC
  5
10A
100
AcDbEntity
  8
cut
 62
256
370
-1
 48
1.0
  6
BYLAYER
100
AcDbCircle
 10
365.196152422706632
 20
-142.0
 30
0.0
 40
2.0
100
AcDbArc
 50
210.0000000000001421
 51
270.0
  0
ARC
  5
10B
100
AcDbEntity
  8
0
 62
256
370
-1
 48
1.0
  6
BYLAYER
100
AcDbCircle
 10
314.803847577293368
 20
-42.0
 30
0.0
 40
2.0
100
AcDbArc
 50
270.0
 51
329.9999999999999432
  0
ARC
  5
10C
100
AcDbEntity
  8
cut
 62
256
370
-1
 48
1.0
  6
BYLAYER
100
AcDbCircle
 10
314.803847577293368
 20
-142.0
 30
0.0
 40
2.0
100
AcDbArc
 50
270.0
 51
330.0000000000000568
  0
ARC
  5
10D
100
AcDbEntity
  8
cut
 62
256
370
-1
 48
1.0
  6
BYLAYER
100
AcDbCircle
 10
309.0
 20
-142.0
 30
0.0
 40
2.0
100
AcDbArc
 50
180.0
 51
270.0
  0
ARC
  5
10E
100
AcDbEntity
  8
cut
 62
256
370
-1
 48
1.0
  6
BYLAYER
100
AcDbCircle
 10
309.0
 20
-118.0
 30
0.0
 40
2.0
100
AcDbArc
 50
90.0
 51
180.0
  0
LINE
  5
10F
100
AcDbEntity
  8
0
 62
256
370
-1
 48
1.0
  6
BYLAYER
100
AcDbLine
 10
326.0
 20
-12.0
 30
0.0
 11
354.0
 21
-12.0
 31
0.0
  0
LINE
  5
110
100
AcDbEntity
  8
cut
 62
256
370
-1
 48
1.0
  6
BYLAYER
100
AcDbLine
 10
326.0
 20
-112.0
 30
0.0
 11
354.0
 21
-112.0
 31
0.0
  0
LINE
  5
111
100
AcDbEntity
  8
0
 62
256
370
-1
 48
1.0
  6
BYLAYER
100
AcDbLine
 10
326.0
 20
-62.0000000000000284
 30
0.0
 11
354.0
 21
-62.0000000000000284
 31
0.0
  0
LINE
  5
112
100
AcDbEntity
  8
0
 62
256
370
-1
 48
1.0
  6
BYLAYER
100
AcDbLine
 10
326.0
 20
-48.0
 30
0.0
 11
354.0
 21
-48.0
 31
0.0
  0
LINE
  5
113
100
AcDbEntity
  8
cut
 62
256
370
-1
 48
1.0
  6
BYLAYER
100
AcDbLine
 10
326.0
 20
-148.0
 30
0.0
 11
354.0
 21
-148.0
 31
0.0
  0
LINE
  5
114
100
AcDbEntity
  8
0
 62
256
370
-1
 48
1.0
  6
BYLAYER
100
AcDbLine
 10
326.0
 20
-98.0000000000000284
 30
0.0
 11
354.0
 21
-98.0000000000000284
 31
0.0
  0
LINE
  5
115
100
AcDbEntity
  8
0
 62
256
370
-1
 48
1.0
  6
BYLAYER
100
AcDbLine
 10
356.0
 20
-14.0
 30
0.0
 11
356.0
 21
-15.0
 31
0.0
  0
LINE
  5
116
100
AcDbEntity
  8
0
 62
256
370
-1
 48
1.0
  6
BYLAYER
100
AcDbLine
 10
356.0
 20
-45.0
 30
0.0
 11
356.0
 21
-46.0
 31
0.0
  0
LINE
  5
117
100
AcDbEntity
  8
cut
 62
256
370
-1
 48
1.0
  6
BYLAYER
100
AcDbLine
 10
356.0
 20
-114.0
 30
0.0
 11
356.0
 21
-115.0
 31
0.0
  0
LINE
  5
118
100
AcDbEntity
  8
cut
 62
256
370
-1
 48
1.0
  6
BYLAYER
100
AcDbLine
 10
356.0
 20
-145.0
 30
0.0
 11
356.0
 21
-146.0
 31
0.0
  0
LINE
  5
119
100
AcDbEntity
  8
0
 62
256
370
-1
 48
1.0
  6
BYLAYER
100
AcDbLine
 10
356.0
 20
-64.0000000000000284
 30
0.0
 11
356.0
 21
-65.0000000000000284
 31
0.0
  0
LINE
  5
11A
100
AcDbEntity
  8
0
 62
256
370
-1
 48
1.0
  6
BYLAYER
100
AcDbLine
 10
356.0
 20
-95.0000000000000284
 30
0.0
 11
356.0
 21
-96.0000000000000284
 31
0.0
  0
LINE
  5
11B
100
AcDbEntity
  8
0
 62
256
370
-1
 48
1.0
  6
BYLAYER
100
AcDbLine
 10
324.0
 20
-46.0
 30
0.0
 11
324.0
 21
-45.0
 31
0.0
  0
LINE
  5
11C
100
AcDbEntity
  8
0
 62
256
370
-1
 48
1.0
  6
BYLAYER
100
AcDbLine
 10
324.0
 20
-15.0
 30
0.0
 11
324.0
 21
-14.0
 31
0.0
  0
LINE
  5
11D
100
AcDbEntity
  8
cut
 62
256
370
-1
 48
1.0
  6
BYLAYER
100
AcDbLine
 10
324.0
 20
-146.0
 30
0.0
 11
324.0
 21
-145.0
 31
0.0
  0
LINE
  5
11E
100
AcDbEntity
  8
cut
 62
256
370
-1
 48
1.0
  6
BYLAYER
100
AcDbLine
 10
324.0
 20
-115.0
 30
0.0
 11
324.0
 21
-114.0
 31
0.0
  0
LINE
  5
11F
100
AcDbEntity
  8
0
 62
256
370
-1
 48
1.0
  6
BYLAYER
100
AcDbLine
 10
324.0
 20
-96.0000000000000284
 30
0.0
 11
324.0
 21
-95.0000000000000284
 31
0.0
  0
LINE
  5
120
100
AcDbEntity
  8
0
 62
256
370
-1
 48
1.0
  6
BYLAYER
100
AcDbLine
 10
324.0
 20
-65.0000000000000284
 30
0.0
 11
324.0
 21
-64.0000000000000284
 31
0.0
  0
ARC
  5
121
100
AcDbEntity
  8
0
 62
256
370
-1
 48
1.0
  6
BYLAYER
100
AcDbCircle
 10
354.0
 20
-14.0
 30
0.0
 40
2.0
100
AcDbArc
 50
0.0
 51
90.0
  0
ARC
  5
122
100
AcDbEntity
  8
cut
 62
256
370
-1
 48
1.0
  6
BYLAYER
100
AcDbCircle
 10
354.0
 20
-114.0
 30
0.0
 40
2.0
100
AcDbArc
 50
0.0
 51
90.0
  0
ARC
  5
123
100
AcDbEntity
  8
0
 62
256
370
-1
 48
1.0
  6
BYLAYER
100
AcDbCircle
 10
354.0
 20
-64.0000000000000284
 30
0.0
 40
2.0
100
AcDbArc
 50
0.0
 51
90.0
  0
ARC
  5
124
100
AcDbEntity
  8
0
 62
256
370
-1
 48
1.0
  6
BYLAYER
100
AcDbCircle
 10
326.0
 20
-14.0
 30
0.0
 40
2.0
100
AcDbArc
 50
90.0
 51
180.0
  0
ARC
  5
125
100
AcDbEntity
  8
cut
 62
256
370
-1
 48
1.0
  6
BYLAYER
100
AcDbCircle
 10
326.0
 20
-114.0
 30
0.0
 40
2.0
100
AcDbArc
 50
90.0
 51
180.0
  0
ARC
  5
126
100
AcDbEntity
  8
0
 62
256
370
-1
 48
1.0
  6
BYLAYER
100
AcDbCircle
 10
326.0
 20
-64.0000000000000284
 30
0.0
 40
2.0
100
AcDbArc
 50
90.0
 51
180.0
  0
ARC
  5
127
100
AcDbEntity
  8
0
 62
256
370
-1
 48
1.0
  6
BYLAYER
100
AcDbCircle
 10
354.0
 20
-46.0
 30
0.0
 40
2.0
100
AcDbArc
 50
270.0
 51
0.0
  0
ARC
  5
128
100
AcDbEntity
  8
cut
 62
256
370
-1
 48
1.0
  6
BYLAYER
100
AcDbCircle
 10
354.0
 20
-146.0
 30
0.0
 40
2.0
100
AcDbArc
 50
270.0
 51
0.0
  0
ARC
  5
129
100
AcDbEntity
  8
0
 62
256
370
-1
 48
1.0
  6
BYLAYER
100
AcDbCircle
 10
354.0
 20
-96.0000000000000284
 30
0.0
 40
2.0
100
AcDbArc
 50
270.0
 51
0.0
  0
ARC
  5
12A
100
AcDbEntity
  8
0
 62
256
370
-1
 48
1.0
  6
BYLAYER
100
AcDbCircle
 10
326.0
 20
-46.0
 30
0.0
 40
2.0
100
AcDbArc
 50
180.0
 51
270.0
  0
ARC
  5
12B
100
AcDbEntity
  8
cut
 62
256
370
-1
 48
1.0
  6
BYLAYER
100
AcDbCircle
 10
326.0
 20
-146.0
 30
0.0
 40
2.0
100
AcDbArc
 50
180.0
 51
270.0
  0
ARC
  5
12C
100
AcDbEntity
  8
0
 62
256
370
-1
 48
1.0
  6
BYLAYER
100
AcDbCircle
 10
326.0
 20
-96.0000000000000284
 30
0.0
 40
2.0
100
AcDbArc
 50
180.0
 51
270.0
  0
INSERT
  5
12D
100
AcDbEntity
  8
comp
 62
256
370
-1
 48
1.0
  6
BYLAYER
100
AcDbBlockReference
  2
conn5x3
 10
-0.0000000000000135
 20
-20.0
 30
0.0
 50
360.0
  0
INSERT
  5
12E
100
AcDbEntity
  8
comp
 62
256
370
-1
 48
1.0
  6
BYLAYER
100
AcDbBlockReference
  2
conn5x3
 10
373.0
 20
-37.7000000000000028
 30
0.0
 41
1.0
 42
-1.0
 43
1.0
  0
INSERT
  5
12F
100
AcDbEntity
  8
comp
 62
256
370
-1
 48
1.0
  6
BYLAYER
100
AcDbBlockReference
  2
conn5x3
 10
373.0
 20
-122.2999999999999687
 30
0.0
  0
INSERT
  5
130
100
AcDbEntity
  8
comp
 62
256
370
-1
 48
1.0
  6
BYLAYER
100
AcDbBlockReference
  2
conn2.56x2
 10
373.0
 20
16.3500000000000796
 30
0.0
  0
INSERT
  5
131
100
AcDbEntity
  8
comp
 62
256
370
-1
 48
1.0
  6
BYLAYER
100
AcDbBlockReference
  2
conn2.56x2
 10
307.0
 20
30.850000000000108
 30
0.0
 41
1.0
 42
-1.0
 43
1.0
 50
180.0
  0
INSERT
  5
132
100
AcDbEntity
  8
comp
 62
256
370
-1
 48
1.0
  6
BYLAYER
100
AcDbBlockReference
  2
conn2.56x2
 10
373.0
 20
-26.3500000000000547
 30
0.0
 41
1.0
 42
-1.0
 43
1.0
 50
360.0
  0
INSERT
  5
133
100
AcDbEntity
  8
comp
 62
256
370
-1
 48
1.0
  6
BYLAYER
100
AcDbBlockReference
  2
conn2.56x2
 10
373.0
 20
-76.3499999999997954
 30
0.0
 41
1.0
 42
-1.0
 43
1.0
  0
INSERT
  5
134
100
AcDbEntity
  8
comp
 62
256
370
-1
 48
1.0
  6
BYLAYER
100
AcDbBlockReference
  2
conn2.56x2
 10
373.0
 20
-133.6499999999999204
 30
0.0
  0
INSERT
  5
135
100
AcDbEntity
  8
comp
 62
256
370
-1
 48
1.0
  6
BYLAYER
100
AcDbBlockReference
  2
conn2.56x2
 10
307.0
 20
-119.149999999999892
 30
0.0
 41
1.0
 42
-1.0
 43
1.0
 50
180.0
  0
INSERT
  5
136
100
AcDbEntity
  8
comp
 62
256
370
-1
 48
1.0
  6
BYLAYER
100
AcDbBlockReference
  2
conn2.56x2
 10
307.0
 20
-90.850000000000108
 30
0.0
 50
180.0
  0
INSERT
  5
137
100
AcDbEntity
  8
comp
 62
256
370
-1
 48
1.0
  6
BYLAYER
100
AcDbBlockReference
  2
conn2.56x2
 10
0.0000000000000019
 20
0.0
 30
0.0
  0
INSERT
  5
138
100
AcDbEntity
  8
comp
 62
256
370
-1
 48
1.0
  6
BYLAYER
100
AcDbBlockReference
  2
conn2.56x2
 10
373.0
 20
9.0500000000000682
 30
0.0
  0
INSERT
  5
139
100
AcDbEntity
  8
comp
 62
256
370
-1
 48
1.0
  6
BYLAYER
100
AcDbBlockReference
  2
conn2.56x2
 10
373.0
 20
-19.0500000000000398
 30
0.0
 41
1.0
 42
-1.0
 43
1.0
 50
360.0
  0
INSERT
  5
13A
100
AcDbEntity
  8
comp
 62
256
370
-1
 48
1.0
  6
BYLAYER
100
AcDbBlockReference
  2
conn2.56x2
 10
373.0
 20
-69.0500000000000114
 30
0.0
 41
1.0
 42
-1.0
 43
1.0
  0
INSERT
  5
13B
100
AcDbEntity
  8
comp
 62
256
370
-1
 48
1.0
  6
BYLAYER
100
AcDbBlockReference
  2
conn2.56x2
 10
373.0
 20
-140.9499999999999318
 30
0.0
  0
LINE
  5
13C
100
AcDbEntity
  8
engrave
 62
256
370
-1
 48
1.0
  6
BYLAYER
100
AcDbLine
 10
325.7207592200561521
 20
-165.5
 30
0.0
 11
325.7792407799438479
 21
-165.5
 31
0.0
  0
LINE
  5
13D
100
AcDbEntity
  8
engrave
 62
256
370
-1
 48
1.0
  6
BYLAYER
100
AcDbLine
 10
327.7999999999999545
 20
-167.0
 30
0.0
 11
328.8062870566386096
 21
-167.0
 31
0.0
  0
LINE
  5
13E
100
AcDbEntity
  8
engrave
 62
256
370
-1
 48
1.0
  6
BYLAYER
100
AcDbLine
 10
330.0
 20
-167.0
 30
0.0
 11
333.3062870566385527
 21
-167.0
 31
0.0
  0
LINE
  5
13F
100
AcDbEntity
  8
engrave
 62
256
370
-1
 48
1.0
  6
BYLAYER
100
AcDbLine
 10
322.0
 20
-170.0
 30
0.0
 11
324.2792407799439047
 21
-170.0
 31
0.0
  0
LINE
  5
140
100
AcDbEntity
  8
engrave
 62
256
370
-1
 48
1.0
  6
BYLAYER
100
AcDbLine
 10
333.6937129433613336
 20
-170.0
 30
0.0
 11
337.0
 21
-170.0
 31
0.0
  0
LINE
  5
141
100
AcDbEntity
  8
engrave
 62
256
370
-1
 48
1.0
  6
BYLAYER
100
AcDbLine
 10
324.7720759220056266
 20
-166.1837722339831487
 30
0.0
 11
324.3860379610027849
 21
-167.3418861169915601
 31
0.0
  0
LINE
  5
142
100
AcDbEntity
  8
engrave
 62
256
370
-1
 48
1.0
  6
BYLAYER
100
AcDbLine
 10
327.0
 20
-164.0
 30
0.0
 11
326.7279240779943734
 21
-164.8162277660168513
 31
0.0
  0
LINE
  5
143
100
AcDbEntity
  8
engrave
 62
256
370
-1
 48
1.0
  6
BYLAYER
100
AcDbLine
 10
325.4472953723305864
 20
-168.6581138830084399
 30
0.0
 11
325.2279240779943734
 21
-169.3162277660168797
 31
0.0
  0
LINE
  5
144
100
AcDbEntity
  8
engrave
 62
256
370
-1
 48
1.0
  6
BYLAYER
100
AcDbLine
 10
327.4527046276694477
 20
-168.6418861169915715
 30
0.0
 11
327.2193712943361561
 21
-169.3418861169915886
 31
0.0
  0
LINE
  5
145
100
AcDbEntity
  8
engrave
 62
256
370
-1
 48
1.0
  6
BYLAYER
100
AcDbLine
 10
329.2806287056638439
 20
-167.6581138830084114
 30
0.0
 11
328.7193712943361561
 21
-169.3418861169915601
 31
0.0
  0
LINE
  5
146
100
AcDbEntity
  8
engrave
 62
256
370
-1
 48
1.0
  6
BYLAYER
100
AcDbLine
 10
331.9527046276693909
 20
-168.6418861169915715
 30
0.0
 11
331.7193712943360993
 21
-169.3418861169915886
 31
0.0
  0
LINE
  5
147
100
AcDbEntity
  8
engrave
 62
256
370
-1
 48
1.0
  6
BYLAYER
100
AcDbLine
 10
333.7806287056638439
 20
-167.6581138830084114
 30
0.0
 11
333.2193712943360424
 21
-169.3418861169915886
 31
0.0
  0
LINE
  5
148
100
AcDbEntity
  8
engrave
 62
256
370
-1
 48
1.0
  6
BYLAYER
100
AcDbLine
 10
328.0
 20
-164.0
 30
0.0
 11
326.2193712943361561
 21
-169.341886116991617
 31
0.0
  0
LINE
  5
149
100
AcDbEntity
  8
engrave
 62
256
370
-1
 48
1.0
  6
BYLAYER
100
AcDbLine
 10
326.6937129433613904
 20
-170.0
 30
0.0
 11
328.0
 21
-170.0
 31
0.0
  0
ARC
  5
14A
100
AcDbEntity
  8
engrave
 62
256
370
-1
 48
1.0
  6
BYLAYER
100
AcDbCircle
 10
326.6937129433613904
 20
-169.5000000000000284
 30
0.0
 40
0.5
100
AcDbArc
 50
161.5650511770790274
 51
270.0
  0
ARC
  5
14B
100
AcDbEntity
  8
engrave
 62
256
370
-1
 48
1.0
  6
BYLAYER
100
AcDbCircle
 10
327.6937129433613336
 20
-169.5
 30
0.0
 40
0.5
100
AcDbArc
 50
161.5650511770779758
 51
270.0
  0
ARC
  5
14C
100
AcDbEntity
  8
engrave
 62
256
370
-1
 48
1.0
  6
BYLAYER
100
AcDbCircle
 10
328.8062870566386096
 20
-167.5
 30
0.0
 40
0.5
100
AcDbArc
 50
341.5650511770790558
 51
90.0
  0
ARC
  5
14D
100
AcDbEntity
  8
engrave
 62
256
370
-1
 48
1.0
  6
BYLAYER
100
AcDbCircle
 10
329.1937129433614473
 20
-169.5
 30
0.0
 40
0.5
100
AcDbArc
 50
161.5650511770759579
 51
270.0
  0
ARC
  5
14E
100
AcDbEntity
  8
engrave
 62
256
370
-1
 48
1.0
  6
BYLAYER
100
AcDbCircle
 10
332.1937129433613904
 20
-169.5000000000000284
 30
0.0
 40
0.5
100
AcDbArc
 50
161.5650511770770095
 51
270.0
  0
ARC
  5
14F
100
AcDbEntity
  8
engrave
 62
256
370
-1
 48
1.0
  6
BYLAYER
100
AcDbCircle
 10
333.3062870566385527
 20
-167.5
 30
0.0
 40
0.5
100
AcDbArc
 50
341.5650511770790558
 51
90.0
  0
LINE
  5
150
100
AcDbEntity
  8
engrave
 62
256
370
-1
 48
1.0
  6
BYLAYER
100
AcDbLine
 10
332.0
 20
-167.0
 30
0.0
 11
329.5
 21
-170.0
 31
0.0
  0
LINE
  5
151
100
AcDbEntity
  8
engrave
 62
256
370
-1
 48
1.0
  6
BYLAYER
100
AcDbLine
 10
329.1937129433614473
 20
-170.0
 30
0.0
 11
332.5
 21
-170.0
 31
0.0
  0
LINE
  5
152
100
AcDbEntity
  8
engrave
 62
256
370
-1
 48
1.0
  6
BYLAYER
100
AcDbLine
 10
334.5
 20
-167.0
 30
0.0
 11
334.75
 21
-170.0
 31
0.0
  0
LINE
  5
153
100
AcDbEntity
  8
engrave
 62
256
370
-1
 48
1.0
  6
BYLAYER
100
AcDbLine
 10
334.75
 20
-170.0
 30
0.0
 11
336.5
 21
-167.0
 31
0.0
  0
ARC
  5
154
100
AcDbEntity
  8
engrave
 62
256
370
-1
 48
1.0
  6
BYLAYER
100
AcDbCircle
 10
325.7207592200561521
 20
-166.5
 30
0.0
 40
1.0
100
AcDbArc
 50
90.0
 51
161.5650511770774926
  0
ARC
  5
155
100
AcDbEntity
  8
engrave
 62
256
370
-1
 48
1.0
  6
BYLAYER
100
AcDbCircle
 10
324.2792407799439047
 20
-169.0000000000000284
 30
0.0
 40
1.0
100
AcDbArc
 50
270.0
 51
341.565051177076441
  0
ARC
  5
156
100
AcDbEntity
  8
engrave
 62
256
370
-1
 48
1.0
  6
BYLAYER
100
AcDbCircle
 10
325.7792407799438479
 20
-164.5
 30
0.0
 40
1.0
100
AcDbArc
 50
270.0
 51
341.5650511770770095
  0
ARC
  5
157
100
AcDbEntity
  8
engrave
 62
256
370
-1
 48
1.0
  6
BYLAYER
100
AcDbCircle
 10
333.6937129433613336
 20
-169.5
 30
0.0
 40
0.5
100
AcDbArc
 50
161.5650511770779758
 51
270.0
  0
LINE
  5
158
100
AcDbEntity
  8
engrave
 62
256
370
-1
 48
1.0
  6
BYLAYER
100
AcDbLine
 10
324.8603796100280761
 20
-168.0
 30
0.0
 11
324.972953723305352
 21
-168.0
 31
0.0
  0
ARC
  5
159
100
AcDbEntity
  8
engrave
 62
256
370
-1
 48
1.0
  6
BYLAYER
100
AcDbCircle
 10
324.8603796100280761
 20
-167.5
 30
0.0
 40
0.5
100
AcDbArc
 50
161.5650511770759579
 51
270.0
  0
ARC
  5
15A
100
AcDbEntity
  8
engrave
 62
256
370
-1
 48
1.0
  6
BYLAYER
100
AcDbCircle
 10
324.972953723305352
 20
-168.5
 30
0.0
 40
0.5
100
AcDbArc
 50
341.5650511770738831
 51
90.0
  0
LINE
  5
15B
100
AcDbEntity
  8
engrave
 62
256
370
-1
 48
1.0
  6
BYLAYER
100
AcDbLine
 10
327.9270462766946821
 20
-168.2999999999999829
 30
0.0
 11
329.066666666666606
 21
-168.2999999999999829
 31
0.0
  0
LINE
  5
15C
100
AcDbEntity
  8
engrave
 62
256
370
-1
 48
1.0
  6
BYLAYER
100
AcDbLine
 10
332.4270462766946821
 20
-168.2999999999999829
 30
0.0
 11
333.566666666666606
 21
-168.2999999999999829
 31
0.0
  0
ARC
  5
15D
100
AcDbEntity
  8
engrave
 62
256
370
-1
 48
1.0
  6
BYLAYER
100
AcDbCircle
 10
332.4270462766946821
 20
-168.7999999999999829
 30
0.0
 40
0.5
100
AcDbArc
 50
90.0
 51
161.5650511770790274
  0
ARC
  5
15E
100
AcDbEntity
  8
engrave
 62
256
370
-1
 48
1.0
  6
BYLAYER
100
AcDbCircle
 10
327.9270462766946821
 20
-168.7999999999999829
 30
0.0
 40
0.5
100
AcDbArc
 50
90.0
 51
161.5650511770790274
  0
LINE
  5
15F
100
AcDbEntity
  8
engrave
 62
256
370
-1
 48
1.0
  6
BYLAYER
100
AcDbLine
 10
351.0
 20
-188.5000000000000284
 30
0.0
 11
351.5
 21
-188.5000000000000284
 31
0.0
  0
LINE
  5
160
100
AcDbEntity
  8
engrave
 62
256
370
-1
 48
1.0
  6
BYLAYER
100
AcDbLine
 10
355.0
 20
-188.5000000000000284
 30
0.0
 11
355.5
 21
-188.5000000000000284
 31
0.0
  0
LINE
  5
161
100
AcDbEntity
  8
engrave
 62
256
370
-1
 48
1.0
  6
BYLAYER
100
AcDbLine
 10
352.0
 20
-189.0000000000000284
 30
0.0
 11
352.0
 21
-189.0635083268963115
 31
0.0
  0
LINE
  5
162
100
AcDbEntity
  8
engrave
 62
256
370
-1
 48
1.0
  6
BYLAYER
100
AcDbLine
 10
356.0
 20
-189.0000000000000284
 30
0.0
 11
356.0
 21
-189.0635083268963115
 31
0.0
  0
LINE
  5
163
100
AcDbEntity
  8
engrave
 62
256
370
-1
 48
1.0
  6
BYLAYER
100
AcDbLine
 10
350.5
 20
-191.0000000000000284
 30
0.0
 11
350.5
 21
-191.5000000000000284
 31
0.0
  0
LINE
  5
164
100
AcDbEntity
  8
engrave
 62
256
370
-1
 48
1.0
  6
BYLAYER
100
AcDbLine
 10
354.5
 20
-191.0000000000000284
 30
0.0
 11
354.5
 21
-191.5000000000000284
 31
0.0
  0
LINE
  5
165
100
AcDbEntity
  8
engrave
 62
256
370
-1
 48
1.0
  6
BYLAYER
100
AcDbLine
 10
350.5
 20
-191.5000000000000284
 30
0.0
 11
352.0
 21
-191.5000000000000284
 31
0.0
  0
LINE
  5
166
100
AcDbEntity
  8
engrave
 62
256
370
-1
 48
1.0
  6
BYLAYER
100
AcDbLine
 10
354.5
 20
-191.5000000000000284
 30
0.0
 11
356.0
 21
-191.5000000000000284
 31
0.0
  0
LINE
  5
167
100
AcDbEntity
  8
engrave
 62
256
370
-1
 48
1.0
  6
BYLAYER
100
AcDbLine
 10
350.5
 20
-189.0000000000000284
 30
0.0
 11
350.5
 21
-189.0000000000000284
 31
0.0
  0
LINE
  5
168
100
AcDbEntity
  8
engrave
 62
256
370
-1
 48
1.0
  6
BYLAYER
100
AcDbLine
 10
354.5
 20
-189.0000000000000284
 30
0.0
 11
354.5
 21
-189.0000000000000284
 31
0.0
  0
LINE
  5
169
100
AcDbEntity
  8
engrave
 62
256
370
-1
 48
1.0
  6
BYLAYER
100
AcDbLine
 10
352.0
 20
-191.0000000000000284
 30
0.0
 11
352.0
 21
-191.5000000000000284
 31
0.0
  0
LINE
  5
16A
100
AcDbEntity
  8
engrave
 62
256
370
-1
 48
1.0
  6
BYLAYER
100
AcDbLine
 10
356.0
 20
-191.0000000000000284
 30
0.0
 11
356.0
 21
-191.5000000000000284
 31
0.0
  0
ARC
  5
16B
100
AcDbEntity
  8
engrave
 62
256
370
-1
 48
1.0
  6
BYLAYER
100
AcDbCircle
 10
351.5
 20
-191.0000000000000284
 30
0.0
 40
1.0
100
AcDbArc
 50
104.4775121859298679
 51
180.0
  0
ARC
  5
16C
100
AcDbEntity
  8
engrave
 62
256
370
-1
 48
1.0
  6
BYLAYER
100
AcDbCircle
 10
355.5
 20
-191.0000000000000284
 30
0.0
 40
1.0
100
AcDbArc
 50
104.4775121859298679
 51
180.0
  0
ARC
  5
16D
100
AcDbEntity
  8
engrave
 62
256
370
-1
 48
1.0
  6
BYLAYER
100
AcDbCircle
 10
351.0
 20
-189.0635083268963115
 30
0.0
 40
1.0
100
AcDbArc
 50
284.4775121859298679
 51
0.0
  0
ARC
  5
16E
100
AcDbEntity
  8
engrave
 62
256
370
-1
 48
1.0
  6
BYLAYER
100
AcDbCircle
 10
355.0
 20
-189.0635083268963115
 30
0.0
 40
1.0
100
AcDbArc
 50
284.4775121859298679
 51
0.0
  0
ARC
  5
16F
100
AcDbEntity
  8
engrave
 62
256
370
-1
 48
1.0
  6
BYLAYER
100
AcDbCircle
 10
351.0
 20
-189.0000000000000284
 30
0.0
 40
0.5
100
AcDbArc
 50
90.0
 51
180.0
  0
ARC
  5
170
100
AcDbEntity
  8
engrave
 62
256
370
-1
 48
1.0
  6
BYLAYER
100
AcDbCircle
 10
355.0
 20
-189.0000000000000284
 30
0.0
 40
0.5
100
AcDbArc
 50
90.0
 51
180.0
  0
ARC
  5
171
100
AcDbEntity
  8
engrave
 62
256
370
-1
 48
1.0
  6
BYLAYER
100
AcDbCircle
 10
351.5
 20
-189.0000000000000284
 30
0.0
 40
0.5
100
AcDbArc
 50
0.0
 51
90.0
  0
ARC
  5
172
100
AcDbEntity
  8
engrave
 62
256
370
-1
 48
1.0
  6
BYLAYER
100
AcDbCircle
 10
355.5
 20
-189.0000000000000284
 30
0.0
 40
0.5
100
AcDbArc
 50
0.0
 51
90.0
  0
LINE
  5
173
100
AcDbEntity
  8
engrave
 62
256
370
-1
 48
1.0
  6
BYLAYER
100
AcDbLine
 10
352.5
 20
-189.0000000000000284
 30
0.0
 11
352.5
 21
-191.0000000000000284
 31
0.0
  0
LINE
  5
174
100
AcDbEntity
  8
engrave
 62
256
370
-1
 48
1.0
  6
BYLAYER
100
AcDbLine
 10
362.5
 20
-188.9000000000000341
 30
0.0
 11
362.5
 21
-190.9000000000000341
 31
0.0
  0
LINE
  5
175
100
AcDbEntity
  8
engrave
 62
256
370
-1
 48
1.0
  6
BYLAYER
100
AcDbLine
 10
353.0
 20
-191.5000000000000284
 30
0.0
 11
353.5
 21
-191.5000000000000284
 31
0.0
  0
LINE
  5
176
100
AcDbEntity
  8
engrave
 62
256
370
-1
 48
1.0
  6
BYLAYER
100
AcDbLine
 10
363.0
 20
-191.4000000000000341
 30
0.0
 11
363.5
 21
-191.4000000000000341
 31
0.0
  0
LINE
  5
177
100
AcDbEntity
  8
engrave
 62
256
370
-1
 48
1.0
  6
BYLAYER
100
AcDbLine
 10
354.0
 20
-191.0000000000000284
 30
0.0
 11
354.0
 21
-189.0000000000000284
 31
0.0
  0
LINE
  5
178
100
AcDbEntity
  8
engrave
 62
256
370
-1
 48
1.0
  6
BYLAYER
100
AcDbLine
 10
364.0
 20
-190.9000000000000341
 30
0.0
 11
364.0
 21
-188.9000000000000341
 31
0.0
  0
LINE
  5
179
100
AcDbEntity
  8
engrave
 62
256
370
-1
 48
1.0
  6
BYLAYER
100
AcDbLine
 10
353.5
 20
-188.5000000000000284
 30
0.0
 11
353.0
 21
-188.5000000000000284
 31
0.0
  0
LINE
  5
17A
100
AcDbEntity
  8
engrave
 62
256
370
-1
 48
1.0
  6
BYLAYER
100
AcDbLine
 10
363.5
 20
-188.4000000000000341
 30
0.0
 11
363.0
 21
-188.4000000000000341
 31
0.0
  0
ARC
  5
17B
100
AcDbEntity
  8
engrave
 62
256
370
-1
 48
1.0
  6
BYLAYER
100
AcDbCircle
 10
353.0
 20
-189.0000000000000284
 30
0.0
 40
0.5
100
AcDbArc
 50
90.0
 51
180.0
  0
ARC
  5
17C
100
AcDbEntity
  8
engrave
 62
256
370
-1
 48
1.0
  6
BYLAYER
100
AcDbCircle
 10
363.0
 20
-188.9000000000000341
 30
0.0
 40
0.5
100
AcDbArc
 50
90.0
 51
180.0
  0
ARC
  5
17D
100
AcDbEntity
  8
engrave
 62
256
370
-1
 48
1.0
  6
BYLAYER
100
AcDbCircle
 10
353.5
 20
-191.0000000000000284
 30
0.0
 40
0.5
100
AcDbArc
 50
270.0
 51
0.0
  0
ARC
  5
17E
100
AcDbEntity
  8
engrave
 62
256
370
-1
 48
1.0
  6
BYLAYER
100
AcDbCircle
 10
363.5
 20
-190.9000000000000341
 30
0.0
 40
0.5
100
AcDbArc
 50
270.0
 51
0.0
  0
ARC
  5
17F
100
AcDbEntity
  8
engrave
 62
256
370
-1
 48
1.0
  6
BYLAYER
100
AcDbCircle
 10
353.5
 20
-189.0000000000000284
 30
0.0
 40
0.5
100
AcDbArc
 50
0.0
 51
90.0
  0
ARC
  5
180
100
AcDbEntity
  8
engrave
 62
256
370
-1
 48
1.0
  6
BYLAYER
100
AcDbCircle
 10
363.5
 20
-188.9000000000000341
 30
0.0
 40
0.5
100
AcDbArc
 50
0.0
 51
90.0
  0
ARC
  5
181
100
AcDbEntity
  8
engrave
 62
256
370
-1
 48
1.0
  6
BYLAYER
100
AcDbCircle
 10
353.0
 20
-191.0000000000000284
 30
0.0
 40
0.5
100
AcDbArc
 50
180.0
 51
270.0
  0
ARC
  5
182
100
AcDbEntity
  8
engrave
 62
256
370
-1
 48
1.0
  6
BYLAYER
100
AcDbCircle
 10
363.0
 20
-190.9000000000000341
 30
0.0
 40
0.5
100
AcDbArc
 50
180.0
 51
270.0
  0
LINE
  5
183
100
AcDbEntity
  8
engrave
 62
256
370
-1
 48
1.0
  6
BYLAYER
100
AcDbLine
 10
353.0
 20
-190.5000000000000284
 30
0.0
 11
353.5
 21
-189.5000000000000284
 31
0.0
  0
LINE
  5
184
100
AcDbEntity
  8
engrave
 62
256
370
-1
 48
1.0
  6
BYLAYER
100
AcDbLine
 10
363.0
 20
-190.4000000000000341
 30
0.0
 11
363.5
 21
-189.4000000000000341
 31
0.0
  0
LINE
  5
185
100
AcDbEntity
  8
engrave
 62
256
370
-1
 48
1.0
  6
BYLAYER
100
AcDbLine
 10
357.0
 20
-191.5000000000000284
 30
0.0
 11
357.5
 21
-191.5000000000000284
 31
0.0
  0
LINE
  5
186
100
AcDbEntity
  8
engrave
 62
256
370
-1
 48
1.0
  6
BYLAYER
100
AcDbLine
 10
358.0
 20
-191.0000000000000284
 30
0.0
 11
358.0
 21
-190.2000000000000171
 31
0.0
  0
LINE
  5
187
100
AcDbEntity
  8
engrave
 62
256
370
-1
 48
1.0
  6
BYLAYER
100
AcDbLine
 10
357.5
 20
-188.5000000000000284
 30
0.0
 11
357.5
 21
-188.5000000000000284
 31
0.0
  0
LINE
  5
188
100
AcDbEntity
  8
engrave
 62
256
370
-1
 48
1.0
  6
BYLAYER
100
AcDbLine
 10
358.0
 20
-189.0000000000000284
 30
0.0
 11
358.0
 21
-189.0000000000000284
 31
0.0
  0
ARC
  5
189
100
AcDbEntity
  8
engrave
 62
256
370
-1
 48
1.0
  6
BYLAYER
100
AcDbCircle
 10
357.5
 20
-189.0000000000000284
 30
0.0
 40
0.5
100
AcDbArc
 50
0.0
 51
90.0
  0
ARC
  5
18A
100
AcDbEntity
  8
engrave
 62
256
370
-1
 48
1.0
  6
BYLAYER
100
AcDbCircle
 10
357.5
 20
-191.0000000000000284
 30
0.0
 40
0.5
100
AcDbArc
 50
270.0
 51
0.0
  0
ARC
  5
18B
100
AcDbEntity
  8
engrave
 62
256
370
-1
 48
1.0
  6
BYLAYER
100
AcDbCircle
 10
357.0
 20
-191.0000000000000284
 30
0.0
 40
0.5
100
AcDbArc
 50
180.0
 51
270.0
  0
LINE
  5
18C
100
AcDbEntity
  8
engrave
 62
256
370
-1
 48
1.0
  6
BYLAYER
100
AcDbLine
 10
356.5
 20
-191.0000000000000284
 30
0.0
 11
356.5
 21
-189.0000000000000284
 31
0.0
  0
LINE
  5
18D
100
AcDbEntity
  8
engrave
 62
256
370
-1
 48
1.0
  6
BYLAYER
100
AcDbLine
 10
357.5
 20
-188.5000000000000284
 30
0.0
 11
357.0
 21
-188.5000000000000284
 31
0.0
  0
ARC
  5
18E
100
AcDbEntity
  8
engrave
 62
256
370
-1
 48
1.0
  6
BYLAYER
100
AcDbCircle
 10
357.0
 20
-189.0000000000000284
 30
0.0
 40
0.5
100
AcDbArc
 50
90.0
 51
180.0
  0
LINE
  5
18F
100
AcDbEntity
  8
engrave
 62
256
370
-1
 48
1.0
  6
BYLAYER
100
AcDbLine
 10
357.5
 20
-189.7000000000000171
 30
0.0
 11
357.0
 21
-189.7000000000000171
 31
0.0
  0
ARC
  5
190
100
AcDbEntity
  8
engrave
 62
256
370
-1
 48
1.0
  6
BYLAYER
100
AcDbCircle
 10
357.0
 20
-190.2000000000000171
 30
0.0
 40
0.5
100
AcDbArc
 50
90.0
 51
180.0
  0
ARC
  5
191
100
AcDbEntity
  8
engrave
 62
256
370
-1
 48
1.0
  6
BYLAYER
100
AcDbCircle
 10
357.5
 20
-190.2000000000000171
 30
0.0
 40
0.5
100
AcDbArc
 50
0.0
 51
90.0
  0
LINE
  5
192
100
AcDbEntity
  8
engrave
 62
256
370
-1
 48
1.0
  6
BYLAYER
100
AcDbLine
 10
358.5
 20
-190.0000000000000284
 30
0.0
 11
359.0
 21
-190.0000000000000284
 31
0.0
  0
LINE
  5
193
100
AcDbEntity
  8
engrave
 62
256
370
-1
 48
1.0
  6
BYLAYER
100
AcDbLine
 10
361.5
 20
-189.9000000000000057
 30
0.0
 11
362.0
 21
-189.9000000000000057
 31
0.0
  0
LINE
  5
194
100
AcDbEntity
  8
engrave
 62
256
370
-1
 48
1.0
  6
BYLAYER
100
AcDbLine
 10
365.6000000000000227
 20
-188.4000000000000057
 30
0.0
 11
365.6000000000000227
 21
-191.4000000000000057
 31
0.0
  0
LINE
  5
195
100
AcDbEntity
  8
engrave
 62
256
370
-1
 48
1.0
  6
BYLAYER
100
AcDbLine
 10
366.0
 20
-191.4000000000000057
 30
0.0
 11
365.0
 21
-191.4000000000000057
 31
0.0
  0
LINE
  5
196
100
AcDbEntity
  8
engrave
 62
256
370
-1
 48
1.0
  6
BYLAYER
100
AcDbLine
 10
365.6000000000000227
 20
-188.4000000000000057
 30
0.0
 11
365.0
 21
-189.0000000000000284
 31
0.0
  0
LINE
  5
197
100
AcDbEntity
  8
engrave
 62
256
370
-1
 48
1.0
  6
BYLAYER
100
AcDbLine
 10
359.5
 20
-191.5000000000000284
 30
0.0
 11
359.4999999999999432
 21
-188.4999999999999716
 31
0.0
  0
LINE
  5
198
100
AcDbEntity
  8
engrave
 62
256
370
-1
 48
1.0
  6
BYLAYER
100
AcDbLine
 10
359.4999999999999432
 20
-188.4999999999999716
 30
0.0
 11
360.4999999999999432
 21
-188.5
 31
0.0
  0
LINE
  5
199
100
AcDbEntity
  8
engrave
 62
256
370
-1
 48
1.0
  6
BYLAYER
100
AcDbLine
 10
361.0
 20
-190.5000000000000284
 30
0.0
 11
361.0
 21
-191.0000000000000284
 31
0.0
  0
LINE
  5
19A
100
AcDbEntity
  8
engrave
 62
256
370
-1
 48
1.0
  6
BYLAYER
100
AcDbLine
 10
359.5
 20
-190.0000000000000284
 30
0.0
 11
360.4999999999999432
 21
-190.0000000000000284
 31
0.0
  0
LINE
  5
19B
100
AcDbEntity
  8
engrave
 62
256
370
-1
 48
1.0
  6
BYLAYER
100
AcDbLine
 10
332.5
 20
-170.0
 30
0.0
 11
332.1937129433613904
 21
-170.0
 31
0.0
  0
LINE
  5
19C
100
AcDbEntity
  8
engrave
 62
256
370
-1
 48
1.0
  6
BYLAYER
100
AcDbLine
 10
328.0
 20
-170.0
 30
0.0
 11
327.6937129433613336
 21
-170.0
 31
0.0
  0
LINE
  5
19D
100
AcDbEntity
  8
0
 62
256
370
-1
 48
1.0
  6
BYLAYER
100
AcDbLine
 10
314.0
 20
-21.0
 30
0.0
 11
314.0
 21
-39.0
 31
0.0
  0
LINE
  5
19E
100
AcDbEntity
  8
0
 62
256
370
-1
 48
1.0
  6
BYLAYER
100
AcDbLine
 10
366.0
 20
-21.0000000000000142
 30
0.0
 11
366.0
 21
-39.0
 31
0.0
  0
LINE
  5
19F
100
AcDbEntity
  8
0
 62
256
370
-1
 48
1.0
  6
BYLAYER
100
AcDbLine
 10
314.0
 20
-71.0000000000000284
 30
0.0
 11
314.0
 21
-89.0000000000000284
 31
0.0
  0
LINE
  5
1A0
100
AcDbEntity
  8
0
 62
256
370
-1
 48
1.0
  6
BYLAYER
100
AcDbLine
 10
366.0
 20
-71.0000000000000426
 30
0.0
 11
366.0
 21
-89.0000000000000284
 31
0.0
  0
LINE
  5
1A1
100
AcDbEntity
  8
0
 62
256
370
-1
 48
1.0
  6
BYLAYER
100
AcDbLine
 10
316.0
 20
-41.0
 30
0.0
 11
320.0
 21
-41.0
 31
0.0
  0
LINE
  5
1A2
100
AcDbEntity
  8
0
 62
256
370
-1
 48
1.0
  6
BYLAYER
100
AcDbLine
 10
364.0
 20
-41.0000000000000142
 30
0.0
 11
360.0
 21
-41.0000000000000071
 31
0.0
  0
LINE
  5
1A3
100
AcDbEntity
  8
0
 62
256
370
-1
 48
1.0
  6
BYLAYER
100
AcDbLine
 10
316.0
 20
-91.0000000000000284
 30
0.0
 11
320.0
 21
-91.0000000000000284
 31
0.0
  0
LINE
  5
1A4
100
AcDbEntity
  8
0
 62
256
370
-1
 48
1.0
  6
BYLAYER
100
AcDbLine
 10
364.0
 20
-91.0000000000000426
 30
0.0
 11
360.0
 21
-91.0000000000000284
 31
0.0
  0
LINE
  5
1A5
100
AcDbEntity
  8
0
 62
256
370
-1
 48
1.0
  6
BYLAYER
100
AcDbLine
 10
316.0
 20
-19.0
 30
0.0
 11
320.0
 21
-19.0
 31
0.0
  0
LINE
  5
1A6
100
AcDbEntity
  8
0
 62
256
370
-1
 48
1.0
  6
BYLAYER
100
AcDbLine
 10
364.0
 20
-18.9999999999999964
 30
0.0
 11
360.0
 21
-19.0
 31
0.0
  0
LINE
  5
1A7
100
AcDbEntity
  8
0
 62
256
370
-1
 48
1.0
  6
BYLAYER
100
AcDbLine
 10
316.0
 20
-69.0000000000000284
 30
0.0
 11
320.0
 21
-69.0000000000000284
 31
0.0
  0
LINE
  5
1A8
100
AcDbEntity
  8
0
 62
256
370
-1
 48
1.0
  6
BYLAYER
100
AcDbLine
 10
364.0
 20
-69.0000000000000284
 30
0.0
 11
360.0
 21
-69.0000000000000284
 31
0.0
  0
ARC
  5
1A9
100
AcDbEntity
  8
0
 62
256
370
-1
 48
1.0
  6
BYLAYER
100
AcDbCircle
 10
316.0
 20
-21.0
 30
0.0
 40
2.0
100
AcDbArc
 50
90.0
 51
180.0
  0
ARC
  5
1AA
100
AcDbEntity
  8
0
 62
256
370
-1
 48
1.0
  6
BYLAYER
100
AcDbCircle
 10
364.0
 20
-21.0000000000000071
 30
0.0
 40
2.0
100
AcDbArc
 50
0.0
 51
90.0
  0
ARC
  5
1AB
100
AcDbEntity
  8
0
 62
256
370
-1
 48
1.0
  6
BYLAYER
100
AcDbCircle
 10
316.0
 20
-71.0000000000000284
 30
0.0
 40
2.0
100
AcDbArc
 50
90.0
 51
180.0
  0
ARC
  5
1AC
100
AcDbEntity
  8
0
 62
256
370
-1
 48
1.0
  6
BYLAYER
100
AcDbCircle
 10
364.0
 20
-71.0000000000000284
 30
0.0
 40
2.0
100
AcDbArc
 50
0.0
 51
90.0
  0
ARC
  5
1AD
100
AcDbEntity
  8
0
 62
256
370
-1
 48
1.0
  6
BYLAYER
100
AcDbCircle
 10
316.0
 20
-39.0
 30
0.0
 40
2.0
100
AcDbArc
 50
180.0
 51
270.0
  0
ARC
  5
1AE
100
AcDbEntity
  8
0
 62
256
370
-1
 48
1.0
  6
BYLAYER
100
AcDbCircle
 10
364.0
 20
-39.0
 30
0.0
 40
2.0
100
AcDbArc
 50
270.0
 51
0.0
  0
ARC
  5
1AF
100
AcDbEntity
  8
0
 62
256
370
-1
 48
1.0
  6
BYLAYER
100
AcDbCircle
 10
316.0
 20
-89.0000000000000284
 30
0.0
 40
2.0
100
AcDbArc
 50
180.0
 51
270.0
  0
ARC
  5
1B0
100
AcDbEntity
  8
0
 62
256
370
-1
 48
1.0
  6
BYLAYER
100
AcDbCircle
 10
364.0
 20
-89.0000000000000284
 30
0.0
 40
2.0
100
AcDbArc
 50
270.0
 51
0.0
  0
ARC
  5
1B1
100
AcDbEntity
  8
0
 62
256
370
-1
 48
1.0
  6
BYLAYER
100
AcDbCircle
 10
360.0
 20
-15.0
 30
0.0
 40
4.0
100
AcDbArc
 50
180.0
 51
270.0
  0
ARC
  5
1B2
100
AcDbEntity
  8
0
 62
256
370
-1
 48
1.0
  6
BYLAYER
100
AcDbCircle
 10
360.0
 20
-65.0000000000000284
 30
0.0
 40
4.0
100
AcDbArc
 50
180.0
 51
270.0
  0
ARC
  5
1B3
100
AcDbEntity
  8
0
 62
256
370
-1
 48
1.0
  6
BYLAYER
100
AcDbCircle
 10
360.0
 20
-15.0
 30
0.0
 40
4.0
100
AcDbArc
 50
270.0
 51
329.9999999999999432
  0
ARC
  5
1B4
100
AcDbEntity
  8
0
 62
256
370
-1
 48
1.0
  6
BYLAYER
100
AcDbCircle
 10
320.0
 20
-14.9999999999999964
 30
0.0
 40
4.0
100
AcDbArc
 50
210.0000000000000568
 51
270.0
  0
ARC
  5
1B5
100
AcDbEntity
  8
0
 62
256
370
-1
 48
1.0
  6
BYLAYER
100
AcDbCircle
 10
360.0
 20
-45.0
 30
0.0
 40
4.0
100
AcDbArc
 50
30.0000000000000426
 51
90.0
  0
ARC
  5
1B6
100
AcDbEntity
  8
0
 62
256
370
-1
 48
1.0
  6
BYLAYER
100
AcDbCircle
 10
320.0
 20
-45.0
 30
0.0
 40
4.0
100
AcDbArc
 50
90.0
 51
149.9999999999999716
  0
ARC
  5
1B7
100
AcDbEntity
  8
0
 62
256
370
-1
 48
1.0
  6
BYLAYER
100
AcDbCircle
 10
360.0
 20
-45.0
 30
0.0
 40
4.0
100
AcDbArc
 50
90.0
 51
180.0
  0
ARC
  5
1B8
100
AcDbEntity
  8
0
 62
256
370
-1
 48
1.0
  6
BYLAYER
100
AcDbCircle
 10
360.0
 20
-95.0000000000000284
 30
0.0
 40
4.0
100
AcDbArc
 50
90.0
 51
180.0
  0
ARC
  5
1B9
100
AcDbEntity
  8
0
 62
256
370
-1
 48
1.0
  6
BYLAYER
100
AcDbCircle
 10
320.0
 20
-45.0
 30
0.0
 40
4.0
100
AcDbArc
 50
0.0
 51
90.0
  0
ARC
  5
1BA
100
AcDbEntity
  8
0
 62
256
370
-1
 48
1.0
  6
BYLAYER
100
AcDbCircle
 10
320.0
 20
-95.0000000000000284
 30
0.0
 40
4.0
100
AcDbArc
 50
0.0
 51
90.0
  0
ARC
  5
1BB
100
AcDbEntity
  8
0
 62
256
370
-1
 48
1.0
  6
BYLAYER
100
AcDbCircle
 10
320.0
 20
-15.0
 30
0.0
 40
4.0
100
AcDbArc
 50
270.0
 51
0.0
  0
ARC
  5
1BC
100
AcDbEntity
  8
0
 62
256
370
-1
 48
1.0
  6
BYLAYER
100
AcDbCircle
 10
320.0
 20
-65.0000000000000284
 30
0.0
 40
4.0
100
AcDbArc
 50
270.0
 51
0.0
  0
ARC
  5
1BD
100
AcDbEntity
  8
cut_2mm
 62
256
370
-1
 48
1.0
  6
BYLAYER
100
AcDbCircle
 10
360.0
 20
-15.0
 30
0.0
 40
5.0
100
AcDbArc
 50
270.0
 51
329.9999999999999432
  0
ARC
  5
1BE
100
AcDbEntity
  8
cut_2mm
 62
256
370
-1
 48
1.0
  6
BYLAYER
100
AcDbCircle
 10
320.0
 20
-15.0
 30
0.0
 40
5.0
100
AcDbArc
 50
210.0000000000000568
 51
270.0
  0
ARC
  5
1BF
100
AcDbEntity
  8
cut_2mm
 62
256
370
-1
 48
1.0
  6
BYLAYER
100
AcDbCircle
 10
365.196152422706632
 20
-18.0
 30
0.0
 40
1.0
100
AcDbArc
 50
90.0
 51
149.9999999999998863
  0
ARC
  5
1C0
100
AcDbEntity
  8
cut_2mm
 62
256
370
-1
 48
1.0
  6
BYLAYER
100
AcDbCircle
 10
314.803847577293368
 20
-17.9999999999999964
 30
0.0
 40
1.0
100
AcDbArc
 50
30.0000000000001172
 51
90.0
  0
LINE
  5
1C1
100
AcDbEntity
  8
cut_2mm
 62
256
370
-1
 48
1.0
  6
BYLAYER
100
AcDbLine
 10
365.196152422706632
 20
-17.0
 30
0.0
 11
371.0
 21
-17.0
 31
0.0
  0
LINE
  5
1C2
100
AcDbEntity
  8
cut_2mm
 62
256
370
-1
 48
1.0
  6
BYLAYER
100
AcDbLine
 10
314.803847577293368
 20
-16.9999999999999964
 30
0.0
 11
309.0
 21
-16.9999999999999929
 31
0.0
  0
ARC
  5
1C3
100
AcDbEntity
  8
cut_2mm
 62
256
370
-1
 48
1.0
  6
BYLAYER
100
AcDbCircle
 10
371.0
 20
-18.0
 30
0.0
 40
1.0
100
AcDbArc
 50
0.0
 51
90.0
  0
ARC
  5
1C4
100
AcDbEntity
  8
cut_2mm
 62
256
370
-1
 48
1.0
  6
BYLAYER
100
AcDbCircle
 10
309.0
 20
-17.9999999999999929
 30
0.0
 40
1.0
100
AcDbArc
 50
90.0
 51
180.0
  0
LINE
  5
1C5
100
AcDbEntity
  8
cut_2mm
 62
256
370
-1
 48
1.0
  6
BYLAYER
100
AcDbLine
 10
372.0
 20
-18.0
 30
0.0
 11
372.0
 21
-42.0
 31
0.0
  0
LINE
  5
1C6
100
AcDbEntity
  8
cut_2mm
 62
256
370
-1
 48
1.0
  6
BYLAYER
100
AcDbLine
 10
308.0
 20
-17.9999999999999964
 30
0.0
 11
308.0
 21
-42.0
 31
0.0
  0
ARC
  5
1C7
100
AcDbEntity
  8
cut_2mm
 62
256
370
-1
 48
1.0
  6
BYLAYER
100
AcDbCircle
 10
371.0
 20
-42.0
 30
0.0
 40
1.0
100
AcDbArc
 50
270.0
 51
0.0
  0
ARC
  5
1C8
100
AcDbEntity
  8
cut_2mm
 62
256
370
-1
 48
1.0
  6
BYLAYER
100
AcDbCircle
 10
309.0
 20
-42.0000000000000071
 30
0.0
 40
1.0
100
AcDbArc
 50
180.0
 51
270.0
  0
LINE
  5
1C9
100
AcDbEntity
  8
cut_2mm
 62
256
370
-1
 48
1.0
  6
BYLAYER
100
AcDbLine
 10
371.0
 20
-43.0
 30
0.0
 11
365.196152422706632
 21
-43.0
 31
0.0
  0
LINE
  5
1CA
100
AcDbEntity
  8
cut_2mm
 62
256
370
-1
 48
1.0
  6
BYLAYER
100
AcDbLine
 10
309.0
 20
-43.0000000000000071
 30
0.0
 11
314.803847577293368
 21
-43.0000000000000142
 31
0.0
  0
ARC
  5
1CB
100
AcDbEntity
  8
cut_2mm
 62
256
370
-1
 48
1.0
  6
BYLAYER
100
AcDbCircle
 10
365.196152422706632
 20
-42.0
 30
0.0
 40
1.0
100
AcDbArc
 50
210.0000000000001421
 51
270.0
  0
ARC
  5
1CC
100
AcDbEntity
  8
cut_2mm
 62
256
370
-1
 48
1.0
  6
BYLAYER
100
AcDbCircle
 10
314.803847577293368
 20
-42.0000000000000142
 30
0.0
 40
1.0
100
AcDbArc
 50
270.0
 51
329.9999999999999432
  0
ARC
  5
1CD
100
AcDbEntity
  8
cut_2mm
 62
256
370
-1
 48
1.0
  6
BYLAYER
100
AcDbCircle
 10
360.0
 20
-45.0
 30
0.0
 40
5.0
100
AcDbArc
 50
30.0000000000000426
 51
90.0
  0
ARC
  5
1CE
100
AcDbEntity
  8
cut_2mm
 62
256
370
-1
 48
1.0
  6
BYLAYER
100
AcDbCircle
 10
320.0
 20
-45.0000000000000071
 30
0.0
 40
5.0
100
AcDbArc
 50
90.0
 51
149.9999999999999716
  0
LINE
  5
1CF
100
AcDbEntity
  8
cut_2mm
 62
256
370
-1
 48
1.0
  6
BYLAYER
100
AcDbLine
 10
360.0
 20
-20.0
 30
0.0
 11
363.3166247903553767
 21
-20.0
 31
0.0
  0
LINE
  5
1D0
100
AcDbEntity
  8
cut_2mm
 62
256
370
-1
 48
1.0
  6
BYLAYER
100
AcDbLine
 10
320.0
 20
-20.0
 30
0.0
 11
316.6833752096446233
 21
-19.9999999999999964
 31
0.0
  0
LINE
  5
1D1
100
AcDbEntity
  8
cut_2mm
 62
256
370
-1
 48
1.0
  6
BYLAYER
100
AcDbLine
 10
363.3166247903554336
 20
-40.0000000000000142
 30
0.0
 11
360.0
 21
-40.0000000000000071
 31
0.0
  0
LINE
  5
1D2
100
AcDbEntity
  8
cut_2mm
 62
256
370
-1
 48
1.0
  6
BYLAYER
100
AcDbLine
 10
316.6833752096445664
 20
-40.0000000000000142
 30
0.0
 11
320.0
 21
-40.0000000000000142
 31
0.0
  0
ARC
  5
1D3
100
AcDbEntity
  8
cut_2mm
 62
256
370
-1
 48
1.0
  6
BYLAYER
100
AcDbCircle
 10
360.0
 20
-15.0
 30
0.0
 40
6.0
100
AcDbArc
 50
303.5573097619205214
 51
329.9999999999999432
  0
ARC
  5
1D4
100
AcDbEntity
  8
cut_2mm
 62
256
370
-1
 48
1.0
  6
BYLAYER
100
AcDbCircle
 10
320.0
 20
-15.0
 30
0.0
 40
6.0
100
AcDbArc
 50
210.0000000000000568
 51
236.4426902380794786
  0
ARC
  5
1D5
100
AcDbEntity
  8
cut_2mm
 62
256
370
-1
 48
1.0
  6
BYLAYER
100
AcDbCircle
 10
360.0
 20
-45.0
 30
0.0
 40
6.0
100
AcDbArc
 50
30.0000000000000426
 51
56.4426902380789386
  0
ARC
  5
1D6
100
AcDbEntity
  8
cut_2mm
 62
256
370
-1
 48
1.0
  6
BYLAYER
100
AcDbCircle
 10
320.0
 20
-45.0000000000000071
 30
0.0
 40
6.0
100
AcDbArc
 50
123.5573097619210472
 51
149.9999999999999716
  0
LINE
  5
1D7
100
AcDbEntity
  8
cut_2mm
 62
256
370
-1
 48
1.0
  6
BYLAYER
100
AcDbLine
 10
371.0
 20
-42.0
 30
0.0
 11
365.196152422706632
 21
-42.0
 31
0.0
  0
LINE
  5
1D8
100
AcDbEntity
  8
cut_2mm
 62
256
370
-1
 48
1.0
  6
BYLAYER
100
AcDbLine
 10
309.0
 20
-42.0000000000000071
 30
0.0
 11
314.803847577293368
 21
-42.0000000000000142
 31
0.0
  0
LINE
  5
1D9
100
AcDbEntity
  8
cut_2mm
 62
256
370
-1
 48
1.0
  6
BYLAYER
100
AcDbLine
 10
365.196152422706632
 20
-18.0
 30
0.0
 11
371.0
 21
-18.0
 31
0.0
  0
LINE
  5
1DA
100
AcDbEntity
  8
cut_2mm
 62
256
370
-1
 48
1.0
  6
BYLAYER
100
AcDbLine
 10
314.803847577293368
 20
-17.9999999999999964
 30
0.0
 11
309.0
 21
-17.9999999999999929
 31
0.0
  0
LINE
  5
1DB
100
AcDbEntity
  8
cut_2mm
 62
256
370
-1
 48
1.0
  6
BYLAYER
100
AcDbLine
 10
371.0
 20
-18.0
 30
0.0
 11
371.0
 21
-19.0
 31
0.0
  0
LINE
  5
1DC
100
AcDbEntity
  8
cut_2mm
 62
256
370
-1
 48
1.0
  6
BYLAYER
100
AcDbLine
 10
309.0
 20
-17.9999999999999929
 30
0.0
 11
309.0
 21
-19.0000000000000036
 31
0.0
  0
LINE
  5
1DD
100
AcDbEntity
  8
cut_2mm
 62
256
370
-1
 48
1.0
  6
BYLAYER
100
AcDbLine
 10
371.0
 20
-19.0
 30
0.0
 11
365.7445626465380428
 21
-19.0
 31
0.0
  0
LINE
  5
1DE
100
AcDbEntity
  8
cut_2mm
 62
256
370
-1
 48
1.0
  6
BYLAYER
100
AcDbLine
 10
309.0
 20
-19.0000000000000036
 30
0.0
 11
314.2554373534619572
 21
-19.0
 31
0.0
  0
LINE
  5
1DF
100
AcDbEntity
  8
cut_2mm
 62
256
370
-1
 48
1.0
  6
BYLAYER
100
AcDbLine
 10
364.8989794855663717
 20
-20.0
 30
0.0
 11
371.0
 21
-20.0
 31
0.0
  0
LINE
  5
1E0
100
AcDbEntity
  8
cut_2mm
 62
256
370
-1
 48
1.0
  6
BYLAYER
100
AcDbLine
 10
315.1010205144336283
 20
-19.9999999999999929
 30
0.0
 11
309.0
 21
-19.9999999999999893
 31
0.0
  0
LINE
  5
1E1
100
AcDbEntity
  8
cut_2mm
 62
256
370
-1
 48
1.0
  6
BYLAYER
100
AcDbLine
 10
371.0
 20
-42.0
 30
0.0
 11
371.0
 21
-41.0
 31
0.0
  0
LINE
  5
1E2
100
AcDbEntity
  8
cut_2mm
 62
256
370
-1
 48
1.0
  6
BYLAYER
100
AcDbLine
 10
309.0
 20
-42.0000000000000071
 30
0.0
 11
309.0
 21
-41.0
 31
0.0
  0
LINE
  5
1E3
100
AcDbEntity
  8
cut_2mm
 62
256
370
-1
 48
1.0
  6
BYLAYER
100
AcDbLine
 10
371.0
 20
-41.0
 30
0.0
 11
365.7445626465380428
 21
-41.0
 31
0.0
  0
LINE
  5
1E4
100
AcDbEntity
  8
cut_2mm
 62
256
370
-1
 48
1.0
  6
BYLAYER
100
AcDbLine
 10
309.0
 20
-41.0
 30
0.0
 11
314.2554373534619572
 21
-40.9999999999999929
 31
0.0
  0
LINE
  5
1E5
100
AcDbEntity
  8
cut_2mm
 62
256
370
-1
 48
1.0
  6
BYLAYER
100
AcDbLine
 10
364.8989794855663717
 20
-40.0
 30
0.0
 11
371.0
 21
-40.0
 31
0.0
  0
LINE
  5
1E6
100
AcDbEntity
  8
cut_2mm
 62
256
370
-1
 48
1.0
  6
BYLAYER
100
AcDbLine
 10
315.1010205144336283
 20
-39.9999999999999929
 30
0.0
 11
309.0
 21
-40.0
 31
0.0
  0
LINE
  5
1E7
100
AcDbEntity
  8
cut_2mm
 62
256
370
-1
 48
1.0
  6
BYLAYER
100
AcDbLine
 10
371.0
 20
-40.0
 30
0.0
 11
371.0
 21
-39.0
 31
0.0
  0
LINE
  5
1E8
100
AcDbEntity
  8
cut_2mm
 62
256
370
-1
 48
1.0
  6
BYLAYER
100
AcDbLine
 10
309.0
 20
-40.0
 30
0.0
 11
309.0
 21
-38.9999999999999787
 31
0.0
  0
LINE
  5
1E9
100
AcDbEntity
  8
cut_2mm
 62
256
370
-1
 48
1.0
  6
BYLAYER
100
AcDbLine
 10
371.0
 20
-39.0
 30
0.0
 11
365.0
 21
-39.0
 31
0.0
  0
LINE
  5
1EA
100
AcDbEntity
  8
cut_2mm
 62
256
370
-1
 48
1.0
  6
BYLAYER
100
AcDbLine
 10
309.0
 20
-38.9999999999999787
 30
0.0
 11
315.0
 21
-39.0000000000000071
 31
0.0
  0
ARC
  5
1EB
100
AcDbEntity
  8
cut_2mm
 62
256
370
-1
 48
1.0
  6
BYLAYER
100
AcDbCircle
 10
360.0
 20
-15.0
 30
0.0
 40
7.0
100
AcDbArc
 50
314.4153085971926203
 51
325.1500954209536189
  0
ARC
  5
1EC
100
AcDbEntity
  8
cut_2mm
 62
256
370
-1
 48
1.0
  6
BYLAYER
100
AcDbCircle
 10
320.0
 20
-15.0
 30
0.0
 40
7.0
100
AcDbArc
 50
214.8499045790463811
 51
225.5846914028073513
  0
ARC
  5
1ED
100
AcDbEntity
  8
cut_2mm
 62
256
370
-1
 48
1.0
  6
BYLAYER
100
AcDbCircle
 10
360.0
 20
-45.0
 30
0.0
 40
7.0
100
AcDbArc
 50
34.8499045790463811
 51
45.5846914028069037
  0
ARC
  5
1EE
100
AcDbEntity
  8
cut_2mm
 62
256
370
-1
 48
1.0
  6
BYLAYER
100
AcDbCircle
 10
320.0
 20
-45.0000000000000071
 30
0.0
 40
7.0
100
AcDbArc
 50
134.415308597193075
 51
145.1500954209536474
  0
LINE
  5
1EF
100
AcDbEntity
  8
cut_2mm
 62
256
370
-1
 48
1.0
  6
BYLAYER
100
AcDbLine
 10
371.0
 20
-20.0
 30
0.0
 11
371.0
 21
-21.0
 31
0.0
  0
LINE
  5
1F0
100
AcDbEntity
  8
cut_2mm
 62
256
370
-1
 48
1.0
  6
BYLAYER
100
AcDbLine
 10
309.0
 20
-19.9999999999999893
 30
0.0
 11
309.0
 21
-21.0000000000000071
 31
0.0
  0
LINE
  5
1F1
100
AcDbEntity
  8
cut_2mm
 62
256
370
-1
 48
1.0
  6
BYLAYER
100
AcDbLine
 10
371.0
 20
-21.0
 30
0.0
 11
365.0
 21
-21.0
 31
0.0
  0
LINE
  5
1F2
100
AcDbEntity
  8
cut_2mm
 62
256
370
-1
 48
1.0
  6
BYLAYER
100
AcDbLine
 10
309.0
 20
-21.0000000000000071
 30
0.0
 11
315.0
 21
-21.0
 31
0.0
  0
LINE
  5
1F3
100
AcDbEntity
  8
cut_2mm
 62
256
370
-1
 48
1.0
  6
BYLAYER
100
AcDbLine
 10
365.0
 20
-39.0
 30
0.0
 11
365.0
 21
-23.0
 31
0.0
  0
LINE
  5
1F4
100
AcDbEntity
  8
cut_2mm
 62
256
370
-1
 48
1.0
  6
BYLAYER
100
AcDbLine
 10
315.0
 20
-39.0000000000000071
 30
0.0
 11
315.0
 21
-22.9999999999999964
 31
0.0
  0
LINE
  5
1F5
100
AcDbEntity
  8
cut_2mm
 62
256
370
-1
 48
1.0
  6
BYLAYER
100
AcDbLine
 10
365.0
 20
-23.0
 30
0.0
 11
370.0
 21
-23.0
 31
0.0
  0
LINE
  5
1F6
100
AcDbEntity
  8
cut_2mm
 62
256
370
-1
 48
1.0
  6
BYLAYER
100
AcDbLine
 10
315.0
 20
-22.9999999999999964
 30
0.0
 11
310.0
 21
-22.9999999999999822
 31
0.0
  0
LINE
  5
1F7
100
AcDbEntity
  8
cut_2mm
 62
256
370
-1
 48
1.0
  6
BYLAYER
100
AcDbLine
 10
370.0
 20
-23.0
 30
0.0
 11
370.0
 21
-37.0
 31
0.0
  0
LINE
  5
1F8
100
AcDbEntity
  8
cut_2mm
 62
256
370
-1
 48
1.0
  6
BYLAYER
100
AcDbLine
 10
310.0
 20
-22.9999999999999822
 30
0.0
 11
310.0
 21
-37.0000000000000071
 31
0.0
  0
LINE
  5
1F9
100
AcDbEntity
  8
cut_2mm
 62
256
370
-1
 48
1.0
  6
BYLAYER
100
AcDbLine
 10
370.0
 20
-37.0
 30
0.0
 11
367.0
 21
-37.0
 31
0.0
  0
LINE
  5
1FA
100
AcDbEntity
  8
cut_2mm
 62
256
370
-1
 48
1.0
  6
BYLAYER
100
AcDbLine
 10
310.0
 20
-37.0000000000000071
 30
0.0
 11
313.0
 21
-37.0000000000000071
 31
0.0
  0
LINE
  5
1FB
100
AcDbEntity
  8
cut_2mm
 62
256
370
-1
 48
1.0
  6
BYLAYER
100
AcDbLine
 10
367.0
 20
-37.0
 30
0.0
 11
367.0
 21
-25.0
 31
0.0
  0
LINE
  5
1FC
100
AcDbEntity
  8
cut_2mm
 62
256
370
-1
 48
1.0
  6
BYLAYER
100
AcDbLine
 10
313.0
 20
-37.0000000000000071
 30
0.0
 11
313.0
 21
-24.9999999999999929
 31
0.0
  0
LINE
  5
1FD
100
AcDbEntity
  8
cut_2mm
 62
256
370
-1
 48
1.0
  6
BYLAYER
100
AcDbLine
 10
367.0
 20
-25.0
 30
0.0
 11
368.0
 21
-25.0
 31
0.0
  0
LINE
  5
1FE
100
AcDbEntity
  8
cut_2mm
 62
256
370
-1
 48
1.0
  6
BYLAYER
100
AcDbLine
 10
313.0
 20
-24.9999999999999929
 30
0.0
 11
312.0
 21
-24.9999999999999929
 31
0.0
  0
LINE
  5
1FF
100
AcDbEntity
  8
cut_2mm
 62
256
370
-1
 48
1.0
  6
BYLAYER
100
AcDbLine
 10
368.0
 20
-25.0
 30
0.0
 11
368.0
 21
-36.0
 31
0.0
  0
LINE
  5
200
100
AcDbEntity
  8
cut_2mm
 62
256
370
-1
 48
1.0
  6
BYLAYER
100
AcDbLine
 10
312.0
 20
-24.9999999999999929
 30
0.0
 11
312.0
 21
-36.0
 31
0.0
  0
LINE
  5
201
100
AcDbEntity
  8
cut_2mm
 62
256
370
-1
 48
1.0
  6
BYLAYER
100
AcDbLine
 10
368.0
 20
-36.0
 30
0.0
 11
369.0
 21
-36.0
 31
0.0
  0
LINE
  5
202
100
AcDbEntity
  8
cut_2mm
 62
256
370
-1
 48
1.0
  6
BYLAYER
100
AcDbLine
 10
312.0
 20
-36.0
 30
0.0
 11
311.0
 21
-36.0
 31
0.0
  0
LINE
  5
203
100
AcDbEntity
  8
cut_2mm
 62
256
370
-1
 48
1.0
  6
BYLAYER
100
AcDbLine
 10
369.0
 20
-36.0
 30
0.0
 11
369.0
 21
-24.0
 31
0.0
  0
LINE
  5
204
100
AcDbEntity
  8
cut_2mm
 62
256
370
-1
 48
1.0
  6
BYLAYER
100
AcDbLine
 10
311.0
 20
-36.0
 30
0.0
 11
311.0
 21
-23.9999999999999929
 31
0.0
  0
LINE
  5
205
100
AcDbEntity
  8
cut_2mm
 62
256
370
-1
 48
1.0
  6
BYLAYER
100
AcDbLine
 10
369.0
 20
-24.0
 30
0.0
 11
366.0
 21
-24.0
 31
0.0
  0
LINE
  5
206
100
AcDbEntity
  8
cut_2mm
 62
256
370
-1
 48
1.0
  6
BYLAYER
100
AcDbLine
 10
311.0
 20
-23.9999999999999929
 30
0.0
 11
314.0
 21
-24.0000000000000036
 31
0.0
  0
LINE
  5
207
100
AcDbEntity
  8
cut_2mm
 62
256
370
-1
 48
1.0
  6
BYLAYER
100
AcDbLine
 10
366.0
 20
-24.0
 30
0.0
 11
366.0
 21
-38.0
 31
0.0
  0
LINE
  5
208
100
AcDbEntity
  8
cut_2mm
 62
256
370
-1
 48
1.0
  6
BYLAYER
100
AcDbLine
 10
314.0
 20
-24.0000000000000036
 30
0.0
 11
314.0
 21
-38.0000000000000213
 31
0.0
  0
LINE
  5
209
100
AcDbEntity
  8
cut_2mm
 62
256
370
-1
 48
1.0
  6
BYLAYER
100
AcDbLine
 10
366.0
 20
-38.0
 30
0.0
 11
371.0
 21
-38.0
 31
0.0
  0
LINE
  5
20A
100
AcDbEntity
  8
cut_2mm
 62
256
370
-1
 48
1.0
  6
BYLAYER
100
AcDbLine
 10
314.0
 20
-38.0000000000000213
 30
0.0
 11
309.0
 21
-37.9999999999999929
 31
0.0
  0
LINE
  5
20B
100
AcDbEntity
  8
cut_2mm
 62
256
370
-1
 48
1.0
  6
BYLAYER
100
AcDbLine
 10
371.0
 20
-38.0
 30
0.0
 11
371.0
 21
-22.0
 31
0.0
  0
LINE
  5
20C
100
AcDbEntity
  8
cut_2mm
 62
256
370
-1
 48
1.0
  6
BYLAYER
100
AcDbLine
 10
309.0
 20
-37.9999999999999929
 30
0.0
 11
309.0
 21
-21.9999999999999929
 31
0.0
  0
LINE
  5
20D
100
AcDbEntity
  8
cut_2mm
 62
256
370
-1
 48
1.0
  6
BYLAYER
100
AcDbLine
 10
371.0
 20
-22.0
 30
0.0
 11
365.0
 21
-22.0
 31
0.0
  0
LINE
  5
20E
100
AcDbEntity
  8
cut_2mm
 62
256
370
-1
 48
1.0
  6
BYLAYER
100
AcDbLine
 10
309.0
 20
-21.9999999999999929
 30
0.0
 11
315.0
 21
-22.0000000000000036
 31
0.0
  0
LINE
  5
20F
100
AcDbEntity
  8
cut_2mm
 62
256
370
-1
 48
1.0
  6
BYLAYER
100
AcDbLine
 10
365.0
 20
-22.0
 30
0.0
 11
365.0
 21
-21.0
 31
0.0
  0
LINE
  5
210
100
AcDbEntity
  8
cut_2mm
 62
256
370
-1
 48
1.0
  6
BYLAYER
100
AcDbLine
 10
315.0
 20
-22.0000000000000036
 30
0.0
 11
315.0
 21
-21.0
 31
0.0
  0
ARC
  5
211
100
AcDbEntity
  8
cut
 62
256
370
-1
 48
1.0
  6
BYLAYER
100
AcDbCircle
 10
316.0
 20
-21.0
 30
0.0
 40
1.0
100
AcDbArc
 50
90.0
 51
180.0
  0
ARC
  5
212
100
AcDbEntity
  8
cut_2mm
 62
256
370
-1
 48
1.0
  6
BYLAYER
100
AcDbCircle
 10
316.0
 20
-71.0000000000000284
 30
0.0
 40
1.0
100
AcDbArc
 50
90.0
 51
180.0
  0
LINE
  5
213
100
AcDbEntity
  8
cut
 62
256
370
-1
 48
1.0
  6
BYLAYER
100
AcDbLine
 10
316.0
 20
-20.0
 30
0.0
 11
320.0
 21
-20.0
 31
0.0
  0
LINE
  5
214
100
AcDbEntity
  8
cut_2mm
 62
256
370
-1
 48
1.0
  6
BYLAYER
100
AcDbLine
 10
316.0
 20
-70.0000000000000284
 30
0.0
 11
320.0
 21
-70.0000000000000284
 31
0.0
  0
ARC
  5
215
100
AcDbEntity
  8
cut
 62
256
370
-1
 48
1.0
  6
BYLAYER
100
AcDbCircle
 10
320.0
 20
-15.0
 30
0.0
 40
5.0
100
AcDbArc
 50
270.0
 51
0.0
  0
ARC
  5
216
100
AcDbEntity
  8
cut_2mm
 62
256
370
-1
 48
1.0
  6
BYLAYER
100
AcDbCircle
 10
320.0
 20
-65.0000000000000284
 30
0.0
 40
5.0
100
AcDbArc
 50
270.0
 51
0.0
  0
LINE
  5
217
100
AcDbEntity
  8
cut
 62
256
370
-1
 48
1.0
  6
BYLAYER
100
AcDbLine
 10
325.0
 20
-15.0
 30
0.0
 11
325.0
 21
-14.0
 31
0.0
  0
LINE
  5
218
100
AcDbEntity
  8
cut_2mm
 62
256
370
-1
 48
1.0
  6
BYLAYER
100
AcDbLine
 10
325.0
 20
-65.0000000000000284
 30
0.0
 11
325.0
 21
-64.0000000000000284
 31
0.0
  0
ARC
  5
219
100
AcDbEntity
  8
cut
 62
256
370
-1
 48
1.0
  6
BYLAYER
100
AcDbCircle
 10
326.0
 20
-14.0
 30
0.0
 40
1.0
100
AcDbArc
 50
90.0
 51
180.0
  0
ARC
  5
21A
100
AcDbEntity
  8
cut_2mm
 62
256
370
-1
 48
1.0
  6
BYLAYER
100
AcDbCircle
 10
326.0
 20
-64.0000000000000284
 30
0.0
 40
1.0
100
AcDbArc
 50
90.0
 51
180.0
  0
LINE
  5
21B
100
AcDbEntity
  8
cut
 62
256
370
-1
 48
1.0
  6
BYLAYER
100
AcDbLine
 10
326.0
 20
-13.0
 30
0.0
 11
354.0
 21
-13.0
 31
0.0
  0
LINE
  5
21C
100
AcDbEntity
  8
cut_2mm
 62
256
370
-1
 48
1.0
  6
BYLAYER
100
AcDbLine
 10
326.0
 20
-63.0000000000000284
 30
0.0
 11
354.0
 21
-63.0000000000000284
 31
0.0
  0
ARC
  5
21D
100
AcDbEntity
  8
cut
 62
256
370
-1
 48
1.0
  6
BYLAYER
100
AcDbCircle
 10
354.0
 20
-14.0
 30
0.0
 40
1.0
100
AcDbArc
 50
0.0
 51
90.0
  0
ARC
  5
21E
100
AcDbEntity
  8
cut_2mm
 62
256
370
-1
 48
1.0
  6
BYLAYER
100
AcDbCircle
 10
354.0
 20
-64.0000000000000284
 30
0.0
 40
1.0
100
AcDbArc
 50
0.0
 51
90.0
  0
LINE
  5
21F
100
AcDbEntity
  8
cut
 62
256
370
-1
 48
1.0
  6
BYLAYER
100
AcDbLine
 10
355.0
 20
-14.0
 30
0.0
 11
355.0
 21
-15.0
 31
0.0
  0
LINE
  5
220
100
AcDbEntity
  8
cut_2mm
 62
256
370
-1
 48
1.0
  6
BYLAYER
100
AcDbLine
 10
355.0
 20
-64.0000000000000284
 30
0.0
 11
355.0
 21
-65.0000000000000284
 31
0.0
  0
ARC
  5
221
100
AcDbEntity
  8
cut
 62
256
370
-1
 48
1.0
  6
BYLAYER
100
AcDbCircle
 10
360.0
 20
-15.0
 30
0.0
 40
5.0
100
AcDbArc
 50
180.0
 51
270.0
  0
ARC
  5
222
100
AcDbEntity
  8
cut_2mm
 62
256
370
-1
 48
1.0
  6
BYLAYER
100
AcDbCircle
 10
360.0
 20
-65.0000000000000284
 30
0.0
 40
5.0
100
AcDbArc
 50
180.0
 51
270.0
  0
LINE
  5
223
100
AcDbEntity
  8
cut
 62
256
370
-1
 48
1.0
  6
BYLAYER
100
AcDbLine
 10
364.0
 20
-19.9999999999999964
 30
0.0
 11
360.0
 21
-20.0
 31
0.0
  0
LINE
  5
224
100
AcDbEntity
  8
cut_2mm
 62
256
370
-1
 48
1.0
  6
BYLAYER
100
AcDbLine
 10
364.0
 20
-70.0000000000000284
 30
0.0
 11
360.0
 21
-70.0000000000000284
 31
0.0
  0
ARC
  5
225
100
AcDbEntity
  8
cut
 62
256
370
-1
 48
1.0
  6
BYLAYER
100
AcDbCircle
 10
364.0
 20
-21.0000000000000071
 30
0.0
 40
1.0
100
AcDbArc
 50
0.0
 51
90.0
  0
ARC
  5
226
100
AcDbEntity
  8
cut_2mm
 62
256
370
-1
 48
1.0
  6
BYLAYER
100
AcDbCircle
 10
364.0
 20
-71.0000000000000284
 30
0.0
 40
1.0
100
AcDbArc
 50
0.0
 51
90.0
  0
LINE
  5
227
100
AcDbEntity
  8
cut
 62
256
370
-1
 48
1.0
  6
BYLAYER
100
AcDbLine
 10
365.0
 20
-21.0000000000000142
 30
0.0
 11
365.0
 21
-39.0
 31
0.0
  0
LINE
  5
228
100
AcDbEntity
  8
cut_2mm
 62
256
370
-1
 48
1.0
  6
BYLAYER
100
AcDbLine
 10
365.0
 20
-71.0000000000000426
 30
0.0
 11
365.0
 21
-89.0000000000000284
 31
0.0
  0
ARC
  5
229
100
AcDbEntity
  8
cut
 62
256
370
-1
 48
1.0
  6
BYLAYER
100
AcDbCircle
 10
364.0
 20
-39.0
 30
0.0
 40
1.0
100
AcDbArc
 50
270.0
 51
0.0
  0
ARC
  5
22A
100
AcDbEntity
  8
cut_2mm
 62
256
370
-1
 48
1.0
  6
BYLAYER
100
AcDbCircle
 10
364.0
 20
-89.0000000000000284
 30
0.0
 40
1.0
100
AcDbArc
 50
270.0
 51
0.0
  0
LINE
  5
22B
100
AcDbEntity
  8
cut
 62
256
370
-1
 48
1.0
  6
BYLAYER
100
AcDbLine
 10
364.0
 20
-40.0000000000000142
 30
0.0
 11
360.0
 21
-40.0000000000000071
 31
0.0
  0
LINE
  5
22C
100
AcDbEntity
  8
cut_2mm
 62
256
370
-1
 48
1.0
  6
BYLAYER
100
AcDbLine
 10
364.0
 20
-90.0000000000000426
 30
0.0
 11
360.0
 21
-90.0000000000000284
 31
0.0
  0
ARC
  5
22D
100
AcDbEntity
  8
cut
 62
256
370
-1
 48
1.0
  6
BYLAYER
100
AcDbCircle
 10
360.0
 20
-45.0
 30
0.0
 40
5.0
100
AcDbArc
 50
90.0
 51
180.0
  0
ARC
  5
22E
100
AcDbEntity
  8
cut_2mm
 62
256
370
-1
 48
1.0
  6
BYLAYER
100
AcDbCircle
 10
360.0
 20
-95.0000000000000284
 30
0.0
 40
5.0
100
AcDbArc
 50
90.0
 51
180.0
  0
LINE
  5
22F
100
AcDbEntity
  8
cut
 62
256
370
-1
 48
1.0
  6
BYLAYER
100
AcDbLine
 10
355.0
 20
-45.0
 30
0.0
 11
355.0
 21
-46.0
 31
0.0
  0
LINE
  5
230
100
AcDbEntity
  8
cut_2mm
 62
256
370
-1
 48
1.0
  6
BYLAYER
100
AcDbLine
 10
355.0
 20
-95.0000000000000284
 30
0.0
 11
355.0
 21
-96.0000000000000284
 31
0.0
  0
ARC
  5
231
100
AcDbEntity
  8
cut
 62
256
370
-1
 48
1.0
  6
BYLAYER
100
AcDbCircle
 10
354.0
 20
-46.0
 30
0.0
 40
1.0
100
AcDbArc
 50
270.0
 51
0.0
  0
ARC
  5
232
100
AcDbEntity
  8
cut_2mm
 62
256
370
-1
 48
1.0
  6
BYLAYER
100
AcDbCircle
 10
354.0
 20
-96.0000000000000284
 30
0.0
 40
1.0
100
AcDbArc
 50
270.0
 51
0.0
  0
LINE
  5
233
100
AcDbEntity
  8
cut
 62
256
370
-1
 48
1.0
  6
BYLAYER
100
AcDbLine
 10
326.0
 20
-47.0
 30
0.0
 11
354.0
 21
-47.0
 31
0.0
  0
LINE
  5
234
100
AcDbEntity
  8
cut_2mm
 62
256
370
-1
 48
1.0
  6
BYLAYER
100
AcDbLine
 10
326.0
 20
-97.0000000000000284
 30
0.0
 11
354.0
 21
-97.0000000000000284
 31
0.0
  0
ARC
  5
235
100
AcDbEntity
  8
cut
 62
256
370
-1
 48
1.0
  6
BYLAYER
100
AcDbCircle
 10
326.0
 20
-46.0
 30
0.0
 40
1.0
100
AcDbArc
 50
180.0
 51
270.0
  0
ARC
  5
236
100
AcDbEntity
  8
cut_2mm
 62
256
370
-1
 48
1.0
  6
BYLAYER
100
AcDbCircle
 10
326.0
 20
-96.0000000000000284
 30
0.0
 40
1.0
100
AcDbArc
 50
180.0
 51
270.0
  0
LINE
  5
237
100
AcDbEntity
  8
cut
 62
256
370
-1
 48
1.0
  6
BYLAYER
100
AcDbLine
 10
325.0
 20
-46.0
 30
0.0
 11
325.0
 21
-45.0
 31
0.0
  0
LINE
  5
238
100
AcDbEntity
  8
cut_2mm
 62
256
370
-1
 48
1.0
  6
BYLAYER
100
AcDbLine
 10
325.0
 20
-96.0000000000000284
 30
0.0
 11
325.0
 21
-95.0000000000000284
 31
0.0
  0
ARC
  5
239
100
AcDbEntity
  8
cut
 62
256
370
-1
 48
1.0
  6
BYLAYER
100
AcDbCircle
 10
320.0
 20
-45.0
 30
0.0
 40
5.0
100
AcDbArc
 50
0.0
 51
90.0
  0
ARC
  5
23A
100
AcDbEntity
  8
cut_2mm
 62
256
370
-1
 48
1.0
  6
BYLAYER
100
AcDbCircle
 10
320.0
 20
-95.0000000000000284
 30
0.0
 40
5.0
100
AcDbArc
 50
0.0
 51
90.0
  0
LINE
  5
23B
100
AcDbEntity
  8
cut
 62
256
370
-1
 48
1.0
  6
BYLAYER
100
AcDbLine
 10
316.0
 20
-40.0
 30
0.0
 11
320.0
 21
-40.0
 31
0.0
  0
LINE
  5
23C
100
AcDbEntity
  8
cut_2mm
 62
256
370
-1
 48
1.0
  6
BYLAYER
100
AcDbLine
 10
316.0
 20
-90.0000000000000284
 30
0.0
 11
320.0
 21
-90.0000000000000284
 31
0.0
  0
ARC
  5
23D
100
AcDbEntity
  8
cut
 62
256
370
-1
 48
1.0
  6
BYLAYER
100
AcDbCircle
 10
316.0
 20
-39.0
 30
0.0
 40
1.0
100
AcDbArc
 50
180.0
 51
270.0
  0
ARC
  5
23E
100
AcDbEntity
  8
cut_2mm
 62
256
370
-1
 48
1.0
  6
BYLAYER
100
AcDbCircle
 10
316.0
 20
-89.0000000000000284
 30
0.0
 40
1.0
100
AcDbArc
 50
180.0
 51
270.0
  0
LINE
  5
23F
100
AcDbEntity
  8
cut
 62
256
370
-1
 48
1.0
  6
BYLAYER
100
AcDbLine
 10
315.0
 20
-21.0
 30
0.0
 11
315.0
 21
-39.0
 31
0.0
  0
LINE
  5
240
100
AcDbEntity
  8
cut_2mm
 62
256
370
-1
 48
1.0
  6
BYLAYER
100
AcDbLine
 10
315.0
 20
-71.0000000000000284
 30
0.0
 11
315.0
 21
-89.0000000000000284
 31
0.0
  0
LINE
  5
241
100
AcDbEntity
  8
cut_2mm
 62
256
370
-1
 48
1.0
  6
BYLAYER
100
AcDbLine
 10
354.0
 20
-64.0000000000000284
 30
0.0
 11
354.0
 21
-65.0000000000000284
 31
0.0
  0
LINE
  5
242
100
AcDbEntity
  8
cut_2mm
 62
256
370
-1
 48
1.0
  6
BYLAYER
100
AcDbLine
 10
326.0
 20
-96.0
 30
0.0
 11
326.0
 21
-94.9999999999999716
 31
0.0
  0
ARC
  5
243
100
AcDbEntity
  8
cut_2mm
 62
256
370
-1
 48
1.0
  6
BYLAYER
100
AcDbCircle
 10
360.0
 20
-65.0000000000000284
 30
0.0
 40
6.0
100
AcDbArc
 50
180.0
 51
270.0
  0
ARC
  5
244
100
AcDbEntity
  8
cut_2mm
 62
256
370
-1
 48
1.0
  6
BYLAYER
100
AcDbCircle
 10
320.0
 20
-94.9999999999999574
 30
0.0
 40
6.0
100
AcDbArc
 50
0.0
 51
90.0
  0
LINE
  5
245
100
AcDbEntity
  8
cut_2mm
 62
256
370
-1
 48
1.0
  6
BYLAYER
100
AcDbLine
 10
364.0
 20
-71.0000000000000284
 30
0.0
 11
360.0
 21
-71.0000000000000284
 31
0.0
  0
LINE
  5
246
100
AcDbEntity
  8
cut_2mm
 62
256
370
-1
 48
1.0
  6
BYLAYER
100
AcDbLine
 10
316.0
 20
-88.9999999999999716
 30
0.0
 11
320.0
 21
-88.9999999999999716
 31
0.0
  0
LINE
  5
247
100
AcDbEntity
  8
cut_2mm
 62
256
370
-1
 48
1.0
  6
BYLAYER
100
AcDbLine
 10
364.0
 20
-71.0000000000000426
 30
0.0
 11
364.0
 21
-89.0000000000000284
 31
0.0
  0
LINE
  5
248
100
AcDbEntity
  8
cut_2mm
 62
256
370
-1
 48
1.0
  6
BYLAYER
100
AcDbLine
 10
316.0
 20
-88.9999999999999716
 30
0.0
 11
316.0
 21
-70.9999999999999716
 31
0.0
  0
LINE
  5
249
100
AcDbEntity
  8
cut_2mm
 62
256
370
-1
 48
1.0
  6
BYLAYER
100
AcDbLine
 10
364.0
 20
-89.0000000000000426
 30
0.0
 11
360.0
 21
-89.0000000000000284
 31
0.0
  0
LINE
  5
24A
100
AcDbEntity
  8
cut_2mm
 62
256
370
-1
 48
1.0
  6
BYLAYER
100
AcDbLine
 10
316.0
 20
-70.9999999999999716
 30
0.0
 11
320.0
 21
-70.9999999999999858
 31
0.0
  0
ARC
  5
24B
100
AcDbEntity
  8
cut_2mm
 62
256
370
-1
 48
1.0
  6
BYLAYER
100
AcDbCircle
 10
360.0
 20
-95.0000000000000284
 30
0.0
 40
6.0
100
AcDbArc
 50
90.0
 51
180.0
  0
ARC
  5
24C
100
AcDbEntity
  8
cut_2mm
 62
256
370
-1
 48
1.0
  6
BYLAYER
100
AcDbCircle
 10
320.0
 20
-64.9999999999999716
 30
0.0
 40
6.0
100
AcDbArc
 50
270.0
 51
0.0
  0
LINE
  5
24D
100
AcDbEntity
  8
cut_2mm
 62
256
370
-1
 48
1.0
  6
BYLAYER
100
AcDbLine
 10
354.0
 20
-95.0000000000000284
 30
0.0
 11
354.0
 21
-96.0000000000000284
 31
0.0
  0
LINE
  5
24E
100
AcDbEntity
  8
cut_2mm
 62
256
370
-1
 48
1.0
  6
BYLAYER
100
AcDbLine
 10
326.0
 20
-64.9999999999999716
 30
0.0
 11
326.0
 21
-63.9999999999999858
 31
0.0
  0
CIRCLE
  5
24F
100
AcDbEntity
  8
cut
 62
256
370
-1
 48
1.0
  6
BYLAYER
100
AcDbCircle
 10
312.0
 20
-46.5000000000000284
 30
0.0
 40
0.6000000000000001
  0
CIRCLE
  5
250
100
AcDbEntity
  8
cut
 62
256
370
-1
 48
1.0
  6
BYLAYER
100
AcDbCircle
 10
320.0
 20
-45.0000000000000284
 30
0.0
 40
0.6000000000000001
  0
CIRCLE
  5
251
100
AcDbEntity
  8
cut
 62
256
370
-1
 48
1.0
  6
BYLAYER
100
AcDbCircle
 10
312.0
 20
-13.5000000000000426
 30
0.0
 40
0.6000000000000001
  0
CIRCLE
  5
252
100
AcDbEntity
  8
cut
 62
256
370
-1
 48
1.0
  6
BYLAYER
100
AcDbCircle
 10
320.0
 20
-15.0000000000000284
 30
0.0
 40
0.6000000000000001
  0
CIRCLE
  5
253
100
AcDbEntity
  8
cut
 62
256
370
-1
 48
1.0
  6
BYLAYER
100
AcDbCircle
 10
360.0
 20
-15.0000000000000284
 30
0.0
 40
0.6000000000000001
  0
CIRCLE
  5
254
100
AcDbEntity
  8
cut
 62
256
370
-1
 48
1.0
  6
BYLAYER
100
AcDbCircle
 10
368.0
 20
-13.5000000000000284
 30
0.0
 40
0.6000000000000001
  0
CIRCLE
  5
255
100
AcDbEntity
  8
cut
 62
256
370
-1
 48
1.0
  6
BYLAYER
100
AcDbCircle
 10
368.0
 20
-46.5000000000000284
 30
0.0
 40
0.6000000000000001
  0
CIRCLE
  5
256
100
AcDbEntity
  8
cut
 62
256
370
-1
 48
1.0
  6
BYLAYER
100
AcDbCircle
 10
360.0
 20
-45.0000000000000284
 30
0.0
 40
0.6000000000000001
  0
CIRCLE
  5
257
100
AcDbEntity
  8
cut
 62
256
370
-1
 48
1.0
  6
BYLAYER
100
AcDbCircle
 10
312.0
 20
-63.5000000000000711
 30
0.0
 40
0.6000000000000001
  0
CIRCLE
  5
258
100
AcDbEntity
  8
cut
 62
256
370
-1
 48
1.0
  6
BYLAYER
100
AcDbCircle
 10
360.0
 20
-65.0000000000000568
 30
0.0
 40
0.6000000000000001
  0
CIRCLE
  5
259
100
AcDbEntity
  8
cut
 62
256
370
-1
 48
1.0
  6
BYLAYER
100
AcDbCircle
 10
368.0
 20
-63.5000000000000568
 30
0.0
 40
0.6000000000000001
  0
CIRCLE
  5
25A
100
AcDbEntity
  8
cut
 62
256
370
-1
 48
1.0
  6
BYLAYER
100
AcDbCircle
 10
368.0
 20
-96.5000000000000568
 30
0.0
 40
0.6000000000000001
  0
CIRCLE
  5
25B
100
AcDbEntity
  8
cut
 62
256
370
-1
 48
1.0
  6
BYLAYER
100
AcDbCircle
 10
360.0
 20
-95.0000000000000568
 30
0.0
 40
0.6000000000000001
  0
CIRCLE
  5
25C
100
AcDbEntity
  8
cut
 62
256
370
-1
 48
1.0
  6
BYLAYER
100
AcDbCircle
 10
320.0
 20
-95.0000000000000568
 30
0.0
 40
0.6000000000000001
  0
CIRCLE
  5
25D
100
AcDbEntity
  8
cut
 62
256
370
-1
 48
1.0
  6
BYLAYER
100
AcDbCircle
 10
312.0
 20
-96.5000000000000568
 30
0.0
 40
0.6000000000000001
  0
CIRCLE
  5
25E
100
AcDbEntity
  8
cut
 62
256
370
-1
 48
1.0
  6
BYLAYER
100
AcDbCircle
 10
320.0
 20
-65.0000000000000568
 30
0.0
 40
0.6000000000000001
  0
ARC
  5
25F
100
AcDbEntity
  8
cut_2mm
 62
256
370
-1
 48
1.0
  6
BYLAYER
100
AcDbCircle
 10
360.0
 20
-65.0000000000000284
 30
0.0
 40
7.0
100
AcDbArc
 50
180.0
 51
270.0
  0
ARC
  5
260
100
AcDbEntity
  8
cut_2mm
 62
256
370
-1
 48
1.0
  6
BYLAYER
100
AcDbCircle
 10
320.0
 20
-94.9999999999999574
 30
0.0
 40
7.0
100
AcDbArc
 50
0.0
 51
90.0
  0
ARC
  5
261
100
AcDbEntity
  8
cut_2mm
 62
256
370
-1
 48
1.0
  6
BYLAYER
100
AcDbCircle
 10
360.0
 20
-95.0000000000000284
 30
0.0
 40
7.0
100
AcDbArc
 50
98.2132107017381912
 51
106.6015495990202169
  0
ARC
  5
262
100
AcDbEntity
  8
cut_2mm
 62
256
370
-1
 48
1.0
  6
BYLAYER
100
AcDbCircle
 10
360.0
 20
-95.0000000000000284
 30
0.0
 40
7.0
100
AcDbArc
 50
115.3769335251523103
 51
124.8499045790464947
  0
ARC
  5
263
100
AcDbEntity
  8
cut_2mm
 62
256
370
-1
 48
1.0
  6
BYLAYER
100
AcDbCircle
 10
360.0
 20
-95.0000000000000284
 30
0.0
 40
7.0
100
AcDbArc
 50
135.5846914028070103
 51
148.9972808661259478
  0
ARC
  5
264
100
AcDbEntity
  8
cut_2mm
 62
256
370
-1
 48
1.0
  6
BYLAYER
100
AcDbCircle
 10
320.0
 20
-64.9999999999999716
 30
0.0
 40
7.0
100
AcDbArc
 50
295.3769335251523103
 51
304.8499045790464947
  0
ARC
  5
265
100
AcDbEntity
  8
cut_2mm
 62
256
370
-1
 48
1.0
  6
BYLAYER
100
AcDbCircle
 10
320.0
 20
-64.9999999999999716
 30
0.0
 40
7.0
100
AcDbArc
 50
315.5846914028069818
 51
328.9972808661260615
  0
ARC
  5
266
100
AcDbEntity
  8
cut_2mm
 62
256
370
-1
 48
1.0
  6
BYLAYER
100
AcDbCircle
 10
320.0
 20
-64.9999999999999716
 30
0.0
 40
7.0
100
AcDbArc
 50
278.2132107017382054
 51
286.6015495990202453
  0
LINE
  5
267
100
AcDbEntity
  8
cut_2mm
 62
256
370
-1
 48
1.0
  6
BYLAYER
100
AcDbLine
 10
353.0
 20
-64.0000000000000284
 30
0.0
 11
353.0
 21
-65.0000000000000284
 31
0.0
  0
LINE
  5
268
100
AcDbEntity
  8
cut_2mm
 62
256
370
-1
 48
1.0
  6
BYLAYER
100
AcDbLine
 10
327.0
 20
-96.0
 30
0.0
 11
327.0
 21
-94.9999999999999716
 31
0.0
  0
LINE
  5
269
100
AcDbEntity
  8
cut_2mm
 62
256
370
-1
 48
1.0
  6
BYLAYER
100
AcDbLine
 10
353.0
 20
-64.0000000000000284
 30
0.0
 11
354.0
 21
-64.0000000000000284
 31
0.0
  0
LINE
  5
26A
100
AcDbEntity
  8
cut_2mm
 62
256
370
-1
 48
1.0
  6
BYLAYER
100
AcDbLine
 10
327.0
 20
-96.0
 30
0.0
 11
326.0
 21
-96.0
 31
0.0
  0
LINE
  5
26B
100
AcDbEntity
  8
cut_2mm
 62
256
370
-1
 48
1.0
  6
BYLAYER
100
AcDbLine
 10
360.0
 20
-72.0000000000000284
 30
0.0
 11
363.0
 21
-72.0
 31
0.0
  0
LINE
  5
26C
100
AcDbEntity
  8
cut_2mm
 62
256
370
-1
 48
1.0
  6
BYLAYER
100
AcDbLine
 10
320.0
 20
-87.9999999999999858
 30
0.0
 11
317.0
 21
-88.0
 31
0.0
  0
LINE
  5
26D
100
AcDbEntity
  8
cut_2mm
 62
256
370
-1
 48
1.0
  6
BYLAYER
100
AcDbLine
 10
363.0
 20
-72.0
 30
0.0
 11
363.0
 21
-88.0
 31
0.0
  0
LINE
  5
26E
100
AcDbEntity
  8
cut_2mm
 62
256
370
-1
 48
1.0
  6
BYLAYER
100
AcDbLine
 10
317.0
 20
-88.0
 30
0.0
 11
317.0
 21
-72.0
 31
0.0
  0
ARC
  5
26F
100
AcDbEntity
  8
cut_2mm
 62
256
370
-1
 48
1.0
  6
BYLAYER
100
AcDbCircle
 10
360.0
 20
-65.0000000000000284
 30
0.0
 40
8.0
100
AcDbArc
 50
231.3178125465105381
 51
239.9999999999999432
  0
ARC
  5
270
100
AcDbEntity
  8
cut_2mm
 62
256
370
-1
 48
1.0
  6
BYLAYER
100
AcDbCircle
 10
360.0
 20
-65.0000000000000284
 30
0.0
 40
8.0
100
AcDbArc
 50
247.9756871629578541
 51
255.5224878140700469
  0
ARC
  5
271
100
AcDbEntity
  8
cut_2mm
 62
256
370
-1
 48
1.0
  6
BYLAYER
100
AcDbCircle
 10
360.0
 20
-65.0000000000000284
 30
0.0
 40
8.0
100
AcDbArc
 50
262.8192442185417121
 51
270.0
  0
ARC
  5
272
100
AcDbEntity
  8
cut_2mm
 62
256
370
-1
 48
1.0
  6
BYLAYER
100
AcDbCircle
 10
360.0
 20
-65.0000000000000284
 30
0.0
 40
8.0
100
AcDbArc
 50
208.9550243718598495
 51
221.4096221092707992
  0
ARC
  5
273
100
AcDbEntity
  8
cut_2mm
 62
256
370
-1
 48
1.0
  6
BYLAYER
100
AcDbCircle
 10
320.0
 20
-94.9999999999999574
 30
0.0
 40
8.0
100
AcDbArc
 50
28.9550243718598637
 51
41.4096221092707708
  0
ARC
  5
274
100
AcDbEntity
  8
cut_2mm
 62
256
370
-1
 48
1.0
  6
BYLAYER
100
AcDbCircle
 10
320.0
 20
-94.9999999999999574
 30
0.0
 40
8.0
100
AcDbArc
 50
51.3178125465105524
 51
59.9999999999999361
  0
ARC
  5
275
100
AcDbEntity
  8
cut_2mm
 62
256
370
-1
 48
1.0
  6
BYLAYER
100
AcDbCircle
 10
320.0
 20
-94.9999999999999574
 30
0.0
 40
8.0
100
AcDbArc
 50
82.8192442185416979
 51
90.0
  0
ARC
  5
276
100
AcDbEntity
  8
cut_2mm
 62
256
370
-1
 48
1.0
  6
BYLAYER
100
AcDbCircle
 10
320.0
 20
-94.9999999999999574
 30
0.0
 40
8.0
100
AcDbArc
 50
67.9756871629578541
 51
75.5224878140700611
  0
LINE
  5
277
100
AcDbEntity
  8
cut_2mm
 62
256
370
-1
 48
1.0
  6
BYLAYER
100
AcDbLine
 10
363.0
 20
-88.0
 30
0.0
 11
362.0
 21
-88.0
 31
0.0
  0
LINE
  5
278
100
AcDbEntity
  8
cut_2mm
 62
256
370
-1
 48
1.0
  6
BYLAYER
100
AcDbLine
 10
317.0
 20
-72.0
 30
0.0
 11
318.0
 21
-72.0
 31
0.0
  0
LINE
  5
279
100
AcDbEntity
  8
cut_2mm
 62
256
370
-1
 48
1.0
  6
BYLAYER
100
AcDbLine
 10
362.0
 20
-88.0
 30
0.0
 11
362.0
 21
-73.0
 31
0.0
  0
LINE
  5
27A
100
AcDbEntity
  8
cut_2mm
 62
256
370
-1
 48
1.0
  6
BYLAYER
100
AcDbLine
 10
318.0
 20
-72.0
 30
0.0
 11
318.0
 21
-87.0
 31
0.0
  0
LINE
  5
27B
100
AcDbEntity
  8
cut_2mm
 62
256
370
-1
 48
1.0
  6
BYLAYER
100
AcDbLine
 10
362.0
 20
-73.0
 30
0.0
 11
361.0
 21
-73.0
 31
0.0
  0
LINE
  5
27C
100
AcDbEntity
  8
cut_2mm
 62
256
370
-1
 48
1.0
  6
BYLAYER
100
AcDbLine
 10
318.0
 20
-87.0
 30
0.0
 11
319.0
 21
-87.0
 31
0.0
  0
LINE
  5
27D
100
AcDbEntity
  8
cut_2mm
 62
256
370
-1
 48
1.0
  6
BYLAYER
100
AcDbLine
 10
361.0
 20
-73.0
 30
0.0
 11
361.0
 21
-88.0
 31
0.0
  0
LINE
  5
27E
100
AcDbEntity
  8
cut_2mm
 62
256
370
-1
 48
1.0
  6
BYLAYER
100
AcDbLine
 10
319.0
 20
-87.0
 30
0.0
 11
319.0
 21
-72.0
 31
0.0
  0
LINE
  5
27F
100
AcDbEntity
  8
cut_2mm
 62
256
370
-1
 48
1.0
  6
BYLAYER
100
AcDbLine
 10
360.0
 20
-88.0000000000000284
 30
0.0
 11
360.0
 21
-73.0000000000000284
 31
0.0
  0
LINE
  5
280
100
AcDbEntity
  8
cut_2mm
 62
256
370
-1
 48
1.0
  6
BYLAYER
100
AcDbLine
 10
320.0
 20
-71.9999999999999574
 30
0.0
 11
320.0
 21
-86.9999999999999716
 31
0.0
  0
LINE
  5
281
100
AcDbEntity
  8
cut_2mm
 62
256
370
-1
 48
1.0
  6
BYLAYER
100
AcDbLine
 10
359.0
 20
-72.9372539331938015
 30
0.0
 11
359.0
 21
-88.0717967697245285
 31
0.0
  0
LINE
  5
282
100
AcDbEntity
  8
cut_2mm
 62
256
370
-1
 48
1.0
  6
BYLAYER
100
AcDbLine
 10
321.0
 20
-87.0627460668061843
 30
0.0
 11
321.0
 21
-71.9282032302754715
 31
0.0
  0
LINE
  5
283
100
AcDbEntity
  8
cut_2mm
 62
256
370
-1
 48
1.0
  6
BYLAYER
100
AcDbLine
 10
358.0
 20
-88.2917960675006555
 30
0.0
 11
358.0
 21
-72.7459666924148678
 31
0.0
  0
LINE
  5
284
100
AcDbEntity
  8
cut_2mm
 62
256
370
-1
 48
1.0
  6
BYLAYER
100
AcDbLine
 10
322.0
 20
-71.7082039324993588
 30
0.0
 11
322.0
 21
-87.2540333075851322
 31
0.0
  0
LINE
  5
285
100
AcDbEntity
  8
cut_2mm
 62
256
370
-1
 48
1.0
  6
BYLAYER
100
AcDbLine
 10
357.0
 20
-72.4161984870956843
 30
0.0
 11
357.0
 21
-88.6754446796632863
 31
0.0
  0
LINE
  5
286
100
AcDbEntity
  8
cut_2mm
 62
256
370
-1
 48
1.0
  6
BYLAYER
100
AcDbLine
 10
323.0
 20
-87.5838015129043299
 30
0.0
 11
323.0
 21
-71.3245553203367137
 31
0.0
  0
LINE
  5
287
100
AcDbEntity
  8
cut_2mm
 62
256
370
-1
 48
1.0
  6
BYLAYER
100
AcDbLine
 10
356.0
 20
-89.2554373534619998
 30
0.0
 11
356.0
 21
-71.9282032302755283
 31
0.0
  0
LINE
  5
288
100
AcDbEntity
  8
cut_2mm
 62
256
370
-1
 48
1.0
  6
BYLAYER
100
AcDbLine
 10
324.0
 20
-70.7445626465380002
 30
0.0
 11
324.0
 21
-88.0717967697244717
 31
0.0
  0
LINE
  5
289
100
AcDbEntity
  8
cut_2mm
 62
256
370
-1
 48
1.0
  6
BYLAYER
100
AcDbLine
 10
355.0
 20
-71.2449979983984321
 30
0.0
 11
355.0
 21
-90.1010205144336851
 31
0.0
  0
LINE
  5
28A
100
AcDbEntity
  8
cut_2mm
 62
256
370
-1
 48
1.0
  6
BYLAYER
100
AcDbLine
 10
325.0
 20
-88.7550020016015679
 30
0.0
 11
325.0
 21
-69.8989794855663149
 31
0.0
  0
LINE
  5
28B
100
AcDbEntity
  8
cut_2mm
 62
256
370
-1
 48
1.0
  6
BYLAYER
100
AcDbLine
 10
354.0
 20
-91.3944487245360477
 30
0.0
 11
354.0
 21
-70.291502622129201
 31
0.0
  0
LINE
  5
28C
100
AcDbEntity
  8
cut_2mm
 62
256
370
-1
 48
1.0
  6
BYLAYER
100
AcDbLine
 10
326.0
 20
-68.6055512754639665
 30
0.0
 11
326.0
 21
-89.708497377870799
 31
0.0
  0
LINE
  5
28D
100
AcDbEntity
  8
cut_2mm
 62
256
370
-1
 48
1.0
  6
BYLAYER
100
AcDbLine
 10
353.0
 20
-68.8729833462074481
 30
0.0
 11
353.0
 21
-95.0000000000000284
 31
0.0
  0
LINE
  5
28E
100
AcDbEntity
  8
cut_2mm
 62
256
370
-1
 48
1.0
  6
BYLAYER
100
AcDbLine
 10
327.0
 20
-91.1270166537925377
 30
0.0
 11
327.0
 21
-64.9999999999999716
 31
0.0
  0
LINE
  5
28F
100
AcDbEntity
  8
cut_2mm
 62
256
370
-1
 48
1.0
  6
BYLAYER
100
AcDbLine
 10
361.0
 20
-88.0
 30
0.0
 11
360.0
 21
-88.0000000000000284
 31
0.0
  0
LINE
  5
290
100
AcDbEntity
  8
cut_2mm
 62
256
370
-1
 48
1.0
  6
BYLAYER
100
AcDbLine
 10
319.0
 20
-72.0
 30
0.0
 11
320.0
 21
-71.9999999999999574
 31
0.0
  0
LINE
  5
291
100
AcDbEntity
  8
cut_2mm
 62
256
370
-1
 48
1.0
  6
BYLAYER
100
AcDbLine
 10
354.0
 20
-96.0000000000000284
 30
0.0
 11
351.0
 21
-96.0
 31
0.0
  0
LINE
  5
292
100
AcDbEntity
  8
cut_2mm
 62
256
370
-1
 48
1.0
  6
BYLAYER
100
AcDbLine
 10
326.0
 20
-63.9999999999999858
 30
0.0
 11
329.0
 21
-64.0
 31
0.0
  0
LINE
  5
293
100
AcDbEntity
  8
cut_2mm
 62
256
370
-1
 48
1.0
  6
BYLAYER
100
AcDbLine
 10
353.0
 20
-95.0000000000000284
 30
0.0
 11
352.0
 21
-95.0
 31
0.0
  0
LINE
  5
294
100
AcDbEntity
  8
cut_2mm
 62
256
370
-1
 48
1.0
  6
BYLAYER
100
AcDbLine
 10
327.0
 20
-64.9999999999999716
 30
0.0
 11
328.0
 21
-65.0
 31
0.0
  0
LINE
  5
295
100
AcDbEntity
  8
cut_2mm
 62
256
370
-1
 48
1.0
  6
BYLAYER
100
AcDbLine
 10
352.0
 20
-95.0
 30
0.0
 11
352.0
 21
-64.0
 31
0.0
  0
LINE
  5
296
100
AcDbEntity
  8
cut_2mm
 62
256
370
-1
 48
1.0
  6
BYLAYER
100
AcDbLine
 10
328.0
 20
-65.0
 30
0.0
 11
328.0
 21
-96.0
 31
0.0
  0
LINE
  5
297
100
AcDbEntity
  8
cut_2mm
 62
256
370
-1
 48
1.0
  6
BYLAYER
100
AcDbLine
 10
352.0
 20
-64.0
 30
0.0
 11
330.0
 21
-64.0
 31
0.0
  0
LINE
  5
298
100
AcDbEntity
  8
cut_2mm
 62
256
370
-1
 48
1.0
  6
BYLAYER
100
AcDbLine
 10
328.0
 20
-96.0
 30
0.0
 11
350.0
 21
-96.0
 31
0.0
  0
LINE
  5
299
100
AcDbEntity
  8
cut_2mm
 62
256
370
-1
 48
1.0
  6
BYLAYER
100
AcDbLine
 10
329.0
 20
-64.0
 30
0.0
 11
329.0
 21
-95.0
 31
0.0
  0
LINE
  5
29A
100
AcDbEntity
  8
cut_2mm
 62
256
370
-1
 48
1.0
  6
BYLAYER
100
AcDbLine
 10
351.0
 20
-96.0
 30
0.0
 11
351.0
 21
-65.0
 31
0.0
  0
LINE
  5
29B
100
AcDbEntity
  8
cut_2mm
 62
256
370
-1
 48
1.0
  6
BYLAYER
100
AcDbLine
 10
350.0
 20
-96.0
 30
0.0
 11
350.0
 21
-66.0
 31
0.0
  0
LINE
  5
29C
100
AcDbEntity
  8
cut_2mm
 62
256
370
-1
 48
1.0
  6
BYLAYER
100
AcDbLine
 10
351.0
 20
-65.0
 30
0.0
 11
331.0
 21
-65.0
 31
0.0
  0
LINE
  5
29D
100
AcDbEntity
  8
cut_2mm
 62
256
370
-1
 48
1.0
  6
BYLAYER
100
AcDbLine
 10
330.0
 20
-64.0
 30
0.0
 11
330.0
 21
-94.0
 31
0.0
  0
LINE
  5
29E
100
AcDbEntity
  8
cut_2mm
 62
256
370
-1
 48
1.0
  6
BYLAYER
100
AcDbLine
 10
329.0
 20
-95.0
 30
0.0
 11
349.0
 21
-95.0
 31
0.0
  0
LINE
  5
29F
100
AcDbEntity
  8
cut_2mm
 62
256
370
-1
 48
1.0
  6
BYLAYER
100
AcDbLine
 10
349.0
 20
-95.0
 30
0.0
 11
349.0
 21
-67.0
 31
0.0
  0
LINE
  5
2A0
100
AcDbEntity
  8
cut_2mm
 62
256
370
-1
 48
1.0
  6
BYLAYER
100
AcDbLine
 10
350.0
 20
-66.0
 30
0.0
 11
332.0
 21
-66.0
 31
0.0
  0
LINE
  5
2A1
100
AcDbEntity
  8
cut_2mm
 62
256
370
-1
 48
1.0
  6
BYLAYER
100
AcDbLine
 10
331.0
 20
-65.0
 30
0.0
 11
331.0
 21
-93.0
 31
0.0
  0
LINE
  5
2A2
100
AcDbEntity
  8
cut_2mm
 62
256
370
-1
 48
1.0
  6
BYLAYER
100
AcDbLine
 10
330.0
 20
-94.0
 30
0.0
 11
348.0
 21
-94.0
 31
0.0
  0
LINE
  5
2A3
100
AcDbEntity
  8
cut_2mm
 62
256
370
-1
 48
1.0
  6
BYLAYER
100
AcDbLine
 10
348.0
 20
-94.0
 30
0.0
 11
348.0
 21
-68.0
 31
0.0
  0
LINE
  5
2A4
100
AcDbEntity
  8
cut_2mm
 62
256
370
-1
 48
1.0
  6
BYLAYER
100
AcDbLine
 10
349.0
 20
-67.0
 30
0.0
 11
333.0
 21
-67.0
 31
0.0
  0
LINE
  5
2A5
100
AcDbEntity
  8
cut_2mm
 62
256
370
-1
 48
1.0
  6
BYLAYER
100
AcDbLine
 10
332.0
 20
-66.0
 30
0.0
 11
332.0
 21
-92.0
 31
0.0
  0
LINE
  5
2A6
100
AcDbEntity
  8
cut_2mm
 62
256
370
-1
 48
1.0
  6
BYLAYER
100
AcDbLine
 10
331.0
 20
-93.0
 30
0.0
 11
347.0
 21
-93.0
 31
0.0
  0
LINE
  5
2A7
100
AcDbEntity
  8
cut_2mm
 62
256
370
-1
 48
1.0
  6
BYLAYER
100
AcDbLine
 10
333.0
 20
-67.0
 30
0.0
 11
333.0
 21
-68.0
 31
0.0
  0
LINE
  5
2A8
100
AcDbEntity
  8
cut_2mm
 62
256
370
-1
 48
1.0
  6
BYLAYER
100
AcDbLine
 10
333.0
 20
-68.0
 30
0.0
 11
333.0
 21
-91.0
 31
0.0
  0
LINE
  5
2A9
100
AcDbEntity
  8
cut_2mm
 62
256
370
-1
 48
1.0
  6
BYLAYER
100
AcDbLine
 10
333.0
 20
-91.0
 30
0.0
 11
345.0
 21
-91.0
 31
0.0
  0
LINE
  5
2AA
100
AcDbEntity
  8
cut_2mm
 62
256
370
-1
 48
1.0
  6
BYLAYER
100
AcDbLine
 10
345.0
 20
-91.0
 30
0.0
 11
345.0
 21
-71.0
 31
0.0
  0
LINE
  5
2AB
100
AcDbEntity
  8
cut_2mm
 62
256
370
-1
 48
1.0
  6
BYLAYER
100
AcDbLine
 10
348.0
 20
-68.0
 30
0.0
 11
334.0
 21
-68.0
 31
0.0
  0
LINE
  5
2AC
100
AcDbEntity
  8
cut_2mm
 62
256
370
-1
 48
1.0
  6
BYLAYER
100
AcDbLine
 10
334.0
 20
-68.0
 30
0.0
 11
334.0
 21
-90.0
 31
0.0
  0
LINE
  5
2AD
100
AcDbEntity
  8
cut_2mm
 62
256
370
-1
 48
1.0
  6
BYLAYER
100
AcDbLine
 10
334.0
 20
-90.0
 30
0.0
 11
344.0
 21
-90.0
 31
0.0
  0
LINE
  5
2AE
100
AcDbEntity
  8
cut_2mm
 62
256
370
-1
 48
1.0
  6
BYLAYER
100
AcDbLine
 10
344.0
 20
-90.0
 30
0.0
 11
344.0
 21
-80.0
 31
0.0
  0
LINE
  5
2AF
100
AcDbEntity
  8
cut_2mm
 62
256
370
-1
 48
1.0
  6
BYLAYER
100
AcDbLine
 10
332.0
 20
-92.0
 30
0.0
 11
346.0
 21
-92.0
 31
0.0
  0
LINE
  5
2B0
100
AcDbEntity
  8
cut_2mm
 62
256
370
-1
 48
1.0
  6
BYLAYER
100
AcDbLine
 10
346.0
 20
-92.0
 30
0.0
 11
346.0
 21
-70.0
 31
0.0
  0
LINE
  5
2B1
100
AcDbEntity
  8
cut_2mm
 62
256
370
-1
 48
1.0
  6
BYLAYER
100
AcDbLine
 10
346.0
 20
-70.0
 30
0.0
 11
336.0
 21
-70.0
 31
0.0
  0
LINE
  5
2B2
100
AcDbEntity
  8
cut_2mm
 62
256
370
-1
 48
1.0
  6
BYLAYER
100
AcDbLine
 10
336.0
 20
-70.0
 30
0.0
 11
336.0
 21
-80.0
 31
0.0
  0
LINE
  5
2B3
100
AcDbEntity
  8
cut_2mm
 62
256
370
-1
 48
1.0
  6
BYLAYER
100
AcDbLine
 10
347.0
 20
-93.0
 30
0.0
 11
347.0
 21
-69.0
 31
0.0
  0
LINE
  5
2B4
100
AcDbEntity
  8
cut_2mm
 62
256
370
-1
 48
1.0
  6
BYLAYER
100
AcDbLine
 10
347.0
 20
-69.0
 30
0.0
 11
335.0
 21
-69.0
 31
0.0
  0
LINE
  5
2B5
100
AcDbEntity
  8
cut_2mm
 62
256
370
-1
 48
1.0
  6
BYLAYER
100
AcDbLine
 10
335.0
 20
-69.0
 30
0.0
 11
335.0
 21
-89.0
 31
0.0
  0
LINE
  5
2B6
100
AcDbEntity
  8
cut_2mm
 62
256
370
-1
 48
1.0
  6
BYLAYER
100
AcDbLine
 10
335.0
 20
-89.0
 30
0.0
 11
343.0
 21
-89.0
 31
0.0
  0
LINE
  5
2B7
100
AcDbEntity
  8
cut_2mm
 62
256
370
-1
 48
1.0
  6
BYLAYER
100
AcDbLine
 10
345.0
 20
-71.0
 30
0.0
 11
337.0
 21
-71.0
 31
0.0
  0
LINE
  5
2B8
100
AcDbEntity
  8
cut_2mm
 62
256
370
-1
 48
1.0
  6
BYLAYER
100
AcDbLine
 10
343.0
 20
-89.0
 30
0.0
 11
343.0
 21
-88.0
 31
0.0
  0
LINE
  5
2B9
100
AcDbEntity
  8
cut_2mm
 62
256
370
-1
 48
1.0
  6
BYLAYER
100
AcDbLine
 10
343.0
 20
-88.0
 30
0.0
 11
336.0
 21
-88.0
 31
0.0
  0
LINE
  5
2BA
100
AcDbEntity
  8
cut_2mm
 62
256
370
-1
 48
1.0
  6
BYLAYER
100
AcDbLine
 10
336.0
 20
-88.0
 30
0.0
 11
336.0
 21
-87.0
 31
0.0
  0
LINE
  5
2BB
100
AcDbEntity
  8
cut_2mm
 62
256
370
-1
 48
1.0
  6
BYLAYER
100
AcDbLine
 10
336.0
 20
-87.0
 30
0.0
 11
343.0
 21
-87.0
 31
0.0
  0
LINE
  5
2BC
100
AcDbEntity
  8
cut_2mm
 62
256
370
-1
 48
1.0
  6
BYLAYER
100
AcDbLine
 10
337.0
 20
-71.0
 30
0.0
 11
337.0
 21
-72.0
 31
0.0
  0
LINE
  5
2BD
100
AcDbEntity
  8
cut_2mm
 62
256
370
-1
 48
1.0
  6
BYLAYER
100
AcDbLine
 10
337.0
 20
-72.0
 30
0.0
 11
344.0
 21
-72.0
 31
0.0
  0
LINE
  5
2BE
100
AcDbEntity
  8
cut_2mm
 62
256
370
-1
 48
1.0
  6
BYLAYER
100
AcDbLine
 10
344.0
 20
-72.0
 30
0.0
 11
344.0
 21
-73.0
 31
0.0
  0
LINE
  5
2BF
100
AcDbEntity
  8
cut_2mm
 62
256
370
-1
 48
1.0
  6
BYLAYER
100
AcDbLine
 10
344.0
 20
-73.0
 30
0.0
 11
337.0
 21
-73.0
 31
0.0
  0
LINE
  5
2C0
100
AcDbEntity
  8
cut_2mm
 62
256
370
-1
 48
1.0
  6
BYLAYER
100
AcDbLine
 10
337.0
 20
-73.0
 30
0.0
 11
337.0
 21
-74.0
 31
0.0
  0
LINE
  5
2C1
100
AcDbEntity
  8
cut_2mm
 62
256
370
-1
 48
1.0
  6
BYLAYER
100
AcDbLine
 10
337.0
 20
-74.0
 30
0.0
 11
344.0
 21
-74.0
 31
0.0
  0
LINE
  5
2C2
100
AcDbEntity
  8
cut_2mm
 62
256
370
-1
 48
1.0
  6
BYLAYER
100
AcDbLine
 10
344.0
 20
-74.0
 30
0.0
 11
344.0
 21
-75.0
 31
0.0
  0
LINE
  5
2C3
100
AcDbEntity
  8
cut_2mm
 62
256
370
-1
 48
1.0
  6
BYLAYER
100
AcDbLine
 10
344.0
 20
-75.0
 30
0.0
 11
337.0
 21
-75.0
 31
0.0
  0
LINE
  5
2C4
100
AcDbEntity
  8
cut_2mm
 62
256
370
-1
 48
1.0
  6
BYLAYER
100
AcDbLine
 10
337.0
 20
-75.0
 30
0.0
 11
337.0
 21
-76.0
 31
0.0
  0
LINE
  5
2C5
100
AcDbEntity
  8
cut_2mm
 62
256
370
-1
 48
1.0
  6
BYLAYER
100
AcDbLine
 10
337.0
 20
-76.0
 30
0.0
 11
344.0
 21
-76.0
 31
0.0
  0
LINE
  5
2C6
100
AcDbEntity
  8
cut_2mm
 62
256
370
-1
 48
1.0
  6
BYLAYER
100
AcDbLine
 10
344.0
 20
-76.0
 30
0.0
 11
344.0
 21
-77.0
 31
0.0
  0
LINE
  5
2C7
100
AcDbEntity
  8
cut_2mm
 62
256
370
-1
 48
1.0
  6
BYLAYER
100
AcDbLine
 10
344.0
 20
-77.0
 30
0.0
 11
337.0
 21
-77.0
 31
0.0
  0
LINE
  5
2C8
100
AcDbEntity
  8
cut_2mm
 62
256
370
-1
 48
1.0
  6
BYLAYER
100
AcDbLine
 10
337.0
 20
-77.0
 30
0.0
 11
337.0
 21
-78.0
 31
0.0
  0
LINE
  5
2C9
100
AcDbEntity
  8
cut_2mm
 62
256
370
-1
 48
1.0
  6
BYLAYER
100
AcDbLine
 10
343.0
 20
-87.0
 30
0.0
 11
343.0
 21
-86.0
 31
0.0
  0
LINE
  5
2CA
100
AcDbEntity
  8
cut_2mm
 62
256
370
-1
 48
1.0
  6
BYLAYER
100
AcDbLine
 10
343.0
 20
-86.0
 30
0.0
 11
336.0
 21
-86.0
 31
0.0
  0
LINE
  5
2CB
100
AcDbEntity
  8
cut_2mm
 62
256
370
-1
 48
1.0
  6
BYLAYER
100
AcDbLine
 10
336.0
 20
-86.0
 30
0.0
 11
336.0
 21
-85.0
 31
0.0
  0
LINE
  5
2CC
100
AcDbEntity
  8
cut_2mm
 62
256
370
-1
 48
1.0
  6
BYLAYER
100
AcDbLine
 10
336.0
 20
-85.0
 30
0.0
 11
343.0
 21
-85.0
 31
0.0
  0
LINE
  5
2CD
100
AcDbEntity
  8
cut_2mm
 62
256
370
-1
 48
1.0
  6
BYLAYER
100
AcDbLine
 10
343.0
 20
-85.0
 30
0.0
 11
343.0
 21
-84.0
 31
0.0
  0
LINE
  5
2CE
100
AcDbEntity
  8
cut_2mm
 62
256
370
-1
 48
1.0
  6
BYLAYER
100
AcDbLine
 10
343.0
 20
-84.0
 30
0.0
 11
336.0
 21
-84.0
 31
0.0
  0
LINE
  5
2CF
100
AcDbEntity
  8
cut_2mm
 62
256
370
-1
 48
1.0
  6
BYLAYER
100
AcDbLine
 10
336.0
 20
-84.0
 30
0.0
 11
336.0
 21
-83.0
 31
0.0
  0
LINE
  5
2D0
100
AcDbEntity
  8
cut_2mm
 62
256
370
-1
 48
1.0
  6
BYLAYER
100
AcDbLine
 10
336.0
 20
-83.0
 30
0.0
 11
343.0
 21
-83.0
 31
0.0
  0
LINE
  5
2D1
100
AcDbEntity
  8
cut_2mm
 62
256
370
-1
 48
1.0
  6
BYLAYER
100
AcDbLine
 10
343.0
 20
-83.0
 30
0.0
 11
343.0
 21
-82.0
 31
0.0
  0
LINE
  5
2D2
100
AcDbEntity
  8
cut_2mm
 62
256
370
-1
 48
1.0
  6
BYLAYER
100
AcDbLine
 10
336.0
 20
-80.0
 30
0.0
 11
344.0
 21
-80.0
 31
0.0
  0
LINE
  5
2D3
100
AcDbEntity
  8
cut_2mm
 62
256
370
-1
 48
1.0
  6
BYLAYER
100
AcDbLine
 10
343.0
 20
-82.0
 30
0.0
 11
336.0
 21
-82.0
 31
0.0
  0
LINE
  5
2D4
100
AcDbEntity
  8
cut_2mm
 62
256
370
-1
 48
1.0
  6
BYLAYER
100
AcDbLine
 10
336.0
 20
-82.0
 30
0.0
 11
336.0
 21
-81.0
 31
0.0
  0
LINE
  5
2D5
100
AcDbEntity
  8
cut_2mm
 62
256
370
-1
 48
1.0
  6
BYLAYER
100
AcDbLine
 10
336.0
 20
-81.0
 30
0.0
 11
343.0
 21
-81.0
 31
0.0
  0
LINE
  5
2D6
100
AcDbEntity
  8
cut_2mm
 62
256
370
-1
 48
1.0
  6
BYLAYER
100
AcDbLine
 10
337.0
 20
-78.0
 30
0.0
 11
344.0
 21
-78.0
 31
0.0
  0
LINE
  5
2D7
100
AcDbEntity
  8
cut_2mm
 62
256
370
-1
 48
1.0
  6
BYLAYER
100
AcDbLine
 10
344.0
 20
-78.0
 30
0.0
 11
344.0
 21
-79.0
 31
0.0
  0
LINE
  5
2D8
100
AcDbEntity
  8
cut_2mm
 62
256
370
-1
 48
1.0
  6
BYLAYER
100
AcDbLine
 10
344.0
 20
-79.0
 30
0.0
 11
337.0
 21
-79.0
 31
0.0
  0
LINE
  5
2D9
100
AcDbEntity
  8
cut
 62
256
370
-1
 48
1.0
  6
BYLAYER
100
AcDbLine
 10
299.0
 20
-61.3819660112501779
 30
0.0
 11
299.0
 21
-98.6180339887499287
 31
0.0
  0
LINE
  5
2DA
100
AcDbEntity
  8
cut
 62
256
370
-1
 48
1.0
  6
BYLAYER
100
AcDbLine
 10
381.0
 20
-98.6180339887499713
 30
0.0
 11
381.0
 21
-94.4300000000000352
 31
0.0
  0
LINE
  5
2DB
100
AcDbEntity
  8
cut
 62
256
370
-1
 48
1.0
  6
BYLAYER
100
AcDbLine
 10
381.0
 20
-80.930000000000021
 30
0.0
 11
381.0
 21
-61.3819660112501921
 31
0.0
  0
LINE
  5
2DC
100
AcDbEntity
  8
cut
 62
256
370
-1
 48
1.0
  6
BYLAYER
100
AcDbLine
 10
381.0
 20
-48.6180339887499358
 30
0.0
 11
381.0
 21
-44.4300000000000281
 31
0.0
  0
LINE
  5
2DD
100
AcDbEntity
  8
cut
 62
256
370
-1
 48
1.0
  6
BYLAYER
100
AcDbLine
 10
381.0
 20
-16.2999999999999901
 30
0.0
 11
381.0
 21
-11.3819660112501566
 31
0.0
  0
LINE
  5
2DE
100
AcDbEntity
  8
cut
 62
256
370
-1
 48
1.0
  6
BYLAYER
100
AcDbLine
 10
299.0
 20
-11.3819660112501531
 30
0.0
 11
299.0
 21
-38.2000000000001023
 31
0.0
  0
LINE
  5
2DF
100
AcDbEntity
  8
cut
 62
256
370
-1
 48
1.0
  6
BYLAYER
100
AcDbLine
 10
299.0
 20
-43.5000000000001137
 30
0.0
 11
299.0
 21
-48.6180339887499002
 31
0.0
  0
LINE
  5
2E0
100
AcDbEntity
  8
cut
 62
256
370
-1
 48
1.0
  6
BYLAYER
100
AcDbLine
 10
299.0
 20
1.3819660112501531
 30
0.0
 11
299.0
 21
38.6180339887499002
 31
0.0
  0
LINE
  5
2E1
100
AcDbEntity
  8
cut
 62
256
370
-1
 48
1.0
  6
BYLAYER
100
AcDbLine
 10
381.0
 20
38.6180339887498931
 30
0.0
 11
381.0
 21
1.3819660112500927
 31
0.0
  0
LINE
  5
2E2
100
AcDbEntity
  8
cut_2mm
 62
256
370
-1
 48
1.0
  6
BYLAYER
100
AcDbLine
 10
307.0
 20
-17.9999999999999893
 30
0.0
 11
307.0
 21
-42.0000000000000213
 31
0.0
  0
LINE
  5
2E3
100
AcDbEntity
  8
cut_2mm
 62
256
370
-1
 48
1.0
  6
BYLAYER
100
AcDbLine
 10
373.0
 20
-42.0
 30
0.0
 11
373.0
 21
-18.0
 31
0.0
  0
LINE
  5
2E4
100
AcDbEntity
  8
0
 62
256
370
-1
 48
1.0
  6
BYLAYER
100
AcDbLine
 10
300.0
 20
-62.0000000000000639
 30
0.0
 11
304.0
 21
-60.0000000000000568
 31
0.0
  0
LINE
  5
2E5
100
AcDbEntity
  8
0
 62
256
370
-1
 48
1.0
  6
BYLAYER
100
AcDbLine
 10
300.0
 20
-162.0000000000000568
 30
0.0
 11
304.0
 21
-160.0000000000000568
 31
0.0
  0
LINE
  5
2E6
100
AcDbEntity
  8
0
 62
256
370
-1
 48
1.0
  6
BYLAYER
100
AcDbLine
 10
300.0
 20
-98.0000000000000284
 30
0.0
 11
303.9999999999999432
 21
-100.0000000000000284
 31
0.0
  0
LINE
  5
2E7
100
AcDbEntity
  8
0
 62
256
370
-1
 48
1.0
  6
BYLAYER
100
AcDbLine
 10
300.0
 20
-198.0000000000000284
 30
0.0
 11
303.9999999999999432
 21
-200.0000000000000284
 31
0.0
  0
LINE
  5
2E8
100
AcDbEntity
  8
0
 62
256
370
-1
 48
1.0
  6
BYLAYER
100
AcDbLine
 10
380.0
 20
-98.0000000000000568
 30
0.0
 11
376.0
 21
-100.0000000000000568
 31
0.0
  0
LINE
  5
2E9
100
AcDbEntity
  8
0
 62
256
370
-1
 48
1.0
  6
BYLAYER
100
AcDbLine
 10
380.0
 20
-198.0000000000000568
 30
0.0
 11
376.0
 21
-200.0000000000000568
 31
0.0
  0
LINE
  5
2EA
100
AcDbEntity
  8
0
 62
256
370
-1
 48
1.0
  6
BYLAYER
100
AcDbLine
 10
380.0
 20
-62.0000000000000639
 30
0.0
 11
376.0
 21
-60.0000000000000639
 31
0.0
  0
LINE
  5
2EB
100
AcDbEntity
  8
0
 62
256
370
-1
 48
1.0
  6
BYLAYER
100
AcDbLine
 10
380.0
 20
-162.0000000000000568
 30
0.0
 11
376.0
 21
-160.0000000000000568
 31
0.0
  0
LINE
  5
2EC
100
AcDbEntity
  8
0
 62
256
370
-1
 48
1.0
  6
BYLAYER
100
AcDbLine
 10
380.0
 20
-48.0000000000000284
 30
0.0
 11
376.0
 21
-50.0000000000000284
 31
0.0
  0
LINE
  5
2ED
100
AcDbEntity
  8
0
 62
256
370
-1
 48
1.0
  6
BYLAYER
100
AcDbLine
 10
380.0
 20
-12.0000000000000284
 30
0.0
 11
376.0
 21
-10.0000000000000284
 31
0.0
  0
LINE
  5
2EE
100
AcDbEntity
  8
0
 62
256
370
-1
 48
1.0
  6
BYLAYER
100
AcDbLine
 10
300.0
 20
-12.0000000000000284
 30
0.0
 11
304.0
 21
-10.0000000000000284
 31
0.0
  0
LINE
  5
2EF
100
AcDbEntity
  8
0
 62
256
370
-1
 48
1.0
  6
BYLAYER
100
AcDbLine
 10
300.0
 20
-48.0
 30
0.0
 11
304.0
 21
-50.0
 31
0.0
  0
LINE
  5
2F0
100
AcDbEntity
  8
0
 62
256
370
-1
 48
1.0
  6
BYLAYER
100
AcDbLine
 10
300.0
 20
2.0000000000000284
 30
0.0
 11
304.0
 21
0.000000000000027
 31
0.0
  0
LINE
  5
2F1
100
AcDbEntity
  8
0
 62
256
370
-1
 48
1.0
  6
BYLAYER
100
AcDbLine
 10
300.0
 20
38.0
 30
0.0
 11
304.0
 21
40.0
 31
0.0
  0
LINE
  5
2F2
100
AcDbEntity
  8
0
 62
256
370
-1
 48
1.0
  6
BYLAYER
100
AcDbLine
 10
380.0
 20
38.0
 30
0.0
 11
376.0
 21
40.0
 31
0.0
  0
LINE
  5
2F3
100
AcDbEntity
  8
0
 62
256
370
-1
 48
1.0
  6
BYLAYER
100
AcDbLine
 10
380.0
 20
2.0
 30
0.0
 11
376.0
 21
0.0000000000000014
 31
0.0
  0
LINE
  5
2F4
100
AcDbEntity
  8
cut
 62
256
370
-1
 48
1.0
  6
BYLAYER
100
AcDbLine
 10
299.0
 20
38.6180339887498789
 30
0.0
 11
304.4472135954999885
 21
41.3416407864998732
 31
0.0
  0
LINE
  5
2F5
100
AcDbEntity
  8
cut
 62
256
370
-1
 48
1.0
  6
BYLAYER
100
AcDbLine
 10
299.0
 20
1.3819660112501486
 30
0.0
 11
304.4472135954999885
 21
-1.3416407864998483
 31
0.0
  0
LINE
  5
2F6
100
AcDbEntity
  8
cut
 62
256
370
-1
 48
1.0
  6
BYLAYER
100
AcDbLine
 10
381.0
 20
1.3819660112501129
 30
0.0
 11
375.5527864045000115
 21
-1.3416407864998734
 31
0.0
  0
LINE
  5
2F7
100
AcDbEntity
  8
cut
 62
256
370
-1
 48
1.0
  6
BYLAYER
100
AcDbLine
 10
381.0
 20
38.6180339887498789
 30
0.0
 11
375.5527864045000115
 21
41.3416407864998732
 31
0.0
  0
LINE
  5
2F8
100
AcDbEntity
  8
cut
 62
256
370
-1
 48
1.0
  6
BYLAYER
100
AcDbLine
 10
381.0
 20
-11.3819660112501477
 30
0.0
 11
375.5527864045000115
 21
-8.6583592135001517
 31
0.0
  0
LINE
  5
2F9
100
AcDbEntity
  8
cut
 62
256
370
-1
 48
1.0
  6
BYLAYER
100
AcDbLine
 10
299.0
 20
-11.3819660112501477
 30
0.0
 11
304.4472135954999885
 21
-8.6583592135001517
 31
0.0
  0
LINE
  5
2FA
100
AcDbEntity
  8
cut
 62
256
370
-1
 48
1.0
  6
BYLAYER
100
AcDbLine
 10
299.0
 20
-48.618033988749886
 30
0.0
 11
304.4472135954999885
 21
-51.3416407864998732
 31
0.0
  0
LINE
  5
2FB
100
AcDbEntity
  8
cut
 62
256
370
-1
 48
1.0
  6
BYLAYER
100
AcDbLine
 10
381.0
 20
-48.6180339887499144
 30
0.0
 11
375.5527864045000115
 21
-51.3416407864999016
 31
0.0
  0
CIRCLE
  5
2FC
100
AcDbEntity
  8
cut
 62
256
370
-1
 48
1.0
  6
BYLAYER
100
AcDbCircle
 10
312.0
 20
36.4999999999999858
 30
0.0
 40
0.25
  0
CIRCLE
  5
2FD
100
AcDbEntity
  8
cut
 62
256
370
-1
 48
1.0
  6
BYLAYER
100
AcDbCircle
 10
312.0
 20
3.5
 30
0.0
 40
0.25
  0
CIRCLE
  5
2FE
100
AcDbEntity
  8
cut
 62
256
370
-1
 48
1.0
  6
BYLAYER
100
AcDbCircle
 10
320.0
 20
5.0
 30
0.0
 40
0.6000000000000001
  0
CIRCLE
  5
2FF
100
AcDbEntity
  8
cut
 62
256
370
-1
 48
1.0
  6
BYLAYER
100
AcDbCircle
 10
320.0
 20
35.0
 30
0.0
 40
0.6000000000000001
  0
CIRCLE
  5
300
100
AcDbEntity
  8
cut
 62
256
370
-1
 48
1.0
  6
BYLAYER
100
AcDbCircle
 10
340.0
 20
35.0
 30
0.0
 40
0.25
  0
CIRCLE
  5
301
100
AcDbEntity
  8
cut
 62
256
370
-1
 48
1.0
  6
BYLAYER
100
AcDbCircle
 10
340.0
 20
5.0
 30
0.0
 40
0.25
  0
CIRCLE
  5
302
100
AcDbEntity
  8
cut
 62
256
370
-1
 48
1.0
  6
BYLAYER
100
AcDbCircle
 10
360.0
 20
5.0
 30
0.0
 40
0.6000000000000001
  0
CIRCLE
  5
303
100
AcDbEntity
  8
cut
 62
256
370
-1
 48
1.0
  6
BYLAYER
100
AcDbCircle
 10
368.0
 20
3.5
 30
0.0
 40
0.25
  0
CIRCLE
  5
304
100
AcDbEntity
  8
cut
 62
256
370
-1
 48
1.0
  6
BYLAYER
100
AcDbCircle
 10
368.0
 20
36.5
 30
0.0
 40
0.25
  0
CIRCLE
  5
305
100
AcDbEntity
  8
cut
 62
256
370
-1
 48
1.0
  6
BYLAYER
100
AcDbCircle
 10
360.0
 20
35.0
 30
0.0
 40
0.6000000000000001
  0
LINE
  5
306
100
AcDbEntity
  8
cut
 62
256
370
-1
 48
1.0
  6
BYLAYER
100
AcDbLine
 10
299.0
 20
-61.381966011250185
 30
0.0
 11
304.4472135954999885
 21
-58.6583592135001837
 31
0.0
  0
LINE
  5
307
100
AcDbEntity
  8
cut
 62
256
370
-1
 48
1.0
  6
BYLAYER
100
AcDbLine
 10
298.9999999999999432
 20
-98.6180339887499144
 30
0.0
 11
304.4472135954998748
 21
-101.3416407864999087
 31
0.0
  0
LINE
  5
308
100
AcDbEntity
  8
cut
 62
256
370
-1
 48
1.0
  6
BYLAYER
100
AcDbLine
 10
381.0
 20
-98.6180339887499429
 30
0.0
 11
375.5527864045000115
 21
-101.3416407864999371
 31
0.0
  0
LINE
  5
309
100
AcDbEntity
  8
cut
 62
256
370
-1
 48
1.0
  6
BYLAYER
100
AcDbLine
 10
381.0
 20
-61.381966011250185
 30
0.0
 11
375.5527864045000115
 21
-58.6583592135001908
 31
0.0
  0
LINE
  5
30A
100
AcDbEntity
  8
cut_2.2mm
 62
256
370
-1
 48
1.0
  6
BYLAYER
100
AcDbLine
 10
374.0
 20
35.4300000000000352
 30
0.0
 11
374.0
 21
19.9700000000000308
 31
0.0
  0
LINE
  5
30B
100
AcDbEntity
  8
cut
 62
256
370
-1
 48
1.0
  6
BYLAYER
100
AcDbLine
 10
374.0
 20
-45.4300000000000281
 30
0.0
 11
373.9999999999999432
 21
-15.3999999999999986
 31
0.0
  0
LINE
  5
30C
100
AcDbEntity
  8
cut
 62
256
370
-1
 48
1.0
  6
BYLAYER
100
AcDbLine
 10
374.0
 20
-95.4300000000000352
 30
0.0
 11
374.0
 21
-79.9700000000007662
 31
0.0
  0
LINE
  5
30D
100
AcDbEntity
  8
cut_2.2mm
 62
256
370
-1
 48
1.0
  6
BYLAYER
100
AcDbLine
 10
374.0
 20
34.4300000000000352
 30
0.0
 11
380.0
 21
34.4300000000000352
 31
0.0
  0
LINE
  5
30E
100
AcDbEntity
  8
cut
 62
256
370
-1
 48
1.0
  6
BYLAYER
100
AcDbLine
 10
374.0
 20
-44.4300000000000352
 30
0.0
 11
381.0
 21
-44.4300000000000281
 31
0.0
  0
LINE
  5
30F
100
AcDbEntity
  8
cut
 62
256
370
-1
 48
1.0
  6
BYLAYER
100
AcDbLine
 10
374.0
 20
-94.4300000000000352
 30
0.0
 11
381.0
 21
-94.4300000000000352
 31
0.0
  0
LINE
  5
310
100
AcDbEntity
  8
cut_2.2mm
 62
256
370
-1
 48
1.0
  6
BYLAYER
100
AcDbLine
 10
374.0
 20
20.9300000000000317
 30
0.0
 11
380.0
 21
20.9300000000000317
 31
0.0
  0
LINE
  5
311
100
AcDbEntity
  8
cut
 62
256
370
-1
 48
1.0
  6
BYLAYER
100
AcDbLine
 10
374.0
 20
-80.9300000000000637
 30
0.0
 11
381.0
 21
-80.930000000000021
 31
0.0
  0
LINE
  5
312
100
AcDbEntity
  8
cut_1.7mm
 62
256
370
-1
 48
1.0
  6
BYLAYER
100
AcDbLine
 10
373.9999999999998863
 20
19.8999999999999524
 30
0.0
 11
373.9999999999999432
 21
5.2999999999999998
 31
0.0
  0
LINE
  5
313
100
AcDbEntity
  8
cut_1.1mm
 62
256
370
-1
 48
1.0
  6
BYLAYER
100
AcDbLine
 10
373.9999999999998863
 20
-79.8999999999999346
 30
0.0
 11
373.9999999999999432
 21
-65.2999999999999972
 31
0.0
  0
LINE
  5
314
100
AcDbEntity
  8
cut_1.7mm
 62
256
370
-1
 48
1.0
  6
BYLAYER
100
AcDbLine
 10
373.9999999999999432
 20
6.2999999999999998
 30
0.0
 11
379.9999999999999432
 21
6.2999999999999998
 31
0.0
  0
LINE
  5
315
100
AcDbEntity
  8
cut
 62
256
370
-1
 48
1.0
  6
BYLAYER
100
AcDbLine
 10
373.9999999999999432
 20
-16.3000000000000007
 30
0.0
 11
381.0
 21
-16.2999999999999901
 31
0.0
  0
LINE
  5
316
100
AcDbEntity
  8
cut_1.1mm
 62
256
370
-1
 48
1.0
  6
BYLAYER
100
AcDbLine
 10
373.9999999999999432
 20
-66.2999999999999972
 30
0.0
 11
379.9999999999999432
 21
-66.2999999999999972
 31
0.0
  0
LINE
  5
317
100
AcDbEntity
  8
cut_2.2mm
 62
256
370
-1
 48
1.0
  6
BYLAYER
100
AcDbLine
 10
380.0
 20
20.9300000000000317
 30
0.0
 11
380.0
 21
21.9300000000000317
 31
0.0
  0
LINE
  5
318
100
AcDbEntity
  8
cut_2.2mm
 62
256
370
-1
 48
1.0
  6
BYLAYER
100
AcDbLine
 10
380.0
 20
21.9300000000000317
 30
0.0
 11
375.0
 21
21.9300000000000317
 31
0.0
  0
LINE
  5
319
100
AcDbEntity
  8
cut_2.2mm
 62
256
370
-1
 48
1.0
  6
BYLAYER
100
AcDbLine
 10
380.0
 20
34.4300000000000352
 30
0.0
 11
380.0
 21
22.9300000000000317
 31
0.0
  0
LINE
  5
31A
100
AcDbEntity
  8
cut_2.2mm
 62
256
370
-1
 48
1.0
  6
BYLAYER
100
AcDbLine
 10
380.0
 20
22.9300000000000317
 30
0.0
 11
376.0
 21
22.9300000000000317
 31
0.0
  0
LINE
  5
31B
100
AcDbEntity
  8
cut_2.2mm
 62
256
370
-1
 48
1.0
  6
BYLAYER
100
AcDbLine
 10
376.0
 20
22.9300000000000317
 30
0.0
 11
376.0
 21
32.4300000000000352
 31
0.0
  0
LINE
  5
31C
100
AcDbEntity
  8
cut_2.2mm
 62
256
370
-1
 48
1.0
  6
BYLAYER
100
AcDbLine
 10
376.0
 20
32.4300000000000352
 30
0.0
 11
377.5
 21
32.4300000000000352
 31
0.0
  0
LINE
  5
31D
100
AcDbEntity
  8
cut_2.2mm
 62
256
370
-1
 48
1.0
  6
BYLAYER
100
AcDbLine
 10
375.0
 20
21.9300000000000317
 30
0.0
 11
375.0
 21
33.4300000000000352
 31
0.0
  0
LINE
  5
31E
100
AcDbEntity
  8
cut_2.2mm
 62
256
370
-1
 48
1.0
  6
BYLAYER
100
AcDbLine
 10
375.0
 20
33.4300000000000352
 30
0.0
 11
379.0
 21
33.4300000000000352
 31
0.0
  0
LINE
  5
31F
100
AcDbEntity
  8
cut_2.2mm
 62
256
370
-1
 48
1.0
  6
BYLAYER
100
AcDbLine
 10
379.0
 20
33.4300000000000352
 30
0.0
 11
379.0
 21
23.9300000000000317
 31
0.0
  0
LINE
  5
320
100
AcDbEntity
  8
cut_2.2mm
 62
256
370
-1
 48
1.0
  6
BYLAYER
100
AcDbLine
 10
379.0
 20
23.9300000000000317
 30
0.0
 11
377.5
 21
23.9300000000000317
 31
0.0
  0
LINE
  5
321
100
AcDbEntity
  8
cut_2.2mm
 62
256
370
-1
 48
1.0
  6
BYLAYER
100
AcDbLine
 10
377.5
 20
23.9300000000000317
 30
0.0
 11
377.5
 21
32.4300000000000352
 31
0.0
  0
LINE
  5
322
100
AcDbEntity
  8
cut_1.7mm
 62
256
370
-1
 48
1.0
  6
BYLAYER
100
AcDbLine
 10
380.0
 20
6.2999999999999998
 30
0.0
 11
379.9999999999999432
 21
7.2999999999999998
 31
0.0
  0
LINE
  5
323
100
AcDbEntity
  8
cut_1.1mm
 62
256
370
-1
 48
1.0
  6
BYLAYER
100
AcDbLine
 10
380.0
 20
-66.2999999999999972
 30
0.0
 11
379.9999999999999432
 21
-67.2999999999999972
 31
0.0
  0
LINE
  5
324
100
AcDbEntity
  8
cut_1.7mm
 62
256
370
-1
 48
1.0
  6
BYLAYER
100
AcDbLine
 10
379.9999999999999432
 20
7.2999999999999998
 30
0.0
 11
374.9999999999999432
 21
7.2999999999999998
 31
0.0
  0
LINE
  5
325
100
AcDbEntity
  8
cut_1.1mm
 62
256
370
-1
 48
1.0
  6
BYLAYER
100
AcDbLine
 10
379.9999999999999432
 20
-67.2999999999999972
 30
0.0
 11
374.9999999999999432
 21
-67.2999999999999829
 31
0.0
  0
LINE
  5
326
100
AcDbEntity
  8
cut_1.7mm
 62
256
370
-1
 48
1.0
  6
BYLAYER
100
AcDbLine
 10
374.9999999999999432
 20
7.2999999999999998
 30
0.0
 11
374.9999999999999432
 21
8.3999999999999986
 31
0.0
  0
LINE
  5
327
100
AcDbEntity
  8
cut_1.1mm
 62
256
370
-1
 48
1.0
  6
BYLAYER
100
AcDbLine
 10
374.9999999999999432
 20
-67.2999999999999829
 30
0.0
 11
374.9999999999999432
 21
-68.4000000000000057
 31
0.0
  0
LINE
  5
328
100
AcDbEntity
  8
cut_1.7mm
 62
256
370
-1
 48
1.0
  6
BYLAYER
100
AcDbLine
 10
374.9999999999999432
 20
8.3999999999999986
 30
0.0
 11
380.0
 21
8.3999999999999986
 31
0.0
  0
LINE
  5
329
100
AcDbEntity
  8
cut_1.1mm
 62
256
370
-1
 48
1.0
  6
BYLAYER
100
AcDbLine
 10
374.9999999999999432
 20
-68.4000000000000057
 30
0.0
 11
380.0
 21
-68.4000000000000057
 31
0.0
  0
LINE
  5
32A
100
AcDbEntity
  8
cut_1.7mm
 62
256
370
-1
 48
1.0
  6
BYLAYER
100
AcDbLine
 10
380.0
 20
8.3999999999999986
 30
0.0
 11
379.9999999999999432
 21
9.3999999999999986
 31
0.0
  0
LINE
  5
32B
100
AcDbEntity
  8
cut_1.1mm
 62
256
370
-1
 48
1.0
  6
BYLAYER
100
AcDbLine
 10
380.0
 20
-68.4000000000000057
 30
0.0
 11
379.9999999999999432
 21
-69.4000000000000057
 31
0.0
  0
LINE
  5
32C
100
AcDbEntity
  8
cut_1.7mm
 62
256
370
-1
 48
1.0
  6
BYLAYER
100
AcDbLine
 10
379.9999999999999432
 20
9.3999999999999986
 30
0.0
 11
374.9999999999999432
 21
9.3999999999999986
 31
0.0
  0
LINE
  5
32D
100
AcDbEntity
  8
cut_1.1mm
 62
256
370
-1
 48
1.0
  6
BYLAYER
100
AcDbLine
 10
379.9999999999999432
 20
-69.4000000000000057
 30
0.0
 11
374.9999999999999432
 21
-69.4000000000000057
 31
0.0
  0
LINE
  5
32E
100
AcDbEntity
  8
cut_1.7mm
 62
256
370
-1
 48
1.0
  6
BYLAYER
100
AcDbLine
 10
374.9999999999999432
 20
9.3999999999999986
 30
0.0
 11
374.9999999999999432
 21
10.5
 31
0.0
  0
LINE
  5
32F
100
AcDbEntity
  8
cut_1.1mm
 62
256
370
-1
 48
1.0
  6
BYLAYER
100
AcDbLine
 10
374.9999999999999432
 20
-69.4000000000000057
 30
0.0
 11
374.9999999999999432
 21
-70.5
 31
0.0
  0
LINE
  5
330
100
AcDbEntity
  8
cut_1.7mm
 62
256
370
-1
 48
1.0
  6
BYLAYER
100
AcDbLine
 10
374.9999999999999432
 20
10.5
 30
0.0
 11
380.0
 21
10.5
 31
0.0
  0
LINE
  5
331
100
AcDbEntity
  8
cut_1.1mm
 62
256
370
-1
 48
1.0
  6
BYLAYER
100
AcDbLine
 10
374.9999999999999432
 20
-70.5
 30
0.0
 11
380.0
 21
-70.5
 31
0.0
  0
LINE
  5
332
100
AcDbEntity
  8
cut_1.7mm
 62
256
370
-1
 48
1.0
  6
BYLAYER
100
AcDbLine
 10
380.0
 20
10.5
 30
0.0
 11
379.9999999999999432
 21
11.4999999999999982
 31
0.0
  0
LINE
  5
333
100
AcDbEntity
  8
cut_1.1mm
 62
256
370
-1
 48
1.0
  6
BYLAYER
100
AcDbLine
 10
380.0
 20
-70.5
 30
0.0
 11
379.9999999999999432
 21
-71.5
 31
0.0
  0
LINE
  5
334
100
AcDbEntity
  8
cut_1.7mm
 62
256
370
-1
 48
1.0
  6
BYLAYER
100
AcDbLine
 10
379.9999999999999432
 20
11.4999999999999982
 30
0.0
 11
374.9999999999999432
 21
11.4999999999999982
 31
0.0
  0
LINE
  5
335
100
AcDbEntity
  8
cut_1.1mm
 62
256
370
-1
 48
1.0
  6
BYLAYER
100
AcDbLine
 10
379.9999999999999432
 20
-71.5
 30
0.0
 11
374.9999999999999432
 21
-71.5
 31
0.0
  0
LINE
  5
336
100
AcDbEntity
  8
cut_1.7mm
 62
256
370
-1
 48
1.0
  6
BYLAYER
100
AcDbLine
 10
374.9999999999999432
 20
11.4999999999999982
 30
0.0
 11
374.9999999999999432
 21
12.5999999999999996
 31
0.0
  0
LINE
  5
337
100
AcDbEntity
  8
cut_1.1mm
 62
256
370
-1
 48
1.0
  6
BYLAYER
100
AcDbLine
 10
374.9999999999999432
 20
-71.5
 30
0.0
 11
374.9999999999999432
 21
-72.5999999999999943
 31
0.0
  0
LINE
  5
338
100
AcDbEntity
  8
cut_1.7mm
 62
256
370
-1
 48
1.0
  6
BYLAYER
100
AcDbLine
 10
374.9999999999999432
 20
12.5999999999999996
 30
0.0
 11
380.0
 21
12.6000000000000014
 31
0.0
  0
LINE
  5
339
100
AcDbEntity
  8
cut_1.1mm
 62
256
370
-1
 48
1.0
  6
BYLAYER
100
AcDbLine
 10
374.9999999999999432
 20
-72.5999999999999943
 30
0.0
 11
380.0
 21
-72.5999999999999943
 31
0.0
  0
LINE
  5
33A
100
AcDbEntity
  8
cut_1.7mm
 62
256
370
-1
 48
1.0
  6
BYLAYER
100
AcDbLine
 10
380.0
 20
12.6000000000000014
 30
0.0
 11
379.9999999999999432
 21
13.5999999999999996
 31
0.0
  0
LINE
  5
33B
100
AcDbEntity
  8
cut_1.1mm
 62
256
370
-1
 48
1.0
  6
BYLAYER
100
AcDbLine
 10
380.0
 20
-72.5999999999999943
 30
0.0
 11
379.9999999999999432
 21
-73.5999999999999943
 31
0.0
  0
LINE
  5
33C
100
AcDbEntity
  8
cut_1.7mm
 62
256
370
-1
 48
1.0
  6
BYLAYER
100
AcDbLine
 10
379.9999999999999432
 20
13.5999999999999996
 30
0.0
 11
374.9999999999999432
 21
13.5999999999999996
 31
0.0
  0
LINE
  5
33D
100
AcDbEntity
  8
cut_1.1mm
 62
256
370
-1
 48
1.0
  6
BYLAYER
100
AcDbLine
 10
379.9999999999999432
 20
-73.5999999999999943
 30
0.0
 11
374.9999999999999432
 21
-73.5999999999999943
 31
0.0
  0
LINE
  5
33E
100
AcDbEntity
  8
cut_1.7mm
 62
256
370
-1
 48
1.0
  6
BYLAYER
100
AcDbLine
 10
374.9999999999999432
 20
13.5999999999999996
 30
0.0
 11
374.9999999999999432
 21
14.6999999999999993
 31
0.0
  0
LINE
  5
33F
100
AcDbEntity
  8
cut_1.1mm
 62
256
370
-1
 48
1.0
  6
BYLAYER
100
AcDbLine
 10
374.9999999999999432
 20
-73.5999999999999943
 30
0.0
 11
374.9999999999999432
 21
-74.7000000000000028
 31
0.0
  0
LINE
  5
340
100
AcDbEntity
  8
cut_1.7mm
 62
256
370
-1
 48
1.0
  6
BYLAYER
100
AcDbLine
 10
374.9999999999999432
 20
14.6999999999999993
 30
0.0
 11
380.0
 21
14.6999999999999993
 31
0.0
  0
LINE
  5
341
100
AcDbEntity
  8
cut_1.1mm
 62
256
370
-1
 48
1.0
  6
BYLAYER
100
AcDbLine
 10
374.9999999999999432
 20
-74.7000000000000028
 30
0.0
 11
380.0
 21
-74.7000000000000028
 31
0.0
  0
LINE
  5
342
100
AcDbEntity
  8
cut_1.7mm
 62
256
370
-1
 48
1.0
  6
BYLAYER
100
AcDbLine
 10
380.0
 20
14.6999999999999993
 30
0.0
 11
379.9999999999999432
 21
15.6999999999999993
 31
0.0
  0
LINE
  5
343
100
AcDbEntity
  8
cut_1.1mm
 62
256
370
-1
 48
1.0
  6
BYLAYER
100
AcDbLine
 10
380.0
 20
-74.7000000000000028
 30
0.0
 11
379.9999999999999432
 21
-75.7000000000000028
 31
0.0
  0
LINE
  5
344
100
AcDbEntity
  8
cut_1.7mm
 62
256
370
-1
 48
1.0
  6
BYLAYER
100
AcDbLine
 10
379.9999999999999432
 20
15.6999999999999993
 30
0.0
 11
374.9999999999999432
 21
15.6999999999999993
 31
0.0
  0
LINE
  5
345
100
AcDbEntity
  8
cut_1.1mm
 62
256
370
-1
 48
1.0
  6
BYLAYER
100
AcDbLine
 10
379.9999999999999432
 20
-75.7000000000000028
 30
0.0
 11
374.9999999999999432
 21
-75.7000000000000028
 31
0.0
  0
LINE
  5
346
100
AcDbEntity
  8
cut_1.7mm
 62
256
370
-1
 48
1.0
  6
BYLAYER
100
AcDbLine
 10
374.9999999999999432
 20
15.6999999999999993
 30
0.0
 11
374.9999999999999432
 21
16.7999999999999972
 31
0.0
  0
LINE
  5
347
100
AcDbEntity
  8
cut_1.1mm
 62
256
370
-1
 48
1.0
  6
BYLAYER
100
AcDbLine
 10
374.9999999999999432
 20
-75.7000000000000028
 30
0.0
 11
374.9999999999999432
 21
-76.8000000000000114
 31
0.0
  0
LINE
  5
348
100
AcDbEntity
  8
cut_1.7mm
 62
256
370
-1
 48
1.0
  6
BYLAYER
100
AcDbLine
 10
374.9999999999999432
 20
16.7999999999999972
 30
0.0
 11
380.0
 21
16.8000000000000007
 31
0.0
  0
LINE
  5
349
100
AcDbEntity
  8
cut_1.1mm
 62
256
370
-1
 48
1.0
  6
BYLAYER
100
AcDbLine
 10
374.9999999999999432
 20
-76.8000000000000114
 30
0.0
 11
380.0
 21
-76.7999999999999972
 31
0.0
  0
LINE
  5
34A
100
AcDbEntity
  8
cut_1.7mm
 62
256
370
-1
 48
1.0
  6
BYLAYER
100
AcDbLine
 10
380.0
 20
16.8000000000000007
 30
0.0
 11
379.9999999999999432
 21
17.7999999999999972
 31
0.0
  0
LINE
  5
34B
100
AcDbEntity
  8
cut_1.1mm
 62
256
370
-1
 48
1.0
  6
BYLAYER
100
AcDbLine
 10
380.0
 20
-76.7999999999999972
 30
0.0
 11
379.9999999999999432
 21
-77.7999999999999972
 31
0.0
  0
LINE
  5
34C
100
AcDbEntity
  8
cut_1.7mm
 62
256
370
-1
 48
1.0
  6
BYLAYER
100
AcDbLine
 10
379.9999999999999432
 20
17.7999999999999972
 30
0.0
 11
374.9999999999999432
 21
17.7999999999999972
 31
0.0
  0
LINE
  5
34D
100
AcDbEntity
  8
cut_1.1mm
 62
256
370
-1
 48
1.0
  6
BYLAYER
100
AcDbLine
 10
379.9999999999999432
 20
-77.7999999999999972
 30
0.0
 11
374.9999999999999432
 21
-77.8000000000000114
 31
0.0
  0
LINE
  5
34E
100
AcDbEntity
  8
cut_1.7mm
 62
256
370
-1
 48
1.0
  6
BYLAYER
100
AcDbLine
 10
374.9999999999999432
 20
17.7999999999999972
 30
0.0
 11
374.9999999999999432
 21
18.8999999999999986
 31
0.0
  0
LINE
  5
34F
100
AcDbEntity
  8
cut_1.1mm
 62
256
370
-1
 48
1.0
  6
BYLAYER
100
AcDbLine
 10
374.9999999999999432
 20
-77.8000000000000114
 30
0.0
 11
374.9999999999999432
 21
-78.8999999999999915
 31
0.0
  0
LINE
  5
350
100
AcDbEntity
  8
cut_1.7mm
 62
256
370
-1
 48
1.0
  6
BYLAYER
100
AcDbLine
 10
374.9999999999999432
 20
18.8999999999999986
 30
0.0
 11
380.0
 21
18.8999999999999986
 31
0.0
  0
LINE
  5
351
100
AcDbEntity
  8
cut_1.1mm
 62
256
370
-1
 48
1.0
  6
BYLAYER
100
AcDbLine
 10
374.9999999999999432
 20
-78.8999999999999915
 30
0.0
 11
380.0
 21
-78.9000000000000057
 31
0.0
  0
LINE
  5
352
100
AcDbEntity
  8
cut_1.7mm
 62
256
370
-1
 48
1.0
  6
BYLAYER
100
AcDbLine
 10
380.0
 20
18.8999999999999986
 30
0.0
 11
379.9999999999999432
 21
19.8999999999999986
 31
0.0
  0
LINE
  5
353
100
AcDbEntity
  8
cut_1.1mm
 62
256
370
-1
 48
1.0
  6
BYLAYER
100
AcDbLine
 10
380.0
 20
-78.9000000000000057
 30
0.0
 11
379.9999999999999432
 21
-79.9000000000000057
 31
0.0
  0
LINE
  5
354
100
AcDbEntity
  8
cut_1.7mm
 62
256
370
-1
 48
1.0
  6
BYLAYER
100
AcDbLine
 10
379.9999999999999432
 20
19.8999999999999986
 30
0.0
 11
373.9999999999999432
 21
19.8999999999999524
 31
0.0
  0
LINE
  5
355
100
AcDbEntity
  8
cut_1.1mm
 62
256
370
-1
 48
1.0
  6
BYLAYER
100
AcDbLine
 10
379.9999999999999432
 20
-79.9000000000000057
 30
0.0
 11
373.9999999999999432
 21
-79.8999999999999346
 31
0.0
  0
LINE
  5
356
100
AcDbEntity
  8
cut
 62
256
370
-1
 48
1.0
  6
BYLAYER
100
AcDbLine
 10
374.0
 20
-79.9700000000007662
 30
0.0
 11
374.0
 21
-80.9300000000000495
 31
0.0
  0
LINE
  5
357
100
AcDbEntity
  8
cut
 62
256
370
-1
 48
1.0
  6
BYLAYER
100
AcDbLine
 10
374.0
 20
-94.4300000000000352
 30
0.0
 11
374.0
 21
-95.4300000000000352
 31
0.0
  0
LINE
  5
358
100
AcDbEntity
  8
cut
 62
256
370
-1
 48
1.0
  6
BYLAYER
100
AcDbLine
 10
374.0
 20
-45.4300000000000281
 30
0.0
 11
374.0
 21
-44.4300000000000281
 31
0.0
  0
LINE
  5
359
100
AcDbEntity
  8
cut
 62
256
370
-1
 48
1.0
  6
BYLAYER
100
AcDbLine
 10
373.9999999999999432
 20
-15.3999999999999986
 30
0.0
 11
373.9999999999998863
 21
-16.3000000000000007
 31
0.0
  0
LINE
  5
35A
100
AcDbEntity
  8
cut_2.2mm
 62
256
370
-1
 48
1.0
  6
BYLAYER
100
AcDbLine
 10
374.0
 20
35.4300000000000352
 30
0.0
 11
374.0000000000000568
 21
34.4300000000000352
 31
0.0
  0
LINE
  5
35B
100
AcDbEntity
  8
cut_2.2mm
 62
256
370
-1
 48
1.0
  6
BYLAYER
100
AcDbLine
 10
374.0
 20
19.9700000000000308
 30
0.0
 11
374.0000000000000568
 21
20.9300000000000317
 31
0.0
  0
LINE
  5
35C
100
AcDbEntity
  8
cut_1.7mm
 62
256
370
-1
 48
1.0
  6
BYLAYER
100
AcDbLine
 10
373.9999999999999432
 20
5.2999999999999998
 30
0.0
 11
373.9999999999999432
 21
6.2999999999999998
 31
0.0
  0
LINE
  5
35D
100
AcDbEntity
  8
cut_1.1mm
 62
256
370
-1
 48
1.0
  6
BYLAYER
100
AcDbLine
 10
373.9999999999999432
 20
-65.2999999999999972
 30
0.0
 11
373.9999999999999432
 21
-66.2999999999999972
 31
0.0
  0
LINE
  5
35E
100
AcDbEntity
  8
cut_1.7mm
 62
256
370
-1
 48
1.0
  6
BYLAYER
100
AcDbLine
 10
300.0
 20
33.5999999999999943
 30
0.0
 11
306.0
 21
33.5999999999999943
 31
0.0
  0
LINE
  5
35F
100
AcDbEntity
  8
cut_1.1mm
 62
256
370
-1
 48
1.0
  6
BYLAYER
100
AcDbLine
 10
300.0
 20
-88.1000000000002217
 30
0.0
 11
306.0
 21
-88.1000000000002217
 31
0.0
  0
LINE
  5
360
100
AcDbEntity
  8
cut_1.7mm
 62
256
370
-1
 48
1.0
  6
BYLAYER
100
AcDbLine
 10
306.0
 20
34.5000000000001066
 30
0.0
 11
306.0
 21
27.2000000000001059
 31
0.0
  0
LINE
  5
361
100
AcDbEntity
  8
cut_1.1mm
 62
256
370
-1
 48
1.0
  6
BYLAYER
100
AcDbLine
 10
306.0
 20
-87.2000000000001023
 30
0.0
 11
306.0
 21
-94.5000000000001137
 31
0.0
  0
LINE
  5
362
100
AcDbEntity
  8
cut_1.7mm
 62
256
370
-1
 48
1.0
  6
BYLAYER
100
AcDbLine
 10
306.0
 20
28.1999999999999993
 30
0.0
 11
300.0
 21
28.2000000000000028
 31
0.0
  0
LINE
  5
363
100
AcDbEntity
  8
cut_1.1mm
 62
256
370
-1
 48
1.0
  6
BYLAYER
100
AcDbLine
 10
306.0
 20
-93.5000000000002132
 30
0.0
 11
300.0
 21
-93.5000000000002132
 31
0.0
  0
LINE
  5
364
100
AcDbEntity
  8
cut_1.7mm
 62
256
370
-1
 48
1.0
  6
BYLAYER
100
AcDbLine
 10
300.0
 20
28.1999999999999993
 30
0.0
 11
300.0
 21
29.2999999999999972
 31
0.0
  0
LINE
  5
365
100
AcDbEntity
  8
cut_1.1mm
 62
256
370
-1
 48
1.0
  6
BYLAYER
100
AcDbLine
 10
300.0
 20
-93.5000000000002132
 30
0.0
 11
300.0
 21
-92.4000000000002188
 31
0.0
  0
LINE
  5
366
100
AcDbEntity
  8
cut_1.7mm
 62
256
370
-1
 48
1.0
  6
BYLAYER
100
AcDbLine
 10
300.0
 20
29.2999999999999972
 30
0.0
 11
305.0
 21
29.2999999999999972
 31
0.0
  0
LINE
  5
367
100
AcDbEntity
  8
cut_1.1mm
 62
256
370
-1
 48
1.0
  6
BYLAYER
100
AcDbLine
 10
300.0
 20
-92.4000000000002188
 30
0.0
 11
305.0
 21
-92.4000000000002188
 31
0.0
  0
LINE
  5
368
100
AcDbEntity
  8
cut_1.7mm
 62
256
370
-1
 48
1.0
  6
BYLAYER
100
AcDbLine
 10
305.0
 20
29.2999999999999972
 30
0.0
 11
305.0
 21
30.3999999999999986
 31
0.0
  0
LINE
  5
369
100
AcDbEntity
  8
cut_1.1mm
 62
256
370
-1
 48
1.0
  6
BYLAYER
100
AcDbLine
 10
305.0
 20
-92.4000000000002188
 30
0.0
 11
305.0
 21
-91.3000000000002103
 31
0.0
  0
LINE
  5
36A
100
AcDbEntity
  8
cut_1.7mm
 62
256
370
-1
 48
1.0
  6
BYLAYER
100
AcDbLine
 10
299.9999999999999432
 20
33.5999999999999943
 30
0.0
 11
300.0
 21
32.5
 31
0.0
  0
LINE
  5
36B
100
AcDbEntity
  8
cut_1.1mm
 62
256
370
-1
 48
1.0
  6
BYLAYER
100
AcDbLine
 10
299.9999999999999432
 20
-88.1000000000002217
 30
0.0
 11
300.0
 21
-89.200000000000216
 31
0.0
  0
LINE
  5
36C
100
AcDbEntity
  8
cut_1.7mm
 62
256
370
-1
 48
1.0
  6
BYLAYER
100
AcDbLine
 10
300.0
 20
32.5
 30
0.0
 11
305.0
 21
32.5
 31
0.0
  0
LINE
  5
36D
100
AcDbEntity
  8
cut_1.1mm
 62
256
370
-1
 48
1.0
  6
BYLAYER
100
AcDbLine
 10
300.0
 20
-89.200000000000216
 30
0.0
 11
305.0
 21
-89.200000000000216
 31
0.0
  0
LINE
  5
36E
100
AcDbEntity
  8
cut_1.7mm
 62
256
370
-1
 48
1.0
  6
BYLAYER
100
AcDbLine
 10
305.0
 20
32.5
 30
0.0
 11
305.0
 21
31.4999999999999964
 31
0.0
  0
LINE
  5
36F
100
AcDbEntity
  8
cut_1.1mm
 62
256
370
-1
 48
1.0
  6
BYLAYER
100
AcDbLine
 10
305.0
 20
-89.200000000000216
 30
0.0
 11
305.0
 21
-90.200000000000216
 31
0.0
  0
LINE
  5
370
100
AcDbEntity
  8
cut_1.7mm
 62
256
370
-1
 48
1.0
  6
BYLAYER
100
AcDbLine
 10
305.0
 20
31.4999999999999964
 30
0.0
 11
300.0
 21
31.4999999999999964
 31
0.0
  0
LINE
  5
371
100
AcDbEntity
  8
cut_1.1mm
 62
256
370
-1
 48
1.0
  6
BYLAYER
100
AcDbLine
 10
305.0
 20
-90.200000000000216
 30
0.0
 11
300.0
 21
-90.200000000000216
 31
0.0
  0
LINE
  5
372
100
AcDbEntity
  8
cut_1.7mm
 62
256
370
-1
 48
1.0
  6
BYLAYER
100
AcDbLine
 10
300.0
 20
31.4999999999999964
 30
0.0
 11
300.0
 21
30.3999999999999986
 31
0.0
  0
LINE
  5
373
100
AcDbEntity
  8
cut_1.1mm
 62
256
370
-1
 48
1.0
  6
BYLAYER
100
AcDbLine
 10
300.0
 20
-90.200000000000216
 30
0.0
 11
300.0
 21
-91.3000000000002103
 31
0.0
  0
LINE
  5
374
100
AcDbEntity
  8
cut_1.7mm
 62
256
370
-1
 48
1.0
  6
BYLAYER
100
AcDbLine
 10
300.0
 20
30.3999999999999986
 30
0.0
 11
305.0
 21
30.3999999999999986
 31
0.0
  0
LINE
  5
375
100
AcDbEntity
  8
cut_1.1mm
 62
256
370
-1
 48
1.0
  6
BYLAYER
100
AcDbLine
 10
300.0
 20
-91.3000000000002103
 30
0.0
 11
305.0
 21
-91.3000000000002103
 31
0.0
  0
LINE
  5
376
100
AcDbEntity
  8
cut_1.7mm
 62
256
370
-1
 48
1.0
  6
BYLAYER
100
AcDbLine
 10
306.0
 20
33.5999999999999943
 30
0.0
 11
306.0
 21
34.5000000000001066
 31
0.0
  0
LINE
  5
377
100
AcDbEntity
  8
cut_1.1mm
 62
256
370
-1
 48
1.0
  6
BYLAYER
100
AcDbLine
 10
306.0
 20
-88.1000000000002217
 30
0.0
 11
306.0
 21
-87.2000000000001023
 31
0.0
  0
LINE
  5
378
100
AcDbEntity
  8
cut_1.7mm
 62
256
370
-1
 48
1.0
  6
BYLAYER
100
AcDbLine
 10
306.0
 20
27.2000000000001094
 30
0.0
 11
306.0
 21
28.1999999999999922
 31
0.0
  0
LINE
  5
379
100
AcDbEntity
  8
cut_1.1mm
 62
256
370
-1
 48
1.0
  6
BYLAYER
100
AcDbLine
 10
306.0
 20
-94.5000000000001137
 30
0.0
 11
306.0
 21
-93.5000000000002274
 31
0.0
  0
LINE
  5
37A
100
AcDbEntity
  8
engrave
 62
256
370
-1
 48
1.0
  6
BYLAYER
100
AcDbLine
 10
310.0
 20
-190.0
 30
0.0
 11
349.0
 21
-190.0
 31
0.0
  0
LINE
  5
37B
100
AcDbEntity
  8
engrave
 62
256
370
-1
 48
1.0
  6
BYLAYER
100
AcDbLine
 10
370.0
 20
-170.0
 30
0.0
 11
339.0
 21
-170.0
 31
0.0
  0
LINE
  5
37C
100
AcDbEntity
  8
engrave
 62
256
370
-1
 48
1.0
  6
BYLAYER
100
AcDbLine
 10
305.0
 20
-180.0
 30
0.0
 11
375.0
 21
-180.0
 31
0.0
  0
CIRCLE
  5
37D
100
AcDbEntity
  8
0
 62
256
370
-1
 48
1.0
  6
BYLAYER
100
AcDbCircle
 10
312.0
 20
-163.5000000000000568
 30
0.0
 40
3.0
  0
CIRCLE
  5
37E
100
AcDbEntity
  8
0
 62
256
370
-1
 48
1.0
  6
BYLAYER
100
AcDbCircle
 10
368.0
 20
-163.5000000000000568
 30
0.0
 40
3.0
  0
CIRCLE
  5
37F
100
AcDbEntity
  8
0
 62
256
370
-1
 48
1.0
  6
BYLAYER
100
AcDbCircle
 10
368.0
 20
-196.5000000000000568
 30
0.0
 40
3.0
  0
CIRCLE
  5
380
100
AcDbEntity
  8
0
 62
256
370
-1
 48
1.0
  6
BYLAYER
100
AcDbCircle
 10
312.0
 20
-196.5000000000000568
 30
0.0
 40
3.0
  0
LINE
  5
381
100
AcDbEntity
  8
engrave
 62
256
370
-1
 48
1.0
  6
BYLAYER
100
AcDbLine
 10
310.0
 20
-170.0
 30
0.0
 11
320.0
 21
-170.0
 31
0.0
  0
LINE
  5
382
100
AcDbEntity
  8
engrave
 62
256
370
-1
 48
1.0
  6
BYLAYER
100
AcDbLine
 10
375.0
 20
-174.0
 30
0.0
 11
372.0
 21
-174.0
 31
0.0
  0
LINE
  5
383
100
AcDbEntity
  8
engrave
 62
256
370
-1
 48
1.0
  6
BYLAYER
100
AcDbLine
 10
372.0
 20
-174.0
 30
0.0
 11
372.0
 21
-172.0
 31
0.0
  0
LINE
  5
384
100
AcDbEntity
  8
engrave
 62
256
370
-1
 48
1.0
  6
BYLAYER
100
AcDbLine
 10
372.0
 20
-172.0
 30
0.0
 11
374.0
 21
-172.0
 31
0.0
  0
LINE
  5
385
100
AcDbEntity
  8
engrave
 62
256
370
-1
 48
1.0
  6
BYLAYER
100
AcDbLine
 10
374.0
 20
-172.0
 30
0.0
 11
374.0
 21
-174.0
 31
0.0
  0
LINE
  5
386
100
AcDbEntity
  8
engrave
 62
256
370
-1
 48
1.0
  6
BYLAYER
100
AcDbLine
 10
372.0
 20
-171.0
 30
0.0
 11
374.0
 21
-171.0
 31
0.0
  0
LINE
  5
387
100
AcDbEntity
  8
engrave
 62
256
370
-1
 48
1.0
  6
BYLAYER
100
AcDbLine
 10
374.0
 20
-171.0
 30
0.0
 11
375.0
 21
-170.0
 31
0.0
  0
LINE
  5
388
100
AcDbEntity
  8
engrave
 62
256
370
-1
 48
1.0
  6
BYLAYER
100
AcDbLine
 10
375.0
 20
-170.0
 30
0.0
 11
372.0
 21
-170.0
 31
0.0
  0
LINE
  5
389
100
AcDbEntity
  8
engrave
 62
256
370
-1
 48
1.0
  6
BYLAYER
100
AcDbLine
 10
374.0
 20
-170.0
 30
0.0
 11
375.0
 21
-169.0
 31
0.0
  0
LINE
  5
38A
100
AcDbEntity
  8
engrave
 62
256
370
-1
 48
1.0
  6
BYLAYER
100
AcDbLine
 10
375.0
 20
-169.0
 30
0.0
 11
372.0
 21
-169.0
 31
0.0
  0
LINE
  5
38B
100
AcDbEntity
  8
engrave
 62
256
370
-1
 48
1.0
  6
BYLAYER
100
AcDbLine
 10
372.0
 20
-168.0
 30
0.0
 11
375.0
 21
-168.0
 31
0.0
  0
LINE
  5
38C
100
AcDbEntity
  8
engrave
 62
256
370
-1
 48
1.0
  6
BYLAYER
100
AcDbLine
 10
372.0
 20
-168.0
 30
0.0
 11
372.0
 21
-166.0
 31
0.0
  0
LINE
  5
38D
100
AcDbEntity
  8
engrave
 62
256
370
-1
 48
1.0
  6
BYLAYER
100
AcDbLine
 10
372.0
 20
-166.0
 30
0.0
 11
374.0
 21
-166.0
 31
0.0
  0
LINE
  5
38E
100
AcDbEntity
  8
engrave
 62
256
370
-1
 48
1.0
  6
BYLAYER
100
AcDbLine
 10
374.0
 20
-166.0
 30
0.0
 11
374.0
 21
-168.0
 31
0.0
  0
LINE
  5
38F
100
AcDbEntity
  8
engrave
 62
256
370
-1
 48
1.0
  6
BYLAYER
100
AcDbLine
 10
374.0
 20
-167.0
 30
0.0
 11
375.0
 21
-166.0
 31
0.0
  0
LINE
  5
390
100
AcDbEntity
  8
engrave
 62
256
370
-1
 48
1.0
  6
BYLAYER
100
AcDbLine
 10
377.0
 20
-168.0000000000000568
 30
0.0
 11
377.0
 21
-166.0000000000000568
 31
0.0
  0
LINE
  5
391
100
AcDbEntity
  8
engrave
 62
256
370
-1
 48
1.0
  6
BYLAYER
100
AcDbLine
 10
377.0
 20
-184.0000000000000568
 30
0.0
 11
377.0
 21
-182.0000000000000568
 31
0.0
  0
LINE
  5
392
100
AcDbEntity
  8
engrave
 62
256
370
-1
 48
1.0
  6
BYLAYER
100
AcDbLine
 10
377.0
 20
-187.0000000000000568
 30
0.0
 11
377.0
 21
-185.0000000000000568
 31
0.0
  0
LINE
  5
393
100
AcDbEntity
  8
engrave
 62
256
370
-1
 48
1.0
  6
BYLAYER
100
AcDbLine
 10
377.0
 20
-193.0000000000000568
 30
0.0
 11
377.0
 21
-191.0000000000000568
 31
0.0
  0
LINE
  5
394
100
AcDbEntity
  8
engrave
 62
256
370
-1
 48
1.0
  6
BYLAYER
100
AcDbLine
 10
377.0
 20
-196.0000000000000568
 30
0.0
 11
377.0
 21
-194.0000000000000568
 31
0.0
  0
LINE
  5
395
100
AcDbEntity
  8
engrave
 62
256
370
-1
 48
1.0
  6
BYLAYER
100
AcDbLine
 10
303.0
 20
-165.9999999999999432
 30
0.0
 11
303.0
 21
-167.9999999999999432
 31
0.0
  0
LINE
  5
396
100
AcDbEntity
  8
engrave
 62
256
370
-1
 48
1.0
  6
BYLAYER
100
AcDbLine
 10
303.0
 20
-162.9999999999999432
 30
0.0
 11
303.0
 21
-164.9999999999999432
 31
0.0
  0
LINE
  5
397
100
AcDbEntity
  8
engrave
 62
256
370
-1
 48
1.0
  6
BYLAYER
100
AcDbLine
 10
376.3999999999999773
 20
-167.0000000000000568
 30
0.0
 11
377.6000000000000227
 21
-167.0000000000000568
 31
0.0
  0
LINE
  5
398
100
AcDbEntity
  8
engrave
 62
256
370
-1
 48
1.0
  6
BYLAYER
100
AcDbLine
 10
376.3999999999999773
 20
-183.0000000000000568
 30
0.0
 11
377.6000000000000227
 21
-183.0000000000000568
 31
0.0
  0
LINE
  5
399
100
AcDbEntity
  8
engrave
 62
256
370
-1
 48
1.0
  6
BYLAYER
100
AcDbLine
 10
376.3999999999999773
 20
-192.0000000000000568
 30
0.0
 11
377.6000000000000227
 21
-192.0000000000000568
 31
0.0
  0
LINE
  5
39A
100
AcDbEntity
  8
engrave
 62
256
370
-1
 48
1.0
  6
BYLAYER
100
AcDbLine
 10
303.6000000000000227
 20
-166.9999999999999432
 30
0.0
 11
302.3999999999999773
 21
-166.9999999999999432
 31
0.0
  0
LINE
  5
39B
100
AcDbEntity
  8
engrave
 62
256
370
-1
 48
1.0
  6
BYLAYER
100
AcDbLine
 10
377.0
 20
-174.0
 30
0.0
 11
377.0
 21
-172.0
 31
0.0
  0
LINE
  5
39C
100
AcDbEntity
  8
engrave
 62
256
370
-1
 48
1.0
  6
BYLAYER
100
AcDbLine
 10
376.0
 20
-169.0000000000000568
 30
0.0
 11
376.0
 21
-171.0000000000000568
 31
0.0
  0
LINE
  5
39D
100
AcDbEntity
  8
engrave
 62
256
370
-1
 48
1.0
  6
BYLAYER
100
AcDbLine
 10
376.0
 20
-171.0000000000000568
 30
0.0
 11
378.0
 21
-171.0000000000000568
 31
0.0
  0
LINE
  5
39E
100
AcDbEntity
  8
engrave
 62
256
370
-1
 48
1.0
  6
BYLAYER
100
AcDbLine
 10
378.0
 20
-171.0000000000000568
 30
0.0
 11
378.0
 21
-169.0000000000000568
 31
0.0
  0
LINE
  5
39F
100
AcDbEntity
  8
engrave
 62
256
370
-1
 48
1.0
  6
BYLAYER
100
AcDbLine
 10
378.0
 20
-169.0000000000000568
 30
0.0
 11
377.0
 21
-169.0000000000000568
 31
0.0
  0
LINE
  5
3A0
100
AcDbEntity
  8
engrave
 62
256
370
-1
 48
1.0
  6
BYLAYER
100
AcDbLine
 10
377.0
 20
-169.0000000000000568
 30
0.0
 11
377.0
 21
-170.0000000000000568
 31
0.0
  0
LINE
  5
3A1
100
AcDbEntity
  8
engrave
 62
256
370
-1
 48
1.0
  6
BYLAYER
100
AcDbLine
 10
373.0
 20
-187.0
 30
0.0
 11
375.0
 21
-187.0
 31
0.0
  0
LINE
  5
3A2
100
AcDbEntity
  8
engrave
 62
256
370
-1
 48
1.0
  6
BYLAYER
100
AcDbLine
 10
375.0
 20
-187.0
 30
0.0
 11
375.0
 21
-185.0
 31
0.0
  0
LINE
  5
3A3
100
AcDbEntity
  8
engrave
 62
256
370
-1
 48
1.0
  6
BYLAYER
100
AcDbLine
 10
305.0
 20
-163.0
 30
0.0
 11
305.0
 21
-165.0
 31
0.0
  0
LINE
  5
3A4
100
AcDbEntity
  8
engrave
 62
256
370
-1
 48
1.0
  6
BYLAYER
100
AcDbLine
 10
375.0
 20
-185.0
 30
0.0
 11
373.0
 21
-185.0
 31
0.0
  0
LINE
  5
3A5
100
AcDbEntity
  8
engrave
 62
256
370
-1
 48
1.0
  6
BYLAYER
100
AcDbLine
 10
373.0
 20
-185.0
 30
0.0
 11
373.0
 21
-187.0
 31
0.0
  0
LINE
  5
3A6
100
AcDbEntity
  8
engrave
 62
256
370
-1
 48
1.0
  6
BYLAYER
100
AcDbLine
 10
307.0
 20
-165.0
 30
0.0
 11
307.0
 21
-163.0
 31
0.0
  0
LINE
  5
3A7
100
AcDbEntity
  8
engrave
 62
256
370
-1
 48
1.0
  6
BYLAYER
100
AcDbLine
 10
374.0
 20
-184.0000000000000568
 30
0.0
 11
373.0
 21
-183.0000000000000568
 31
0.0
  0
LINE
  5
3A8
100
AcDbEntity
  8
engrave
 62
256
370
-1
 48
1.0
  6
BYLAYER
100
AcDbLine
 10
306.0
 20
-165.9999999999999432
 30
0.0
 11
307.0
 21
-166.9999999999999432
 31
0.0
  0
LINE
  5
3A9
100
AcDbEntity
  8
engrave
 62
256
370
-1
 48
1.0
  6
BYLAYER
100
AcDbLine
 10
373.0
 20
-183.0000000000000568
 30
0.0
 11
375.0
 21
-183.0000000000000568
 31
0.0
  0
LINE
  5
3AA
100
AcDbEntity
  8
engrave
 62
256
370
-1
 48
1.0
  6
BYLAYER
100
AcDbLine
 10
307.0
 20
-166.9999999999999432
 30
0.0
 11
305.0
 21
-166.9999999999999432
 31
0.0
  0
LINE
  5
3AB
100
AcDbEntity
  8
engrave
 62
256
370
-1
 48
1.0
  6
BYLAYER
100
AcDbLine
 10
375.0
 20
-184.0000000000000568
 30
0.0
 11
375.0
 21
-182.0000000000000568
 31
0.0
  0
LINE
  5
3AC
100
AcDbEntity
  8
engrave
 62
256
370
-1
 48
1.0
  6
BYLAYER
100
AcDbLine
 10
305.0
 20
-165.9999999999999432
 30
0.0
 11
305.0
 21
-167.9999999999999432
 31
0.0
  0
LINE
  5
3AD
100
AcDbEntity
  8
engrave
 62
256
370
-1
 48
1.0
  6
BYLAYER
100
AcDbLine
 10
373.0
 20
-196.0000000000000568
 30
0.0
 11
375.0
 21
-196.0000000000000568
 31
0.0
  0
LINE
  5
3AE
100
AcDbEntity
  8
engrave
 62
256
370
-1
 48
1.0
  6
BYLAYER
100
AcDbLine
 10
375.0
 20
-196.0000000000000568
 30
0.0
 11
375.0
 21
-194.0000000000000568
 31
0.0
  0
LINE
  5
3AF
100
AcDbEntity
  8
engrave
 62
256
370
-1
 48
1.0
  6
BYLAYER
100
AcDbLine
 10
375.0
 20
-194.0000000000000568
 30
0.0
 11
373.0
 21
-194.0000000000000568
 31
0.0
  0
LINE
  5
3B0
100
AcDbEntity
  8
engrave
 62
256
370
-1
 48
1.0
  6
BYLAYER
100
AcDbLine
 10
373.0
 20
-194.0000000000000568
 30
0.0
 11
373.0
 21
-196.0000000000000568
 31
0.0
  0
LINE
  5
3B1
100
AcDbEntity
  8
engrave
 62
256
370
-1
 48
1.0
  6
BYLAYER
100
AcDbLine
 10
373.0
 20
-193.0000000000000568
 30
0.0
 11
373.0
 21
-191.0000000000000568
 31
0.0
  0
LINE
  5
3B2
100
AcDbEntity
  8
engrave
 62
256
370
-1
 48
1.0
  6
BYLAYER
100
AcDbLine
 10
373.0
 20
-191.0000000000000568
 30
0.0
 11
374.0
 21
-191.0000000000000568
 31
0.0
  0
LINE
  5
3B3
100
AcDbEntity
  8
engrave
 62
256
370
-1
 48
1.0
  6
BYLAYER
100
AcDbLine
 10
374.0
 20
-191.0000000000000568
 30
0.0
 11
374.0
 21
-192.0000000000000568
 31
0.0
  0
LINE
  5
3B4
100
AcDbEntity
  8
engrave
 62
256
370
-1
 48
1.0
  6
BYLAYER
100
AcDbLine
 10
374.0
 20
-192.0000000000000568
 30
0.0
 11
374.5
 21
-193.0000000000000568
 31
0.0
  0
LINE
  5
3B5
100
AcDbEntity
  8
engrave
 62
256
370
-1
 48
1.0
  6
BYLAYER
100
AcDbLine
 10
375.0
 20
-193.0000000000000568
 30
0.0
 11
375.0
 21
-191.1000000000000227
 31
0.0
  0
LINE
  5
3B6
100
AcDbEntity
  8
engrave
 62
256
370
-1
 48
1.0
  6
BYLAYER
100
AcDbLine
 10
373.5
 20
-193.0000000000000568
 30
0.0
 11
373.0
 21
-193.0000000000000568
 31
0.0
  0
LINE
  5
3B7
100
AcDbEntity
  8
engrave
 62
256
370
-1
 48
1.0
  6
BYLAYER
100
AcDbLine
 10
374.5
 20
-193.0000000000000568
 30
0.0
 11
375.0
 21
-193.0000000000000568
 31
0.0
  0
LINE
  5
3B8
100
AcDbEntity
  8
engrave
 62
256
370
-1
 48
1.0
  6
BYLAYER
100
AcDbLine
 10
305.0
 20
-164.0
 30
0.0
 11
307.0
 21
-164.0
 31
0.0
  0
LINE
  5
3B9
100
AcDbEntity
  8
engrave
 62
256
370
-1
 48
1.0
  6
BYLAYER
100
AcDbLine
 10
367.0
 20
-190.0
 30
0.0
 11
370.0
 21
-190.0
 31
0.0
  0
LINE
  5
3BA
100
AcDbEntity
  8
cut
 62
256
370
-1
 48
1.0
  6
BYLAYER
100
AcDbLine
 10
306.0
 20
-43.5000000000001066
 30
0.0
 11
299.0
 21
-43.5000000000001137
 31
0.0
  0
LINE
  5
3BB
100
AcDbEntity
  8
cut
 62
256
370
-1
 48
1.0
  6
BYLAYER
100
AcDbLine
 10
306.0
 20
-37.2000000000001094
 30
0.0
 11
306.0
 21
-44.5000000000001066
 31
0.0
  0
LINE
  5
3BC
100
AcDbEntity
  8
cut
 62
256
370
-1
 48
1.0
  6
BYLAYER
100
AcDbLine
 10
306.0
 20
-38.2000000000001094
 30
0.0
 11
299.0
 21
-38.2000000000001094
 31
0.0
  0
LINE
  5
3BD
100
AcDbEntity
  8
engrave
 62
256
370
-1
 48
1.0
  6
BYLAYER
100
AcDbLine
 10
359.5
 20
-191.5000000000000284
 30
0.0
 11
360.5
 21
-191.5000000000000284
 31
0.0
  0
ARC
  5
3BE
100
AcDbEntity
  8
engrave
 62
256
370
-1
 48
1.0
  6
BYLAYER
100
AcDbCircle
 10
360.5
 20
-191.0000000000000284
 30
0.0
 40
0.5
100
AcDbArc
 50
270.0
 51
0.0
  0
ARC
  5
3BF
100
AcDbEntity
  8
engrave
 62
256
370
-1
 48
1.0
  6
BYLAYER
100
AcDbCircle
 10
360.5
 20
-190.5000000000000284
 30
0.0
 40
0.5
100
AcDbArc
 50
0.0
 51
90.0
  0
LINE
  5
3C0
100
AcDbEntity
  8
engrave
 62
256
370
-1
 48
1.0
  6
BYLAYER
100
AcDbLine
 10
360.9999999999999432
 20
-189.5000000000000284
 30
0.0
 11
360.9999999999999432
 21
-189.0000000000000284
 31
0.0
  0
ARC
  5
3C1
100
AcDbEntity
  8
engrave
 62
256
370
-1
 48
1.0
  6
BYLAYER
100
AcDbCircle
 10
360.4999999999999432
 20
-189.0000000000000284
 30
0.0
 40
0.5
100
AcDbArc
 50
0.0
 51
90.0
  0
ARC
  5
3C2
100
AcDbEntity
  8
engrave
 62
256
370
-1
 48
1.0
  6
BYLAYER
100
AcDbCircle
 10
360.4999999999999432
 20
-189.5000000000000284
 30
0.0
 40
0.5
100
AcDbArc
 50
270.0
 51
0.0
  0
LINE
  5
3C3
100
AcDbEntity
  8
cut
 62
256
370
-1
 48
1.0
  6
BYLAYER
100
AcDbLine
 10
306.0
 20
-43.5000000000001066
 30
0.0
 11
306.0
 21
-44.5000000000000995
 31
0.0
  0
LINE
  5
3C4
100
AcDbEntity
  8
cut
 62
256
370
-1
 48
1.0
  6
BYLAYER
100
AcDbLine
 10
306.0
 20
-38.2000000000001094
 30
0.0
 11
306.0
 21
-37.2000000000001094
 31
0.0
  0
CIRCLE
  5
3C5
100
AcDbEntity
  8
0
 62
256
370
-1
 48
1.0
  6
BYLAYER
100
AcDbCircle
 10
340.0
 20
20.0
 30
0.0
 40
2.0
  0
ENDSEC
  0
SECTION
  2
OBJECTS
  0
DICTIONARY
  5
C
100
AcDbDictionary
280
0
281
1
  3
ACAD_GROUP
350
D
  3
ACAD_LAYOUT
350
1A
  3
ACAD_MLINESTYLE
350
17
  3
ACAD_PLOTSETTINGS
350
19
  3
ACAD_PLOTSTYLENAME
350
E
  3
AcDbVariableDictionary
350
3C6
  3
QCAD_OBJECTS
350
3C7
  0
DICTIONARY
  5
D
100
AcDbDictionary
280
0
281
1
  0
ACDBDICTIONARYWDFLT
  5
E
100
AcDbDictionary
281
1
  3
Normal
350
F
100
AcDbDictionaryWithDefault
340
F
  0
ACDBPLACEHOLDER
  5
F
  0
DICTIONARY
  5
17
100
AcDbDictionary
280
0
281
1
  3
Standard
350
18
  0
MLINESTYLE
  5
18
100
AcDbMlineStyle
  2
STANDARD
 70
0
  3

 62
256
 51
90.0
 52
90.0
 71
2
 49
0.5
 62
256
  6
BYLAYER
 49
-0.5
 62
256
  6
BYLAYER
  0
DICTIONARY
  5
19
100
AcDbDictionary
280
0
281
1
  0
DICTIONARY
  5
1A
100
AcDbDictionary
281
1
  3
Layout1
350
1E
  3
Layout2
350
26
  3
Model
350
22
  0
LAYOUT
  5
1E
100
AcDbPlotSettings
  1

  2
none_device
  4

  6

 40
0.0
 41
0.0
 42
0.0
 43
0.0
 44
0.0
 45
0.0
 46
0.0
 47
0.0
 48
0.0
 49
0.0
140
0.0
141
0.0
142
1.0
143
1.0
 70
688
 72
0
 73
0
 74
5
  7

 75
16
147
1.0
148
0.0
149
0.0
100
AcDbLayout
  1
Layout1
 70
1
 71
1
 10
0.0
 20
0.0
 11
420.0
 21
297.0
 12
0.0
 22
0.0
 32
0.0
 14
100000000000000000000.0
 24
100000000000000000000.0
 34
100000000000000000000.0
 15
-100000000000000000000.0
 25
-100000000000000000000.0
 35
-100000000000000000000.0
146
0.0
 13
0.0
 23
0.0
 33
0.0
 16
1.0
 26
0.0
 36
0.0
 17
0.0
 27
1.0
 37
0.0
 76
0
330
1B
  0
LAYOUT
  5
22
100
AcDbPlotSettings
  1

  2
none_device
  4

  6

 40
0.0
 41
0.0
 42
0.0
 43
0.0
 44
0.0
 45
0.0
 46
0.0
 47
0.0
 48
0.0
 49
0.0
140
0.0
141
0.0
142
1.0
143
1.0
 70
1712
 72
0
 73
0
 74
0
  7

 75
0
147
1.0
148
0.0
149
0.0
100
AcDbLayout
  1
Model
 70
1
 71
0
 10
0.0
 20
0.0
 11
12.0
 21
9.0
 12
0.0
 22
0.0
 32
0.0
 14
0.0
 24
0.0
 34
0.0
 15
0.0
 25
0.0
 35
0.0
146
0.0
 13
0.0
 23
0.0
 33
0.0
 16
1.0
 26
0.0
 36
0.0
 17
0.0
 27
1.0
 37
0.0
 76
0
330
1F
  0
LAYOUT
  5
26
100
AcDbPlotSettings
  1

  2
none_device
  4

  6

 40
0.0
 41
0.0
 42
0.0
 43
0.0
 44
0.0
 45
0.0
 46
0.0
 47
0.0
 48
0.0
 49
0.0
140
0.0
141
0.0
142
1.0
143
1.0
 70
688
 72
0
 73
0
 74
5
  7

 75
16
147
1.0
148
0.0
149
0.0
100
AcDbLayout
  1
Layout2
 70
1
 71
2
 10
0.0
 20
0.0
 11
12.0
 21
9.0
 12
0.0
 22
0.0
 32
0.0
 14
0.0
 24
0.0
 34
0.0
 15
0.0
 25
0.0
 35
0.0
146
0.0
 13
0.0
 23
0.0
 33
0.0
 16
1.0
 26
0.0
 36
0.0
 17
0.0
 27
1.0
 37
0.0
 76
0
330
23
  0
DICTIONARY
  5
3C6
100
AcDbDictionary
281
1
  3
DIMASSOC
350
3C9
  3
HIDETEXT
350
3C8
  0
DICTIONARYVAR
  5
3C8
100
DictionaryVariables
280
0
  1
2
  0
DICTIONARYVAR
  5
3C9
100
DictionaryVariables
280
0
  1
1
  0
DICTIONARY
  5
3C7
100
AcDbDictionary
281
1
  3
ColorSettings/BackgroundColor
350
3CA
  3
ColorSettings/ColorMode
350
3CB
  3
Grid/DisplayGrid00
350
3CC
  3
Grid/DisplayGrid01
350
3CD
  3
Grid/DisplayGrid02
350
3CE
  3
Grid/DisplayGrid03
350
3CF
  3
Grid/GridSpacingX00
350
3D0
  3
Grid/GridSpacingX01
350
3D1
  3
Grid/GridSpacingX02
350
3D2
  3
Grid/GridSpacingX03
350
3D3
  3
Grid/GridSpacingY00
350
3D4
  3
Grid/GridSpacingY01
350
3D5
  3
Grid/GridSpacingY02
350
3D6
  3
Grid/GridSpacingY03
350
3D7
  3
Grid/IsometricGrid00
350
3D8
  3
Grid/IsometricGrid01
350
3D9
  3
Grid/IsometricGrid02
350
3DA
  3
Grid/IsometricGrid03
350
3DB
  3
Grid/IsometricProjection00
350
3DC
  3
Grid/IsometricProjection01
350
3DD
  3
Grid/IsometricProjection02
350
3DE
  3
Grid/IsometricProjection03
350
3DF
  3
Grid/MetaGridSpacingX00
350
3E0
  3
Grid/MetaGridSpacingX01
350
3E1
  3
Grid/MetaGridSpacingX02
350
3E2
  3
Grid/MetaGridSpacingX03
350
3E3
  3
Grid/MetaGridSpacingY00
350
3E4
  3
Grid/MetaGridSpacingY01
350
3E5
  3
Grid/MetaGridSpacingY02
350
3E6
  3
Grid/MetaGridSpacingY03
350
3E7
  3
MultiPageSettings/Columns
350
3E8
  3
MultiPageSettings/GlueMarginsBottom
350
3E9
  3
MultiPageSettings/GlueMarginsLeft
350
3EA
  3
MultiPageSettings/GlueMarginsRight
350
3EB
  3
MultiPageSettings/GlueMarginsTop
350
3EC
  3
MultiPageSettings/PrintCropMarks
350
3ED
  3
MultiPageSettings/Rows
350
3EE
  3
PageSettings/OffsetX
350
3EF
  3
PageSettings/OffsetY
350
3F0
  3
PageSettings/PageOrientation
350
3F1
  3
PageSettings/PaperHeight
350
3F2
  3
PageSettings/PaperWidth
350
3F3
  3
PageSettings/Scale
350
3F4
  3
PageSettings/ShowPaperBorders
350
3F5
  3
PageTagSettings/EnablePageTags
350
3F6
  3
PageTagSettings/TagAlignment
350
3F7
  3
PageTagSettings/TagFont
350
3F8
  3
PageTagSettings/TagPosition
350
3F9
  3
QCADVersion
350
3FA
  3
UnitSettings/PaperUnit
350
3FB
  3
ViewportCenter
350
3FC
  3
ViewportHeight
350
3FD
  3
ViewportWidth
350
3FE
  0
XRECORD
  5
3CA
330
3C7
100
AcDbXrecord
280
1
1000
White
  0
XRECORD
  5
3CB
330
3C7
100
AcDbXrecord
280
1
1000
FullColor
  0
XRECORD
  5
3CC
330
3C7
100
AcDbXrecord
280
1
290
1
  0
XRECORD
  5
3CD
330
3C7
100
AcDbXrecord
280
1
290
1
  0
XRECORD
  5
3CE
330
3C7
100
AcDbXrecord
280
1
290
1
  0
XRECORD
  5
3CF
330
3C7
100
AcDbXrecord
280
1
290
1
  0
XRECORD
  5
3D0
330
3C7
100
AcDbXrecord
280
1
1000
auto
  0
XRECORD
  5
3D1
330
3C7
100
AcDbXrecord
280
1
1000
auto
  0
XRECORD
  5
3D2
330
3C7
100
AcDbXrecord
280
1
1000
auto
  0
XRECORD
  5
3D3
330
3C7
100
AcDbXrecord
280
1
1000
auto
  0
XRECORD
  5
3D4
330
3C7
100
AcDbXrecord
280
1
1000
auto
  0
XRECORD
  5
3D5
330
3C7
100
AcDbXrecord
280
1
1000
auto
  0
XRECORD
  5
3D6
330
3C7
100
AcDbXrecord
280
1
1000
auto
  0
XRECORD
  5
3D7
330
3C7
100
AcDbXrecord
280
1
1000
auto
  0
XRECORD
  5
3D8
330
3C7
100
AcDbXrecord
280
1
290
0
  0
XRECORD
  5
3D9
330
3C7
100
AcDbXrecord
280
1
290
0
  0
XRECORD
  5
3DA
330
3C7
100
AcDbXrecord
280
1
290
0
  0
XRECORD
  5
3DB
330
3C7
100
AcDbXrecord
280
1
290
0
  0
XRECORD
  5
3DC
330
3C7
100
AcDbXrecord
280
1
 90
65537
  0
XRECORD
  5
3DD
330
3C7
100
AcDbXrecord
280
1
 90
65537
  0
XRECORD
  5
3DE
330
3C7
100
AcDbXrecord
280
1
 90
65537
  0
XRECORD
  5
3DF
330
3C7
100
AcDbXrecord
280
1
 90
65537
  0
XRECORD
  5
3E0
330
3C7
100
AcDbXrecord
280
1
1000
auto
  0
XRECORD
  5
3E1
330
3C7
100
AcDbXrecord
280
1
1000
auto
  0
XRECORD
  5
3E2
330
3C7
100
AcDbXrecord
280
1
1000
auto
  0
XRECORD
  5
3E3
330
3C7
100
AcDbXrecord
280
1
1000
auto
  0
XRECORD
  5
3E4
330
3C7
100
AcDbXrecord
280
1
1000
auto
  0
XRECORD
  5
3E5
330
3C7
100
AcDbXrecord
280
1
1000
auto
  0
XRECORD
  5
3E6
330
3C7
100
AcDbXrecord
280
1
1000
auto
  0
XRECORD
  5
3E7
330
3C7
100
AcDbXrecord
280
1
1000
auto
  0
XRECORD
  5
3E8
330
3C7
100
AcDbXrecord
280
1
 90
1
  0
XRECORD
  5
3E9
330
3C7
100
AcDbXrecord
280
1
 40
10.0
  0
XRECORD
  5
3EA
330
3C7
100
AcDbXrecord
280
1
 40
10.0
  0
XRECORD
  5
3EB
330
3C7
100
AcDbXrecord
280
1
 40
10.0
  0
XRECORD
  5
3EC
330
3C7
100
AcDbXrecord
280
1
 40
10.0
  0
XRECORD
  5
3ED
330
3C7
100
AcDbXrecord
280
1
290
0
  0
XRECORD
  5
3EE
330
3C7
100
AcDbXrecord
280
1
 90
1
  0
XRECORD
  5
3EF
330
3C7
100
AcDbXrecord
280
1
 40
0.0
  0
XRECORD
  5
3F0
330
3C7
100
AcDbXrecord
280
1
 40
0.0
  0
XRECORD
  5
3F1
330
3C7
100
AcDbXrecord
280
1
1000
Portrait
  0
XRECORD
  5
3F2
330
3C7
100
AcDbXrecord
280
1
 40
297.0
  0
XRECORD
  5
3F3
330
3C7
100
AcDbXrecord
280
1
 40
210.0
  0
XRECORD
  5
3F4
330
3C7
100
AcDbXrecord
280
1
1000
1:1
  0
XRECORD
  5
3F5
330
3C7
100
AcDbXrecord
280
1
290
1
  0
XRECORD
  5
3F6
330
3C7
100
AcDbXrecord
280
1
290
0
  0
XRECORD
  5
3F7
330
3C7
100
AcDbXrecord
280
1
1000
Inside
  0
XRECORD
  5
3F8
330
3C7
100
AcDbXrecord
280
1
1000
Arial,10,-1,5,50,0,0,0,0,0
  0
XRECORD
  5
3F9
330
3C7
100
AcDbXrecord
280
1
1000
TopLeft
  0
XRECORD
  5
3FA
330
3C7
100
AcDbXrecord
280
1
1000
3.32.3
  0
XRECORD
  5
3FB
330
3C7
100
AcDbXrecord
280
1
 90
4
  0
XRECORD
  5
3FD
330
3C7
100
AcDbXrecord
280
1
 40
60.0883341004683729
  0
XRECORD
  5
3FE
330
3C7
100
AcDbXrecord
280
1
 40
113.5435404106252975
  0
ENDSEC
  0
EOF
