999
dxflib 3.26.4.0
  0
SECTION
  2
HEADER
  9
$ACADVER
  1
AC1015
  9
$HANDSEED
  5
FFFF
  9
$DIMADEC
 70
0
  9
$DIMASZ
 40
2.5
  9
$DIMATFIT
 70
0
  9
$DIMAUNIT
 70
0
  9
$DIMAZIN
 70
2
  9
$DIMBLK
  1
0
  9
$DIMBLK1
  1
0
  9
$DIMBLK2
  1
0
  9
$DIMDEC
 70
4
  9
$DIMDLI
 40
5.0
  9
$DIMDSEP
 70
46
  9
$DIMEXE
 40
1.25
  9
$DIMEXO
 40
0.625
  9
$DIMGAP
 40
0.625
  9
$DIMLFAC
 40
1.0
  9
$DIMLUNIT
 70
2
  9
$DIMSCALE
 40
1.0
  9
$DIMTAD
 70
1
  9
$DIMTIH
 70
0
  9
$DIMTSZ
 40
0.0
  9
$DIMTXT
 40
2.5
  9
$DIMZIN
 70
8
  9
$DWGCODEPAGE
  3
ANSI_1252
  9
$INSUNITS
 70
4
  9
$LTSCALE
 40
1.0
  9
$MAXACTVP
 70
64
  9
$MEASUREMENT
 70
1
  9
$MIRRTEXT
 70
0
  9
$PDMODE
 70
0
  9
$PDSIZE
 40
0.0
  0
ENDSEC
  0
SECTION
  2
TABLES
  0
TABLE
  2
VPORT
  5
8
100
AcDbSymbolTable
 70
1
  0
VPORT
  5
30
100
AcDbSymbolTableRecord
100
AcDbViewportTableRecord
  2
*Active
 70
0
 10
0.0
 20
0.0
 11
1.0
 21
1.0
 12
286.3055555555554861
 22
148.5
 13
0.0
 23
0.0
 14
10.0
 24
10.0
 15
10.0
 25
10.0
 16
0.0
 26
0.0
 36
1.0
 17
0.0
 27
0.0
 37
0.0
 40
297.0
 41
1.92798353909465
 42
50.0
 43
0.0
 44
0.0
 50
0.0
 51
0.0
 71
0
 72
100
 73
1
 74
3
 75
1
 76
1
 77
0
 78
0
281
0
 65
1
110
0.0
120
0.0
130
0.0
111
1.0
121
0.0
131
0.0
112
0.0
122
1.0
132
0.0
 79
0
146
0.0
  0
ENDTAB
  0
TABLE
  2
LTYPE
  5
5
100
AcDbSymbolTable
 70
41
  0
LTYPE
  5
16
100
AcDbSymbolTableRecord
100
AcDbLinetypeTableRecord
  2
Continuous
 70
0
  3
Solid line
 72
65
 73
0
 40
0.0
  0
LTYPE
  5
31
100
AcDbSymbolTableRecord
100
AcDbLinetypeTableRecord
  2
ACAD_ISO03W100
 70
0
  3
ISO dash space __    __    __    __    __    __
 72
65
 73
2
 40
30.0
 49
12.0
 74
0
 49
-18.0
 74
0
  0
LTYPE
  5
32
100
AcDbSymbolTableRecord
100
AcDbLinetypeTableRecord
  2
CENTER
 70
0
  3
Center ____ _ ____ _ ____ _ ____ _ ____ _ ____
 72
65
 73
4
 40
50.8000000000000043
 49
31.75
 74
0
 49
-6.3499999999999996
 74
0
 49
6.3499999999999996
 74
0
 49
-6.3499999999999996
 74
0
  0
LTYPE
  5
33
100
AcDbSymbolTableRecord
100
AcDbLinetypeTableRecord
  2
DOTX2
 70
0
  3
Dot (2x) .  .  .  .  .  .  .  .  .  .  .  .  .  .
 72
65
 73
2
 40
12.6999999999999993
 49
0.1
 74
0
 49
-12.5999999999999996
 74
0
  0
LTYPE
  5
34
100
AcDbSymbolTableRecord
100
AcDbLinetypeTableRecord
  2
ACAD_ISO10W100
 70
0
  3
ISO dash dot __ . __ . __ . __ . __ . __ . __ . 
 72
65
 73
4
 40
18.0
 49
12.0
 74
0
 49
-2.9500000000000002
 74
0
 49
0.1
 74
0
 49
-2.9500000000000002
 74
0
  0
LTYPE
  5
35
100
AcDbSymbolTableRecord
100
AcDbLinetypeTableRecord
  2
HIDDEN
 70
0
  3
Hidden __ __ __ __ __ __ __ __ __ __ __ __ __ __
 72
65
 73
2
 40
9.5249999999999986
 49
6.3499999999999996
 74
0
 49
-3.1749999999999998
 74
0
  0
LTYPE
  5
36
100
AcDbSymbolTableRecord
100
AcDbLinetypeTableRecord
  2
CENTERX2
 70
0
  3
Center (2x) ________  __  ________  __  _____
 72
65
 73
4
 40
101.6000000000000085
 49
63.5
 74
0
 49
-12.6999999999999993
 74
0
 49
12.6999999999999993
 74
0
 49
-12.6999999999999993
 74
0
  0
LTYPE
  5
37
100
AcDbSymbolTableRecord
100
AcDbLinetypeTableRecord
  2
ACAD_ISO12W100
 70
0
  3
ISO dash double-dot __ . . __ . . __ . . __ . . 
 72
65
 73
6
 40
21.0
 49
12.0
 74
0
 49
-2.9500000000000002
 74
0
 49
0.1
 74
0
 49
-2.9000000000000004
 74
0
 49
0.1
 74
0
 49
-2.9500000000000002
 74
0
  0
LTYPE
  5
38
100
AcDbSymbolTableRecord
100
AcDbLinetypeTableRecord
  2
ACAD_ISO04W100
 70
0
  3
ISO long-dash dot ____ . ____ . ____ . ____ . _
 72
65
 73
4
 40
30.0
 49
24.0
 74
0
 49
-2.9500000000000002
 74
0
 49
0.1
 74
0
 49
-2.9500000000000002
 74
0
  0
LTYPE
  5
39
100
AcDbSymbolTableRecord
100
AcDbLinetypeTableRecord
  2
DASHED2
 70
0
  3
Dashed (.5x) _ _ _ _ _ _ _ _ _ _ _ _ _ _ _ _ _ 
 72
65
 73
2
 40
9.5249999999999986
 49
6.3499999999999996
 74
0
 49
-3.1749999999999998
 74
0
  0
LTYPE
  5
3A
100
AcDbSymbolTableRecord
100
AcDbLinetypeTableRecord
  2
HIDDEN2
 70
0
  3
Hidden (.5x) _ _ _ _ _ _ _ _ _ _ _ _ _ _ _ _ _ 
 72
65
 73
2
 40
4.7624999999999993
 49
3.1749999999999998
 74
0
 49
-1.5874999999999999
 74
0
  0
LTYPE
  5
3B
100
AcDbSymbolTableRecord
100
AcDbLinetypeTableRecord
  2
PHANTOMX2
 70
0
  3
Phantom (2x) ____________    ____    ____   _
 72
65
 73
6
 40
127.0000000000000142
 49
63.5
 74
0
 49
-12.6999999999999993
 74
0
 49
12.6999999999999993
 74
0
 49
-12.6999999999999993
 74
0
 49
12.6999999999999993
 74
0
 49
-12.6999999999999993
 74
0
  0
LTYPE
  5
3C
100
AcDbSymbolTableRecord
100
AcDbLinetypeTableRecord
  2
DASHEDX2
 70
0
  3
Dashed (2x) ____  ____  ____  ____  ____  ___
 72
65
 73
2
 40
38.0999999999999943
 49
25.3999999999999986
 74
0
 49
-12.6999999999999993
 74
0
  0
LTYPE
  5
3D
100
AcDbSymbolTableRecord
100
AcDbLinetypeTableRecord
  2
PHANTOM2
 70
0
  3
Phantom (.5x) ___ _ _ ___ _ _ ___ _ _ ___ _ _
 72
65
 73
6
 40
31.7500000000000036
 49
15.875
 74
0
 49
-3.1749999999999998
 74
0
 49
3.1749999999999998
 74
0
 49
-3.1749999999999998
 74
0
 49
3.1749999999999998
 74
0
 49
-3.1749999999999998
 74
0
  0
LTYPE
  5
3E
100
AcDbSymbolTableRecord
100
AcDbLinetypeTableRecord
  2
PHANTOM
 70
0
  3
Phantom ______  __  __  ______  __  __  ______ 
 72
65
 73
6
 40
63.5000000000000071
 49
31.75
 74
0
 49
-6.3499999999999996
 74
0
 49
6.3499999999999996
 74
0
 49
-6.3499999999999996
 74
0
 49
6.3499999999999996
 74
0
 49
-6.3499999999999996
 74
0
  0
LTYPE
  5
3F
100
AcDbSymbolTableRecord
100
AcDbLinetypeTableRecord
  2
ACAD_ISO11W100
 70
0
  3
ISO double-dash dot __ __ . __ __ . __ __ . __ _
 72
65
 73
6
 40
33.0
 49
12.0
 74
0
 49
-3.0
 74
0
 49
12.0
 74
0
 49
-2.9500000000000002
 74
0
 49
0.1
 74
0
 49
-2.9500000000000002
 74
0
  0
LTYPE
  5
40
100
AcDbSymbolTableRecord
100
AcDbLinetypeTableRecord
  2
ACAD_ISO13W100
 70
0
  3
ISO double-dash double-dot __ __ . . __ __ . . _
 72
65
 73
8
 40
36.0000000000000071
 49
12.0
 74
0
 49
-3.0
 74
0
 49
12.0
 74
0
 49
-2.9500000000000002
 74
0
 49
0.1
 74
0
 49
-2.9000000000000004
 74
0
 49
0.1
 74
0
 49
-2.9500000000000002
 74
0
  0
LTYPE
  5
41
100
AcDbSymbolTableRecord
100
AcDbLinetypeTableRecord
  2
HIDDENX2
 70
0
  3
Hidden (2x) ____ ____ ____ ____ ____ ____ ____ 
 72
65
 73
2
 40
19.0499999999999972
 49
12.6999999999999993
 74
0
 49
-6.3499999999999996
 74
0
  0
LTYPE
  5
42
100
AcDbSymbolTableRecord
100
AcDbLinetypeTableRecord
  2
ACAD_ISO14W100
 70
0
  3
ISO dash triple-dot __ . . . __ . . . __ . . . _
 72
65
 73
8
 40
24.0000000000000036
 49
12.0
 74
0
 49
-2.9500000000000002
 74
0
 49
0.1
 74
0
 49
-2.9000000000000004
 74
0
 49
0.1
 74
0
 49
-2.9000000000000004
 74
0
 49
0.1
 74
0
 49
-2.9500000000000002
 74
0
  0
LTYPE
  5
15
100
AcDbSymbolTableRecord
100
AcDbLinetypeTableRecord
  2
BYLAYER
 70
0
  3

 72
65
 73
0
 40
0.0
  0
LTYPE
  5
43
100
AcDbSymbolTableRecord
100
AcDbLinetypeTableRecord
  2
DOT
 70
0
  3
Dot . . . . . . . . . . . . . . . . . . . . . . . .
 72
65
 73
2
 40
6.3499999999999996
 49
0.1
 74
0
 49
-6.25
 74
0
  0
LTYPE
  5
44
100
AcDbSymbolTableRecord
100
AcDbLinetypeTableRecord
  2
DASHDOT
 70
0
  3
Dash dot __ . __ . __ . __ . __ . __ . __ . __
 72
65
 73
4
 40
25.4000000000000021
 49
12.6999999999999993
 74
0
 49
-6.2999999999999998
 74
0
 49
0.1
 74
0
 49
-6.2999999999999998
 74
0
  0
LTYPE
  5
45
100
AcDbSymbolTableRecord
100
AcDbLinetypeTableRecord
  2
DASHDOT2
 70
0
  3
Dash dot (.5x) _._._._._._._._._._._._._._._.
 72
65
 73
4
 40
12.6999999999999993
 49
6.3499999999999996
 74
0
 49
-3.125
 74
0
 49
0.1
 74
0
 49
-3.125
 74
0
  0
LTYPE
  5
46
100
AcDbSymbolTableRecord
100
AcDbLinetypeTableRecord
  2
CENTER2
 70
0
  3
Center (.5x) ___ _ ___ _ ___ _ ___ _ ___ _ ___
 72
65
 73
4
 40
28.5750000000000028
 49
19.0500000000000007
 74
0
 49
-3.1749999999999998
 74
0
 49
3.1749999999999998
 74
0
 49
-3.1749999999999998
 74
0
  0
LTYPE
  5
47
100
AcDbSymbolTableRecord
100
AcDbLinetypeTableRecord
  2
DOT2
 70
0
  3
Dot (.5x) ........................................
 72
65
 73
2
 40
3.1749999999999998
 49
0.1
 74
0
 49
-3.0749999999999997
 74
0
  0
LTYPE
  5
48
100
AcDbSymbolTableRecord
100
AcDbLinetypeTableRecord
  2
DASHDOTX2
 70
0
  3
Dash dot (2x) ____  .  ____  .  ____  .  ___
 72
65
 73
4
 40
50.7999999999999972
 49
25.3999999999999986
 74
0
 49
-12.6499999999999986
 74
0
 49
0.1
 74
0
 49
-12.6499999999999986
 74
0
  0
LTYPE
  5
49
100
AcDbSymbolTableRecord
100
AcDbLinetypeTableRecord
  2
ACAD_ISO08W100
 70
0
  3
ISO long-dash short-dash ____ __ ____ __ ____ _
 72
65
 73
4
 40
36.0
 49
24.0
 74
0
 49
-3.0
 74
0
 49
6.0
 74
0
 49
-3.0
 74
0
  0
LTYPE
  5
4A
100
AcDbSymbolTableRecord
100
AcDbLinetypeTableRecord
  2
DASHED
 70
0
  3
Dashed __ __ __ __ __ __ __ __ __ __ __ __ __ _
 72
65
 73
2
 40
19.0499999999999972
 49
12.6999999999999993
 74
0
 49
-6.3499999999999996
 74
0
  0
LTYPE
  5
4B
100
AcDbSymbolTableRecord
100
AcDbLinetypeTableRecord
  2
BORDER2
 70
0
  3
Border (.5x) __.__.__.__.__.__.__.__.__.__.__.
 72
65
 73
6
 40
22.2250000000000014
 49
6.3499999999999996
 74
0
 49
-3.1749999999999998
 74
0
 49
6.3499999999999996
 74
0
 49
-3.125
 74
0
 49
0.1
 74
0
 49
-3.125
 74
0
  0
LTYPE
  5
4C
100
AcDbSymbolTableRecord
100
AcDbLinetypeTableRecord
  2
DIVIDEX2
 70
0
  3
Divide (2x) ________  .  .  ________  .  .  _
 72
65
 73
6
 40
63.5
 49
25.3999999999999986
 74
0
 49
-12.6499999999999986
 74
0
 49
0.1
 74
0
 49
-12.5999999999999979
 74
0
 49
0.1
 74
0
 49
-12.6499999999999986
 74
0
  0
LTYPE
  5
4D
100
AcDbSymbolTableRecord
100
AcDbLinetypeTableRecord
  2
ACAD_ISO07W100
 70
0
  3
ISO dot . . . . . . . . . . . . . . . . . . . . 
 72
65
 73
2
 40
3.0
 49
0.1
 74
0
 49
-2.8999999999999999
 74
0
  0
LTYPE
  5
4E
100
AcDbSymbolTableRecord
100
AcDbLinetypeTableRecord
  2
ACAD_ISO02W100
 70
0
  3
ISO dash __ __ __ __ __ __ __ __ __ __ __ __ __
 72
65
 73
2
 40
15.0
 49
12.0
 74
0
 49
-3.0
 74
0
  0
LTYPE
  5
4F
100
AcDbSymbolTableRecord
100
AcDbLinetypeTableRecord
  2
DIVIDE
 70
0
  3
Divide ____ . . ____ . . ____ . . ____ . . ____
 72
65
 73
6
 40
31.7500000000000036
 49
12.6999999999999993
 74
0
 49
-6.2999999999999998
 74
0
 49
0.1
 74
0
 49
-6.25
 74
0
 49
0.1
 74
0
 49
-6.2999999999999998
 74
0
  0
LTYPE
  5
50
100
AcDbSymbolTableRecord
100
AcDbLinetypeTableRecord
  2
ACAD_ISO09W100
 70
0
  3
ISO long-dash double-short-dash ____ __ __ ____
 72
65
 73
6
 40
45.0
 49
24.0
 74
0
 49
-3.0
 74
0
 49
6.0
 74
0
 49
-3.0
 74
0
 49
6.0
 74
0
 49
-3.0
 74
0
  0
LTYPE
  5
51
100
AcDbSymbolTableRecord
100
AcDbLinetypeTableRecord
  2
ACAD_ISO06W100
 70
0
  3
ISO long-dash triple-dot ____ ... ____ ... ____
 72
65
 73
8
 40
36.0000000000000071
 49
24.0
 74
0
 49
-2.9500000000000002
 74
0
 49
0.1
 74
0
 49
-2.9000000000000004
 74
0
 49
0.1
 74
0
 49
-2.9000000000000004
 74
0
 49
0.1
 74
0
 49
-2.9500000000000002
 74
0
  0
LTYPE
  5
52
100
AcDbSymbolTableRecord
100
AcDbLinetypeTableRecord
  2
BORDERX2
 70
0
  3
Border (2x) ____  ____  .  ____  ____  .  ___
 72
65
 73
6
 40
88.8999999999999773
 49
25.3999999999999986
 74
0
 49
-12.6999999999999993
 74
0
 49
25.3999999999999986
 74
0
 49
-12.6499999999999986
 74
0
 49
0.1
 74
0
 49
-12.6499999999999986
 74
0
  0
LTYPE
  5
53
100
AcDbSymbolTableRecord
100
AcDbLinetypeTableRecord
  2
DIVIDE2
 70
0
  3
Divide (.5x) __..__..__..__..__..__..__..__.._
 72
65
 73
6
 40
15.8749999999999982
 49
6.3499999999999996
 74
0
 49
-3.125
 74
0
 49
0.1
 74
0
 49
-3.0750000000000002
 74
0
 49
0.1
 74
0
 49
-3.125
 74
0
  0
LTYPE
  5
14
100
AcDbSymbolTableRecord
100
AcDbLinetypeTableRecord
  2
BYBLOCK
 70
0
  3

 72
65
 73
0
 40
0.0
  0
LTYPE
  5
54
100
AcDbSymbolTableRecord
100
AcDbLinetypeTableRecord
  2
BORDER
 70
0
  3
Border __ __ . __ __ . __ __ . __ __ . __ __ .
 72
65
 73
6
 40
44.4499999999999957
 49
12.6999999999999993
 74
0
 49
-6.3499999999999996
 74
0
 49
12.6999999999999993
 74
0
 49
-6.2999999999999998
 74
0
 49
0.1
 74
0
 49
-6.2999999999999998
 74
0
  0
LTYPE
  5
55
100
AcDbSymbolTableRecord
100
AcDbLinetypeTableRecord
  2
ACAD_ISO05W100
 70
0
  3
ISO long-dash double-dot ____ .. ____ .. ____ . 
 72
65
 73
6
 40
33.0000000000000071
 49
24.0
 74
0
 49
-2.9500000000000002
 74
0
 49
0.1
 74
0
 49
-2.9000000000000004
 74
0
 49
0.1
 74
0
 49
-2.9500000000000002
 74
0
  0
LTYPE
  5
56
100
AcDbSymbolTableRecord
100
AcDbLinetypeTableRecord
  2
ACAD_ISO15W100
 70
0
  3
ISO double-dash triple-dot __ __ . . . __ __ . .
 72
65
 73
10
 40
39.0000000000000071
 49
12.0
 74
0
 49
-3.0
 74
0
 49
12.0
 74
0
 49
-2.9500000000000002
 74
0
 49
0.1
 74
0
 49
-2.9000000000000004
 74
0
 49
0.1
 74
0
 49
-2.9000000000000004
 74
0
 49
0.1
 74
0
 49
-2.9500000000000002
 74
0
  0
ENDTAB
  0
TABLE
  2
LAYER
  5
2
100
AcDbSymbolTable
 70
2
  0
LAYER
  5
10
100
AcDbSymbolTableRecord
100
AcDbLayerTableRecord
  2
0
 70
0
 62
7
420
0
  6
Continuous
370
13
390
F
  0
LAYER
  5
57
100
AcDbSymbolTableRecord
100
AcDbLayerTableRecord
  2
engrave
 70
0
 62
54
420
8421376
  6
Continuous
370
25
390
F
  0
ENDTAB
  0
TABLE
  2
STYLE
  5
3
100
AcDbSymbolTable
 70
1
  0
STYLE
  5
58
100
AcDbSymbolTableRecord
100
AcDbTextStyleTableRecord
  2
Standard
 70
0
 40
0.0
 41
1.0
 50
0.0
 71
0
 42
2.5
  3

  4

1001
ACAD
1000
txt
1071
0
  0
ENDTAB
  0
TABLE
  2
VIEW
  5
6
100
AcDbSymbolTable
 70
0
  0
ENDTAB
  0
TABLE
  2
UCS
  5
7
100
AcDbSymbolTable
 70
0
  0
ENDTAB
  0
TABLE
  2
APPID
  5
9
100
AcDbSymbolTable
 70
1
  0
APPID
  5
12
100
AcDbSymbolTableRecord
100
AcDbRegAppTableRecord
  2
ACAD
 70
0
  0
APPID
  5
59
100
AcDbSymbolTableRecord
100
AcDbRegAppTableRecord
  2
QCAD
 70
0
  0
ENDTAB
  0
TABLE
  2
DIMSTYLE
  5
A
100
AcDbSymbolTable
 70
1
100
AcDbDimStyleTable
 71
0
  0
DIMSTYLE
105
27
100
AcDbSymbolTableRecord
100
AcDbDimStyleTableRecord
  2
Standard
 41
2.5
 42
0.625
 43
3.75
 44
1.25
 70
0
 73
0
 74
0
 77
1
 78
8
140
2.5
141
2.5
143
0.03937007874016
147
0.625
171
3
172
1
271
2
272
2
274
3
278
44
283
0
284
8
340
58
  0
ENDTAB
  0
TABLE
  2
BLOCK_RECORD
  5
1
100
AcDbSymbolTable
 70
1
  0
BLOCK_RECORD
  5
1F
100
AcDbSymbolTableRecord
100
AcDbBlockTableRecord
  2
*Model_Space
340
22
  0
BLOCK_RECORD
  5
1B
100
AcDbSymbolTableRecord
100
AcDbBlockTableRecord
  2
*Paper_Space
340
1E
  0
BLOCK_RECORD
  5
23
100
AcDbSymbolTableRecord
100
AcDbBlockTableRecord
  2
*Paper_Space0
340
26
  0
BLOCK_RECORD
  5
5A
100
AcDbSymbolTableRecord
100
AcDbBlockTableRecord
  2
NJM2068a
340
0
  0
BLOCK_RECORD
  5
5B
100
AcDbSymbolTableRecord
100
AcDbBlockTableRecord
  2
conn2.56x2
340
0
  0
BLOCK_RECORD
  5
5C
100
AcDbSymbolTableRecord
100
AcDbBlockTableRecord
  2
0805
340
0
  0
BLOCK_RECORD
  5
5D
100
AcDbSymbolTableRecord
100
AcDbBlockTableRecord
  2
conn2.54x4
340
0
  0
BLOCK_RECORD
  5
5E
100
AcDbSymbolTableRecord
100
AcDbBlockTableRecord
  2
conn5x3
340
0
  0
BLOCK_RECORD
  5
5F
100
AcDbSymbolTableRecord
100
AcDbBlockTableRecord
  2
conn5x2F
340
0
  0
BLOCK_RECORD
  5
60
100
AcDbSymbolTableRecord
100
AcDbBlockTableRecord
  2
conn2.56x2F
340
0
  0
BLOCK_RECORD
  5
61
100
AcDbSymbolTableRecord
100
AcDbBlockTableRecord
  2
res
340
0
  0
BLOCK_RECORD
  5
62
100
AcDbSymbolTableRecord
100
AcDbBlockTableRecord
  2
conn5x2
340
0
  0
ENDTAB
  0
ENDSEC
  0
SECTION
  2
BLOCKS
  0
BLOCK
  5
20
100
AcDbEntity
  8
0
100
AcDbBlockBegin
  2
*Model_Space
 70
0
 10
0.0
 20
0.0
 30
0.0
  3
*Model_Space
  1

  0
ENDBLK
  5
21
100
AcDbEntity
  8
0
100
AcDbBlockEnd
  0
BLOCK
  5
1C
100
AcDbEntity
 67
1
  8
0
100
AcDbBlockBegin
  2
*Paper_Space
 70
0
 10
0.0
 20
0.0
 30
0.0
  3
*Paper_Space
  1

  0
ENDBLK
  5
1D
100
AcDbEntity
 67
1
  8
0
100
AcDbBlockEnd
  0
BLOCK
  5
24
100
AcDbEntity
  8
0
100
AcDbBlockBegin
  2
*Paper_Space0
 70
0
 10
0.0
 20
0.0
 30
0.0
  3
*Paper_Space0
  1

  0
ENDBLK
  5
25
100
AcDbEntity
  8
0
100
AcDbBlockEnd
  0
BLOCK
  5
63
100
AcDbEntity
  8
0
100
AcDbBlockBegin
  2
NJM2068a
 70
0
 10
0.0
 20
0.0
 30
0.0
  3
NJM2068a
  1

  0
ENDBLK
  5
64
100
AcDbEntity
  8
0
100
AcDbBlockEnd
  0
BLOCK
  5
65
100
AcDbEntity
  8
0
100
AcDbBlockBegin
  2
conn2.56x2
 70
0
 10
0.0
 20
0.0
 30
0.0
  3
conn2.56x2
  1

  0
ENDBLK
  5
66
100
AcDbEntity
  8
0
100
AcDbBlockEnd
  0
BLOCK
  5
67
100
AcDbEntity
  8
0
100
AcDbBlockBegin
  2
0805
 70
0
 10
0.0
 20
0.0
 30
0.0
  3
0805
  1

  0
ENDBLK
  5
68
100
AcDbEntity
  8
0
100
AcDbBlockEnd
  0
BLOCK
  5
69
100
AcDbEntity
  8
0
100
AcDbBlockBegin
  2
conn2.54x4
 70
0
 10
0.0
 20
0.0
 30
0.0
  3
conn2.54x4
  1

  0
ENDBLK
  5
6A
100
AcDbEntity
  8
0
100
AcDbBlockEnd
  0
BLOCK
  5
6B
100
AcDbEntity
  8
0
100
AcDbBlockBegin
  2
conn5x3
 70
0
 10
0.0
 20
0.0
 30
0.0
  3
conn5x3
  1

  0
ENDBLK
  5
6C
100
AcDbEntity
  8
0
100
AcDbBlockEnd
  0
BLOCK
  5
6D
100
AcDbEntity
  8
0
100
AcDbBlockBegin
  2
conn5x2F
 70
0
 10
0.0
 20
0.0
 30
0.0
  3
conn5x2F
  1

  0
ENDBLK
  5
6E
100
AcDbEntity
  8
0
100
AcDbBlockEnd
  0
BLOCK
  5
6F
100
AcDbEntity
  8
0
100
AcDbBlockBegin
  2
conn2.56x2F
 70
0
 10
0.0
 20
0.0
 30
0.0
  3
conn2.56x2F
  1

  0
ENDBLK
  5
70
100
AcDbEntity
  8
0
100
AcDbBlockEnd
  0
BLOCK
  5
71
100
AcDbEntity
  8
0
100
AcDbBlockBegin
  2
res
 70
0
 10
0.0
 20
0.0
 30
0.0
  3
res
  1

  0
ENDBLK
  5
72
100
AcDbEntity
  8
0
100
AcDbBlockEnd
  0
BLOCK
  5
73
100
AcDbEntity
  8
0
100
AcDbBlockBegin
  2
conn5x2
 70
0
 10
0.0
 20
0.0
 30
0.0
  3
conn5x2
  1

  0
ENDBLK
  5
74
100
AcDbEntity
  8
0
100
AcDbBlockEnd
  0
ENDSEC
  0
SECTION
  2
ENTITIES
  0
LINE
  5
75
100
AcDbEntity
  8
0
 62
256
370
-1
 48
1.0
  6
BYLAYER
100
AcDbLine
 10
-76.0000000000000568
 20
-18.9300000000000068
 30
0.0
 11
-4.0
 21
-18.9300000000000352
 31
0.0
  0
LINE
  5
76
100
AcDbEntity
  8
0
 62
256
370
-1
 48
1.0
  6
BYLAYER
100
AcDbLine
 10
-4.0
 20
21.0699999999999648
 30
0.0
 11
-76.0
 21
21.0699999999999648
 31
0.0
  0
LINE
  5
77
100
AcDbEntity
  8
0
 62
256
370
-1
 48
1.0
  6
BYLAYER
100
AcDbLine
 10
-80.0
 20
19.0699999999999648
 30
0.0
 11
-80.0
 21
-16.9300000000000068
 31
0.0
  0
LINE
  5
78
100
AcDbEntity
  8
0
 62
256
370
-1
 48
1.0
  6
BYLAYER
100
AcDbLine
 10
0.0
 20
19.0699999999999648
 30
0.0
 11
0.0
 21
-16.9300000000000352
 31
0.0
  0
CIRCLE
  5
79
100
AcDbEntity
  8
0
 62
256
370
-1
 48
1.0
  6
BYLAYER
100
AcDbCircle
 10
-60.0
 20
16.0699999999999648
 30
0.0
 40
1.6000000000000001
  0
CIRCLE
  5
7A
100
AcDbEntity
  8
0
 62
256
370
-1
 48
1.0
  6
BYLAYER
100
AcDbCircle
 10
-12.0
 20
-15.4300000000000352
 30
0.0
 40
1.6000000000000001
  0
CIRCLE
  5
7B
100
AcDbEntity
  8
0
 62
256
370
-1
 48
1.0
  6
BYLAYER
100
AcDbCircle
 10
-68.0
 20
-15.4300000000000352
 30
0.0
 40
1.6000000000000001
  0
CIRCLE
  5
7C
100
AcDbEntity
  8
0
 62
256
370
-1
 48
1.0
  6
BYLAYER
100
AcDbCircle
 10
-60.0
 20
-13.9300000000000352
 30
0.0
 40
1.6000000000000001
  0
CIRCLE
  5
7D
100
AcDbEntity
  8
0
 62
256
370
-1
 48
1.0
  6
BYLAYER
100
AcDbCircle
 10
-20.0
 20
-13.9300000000000352
 30
0.0
 40
1.6000000000000001
  0
CIRCLE
  5
7E
100
AcDbEntity
  8
0
 62
256
370
-1
 48
1.0
  6
BYLAYER
100
AcDbCircle
 10
-20.0
 20
16.0699999999999648
 30
0.0
 40
1.6000000000000001
  0
CIRCLE
  5
7F
100
AcDbEntity
  8
0
 62
256
370
-1
 48
1.0
  6
BYLAYER
100
AcDbCircle
 10
-12.0
 20
17.5699999999999648
 30
0.0
 40
1.6000000000000001
  0
CIRCLE
  5
80
100
AcDbEntity
  8
0
 62
256
370
-1
 48
1.0
  6
BYLAYER
100
AcDbCircle
 10
-68.0
 20
17.5699999999999648
 30
0.0
 40
1.6000000000000001
  0
LINE
  5
81
100
AcDbEntity
  8
engrave
 62
256
370
-1
 48
1.0
  6
BYLAYER
100
AcDbLine
 10
-54.2792407799438479
 20
15.5700000000000216
 30
0.0
 11
-54.2207592200561521
 21
15.5700000000000216
 31
0.0
  0
LINE
  5
82
100
AcDbEntity
  8
engrave
 62
256
370
-1
 48
1.0
  6
BYLAYER
100
AcDbLine
 10
-52.2000000000000455
 20
14.0700000000000216
 30
0.0
 11
-51.1937129433613904
 21
14.0700000000000216
 31
0.0
  0
LINE
  5
83
100
AcDbEntity
  8
engrave
 62
256
370
-1
 48
1.0
  6
BYLAYER
100
AcDbLine
 10
-50.0
 20
14.0700000000000216
 30
0.0
 11
-46.6937129433614473
 21
14.0700000000000216
 31
0.0
  0
LINE
  5
84
100
AcDbEntity
  8
engrave
 62
256
370
-1
 48
1.0
  6
BYLAYER
100
AcDbLine
 10
-58.0
 20
11.0700000000000216
 30
0.0
 11
-55.7207592200560953
 21
11.0700000000000216
 31
0.0
  0
LINE
  5
85
100
AcDbEntity
  8
engrave
 62
256
370
-1
 48
1.0
  6
BYLAYER
100
AcDbLine
 10
-46.3062870566386664
 20
11.0700000000000216
 30
0.0
 11
-43.0
 21
11.0700000000000216
 31
0.0
  0
LINE
  5
86
100
AcDbEntity
  8
engrave
 62
256
370
-1
 48
1.0
  6
BYLAYER
100
AcDbLine
 10
-55.2279240779943734
 20
14.8862277660168729
 30
0.0
 11
-55.6139620389972151
 21
13.7281138830084615
 31
0.0
  0
LINE
  5
87
100
AcDbEntity
  8
engrave
 62
256
370
-1
 48
1.0
  6
BYLAYER
100
AcDbLine
 10
-53.0
 20
17.0700000000000216
 30
0.0
 11
-53.2720759220056266
 21
16.2537722339831703
 31
0.0
  0
LINE
  5
88
100
AcDbEntity
  8
engrave
 62
256
370
-1
 48
1.0
  6
BYLAYER
100
AcDbLine
 10
-54.5527046276694136
 20
12.4118861169915817
 30
0.0
 11
-54.7720759220056266
 21
11.7537722339831419
 31
0.0
  0
LINE
  5
89
100
AcDbEntity
  8
engrave
 62
256
370
-1
 48
1.0
  6
BYLAYER
100
AcDbLine
 10
-52.5472953723305523
 20
12.4281138830084501
 30
0.0
 11
-52.7806287056638439
 21
11.728113883008433
 31
0.0
  0
LINE
  5
8A
100
AcDbEntity
  8
engrave
 62
256
370
-1
 48
1.0
  6
BYLAYER
100
AcDbLine
 10
-50.7193712943361561
 20
13.4118861169916102
 30
0.0
 11
-51.2806287056638439
 21
11.7281138830084615
 31
0.0
  0
LINE
  5
8B
100
AcDbEntity
  8
engrave
 62
256
370
-1
 48
1.0
  6
BYLAYER
100
AcDbLine
 10
-48.0472953723306091
 20
12.4281138830084501
 30
0.0
 11
-48.2806287056639007
 21
11.728113883008433
 31
0.0
  0
LINE
  5
8C
100
AcDbEntity
  8
engrave
 62
256
370
-1
 48
1.0
  6
BYLAYER
100
AcDbLine
 10
-46.2193712943361561
 20
13.4118861169916102
 30
0.0
 11
-46.7806287056639576
 21
11.728113883008433
 31
0.0
  0
LINE
  5
8D
100
AcDbEntity
  8
engrave
 62
256
370
-1
 48
1.0
  6
BYLAYER
100
AcDbLine
 10
-52.0
 20
17.0700000000000216
 30
0.0
 11
-53.7806287056638439
 21
11.7281138830084046
 31
0.0
  0
LINE
  5
8E
100
AcDbEntity
  8
engrave
 62
256
370
-1
 48
1.0
  6
BYLAYER
100
AcDbLine
 10
-53.3062870566386096
 20
11.0700000000000216
 30
0.0
 11
-52.0
 21
11.0700000000000216
 31
0.0
  0
ARC
  5
8F
100
AcDbEntity
  8
engrave
 62
256
370
-1
 48
1.0
  6
BYLAYER
100
AcDbCircle
 10
-53.3062870566386096
 20
11.5699999999999932
 30
0.0
 40
0.5
100
AcDbArc
 50
161.5650511770790274
 51
270.0
  0
ARC
  5
90
100
AcDbEntity
  8
engrave
 62
256
370
-1
 48
1.0
  6
BYLAYER
100
AcDbCircle
 10
-52.3062870566386664
 20
11.5700000000000216
 30
0.0
 40
0.5
100
AcDbArc
 50
161.5650511770779758
 51
270.0
  0
ARC
  5
91
100
AcDbEntity
  8
engrave
 62
256
370
-1
 48
1.0
  6
BYLAYER
100
AcDbCircle
 10
-51.1937129433613904
 20
13.5700000000000216
 30
0.0
 40
0.5
100
AcDbArc
 50
341.5650511770790558
 51
90.0
  0
ARC
  5
92
100
AcDbEntity
  8
engrave
 62
256
370
-1
 48
1.0
  6
BYLAYER
100
AcDbCircle
 10
-50.8062870566385527
 20
11.5700000000000216
 30
0.0
 40
0.5
100
AcDbArc
 50
161.5650511770759579
 51
270.0
  0
ARC
  5
93
100
AcDbEntity
  8
engrave
 62
256
370
-1
 48
1.0
  6
BYLAYER
100
AcDbCircle
 10
-47.8062870566386096
 20
11.5699999999999932
 30
0.0
 40
0.5
100
AcDbArc
 50
161.5650511770770095
 51
270.0
  0
ARC
  5
94
100
AcDbEntity
  8
engrave
 62
256
370
-1
 48
1.0
  6
BYLAYER
100
AcDbCircle
 10
-46.6937129433614473
 20
13.5700000000000216
 30
0.0
 40
0.5
100
AcDbArc
 50
341.5650511770790558
 51
90.0
  0
LINE
  5
95
100
AcDbEntity
  8
engrave
 62
256
370
-1
 48
1.0
  6
BYLAYER
100
AcDbLine
 10
-48.0
 20
14.0700000000000216
 30
0.0
 11
-50.5
 21
11.0700000000000216
 31
0.0
  0
LINE
  5
96
100
AcDbEntity
  8
engrave
 62
256
370
-1
 48
1.0
  6
BYLAYER
100
AcDbLine
 10
-50.8062870566385527
 20
11.0700000000000216
 30
0.0
 11
-47.5
 21
11.0700000000000216
 31
0.0
  0
LINE
  5
97
100
AcDbEntity
  8
engrave
 62
256
370
-1
 48
1.0
  6
BYLAYER
100
AcDbLine
 10
-45.5
 20
14.0700000000000216
 30
0.0
 11
-45.25
 21
11.0700000000000216
 31
0.0
  0
LINE
  5
98
100
AcDbEntity
  8
engrave
 62
256
370
-1
 48
1.0
  6
BYLAYER
100
AcDbLine
 10
-45.25
 20
11.0700000000000216
 30
0.0
 11
-43.5
 21
14.0700000000000216
 31
0.0
  0
ARC
  5
99
100
AcDbEntity
  8
engrave
 62
256
370
-1
 48
1.0
  6
BYLAYER
100
AcDbCircle
 10
-54.2792407799438479
 20
14.5700000000000216
 30
0.0
 40
1.0
100
AcDbArc
 50
90.0
 51
161.5650511770774926
  0
ARC
  5
9A
100
AcDbEntity
  8
engrave
 62
256
370
-1
 48
1.0
  6
BYLAYER
100
AcDbCircle
 10
-55.7207592200560953
 20
12.0699999999999932
 30
0.0
 40
1.0
100
AcDbArc
 50
270.0
 51
341.565051177076441
  0
ARC
  5
9B
100
AcDbEntity
  8
engrave
 62
256
370
-1
 48
1.0
  6
BYLAYER
100
AcDbCircle
 10
-54.2207592200561521
 20
16.5700000000000216
 30
0.0
 40
1.0
100
AcDbArc
 50
270.0
 51
341.5650511770770095
  0
ARC
  5
9C
100
AcDbEntity
  8
engrave
 62
256
370
-1
 48
1.0
  6
BYLAYER
100
AcDbCircle
 10
-46.3062870566386664
 20
11.5700000000000216
 30
0.0
 40
0.5
100
AcDbArc
 50
161.5650511770779758
 51
270.0
  0
LINE
  5
9D
100
AcDbEntity
  8
engrave
 62
256
370
-1
 48
1.0
  6
BYLAYER
100
AcDbLine
 10
-55.1396203899719239
 20
13.0700000000000216
 30
0.0
 11
-55.027046276694648
 21
13.0700000000000216
 31
0.0
  0
ARC
  5
9E
100
AcDbEntity
  8
engrave
 62
256
370
-1
 48
1.0
  6
BYLAYER
100
AcDbCircle
 10
-55.1396203899719239
 20
13.5700000000000216
 30
0.0
 40
0.5
100
AcDbArc
 50
161.5650511770759579
 51
270.0
  0
ARC
  5
9F
100
AcDbEntity
  8
engrave
 62
256
370
-1
 48
1.0
  6
BYLAYER
100
AcDbCircle
 10
-55.027046276694648
 20
12.5700000000000216
 30
0.0
 40
0.5
100
AcDbArc
 50
341.5650511770738831
 51
90.0
  0
LINE
  5
A0
100
AcDbEntity
  8
engrave
 62
256
370
-1
 48
1.0
  6
BYLAYER
100
AcDbLine
 10
-52.0729537233053179
 20
12.7700000000000387
 30
0.0
 11
-50.933333333333394
 21
12.7700000000000387
 31
0.0
  0
LINE
  5
A1
100
AcDbEntity
  8
engrave
 62
256
370
-1
 48
1.0
  6
BYLAYER
100
AcDbLine
 10
-47.5729537233053179
 20
12.7700000000000387
 30
0.0
 11
-46.433333333333394
 21
12.7700000000000387
 31
0.0
  0
ARC
  5
A2
100
AcDbEntity
  8
engrave
 62
256
370
-1
 48
1.0
  6
BYLAYER
100
AcDbCircle
 10
-47.5729537233053179
 20
12.2700000000000387
 30
0.0
 40
0.5
100
AcDbArc
 50
90.0
 51
161.5650511770790274
  0
ARC
  5
A3
100
AcDbEntity
  8
engrave
 62
256
370
-1
 48
1.0
  6
BYLAYER
100
AcDbCircle
 10
-52.0729537233053179
 20
12.2700000000000387
 30
0.0
 40
0.5
100
AcDbArc
 50
90.0
 51
161.5650511770790274
  0
LINE
  5
A4
100
AcDbEntity
  8
engrave
 62
256
370
-1
 48
1.0
  6
BYLAYER
100
AcDbLine
 10
-47.5
 20
11.0700000000000216
 30
0.0
 11
-47.8062870566386096
 21
11.0700000000000216
 31
0.0
  0
LINE
  5
A5
100
AcDbEntity
  8
engrave
 62
256
370
-1
 48
1.0
  6
BYLAYER
100
AcDbLine
 10
-52.0
 20
11.0700000000000216
 30
0.0
 11
-52.3062870566386664
 21
11.0700000000000216
 31
0.0
  0
LINE
  5
A6
100
AcDbEntity
  8
0
 62
256
370
-1
 48
1.0
  6
BYLAYER
100
AcDbLine
 10
-80.0
 20
19.0699999999999648
 30
0.0
 11
-76.0
 21
21.0699999999999648
 31
0.0
  0
LINE
  5
A7
100
AcDbEntity
  8
0
 62
256
370
-1
 48
1.0
  6
BYLAYER
100
AcDbLine
 10
-80.0
 20
-16.9300000000000068
 30
0.0
 11
-76.0000000000000568
 21
-18.9300000000000068
 31
0.0
  0
LINE
  5
A8
100
AcDbEntity
  8
0
 62
256
370
-1
 48
1.0
  6
BYLAYER
100
AcDbLine
 10
0.0
 20
-16.9300000000000352
 30
0.0
 11
-4.0
 21
-18.9300000000000352
 31
0.0
  0
LINE
  5
A9
100
AcDbEntity
  8
0
 62
256
370
-1
 48
1.0
  6
BYLAYER
100
AcDbLine
 10
0.0
 20
19.0699999999999648
 30
0.0
 11
-4.0
 21
21.0699999999999648
 31
0.0
  0
LINE
  5
AA
100
AcDbEntity
  8
engrave
 62
256
370
-1
 48
1.0
  6
BYLAYER
100
AcDbLine
 10
-14.0
 20
11.0700000000000216
 30
0.0
 11
-41.0
 21
11.0700000000000216
 31
0.0
  0
LINE
  5
AB
100
AcDbEntity
  8
engrave
 62
256
370
-1
 48
1.0
  6
BYLAYER
100
AcDbLine
 10
-75.0
 20
1.0700000000000216
 30
0.0
 11
-14.0
 21
1.0700000000000216
 31
0.0
  0
CIRCLE
  5
AC
100
AcDbEntity
  8
0
 62
256
370
-1
 48
1.0
  6
BYLAYER
100
AcDbCircle
 10
-68.0
 20
17.5699999999999648
 30
0.0
 40
3.0
  0
CIRCLE
  5
AD
100
AcDbEntity
  8
0
 62
256
370
-1
 48
1.0
  6
BYLAYER
100
AcDbCircle
 10
-12.0
 20
17.5699999999999648
 30
0.0
 40
3.0
  0
CIRCLE
  5
AE
100
AcDbEntity
  8
0
 62
256
370
-1
 48
1.0
  6
BYLAYER
100
AcDbCircle
 10
-12.0
 20
-15.4300000000000352
 30
0.0
 40
3.0
  0
CIRCLE
  5
AF
100
AcDbEntity
  8
0
 62
256
370
-1
 48
1.0
  6
BYLAYER
100
AcDbCircle
 10
-68.0
 20
-15.4300000000000352
 30
0.0
 40
3.0
  0
LINE
  5
B0
100
AcDbEntity
  8
engrave
 62
256
370
-1
 48
1.0
  6
BYLAYER
100
AcDbLine
 10
-70.0
 20
11.0700000000000216
 30
0.0
 11
-60.0
 21
11.0700000000000216
 31
0.0
  0
LINE
  5
B1
100
AcDbEntity
  8
engrave
 62
256
370
-1
 48
1.0
  6
BYLAYER
100
AcDbLine
 10
-10.4999999999999982
 20
7.5
 30
0.0
 11
-10.4999999999999982
 21
9.5
 31
0.0
  0
LINE
  5
B2
100
AcDbEntity
  8
engrave
 62
256
370
-1
 48
1.0
  6
BYLAYER
100
AcDbLine
 10
-3.0
 20
-5.9300000000000352
 30
0.0
 11
-3.0
 21
-3.9300000000000352
 31
0.0
  0
LINE
  5
B3
100
AcDbEntity
  8
engrave
 62
256
370
-1
 48
1.0
  6
BYLAYER
100
AcDbLine
 10
-3.0
 20
-14.9300000000000352
 30
0.0
 11
-3.0
 21
-12.9300000000000352
 31
0.0
  0
LINE
  5
B4
100
AcDbEntity
  8
engrave
 62
256
370
-1
 48
1.0
  6
BYLAYER
100
AcDbLine
 10
-77.0
 20
17.0700000000000784
 30
0.0
 11
-77.0
 21
15.0700000000000784
 31
0.0
  0
LINE
  5
B5
100
AcDbEntity
  8
engrave
 62
256
370
-1
 48
1.0
  6
BYLAYER
100
AcDbLine
 10
-77.0
 20
8.0700000000000784
 30
0.0
 11
-77.0
 21
6.0700000000000784
 31
0.0
  0
LINE
  5
B6
100
AcDbEntity
  8
engrave
 62
256
370
-1
 48
1.0
  6
BYLAYER
100
AcDbLine
 10
-11.4999999999999982
 20
3.5
 30
0.0
 11
-9.4999999999999982
 21
3.5
 31
0.0
  0
LINE
  5
B7
100
AcDbEntity
  8
engrave
 62
256
370
-1
 48
1.0
  6
BYLAYER
100
AcDbLine
 10
-3.9999999999999996
 20
-4.92999999999995
 30
0.0
 11
-1.9999999999999998
 21
-4.92999999999995
 31
0.0
  0
LINE
  5
B8
100
AcDbEntity
  8
engrave
 62
256
370
-1
 48
1.0
  6
BYLAYER
100
AcDbLine
 10
-3.9999999999999996
 20
-13.92999999999995
 30
0.0
 11
-1.9999999999999998
 21
-13.92999999999995
 31
0.0
  0
LINE
  5
B9
100
AcDbEntity
  8
engrave
 62
256
370
-1
 48
1.0
  6
BYLAYER
100
AcDbLine
 10
-76.0
 20
16.07000000000005
 30
0.0
 11
-78.0
 21
16.07000000000005
 31
0.0
  0
LINE
  5
BA
100
AcDbEntity
  8
engrave
 62
256
370
-1
 48
1.0
  6
BYLAYER
100
AcDbLine
 10
-76.0
 20
7.07000000000005
 30
0.0
 11
-78.0
 21
7.07000000000005
 31
0.0
  0
LINE
  5
BB
100
AcDbEntity
  8
engrave
 62
256
370
-1
 48
1.0
  6
BYLAYER
100
AcDbLine
 10
-10.4999999999999982
 20
2.4999999999999716
 30
0.0
 11
-10.4999999999999982
 21
4.4999999999999716
 31
0.0
  0
LINE
  5
BC
100
AcDbEntity
  8
engrave
 62
256
370
-1
 48
1.0
  6
BYLAYER
100
AcDbLine
 10
-6.5
 20
-5.9299999999999784
 30
0.0
 11
-5.5
 21
-5.9299999999999784
 31
0.0
  0
LINE
  5
BD
100
AcDbEntity
  8
engrave
 62
256
370
-1
 48
1.0
  6
BYLAYER
100
AcDbLine
 10
-5.0
 20
-5.4299999999999784
 30
0.0
 11
-5.0
 21
-4.4299999999999784
 31
0.0
  0
LINE
  5
BE
100
AcDbEntity
  8
engrave
 62
256
370
-1
 48
1.0
  6
BYLAYER
100
AcDbLine
 10
-75.0
 20
16.57000000000005
 30
0.0
 11
-75.0
 21
15.57000000000005
 31
0.0
  0
LINE
  5
BF
100
AcDbEntity
  8
engrave
 62
256
370
-1
 48
1.0
  6
BYLAYER
100
AcDbLine
 10
-75.0
 20
7.5000000000001066
 30
0.0
 11
-75.0
 21
6.5000000000001066
 31
0.0
  0
LINE
  5
C0
100
AcDbEntity
  8
engrave
 62
256
370
-1
 48
1.0
  6
BYLAYER
100
AcDbLine
 10
-5.5
 20
-3.9299999999999784
 30
0.0
 11
-6.5
 21
-3.9299999999999784
 31
0.0
  0
LINE
  5
C1
100
AcDbEntity
  8
engrave
 62
256
370
-1
 48
1.0
  6
BYLAYER
100
AcDbLine
 10
-7.0
 20
-4.4299999999999784
 30
0.0
 11
-7.0
 21
-5.4299999999999784
 31
0.0
  0
LINE
  5
C2
100
AcDbEntity
  8
engrave
 62
256
370
-1
 48
1.0
  6
BYLAYER
100
AcDbLine
 10
-73.0
 20
15.57000000000005
 30
0.0
 11
-73.0
 21
16.57000000000005
 31
0.0
  0
LINE
  5
C3
100
AcDbEntity
  8
engrave
 62
256
370
-1
 48
1.0
  6
BYLAYER
100
AcDbLine
 10
-73.0
 20
6.5000000000001066
 30
0.0
 11
-73.0
 21
7.5000000000001066
 31
0.0
  0
LINE
  5
C4
100
AcDbEntity
  8
engrave
 62
256
370
-1
 48
1.0
  6
BYLAYER
100
AcDbLine
 10
-6.0
 20
-2.9300000000000352
 30
0.0
 11
-7.0
 21
-1.9300000000000352
 31
0.0
  0
LINE
  5
C5
100
AcDbEntity
  8
engrave
 62
256
370
-1
 48
1.0
  6
BYLAYER
100
AcDbLine
 10
-74.0
 20
4.9300000000000557
 30
0.0
 11
-73.0
 21
3.930000000000061
 31
0.0
  0
LINE
  5
C6
100
AcDbEntity
  8
engrave
 62
256
370
-1
 48
1.0
  6
BYLAYER
100
AcDbLine
 10
-7.0
 20
-1.9300000000000352
 30
0.0
 11
-5.0
 21
-1.9300000000000352
 31
0.0
  0
LINE
  5
C7
100
AcDbEntity
  8
engrave
 62
256
370
-1
 48
1.0
  6
BYLAYER
100
AcDbLine
 10
-73.0
 20
3.930000000000061
 30
0.0
 11
-75.0
 21
3.930000000000009
 31
0.0
  0
LINE
  5
C8
100
AcDbEntity
  8
engrave
 62
256
370
-1
 48
1.0
  6
BYLAYER
100
AcDbLine
 10
-5.0
 20
-2.9300000000000352
 30
0.0
 11
-5.0
 21
-0.9300000000000352
 31
0.0
  0
LINE
  5
C9
100
AcDbEntity
  8
engrave
 62
256
370
-1
 48
1.0
  6
BYLAYER
100
AcDbLine
 10
-75.0
 20
4.9300000000000566
 30
0.0
 11
-75.0
 21
2.9300000000001329
 31
0.0
  0
LINE
  5
CA
100
AcDbEntity
  8
engrave
 62
256
370
-1
 48
1.0
  6
BYLAYER
100
AcDbLine
 10
-6.5
 20
-14.9300000000000352
 30
0.0
 11
-5.5
 21
-14.9300000000000352
 31
0.0
  0
LINE
  5
CB
100
AcDbEntity
  8
engrave
 62
256
370
-1
 48
1.0
  6
BYLAYER
100
AcDbLine
 10
-5.0
 20
-14.4300000000000352
 30
0.0
 11
-5.0
 21
-13.4300000000000352
 31
0.0
  0
LINE
  5
CC
100
AcDbEntity
  8
engrave
 62
256
370
-1
 48
1.0
  6
BYLAYER
100
AcDbLine
 10
-5.5
 20
-12.9300000000000352
 30
0.0
 11
-6.5
 21
-12.9300000000000352
 31
0.0
  0
LINE
  5
CD
100
AcDbEntity
  8
engrave
 62
256
370
-1
 48
1.0
  6
BYLAYER
100
AcDbLine
 10
-7.0
 20
-13.4300000000000352
 30
0.0
 11
-7.0
 21
-14.4300000000000352
 31
0.0
  0
LINE
  5
CE
100
AcDbEntity
  8
engrave
 62
256
370
-1
 48
1.0
  6
BYLAYER
100
AcDbLine
 10
-7.0
 20
-11.4300000000000352
 30
0.0
 11
-7.0
 21
-10.4300000000000352
 31
0.0
  0
LINE
  5
CF
100
AcDbEntity
  8
engrave
 62
256
370
-1
 48
1.0
  6
BYLAYER
100
AcDbLine
 10
-72.9999999999999858
 20
13.4300000000000566
 30
0.0
 11
-73.0
 21
12.4300000000000619
 31
0.0
  0
LINE
  5
D0
100
AcDbEntity
  8
engrave
 62
256
370
-1
 48
1.0
  6
BYLAYER
100
AcDbLine
 10
-6.5
 20
-9.9300000000000352
 30
0.0
 11
-6.5
 21
-9.9300000000000352
 31
0.0
  0
LINE
  5
D1
100
AcDbEntity
  8
engrave
 62
256
370
-1
 48
1.0
  6
BYLAYER
100
AcDbLine
 10
-73.4999999999999858
 20
11.930000000000085
 30
0.0
 11
-73.4999999999999858
 21
11.930000000000085
 31
0.0
  0
LINE
  5
D2
100
AcDbEntity
  8
engrave
 62
256
370
-1
 48
1.0
  6
BYLAYER
100
AcDbLine
 10
-6.0
 20
-10.4300000000000352
 30
0.0
 11
-6.0
 21
-10.8119660112501403
 31
0.0
  0
LINE
  5
D3
100
AcDbEntity
  8
engrave
 62
256
370
-1
 48
1.0
  6
BYLAYER
100
AcDbLine
 10
-73.9999999999999716
 20
12.4300000000000814
 30
0.0
 11
-74.0
 21
12.8119660112501297
 31
0.0
  0
LINE
  5
D4
100
AcDbEntity
  8
engrave
 62
256
370
-1
 48
1.0
  6
BYLAYER
100
AcDbLine
 10
-5.9472135954999583
 20
-11.0355728090001186
 30
0.0
 11
-5.6381966011250109
 21
-11.6536067977500135
 31
0.0
  0
LINE
  5
D5
100
AcDbEntity
  8
engrave
 62
256
370
-1
 48
1.0
  6
BYLAYER
100
AcDbLine
 10
-74.0527864045000399
 20
13.0355728090001541
 30
0.0
 11
-74.3618033988749971
 21
13.6536067977500064
 31
0.0
  0
LINE
  5
D6
100
AcDbEntity
  8
engrave
 62
256
370
-1
 48
1.0
  6
BYLAYER
100
AcDbLine
 10
-5.0
 20
-11.9300000000000352
 30
0.0
 11
-5.0
 21
-10.0300000000000011
 31
0.0
  0
LINE
  5
D7
100
AcDbEntity
  8
engrave
 62
256
370
-1
 48
1.0
  6
BYLAYER
100
AcDbLine
 10
-75.0
 20
13.9300000000000619
 30
0.0
 11
-75.0
 21
12.0300000000000011
 31
0.0
  0
LINE
  5
D8
100
AcDbEntity
  8
engrave
 62
256
370
-1
 48
1.0
  6
BYLAYER
100
AcDbLine
 10
-6.5
 20
-11.9300000000000352
 30
0.0
 11
-6.5
 21
-11.9300000000000352
 31
0.0
  0
LINE
  5
D9
100
AcDbEntity
  8
engrave
 62
256
370
-1
 48
1.0
  6
BYLAYER
100
AcDbLine
 10
-73.5
 20
13.9300000000000352
 30
0.0
 11
-73.5
 21
13.9300000000000352
 31
0.0
  0
LINE
  5
DA
100
AcDbEntity
  8
engrave
 62
256
370
-1
 48
1.0
  6
BYLAYER
100
AcDbLine
 10
-5.1909830056250534
 20
-11.9300000000000352
 30
0.0
 11
-5.0
 21
-11.9300000000000352
 31
0.0
  0
LINE
  5
DB
100
AcDbEntity
  8
engrave
 62
256
370
-1
 48
1.0
  6
BYLAYER
100
AcDbLine
 10
-74.8090169943749288
 20
13.9300000000000548
 30
0.0
 11
-75.0
 21
13.9300000000000619
 31
0.0
  0
LINE
  5
DC
100
AcDbEntity
  8
engrave
 62
256
370
-1
 48
1.0
  6
BYLAYER
100
AcDbLine
 10
-75.0
 20
16.0700000000000216
 30
0.0
 11
-73.0
 21
16.0700000000000216
 31
0.0
  0
LINE
  5
DD
100
AcDbEntity
  8
engrave
 62
256
370
-1
 48
1.0
  6
BYLAYER
100
AcDbLine
 10
-75.0
 20
7.0000000000000782
 30
0.0
 11
-73.0
 21
7.0000000000000782
 31
0.0
  0
LINE
  5
DE
100
AcDbEntity
  8
engrave
 62
256
370
-1
 48
1.0
  6
BYLAYER
100
AcDbLine
 10
-14.0
 20
6.0700000000000216
 30
0.0
 11
-70.0
 21
6.0700000000000216
 31
0.0
  0
LINE
  5
DF
100
AcDbEntity
  8
engrave
 62
256
370
-1
 48
1.0
  6
BYLAYER
100
AcDbLine
 10
-50.0
 20
16.0700000000000216
 30
0.0
 11
-25.0
 21
16.0700000000000216
 31
0.0
  0
LINE
  5
E0
100
AcDbEntity
  8
engrave
 62
256
370
-1
 48
1.0
  6
BYLAYER
100
AcDbLine
 10
-25.0
 20
-13.9299999999999784
 30
0.0
 11
-55.0
 21
-13.9299999999999784
 31
0.0
  0
LINE
  5
E1
100
AcDbEntity
  8
engrave
 62
256
370
-1
 48
1.0
  6
BYLAYER
100
AcDbLine
 10
-75.0
 20
-3.9299999999999784
 30
0.0
 11
-10.0
 21
-3.9299999999999784
 31
0.0
  0
LINE
  5
E2
100
AcDbEntity
  8
engrave
 62
256
370
-1
 48
1.0
  6
BYLAYER
100
AcDbLine
 10
-75.0
 20
-8.9299999999999784
 30
0.0
 11
-10.0
 21
-8.9299999999999784
 31
0.0
  0
LINE
  5
E3
100
AcDbEntity
  8
0
 62
256
370
-1
 48
1.0
  6
BYLAYER
100
AcDbLine
 10
-7.0
 20
0.0
 30
0.0
 11
-0.0
 21
-0.0000000000000249
 31
0.0
  0
LINE
  5
E4
100
AcDbEntity
  8
engrave
 62
256
370
-1
 48
1.0
  6
BYLAYER
100
AcDbLine
 10
-10.9999999999999982
 20
12.9999999999999982
 30
0.0
 11
-9.9999999999999982
 21
12.9999999999999982
 31
0.0
  0
LINE
  5
E5
100
AcDbEntity
  8
engrave
 62
256
370
-1
 48
1.0
  6
BYLAYER
100
AcDbLine
 10
-76.0
 20
13.0
 30
0.0
 11
-77.0
 21
13.0000000000000284
 31
0.0
  0
LINE
  5
E6
100
AcDbEntity
  8
engrave
 62
256
370
-1
 48
1.0
  6
BYLAYER
100
AcDbLine
 10
-76.0
 20
4.0
 30
0.0
 11
-77.0
 21
4.0000000000000284
 31
0.0
  0
LINE
  5
E7
100
AcDbEntity
  8
engrave
 62
256
370
-1
 48
1.0
  6
BYLAYER
100
AcDbLine
 10
-4.0
 20
-2.0
 30
0.0
 11
-3.0
 21
-2.0
 31
0.0
  0
LINE
  5
E8
100
AcDbEntity
  8
engrave
 62
256
370
-1
 48
1.0
  6
BYLAYER
100
AcDbLine
 10
-4.0
 20
-11.0
 30
0.0
 11
-3.0
 21
-11.0
 31
0.0
  0
LINE
  5
E9
100
AcDbEntity
  8
engrave
 62
256
370
-1
 48
1.0
  6
BYLAYER
100
AcDbLine
 10
-9.9999999999999982
 20
13.9999999999999982
 30
0.0
 11
-9.9999999999999982
 21
11.9999999999999982
 31
0.0
  0
LINE
  5
EA
100
AcDbEntity
  8
engrave
 62
256
370
-1
 48
1.0
  6
BYLAYER
100
AcDbLine
 10
-77.0
 20
14.000000000000016
 30
0.0
 11
-77.0
 21
12.0000000000000338
 31
0.0
  0
LINE
  5
EB
100
AcDbEntity
  8
engrave
 62
256
370
-1
 48
1.0
  6
BYLAYER
100
AcDbLine
 10
-77.0
 20
5.000000000000016
 30
0.0
 11
-77.0
 21
3.0000000000000338
 31
0.0
  0
LINE
  5
EC
100
AcDbEntity
  8
engrave
 62
256
370
-1
 48
1.0
  6
BYLAYER
100
AcDbLine
 10
-3.0
 20
-1.0
 30
0.0
 11
-3.0
 21
-3.0
 31
0.0
  0
LINE
  5
ED
100
AcDbEntity
  8
engrave
 62
256
370
-1
 48
1.0
  6
BYLAYER
100
AcDbLine
 10
-3.0
 20
-10.0
 30
0.0
 11
-3.0
 21
-12.0
 31
0.0
  0
LINE
  5
EE
100
AcDbEntity
  8
engrave
 62
256
370
-1
 48
1.0
  6
BYLAYER
100
AcDbLine
 10
-9.5
 20
13.5999999999999996
 30
0.0
 11
-9.5
 21
12.4999999999999982
 31
0.0
  0
LINE
  5
EF
100
AcDbEntity
  8
engrave
 62
256
370
-1
 48
1.0
  6
BYLAYER
100
AcDbLine
 10
-77.5
 20
13.6000000000000245
 30
0.0
 11
-77.5
 21
12.5000000000000284
 31
0.0
  0
LINE
  5
F0
100
AcDbEntity
  8
engrave
 62
256
370
-1
 48
1.0
  6
BYLAYER
100
AcDbLine
 10
-77.5
 20
4.6000000000000245
 30
0.0
 11
-77.5
 21
3.5000000000000284
 31
0.0
  0
LINE
  5
F1
100
AcDbEntity
  8
engrave
 62
256
370
-1
 48
1.0
  6
BYLAYER
100
AcDbLine
 10
-2.5000000000000018
 20
-1.3999999999999986
 30
0.0
 11
-2.5000000000000018
 21
-2.5
 31
0.0
  0
LINE
  5
F2
100
AcDbEntity
  8
engrave
 62
256
370
-1
 48
1.0
  6
BYLAYER
100
AcDbLine
 10
-2.5000000000000018
 20
-10.3999999999999986
 30
0.0
 11
-2.5000000000000018
 21
-11.5
 31
0.0
  0
LINE
  5
F3
100
AcDbEntity
  8
engrave
 62
256
370
-1
 48
1.0
  6
BYLAYER
100
AcDbLine
 10
-9.0
 20
13.0999999999999996
 30
0.0
 11
-9.0
 21
12.8999999999999986
 31
0.0
  0
LINE
  5
F4
100
AcDbEntity
  8
engrave
 62
256
370
-1
 48
1.0
  6
BYLAYER
100
AcDbLine
 10
-78.0
 20
13.0999999999999996
 30
0.0
 11
-78.0
 21
12.9000000000000252
 31
0.0
  0
LINE
  5
F5
100
AcDbEntity
  8
engrave
 62
256
370
-1
 48
1.0
  6
BYLAYER
100
AcDbLine
 10
-78.0
 20
4.0999999999999996
 30
0.0
 11
-78.0
 21
3.9000000000000252
 31
0.0
  0
LINE
  5
F6
100
AcDbEntity
  8
engrave
 62
256
370
-1
 48
1.0
  6
BYLAYER
100
AcDbLine
 10
-2.0000000000000018
 20
-1.8999999999999986
 30
0.0
 11
-2.0000000000000018
 21
-2.0999999999999996
 31
0.0
  0
LINE
  5
F7
100
AcDbEntity
  8
engrave
 62
256
370
-1
 48
1.0
  6
BYLAYER
100
AcDbLine
 10
-2.0000000000000018
 20
-10.8999999999999986
 30
0.0
 11
-2.0000000000000018
 21
-11.0999999999999996
 31
0.0
  0
LINE
  5
F8
100
AcDbEntity
  8
0
 62
256
370
-1
 48
1.0
  6
BYLAYER
100
AcDbLine
 10
-7.0
 20
0.0
 30
0.0
 11
-7.0
 21
18.0
 31
0.0
  0
LINE
  5
F9
100
AcDbEntity
  8
0
 62
256
370
-1
 48
1.0
  6
BYLAYER
100
AcDbLine
 10
-7.0
 20
18.0
 30
0.0
 11
0.0
 21
18.0
 31
0.0
  0
ARC
  5
FA
100
AcDbEntity
  8
engrave
 62
256
370
-1
 48
1.0
  6
BYLAYER
100
AcDbCircle
 10
-6.5
 20
-4.4299999999999784
 30
0.0
 40
0.5
100
AcDbArc
 50
90.0
 51
180.0
  0
ARC
  5
FB
100
AcDbEntity
  8
engrave
 62
256
370
-1
 48
1.0
  6
BYLAYER
100
AcDbCircle
 10
-5.5
 20
-4.4299999999999784
 30
0.0
 40
0.5
100
AcDbArc
 50
0.0
 51
90.0
  0
ARC
  5
FC
100
AcDbEntity
  8
engrave
 62
256
370
-1
 48
1.0
  6
BYLAYER
100
AcDbCircle
 10
-5.5
 20
-5.4299999999999784
 30
0.0
 40
0.5
100
AcDbArc
 50
270.0
 51
0.0
  0
ARC
  5
FD
100
AcDbEntity
  8
engrave
 62
256
370
-1
 48
1.0
  6
BYLAYER
100
AcDbCircle
 10
-6.5
 20
-5.4299999999999784
 30
0.0
 40
0.5
100
AcDbArc
 50
180.0
 51
270.0
  0
ARC
  5
FE
100
AcDbEntity
  8
engrave
 62
256
370
-1
 48
1.0
  6
BYLAYER
100
AcDbCircle
 10
-6.5
 20
-10.4300000000000352
 30
0.0
 40
0.5
100
AcDbArc
 50
90.0
 51
180.0
  0
ARC
  5
FF
100
AcDbEntity
  8
engrave
 62
256
370
-1
 48
1.0
  6
BYLAYER
100
AcDbCircle
 10
-73.5
 20
12.4300000000000406
 30
0.0
 40
0.5
100
AcDbArc
 50
270.0
 51
0.0
  0
ARC
  5
100
100
AcDbEntity
  8
engrave
 62
256
370
-1
 48
1.0
  6
BYLAYER
100
AcDbCircle
 10
-6.5
 20
-10.4300000000000352
 30
0.0
 40
0.5
100
AcDbArc
 50
0.0
 51
90.0
  0
ARC
  5
101
100
AcDbEntity
  8
engrave
 62
256
370
-1
 48
1.0
  6
BYLAYER
100
AcDbCircle
 10
-73.5
 20
12.4300000000000406
 30
0.0
 40
0.5
100
AcDbArc
 50
180.0
 51
270.0
  0
ARC
  5
102
100
AcDbEntity
  8
engrave
 62
256
370
-1
 48
1.0
  6
BYLAYER
100
AcDbCircle
 10
-5.1909830056250534
 20
-11.4300000000000352
 30
0.0
 40
0.5
100
AcDbArc
 50
206.5650511770779474
 51
270.0
  0
ARC
  5
103
100
AcDbEntity
  8
engrave
 62
256
370
-1
 48
1.0
  6
BYLAYER
100
AcDbCircle
 10
-74.809016994374943
 20
13.4300000000000228
 30
0.0
 40
0.5
100
AcDbArc
 50
26.5650511770779438
 51
90.0
  0
ARC
  5
104
100
AcDbEntity
  8
engrave
 62
256
370
-1
 48
1.0
  6
BYLAYER
100
AcDbCircle
 10
-5.5
 20
-10.8119660112501403
 30
0.0
 40
0.5
100
AcDbArc
 50
180.0
 51
206.565051177077919
  0
ARC
  5
105
100
AcDbEntity
  8
engrave
 62
256
370
-1
 48
1.0
  6
BYLAYER
100
AcDbCircle
 10
-74.5
 20
12.8119660112501546
 30
0.0
 40
0.5
100
AcDbArc
 50
0.0
 51
26.5650511770778941
  0
ARC
  5
106
100
AcDbEntity
  8
engrave
 62
256
370
-1
 48
1.0
  6
BYLAYER
100
AcDbCircle
 10
-6.5
 20
-13.4300000000000352
 30
0.0
 40
0.5
100
AcDbArc
 50
90.0
 51
180.0
  0
ARC
  5
107
100
AcDbEntity
  8
engrave
 62
256
370
-1
 48
1.0
  6
BYLAYER
100
AcDbCircle
 10
-5.5
 20
-13.4300000000000352
 30
0.0
 40
0.5
100
AcDbArc
 50
0.0
 51
90.0
  0
ARC
  5
108
100
AcDbEntity
  8
engrave
 62
256
370
-1
 48
1.0
  6
BYLAYER
100
AcDbCircle
 10
-5.5
 20
-14.4300000000000352
 30
0.0
 40
0.5
100
AcDbArc
 50
270.0
 51
0.0
  0
ARC
  5
109
100
AcDbEntity
  8
engrave
 62
256
370
-1
 48
1.0
  6
BYLAYER
100
AcDbCircle
 10
-6.5
 20
-14.4300000000000352
 30
0.0
 40
0.5
100
AcDbArc
 50
180.0
 51
270.0
  0
ARC
  5
10A
100
AcDbEntity
  8
engrave
 62
256
370
-1
 48
1.0
  6
BYLAYER
100
AcDbCircle
 10
-6.5
 20
-11.4300000000000352
 30
0.0
 40
0.5
100
AcDbArc
 50
180.0
 51
270.0
  0
ARC
  5
10B
100
AcDbEntity
  8
engrave
 62
256
370
-1
 48
1.0
  6
BYLAYER
100
AcDbCircle
 10
-73.5
 20
13.4300000000000495
 30
0.0
 40
0.5
100
AcDbArc
 50
0.0
 51
90.0
  0
ENDSEC
  0
SECTION
  2
OBJECTS
  0
DICTIONARY
  5
C
100
AcDbDictionary
280
0
281
1
  3
ACAD_GROUP
350
D
  3
ACAD_LAYOUT
350
1A
  3
ACAD_MLINESTYLE
350
17
  3
ACAD_PLOTSETTINGS
350
19
  3
ACAD_PLOTSTYLENAME
350
E
  3
AcDbVariableDictionary
350
10C
  3
QCAD_OBJECTS
350
10D
  0
DICTIONARY
  5
D
100
AcDbDictionary
280
0
281
1
  0
ACDBDICTIONARYWDFLT
  5
E
100
AcDbDictionary
281
1
  3
Normal
350
F
100
AcDbDictionaryWithDefault
340
F
  0
ACDBPLACEHOLDER
  5
F
  0
DICTIONARY
  5
17
100
AcDbDictionary
280
0
281
1
  3
Standard
350
18
  0
MLINESTYLE
  5
18
100
AcDbMlineStyle
  2
STANDARD
 70
0
  3

 62
256
 51
90.0
 52
90.0
 71
2
 49
0.5
 62
256
  6
BYLAYER
 49
-0.5
 62
256
  6
BYLAYER
  0
DICTIONARY
  5
19
100
AcDbDictionary
280
0
281
1
  0
DICTIONARY
  5
1A
100
AcDbDictionary
281
1
  3
Layout1
350
1E
  3
Layout2
350
26
  3
Model
350
22
  0
LAYOUT
  5
1E
100
AcDbPlotSettings
  1

  2
none_device
  4

  6

 40
0.0
 41
0.0
 42
0.0
 43
0.0
 44
0.0
 45
0.0
 46
0.0
 47
0.0
 48
0.0
 49
0.0
140
0.0
141
0.0
142
1.0
143
1.0
 70
688
 72
0
 73
0
 74
5
  7

 75
16
147
1.0
148
0.0
149
0.0
100
AcDbLayout
  1
Layout1
 70
1
 71
1
 10
0.0
 20
0.0
 11
420.0
 21
297.0
 12
0.0
 22
0.0
 32
0.0
 14
100000000000000000000.0
 24
100000000000000000000.0
 34
100000000000000000000.0
 15
-100000000000000000000.0
 25
-100000000000000000000.0
 35
-100000000000000000000.0
146
0.0
 13
0.0
 23
0.0
 33
0.0
 16
1.0
 26
0.0
 36
0.0
 17
0.0
 27
1.0
 37
0.0
 76
0
330
1B
  0
LAYOUT
  5
22
100
AcDbPlotSettings
  1

  2
none_device
  4

  6

 40
0.0
 41
0.0
 42
0.0
 43
0.0
 44
0.0
 45
0.0
 46
0.0
 47
0.0
 48
0.0
 49
0.0
140
0.0
141
0.0
142
1.0
143
1.0
 70
1712
 72
0
 73
0
 74
0
  7

 75
0
147
1.0
148
0.0
149
0.0
100
AcDbLayout
  1
Model
 70
1
 71
0
 10
0.0
 20
0.0
 11
12.0
 21
9.0
 12
0.0
 22
0.0
 32
0.0
 14
0.0
 24
0.0
 34
0.0
 15
0.0
 25
0.0
 35
0.0
146
0.0
 13
0.0
 23
0.0
 33
0.0
 16
1.0
 26
0.0
 36
0.0
 17
0.0
 27
1.0
 37
0.0
 76
0
330
1F
  0
LAYOUT
  5
26
100
AcDbPlotSettings
  1

  2
none_device
  4

  6

 40
0.0
 41
0.0
 42
0.0
 43
0.0
 44
0.0
 45
0.0
 46
0.0
 47
0.0
 48
0.0
 49
0.0
140
0.0
141
0.0
142
1.0
143
1.0
 70
688
 72
0
 73
0
 74
5
  7

 75
16
147
1.0
148
0.0
149
0.0
100
AcDbLayout
  1
Layout2
 70
1
 71
2
 10
0.0
 20
0.0
 11
12.0
 21
9.0
 12
0.0
 22
0.0
 32
0.0
 14
0.0
 24
0.0
 34
0.0
 15
0.0
 25
0.0
 35
0.0
146
0.0
 13
0.0
 23
0.0
 33
0.0
 16
1.0
 26
0.0
 36
0.0
 17
0.0
 27
1.0
 37
0.0
 76
0
330
23
  0
DICTIONARY
  5
10C
100
AcDbDictionary
281
1
  3
DIMASSOC
350
10F
  3
HIDETEXT
350
10E
  0
DICTIONARYVAR
  5
10E
100
DictionaryVariables
280
0
  1
2
  0
DICTIONARYVAR
  5
10F
100
DictionaryVariables
280
0
  1
1
  0
DICTIONARY
  5
10D
100
AcDbDictionary
281
1
  3
ColorSettings/BackgroundColor
350
110
  3
ColorSettings/ColorMode
350
111
  3
Grid/DisplayGrid00
350
112
  3
Grid/DisplayGrid01
350
113
  3
Grid/DisplayGrid02
350
114
  3
Grid/DisplayGrid03
350
115
  3
Grid/GridSpacingX00
350
116
  3
Grid/GridSpacingX01
350
117
  3
Grid/GridSpacingX02
350
118
  3
Grid/GridSpacingX03
350
119
  3
Grid/GridSpacingY00
350
11A
  3
Grid/GridSpacingY01
350
11B
  3
Grid/GridSpacingY02
350
11C
  3
Grid/GridSpacingY03
350
11D
  3
Grid/IsometricGrid00
350
11E
  3
Grid/IsometricGrid01
350
11F
  3
Grid/IsometricGrid02
350
120
  3
Grid/IsometricGrid03
350
121
  3
Grid/IsometricProjection00
350
122
  3
Grid/IsometricProjection01
350
123
  3
Grid/IsometricProjection02
350
124
  3
Grid/IsometricProjection03
350
125
  3
Grid/MetaGridSpacingX00
350
126
  3
Grid/MetaGridSpacingX01
350
127
  3
Grid/MetaGridSpacingX02
350
128
  3
Grid/MetaGridSpacingX03
350
129
  3
Grid/MetaGridSpacingY00
350
12A
  3
Grid/MetaGridSpacingY01
350
12B
  3
Grid/MetaGridSpacingY02
350
12C
  3
Grid/MetaGridSpacingY03
350
12D
  3
MultiPageSettings/Columns
350
12E
  3
MultiPageSettings/GlueMarginsBottom
350
12F
  3
MultiPageSettings/GlueMarginsLeft
350
130
  3
MultiPageSettings/GlueMarginsRight
350
131
  3
MultiPageSettings/GlueMarginsTop
350
132
  3
MultiPageSettings/PrintCropMarks
350
133
  3
MultiPageSettings/Rows
350
134
  3
PageSettings/OffsetX
350
135
  3
PageSettings/OffsetY
350
136
  3
PageSettings/PageOrientation
350
137
  3
PageSettings/PaperHeight
350
138
  3
PageSettings/PaperWidth
350
139
  3
PageSettings/Scale
350
13A
  3
PageSettings/ShowPaperBorders
350
13B
  3
PageTagSettings/EnablePageTags
350
13C
  3
PageTagSettings/TagAlignment
350
13D
  3
PageTagSettings/TagFont
350
13E
  3
PageTagSettings/TagPosition
350
13F
  3
QCADVersion
350
140
  3
UnitSettings/PaperUnit
350
141
  3
ViewportCenter
350
142
  3
ViewportHeight
350
143
  3
ViewportWidth
350
144
  0
XRECORD
  5
110
330
10D
100
AcDbXrecord
280
1
1000
White
  0
XRECORD
  5
111
330
10D
100
AcDbXrecord
280
1
1000
FullColor
  0
XRECORD
  5
112
330
10D
100
AcDbXrecord
280
1
290
1
  0
XRECORD
  5
113
330
10D
100
AcDbXrecord
280
1
290
1
  0
XRECORD
  5
114
330
10D
100
AcDbXrecord
280
1
290
1
  0
XRECORD
  5
115
330
10D
100
AcDbXrecord
280
1
290
1
  0
XRECORD
  5
116
330
10D
100
AcDbXrecord
280
1
1000
auto
  0
XRECORD
  5
117
330
10D
100
AcDbXrecord
280
1
1000
auto
  0
XRECORD
  5
118
330
10D
100
AcDbXrecord
280
1
1000
auto
  0
XRECORD
  5
119
330
10D
100
AcDbXrecord
280
1
1000
auto
  0
XRECORD
  5
11A
330
10D
100
AcDbXrecord
280
1
1000
auto
  0
XRECORD
  5
11B
330
10D
100
AcDbXrecord
280
1
1000
auto
  0
XRECORD
  5
11C
330
10D
100
AcDbXrecord
280
1
1000
auto
  0
XRECORD
  5
11D
330
10D
100
AcDbXrecord
280
1
1000
auto
  0
XRECORD
  5
11E
330
10D
100
AcDbXrecord
280
1
290
0
  0
XRECORD
  5
11F
330
10D
100
AcDbXrecord
280
1
290
0
  0
XRECORD
  5
120
330
10D
100
AcDbXrecord
280
1
290
0
  0
XRECORD
  5
121
330
10D
100
AcDbXrecord
280
1
290
0
  0
XRECORD
  5
122
330
10D
100
AcDbXrecord
280
1
 90
65537
  0
XRECORD
  5
123
330
10D
100
AcDbXrecord
280
1
 90
65537
  0
XRECORD
  5
124
330
10D
100
AcDbXrecord
280
1
 90
65537
  0
XRECORD
  5
125
330
10D
100
AcDbXrecord
280
1
 90
65537
  0
XRECORD
  5
126
330
10D
100
AcDbXrecord
280
1
1000
auto
  0
XRECORD
  5
127
330
10D
100
AcDbXrecord
280
1
1000
auto
  0
XRECORD
  5
128
330
10D
100
AcDbXrecord
280
1
1000
auto
  0
XRECORD
  5
129
330
10D
100
AcDbXrecord
280
1
1000
auto
  0
XRECORD
  5
12A
330
10D
100
AcDbXrecord
280
1
1000
auto
  0
XRECORD
  5
12B
330
10D
100
AcDbXrecord
280
1
1000
auto
  0
XRECORD
  5
12C
330
10D
100
AcDbXrecord
280
1
1000
auto
  0
XRECORD
  5
12D
330
10D
100
AcDbXrecord
280
1
1000
auto
  0
XRECORD
  5
12E
330
10D
100
AcDbXrecord
280
1
 90
1
  0
XRECORD
  5
12F
330
10D
100
AcDbXrecord
280
1
 40
10.0
  0
XRECORD
  5
130
330
10D
100
AcDbXrecord
280
1
 40
10.0
  0
XRECORD
  5
131
330
10D
100
AcDbXrecord
280
1
 40
10.0
  0
XRECORD
  5
132
330
10D
100
AcDbXrecord
280
1
 40
10.0
  0
XRECORD
  5
133
330
10D
100
AcDbXrecord
280
1
290
0
  0
XRECORD
  5
134
330
10D
100
AcDbXrecord
280
1
 90
1
  0
XRECORD
  5
135
330
10D
100
AcDbXrecord
280
1
 40
0.0
  0
XRECORD
  5
136
330
10D
100
AcDbXrecord
280
1
 40
0.0
  0
XRECORD
  5
137
330
10D
100
AcDbXrecord
280
1
1000
Portrait
  0
XRECORD
  5
138
330
10D
100
AcDbXrecord
280
1
 40
297.0
  0
XRECORD
  5
139
330
10D
100
AcDbXrecord
280
1
 40
210.0
  0
XRECORD
  5
13A
330
10D
100
AcDbXrecord
280
1
1000
1:1
  0
XRECORD
  5
13B
330
10D
100
AcDbXrecord
280
1
290
1
  0
XRECORD
  5
13C
330
10D
100
AcDbXrecord
280
1
290
0
  0
XRECORD
  5
13D
330
10D
100
AcDbXrecord
280
1
1000
Inside
  0
XRECORD
  5
13E
330
10D
100
AcDbXrecord
280
1
1000
Arial,10,-1,5,50,0,0,0,0,0
  0
XRECORD
  5
13F
330
10D
100
AcDbXrecord
280
1
1000
TopLeft
  0
XRECORD
  5
140
330
10D
100
AcDbXrecord
280
1
1000
3.32.3
  0
XRECORD
  5
141
330
10D
100
AcDbXrecord
280
1
 90
4
  0
XRECORD
  5
143
330
10D
100
AcDbXrecord
280
1
 40
63.3318149466192111
  0
XRECORD
  5
144
330
10D
100
AcDbXrecord
280
1
 40
119.6724555160142245
  0
ENDSEC
  0
EOF
