999
dxflib 3.26.4.0
  0
SECTION
  2
HEADER
  9
$ACADVER
  1
AC1015
  9
$HANDSEED
  5
FFFF
  9
$DIMADEC
 70
0
  9
$DIMASZ
 40
2.5
  9
$DIMATFIT
 70
0
  9
$DIMAUNIT
 70
0
  9
$DIMAZIN
 70
2
  9
$DIMBLK
  1
0
  9
$DIMBLK1
  1
0
  9
$DIMBLK2
  1
0
  9
$DIMDEC
 70
4
  9
$DIMDLI
 40
5.0
  9
$DIMDSEP
 70
46
  9
$DIMEXE
 40
1.25
  9
$DIMEXO
 40
0.625
  9
$DIMGAP
 40
0.625
  9
$DIMLFAC
 40
1.0
  9
$DIMLUNIT
 70
2
  9
$DIMSCALE
 40
1.0
  9
$DIMTAD
 70
1
  9
$DIMTIH
 70
0
  9
$DIMTSZ
 40
0.0
  9
$DIMTXT
 40
2.5
  9
$DIMZIN
 70
8
  9
$DWGCODEPAGE
  3
ANSI_1252
  9
$INSUNITS
 70
4
  9
$LTSCALE
 40
1.0
  9
$MAXACTVP
 70
64
  9
$MEASUREMENT
 70
1
  9
$MIRRTEXT
 70
0
  9
$PDMODE
 70
0
  9
$PDSIZE
 40
0.0
  0
ENDSEC
  0
SECTION
  2
TABLES
  0
TABLE
  2
VPORT
  5
8
100
AcDbSymbolTable
 70
1
  0
VPORT
  5
30
100
AcDbSymbolTableRecord
100
AcDbViewportTableRecord
  2
*Active
 70
0
 10
0.0
 20
0.0
 11
1.0
 21
1.0
 12
286.3055555555554861
 22
148.5
 13
0.0
 23
0.0
 14
10.0
 24
10.0
 15
10.0
 25
10.0
 16
0.0
 26
0.0
 36
1.0
 17
0.0
 27
0.0
 37
0.0
 40
297.0
 41
1.92798353909465
 42
50.0
 43
0.0
 44
0.0
 50
0.0
 51
0.0
 71
0
 72
100
 73
1
 74
3
 75
1
 76
1
 77
0
 78
0
281
0
 65
1
110
0.0
120
0.0
130
0.0
111
1.0
121
0.0
131
0.0
112
0.0
122
1.0
132
0.0
 79
0
146
0.0
  0
ENDTAB
  0
TABLE
  2
LTYPE
  5
5
100
AcDbSymbolTable
 70
41
  0
LTYPE
  5
16
100
AcDbSymbolTableRecord
100
AcDbLinetypeTableRecord
  2
Continuous
 70
0
  3
Solid line
 72
65
 73
0
 40
0.0
  0
LTYPE
  5
31
100
AcDbSymbolTableRecord
100
AcDbLinetypeTableRecord
  2
DOT2
 70
0
  3
Dot (.5x) ........................................
 72
65
 73
2
 40
3.1749999999999998
 49
0.1
 74
0
 49
-3.0749999999999997
 74
0
  0
LTYPE
  5
32
100
AcDbSymbolTableRecord
100
AcDbLinetypeTableRecord
  2
ACAD_ISO12W100
 70
0
  3
ISO dash double-dot __ . . __ . . __ . . __ . . 
 72
65
 73
6
 40
21.0
 49
12.0
 74
0
 49
-2.9500000000000002
 74
0
 49
0.1
 74
0
 49
-2.9000000000000004
 74
0
 49
0.1
 74
0
 49
-2.9500000000000002
 74
0
  0
LTYPE
  5
33
100
AcDbSymbolTableRecord
100
AcDbLinetypeTableRecord
  2
DASHED2
 70
0
  3
Dashed (.5x) _ _ _ _ _ _ _ _ _ _ _ _ _ _ _ _ _ 
 72
65
 73
2
 40
9.5249999999999986
 49
6.3499999999999996
 74
0
 49
-3.1749999999999998
 74
0
  0
LTYPE
  5
34
100
AcDbSymbolTableRecord
100
AcDbLinetypeTableRecord
  2
HIDDEN
 70
0
  3
Hidden __ __ __ __ __ __ __ __ __ __ __ __ __ __
 72
65
 73
2
 40
9.5249999999999986
 49
6.3499999999999996
 74
0
 49
-3.1749999999999998
 74
0
  0
LTYPE
  5
35
100
AcDbSymbolTableRecord
100
AcDbLinetypeTableRecord
  2
CENTER
 70
0
  3
Center ____ _ ____ _ ____ _ ____ _ ____ _ ____
 72
65
 73
4
 40
50.8000000000000043
 49
31.75
 74
0
 49
-6.3499999999999996
 74
0
 49
6.3499999999999996
 74
0
 49
-6.3499999999999996
 74
0
  0
LTYPE
  5
36
100
AcDbSymbolTableRecord
100
AcDbLinetypeTableRecord
  2
ACAD_ISO08W100
 70
0
  3
ISO long-dash short-dash ____ __ ____ __ ____ _
 72
65
 73
4
 40
36.0
 49
24.0
 74
0
 49
-3.0
 74
0
 49
6.0
 74
0
 49
-3.0
 74
0
  0
LTYPE
  5
37
100
AcDbSymbolTableRecord
100
AcDbLinetypeTableRecord
  2
DASHDOTX2
 70
0
  3
Dash dot (2x) ____  .  ____  .  ____  .  ___
 72
65
 73
4
 40
50.7999999999999972
 49
25.3999999999999986
 74
0
 49
-12.6499999999999986
 74
0
 49
0.1
 74
0
 49
-12.6499999999999986
 74
0
  0
LTYPE
  5
38
100
AcDbSymbolTableRecord
100
AcDbLinetypeTableRecord
  2
ACAD_ISO13W100
 70
0
  3
ISO double-dash double-dot __ __ . . __ __ . . _
 72
65
 73
8
 40
36.0000000000000071
 49
12.0
 74
0
 49
-3.0
 74
0
 49
12.0
 74
0
 49
-2.9500000000000002
 74
0
 49
0.1
 74
0
 49
-2.9000000000000004
 74
0
 49
0.1
 74
0
 49
-2.9500000000000002
 74
0
  0
LTYPE
  5
15
100
AcDbSymbolTableRecord
100
AcDbLinetypeTableRecord
  2
BYLAYER
 70
0
  3

 72
65
 73
0
 40
0.0
  0
LTYPE
  5
39
100
AcDbSymbolTableRecord
100
AcDbLinetypeTableRecord
  2
DASHEDX2
 70
0
  3
Dashed (2x) ____  ____  ____  ____  ____  ___
 72
65
 73
2
 40
38.0999999999999943
 49
25.3999999999999986
 74
0
 49
-12.6999999999999993
 74
0
  0
LTYPE
  5
3A
100
AcDbSymbolTableRecord
100
AcDbLinetypeTableRecord
  2
DASHDOT
 70
0
  3
Dash dot __ . __ . __ . __ . __ . __ . __ . __
 72
65
 73
4
 40
25.4000000000000021
 49
12.6999999999999993
 74
0
 49
-6.2999999999999998
 74
0
 49
0.1
 74
0
 49
-6.2999999999999998
 74
0
  0
LTYPE
  5
3B
100
AcDbSymbolTableRecord
100
AcDbLinetypeTableRecord
  2
DOTX2
 70
0
  3
Dot (2x) .  .  .  .  .  .  .  .  .  .  .  .  .  .
 72
65
 73
2
 40
12.6999999999999993
 49
0.1
 74
0
 49
-12.5999999999999996
 74
0
  0
LTYPE
  5
3C
100
AcDbSymbolTableRecord
100
AcDbLinetypeTableRecord
  2
ACAD_ISO03W100
 70
0
  3
ISO dash space __    __    __    __    __    __
 72
65
 73
2
 40
30.0
 49
12.0
 74
0
 49
-18.0
 74
0
  0
LTYPE
  5
3D
100
AcDbSymbolTableRecord
100
AcDbLinetypeTableRecord
  2
PHANTOM
 70
0
  3
Phantom ______  __  __  ______  __  __  ______ 
 72
65
 73
6
 40
63.5000000000000071
 49
31.75
 74
0
 49
-6.3499999999999996
 74
0
 49
6.3499999999999996
 74
0
 49
-6.3499999999999996
 74
0
 49
6.3499999999999996
 74
0
 49
-6.3499999999999996
 74
0
  0
LTYPE
  5
3E
100
AcDbSymbolTableRecord
100
AcDbLinetypeTableRecord
  2
ACAD_ISO10W100
 70
0
  3
ISO dash dot __ . __ . __ . __ . __ . __ . __ . 
 72
65
 73
4
 40
18.0
 49
12.0
 74
0
 49
-2.9500000000000002
 74
0
 49
0.1
 74
0
 49
-2.9500000000000002
 74
0
  0
LTYPE
  5
3F
100
AcDbSymbolTableRecord
100
AcDbLinetypeTableRecord
  2
PHANTOMX2
 70
0
  3
Phantom (2x) ____________    ____    ____   _
 72
65
 73
6
 40
127.0000000000000142
 49
63.5
 74
0
 49
-12.6999999999999993
 74
0
 49
12.6999999999999993
 74
0
 49
-12.6999999999999993
 74
0
 49
12.6999999999999993
 74
0
 49
-12.6999999999999993
 74
0
  0
LTYPE
  5
40
100
AcDbSymbolTableRecord
100
AcDbLinetypeTableRecord
  2
ACAD_ISO09W100
 70
0
  3
ISO long-dash double-short-dash ____ __ __ ____
 72
65
 73
6
 40
45.0
 49
24.0
 74
0
 49
-3.0
 74
0
 49
6.0
 74
0
 49
-3.0
 74
0
 49
6.0
 74
0
 49
-3.0
 74
0
  0
LTYPE
  5
41
100
AcDbSymbolTableRecord
100
AcDbLinetypeTableRecord
  2
CENTERX2
 70
0
  3
Center (2x) ________  __  ________  __  _____
 72
65
 73
4
 40
101.6000000000000085
 49
63.5
 74
0
 49
-12.6999999999999993
 74
0
 49
12.6999999999999993
 74
0
 49
-12.6999999999999993
 74
0
  0
LTYPE
  5
14
100
AcDbSymbolTableRecord
100
AcDbLinetypeTableRecord
  2
BYBLOCK
 70
0
  3

 72
65
 73
0
 40
0.0
  0
LTYPE
  5
42
100
AcDbSymbolTableRecord
100
AcDbLinetypeTableRecord
  2
ACAD_ISO04W100
 70
0
  3
ISO long-dash dot ____ . ____ . ____ . ____ . _
 72
65
 73
4
 40
30.0
 49
24.0
 74
0
 49
-2.9500000000000002
 74
0
 49
0.1
 74
0
 49
-2.9500000000000002
 74
0
  0
LTYPE
  5
43
100
AcDbSymbolTableRecord
100
AcDbLinetypeTableRecord
  2
DASHED
 70
0
  3
Dashed __ __ __ __ __ __ __ __ __ __ __ __ __ _
 72
65
 73
2
 40
19.0499999999999972
 49
12.6999999999999993
 74
0
 49
-6.3499999999999996
 74
0
  0
LTYPE
  5
44
100
AcDbSymbolTableRecord
100
AcDbLinetypeTableRecord
  2
ACAD_ISO02W100
 70
0
  3
ISO dash __ __ __ __ __ __ __ __ __ __ __ __ __
 72
65
 73
2
 40
15.0
 49
12.0
 74
0
 49
-3.0
 74
0
  0
LTYPE
  5
45
100
AcDbSymbolTableRecord
100
AcDbLinetypeTableRecord
  2
DIVIDE
 70
0
  3
Divide ____ . . ____ . . ____ . . ____ . . ____
 72
65
 73
6
 40
31.7500000000000036
 49
12.6999999999999993
 74
0
 49
-6.2999999999999998
 74
0
 49
0.1
 74
0
 49
-6.25
 74
0
 49
0.1
 74
0
 49
-6.2999999999999998
 74
0
  0
LTYPE
  5
46
100
AcDbSymbolTableRecord
100
AcDbLinetypeTableRecord
  2
ACAD_ISO05W100
 70
0
  3
ISO long-dash double-dot ____ .. ____ .. ____ . 
 72
65
 73
6
 40
33.0000000000000071
 49
24.0
 74
0
 49
-2.9500000000000002
 74
0
 49
0.1
 74
0
 49
-2.9000000000000004
 74
0
 49
0.1
 74
0
 49
-2.9500000000000002
 74
0
  0
LTYPE
  5
47
100
AcDbSymbolTableRecord
100
AcDbLinetypeTableRecord
  2
ACAD_ISO07W100
 70
0
  3
ISO dot . . . . . . . . . . . . . . . . . . . . 
 72
65
 73
2
 40
3.0
 49
0.1
 74
0
 49
-2.8999999999999999
 74
0
  0
LTYPE
  5
48
100
AcDbSymbolTableRecord
100
AcDbLinetypeTableRecord
  2
BORDER
 70
0
  3
Border __ __ . __ __ . __ __ . __ __ . __ __ .
 72
65
 73
6
 40
44.4499999999999957
 49
12.6999999999999993
 74
0
 49
-6.3499999999999996
 74
0
 49
12.6999999999999993
 74
0
 49
-6.2999999999999998
 74
0
 49
0.1
 74
0
 49
-6.2999999999999998
 74
0
  0
LTYPE
  5
49
100
AcDbSymbolTableRecord
100
AcDbLinetypeTableRecord
  2
ACAD_ISO11W100
 70
0
  3
ISO double-dash dot __ __ . __ __ . __ __ . __ _
 72
65
 73
6
 40
33.0
 49
12.0
 74
0
 49
-3.0
 74
0
 49
12.0
 74
0
 49
-2.9500000000000002
 74
0
 49
0.1
 74
0
 49
-2.9500000000000002
 74
0
  0
LTYPE
  5
4A
100
AcDbSymbolTableRecord
100
AcDbLinetypeTableRecord
  2
CENTER2
 70
0
  3
Center (.5x) ___ _ ___ _ ___ _ ___ _ ___ _ ___
 72
65
 73
4
 40
28.5750000000000028
 49
19.0500000000000007
 74
0
 49
-3.1749999999999998
 74
0
 49
3.1749999999999998
 74
0
 49
-3.1749999999999998
 74
0
  0
LTYPE
  5
4B
100
AcDbSymbolTableRecord
100
AcDbLinetypeTableRecord
  2
DIVIDEX2
 70
0
  3
Divide (2x) ________  .  .  ________  .  .  _
 72
65
 73
6
 40
63.5
 49
25.3999999999999986
 74
0
 49
-12.6499999999999986
 74
0
 49
0.1
 74
0
 49
-12.5999999999999979
 74
0
 49
0.1
 74
0
 49
-12.6499999999999986
 74
0
  0
LTYPE
  5
4C
100
AcDbSymbolTableRecord
100
AcDbLinetypeTableRecord
  2
DASHDOT2
 70
0
  3
Dash dot (.5x) _._._._._._._._._._._._._._._.
 72
65
 73
4
 40
12.6999999999999993
 49
6.3499999999999996
 74
0
 49
-3.125
 74
0
 49
0.1
 74
0
 49
-3.125
 74
0
  0
LTYPE
  5
4D
100
AcDbSymbolTableRecord
100
AcDbLinetypeTableRecord
  2
HIDDENX2
 70
0
  3
Hidden (2x) ____ ____ ____ ____ ____ ____ ____ 
 72
65
 73
2
 40
19.0499999999999972
 49
12.6999999999999993
 74
0
 49
-6.3499999999999996
 74
0
  0
LTYPE
  5
4E
100
AcDbSymbolTableRecord
100
AcDbLinetypeTableRecord
  2
BORDER2
 70
0
  3
Border (.5x) __.__.__.__.__.__.__.__.__.__.__.
 72
65
 73
6
 40
22.2250000000000014
 49
6.3499999999999996
 74
0
 49
-3.1749999999999998
 74
0
 49
6.3499999999999996
 74
0
 49
-3.125
 74
0
 49
0.1
 74
0
 49
-3.125
 74
0
  0
LTYPE
  5
4F
100
AcDbSymbolTableRecord
100
AcDbLinetypeTableRecord
  2
BORDERX2
 70
0
  3
Border (2x) ____  ____  .  ____  ____  .  ___
 72
65
 73
6
 40
88.8999999999999773
 49
25.3999999999999986
 74
0
 49
-12.6999999999999993
 74
0
 49
25.3999999999999986
 74
0
 49
-12.6499999999999986
 74
0
 49
0.1
 74
0
 49
-12.6499999999999986
 74
0
  0
LTYPE
  5
50
100
AcDbSymbolTableRecord
100
AcDbLinetypeTableRecord
  2
ACAD_ISO15W100
 70
0
  3
ISO double-dash triple-dot __ __ . . . __ __ . .
 72
65
 73
10
 40
39.0000000000000071
 49
12.0
 74
0
 49
-3.0
 74
0
 49
12.0
 74
0
 49
-2.9500000000000002
 74
0
 49
0.1
 74
0
 49
-2.9000000000000004
 74
0
 49
0.1
 74
0
 49
-2.9000000000000004
 74
0
 49
0.1
 74
0
 49
-2.9500000000000002
 74
0
  0
LTYPE
  5
51
100
AcDbSymbolTableRecord
100
AcDbLinetypeTableRecord
  2
PHANTOM2
 70
0
  3
Phantom (.5x) ___ _ _ ___ _ _ ___ _ _ ___ _ _
 72
65
 73
6
 40
31.7500000000000036
 49
15.875
 74
0
 49
-3.1749999999999998
 74
0
 49
3.1749999999999998
 74
0
 49
-3.1749999999999998
 74
0
 49
3.1749999999999998
 74
0
 49
-3.1749999999999998
 74
0
  0
LTYPE
  5
52
100
AcDbSymbolTableRecord
100
AcDbLinetypeTableRecord
  2
ACAD_ISO06W100
 70
0
  3
ISO long-dash triple-dot ____ ... ____ ... ____
 72
65
 73
8
 40
36.0000000000000071
 49
24.0
 74
0
 49
-2.9500000000000002
 74
0
 49
0.1
 74
0
 49
-2.9000000000000004
 74
0
 49
0.1
 74
0
 49
-2.9000000000000004
 74
0
 49
0.1
 74
0
 49
-2.9500000000000002
 74
0
  0
LTYPE
  5
53
100
AcDbSymbolTableRecord
100
AcDbLinetypeTableRecord
  2
DOT
 70
0
  3
Dot . . . . . . . . . . . . . . . . . . . . . . . .
 72
65
 73
2
 40
6.3499999999999996
 49
0.1
 74
0
 49
-6.25
 74
0
  0
LTYPE
  5
54
100
AcDbSymbolTableRecord
100
AcDbLinetypeTableRecord
  2
HIDDEN2
 70
0
  3
Hidden (.5x) _ _ _ _ _ _ _ _ _ _ _ _ _ _ _ _ _ 
 72
65
 73
2
 40
4.7624999999999993
 49
3.1749999999999998
 74
0
 49
-1.5874999999999999
 74
0
  0
LTYPE
  5
55
100
AcDbSymbolTableRecord
100
AcDbLinetypeTableRecord
  2
DIVIDE2
 70
0
  3
Divide (.5x) __..__..__..__..__..__..__..__.._
 72
65
 73
6
 40
15.8749999999999982
 49
6.3499999999999996
 74
0
 49
-3.125
 74
0
 49
0.1
 74
0
 49
-3.0750000000000002
 74
0
 49
0.1
 74
0
 49
-3.125
 74
0
  0
LTYPE
  5
56
100
AcDbSymbolTableRecord
100
AcDbLinetypeTableRecord
  2
ACAD_ISO14W100
 70
0
  3
ISO dash triple-dot __ . . . __ . . . __ . . . _
 72
65
 73
8
 40
24.0000000000000036
 49
12.0
 74
0
 49
-2.9500000000000002
 74
0
 49
0.1
 74
0
 49
-2.9000000000000004
 74
0
 49
0.1
 74
0
 49
-2.9000000000000004
 74
0
 49
0.1
 74
0
 49
-2.9500000000000002
 74
0
  0
ENDTAB
  0
TABLE
  2
LAYER
  5
2
100
AcDbSymbolTable
 70
6
  0
LAYER
  5
57
100
AcDbSymbolTableRecord
100
AcDbLayerTableRecord
  2
cut_1.7mm
 70
0
 62
134
420
32896
  6
Continuous
370
25
390
F
  0
LAYER
  5
58
100
AcDbSymbolTableRecord
100
AcDbLayerTableRecord
  2
F.Cu
 70
1
 62
13
420
13120564
  6
Continuous
370
5
390
F
  0
LAYER
  5
59
100
AcDbSymbolTableRecord
100
AcDbLayerTableRecord
  2
cut
 70
0
 62
174
420
128
  6
Continuous
370
25
390
F
  0
LAYER
  5
10
100
AcDbSymbolTableRecord
100
AcDbLayerTableRecord
  2
0
 70
1
 62
7
420
0
  6
Continuous
370
25
390
F
  0
LAYER
  5
5A
100
AcDbSymbolTableRecord
100
AcDbLayerTableRecord
  2
Edge.Cuts
 70
1
 62
254
420
13685453
  6
Continuous
370
5
390
F
  0
LAYER
  5
5B
100
AcDbSymbolTableRecord
100
AcDbLayerTableRecord
  2
comp
 70
1
 62
1
420
16711680
  6
Continuous
370
25
390
F
  0
ENDTAB
  0
TABLE
  2
STYLE
  5
3
100
AcDbSymbolTable
 70
2
  0
STYLE
  5
5C
100
AcDbSymbolTableRecord
100
AcDbTextStyleTableRecord
  2
Standard
 70
0
 40
0.0
 41
1.0
 50
0.0
 71
0
 42
2.5
  3

  4

1001
ACAD
1000
txt
1071
0
  0
STYLE
  5
5D
100
AcDbSymbolTableRecord
100
AcDbTextStyleTableRecord
  2
textstyle0
 70
0
 40
0.0
 41
1.0
 50
0.0
 71
0
 42
1.5
  3

  4

1001
ACAD
1000
Nimbus Sans L
1071
0
  0
ENDTAB
  0
TABLE
  2
VIEW
  5
6
100
AcDbSymbolTable
 70
0
  0
ENDTAB
  0
TABLE
  2
UCS
  5
7
100
AcDbSymbolTable
 70
0
  0
ENDTAB
  0
TABLE
  2
APPID
  5
9
100
AcDbSymbolTable
 70
1
  0
APPID
  5
12
100
AcDbSymbolTableRecord
100
AcDbRegAppTableRecord
  2
ACAD
 70
0
  0
APPID
  5
5E
100
AcDbSymbolTableRecord
100
AcDbRegAppTableRecord
  2
QCAD
 70
0
  0
ENDTAB
  0
TABLE
  2
DIMSTYLE
  5
A
100
AcDbSymbolTable
 70
1
100
AcDbDimStyleTable
 71
0
  0
DIMSTYLE
105
27
100
AcDbSymbolTableRecord
100
AcDbDimStyleTableRecord
  2
Standard
 41
2.5
 42
0.625
 43
3.75
 44
1.25
 70
0
 73
0
 74
0
 77
1
 78
8
140
2.5
141
2.5
143
0.03937007874016
147
0.625
171
3
172
1
271
2
272
2
274
3
278
44
283
0
284
8
340
5C
  0
ENDTAB
  0
TABLE
  2
BLOCK_RECORD
  5
1
100
AcDbSymbolTable
 70
1
  0
BLOCK_RECORD
  5
1F
100
AcDbSymbolTableRecord
100
AcDbBlockTableRecord
  2
*Model_Space
340
22
  0
BLOCK_RECORD
  5
1B
100
AcDbSymbolTableRecord
100
AcDbBlockTableRecord
  2
*Paper_Space
340
1E
  0
BLOCK_RECORD
  5
23
100
AcDbSymbolTableRecord
100
AcDbBlockTableRecord
  2
*Paper_Space0
340
26
  0
BLOCK_RECORD
  5
5F
100
AcDbSymbolTableRecord
100
AcDbBlockTableRecord
  2
conn2.56x2
340
0
  0
ENDTAB
  0
ENDSEC
  0
SECTION
  2
BLOCKS
  0
BLOCK
  5
20
100
AcDbEntity
  8
0
100
AcDbBlockBegin
  2
*Model_Space
 70
0
 10
0.0
 20
0.0
 30
0.0
  3
*Model_Space
  1

  0
ENDBLK
  5
21
100
AcDbEntity
  8
0
100
AcDbBlockEnd
  0
BLOCK
  5
1C
100
AcDbEntity
 67
1
  8
0
100
AcDbBlockBegin
  2
*Paper_Space
 70
0
 10
0.0
 20
0.0
 30
0.0
  3
*Paper_Space
  1

  0
ENDBLK
  5
1D
100
AcDbEntity
 67
1
  8
0
100
AcDbBlockEnd
  0
BLOCK
  5
24
100
AcDbEntity
  8
0
100
AcDbBlockBegin
  2
*Paper_Space0
 70
0
 10
0.0
 20
0.0
 30
0.0
  3
*Paper_Space0
  1

  0
ENDBLK
  5
25
100
AcDbEntity
  8
0
100
AcDbBlockEnd
  0
BLOCK
  5
60
100
AcDbEntity
  8
0
100
AcDbBlockBegin
  2
conn2.56x2
 70
0
 10
0.0
 20
0.0
 30
0.0
  3
conn2.56x2
  1

  0
LINE
  5
61
100
AcDbEntity
  8
comp
 62
256
370
-1
 48
1.0
  6
BYLAYER
100
AcDbLine
 10
-6.0
 20
-1.269999999999996
 30
0.0
 11
0.0
 21
-1.269999999999996
 31
0.0
  0
LINE
  5
62
100
AcDbEntity
  8
comp
 62
256
370
-1
 48
1.0
  6
BYLAYER
100
AcDbLine
 10
-6.0
 20
1.2700000000000031
 30
0.0
 11
0.0
 21
1.2700000000000031
 31
0.0
  0
MTEXT
  5
63
100
AcDbEntity
  8
comp
 62
256
370
-1
 48
1.0
  6
BYLAYER
100
AcDbMText
 10
0.5016116035455127
 20
0.0
 30
0.0
 40
1.5
 41
0.0
 71
4
 72
1
  1
d: 3.2\Pp: 0.6\Pu: 2.0
  7
textstyle0
 50
0.0
 73
2
 44
1.0
  0
LINE
  5
64
100
AcDbEntity
  8
comp
 62
256
370
-1
 48
1.0
  6
BYLAYER
100
AcDbLine
 10
0.0
 20
3.6499999999999986
 30
0.0
 11
7.0
 21
3.6499999999999986
 31
0.0
  0
LINE
  5
65
100
AcDbEntity
  8
comp
 62
256
370
-1
 48
1.0
  6
BYLAYER
100
AcDbLine
 10
0.0
 20
-3.6499999999999986
 30
0.0
 11
7.0
 21
-3.6499999999999986
 31
0.0
  0
LINE
  5
66
100
AcDbEntity
  8
comp
 62
256
370
-1
 48
1.0
  6
BYLAYER
100
AcDbLine
 10
0.0
 20
3.6499999999999986
 30
0.0
 11
0.0
 21
-3.6499999999999986
 31
0.0
  0
LINE
  5
67
100
AcDbEntity
  8
comp
 62
256
370
-1
 48
1.0
  6
BYLAYER
100
AcDbLine
 10
7.0
 20
-3.6499999999999986
 30
0.0
 11
7.0
 21
3.6499999999999986
 31
0.0
  0
ENDBLK
  5
68
100
AcDbEntity
  8
0
100
AcDbBlockEnd
  0
ENDSEC
  0
SECTION
  2
ENTITIES
  0
CIRCLE
  5
69
100
AcDbEntity
  8
0
 62
256
370
-1
 48
1.0
  6
BYLAYER
100
AcDbCircle
 10
-7.9999999999999991
 20
-22.0
 30
0.0
 40
1.6000000000000001
  0
CIRCLE
  5
6A
100
AcDbEntity
  8
0
 62
256
370
-1
 48
1.0
  6
BYLAYER
100
AcDbCircle
 10
-8.0
 20
-3.0000000000000053
 30
0.0
 40
1.6000000000000001
  0
LINE
  5
6B
100
AcDbEntity
  8
F.Cu
 62
256
370
-1
 48
1.0
  6
Continuous
100
AcDbLine
 10
-29.3350250000000017
 20
-9.3695979999999963
 30
0.0
 11
-28.8332479999999975
 21
-9.8713750000000005
 31
0.0
  0
LINE
  5
6C
100
AcDbEntity
  8
cut
 62
256
370
-1
 48
1.0
  6
BYLAYER
100
AcDbLine
 10
-44.7236067977499872
 20
-23.6180339887498612
 30
0.0
 11
-44.7236067977499943
 21
-1.3819660112501104
 31
0.0
  0
LINE
  5
6D
100
AcDbEntity
  8
cut
 62
256
370
-1
 48
1.0
  6
BYLAYER
100
AcDbLine
 10
1.2236067977500014
 20
-23.6180339887498718
 30
0.0
 11
1.2236067977500049
 21
-1.3819660112501104
 31
0.0
  0
LINE
  5
6E
100
AcDbEntity
  8
F.Cu
 62
256
370
-1
 48
1.0
  6
Continuous
100
AcDbLine
 10
-28.8332479999999975
 20
-9.8713750000000005
 30
0.0
 11
-28.8021570000000082
 21
-9.9092599999999962
 31
0.0
  0
LINE
  5
6F
100
AcDbEntity
  8
cut
 62
256
370
-1
 48
1.0
  6
BYLAYER
100
AcDbLine
 10
-44.7236067977499943
 20
-1.3819660112501317
 30
0.0
 11
-39.2763932022500057
 21
1.3416407864998625
 31
0.0
  0
LINE
  5
70
100
AcDbEntity
  8
cut
 62
256
370
-1
 48
1.0
  6
BYLAYER
100
AcDbLine
 10
1.2236067977499978
 20
-1.3819660112501211
 30
0.0
 11
-4.2236067977499907
 21
1.3416407864998696
 31
0.0
  0
LINE
  5
71
100
AcDbEntity
  8
cut
 62
256
370
-1
 48
1.0
  6
BYLAYER
100
AcDbLine
 10
-44.7236067977499943
 20
-23.6180339887498576
 30
0.0
 11
-39.2763932022500057
 21
-26.3416407864998661
 31
0.0
  0
LINE
  5
72
100
AcDbEntity
  8
cut
 62
256
370
-1
 48
1.0
  6
BYLAYER
100
AcDbLine
 10
1.2236067977500085
 20
-23.6180339887498683
 30
0.0
 11
-4.22360679774998
 21
-26.3416407864998341
 31
0.0
  0
LINE
  5
73
100
AcDbEntity
  8
F.Cu
 62
256
370
-1
 48
1.0
  6
Continuous
100
AcDbLine
 10
-28.8021570000000082
 20
-9.9092599999999962
 30
0.0
 11
-28.7802910000000054
 21
-9.9620510000000024
 31
0.0
  0
LINE
  5
74
100
AcDbEntity
  8
F.Cu
 62
256
370
-1
 48
1.0
  6
Continuous
100
AcDbLine
 10
-28.7802910000000054
 20
-9.9620510000000024
 30
0.0
 11
-28.764829000000006
 21
-9.9993789999999976
 31
0.0
  0
LINE
  5
75
100
AcDbEntity
  8
F.Cu
 62
256
370
-1
 48
1.0
  6
Continuous
100
AcDbLine
 10
-28.764829000000006
 20
-9.9993789999999976
 30
0.0
 11
-28.7600249999999988
 21
-10.0481520000000017
 31
0.0
  0
LINE
  5
76
100
AcDbEntity
  8
F.Cu
 62
256
370
-1
 48
1.0
  6
Continuous
100
AcDbLine
 10
-28.7600249999999988
 20
-10.0481520000000017
 30
0.0
 11
-28.7600249999999988
 21
-17.4445979999999992
 31
0.0
  0
CIRCLE
  5
77
100
AcDbEntity
  8
cut
 62
256
370
-1
 48
1.0
  6
BYLAYER
100
AcDbCircle
 10
-22.5
 20
-10.5500000000000007
 30
0.0
 40
0.25
  0
CIRCLE
  5
78
100
AcDbEntity
  8
cut
 62
256
370
-1
 48
1.0
  6
BYLAYER
100
AcDbCircle
 10
-33.0
 20
-14.0500000000000007
 30
0.0
 40
0.25
  0
CIRCLE
  5
79
100
AcDbEntity
  8
cut
 62
256
370
-1
 48
1.0
  6
BYLAYER
100
AcDbCircle
 10
-10.5
 20
-14.0500000000000007
 30
0.0
 40
0.25
  0
LINE
  5
7A
100
AcDbEntity
  8
F.Cu
 62
256
370
-1
 48
1.0
  6
Continuous
100
AcDbLine
 10
-28.7600249999999988
 20
-17.4445979999999992
 30
0.0
 11
-27.9939710000000019
 21
-18.2106519999999961
 31
0.0
  0
LINE
  5
7B
100
AcDbEntity
  8
F.Cu
 62
256
370
-1
 48
1.0
  6
Continuous
100
AcDbLine
 10
-27.9939710000000019
 20
-18.2106519999999961
 30
0.0
 11
-27.7100250000000017
 21
-18.2106519999999961
 31
0.0
  0
LINE
  5
7C
100
AcDbEntity
  8
F.Cu
 62
256
370
-1
 48
1.0
  6
Continuous
100
AcDbLine
 10
-27.7100250000000017
 20
-18.2106519999999961
 30
0.0
 11
-27.7100250000000017
 21
-18.1981519999999932
 31
0.0
  0
LINE
  5
7D
100
AcDbEntity
  8
F.Cu
 62
256
370
-1
 48
1.0
  6
Continuous
100
AcDbLine
 10
-27.7100250000000017
 20
-18.1981519999999932
 30
0.0
 11
-27.6909950000000009
 21
-18.1024809999999974
 31
0.0
  0
LINE
  5
7E
100
AcDbEntity
  8
F.Cu
 62
256
370
-1
 48
1.0
  6
Continuous
100
AcDbLine
 10
-27.6909950000000009
 20
-18.1024809999999974
 30
0.0
 11
-27.636802000000003
 21
-18.0213749999999919
 31
0.0
  0
LINE
  5
7F
100
AcDbEntity
  8
F.Cu
 62
256
370
-1
 48
1.0
  6
Continuous
100
AcDbLine
 10
-27.636802000000003
 20
-18.0213749999999919
 30
0.0
 11
-27.5556959999999975
 21
-17.967181999999994
 31
0.0
  0
LINE
  5
80
100
AcDbEntity
  8
F.Cu
 62
256
370
-1
 48
1.0
  6
Continuous
100
AcDbLine
 10
-27.5556959999999975
 20
-17.967181999999994
 30
0.0
 11
-27.4600250000000017
 21
-17.9481519999999932
 31
0.0
  0
LINE
  5
81
100
AcDbEntity
  8
F.Cu
 62
256
370
-1
 48
1.0
  6
Continuous
100
AcDbLine
 10
-27.4600250000000017
 20
-17.9481519999999932
 30
0.0
 11
-26.5600250000000102
 21
-17.9481519999999932
 31
0.0
  0
LINE
  5
82
100
AcDbEntity
  8
F.Cu
 62
256
370
-1
 48
1.0
  6
Continuous
100
AcDbLine
 10
-26.5600250000000102
 20
-17.9481519999999932
 30
0.0
 11
-26.4643540000000002
 21
-17.967181999999994
 31
0.0
  0
LINE
  5
83
100
AcDbEntity
  8
F.Cu
 62
256
370
-1
 48
1.0
  6
Continuous
100
AcDbLine
 10
-26.4643540000000002
 20
-17.967181999999994
 30
0.0
 11
-26.3832480000000089
 21
-18.0213749999999919
 31
0.0
  0
LINE
  5
84
100
AcDbEntity
  8
F.Cu
 62
256
370
-1
 48
1.0
  6
Continuous
100
AcDbLine
 10
-26.3832480000000089
 20
-18.0213749999999919
 30
0.0
 11
-26.3290549999999968
 21
-18.1024809999999974
 31
0.0
  0
LINE
  5
85
100
AcDbEntity
  8
F.Cu
 62
256
370
-1
 48
1.0
  6
Continuous
100
AcDbLine
 10
-26.3290549999999968
 20
-18.1024809999999974
 30
0.0
 11
-26.3100250000000102
 21
-18.1981519999999932
 31
0.0
  0
LINE
  5
86
100
AcDbEntity
  8
F.Cu
 62
256
370
-1
 48
1.0
  6
Continuous
100
AcDbLine
 10
-26.3100250000000102
 20
-18.1981519999999932
 30
0.0
 11
-26.3100250000000102
 21
-18.2106519999999961
 31
0.0
  0
LINE
  5
87
100
AcDbEntity
  8
F.Cu
 62
256
370
-1
 48
1.0
  6
Continuous
100
AcDbLine
 10
-26.3100250000000102
 20
-18.2106519999999961
 30
0.0
 11
-25.2100250000000017
 21
-18.2106519999999961
 31
0.0
  0
LINE
  5
88
100
AcDbEntity
  8
F.Cu
 62
256
370
-1
 48
1.0
  6
Continuous
100
AcDbLine
 10
-25.2100250000000017
 20
-18.2106519999999961
 30
0.0
 11
-25.2100250000000017
 21
-18.1981519999999932
 31
0.0
  0
LINE
  5
89
100
AcDbEntity
  8
0
 62
256
370
-1
 48
1.0
  6
Continuous
100
AcDbLine
 10
-34.0
 20
-4.9546299999999972
 30
0.0
 11
-9.5875540000000008
 21
-4.9546299999999972
 31
0.0
  0
LINE
  5
8A
100
AcDbEntity
  8
F.Cu
 62
256
370
-1
 48
1.0
  6
Continuous
100
AcDbLine
 10
-25.2100250000000017
 20
-18.1981519999999932
 30
0.0
 11
-25.1909950000000009
 21
-18.1024809999999974
 31
0.0
  0
LINE
  5
8B
100
AcDbEntity
  8
F.Cu
 62
256
370
-1
 48
1.0
  6
Continuous
100
AcDbLine
 10
-25.1909950000000009
 20
-18.1024809999999974
 30
0.0
 11
-25.136802000000003
 21
-18.0213749999999919
 31
0.0
  0
LINE
  5
8C
100
AcDbEntity
  8
F.Cu
 62
256
370
-1
 48
1.0
  6
Continuous
100
AcDbLine
 10
-25.136802000000003
 20
-18.0213749999999919
 30
0.0
 11
-25.0556959999999975
 21
-17.967181999999994
 31
0.0
  0
LINE
  5
8D
100
AcDbEntity
  8
F.Cu
 62
256
370
-1
 48
1.0
  6
Continuous
100
AcDbLine
 10
-25.0556959999999975
 20
-17.967181999999994
 30
0.0
 11
-24.9600250000000017
 21
-17.9481519999999932
 31
0.0
  0
LINE
  5
8E
100
AcDbEntity
  8
F.Cu
 62
256
370
-1
 48
1.0
  6
Continuous
100
AcDbLine
 10
-24.9600250000000017
 20
-17.9481519999999932
 30
0.0
 11
-24.0600250000000102
 21
-17.9481519999999932
 31
0.0
  0
LINE
  5
8F
100
AcDbEntity
  8
F.Cu
 62
256
370
-1
 48
1.0
  6
Continuous
100
AcDbLine
 10
-24.0600250000000102
 20
-17.9481519999999932
 30
0.0
 11
-23.9643540000000002
 21
-17.967181999999994
 31
0.0
  0
LINE
  5
90
100
AcDbEntity
  8
F.Cu
 62
256
370
-1
 48
1.0
  6
Continuous
100
AcDbLine
 10
-23.9643540000000002
 20
-17.967181999999994
 30
0.0
 11
-23.8832480000000089
 21
-18.0213749999999919
 31
0.0
  0
LINE
  5
91
100
AcDbEntity
  8
F.Cu
 62
256
370
-1
 48
1.0
  6
Continuous
100
AcDbLine
 10
-23.8832480000000089
 20
-18.0213749999999919
 30
0.0
 11
-23.829055000000011
 21
-18.1024809999999974
 31
0.0
  0
LINE
  5
92
100
AcDbEntity
  8
F.Cu
 62
256
370
-1
 48
1.0
  6
Continuous
100
AcDbLine
 10
-23.829055000000011
 20
-18.1024809999999974
 30
0.0
 11
-23.8100250000000102
 21
-18.1981519999999932
 31
0.0
  0
LINE
  5
93
100
AcDbEntity
  8
F.Cu
 62
256
370
-1
 48
1.0
  6
Continuous
100
AcDbLine
 10
-23.8100250000000102
 20
-18.1981519999999932
 30
0.0
 11
-23.8100250000000102
 21
-18.2106519999999961
 31
0.0
  0
LINE
  5
94
100
AcDbEntity
  8
F.Cu
 62
256
370
-1
 48
1.0
  6
Continuous
100
AcDbLine
 10
-23.8100250000000102
 20
-18.2106519999999961
 30
0.0
 11
-22.7100250000000017
 21
-18.2106519999999961
 31
0.0
  0
LINE
  5
95
100
AcDbEntity
  8
F.Cu
 62
256
370
-1
 48
1.0
  6
Continuous
100
AcDbLine
 10
-22.7100250000000017
 20
-18.2106519999999961
 30
0.0
 11
-22.7100250000000017
 21
-18.1981519999999932
 31
0.0
  0
LINE
  5
96
100
AcDbEntity
  8
F.Cu
 62
256
370
-1
 48
1.0
  6
Continuous
100
AcDbLine
 10
-22.7100250000000017
 20
-18.1981519999999932
 30
0.0
 11
-22.6909950000000009
 21
-18.1024809999999974
 31
0.0
  0
LINE
  5
97
100
AcDbEntity
  8
F.Cu
 62
256
370
-1
 48
1.0
  6
Continuous
100
AcDbLine
 10
-22.6909950000000009
 20
-18.1024809999999974
 30
0.0
 11
-22.636802000000003
 21
-18.0213749999999919
 31
0.0
  0
LINE
  5
98
100
AcDbEntity
  8
F.Cu
 62
256
370
-1
 48
1.0
  6
Continuous
100
AcDbLine
 10
-22.636802000000003
 20
-18.0213749999999919
 30
0.0
 11
-22.5556959999999975
 21
-17.967181999999994
 31
0.0
  0
LINE
  5
99
100
AcDbEntity
  8
F.Cu
 62
256
370
-1
 48
1.0
  6
Continuous
100
AcDbLine
 10
-22.5556959999999975
 20
-17.967181999999994
 30
0.0
 11
-22.4600250000000017
 21
-17.9481519999999932
 31
0.0
  0
LINE
  5
9A
100
AcDbEntity
  8
F.Cu
 62
256
370
-1
 48
1.0
  6
Continuous
100
AcDbLine
 10
-22.4600250000000017
 20
-17.9481519999999932
 30
0.0
 11
-21.5600250000000102
 21
-17.9481519999999932
 31
0.0
  0
LINE
  5
9B
100
AcDbEntity
  8
F.Cu
 62
256
370
-1
 48
1.0
  6
Continuous
100
AcDbLine
 10
-21.5600250000000102
 20
-17.9481519999999932
 30
0.0
 11
-21.4643540000000002
 21
-17.967181999999994
 31
0.0
  0
LINE
  5
9C
100
AcDbEntity
  8
F.Cu
 62
256
370
-1
 48
1.0
  6
Continuous
100
AcDbLine
 10
-21.4643540000000002
 20
-17.967181999999994
 30
0.0
 11
-21.3832480000000089
 21
-18.0213749999999919
 31
0.0
  0
LINE
  5
9D
100
AcDbEntity
  8
F.Cu
 62
256
370
-1
 48
1.0
  6
Continuous
100
AcDbLine
 10
-21.3832480000000089
 20
-18.0213749999999919
 30
0.0
 11
-21.329055000000011
 21
-18.1024809999999974
 31
0.0
  0
LINE
  5
9E
100
AcDbEntity
  8
0
 62
256
370
-1
 48
1.0
  6
Continuous
100
AcDbLine
 10
-7.5875540000000115
 20
-6.9546299999999981
 30
0.0
 11
-7.5875540000000115
 21
-18.0500000000000043
 31
0.0
  0
LINE
  5
9F
100
AcDbEntity
  8
F.Cu
 62
256
370
-1
 48
1.0
  6
Continuous
100
AcDbLine
 10
-21.329055000000011
 20
-18.1024809999999974
 30
0.0
 11
-21.3100250000000102
 21
-18.1981519999999932
 31
0.0
  0
LINE
  5
A0
100
AcDbEntity
  8
F.Cu
 62
256
370
-1
 48
1.0
  6
Continuous
100
AcDbLine
 10
-21.3100250000000102
 20
-18.1981519999999932
 30
0.0
 11
-21.3100250000000102
 21
-18.2106519999999961
 31
0.0
  0
LINE
  5
A1
100
AcDbEntity
  8
F.Cu
 62
256
370
-1
 48
1.0
  6
Continuous
100
AcDbLine
 10
-21.3100250000000102
 20
-18.2106519999999961
 30
0.0
 11
-20.2100250000000017
 21
-18.2106519999999961
 31
0.0
  0
LINE
  5
A2
100
AcDbEntity
  8
F.Cu
 62
256
370
-1
 48
1.0
  6
Continuous
100
AcDbLine
 10
-20.2100250000000017
 20
-18.2106519999999961
 30
0.0
 11
-20.2100250000000017
 21
-18.1981519999999932
 31
0.0
  0
LINE
  5
A3
100
AcDbEntity
  8
F.Cu
 62
256
370
-1
 48
1.0
  6
Continuous
100
AcDbLine
 10
-20.2100250000000017
 20
-18.1981519999999932
 30
0.0
 11
-20.1909950000000009
 21
-18.1024809999999974
 31
0.0
  0
LINE
  5
A4
100
AcDbEntity
  8
F.Cu
 62
256
370
-1
 48
1.0
  6
Continuous
100
AcDbLine
 10
-20.1909950000000009
 20
-18.1024809999999974
 30
0.0
 11
-20.136802000000003
 21
-18.0213749999999919
 31
0.0
  0
LINE
  5
A5
100
AcDbEntity
  8
F.Cu
 62
256
370
-1
 48
1.0
  6
Continuous
100
AcDbLine
 10
-20.136802000000003
 20
-18.0213749999999919
 30
0.0
 11
-20.0556959999999975
 21
-17.967181999999994
 31
0.0
  0
LINE
  5
A6
100
AcDbEntity
  8
F.Cu
 62
256
370
-1
 48
1.0
  6
Continuous
100
AcDbLine
 10
-20.0556959999999975
 20
-17.967181999999994
 30
0.0
 11
-19.9600250000000017
 21
-17.9481519999999932
 31
0.0
  0
LINE
  5
A7
100
AcDbEntity
  8
F.Cu
 62
256
370
-1
 48
1.0
  6
Continuous
100
AcDbLine
 10
-19.9600250000000017
 20
-17.9481519999999932
 30
0.0
 11
-19.0600250000000102
 21
-17.9481519999999932
 31
0.0
  0
LINE
  5
A8
100
AcDbEntity
  8
F.Cu
 62
256
370
-1
 48
1.0
  6
Continuous
100
AcDbLine
 10
-19.0600250000000102
 20
-17.9481519999999932
 30
0.0
 11
-18.9643540000000002
 21
-17.967181999999994
 31
0.0
  0
LINE
  5
A9
100
AcDbEntity
  8
F.Cu
 62
256
370
-1
 48
1.0
  6
Continuous
100
AcDbLine
 10
-18.9643540000000002
 20
-17.967181999999994
 30
0.0
 11
-18.8832480000000089
 21
-18.0213749999999919
 31
0.0
  0
LINE
  5
AA
100
AcDbEntity
  8
F.Cu
 62
256
370
-1
 48
1.0
  6
Continuous
100
AcDbLine
 10
-18.8832480000000089
 20
-18.0213749999999919
 30
0.0
 11
-18.829055000000011
 21
-18.1024809999999974
 31
0.0
  0
LINE
  5
AB
100
AcDbEntity
  8
F.Cu
 62
256
370
-1
 48
1.0
  6
Continuous
100
AcDbLine
 10
-18.829055000000011
 20
-18.1024809999999974
 30
0.0
 11
-18.8100250000000102
 21
-18.1981519999999932
 31
0.0
  0
LINE
  5
AC
100
AcDbEntity
  8
F.Cu
 62
256
370
-1
 48
1.0
  6
Continuous
100
AcDbLine
 10
-18.8100250000000102
 20
-18.1981519999999932
 30
0.0
 11
-18.8100250000000102
 21
-18.2106519999999961
 31
0.0
  0
LINE
  5
AD
100
AcDbEntity
  8
F.Cu
 62
256
370
-1
 48
1.0
  6
Continuous
100
AcDbLine
 10
-18.8100250000000102
 20
-18.2106519999999961
 30
0.0
 11
-17.7100250000000017
 21
-18.2106519999999961
 31
0.0
  0
LINE
  5
AE
100
AcDbEntity
  8
F.Cu
 62
256
370
-1
 48
1.0
  6
Continuous
100
AcDbLine
 10
-17.7100250000000017
 20
-18.2106519999999961
 30
0.0
 11
-17.7100250000000017
 21
-18.1981519999999932
 31
0.0
  0
LINE
  5
AF
100
AcDbEntity
  8
F.Cu
 62
256
370
-1
 48
1.0
  6
Continuous
100
AcDbLine
 10
-17.7100250000000017
 20
-18.1981519999999932
 30
0.0
 11
-17.6909950000000009
 21
-18.1024809999999974
 31
0.0
  0
LINE
  5
B0
100
AcDbEntity
  8
F.Cu
 62
256
370
-1
 48
1.0
  6
Continuous
100
AcDbLine
 10
-17.6909950000000009
 20
-18.1024809999999974
 30
0.0
 11
-17.636802000000003
 21
-18.0213749999999919
 31
0.0
  0
LINE
  5
B1
100
AcDbEntity
  8
F.Cu
 62
256
370
-1
 48
1.0
  6
Continuous
100
AcDbLine
 10
-17.636802000000003
 20
-18.0213749999999919
 30
0.0
 11
-17.5556959999999975
 21
-17.967181999999994
 31
0.0
  0
LINE
  5
B2
100
AcDbEntity
  8
F.Cu
 62
256
370
-1
 48
1.0
  6
Continuous
100
AcDbLine
 10
-17.5556959999999975
 20
-17.967181999999994
 30
0.0
 11
-17.4600250000000017
 21
-17.9481519999999932
 31
0.0
  0
LINE
  5
B3
100
AcDbEntity
  8
0
 62
256
370
-1
 48
1.0
  6
Continuous
100
AcDbLine
 10
-9.5875540000000079
 20
-20.0500000000000043
 30
0.0
 11
-34.0
 21
-20.0500000000000043
 31
0.0
  0
LINE
  5
B4
100
AcDbEntity
  8
F.Cu
 62
256
370
-1
 48
1.0
  6
Continuous
100
AcDbLine
 10
-17.4600250000000017
 20
-17.9481519999999932
 30
0.0
 11
-16.5600250000000102
 21
-17.9481519999999932
 31
0.0
  0
LINE
  5
B5
100
AcDbEntity
  8
F.Cu
 62
256
370
-1
 48
1.0
  6
Continuous
100
AcDbLine
 10
-16.5600250000000102
 20
-17.9481519999999932
 30
0.0
 11
-16.4643540000000002
 21
-17.967181999999994
 31
0.0
  0
LINE
  5
B6
100
AcDbEntity
  8
F.Cu
 62
256
370
-1
 48
1.0
  6
Continuous
100
AcDbLine
 10
-16.4643540000000002
 20
-17.967181999999994
 30
0.0
 11
-16.3832480000000089
 21
-18.0213749999999919
 31
0.0
  0
LINE
  5
B7
100
AcDbEntity
  8
F.Cu
 62
256
370
-1
 48
1.0
  6
Continuous
100
AcDbLine
 10
-16.3832480000000089
 20
-18.0213749999999919
 30
0.0
 11
-16.3646450000000101
 21
-18.0492169999999987
 31
0.0
  0
LINE
  5
B8
100
AcDbEntity
  8
F.Cu
 62
256
370
-1
 48
1.0
  6
Continuous
100
AcDbLine
 10
-16.3646450000000101
 20
-18.0492169999999987
 30
0.0
 11
-14.7600249999999988
 21
-16.4445979999999992
 31
0.0
  0
LINE
  5
B9
100
AcDbEntity
  8
F.Cu
 62
256
370
-1
 48
1.0
  6
Continuous
100
AcDbLine
 10
-14.7600249999999988
 20
-16.4445979999999992
 30
0.0
 11
-14.7600249999999988
 21
-14.6491450000000043
 31
0.0
  0
CIRCLE
  5
BA
100
AcDbEntity
  8
0
 62
256
370
-1
 48
1.0
  6
BYLAYER
100
AcDbCircle
 10
-35.0
 20
-21.9999999999999964
 30
0.0
 40
1.6000000000000001
  0
CIRCLE
  5
BB
100
AcDbEntity
  8
0
 62
256
370
-1
 48
1.0
  6
BYLAYER
100
AcDbCircle
 10
-35.0
 20
-3.0000000000000036
 30
0.0
 40
1.6000000000000001
  0
LINE
  5
BC
100
AcDbEntity
  8
F.Cu
 62
256
370
-1
 48
1.0
  6
Continuous
100
AcDbLine
 10
-14.7600249999999988
 20
-14.6491450000000043
 30
0.0
 11
-14.7836280000000073
 21
-14.6685140000000018
 31
0.0
  0
LINE
  5
BD
100
AcDbEntity
  8
F.Cu
 62
256
370
-1
 48
1.0
  6
Continuous
100
AcDbLine
 10
-14.7836280000000073
 20
-14.6685140000000018
 30
0.0
 11
-14.7836320000000114
 21
-14.6685190000000034
 31
0.0
  0
LINE
  5
BE
100
AcDbEntity
  8
F.Cu
 62
256
370
-1
 48
1.0
  6
Continuous
100
AcDbLine
 10
-14.7836320000000114
 20
-14.6685190000000034
 30
0.0
 11
-14.8737520000000103
 21
-14.7058480000000031
 31
0.0
  0
LINE
  5
BF
100
AcDbEntity
  8
F.Cu
 62
256
370
-1
 48
1.0
  6
Continuous
100
AcDbLine
 10
-14.8737520000000103
 20
-14.7058480000000031
 30
0.0
 11
-14.9225250000000074
 21
-14.7106519999999961
 31
0.0
  0
LINE
  5
C0
100
AcDbEntity
  8
F.Cu
 62
256
370
-1
 48
1.0
  6
Continuous
100
AcDbLine
 10
-14.9225250000000074
 20
-14.7106519999999961
 30
0.0
 11
-15.8100250000000102
 21
-14.7106519999999961
 31
0.0
  0
LINE
  5
C1
100
AcDbEntity
  8
F.Cu
 62
256
370
-1
 48
1.0
  6
Continuous
100
AcDbLine
 10
-15.8100250000000102
 20
-14.7106519999999961
 30
0.0
 11
-15.8100250000000102
 21
-14.7231519999999989
 31
0.0
  0
LINE
  5
C2
100
AcDbEntity
  8
F.Cu
 62
256
370
-1
 48
1.0
  6
Continuous
100
AcDbLine
 10
-15.8100250000000102
 20
-14.7231519999999989
 30
0.0
 11
-15.829055000000011
 21
-14.8188229999999947
 31
0.0
  0
LINE
  5
C3
100
AcDbEntity
  8
F.Cu
 62
256
370
-1
 48
1.0
  6
Continuous
100
AcDbLine
 10
-15.829055000000011
 20
-14.8188229999999947
 30
0.0
 11
-15.8832480000000089
 21
-14.8999290000000002
 31
0.0
  0
LINE
  5
C4
100
AcDbEntity
  8
F.Cu
 62
256
370
-1
 48
1.0
  6
Continuous
100
AcDbLine
 10
-15.8832480000000089
 20
-14.8999290000000002
 30
0.0
 11
-15.9643540000000002
 21
-14.9541219999999981
 31
0.0
  0
LINE
  5
C5
100
AcDbEntity
  8
F.Cu
 62
256
370
-1
 48
1.0
  6
Continuous
100
AcDbLine
 10
-15.9643540000000002
 20
-14.9541219999999981
 30
0.0
 11
-16.0600250000000102
 21
-14.9731519999999989
 31
0.0
  0
LINE
  5
C6
100
AcDbEntity
  8
F.Cu
 62
256
370
-1
 48
1.0
  6
Continuous
100
AcDbLine
 10
-16.0600250000000102
 20
-14.9731519999999989
 30
0.0
 11
-16.9600250000000017
 21
-14.9731519999999989
 31
0.0
  0
LINE
  5
C7
100
AcDbEntity
  8
F.Cu
 62
256
370
-1
 48
1.0
  6
Continuous
100
AcDbLine
 10
-16.9600250000000017
 20
-14.9731519999999989
 30
0.0
 11
-17.0556959999999975
 21
-14.9541219999999981
 31
0.0
  0
LINE
  5
C8
100
AcDbEntity
  8
F.Cu
 62
256
370
-1
 48
1.0
  6
Continuous
100
AcDbLine
 10
-17.0556959999999975
 20
-14.9541219999999981
 30
0.0
 11
-17.136802000000003
 21
-14.8999290000000002
 31
0.0
  0
LINE
  5
C9
100
AcDbEntity
  8
0
 62
256
370
-1
 48
1.0
  6
Continuous
100
AcDbLine
 10
-36.0
 20
-18.0500000000000043
 30
0.0
 11
-36.0
 21
-6.9546299999999981
 31
0.0
  0
LINE
  5
CA
100
AcDbEntity
  8
F.Cu
 62
256
370
-1
 48
1.0
  6
Continuous
100
AcDbLine
 10
-17.136802000000003
 20
-14.8999290000000002
 30
0.0
 11
-17.1909950000000009
 21
-14.8188229999999947
 31
0.0
  0
CIRCLE
  5
CB
100
AcDbEntity
  8
0
 62
256
370
-1
 48
1.0
  6
BYLAYER
100
AcDbCircle
 10
-10.5
 20
-14.0500000000000007
 30
0.0
 40
1.5
  0
LINE
  5
CC
100
AcDbEntity
  8
F.Cu
 62
256
370
-1
 48
1.0
  6
Continuous
100
AcDbLine
 10
-17.1909950000000009
 20
-14.8188229999999947
 30
0.0
 11
-17.2100250000000017
 21
-14.7231519999999989
 31
0.0
  0
CIRCLE
  5
CD
100
AcDbEntity
  8
0
 62
256
370
-1
 48
1.0
  6
BYLAYER
100
AcDbCircle
 10
-33.0
 20
-14.0500000000000007
 30
0.0
 40
1.5811389999999999
  0
LINE
  5
CE
100
AcDbEntity
  8
F.Cu
 62
256
370
-1
 48
1.0
  6
Continuous
100
AcDbLine
 10
-17.2100250000000017
 20
-14.7231519999999989
 30
0.0
 11
-17.2100250000000017
 21
-14.1981519999999932
 31
0.0
  0
CIRCLE
  5
CF
100
AcDbEntity
  8
0
 62
256
370
-1
 48
1.0
  6
BYLAYER
100
AcDbCircle
 10
-22.5
 20
-10.5500000000000007
 30
0.0
 40
1.5
  0
LINE
  5
D0
100
AcDbEntity
  8
F.Cu
 62
256
370
-1
 48
1.0
  6
Continuous
100
AcDbLine
 10
-17.2100250000000017
 20
-14.1981519999999932
 30
0.0
 11
-17.1909950000000009
 21
-14.1024809999999974
 31
0.0
  0
ARC
  5
D1
100
AcDbEntity
  8
0
 62
256
370
-1
 48
1.0
  6
BYLAYER
100
AcDbCircle
 10
-34.0
 20
-6.9546299999999981
 30
0.0
 40
2.0
100
AcDbArc
 50
90.0
 51
180.0
  0
ARC
  5
D2
100
AcDbEntity
  8
0
 62
256
370
-1
 48
1.0
  6
BYLAYER
100
AcDbCircle
 10
-34.0
 20
-18.0500000000000043
 30
0.0
 40
2.0
100
AcDbArc
 50
180.0
 51
270.0
  0
LINE
  5
D3
100
AcDbEntity
  8
F.Cu
 62
256
370
-1
 48
1.0
  6
Continuous
100
AcDbLine
 10
-17.1909950000000009
 20
-14.1024809999999974
 30
0.0
 11
-17.136802000000003
 21
-14.0213749999999919
 31
0.0
  0
ARC
  5
D4
100
AcDbEntity
  8
0
 62
256
370
-1
 48
1.0
  6
BYLAYER
100
AcDbCircle
 10
-9.5875540000000079
 20
-18.0500000000000043
 30
0.0
 40
2.0
100
AcDbArc
 50
270.0
 51
0.0
  0
ARC
  5
D5
100
AcDbEntity
  8
0
 62
256
370
-1
 48
1.0
  6
BYLAYER
100
AcDbCircle
 10
-9.5875540000000079
 20
-6.9546299999999981
 30
0.0
 40
2.0
100
AcDbArc
 50
0.0
 51
89.9999999999999005
  0
LINE
  5
D6
100
AcDbEntity
  8
F.Cu
 62
256
370
-1
 48
1.0
  6
Continuous
100
AcDbLine
 10
-17.136802000000003
 20
-14.0213749999999919
 30
0.0
 11
-17.0556959999999975
 21
-13.967181999999994
 31
0.0
  0
LINE
  5
D7
100
AcDbEntity
  8
0
 62
256
370
-1
 48
1.0
  6
BYLAYER
100
AcDbLine
 10
-3.9999999999999996
 20
0.0
 30
0.0
 11
-39.4999999999999929
 21
0.0
 31
0.0
  0
LINE
  5
D8
100
AcDbEntity
  8
0
 62
256
370
-1
 48
1.0
  6
BYLAYER
100
AcDbLine
 10
-4.0
 20
-25.0
 30
0.0
 11
-39.4999999999999858
 21
-25.0
 31
0.0
  0
LINE
  5
D9
100
AcDbEntity
  8
F.Cu
 62
256
370
-1
 48
1.0
  6
Continuous
100
AcDbLine
 10
-17.0556959999999975
 20
-13.967181999999994
 30
0.0
 11
-16.9600250000000017
 21
-13.9481519999999932
 31
0.0
  0
LINE
  5
DA
100
AcDbEntity
  8
F.Cu
 62
256
370
-1
 48
1.0
  6
Continuous
100
AcDbLine
 10
-16.9600250000000017
 20
-13.9481519999999932
 30
0.0
 11
-16.0600250000000102
 21
-13.9481519999999932
 31
0.0
  0
LINE
  5
DB
100
AcDbEntity
  8
F.Cu
 62
256
370
-1
 48
1.0
  6
Continuous
100
AcDbLine
 10
-16.0600250000000102
 20
-13.9481519999999932
 30
0.0
 11
-15.9643540000000002
 21
-13.967181999999994
 31
0.0
  0
LINE
  5
DC
100
AcDbEntity
  8
F.Cu
 62
256
370
-1
 48
1.0
  6
Continuous
100
AcDbLine
 10
-15.9643540000000002
 20
-13.967181999999994
 30
0.0
 11
-15.8832480000000089
 21
-14.0213749999999919
 31
0.0
  0
LINE
  5
DD
100
AcDbEntity
  8
F.Cu
 62
256
370
-1
 48
1.0
  6
Continuous
100
AcDbLine
 10
-15.8832480000000089
 20
-14.0213749999999919
 30
0.0
 11
-15.829055000000011
 21
-14.1024809999999974
 31
0.0
  0
LINE
  5
DE
100
AcDbEntity
  8
F.Cu
 62
256
370
-1
 48
1.0
  6
Continuous
100
AcDbLine
 10
-15.829055000000011
 20
-14.1024809999999974
 30
0.0
 11
-15.8100250000000102
 21
-14.1981519999999932
 31
0.0
  0
LINE
  5
DF
100
AcDbEntity
  8
F.Cu
 62
256
370
-1
 48
1.0
  6
Continuous
100
AcDbLine
 10
-15.8100250000000102
 20
-14.1981519999999932
 30
0.0
 11
-15.8100250000000102
 21
-14.2106519999999961
 31
0.0
  0
LINE
  5
E0
100
AcDbEntity
  8
F.Cu
 62
256
370
-1
 48
1.0
  6
Continuous
100
AcDbLine
 10
-15.8100250000000102
 20
-14.2106519999999961
 30
0.0
 11
-15.02607900000001
 21
-14.2106519999999961
 31
0.0
  0
LINE
  5
E1
100
AcDbEntity
  8
F.Cu
 62
256
370
-1
 48
1.0
  6
Continuous
100
AcDbLine
 10
-15.02607900000001
 20
-14.2106519999999961
 30
0.0
 11
-14.7600249999999988
 21
-13.9445979999999992
 31
0.0
  0
LINE
  5
E2
100
AcDbEntity
  8
F.Cu
 62
256
370
-1
 48
1.0
  6
Continuous
100
AcDbLine
 10
-14.7600249999999988
 20
-13.9445979999999992
 30
0.0
 11
-14.7600249999999988
 21
-10.0481520000000017
 31
0.0
  0
LINE
  5
E3
100
AcDbEntity
  8
F.Cu
 62
256
370
-1
 48
1.0
  6
Continuous
100
AcDbLine
 10
-14.7600249999999988
 20
-10.0481520000000017
 30
0.0
 11
-14.7552210000000059
 21
-9.9993789999999976
 31
0.0
  0
LINE
  5
E4
100
AcDbEntity
  8
F.Cu
 62
256
370
-1
 48
1.0
  6
Continuous
100
AcDbLine
 10
-14.7552210000000059
 20
-9.9993789999999976
 30
0.0
 11
-14.7178920000000062
 21
-9.9092589999999987
 31
0.0
  0
LINE
  5
E5
100
AcDbEntity
  8
F.Cu
 62
256
370
-1
 48
1.0
  6
Continuous
100
AcDbLine
 10
-14.7178920000000062
 20
-9.9092589999999987
 30
0.0
 11
-14.7178880000000021
 21
-9.9092539999999971
 31
0.0
  0
LINE
  5
E6
100
AcDbEntity
  8
F.Cu
 62
256
370
-1
 48
1.0
  6
Continuous
100
AcDbLine
 10
-14.7178880000000021
 20
-9.9092539999999971
 30
0.0
 11
-14.6868020000000001
 21
-9.8713750000000005
 31
0.0
  0
LINE
  5
E7
100
AcDbEntity
  8
F.Cu
 62
256
370
-1
 48
1.0
  6
Continuous
100
AcDbLine
 10
-14.6868020000000001
 20
-9.8713750000000005
 30
0.0
 11
-14.1850250000000102
 21
-9.3695979999999963
 31
0.0
  0
LINE
  5
E8
100
AcDbEntity
  8
F.Cu
 62
256
370
-1
 48
1.0
  6
Continuous
100
AcDbLine
 10
-14.1850250000000102
 20
-9.3695979999999963
 30
0.0
 11
-14.1850250000000102
 21
-8.5561519999999955
 31
0.0
  0
LINE
  5
E9
100
AcDbEntity
  8
F.Cu
 62
256
370
-1
 48
1.0
  6
Continuous
100
AcDbLine
 10
-14.1850250000000102
 20
-8.5561519999999955
 30
0.0
 11
-7.8350250000000159
 21
-8.5561519999999955
 31
0.0
  0
LINE
  5
EA
100
AcDbEntity
  8
F.Cu
 62
256
370
-1
 48
1.0
  6
Continuous
100
AcDbLine
 10
-7.8350250000000159
 20
-8.5561519999999955
 30
0.0
 11
-7.8350250000000159
 21
-10.0801519999999982
 31
0.0
  0
LINE
  5
EB
100
AcDbEntity
  8
F.Cu
 62
256
370
-1
 48
1.0
  6
Continuous
100
AcDbLine
 10
-7.8350250000000159
 20
-10.0801519999999982
 30
0.0
 11
-14.1850250000000102
 21
-10.0801519999999982
 31
0.0
  0
LINE
  5
EC
100
AcDbEntity
  8
F.Cu
 62
256
370
-1
 48
1.0
  6
Continuous
100
AcDbLine
 10
-14.1850250000000102
 20
-10.0801519999999982
 30
0.0
 11
-14.1850250000000102
 21
-10.0767060000000015
 31
0.0
  0
LINE
  5
ED
100
AcDbEntity
  8
F.Cu
 62
256
370
-1
 48
1.0
  6
Continuous
100
AcDbLine
 10
-14.1850250000000102
 20
-10.0767060000000015
 30
0.0
 11
-14.2600249999999988
 21
-10.1517059999999972
 31
0.0
  0
LINE
  5
EE
100
AcDbEntity
  8
F.Cu
 62
256
370
-1
 48
1.0
  6
Continuous
100
AcDbLine
 10
-14.2600249999999988
 20
-10.1517059999999972
 30
0.0
 11
-14.2600249999999988
 21
-14.0481520000000017
 31
0.0
  0
LINE
  5
EF
100
AcDbEntity
  8
F.Cu
 62
256
370
-1
 48
1.0
  6
Continuous
100
AcDbLine
 10
-14.2600249999999988
 20
-14.0481520000000017
 30
0.0
 11
-14.2600249999999988
 21
-16.5481520000000017
 31
0.0
  0
LINE
  5
F0
100
AcDbEntity
  8
F.Cu
 62
256
370
-1
 48
1.0
  6
Continuous
100
AcDbLine
 10
-14.2600249999999988
 20
-16.5481520000000017
 30
0.0
 11
-14.264829000000006
 21
-16.5969249999999988
 31
0.0
  0
LINE
  5
F1
100
AcDbEntity
  8
F.Cu
 62
256
370
-1
 48
1.0
  6
Continuous
100
AcDbLine
 10
-14.264829000000006
 20
-16.5969249999999988
 30
0.0
 11
-14.3021580000000057
 21
-16.6870449999999977
 31
0.0
  0
LINE
  5
F2
100
AcDbEntity
  8
F.Cu
 62
256
370
-1
 48
1.0
  6
Continuous
100
AcDbLine
 10
-14.3021580000000057
 20
-16.6870449999999977
 30
0.0
 11
-14.3021630000000073
 21
-16.6870490000000018
 31
0.0
  0
LINE
  5
F3
100
AcDbEntity
  8
F.Cu
 62
256
370
-1
 48
1.0
  6
Continuous
100
AcDbLine
 10
-14.3021630000000073
 20
-16.6870490000000018
 30
0.0
 11
-14.3332490000000092
 21
-16.724929000000003
 31
0.0
  0
LINE
  5
F4
100
AcDbEntity
  8
F.Cu
 62
256
370
-1
 48
1.0
  6
Continuous
100
AcDbLine
 10
-14.3332490000000092
 20
-16.724929000000003
 30
0.0
 11
-16.2457480000000061
 21
-18.6374289999999974
 31
0.0
  0
LINE
  5
F5
100
AcDbEntity
  8
F.Cu
 62
256
370
-1
 48
1.0
  6
Continuous
100
AcDbLine
 10
-16.2457480000000061
 20
-18.6374289999999974
 30
0.0
 11
-16.2836280000000073
 21
-18.6685140000000018
 31
0.0
  0
LINE
  5
F6
100
AcDbEntity
  8
F.Cu
 62
256
370
-1
 48
1.0
  6
Continuous
100
AcDbLine
 10
-16.2836280000000073
 20
-18.6685140000000018
 30
0.0
 11
-16.2836320000000114
 21
-18.6685190000000034
 31
0.0
  0
LINE
  5
F7
100
AcDbEntity
  8
F.Cu
 62
256
370
-1
 48
1.0
  6
Continuous
100
AcDbLine
 10
-16.2836320000000114
 20
-18.6685190000000034
 30
0.0
 11
-16.3100250000000102
 21
-18.6794510000000002
 31
0.0
  0
LINE
  5
F8
100
AcDbEntity
  8
F.Cu
 62
256
370
-1
 48
1.0
  6
Continuous
100
AcDbLine
 10
-16.3100250000000102
 20
-18.6794510000000002
 30
0.0
 11
-16.3100250000000102
 21
-18.7231519999999989
 31
0.0
  0
LINE
  5
F9
100
AcDbEntity
  8
F.Cu
 62
256
370
-1
 48
1.0
  6
Continuous
100
AcDbLine
 10
-16.3100250000000102
 20
-18.7231519999999989
 30
0.0
 11
-16.329055000000011
 21
-18.8188229999999947
 31
0.0
  0
LINE
  5
FA
100
AcDbEntity
  8
F.Cu
 62
256
370
-1
 48
1.0
  6
Continuous
100
AcDbLine
 10
-16.329055000000011
 20
-18.8188229999999947
 30
0.0
 11
-16.3832480000000089
 21
-18.8999290000000002
 31
0.0
  0
LINE
  5
FB
100
AcDbEntity
  8
F.Cu
 62
256
370
-1
 48
1.0
  6
Continuous
100
AcDbLine
 10
-16.3832480000000089
 20
-18.8999290000000002
 30
0.0
 11
-16.4643540000000002
 21
-18.9541219999999981
 31
0.0
  0
LINE
  5
FC
100
AcDbEntity
  8
F.Cu
 62
256
370
-1
 48
1.0
  6
Continuous
100
AcDbLine
 10
-16.4643540000000002
 20
-18.9541219999999981
 30
0.0
 11
-16.5600250000000102
 21
-18.9731519999999989
 31
0.0
  0
LINE
  5
FD
100
AcDbEntity
  8
F.Cu
 62
256
370
-1
 48
1.0
  6
Continuous
100
AcDbLine
 10
-16.5600250000000102
 20
-18.9731519999999989
 30
0.0
 11
-17.4600250000000017
 21
-18.9731519999999989
 31
0.0
  0
LINE
  5
FE
100
AcDbEntity
  8
F.Cu
 62
256
370
-1
 48
1.0
  6
Continuous
100
AcDbLine
 10
-17.4600250000000017
 20
-18.9731519999999989
 30
0.0
 11
-17.5556959999999975
 21
-18.9541219999999981
 31
0.0
  0
LINE
  5
FF
100
AcDbEntity
  8
F.Cu
 62
256
370
-1
 48
1.0
  6
Continuous
100
AcDbLine
 10
-17.5556959999999975
 20
-18.9541219999999981
 30
0.0
 11
-17.636802000000003
 21
-18.8999290000000002
 31
0.0
  0
LINE
  5
100
100
AcDbEntity
  8
F.Cu
 62
256
370
-1
 48
1.0
  6
Continuous
100
AcDbLine
 10
-17.636802000000003
 20
-18.8999290000000002
 30
0.0
 11
-17.6909950000000009
 21
-18.8188229999999947
 31
0.0
  0
LINE
  5
101
100
AcDbEntity
  8
F.Cu
 62
256
370
-1
 48
1.0
  6
Continuous
100
AcDbLine
 10
-17.6909950000000009
 20
-18.8188229999999947
 30
0.0
 11
-17.7100250000000017
 21
-18.7231519999999989
 31
0.0
  0
LINE
  5
102
100
AcDbEntity
  8
F.Cu
 62
256
370
-1
 48
1.0
  6
Continuous
100
AcDbLine
 10
-17.7100250000000017
 20
-18.7231519999999989
 30
0.0
 11
-17.7100250000000017
 21
-18.7106519999999961
 31
0.0
  0
LINE
  5
103
100
AcDbEntity
  8
F.Cu
 62
256
370
-1
 48
1.0
  6
Continuous
100
AcDbLine
 10
-17.7100250000000017
 20
-18.7106519999999961
 30
0.0
 11
-18.8100250000000102
 21
-18.7106519999999961
 31
0.0
  0
LINE
  5
104
100
AcDbEntity
  8
F.Cu
 62
256
370
-1
 48
1.0
  6
Continuous
100
AcDbLine
 10
-18.8100250000000102
 20
-18.7106519999999961
 30
0.0
 11
-18.8100250000000102
 21
-18.7231519999999989
 31
0.0
  0
LINE
  5
105
100
AcDbEntity
  8
F.Cu
 62
256
370
-1
 48
1.0
  6
Continuous
100
AcDbLine
 10
-18.8100250000000102
 20
-18.7231519999999989
 30
0.0
 11
-18.829055000000011
 21
-18.8188229999999947
 31
0.0
  0
LINE
  5
106
100
AcDbEntity
  8
F.Cu
 62
256
370
-1
 48
1.0
  6
Continuous
100
AcDbLine
 10
-18.829055000000011
 20
-18.8188229999999947
 30
0.0
 11
-18.8832480000000089
 21
-18.8999290000000002
 31
0.0
  0
LINE
  5
107
100
AcDbEntity
  8
F.Cu
 62
256
370
-1
 48
1.0
  6
Continuous
100
AcDbLine
 10
-18.8832480000000089
 20
-18.8999290000000002
 30
0.0
 11
-18.9643540000000002
 21
-18.9541219999999981
 31
0.0
  0
LINE
  5
108
100
AcDbEntity
  8
F.Cu
 62
256
370
-1
 48
1.0
  6
Continuous
100
AcDbLine
 10
-18.9643540000000002
 20
-18.9541219999999981
 30
0.0
 11
-19.0600250000000102
 21
-18.9731519999999989
 31
0.0
  0
LINE
  5
109
100
AcDbEntity
  8
F.Cu
 62
256
370
-1
 48
1.0
  6
Continuous
100
AcDbLine
 10
-19.0600250000000102
 20
-18.9731519999999989
 30
0.0
 11
-19.9600250000000017
 21
-18.9731519999999989
 31
0.0
  0
LINE
  5
10A
100
AcDbEntity
  8
F.Cu
 62
256
370
-1
 48
1.0
  6
Continuous
100
AcDbLine
 10
-19.9600250000000017
 20
-18.9731519999999989
 30
0.0
 11
-20.0556959999999975
 21
-18.9541219999999981
 31
0.0
  0
LINE
  5
10B
100
AcDbEntity
  8
F.Cu
 62
256
370
-1
 48
1.0
  6
Continuous
100
AcDbLine
 10
-20.0556959999999975
 20
-18.9541219999999981
 30
0.0
 11
-20.136802000000003
 21
-18.8999290000000002
 31
0.0
  0
LINE
  5
10C
100
AcDbEntity
  8
F.Cu
 62
256
370
-1
 48
1.0
  6
Continuous
100
AcDbLine
 10
-20.136802000000003
 20
-18.8999290000000002
 30
0.0
 11
-20.1909950000000009
 21
-18.8188229999999947
 31
0.0
  0
LINE
  5
10D
100
AcDbEntity
  8
F.Cu
 62
256
370
-1
 48
1.0
  6
Continuous
100
AcDbLine
 10
-20.1909950000000009
 20
-18.8188229999999947
 30
0.0
 11
-20.2100250000000017
 21
-18.7231519999999989
 31
0.0
  0
LINE
  5
10E
100
AcDbEntity
  8
F.Cu
 62
256
370
-1
 48
1.0
  6
Continuous
100
AcDbLine
 10
-20.2100250000000017
 20
-18.7231519999999989
 30
0.0
 11
-20.2100250000000017
 21
-18.7106519999999961
 31
0.0
  0
LINE
  5
10F
100
AcDbEntity
  8
F.Cu
 62
256
370
-1
 48
1.0
  6
Continuous
100
AcDbLine
 10
-20.2100250000000017
 20
-18.7106519999999961
 30
0.0
 11
-21.3100250000000102
 21
-18.7106519999999961
 31
0.0
  0
LINE
  5
110
100
AcDbEntity
  8
F.Cu
 62
256
370
-1
 48
1.0
  6
Continuous
100
AcDbLine
 10
-21.3100250000000102
 20
-18.7106519999999961
 30
0.0
 11
-21.3100250000000102
 21
-18.7231519999999989
 31
0.0
  0
LINE
  5
111
100
AcDbEntity
  8
F.Cu
 62
256
370
-1
 48
1.0
  6
Continuous
100
AcDbLine
 10
-21.3100250000000102
 20
-18.7231519999999989
 30
0.0
 11
-21.329055000000011
 21
-18.8188229999999947
 31
0.0
  0
LINE
  5
112
100
AcDbEntity
  8
F.Cu
 62
256
370
-1
 48
1.0
  6
Continuous
100
AcDbLine
 10
-21.329055000000011
 20
-18.8188229999999947
 30
0.0
 11
-21.3832480000000089
 21
-18.8999290000000002
 31
0.0
  0
LINE
  5
113
100
AcDbEntity
  8
F.Cu
 62
256
370
-1
 48
1.0
  6
Continuous
100
AcDbLine
 10
-21.3832480000000089
 20
-18.8999290000000002
 30
0.0
 11
-21.4643540000000002
 21
-18.9541219999999981
 31
0.0
  0
LINE
  5
114
100
AcDbEntity
  8
F.Cu
 62
256
370
-1
 48
1.0
  6
Continuous
100
AcDbLine
 10
-21.4643540000000002
 20
-18.9541219999999981
 30
0.0
 11
-21.5600250000000102
 21
-18.9731519999999989
 31
0.0
  0
LINE
  5
115
100
AcDbEntity
  8
F.Cu
 62
256
370
-1
 48
1.0
  6
Continuous
100
AcDbLine
 10
-21.5600250000000102
 20
-18.9731519999999989
 30
0.0
 11
-22.4600250000000017
 21
-18.9731519999999989
 31
0.0
  0
LINE
  5
116
100
AcDbEntity
  8
F.Cu
 62
256
370
-1
 48
1.0
  6
Continuous
100
AcDbLine
 10
-22.4600250000000017
 20
-18.9731519999999989
 30
0.0
 11
-22.5556959999999975
 21
-18.9541219999999981
 31
0.0
  0
LINE
  5
117
100
AcDbEntity
  8
F.Cu
 62
256
370
-1
 48
1.0
  6
Continuous
100
AcDbLine
 10
-22.5556959999999975
 20
-18.9541219999999981
 30
0.0
 11
-22.636802000000003
 21
-18.8999290000000002
 31
0.0
  0
LINE
  5
118
100
AcDbEntity
  8
F.Cu
 62
256
370
-1
 48
1.0
  6
Continuous
100
AcDbLine
 10
-22.636802000000003
 20
-18.8999290000000002
 30
0.0
 11
-22.6909950000000009
 21
-18.8188229999999947
 31
0.0
  0
LINE
  5
119
100
AcDbEntity
  8
F.Cu
 62
256
370
-1
 48
1.0
  6
Continuous
100
AcDbLine
 10
-22.6909950000000009
 20
-18.8188229999999947
 30
0.0
 11
-22.7100250000000017
 21
-18.7231519999999989
 31
0.0
  0
LINE
  5
11A
100
AcDbEntity
  8
F.Cu
 62
256
370
-1
 48
1.0
  6
Continuous
100
AcDbLine
 10
-22.7100250000000017
 20
-18.7231519999999989
 30
0.0
 11
-22.7100250000000017
 21
-18.7106519999999961
 31
0.0
  0
LINE
  5
11B
100
AcDbEntity
  8
F.Cu
 62
256
370
-1
 48
1.0
  6
Continuous
100
AcDbLine
 10
-22.7100250000000017
 20
-18.7106519999999961
 30
0.0
 11
-23.8100250000000102
 21
-18.7106519999999961
 31
0.0
  0
LINE
  5
11C
100
AcDbEntity
  8
F.Cu
 62
256
370
-1
 48
1.0
  6
Continuous
100
AcDbLine
 10
-23.8100250000000102
 20
-18.7106519999999961
 30
0.0
 11
-23.8100250000000102
 21
-18.7231519999999989
 31
0.0
  0
LINE
  5
11D
100
AcDbEntity
  8
F.Cu
 62
256
370
-1
 48
1.0
  6
Continuous
100
AcDbLine
 10
-23.8100250000000102
 20
-18.7231519999999989
 30
0.0
 11
-23.829055000000011
 21
-18.8188229999999947
 31
0.0
  0
LINE
  5
11E
100
AcDbEntity
  8
F.Cu
 62
256
370
-1
 48
1.0
  6
Continuous
100
AcDbLine
 10
-23.829055000000011
 20
-18.8188229999999947
 30
0.0
 11
-23.8832480000000089
 21
-18.8999290000000002
 31
0.0
  0
LINE
  5
11F
100
AcDbEntity
  8
F.Cu
 62
256
370
-1
 48
1.0
  6
Continuous
100
AcDbLine
 10
-23.8832480000000089
 20
-18.8999290000000002
 30
0.0
 11
-23.9643540000000002
 21
-18.9541219999999981
 31
0.0
  0
LINE
  5
120
100
AcDbEntity
  8
F.Cu
 62
256
370
-1
 48
1.0
  6
Continuous
100
AcDbLine
 10
-23.9643540000000002
 20
-18.9541219999999981
 30
0.0
 11
-24.0600250000000102
 21
-18.9731519999999989
 31
0.0
  0
LINE
  5
121
100
AcDbEntity
  8
F.Cu
 62
256
370
-1
 48
1.0
  6
Continuous
100
AcDbLine
 10
-24.0600250000000102
 20
-18.9731519999999989
 30
0.0
 11
-24.9600250000000017
 21
-18.9731519999999989
 31
0.0
  0
LINE
  5
122
100
AcDbEntity
  8
F.Cu
 62
256
370
-1
 48
1.0
  6
Continuous
100
AcDbLine
 10
-24.9600250000000017
 20
-18.9731519999999989
 30
0.0
 11
-25.0556959999999975
 21
-18.9541219999999981
 31
0.0
  0
LINE
  5
123
100
AcDbEntity
  8
F.Cu
 62
256
370
-1
 48
1.0
  6
Continuous
100
AcDbLine
 10
-25.0556959999999975
 20
-18.9541219999999981
 30
0.0
 11
-25.136802000000003
 21
-18.8999290000000002
 31
0.0
  0
LINE
  5
124
100
AcDbEntity
  8
F.Cu
 62
256
370
-1
 48
1.0
  6
Continuous
100
AcDbLine
 10
-25.136802000000003
 20
-18.8999290000000002
 30
0.0
 11
-25.1909950000000009
 21
-18.8188229999999947
 31
0.0
  0
LINE
  5
125
100
AcDbEntity
  8
F.Cu
 62
256
370
-1
 48
1.0
  6
Continuous
100
AcDbLine
 10
-25.1909950000000009
 20
-18.8188229999999947
 30
0.0
 11
-25.2100250000000017
 21
-18.7231519999999989
 31
0.0
  0
LINE
  5
126
100
AcDbEntity
  8
F.Cu
 62
256
370
-1
 48
1.0
  6
Continuous
100
AcDbLine
 10
-25.2100250000000017
 20
-18.7231519999999989
 30
0.0
 11
-25.2100250000000017
 21
-18.7106519999999961
 31
0.0
  0
LINE
  5
127
100
AcDbEntity
  8
F.Cu
 62
256
370
-1
 48
1.0
  6
Continuous
100
AcDbLine
 10
-25.2100250000000017
 20
-18.7106519999999961
 30
0.0
 11
-26.3100250000000102
 21
-18.7106519999999961
 31
0.0
  0
LINE
  5
128
100
AcDbEntity
  8
F.Cu
 62
256
370
-1
 48
1.0
  6
Continuous
100
AcDbLine
 10
-26.3100250000000102
 20
-18.7106519999999961
 30
0.0
 11
-26.3100250000000102
 21
-18.7231519999999989
 31
0.0
  0
LINE
  5
129
100
AcDbEntity
  8
F.Cu
 62
256
370
-1
 48
1.0
  6
Continuous
100
AcDbLine
 10
-26.3100250000000102
 20
-18.7231519999999989
 30
0.0
 11
-26.3290549999999968
 21
-18.8188229999999947
 31
0.0
  0
LINE
  5
12A
100
AcDbEntity
  8
F.Cu
 62
256
370
-1
 48
1.0
  6
Continuous
100
AcDbLine
 10
-26.3290549999999968
 20
-18.8188229999999947
 30
0.0
 11
-26.3832480000000089
 21
-18.8999290000000002
 31
0.0
  0
LINE
  5
12B
100
AcDbEntity
  8
F.Cu
 62
256
370
-1
 48
1.0
  6
Continuous
100
AcDbLine
 10
-26.3832480000000089
 20
-18.8999290000000002
 30
0.0
 11
-26.4643540000000002
 21
-18.9541219999999981
 31
0.0
  0
LINE
  5
12C
100
AcDbEntity
  8
F.Cu
 62
256
370
-1
 48
1.0
  6
Continuous
100
AcDbLine
 10
-26.4643540000000002
 20
-18.9541219999999981
 30
0.0
 11
-26.5600250000000102
 21
-18.9731519999999989
 31
0.0
  0
LINE
  5
12D
100
AcDbEntity
  8
F.Cu
 62
256
370
-1
 48
1.0
  6
Continuous
100
AcDbLine
 10
-26.5600250000000102
 20
-18.9731519999999989
 30
0.0
 11
-27.4600250000000017
 21
-18.9731519999999989
 31
0.0
  0
LINE
  5
12E
100
AcDbEntity
  8
F.Cu
 62
256
370
-1
 48
1.0
  6
Continuous
100
AcDbLine
 10
-27.4600250000000017
 20
-18.9731519999999989
 30
0.0
 11
-27.5556959999999975
 21
-18.9541219999999981
 31
0.0
  0
LINE
  5
12F
100
AcDbEntity
  8
F.Cu
 62
256
370
-1
 48
1.0
  6
Continuous
100
AcDbLine
 10
-27.5556959999999975
 20
-18.9541219999999981
 30
0.0
 11
-27.636802000000003
 21
-18.8999290000000002
 31
0.0
  0
LINE
  5
130
100
AcDbEntity
  8
F.Cu
 62
256
370
-1
 48
1.0
  6
Continuous
100
AcDbLine
 10
-27.636802000000003
 20
-18.8999290000000002
 30
0.0
 11
-27.6909950000000009
 21
-18.8188229999999947
 31
0.0
  0
LINE
  5
131
100
AcDbEntity
  8
F.Cu
 62
256
370
-1
 48
1.0
  6
Continuous
100
AcDbLine
 10
-27.6909950000000009
 20
-18.8188229999999947
 30
0.0
 11
-27.7100250000000017
 21
-18.7231519999999989
 31
0.0
  0
LINE
  5
132
100
AcDbEntity
  8
F.Cu
 62
256
370
-1
 48
1.0
  6
Continuous
100
AcDbLine
 10
-27.7100250000000017
 20
-18.7231519999999989
 30
0.0
 11
-27.7100250000000017
 21
-18.7106519999999961
 31
0.0
  0
LINE
  5
133
100
AcDbEntity
  8
F.Cu
 62
256
370
-1
 48
1.0
  6
Continuous
100
AcDbLine
 10
-27.7100250000000017
 20
-18.7106519999999961
 30
0.0
 11
-28.0975250000000045
 21
-18.7106519999999961
 31
0.0
  0
LINE
  5
134
100
AcDbEntity
  8
F.Cu
 62
256
370
-1
 48
1.0
  6
Continuous
100
AcDbLine
 10
-28.0975250000000045
 20
-18.7106519999999961
 30
0.0
 11
-28.1462980000000016
 21
-18.7058480000000031
 31
0.0
  0
LINE
  5
135
100
AcDbEntity
  8
F.Cu
 62
256
370
-1
 48
1.0
  6
Continuous
100
AcDbLine
 10
-28.1462980000000016
 20
-18.7058480000000031
 30
0.0
 11
-28.1836260000000038
 21
-18.6903860000000037
 31
0.0
  0
LINE
  5
136
100
AcDbEntity
  8
F.Cu
 62
256
370
-1
 48
1.0
  6
Continuous
100
AcDbLine
 10
-28.1836260000000038
 20
-18.6903860000000037
 30
0.0
 11
-28.236417000000003
 21
-18.6685200000000009
 31
0.0
  0
LINE
  5
137
100
AcDbEntity
  8
F.Cu
 62
256
370
-1
 48
1.0
  6
Continuous
100
AcDbLine
 10
-28.236417000000003
 20
-18.6685200000000009
 30
0.0
 11
-28.2743020000000058
 21
-18.6374289999999974
 31
0.0
  0
LINE
  5
138
100
AcDbEntity
  8
F.Cu
 62
256
370
-1
 48
1.0
  6
Continuous
100
AcDbLine
 10
-28.2743020000000058
 20
-18.6374289999999974
 30
0.0
 11
-29.1868020000000001
 21
-17.724929000000003
 31
0.0
  0
LINE
  5
139
100
AcDbEntity
  8
F.Cu
 62
256
370
-1
 48
1.0
  6
Continuous
100
AcDbLine
 10
-29.1868020000000001
 20
-17.724929000000003
 30
0.0
 11
-29.2178880000000021
 21
-17.6870490000000018
 31
0.0
  0
LINE
  5
13A
100
AcDbEntity
  8
F.Cu
 62
256
370
-1
 48
1.0
  6
Continuous
100
AcDbLine
 10
-29.2178880000000021
 20
-17.6870490000000018
 30
0.0
 11
-29.2178920000000062
 21
-17.6870449999999977
 31
0.0
  0
LINE
  5
13B
100
AcDbEntity
  8
F.Cu
 62
256
370
-1
 48
1.0
  6
Continuous
100
AcDbLine
 10
-29.2178920000000062
 20
-17.6870449999999977
 30
0.0
 11
-29.2552210000000059
 21
-17.5969249999999988
 31
0.0
  0
LINE
  5
13C
100
AcDbEntity
  8
F.Cu
 62
256
370
-1
 48
1.0
  6
Continuous
100
AcDbLine
 10
-29.2552210000000059
 20
-17.5969249999999988
 30
0.0
 11
-29.2600249999999988
 21
-17.5481520000000017
 31
0.0
  0
LINE
  5
13D
100
AcDbEntity
  8
F.Cu
 62
256
370
-1
 48
1.0
  6
Continuous
100
AcDbLine
 10
-29.2600249999999988
 20
-17.5481520000000017
 30
0.0
 11
-29.2600249999999988
 21
-10.1517059999999972
 31
0.0
  0
LINE
  5
13E
100
AcDbEntity
  8
F.Cu
 62
256
370
-1
 48
1.0
  6
Continuous
100
AcDbLine
 10
-29.2600249999999988
 20
-10.1517059999999972
 30
0.0
 11
-29.3350250000000017
 21
-10.0767060000000015
 31
0.0
  0
LINE
  5
13F
100
AcDbEntity
  8
F.Cu
 62
256
370
-1
 48
1.0
  6
Continuous
100
AcDbLine
 10
-29.3350250000000017
 20
-10.0767060000000015
 30
0.0
 11
-29.3350250000000017
 21
-10.0801519999999982
 31
0.0
  0
LINE
  5
140
100
AcDbEntity
  8
F.Cu
 62
256
370
-1
 48
1.0
  6
Continuous
100
AcDbLine
 10
-29.3350250000000017
 20
-10.0801519999999982
 30
0.0
 11
-35.6850250000000102
 21
-10.0801519999999982
 31
0.0
  0
LINE
  5
141
100
AcDbEntity
  8
F.Cu
 62
256
370
-1
 48
1.0
  6
Continuous
100
AcDbLine
 10
-35.6850250000000102
 20
-10.0801519999999982
 30
0.0
 11
-35.6850250000000102
 21
-8.5561519999999955
 31
0.0
  0
LINE
  5
142
100
AcDbEntity
  8
F.Cu
 62
256
370
-1
 48
1.0
  6
Continuous
100
AcDbLine
 10
-35.6850250000000102
 20
-8.5561519999999955
 30
0.0
 11
-29.3350250000000017
 21
-8.5561519999999955
 31
0.0
  0
LINE
  5
143
100
AcDbEntity
  8
F.Cu
 62
256
370
-1
 48
1.0
  6
Continuous
100
AcDbLine
 10
-29.3350250000000017
 20
-8.5561519999999955
 30
0.0
 11
-29.3350250000000017
 21
-9.3695979999999963
 31
0.0
  0
LINE
  5
144
100
AcDbEntity
  8
F.Cu
 62
256
370
-1
 48
1.0
  6
Continuous
100
AcDbLine
 10
-25.9993070000000017
 20
-10.8294239999999959
 30
0.0
 11
-25.982996
 21
-10.9877449999999968
 31
0.0
  0
LINE
  5
145
100
AcDbEntity
  8
F.Cu
 62
256
370
-1
 48
1.0
  6
Continuous
100
AcDbLine
 10
-25.982996
 20
-10.9877449999999968
 30
0.0
 11
-25.9595060000000046
 21
-11.1451619999999991
 31
0.0
  0
LINE
  5
146
100
AcDbEntity
  8
F.Cu
 62
256
370
-1
 48
1.0
  6
Continuous
100
AcDbLine
 10
-25.9595060000000046
 20
-11.1451619999999991
 30
0.0
 11
-25.9288840000000107
 21
-11.3013479999999973
 31
0.0
  0
LINE
  5
147
100
AcDbEntity
  8
F.Cu
 62
256
370
-1
 48
1.0
  6
Continuous
100
AcDbLine
 10
-25.9288840000000107
 20
-11.3013479999999973
 30
0.0
 11
-25.8911939999999987
 21
-11.4559799999999967
 31
0.0
  0
LINE
  5
148
100
AcDbEntity
  8
F.Cu
 62
256
370
-1
 48
1.0
  6
Continuous
100
AcDbLine
 10
-25.8911939999999987
 20
-11.4559799999999967
 30
0.0
 11
-25.8465139999999991
 21
-11.6087399999999974
 31
0.0
  0
LINE
  5
149
100
AcDbEntity
  8
F.Cu
 62
256
370
-1
 48
1.0
  6
Continuous
100
AcDbLine
 10
-25.8465139999999991
 20
-11.6087399999999974
 30
0.0
 11
-25.7949370000000044
 21
-11.7593099999999993
 31
0.0
  0
LINE
  5
14A
100
AcDbEntity
  8
F.Cu
 62
256
370
-1
 48
1.0
  6
Continuous
100
AcDbLine
 10
-25.7949370000000044
 20
-11.7593099999999993
 30
0.0
 11
-25.7365680000000054
 21
-11.9073810000000009
 31
0.0
  0
LINE
  5
14B
100
AcDbEntity
  8
F.Cu
 62
256
370
-1
 48
1.0
  6
Continuous
100
AcDbLine
 10
-25.7365680000000054
 20
-11.9073810000000009
 30
0.0
 11
-25.6715290000000067
 21
-12.0526449999999983
 31
0.0
  0
LINE
  5
14C
100
AcDbEntity
  8
F.Cu
 62
256
370
-1
 48
1.0
  6
Continuous
100
AcDbLine
 10
-25.6715290000000067
 20
-12.0526449999999983
 30
0.0
 11
-25.6361610000000013
 21
-12.1239349999999959
 31
0.0
  0
LINE
  5
14D
100
AcDbEntity
  8
F.Cu
 62
256
370
-1
 48
1.0
  6
Continuous
100
AcDbLine
 10
-25.6361610000000013
 20
-12.1239349999999959
 30
0.0
 11
-26.763337000000007
 21
-12.7747109999999964
 31
0.0
  0
LINE
  5
14E
100
AcDbEntity
  8
F.Cu
 62
256
370
-1
 48
1.0
  6
Continuous
100
AcDbLine
 10
-26.763337000000007
 20
-12.7747109999999964
 30
0.0
 11
-26.8074380000000048
 21
-12.6893759999999958
 31
0.0
  0
LINE
  5
14F
100
AcDbEntity
  8
F.Cu
 62
256
370
-1
 48
1.0
  6
Continuous
100
AcDbLine
 10
-26.8074380000000048
 20
-12.6893759999999958
 30
0.0
 11
-26.8835669999999993
 21
-12.5284649999999971
 31
0.0
  0
LINE
  5
150
100
AcDbEntity
  8
F.Cu
 62
256
370
-1
 48
1.0
  6
Continuous
100
AcDbLine
 10
-26.8835669999999993
 20
-12.5284649999999971
 30
0.0
 11
-27.2600249999999988
 21
-12.9049240000000012
 31
0.0
  0
LINE
  5
151
100
AcDbEntity
  8
F.Cu
 62
256
370
-1
 48
1.0
  6
Continuous
100
AcDbLine
 10
-27.2600249999999988
 20
-12.9049240000000012
 30
0.0
 11
-27.2600249999999988
 21
-15.4445979999999992
 31
0.0
  0
LINE
  5
152
100
AcDbEntity
  8
F.Cu
 62
256
370
-1
 48
1.0
  6
Continuous
100
AcDbLine
 10
-27.2600249999999988
 20
-15.4445979999999992
 30
0.0
 11
-26.8332479999999975
 21
-15.8713750000000005
 31
0.0
  0
LINE
  5
153
100
AcDbEntity
  8
F.Cu
 62
256
370
-1
 48
1.0
  6
Continuous
100
AcDbLine
 10
-26.8332479999999975
 20
-15.8713750000000005
 30
0.0
 11
-26.8021570000000082
 21
-15.9092600000000033
 31
0.0
  0
LINE
  5
154
100
AcDbEntity
  8
F.Cu
 62
256
370
-1
 48
1.0
  6
Continuous
100
AcDbLine
 10
-26.8021570000000082
 20
-15.9092600000000033
 30
0.0
 11
-26.7648280000000085
 21
-15.9993800000000022
 31
0.0
  0
LINE
  5
155
100
AcDbEntity
  8
F.Cu
 62
256
370
-1
 48
1.0
  6
Continuous
100
AcDbLine
 10
-26.7648280000000085
 20
-15.9993800000000022
 30
0.0
 11
-26.7648280000000085
 21
-15.9993889999999936
 31
0.0
  0
LINE
  5
156
100
AcDbEntity
  8
F.Cu
 62
256
370
-1
 48
1.0
  6
Continuous
100
AcDbLine
 10
-26.7648280000000085
 20
-15.9993889999999936
 30
0.0
 11
-26.7600249999999988
 21
-16.0481520000000017
 31
0.0
  0
LINE
  5
157
100
AcDbEntity
  8
F.Cu
 62
256
370
-1
 48
1.0
  6
Continuous
100
AcDbLine
 10
-26.7600249999999988
 20
-16.0481520000000017
 30
0.0
 11
-26.7600249999999988
 21
-16.1231520000000046
 31
0.0
  0
LINE
  5
158
100
AcDbEntity
  8
F.Cu
 62
256
370
-1
 48
1.0
  6
Continuous
100
AcDbLine
 10
-26.7600249999999988
 20
-16.1231520000000046
 30
0.0
 11
-26.5600250000000102
 21
-16.1231520000000046
 31
0.0
  0
LINE
  5
159
100
AcDbEntity
  8
F.Cu
 62
256
370
-1
 48
1.0
  6
Continuous
100
AcDbLine
 10
-26.5600250000000102
 20
-16.1231520000000046
 30
0.0
 11
-26.4643540000000002
 21
-16.1421820000000054
 31
0.0
  0
LINE
  5
15A
100
AcDbEntity
  8
F.Cu
 62
256
370
-1
 48
1.0
  6
Continuous
100
AcDbLine
 10
-26.4643540000000002
 20
-16.1421820000000054
 30
0.0
 11
-26.3832480000000089
 21
-16.1963750000000033
 31
0.0
  0
LINE
  5
15B
100
AcDbEntity
  8
F.Cu
 62
256
370
-1
 48
1.0
  6
Continuous
100
AcDbLine
 10
-26.3832480000000089
 20
-16.1963750000000033
 30
0.0
 11
-26.3290549999999968
 21
-16.2774809999999945
 31
0.0
  0
LINE
  5
15C
100
AcDbEntity
  8
F.Cu
 62
256
370
-1
 48
1.0
  6
Continuous
100
AcDbLine
 10
-26.3290549999999968
 20
-16.2774809999999945
 30
0.0
 11
-26.3100250000000102
 21
-16.3731520000000046
 31
0.0
  0
LINE
  5
15D
100
AcDbEntity
  8
F.Cu
 62
256
370
-1
 48
1.0
  6
Continuous
100
AcDbLine
 10
-26.3100250000000102
 20
-16.3731520000000046
 30
0.0
 11
-26.3100250000000102
 21
-16.8981519999999961
 31
0.0
  0
LINE
  5
15E
100
AcDbEntity
  8
F.Cu
 62
256
370
-1
 48
1.0
  6
Continuous
100
AcDbLine
 10
-26.3100250000000102
 20
-16.8981519999999961
 30
0.0
 11
-26.3290549999999968
 21
-16.9938229999999919
 31
0.0
  0
LINE
  5
15F
100
AcDbEntity
  8
F.Cu
 62
256
370
-1
 48
1.0
  6
Continuous
100
AcDbLine
 10
-26.3290549999999968
 20
-16.9938229999999919
 30
0.0
 11
-26.3832480000000089
 21
-17.0749289999999974
 31
0.0
  0
LINE
  5
160
100
AcDbEntity
  8
F.Cu
 62
256
370
-1
 48
1.0
  6
Continuous
100
AcDbLine
 10
-26.3832480000000089
 20
-17.0749289999999974
 30
0.0
 11
-26.4643540000000002
 21
-17.1291219999999953
 31
0.0
  0
LINE
  5
161
100
AcDbEntity
  8
F.Cu
 62
256
370
-1
 48
1.0
  6
Continuous
100
AcDbLine
 10
-26.4643540000000002
 20
-17.1291219999999953
 30
0.0
 11
-26.5600250000000102
 21
-17.1481519999999961
 31
0.0
  0
LINE
  5
162
100
AcDbEntity
  8
F.Cu
 62
256
370
-1
 48
1.0
  6
Continuous
100
AcDbLine
 10
-26.5600250000000102
 20
-17.1481519999999961
 30
0.0
 11
-27.4600250000000017
 21
-17.1481519999999961
 31
0.0
  0
LINE
  5
163
100
AcDbEntity
  8
F.Cu
 62
256
370
-1
 48
1.0
  6
Continuous
100
AcDbLine
 10
-27.4600250000000017
 20
-17.1481519999999961
 30
0.0
 11
-27.5556959999999975
 21
-17.1291219999999953
 31
0.0
  0
LINE
  5
164
100
AcDbEntity
  8
F.Cu
 62
256
370
-1
 48
1.0
  6
Continuous
100
AcDbLine
 10
-27.5556959999999975
 20
-17.1291219999999953
 30
0.0
 11
-27.636802000000003
 21
-17.0749289999999974
 31
0.0
  0
LINE
  5
165
100
AcDbEntity
  8
F.Cu
 62
256
370
-1
 48
1.0
  6
Continuous
100
AcDbLine
 10
-27.636802000000003
 20
-17.0749289999999974
 30
0.0
 11
-27.6909950000000009
 21
-16.9938229999999919
 31
0.0
  0
LINE
  5
166
100
AcDbEntity
  8
F.Cu
 62
256
370
-1
 48
1.0
  6
Continuous
100
AcDbLine
 10
-27.6909950000000009
 20
-16.9938229999999919
 30
0.0
 11
-27.7100250000000017
 21
-16.8981519999999961
 31
0.0
  0
LINE
  5
167
100
AcDbEntity
  8
F.Cu
 62
256
370
-1
 48
1.0
  6
Continuous
100
AcDbLine
 10
-27.7100250000000017
 20
-16.8981519999999961
 30
0.0
 11
-27.7100250000000017
 21
-16.3731520000000046
 31
0.0
  0
LINE
  5
168
100
AcDbEntity
  8
F.Cu
 62
256
370
-1
 48
1.0
  6
Continuous
100
AcDbLine
 10
-27.7100250000000017
 20
-16.3731520000000046
 30
0.0
 11
-27.6909950000000009
 21
-16.2774809999999945
 31
0.0
  0
LINE
  5
169
100
AcDbEntity
  8
F.Cu
 62
256
370
-1
 48
1.0
  6
Continuous
100
AcDbLine
 10
-27.6909950000000009
 20
-16.2774809999999945
 30
0.0
 11
-27.636802000000003
 21
-16.1963750000000033
 31
0.0
  0
LINE
  5
16A
100
AcDbEntity
  8
F.Cu
 62
256
370
-1
 48
1.0
  6
Continuous
100
AcDbLine
 10
-27.636802000000003
 20
-16.1963750000000033
 30
0.0
 11
-27.5556959999999975
 21
-16.1421820000000054
 31
0.0
  0
LINE
  5
16B
100
AcDbEntity
  8
F.Cu
 62
256
370
-1
 48
1.0
  6
Continuous
100
AcDbLine
 10
-27.5556959999999975
 20
-16.1421820000000054
 30
0.0
 11
-27.4600250000000017
 21
-16.1231520000000046
 31
0.0
  0
LINE
  5
16C
100
AcDbEntity
  8
F.Cu
 62
256
370
-1
 48
1.0
  6
Continuous
100
AcDbLine
 10
-27.4600250000000017
 20
-16.1231520000000046
 30
0.0
 11
-27.2885789999999986
 21
-16.1231520000000046
 31
0.0
  0
LINE
  5
16D
100
AcDbEntity
  8
F.Cu
 62
256
370
-1
 48
1.0
  6
Continuous
100
AcDbLine
 10
-27.2885789999999986
 20
-16.1231520000000046
 30
0.0
 11
-27.6868020000000001
 21
-15.724929000000003
 31
0.0
  0
LINE
  5
16E
100
AcDbEntity
  8
F.Cu
 62
256
370
-1
 48
1.0
  6
Continuous
100
AcDbLine
 10
-27.6868020000000001
 20
-15.724929000000003
 30
0.0
 11
-27.7178880000000021
 21
-15.6870490000000018
 31
0.0
  0
LINE
  5
16F
100
AcDbEntity
  8
F.Cu
 62
256
370
-1
 48
1.0
  6
Continuous
100
AcDbLine
 10
-27.7178880000000021
 20
-15.6870490000000018
 30
0.0
 11
-27.7178920000000062
 21
-15.6870449999999977
 31
0.0
  0
LINE
  5
170
100
AcDbEntity
  8
F.Cu
 62
256
370
-1
 48
1.0
  6
Continuous
100
AcDbLine
 10
-27.7178920000000062
 20
-15.6870449999999977
 30
0.0
 11
-27.7552210000000059
 21
-15.5969249999999988
 31
0.0
  0
LINE
  5
171
100
AcDbEntity
  8
F.Cu
 62
256
370
-1
 48
1.0
  6
Continuous
100
AcDbLine
 10
-27.7552210000000059
 20
-15.5969249999999988
 30
0.0
 11
-27.7600249999999988
 21
-15.5481520000000017
 31
0.0
  0
LINE
  5
172
100
AcDbEntity
  8
F.Cu
 62
256
370
-1
 48
1.0
  6
Continuous
100
AcDbLine
 10
-27.7600249999999988
 20
-15.5481520000000017
 30
0.0
 11
-27.7600249999999988
 21
-12.8013709999999961
 31
0.0
  0
LINE
  5
173
100
AcDbEntity
  8
F.Cu
 62
256
370
-1
 48
1.0
  6
Continuous
100
AcDbLine
 10
-27.7600249999999988
 20
-12.8013709999999961
 30
0.0
 11
-27.7552210000000059
 21
-12.752597999999999
 31
0.0
  0
LINE
  5
174
100
AcDbEntity
  8
F.Cu
 62
256
370
-1
 48
1.0
  6
Continuous
100
AcDbLine
 10
-27.7552210000000059
 20
-12.752597999999999
 30
0.0
 11
-27.7178920000000062
 21
-12.6624780000000001
 31
0.0
  0
LINE
  5
175
100
AcDbEntity
  8
F.Cu
 62
256
370
-1
 48
1.0
  6
Continuous
100
AcDbLine
 10
-27.7178920000000062
 20
-12.6624780000000001
 30
0.0
 11
-27.7178880000000021
 21
-12.6624729999999985
 31
0.0
  0
LINE
  5
176
100
AcDbEntity
  8
F.Cu
 62
256
370
-1
 48
1.0
  6
Continuous
100
AcDbLine
 10
-27.7178880000000021
 20
-12.6624729999999985
 30
0.0
 11
-27.6868020000000001
 21
-12.6245940000000019
 31
0.0
  0
LINE
  5
177
100
AcDbEntity
  8
F.Cu
 62
256
370
-1
 48
1.0
  6
Continuous
100
AcDbLine
 10
-27.6868020000000001
 20
-12.6245940000000019
 30
0.0
 11
-27.0799390000000102
 21
-12.0177309999999977
 31
0.0
  0
LINE
  5
178
100
AcDbEntity
  8
F.Cu
 62
256
370
-1
 48
1.0
  6
Continuous
100
AcDbLine
 10
-27.0799390000000102
 20
-12.0177309999999977
 30
0.0
 11
-27.0935220000000072
 21
-11.9769930000000002
 31
0.0
  0
LINE
  5
179
100
AcDbEntity
  8
F.Cu
 62
256
370
-1
 48
1.0
  6
Continuous
100
AcDbLine
 10
-27.0935220000000072
 20
-11.9769930000000002
 30
0.0
 11
-27.1469490000000064
 21
-11.7924590000000009
 31
0.0
  0
LINE
  5
17A
100
AcDbEntity
  8
F.Cu
 62
256
370
-1
 48
1.0
  6
Continuous
100
AcDbLine
 10
-27.1469490000000064
 20
-11.7924590000000009
 30
0.0
 11
-27.1929500000000104
 21
-11.6059350000000023
 31
0.0
  0
LINE
  5
17B
100
AcDbEntity
  8
F.Cu
 62
256
370
-1
 48
1.0
  6
Continuous
100
AcDbLine
 10
-27.1929500000000104
 20
-11.6059350000000023
 30
0.0
 11
-27.2314520000000044
 21
-11.4177210000000002
 31
0.0
  0
LINE
  5
17C
100
AcDbEntity
  8
F.Cu
 62
256
370
-1
 48
1.0
  6
Continuous
100
AcDbLine
 10
-27.2314520000000044
 20
-11.4177210000000002
 30
0.0
 11
-27.262391000000008
 21
-11.228116
 31
0.0
  0
LINE
  5
17D
100
AcDbEntity
  8
F.Cu
 62
256
370
-1
 48
1.0
  6
Continuous
100
AcDbLine
 10
-27.262391000000008
 20
-11.228116
 30
0.0
 11
-27.2857199999999978
 21
-11.0374249999999989
 31
0.0
  0
LINE
  5
17E
100
AcDbEntity
  8
F.Cu
 62
256
370
-1
 48
1.0
  6
Continuous
100
AcDbLine
 10
-27.2857199999999978
 20
-11.0374249999999989
 30
0.0
 11
-27.301400000000001
 21
-10.845953999999999
 31
0.0
  0
LINE
  5
17F
100
AcDbEntity
  8
F.Cu
 62
256
370
-1
 48
1.0
  6
Continuous
100
AcDbLine
 10
-27.301400000000001
 20
-10.845953999999999
 30
0.0
 11
-27.3058570000000032
 21
-10.75
 31
0.0
  0
LINE
  5
180
100
AcDbEntity
  8
F.Cu
 62
256
370
-1
 48
1.0
  6
Continuous
100
AcDbLine
 10
-27.3058570000000032
 20
-10.75
 30
0.0
 11
-26.0043059999999997
 21
-10.75
 31
0.0
  0
LINE
  5
181
100
AcDbEntity
  8
F.Cu
 62
256
370
-1
 48
1.0
  6
Continuous
100
AcDbLine
 10
-26.0043059999999997
 20
-10.75
 30
0.0
 11
-25.9993070000000017
 21
-10.8294239999999959
 31
0.0
  0
LINE
  5
182
100
AcDbEntity
  8
F.Cu
 62
256
370
-1
 48
1.0
  6
Continuous
100
AcDbLine
 10
-25.3921210000000031
 20
-12.5366309999999999
 30
0.0
 11
-25.2988380000000035
 21
-12.6655889999999971
 31
0.0
  0
LINE
  5
183
100
AcDbEntity
  8
F.Cu
 62
256
370
-1
 48
1.0
  6
Continuous
100
AcDbLine
 10
-25.2988380000000035
 20
-12.6655889999999971
 30
0.0
 11
-25.1997890000000098
 21
-12.7901740000000004
 31
0.0
  0
LINE
  5
184
100
AcDbEntity
  8
F.Cu
 62
256
370
-1
 48
1.0
  6
Continuous
100
AcDbLine
 10
-25.1997890000000098
 20
-12.7901740000000004
 30
0.0
 11
-25.0951790000000017
 21
-12.9101269999999957
 31
0.0
  0
LINE
  5
185
100
AcDbEntity
  8
F.Cu
 62
256
370
-1
 48
1.0
  6
Continuous
100
AcDbLine
 10
-25.0951790000000017
 20
-12.9101269999999957
 30
0.0
 11
-24.9852249999999998
 21
-13.0252009999999956
 31
0.0
  0
LINE
  5
186
100
AcDbEntity
  8
F.Cu
 62
256
370
-1
 48
1.0
  6
Continuous
100
AcDbLine
 10
-24.9852249999999998
 20
-13.0252009999999956
 30
0.0
 11
-24.870153000000002
 21
-13.1351580000000041
 31
0.0
  0
LINE
  5
187
100
AcDbEntity
  8
F.Cu
 62
256
370
-1
 48
1.0
  6
Continuous
100
AcDbLine
 10
-24.870153000000002
 20
-13.1351580000000041
 30
0.0
 11
-24.7502020000000016
 21
-13.2397699999999929
 31
0.0
  0
LINE
  5
188
100
AcDbEntity
  8
F.Cu
 62
256
370
-1
 48
1.0
  6
Continuous
100
AcDbLine
 10
-24.7502020000000016
 20
-13.2397699999999929
 30
0.0
 11
-24.6256199999999978
 21
-13.3388209999999958
 31
0.0
  0
LINE
  5
189
100
AcDbEntity
  8
F.Cu
 62
256
370
-1
 48
1.0
  6
Continuous
100
AcDbLine
 10
-24.6256199999999978
 20
-13.3388209999999958
 30
0.0
 11
-24.4966629999999981
 21
-13.432107000000002
 31
0.0
  0
LINE
  5
18A
100
AcDbEntity
  8
F.Cu
 62
256
370
-1
 48
1.0
  6
Continuous
100
AcDbLine
 10
-24.4966629999999981
 20
-13.432107000000002
 30
0.0
 11
-24.4303710000000081
 21
-13.4761359999999968
 31
0.0
  0
LINE
  5
18B
100
AcDbEntity
  8
F.Cu
 62
256
370
-1
 48
1.0
  6
Continuous
100
AcDbLine
 10
-24.4303710000000081
 20
-13.4761359999999968
 30
0.0
 11
-25.0811460000000039
 21
-14.6033120000000025
 31
0.0
  0
LINE
  5
18C
100
AcDbEntity
  8
F.Cu
 62
256
370
-1
 48
1.0
  6
Continuous
100
AcDbLine
 10
-25.0811460000000039
 20
-14.6033120000000025
 30
0.0
 11
-25.1620050000000077
 21
-14.5514579999999967
 31
0.0
  0
LINE
  5
18D
100
AcDbEntity
  8
F.Cu
 62
256
370
-1
 48
1.0
  6
Continuous
100
AcDbLine
 10
-25.1620050000000077
 20
-14.5514579999999967
 30
0.0
 11
-25.3199840000000052
 21
-14.442143999999999
 31
0.0
  0
LINE
  5
18E
100
AcDbEntity
  8
F.Cu
 62
256
370
-1
 48
1.0
  6
Continuous
100
AcDbLine
 10
-25.3199840000000052
 20
-14.442143999999999
 30
0.0
 11
-25.4734619999999978
 21
-14.3265969999999925
 31
0.0
  0
LINE
  5
18F
100
AcDbEntity
  8
F.Cu
 62
256
370
-1
 48
1.0
  6
Continuous
100
AcDbLine
 10
-25.4734619999999978
 20
-14.3265969999999925
 30
0.0
 11
-25.6221950000000049
 21
-14.2050009999999958
 31
0.0
  0
LINE
  5
190
100
AcDbEntity
  8
F.Cu
 62
256
370
-1
 48
1.0
  6
Continuous
100
AcDbLine
 10
-25.6221950000000049
 20
-14.2050009999999958
 30
0.0
 11
-25.7235009999999988
 21
-14.1151809999999927
 31
0.0
  0
LINE
  5
191
100
AcDbEntity
  8
F.Cu
 62
256
370
-1
 48
1.0
  6
Continuous
100
AcDbLine
 10
-25.7235009999999988
 20
-14.1151809999999927
 30
0.0
 11
-25.7600249999999988
 21
-14.1517060000000043
 31
0.0
  0
LINE
  5
192
100
AcDbEntity
  8
F.Cu
 62
256
370
-1
 48
1.0
  6
Continuous
100
AcDbLine
 10
-25.7600249999999988
 20
-14.1517060000000043
 30
0.0
 11
-25.7600249999999988
 21
-14.9445979999999992
 31
0.0
  0
LINE
  5
193
100
AcDbEntity
  8
F.Cu
 62
256
370
-1
 48
1.0
  6
Continuous
100
AcDbLine
 10
-25.7600249999999988
 20
-14.9445979999999992
 30
0.0
 11
-24.5814720000000051
 21
-16.1231520000000046
 31
0.0
  0
LINE
  5
194
100
AcDbEntity
  8
F.Cu
 62
256
370
-1
 48
1.0
  6
Continuous
100
AcDbLine
 10
-24.5814720000000051
 20
-16.1231520000000046
 30
0.0
 11
-24.0600250000000102
 21
-16.1231520000000046
 31
0.0
  0
LINE
  5
195
100
AcDbEntity
  8
F.Cu
 62
256
370
-1
 48
1.0
  6
Continuous
100
AcDbLine
 10
-24.0600250000000102
 20
-16.1231520000000046
 30
0.0
 11
-23.9643540000000002
 21
-16.1421820000000054
 31
0.0
  0
LINE
  5
196
100
AcDbEntity
  8
F.Cu
 62
256
370
-1
 48
1.0
  6
Continuous
100
AcDbLine
 10
-23.9643540000000002
 20
-16.1421820000000054
 30
0.0
 11
-23.8832480000000089
 21
-16.1963750000000033
 31
0.0
  0
LINE
  5
197
100
AcDbEntity
  8
F.Cu
 62
256
370
-1
 48
1.0
  6
Continuous
100
AcDbLine
 10
-23.8832480000000089
 20
-16.1963750000000033
 30
0.0
 11
-23.829055000000011
 21
-16.2774809999999945
 31
0.0
  0
LINE
  5
198
100
AcDbEntity
  8
F.Cu
 62
256
370
-1
 48
1.0
  6
Continuous
100
AcDbLine
 10
-23.829055000000011
 20
-16.2774809999999945
 30
0.0
 11
-23.8100250000000102
 21
-16.3731520000000046
 31
0.0
  0
LINE
  5
199
100
AcDbEntity
  8
F.Cu
 62
256
370
-1
 48
1.0
  6
Continuous
100
AcDbLine
 10
-23.8100250000000102
 20
-16.3731520000000046
 30
0.0
 11
-23.8100250000000102
 21
-16.8981519999999961
 31
0.0
  0
LINE
  5
19A
100
AcDbEntity
  8
F.Cu
 62
256
370
-1
 48
1.0
  6
Continuous
100
AcDbLine
 10
-23.8100250000000102
 20
-16.8981519999999961
 30
0.0
 11
-23.829055000000011
 21
-16.9938229999999919
 31
0.0
  0
LINE
  5
19B
100
AcDbEntity
  8
F.Cu
 62
256
370
-1
 48
1.0
  6
Continuous
100
AcDbLine
 10
-23.829055000000011
 20
-16.9938229999999919
 30
0.0
 11
-23.8832480000000089
 21
-17.0749289999999974
 31
0.0
  0
LINE
  5
19C
100
AcDbEntity
  8
F.Cu
 62
256
370
-1
 48
1.0
  6
Continuous
100
AcDbLine
 10
-23.8832480000000089
 20
-17.0749289999999974
 30
0.0
 11
-23.9643540000000002
 21
-17.1291219999999953
 31
0.0
  0
LINE
  5
19D
100
AcDbEntity
  8
F.Cu
 62
256
370
-1
 48
1.0
  6
Continuous
100
AcDbLine
 10
-23.9643540000000002
 20
-17.1291219999999953
 30
0.0
 11
-24.0600250000000102
 21
-17.1481519999999961
 31
0.0
  0
LINE
  5
19E
100
AcDbEntity
  8
F.Cu
 62
256
370
-1
 48
1.0
  6
Continuous
100
AcDbLine
 10
-24.0600250000000102
 20
-17.1481519999999961
 30
0.0
 11
-24.9600250000000017
 21
-17.1481519999999961
 31
0.0
  0
LINE
  5
19F
100
AcDbEntity
  8
F.Cu
 62
256
370
-1
 48
1.0
  6
Continuous
100
AcDbLine
 10
-24.9600250000000017
 20
-17.1481519999999961
 30
0.0
 11
-25.0556959999999975
 21
-17.1291219999999953
 31
0.0
  0
LINE
  5
1A0
100
AcDbEntity
  8
F.Cu
 62
256
370
-1
 48
1.0
  6
Continuous
100
AcDbLine
 10
-25.0556959999999975
 20
-17.1291219999999953
 30
0.0
 11
-25.136802000000003
 21
-17.0749289999999974
 31
0.0
  0
LINE
  5
1A1
100
AcDbEntity
  8
F.Cu
 62
256
370
-1
 48
1.0
  6
Continuous
100
AcDbLine
 10
-25.136802000000003
 20
-17.0749289999999974
 30
0.0
 11
-25.1909950000000009
 21
-16.9938229999999919
 31
0.0
  0
LINE
  5
1A2
100
AcDbEntity
  8
F.Cu
 62
256
370
-1
 48
1.0
  6
Continuous
100
AcDbLine
 10
-25.1909950000000009
 20
-16.9938229999999919
 30
0.0
 11
-25.2100250000000017
 21
-16.8981519999999961
 31
0.0
  0
LINE
  5
1A3
100
AcDbEntity
  8
F.Cu
 62
256
370
-1
 48
1.0
  6
Continuous
100
AcDbLine
 10
-25.2100250000000017
 20
-16.8981519999999961
 30
0.0
 11
-25.2100250000000017
 21
-16.3731520000000046
 31
0.0
  0
LINE
  5
1A4
100
AcDbEntity
  8
F.Cu
 62
256
370
-1
 48
1.0
  6
Continuous
100
AcDbLine
 10
-25.2100250000000017
 20
-16.3731520000000046
 30
0.0
 11
-25.1909950000000009
 21
-16.2774809999999945
 31
0.0
  0
LINE
  5
1A5
100
AcDbEntity
  8
F.Cu
 62
256
370
-1
 48
1.0
  6
Continuous
100
AcDbLine
 10
-25.1909950000000009
 20
-16.2774809999999945
 30
0.0
 11
-25.1682660000000027
 21
-16.243464000000003
 31
0.0
  0
LINE
  5
1A6
100
AcDbEntity
  8
F.Cu
 62
256
370
-1
 48
1.0
  6
Continuous
100
AcDbLine
 10
-25.1682660000000027
 20
-16.243464000000003
 30
0.0
 11
-26.1868020000000001
 21
-15.224929000000003
 31
0.0
  0
LINE
  5
1A7
100
AcDbEntity
  8
F.Cu
 62
256
370
-1
 48
1.0
  6
Continuous
100
AcDbLine
 10
-26.1868020000000001
 20
-15.224929000000003
 30
0.0
 11
-26.2178880000000021
 21
-15.1870490000000018
 31
0.0
  0
LINE
  5
1A8
100
AcDbEntity
  8
F.Cu
 62
256
370
-1
 48
1.0
  6
Continuous
100
AcDbLine
 10
-26.2178880000000021
 20
-15.1870490000000018
 30
0.0
 11
-26.2178920000000062
 21
-15.1870449999999977
 31
0.0
  0
LINE
  5
1A9
100
AcDbEntity
  8
F.Cu
 62
256
370
-1
 48
1.0
  6
Continuous
100
AcDbLine
 10
-26.2178920000000062
 20
-15.1870449999999977
 30
0.0
 11
-26.2552210000000059
 21
-15.0969249999999988
 31
0.0
  0
LINE
  5
1AA
100
AcDbEntity
  8
F.Cu
 62
256
370
-1
 48
1.0
  6
Continuous
100
AcDbLine
 10
-26.2552210000000059
 20
-15.0969249999999988
 30
0.0
 11
-26.2600249999999988
 21
-15.0481520000000017
 31
0.0
  0
LINE
  5
1AB
100
AcDbEntity
  8
F.Cu
 62
256
370
-1
 48
1.0
  6
Continuous
100
AcDbLine
 10
-26.2600249999999988
 20
-15.0481520000000017
 30
0.0
 11
-26.2600249999999988
 21
-14.0481520000000017
 31
0.0
  0
LINE
  5
1AC
100
AcDbEntity
  8
F.Cu
 62
256
370
-1
 48
1.0
  6
Continuous
100
AcDbLine
 10
-26.2600249999999988
 20
-14.0481520000000017
 30
0.0
 11
-26.2552210000000059
 21
-13.9993790000000047
 31
0.0
  0
LINE
  5
1AD
100
AcDbEntity
  8
F.Cu
 62
256
370
-1
 48
1.0
  6
Continuous
100
AcDbLine
 10
-26.2552210000000059
 20
-13.9993790000000047
 30
0.0
 11
-26.2178920000000062
 21
-13.9092590000000058
 31
0.0
  0
LINE
  5
1AE
100
AcDbEntity
  8
F.Cu
 62
256
370
-1
 48
1.0
  6
Continuous
100
AcDbLine
 10
-26.2178920000000062
 20
-13.9092590000000058
 30
0.0
 11
-26.2178880000000021
 21
-13.9092540000000042
 31
0.0
  0
LINE
  5
1AF
100
AcDbEntity
  8
F.Cu
 62
256
370
-1
 48
1.0
  6
Continuous
100
AcDbLine
 10
-26.2178880000000021
 20
-13.9092540000000042
 30
0.0
 11
-26.1868020000000001
 21
-13.8713750000000005
 31
0.0
  0
LINE
  5
1B0
100
AcDbEntity
  8
F.Cu
 62
256
370
-1
 48
1.0
  6
Continuous
100
AcDbLine
 10
-26.1868020000000001
 20
-13.8713750000000005
 30
0.0
 11
-26.076941000000005
 21
-13.7615129999999937
 31
0.0
  0
LINE
  5
1B1
100
AcDbEntity
  8
F.Cu
 62
256
370
-1
 48
1.0
  6
Continuous
100
AcDbLine
 10
-26.076941000000005
 20
-13.7615129999999937
 30
0.0
 11
-26.1650199999999984
 21
-13.6621669999999966
 31
0.0
  0
LINE
  5
1B2
100
AcDbEntity
  8
F.Cu
 62
256
370
-1
 48
1.0
  6
Continuous
100
AcDbLine
 10
-26.1650199999999984
 20
-13.6621669999999966
 30
0.0
 11
-26.2866140000000001
 21
-13.513432999999992
 31
0.0
  0
LINE
  5
1B3
100
AcDbEntity
  8
F.Cu
 62
256
370
-1
 48
1.0
  6
Continuous
100
AcDbLine
 10
-26.2866140000000001
 20
-13.513432999999992
 30
0.0
 11
-26.4021589999999975
 21
-13.3599519999999927
 31
0.0
  0
LINE
  5
1B4
100
AcDbEntity
  8
F.Cu
 62
256
370
-1
 48
1.0
  6
Continuous
100
AcDbLine
 10
-26.4021589999999975
 20
-13.3599519999999927
 30
0.0
 11
-26.5114710000000002
 21
-13.2019719999999978
 31
0.0
  0
LINE
  5
1B5
100
AcDbEntity
  8
F.Cu
 62
256
370
-1
 48
1.0
  6
Continuous
100
AcDbLine
 10
-26.5114710000000002
 20
-13.2019719999999978
 30
0.0
 11
-26.5633370000000042
 21
-13.1211210000000023
 31
0.0
  0
LINE
  5
1B6
100
AcDbEntity
  8
F.Cu
 62
256
370
-1
 48
1.0
  6
Continuous
100
AcDbLine
 10
-26.5633370000000042
 20
-13.1211210000000023
 30
0.0
 11
-25.4361609999999985
 21
-12.4703459999999993
 31
0.0
  0
LINE
  5
1B7
100
AcDbEntity
  8
F.Cu
 62
256
370
-1
 48
1.0
  6
Continuous
100
AcDbLine
 10
-25.4361609999999985
 20
-12.4703459999999993
 30
0.0
 11
-25.3921210000000031
 21
-12.5366309999999999
 31
0.0
  0
LINE
  5
1B8
100
AcDbEntity
  8
F.Cu
 62
256
370
-1
 48
1.0
  6
Continuous
100
AcDbLine
 10
-24.0126780000000082
 20
-13.7115189999999956
 30
0.0
 11
-23.8674120000000016
 21
-13.7765559999999994
 31
0.0
  0
LINE
  5
1B9
100
AcDbEntity
  8
F.Cu
 62
256
370
-1
 48
1.0
  6
Continuous
100
AcDbLine
 10
-23.8674120000000016
 20
-13.7765559999999994
 30
0.0
 11
-23.7193400000000025
 21
-13.8349219999999917
 31
0.0
  0
LINE
  5
1BA
100
AcDbEntity
  8
F.Cu
 62
256
370
-1
 48
1.0
  6
Continuous
100
AcDbLine
 10
-23.7193400000000025
 20
-13.8349219999999917
 30
0.0
 11
-23.5687690000000032
 21
-13.8864970000000056
 31
0.0
  0
LINE
  5
1BB
100
AcDbEntity
  8
F.Cu
 62
256
370
-1
 48
1.0
  6
Continuous
100
AcDbLine
 10
-23.5687690000000032
 20
-13.8864970000000056
 30
0.0
 11
-23.416008000000005
 21
-13.9311749999999961
 31
0.0
  0
LINE
  5
1BC
100
AcDbEntity
  8
F.Cu
 62
256
370
-1
 48
1.0
  6
Continuous
100
AcDbLine
 10
-23.416008000000005
 20
-13.9311749999999961
 30
0.0
 11
-23.261375000000001
 21
-13.9688620000000014
 31
0.0
  0
LINE
  5
1BD
100
AcDbEntity
  8
F.Cu
 62
256
370
-1
 48
1.0
  6
Continuous
100
AcDbLine
 10
-23.261375000000001
 20
-13.9688620000000014
 30
0.0
 11
-23.1051879999999983
 21
-13.999481000000003
 31
0.0
  0
LINE
  5
1BE
100
AcDbEntity
  8
F.Cu
 62
256
370
-1
 48
1.0
  6
Continuous
100
AcDbLine
 10
-23.1051879999999983
 20
-13.999481000000003
 30
0.0
 11
-22.947771000000003
 21
-14.0229700000000008
 31
0.0
  0
LINE
  5
1BF
100
AcDbEntity
  8
F.Cu
 62
256
370
-1
 48
1.0
  6
Continuous
100
AcDbLine
 10
-22.947771000000003
 20
-14.0229700000000008
 30
0.0
 11
-22.7894490000000047
 21
-14.0392779999999959
 31
0.0
  0
LINE
  5
1C0
100
AcDbEntity
  8
F.Cu
 62
256
370
-1
 48
1.0
  6
Continuous
100
AcDbLine
 10
-22.7894490000000047
 20
-14.0392779999999959
 30
0.0
 11
-22.7100250000000017
 21
-14.044280999999998
 31
0.0
  0
LINE
  5
1C1
100
AcDbEntity
  8
F.Cu
 62
256
370
-1
 48
1.0
  6
Continuous
100
AcDbLine
 10
-22.7100250000000017
 20
-14.044280999999998
 30
0.0
 11
-22.7100250000000017
 21
-15.3458320000000015
 31
0.0
  0
LINE
  5
1C2
100
AcDbEntity
  8
F.Cu
 62
256
370
-1
 48
1.0
  6
Continuous
100
AcDbLine
 10
-22.7100250000000017
 20
-15.3458320000000015
 30
0.0
 11
-22.8059780000000103
 21
-15.3413560000000047
 31
0.0
  0
LINE
  5
1C3
100
AcDbEntity
  8
F.Cu
 62
256
370
-1
 48
1.0
  6
Continuous
100
AcDbLine
 10
-22.8059780000000103
 20
-15.3413560000000047
 30
0.0
 11
-22.9636800000000108
 21
-15.3284429999999929
 31
0.0
  0
LINE
  5
1C4
100
AcDbEntity
  8
F.Cu
 62
256
370
-1
 48
1.0
  6
Continuous
100
AcDbLine
 10
-22.9636800000000108
 20
-15.3284429999999929
 30
0.0
 11
-22.1689709999999991
 21
-16.1231520000000046
 31
0.0
  0
LINE
  5
1C5
100
AcDbEntity
  8
F.Cu
 62
256
370
-1
 48
1.0
  6
Continuous
100
AcDbLine
 10
-22.1689709999999991
 20
-16.1231520000000046
 30
0.0
 11
-21.5600250000000102
 21
-16.1231520000000046
 31
0.0
  0
LINE
  5
1C6
100
AcDbEntity
  8
F.Cu
 62
256
370
-1
 48
1.0
  6
Continuous
100
AcDbLine
 10
-21.5600250000000102
 20
-16.1231520000000046
 30
0.0
 11
-21.4643540000000002
 21
-16.1421820000000054
 31
0.0
  0
LINE
  5
1C7
100
AcDbEntity
  8
F.Cu
 62
256
370
-1
 48
1.0
  6
Continuous
100
AcDbLine
 10
-21.4643540000000002
 20
-16.1421820000000054
 30
0.0
 11
-21.3832480000000089
 21
-16.1963750000000033
 31
0.0
  0
LINE
  5
1C8
100
AcDbEntity
  8
F.Cu
 62
256
370
-1
 48
1.0
  6
Continuous
100
AcDbLine
 10
-21.3832480000000089
 20
-16.1963750000000033
 30
0.0
 11
-21.329055000000011
 21
-16.2774809999999945
 31
0.0
  0
LINE
  5
1C9
100
AcDbEntity
  8
F.Cu
 62
256
370
-1
 48
1.0
  6
Continuous
100
AcDbLine
 10
-21.329055000000011
 20
-16.2774809999999945
 30
0.0
 11
-21.3100250000000102
 21
-16.3731520000000046
 31
0.0
  0
LINE
  5
1CA
100
AcDbEntity
  8
F.Cu
 62
256
370
-1
 48
1.0
  6
Continuous
100
AcDbLine
 10
-21.3100250000000102
 20
-16.3731520000000046
 30
0.0
 11
-21.3100250000000102
 21
-16.8981519999999961
 31
0.0
  0
LINE
  5
1CB
100
AcDbEntity
  8
F.Cu
 62
256
370
-1
 48
1.0
  6
Continuous
100
AcDbLine
 10
-21.3100250000000102
 20
-16.8981519999999961
 30
0.0
 11
-21.329055000000011
 21
-16.9938229999999919
 31
0.0
  0
LINE
  5
1CC
100
AcDbEntity
  8
F.Cu
 62
256
370
-1
 48
1.0
  6
Continuous
100
AcDbLine
 10
-21.329055000000011
 20
-16.9938229999999919
 30
0.0
 11
-21.3832480000000089
 21
-17.0749289999999974
 31
0.0
  0
LINE
  5
1CD
100
AcDbEntity
  8
F.Cu
 62
256
370
-1
 48
1.0
  6
Continuous
100
AcDbLine
 10
-21.3832480000000089
 20
-17.0749289999999974
 30
0.0
 11
-21.4643540000000002
 21
-17.1291219999999953
 31
0.0
  0
LINE
  5
1CE
100
AcDbEntity
  8
F.Cu
 62
256
370
-1
 48
1.0
  6
Continuous
100
AcDbLine
 10
-21.4643540000000002
 20
-17.1291219999999953
 30
0.0
 11
-21.5600250000000102
 21
-17.1481519999999961
 31
0.0
  0
LINE
  5
1CF
100
AcDbEntity
  8
F.Cu
 62
256
370
-1
 48
1.0
  6
Continuous
100
AcDbLine
 10
-21.5600250000000102
 20
-17.1481519999999961
 30
0.0
 11
-22.4600250000000017
 21
-17.1481519999999961
 31
0.0
  0
LINE
  5
1D0
100
AcDbEntity
  8
F.Cu
 62
256
370
-1
 48
1.0
  6
Continuous
100
AcDbLine
 10
-22.4600250000000017
 20
-17.1481519999999961
 30
0.0
 11
-22.5556959999999975
 21
-17.1291219999999953
 31
0.0
  0
LINE
  5
1D1
100
AcDbEntity
  8
F.Cu
 62
256
370
-1
 48
1.0
  6
Continuous
100
AcDbLine
 10
-22.5556959999999975
 20
-17.1291219999999953
 30
0.0
 11
-22.636802000000003
 21
-17.0749289999999974
 31
0.0
  0
LINE
  5
1D2
100
AcDbEntity
  8
F.Cu
 62
256
370
-1
 48
1.0
  6
Continuous
100
AcDbLine
 10
-22.636802000000003
 20
-17.0749289999999974
 30
0.0
 11
-22.6909950000000009
 21
-16.9938229999999919
 31
0.0
  0
LINE
  5
1D3
100
AcDbEntity
  8
F.Cu
 62
256
370
-1
 48
1.0
  6
Continuous
100
AcDbLine
 10
-22.6909950000000009
 20
-16.9938229999999919
 30
0.0
 11
-22.7100250000000017
 21
-16.8981519999999961
 31
0.0
  0
LINE
  5
1D4
100
AcDbEntity
  8
F.Cu
 62
256
370
-1
 48
1.0
  6
Continuous
100
AcDbLine
 10
-22.7100250000000017
 20
-16.8981519999999961
 30
0.0
 11
-22.7100250000000017
 21
-16.3731520000000046
 31
0.0
  0
LINE
  5
1D5
100
AcDbEntity
  8
F.Cu
 62
256
370
-1
 48
1.0
  6
Continuous
100
AcDbLine
 10
-22.7100250000000017
 20
-16.3731520000000046
 30
0.0
 11
-22.6960980000000063
 21
-16.3031330000000025
 31
0.0
  0
LINE
  5
1D6
100
AcDbEntity
  8
F.Cu
 62
256
370
-1
 48
1.0
  6
Continuous
100
AcDbLine
 10
-22.6960980000000063
 20
-16.3031330000000025
 30
0.0
 11
-23.8366960000000034
 21
-15.1625350000000054
 31
0.0
  0
LINE
  5
1D7
100
AcDbEntity
  8
F.Cu
 62
256
370
-1
 48
1.0
  6
Continuous
100
AcDbLine
 10
-23.8366960000000034
 20
-15.1625350000000054
 30
0.0
 11
-23.9370169999999973
 21
-15.1334909999999923
 31
0.0
  0
LINE
  5
1D8
100
AcDbEntity
  8
F.Cu
 62
256
370
-1
 48
1.0
  6
Continuous
100
AcDbLine
 10
-23.9370169999999973
 20
-15.1334909999999923
 30
0.0
 11
-24.1192660000000103
 21
-15.072726000000003
 31
0.0
  0
LINE
  5
1D9
100
AcDbEntity
  8
F.Cu
 62
256
370
-1
 48
1.0
  6
Continuous
100
AcDbLine
 10
-24.1192660000000103
 20
-15.072726000000003
 30
0.0
 11
-24.2989380000000068
 21
-15.0047169999999994
 31
0.0
  0
LINE
  5
1DA
100
AcDbEntity
  8
F.Cu
 62
256
370
-1
 48
1.0
  6
Continuous
100
AcDbLine
 10
-24.2989380000000068
 20
-15.0047169999999994
 30
0.0
 11
-24.4757440000000059
 21
-14.9295740000000023
 31
0.0
  0
LINE
  5
1DB
100
AcDbEntity
  8
F.Cu
 62
256
370
-1
 48
1.0
  6
Continuous
100
AcDbLine
 10
-24.4757440000000059
 20
-14.9295740000000023
 30
0.0
 11
-24.6494030000000066
 21
-14.847416999999993
 31
0.0
  0
LINE
  5
1DC
100
AcDbEntity
  8
F.Cu
 62
256
370
-1
 48
1.0
  6
Continuous
100
AcDbLine
 10
-24.6494030000000066
 20
-14.847416999999993
 30
0.0
 11
-24.7347359999999981
 21
-14.8033120000000054
 31
0.0
  0
LINE
  5
1DD
100
AcDbEntity
  8
F.Cu
 62
256
370
-1
 48
1.0
  6
Continuous
100
AcDbLine
 10
-24.7347359999999981
 20
-14.8033120000000054
 30
0.0
 11
-24.0839600000000047
 21
-13.6761359999999996
 31
0.0
  0
LINE
  5
1DE
100
AcDbEntity
  8
F.Cu
 62
256
370
-1
 48
1.0
  6
Continuous
100
AcDbLine
 10
-24.0839600000000047
 20
-13.6761359999999996
 30
0.0
 11
-24.0126780000000082
 21
-13.7115189999999956
 31
0.0
  0
LINE
  5
1DF
100
AcDbEntity
  8
F.Cu
 62
256
370
-1
 48
1.0
  6
Continuous
100
AcDbLine
 10
-20.2853139999999996
 20
-14.8033120000000054
 30
0.0
 11
-20.3706499999999977
 21
-14.8474120000000056
 31
0.0
  0
LINE
  5
1E0
100
AcDbEntity
  8
F.Cu
 62
256
370
-1
 48
1.0
  6
Continuous
100
AcDbLine
 10
-20.3706499999999977
 20
-14.8474120000000056
 30
0.0
 11
-20.5315620000000081
 21
-14.9235379999999935
 31
0.0
  0
LINE
  5
1E1
100
AcDbEntity
  8
F.Cu
 62
256
370
-1
 48
1.0
  6
Continuous
100
AcDbLine
 10
-20.5315620000000081
 20
-14.9235379999999935
 30
0.0
 11
-19.3332479999999975
 21
-16.1218520000000041
 31
0.0
  0
LINE
  5
1E2
100
AcDbEntity
  8
F.Cu
 62
256
370
-1
 48
1.0
  6
Continuous
100
AcDbLine
 10
-19.3332479999999975
 20
-16.1218520000000041
 30
0.0
 11
-19.3321810000000056
 21
-16.1231520000000046
 31
0.0
  0
LINE
  5
1E3
100
AcDbEntity
  8
F.Cu
 62
256
370
-1
 48
1.0
  6
Continuous
100
AcDbLine
 10
-19.3321810000000056
 20
-16.1231520000000046
 30
0.0
 11
-19.0600250000000102
 21
-16.1231520000000046
 31
0.0
  0
LINE
  5
1E4
100
AcDbEntity
  8
F.Cu
 62
256
370
-1
 48
1.0
  6
Continuous
100
AcDbLine
 10
-19.0600250000000102
 20
-16.1231520000000046
 30
0.0
 11
-18.9643540000000002
 21
-16.1421820000000054
 31
0.0
  0
LINE
  5
1E5
100
AcDbEntity
  8
F.Cu
 62
256
370
-1
 48
1.0
  6
Continuous
100
AcDbLine
 10
-18.9643540000000002
 20
-16.1421820000000054
 30
0.0
 11
-18.8832480000000089
 21
-16.1963750000000033
 31
0.0
  0
LINE
  5
1E6
100
AcDbEntity
  8
F.Cu
 62
256
370
-1
 48
1.0
  6
Continuous
100
AcDbLine
 10
-18.8832480000000089
 20
-16.1963750000000033
 30
0.0
 11
-18.829055000000011
 21
-16.2774809999999945
 31
0.0
  0
LINE
  5
1E7
100
AcDbEntity
  8
F.Cu
 62
256
370
-1
 48
1.0
  6
Continuous
100
AcDbLine
 10
-18.829055000000011
 20
-16.2774809999999945
 30
0.0
 11
-18.8100250000000102
 21
-16.3731520000000046
 31
0.0
  0
LINE
  5
1E8
100
AcDbEntity
  8
F.Cu
 62
256
370
-1
 48
1.0
  6
Continuous
100
AcDbLine
 10
-18.8100250000000102
 20
-16.3731520000000046
 30
0.0
 11
-18.8100250000000102
 21
-16.8981519999999961
 31
0.0
  0
LINE
  5
1E9
100
AcDbEntity
  8
F.Cu
 62
256
370
-1
 48
1.0
  6
Continuous
100
AcDbLine
 10
-18.8100250000000102
 20
-16.8981519999999961
 30
0.0
 11
-18.829055000000011
 21
-16.9938229999999919
 31
0.0
  0
LINE
  5
1EA
100
AcDbEntity
  8
F.Cu
 62
256
370
-1
 48
1.0
  6
Continuous
100
AcDbLine
 10
-18.829055000000011
 20
-16.9938229999999919
 30
0.0
 11
-18.8832480000000089
 21
-17.0749289999999974
 31
0.0
  0
LINE
  5
1EB
100
AcDbEntity
  8
F.Cu
 62
256
370
-1
 48
1.0
  6
Continuous
100
AcDbLine
 10
-18.8832480000000089
 20
-17.0749289999999974
 30
0.0
 11
-18.9643540000000002
 21
-17.1291219999999953
 31
0.0
  0
LINE
  5
1EC
100
AcDbEntity
  8
F.Cu
 62
256
370
-1
 48
1.0
  6
Continuous
100
AcDbLine
 10
-18.9643540000000002
 20
-17.1291219999999953
 30
0.0
 11
-19.0600250000000102
 21
-17.1481519999999961
 31
0.0
  0
LINE
  5
1ED
100
AcDbEntity
  8
F.Cu
 62
256
370
-1
 48
1.0
  6
Continuous
100
AcDbLine
 10
-19.0600250000000102
 20
-17.1481519999999961
 30
0.0
 11
-19.9600250000000017
 21
-17.1481519999999961
 31
0.0
  0
LINE
  5
1EE
100
AcDbEntity
  8
F.Cu
 62
256
370
-1
 48
1.0
  6
Continuous
100
AcDbLine
 10
-19.9600250000000017
 20
-17.1481519999999961
 30
0.0
 11
-20.0556959999999975
 21
-17.1291219999999953
 31
0.0
  0
LINE
  5
1EF
100
AcDbEntity
  8
F.Cu
 62
256
370
-1
 48
1.0
  6
Continuous
100
AcDbLine
 10
-20.0556959999999975
 20
-17.1291219999999953
 30
0.0
 11
-20.136802000000003
 21
-17.0749289999999974
 31
0.0
  0
LINE
  5
1F0
100
AcDbEntity
  8
F.Cu
 62
256
370
-1
 48
1.0
  6
Continuous
100
AcDbLine
 10
-20.136802000000003
 20
-17.0749289999999974
 30
0.0
 11
-20.1909950000000009
 21
-16.9938229999999919
 31
0.0
  0
LINE
  5
1F1
100
AcDbEntity
  8
F.Cu
 62
256
370
-1
 48
1.0
  6
Continuous
100
AcDbLine
 10
-20.1909950000000009
 20
-16.9938229999999919
 30
0.0
 11
-20.2100250000000017
 21
-16.8981519999999961
 31
0.0
  0
LINE
  5
1F2
100
AcDbEntity
  8
F.Cu
 62
256
370
-1
 48
1.0
  6
Continuous
100
AcDbLine
 10
-20.2100250000000017
 20
-16.8981519999999961
 30
0.0
 11
-20.2100250000000017
 21
-16.3731520000000046
 31
0.0
  0
LINE
  5
1F3
100
AcDbEntity
  8
F.Cu
 62
256
370
-1
 48
1.0
  6
Continuous
100
AcDbLine
 10
-20.2100250000000017
 20
-16.3731520000000046
 30
0.0
 11
-20.1909950000000009
 21
-16.2774809999999945
 31
0.0
  0
LINE
  5
1F4
100
AcDbEntity
  8
F.Cu
 62
256
370
-1
 48
1.0
  6
Continuous
100
AcDbLine
 10
-20.1909950000000009
 20
-16.2774809999999945
 30
0.0
 11
-20.136802000000003
 21
-16.1963750000000033
 31
0.0
  0
LINE
  5
1F5
100
AcDbEntity
  8
cut_1.7mm
 62
256
370
-1
 48
1.0
  6
BYLAYER
100
AcDbLine
 10
-43.5
 20
-5.5500000000000007
 30
0.0
 11
-37.5
 21
-5.5500000000000007
 31
0.0
  0
LINE
  5
1F6
100
AcDbEntity
  8
cut_1.7mm
 62
256
370
-1
 48
1.0
  6
BYLAYER
100
AcDbLine
 10
0.0000000000000107
 20
-5.5499999999999972
 30
0.0
 11
-5.9999999999999911
 21
-5.5499999999999936
 31
0.0
  0
LINE
  5
1F7
100
AcDbEntity
  8
F.Cu
 62
256
370
-1
 48
1.0
  6
Continuous
100
AcDbLine
 10
-20.136802000000003
 20
-16.1963750000000033
 30
0.0
 11
-20.0556959999999975
 21
-16.1421820000000054
 31
0.0
  0
LINE
  5
1F8
100
AcDbEntity
  8
cut_1.7mm
 62
256
370
-1
 48
1.0
  6
BYLAYER
100
AcDbLine
 10
-37.5
 20
-4.6499999999998884
 30
0.0
 11
-37.5
 21
-11.9499999999998892
 31
0.0
  0
LINE
  5
1F9
100
AcDbEntity
  8
cut_1.7mm
 62
256
370
-1
 48
1.0
  6
BYLAYER
100
AcDbLine
 10
-5.9999999999999893
 20
-4.6499999999998849
 30
0.0
 11
-5.9999999999999893
 21
-11.9499999999998874
 31
0.0
  0
LINE
  5
1FA
100
AcDbEntity
  8
F.Cu
 62
256
370
-1
 48
1.0
  6
Continuous
100
AcDbLine
 10
-20.0556959999999975
 20
-16.1421820000000054
 30
0.0
 11
-20.0259440000000097
 21
-16.1362639999999971
 31
0.0
  0
LINE
  5
1FB
100
AcDbEntity
  8
cut_1.7mm
 62
256
370
-1
 48
1.0
  6
BYLAYER
100
AcDbLine
 10
-37.5
 20
-10.9499999999999957
 30
0.0
 11
-43.5
 21
-10.9499999999999922
 31
0.0
  0
LINE
  5
1FC
100
AcDbEntity
  8
cut_1.7mm
 62
256
370
-1
 48
1.0
  6
BYLAYER
100
AcDbLine
 10
-5.9999999999999929
 20
-10.9499999999999886
 30
0.0
 11
0.0000000000000071
 21
-10.9499999999999833
 31
0.0
  0
LINE
  5
1FD
100
AcDbEntity
  8
F.Cu
 62
256
370
-1
 48
1.0
  6
Continuous
100
AcDbLine
 10
-20.0259440000000097
 20
-16.1362639999999971
 30
0.0
 11
-21.042303000000004
 21
-15.1199050000000028
 31
0.0
  0
LINE
  5
1FE
100
AcDbEntity
  8
cut_1.7mm
 62
256
370
-1
 48
1.0
  6
BYLAYER
100
AcDbLine
 10
-43.5
 20
-10.9499999999999957
 30
0.0
 11
-43.5
 21
-9.8499999999999979
 31
0.0
  0
LINE
  5
1FF
100
AcDbEntity
  8
cut_1.7mm
 62
256
370
-1
 48
1.0
  6
BYLAYER
100
AcDbLine
 10
0.0000000000000107
 20
-10.949999999999994
 30
0.0
 11
0.0000000000000107
 21
-9.8499999999999943
 31
0.0
  0
LINE
  5
200
100
AcDbEntity
  8
F.Cu
 62
256
370
-1
 48
1.0
  6
Continuous
100
AcDbLine
 10
-21.042303000000004
 20
-15.1199050000000028
 30
0.0
 11
-21.0830339999999978
 21
-15.1334860000000049
 31
0.0
  0
LINE
  5
201
100
AcDbEntity
  8
cut_1.7mm
 62
256
370
-1
 48
1.0
  6
BYLAYER
100
AcDbLine
 10
-43.5
 20
-9.8499999999999979
 30
0.0
 11
-38.5
 21
-9.8499999999999979
 31
0.0
  0
LINE
  5
202
100
AcDbEntity
  8
cut_1.7mm
 62
256
370
-1
 48
1.0
  6
BYLAYER
100
AcDbLine
 10
0.0000000000000107
 20
-9.8499999999999943
 30
0.0
 11
-4.9999999999999893
 21
-9.8499999999999908
 31
0.0
  0
LINE
  5
203
100
AcDbEntity
  8
F.Cu
 62
256
370
-1
 48
1.0
  6
Continuous
100
AcDbLine
 10
-21.0830339999999978
 20
-15.1334860000000049
 30
0.0
 11
-21.2675679999999971
 21
-15.1869109999999949
 31
0.0
  0
LINE
  5
204
100
AcDbEntity
  8
cut_1.7mm
 62
256
370
-1
 48
1.0
  6
BYLAYER
100
AcDbLine
 10
-38.5
 20
-9.8499999999999979
 30
0.0
 11
-38.5
 21
-8.7499999999999964
 31
0.0
  0
LINE
  5
205
100
AcDbEntity
  8
cut_1.7mm
 62
256
370
-1
 48
1.0
  6
BYLAYER
100
AcDbLine
 10
-4.9999999999999893
 20
-9.8499999999999908
 30
0.0
 11
-4.9999999999999964
 21
-8.7499999999999893
 31
0.0
  0
LINE
  5
206
100
AcDbEntity
  8
F.Cu
 62
256
370
-1
 48
1.0
  6
Continuous
100
AcDbLine
 10
-21.2675679999999971
 20
-15.1869109999999949
 30
0.0
 11
-21.4540920000000028
 21
-15.2329089999999923
 31
0.0
  0
LINE
  5
207
100
AcDbEntity
  8
cut_1.7mm
 62
256
370
-1
 48
1.0
  6
BYLAYER
100
AcDbLine
 10
-43.5000000000000568
 20
-5.5500000000000007
 30
0.0
 11
-43.5
 21
-6.649999999999995
 31
0.0
  0
LINE
  5
208
100
AcDbEntity
  8
cut_1.7mm
 62
256
370
-1
 48
1.0
  6
BYLAYER
100
AcDbLine
 10
0.0000000000000604
 20
-5.5499999999999865
 30
0.0
 11
0.0000000000000036
 21
-6.6499999999999808
 31
0.0
  0
LINE
  5
209
100
AcDbEntity
  8
F.Cu
 62
256
370
-1
 48
1.0
  6
Continuous
100
AcDbLine
 10
-21.4540920000000028
 20
-15.2329089999999923
 30
0.0
 11
-21.6423070000000024
 21
-15.2714079999999939
 31
0.0
  0
LINE
  5
20A
100
AcDbEntity
  8
cut_1.7mm
 62
256
370
-1
 48
1.0
  6
BYLAYER
100
AcDbLine
 10
-43.5
 20
-6.649999999999995
 30
0.0
 11
-38.5
 21
-6.649999999999995
 31
0.0
  0
LINE
  5
20B
100
AcDbEntity
  8
cut_1.7mm
 62
256
370
-1
 48
1.0
  6
BYLAYER
100
AcDbLine
 10
0.0000000000000036
 20
-6.6499999999999808
 30
0.0
 11
-4.9999999999999929
 21
-6.6499999999999879
 31
0.0
  0
LINE
  5
20C
100
AcDbEntity
  8
F.Cu
 62
256
370
-1
 48
1.0
  6
Continuous
100
AcDbLine
 10
-21.6423070000000024
 20
-15.2714079999999939
 30
0.0
 11
-21.8319110000000052
 21
-15.302346
 31
0.0
  0
LINE
  5
20D
100
AcDbEntity
  8
cut_1.7mm
 62
256
370
-1
 48
1.0
  6
BYLAYER
100
AcDbLine
 10
-38.5
 20
-6.649999999999995
 30
0.0
 11
-38.5
 21
-7.6499999999999986
 31
0.0
  0
LINE
  5
20E
100
AcDbEntity
  8
cut_1.7mm
 62
256
370
-1
 48
1.0
  6
BYLAYER
100
AcDbLine
 10
-4.9999999999999929
 20
-6.6499999999999879
 30
0.0
 11
-4.9999999999999929
 21
-7.6499999999999915
 31
0.0
  0
LINE
  5
20F
100
AcDbEntity
  8
F.Cu
 62
256
370
-1
 48
1.0
  6
Continuous
100
AcDbLine
 10
-21.8319110000000052
 20
-15.302346
 30
0.0
 11
-22.0226010000000088
 21
-15.3256719999999973
 31
0.0
  0
LINE
  5
210
100
AcDbEntity
  8
cut_1.7mm
 62
256
370
-1
 48
1.0
  6
BYLAYER
100
AcDbLine
 10
-38.5
 20
-7.6499999999999986
 30
0.0
 11
-43.5
 21
-7.6499999999999986
 31
0.0
  0
LINE
  5
211
100
AcDbEntity
  8
cut_1.7mm
 62
256
370
-1
 48
1.0
  6
BYLAYER
100
AcDbLine
 10
-4.9999999999999929
 20
-7.6499999999999915
 30
0.0
 11
0.0000000000000071
 21
-7.6499999999999915
 31
0.0
  0
LINE
  5
212
100
AcDbEntity
  8
F.Cu
 62
256
370
-1
 48
1.0
  6
Continuous
100
AcDbLine
 10
-22.0226010000000088
 20
-15.3256719999999973
 30
0.0
 11
-22.2140720000000016
 21
-15.3413500000000056
 31
0.0
  0
LINE
  5
213
100
AcDbEntity
  8
cut_1.7mm
 62
256
370
-1
 48
1.0
  6
BYLAYER
100
AcDbLine
 10
-43.5
 20
-7.6499999999999986
 30
0.0
 11
-43.5
 21
-8.7499999999999964
 31
0.0
  0
LINE
  5
214
100
AcDbEntity
  8
cut_1.7mm
 62
256
370
-1
 48
1.0
  6
BYLAYER
100
AcDbLine
 10
0.0000000000000071
 20
-7.6499999999999915
 30
0.0
 11
0.0000000000000071
 21
-8.7499999999999858
 31
0.0
  0
LINE
  5
215
100
AcDbEntity
  8
F.Cu
 62
256
370
-1
 48
1.0
  6
Continuous
100
AcDbLine
 10
-22.2140720000000016
 20
-15.3413500000000056
 30
0.0
 11
-22.3100250000000102
 21
-15.3458320000000015
 31
0.0
  0
LINE
  5
216
100
AcDbEntity
  8
cut_1.7mm
 62
256
370
-1
 48
1.0
  6
BYLAYER
100
AcDbLine
 10
-43.5
 20
-8.7499999999999964
 30
0.0
 11
-38.5
 21
-8.7499999999999964
 31
0.0
  0
LINE
  5
217
100
AcDbEntity
  8
cut_1.7mm
 62
256
370
-1
 48
1.0
  6
BYLAYER
100
AcDbLine
 10
0.0000000000000071
 20
-8.7499999999999858
 30
0.0
 11
-4.9999999999999964
 21
-8.7499999999999893
 31
0.0
  0
LINE
  5
218
100
AcDbEntity
  8
F.Cu
 62
256
370
-1
 48
1.0
  6
Continuous
100
AcDbLine
 10
-22.3100250000000102
 20
-15.3458320000000015
 30
0.0
 11
-22.3100250000000102
 21
-14.044280999999998
 31
0.0
  0
LINE
  5
219
100
AcDbEntity
  8
cut_1.7mm
 62
256
370
-1
 48
1.0
  6
BYLAYER
100
AcDbLine
 10
-37.5
 20
-5.5500000000000007
 30
0.0
 11
-37.5
 21
-4.6499999999998884
 31
0.0
  0
LINE
  5
21A
100
AcDbEntity
  8
cut_1.7mm
 62
256
370
-1
 48
1.0
  6
BYLAYER
100
AcDbLine
 10
-5.9999999999999911
 20
-5.5499999999999936
 30
0.0
 11
-5.9999999999999893
 21
-4.6499999999998849
 31
0.0
  0
LINE
  5
21B
100
AcDbEntity
  8
F.Cu
 62
256
370
-1
 48
1.0
  6
Continuous
100
AcDbLine
 10
-22.3100250000000102
 20
-14.044280999999998
 30
0.0
 11
-22.2306010000000072
 21
-14.0392829999999975
 31
0.0
  0
LINE
  5
21C
100
AcDbEntity
  8
cut_1.7mm
 62
256
370
-1
 48
1.0
  6
BYLAYER
100
AcDbLine
 10
-37.5
 20
-11.9499999999998856
 30
0.0
 11
-37.5
 21
-10.9500000000000028
 31
0.0
  0
LINE
  5
21D
100
AcDbEntity
  8
cut_1.7mm
 62
256
370
-1
 48
1.0
  6
BYLAYER
100
AcDbLine
 10
-5.9999999999999876
 20
-11.9499999999998856
 30
0.0
 11
-5.9999999999999876
 21
-10.9499999999999993
 31
0.0
  0
LINE
  5
21E
100
AcDbEntity
  8
F.Cu
 62
256
370
-1
 48
1.0
  6
Continuous
100
AcDbLine
 10
-22.2306010000000072
 20
-14.0392829999999975
 30
0.0
 11
-22.0722779999999972
 21
-14.0229750000000024
 31
0.0
  0
LINE
  5
21F
100
AcDbEntity
  8
F.Cu
 62
256
370
-1
 48
1.0
  6
Continuous
100
AcDbLine
 10
-22.0722779999999972
 20
-14.0229750000000024
 30
0.0
 11
-21.9148610000000019
 21
-13.999487000000002
 31
0.0
  0
LINE
  5
220
100
AcDbEntity
  8
F.Cu
 62
256
370
-1
 48
1.0
  6
Continuous
100
AcDbLine
 10
-21.9148610000000019
 20
-13.999487000000002
 30
0.0
 11
-21.7586739999999992
 21
-13.968867000000003
 31
0.0
  0
LINE
  5
221
100
AcDbEntity
  8
F.Cu
 62
256
370
-1
 48
1.0
  6
Continuous
100
AcDbLine
 10
-21.7586739999999992
 20
-13.968867000000003
 30
0.0
 11
-21.6040399999999977
 21
-13.9311799999999977
 31
0.0
  0
LINE
  5
222
100
AcDbEntity
  8
F.Cu
 62
256
370
-1
 48
1.0
  6
Continuous
100
AcDbLine
 10
-21.6040399999999977
 20
-13.9311799999999977
 30
0.0
 11
-21.451279999999997
 21
-13.886501999999993
 31
0.0
  0
LINE
  5
223
100
AcDbEntity
  8
F.Cu
 62
256
370
-1
 48
1.0
  6
Continuous
100
AcDbLine
 10
-21.451279999999997
 20
-13.886501999999993
 30
0.0
 11
-21.3007080000000002
 21
-13.8349269999999933
 31
0.0
  0
LINE
  5
224
100
AcDbEntity
  8
F.Cu
 62
256
370
-1
 48
1.0
  6
Continuous
100
AcDbLine
 10
-21.3007080000000002
 20
-13.8349269999999933
 30
0.0
 11
-21.1526360000000011
 21
-13.7765610000000009
 31
0.0
  0
LINE
  5
225
100
AcDbEntity
  8
F.Cu
 62
256
370
-1
 48
1.0
  6
Continuous
100
AcDbLine
 10
-21.1526360000000011
 20
-13.7765610000000009
 30
0.0
 11
-21.0073700000000088
 21
-13.7115239999999972
 31
0.0
  0
LINE
  5
226
100
AcDbEntity
  8
F.Cu
 62
256
370
-1
 48
1.0
  6
Continuous
100
AcDbLine
 10
-21.0073700000000088
 20
-13.7115239999999972
 30
0.0
 11
-20.9360900000000072
 21
-13.6761359999999996
 31
0.0
  0
LINE
  5
227
100
AcDbEntity
  8
F.Cu
 62
256
370
-1
 48
1.0
  6
Continuous
100
AcDbLine
 10
-20.9360900000000072
 20
-13.6761359999999996
 30
0.0
 11
-20.2853139999999996
 21
-14.8033120000000054
 31
0.0
  0
LINE
  5
228
100
AcDbEntity
  8
F.Cu
 62
256
370
-1
 48
1.0
  6
Continuous
100
AcDbLine
 10
-18.4567130000000077
 20
-13.1211210000000023
 30
0.0
 11
-18.5085660000000018
 21
-13.2019810000000035
 31
0.0
  0
LINE
  5
229
100
AcDbEntity
  8
F.Cu
 62
256
370
-1
 48
1.0
  6
Continuous
100
AcDbLine
 10
-18.5085660000000018
 20
-13.2019810000000035
 30
0.0
 11
-18.6178780000000046
 21
-13.3599619999999959
 31
0.0
  0
LINE
  5
22A
100
AcDbEntity
  8
F.Cu
 62
256
370
-1
 48
1.0
  6
Continuous
100
AcDbLine
 10
-18.6178780000000046
 20
-13.3599619999999959
 30
0.0
 11
-18.7334230000000019
 21
-13.5134429999999952
 31
0.0
  0
LINE
  5
22B
100
AcDbEntity
  8
F.Cu
 62
256
370
-1
 48
1.0
  6
Continuous
100
AcDbLine
 10
-18.7334230000000019
 20
-13.5134429999999952
 30
0.0
 11
-18.8550170000000037
 21
-13.6621769999999998
 31
0.0
  0
LINE
  5
22C
100
AcDbEntity
  8
F.Cu
 62
256
370
-1
 48
1.0
  6
Continuous
100
AcDbLine
 10
-18.8550170000000037
 20
-13.6621769999999998
 30
0.0
 11
-18.9430980000000062
 21
-13.7615249999999918
 31
0.0
  0
LINE
  5
22D
100
AcDbEntity
  8
F.Cu
 62
256
370
-1
 48
1.0
  6
Continuous
100
AcDbLine
 10
-18.9430980000000062
 20
-13.7615249999999918
 30
0.0
 11
-17.7457480000000061
 21
-14.9588749999999919
 31
0.0
  0
LINE
  5
22E
100
AcDbEntity
  8
F.Cu
 62
256
370
-1
 48
1.0
  6
Continuous
100
AcDbLine
 10
-17.7457480000000061
 20
-14.9588749999999919
 30
0.0
 11
-17.7146630000000016
 21
-14.9967539999999957
 31
0.0
  0
LINE
  5
22F
100
AcDbEntity
  8
F.Cu
 62
256
370
-1
 48
1.0
  6
Continuous
100
AcDbLine
 10
-17.7146630000000016
 20
-14.9967539999999957
 30
0.0
 11
-17.714658
 21
-14.9967589999999973
 31
0.0
  0
LINE
  5
230
100
AcDbEntity
  8
F.Cu
 62
256
370
-1
 48
1.0
  6
Continuous
100
AcDbLine
 10
-17.714658
 20
-14.9967589999999973
 30
0.0
 11
-17.6773290000000003
 21
-15.0868789999999962
 31
0.0
  0
LINE
  5
231
100
AcDbEntity
  8
F.Cu
 62
256
370
-1
 48
1.0
  6
Continuous
100
AcDbLine
 10
-17.6773290000000003
 20
-15.0868789999999962
 30
0.0
 11
-17.6725250000000074
 21
-15.1356519999999932
 31
0.0
  0
LINE
  5
232
100
AcDbEntity
  8
F.Cu
 62
256
370
-1
 48
1.0
  6
Continuous
100
AcDbLine
 10
-17.6725250000000074
 20
-15.1356519999999932
 30
0.0
 11
-17.6725250000000074
 21
-15.6195979999999963
 31
0.0
  0
LINE
  5
233
100
AcDbEntity
  8
F.Cu
 62
256
370
-1
 48
1.0
  6
Continuous
100
AcDbLine
 10
-17.6725250000000074
 20
-15.6195979999999963
 30
0.0
 11
-17.1689709999999991
 21
-16.1231520000000046
 31
0.0
  0
LINE
  5
234
100
AcDbEntity
  8
F.Cu
 62
256
370
-1
 48
1.0
  6
Continuous
100
AcDbLine
 10
-17.1689709999999991
 20
-16.1231520000000046
 30
0.0
 11
-16.5600250000000102
 21
-16.1231520000000046
 31
0.0
  0
LINE
  5
235
100
AcDbEntity
  8
F.Cu
 62
256
370
-1
 48
1.0
  6
Continuous
100
AcDbLine
 10
-16.5600250000000102
 20
-16.1231520000000046
 30
0.0
 11
-16.4643540000000002
 21
-16.1421820000000054
 31
0.0
  0
LINE
  5
236
100
AcDbEntity
  8
F.Cu
 62
256
370
-1
 48
1.0
  6
Continuous
100
AcDbLine
 10
-16.4643540000000002
 20
-16.1421820000000054
 30
0.0
 11
-16.3832480000000089
 21
-16.1963750000000033
 31
0.0
  0
LINE
  5
237
100
AcDbEntity
  8
F.Cu
 62
256
370
-1
 48
1.0
  6
Continuous
100
AcDbLine
 10
-16.3832480000000089
 20
-16.1963750000000033
 30
0.0
 11
-16.329055000000011
 21
-16.2774809999999945
 31
0.0
  0
LINE
  5
238
100
AcDbEntity
  8
F.Cu
 62
256
370
-1
 48
1.0
  6
Continuous
100
AcDbLine
 10
-16.329055000000011
 20
-16.2774809999999945
 30
0.0
 11
-16.3100250000000102
 21
-16.3731520000000046
 31
0.0
  0
LINE
  5
239
100
AcDbEntity
  8
F.Cu
 62
256
370
-1
 48
1.0
  6
Continuous
100
AcDbLine
 10
-16.3100250000000102
 20
-16.3731520000000046
 30
0.0
 11
-16.3100250000000102
 21
-16.8981519999999961
 31
0.0
  0
LINE
  5
23A
100
AcDbEntity
  8
F.Cu
 62
256
370
-1
 48
1.0
  6
Continuous
100
AcDbLine
 10
-16.3100250000000102
 20
-16.8981519999999961
 30
0.0
 11
-16.329055000000011
 21
-16.9938229999999919
 31
0.0
  0
LINE
  5
23B
100
AcDbEntity
  8
F.Cu
 62
256
370
-1
 48
1.0
  6
Continuous
100
AcDbLine
 10
-16.329055000000011
 20
-16.9938229999999919
 30
0.0
 11
-16.3832480000000089
 21
-17.0749289999999974
 31
0.0
  0
LINE
  5
23C
100
AcDbEntity
  8
F.Cu
 62
256
370
-1
 48
1.0
  6
Continuous
100
AcDbLine
 10
-16.3832480000000089
 20
-17.0749289999999974
 30
0.0
 11
-16.4643540000000002
 21
-17.1291219999999953
 31
0.0
  0
LINE
  5
23D
100
AcDbEntity
  8
F.Cu
 62
256
370
-1
 48
1.0
  6
Continuous
100
AcDbLine
 10
-16.4643540000000002
 20
-17.1291219999999953
 30
0.0
 11
-16.5600250000000102
 21
-17.1481519999999961
 31
0.0
  0
LINE
  5
23E
100
AcDbEntity
  8
F.Cu
 62
256
370
-1
 48
1.0
  6
Continuous
100
AcDbLine
 10
-16.5600250000000102
 20
-17.1481519999999961
 30
0.0
 11
-17.4600250000000017
 21
-17.1481519999999961
 31
0.0
  0
LINE
  5
23F
100
AcDbEntity
  8
F.Cu
 62
256
370
-1
 48
1.0
  6
Continuous
100
AcDbLine
 10
-17.4600250000000017
 20
-17.1481519999999961
 30
0.0
 11
-17.5556959999999975
 21
-17.1291219999999953
 31
0.0
  0
LINE
  5
240
100
AcDbEntity
  8
F.Cu
 62
256
370
-1
 48
1.0
  6
Continuous
100
AcDbLine
 10
-17.5556959999999975
 20
-17.1291219999999953
 30
0.0
 11
-17.636802000000003
 21
-17.0749289999999974
 31
0.0
  0
LINE
  5
241
100
AcDbEntity
  8
F.Cu
 62
256
370
-1
 48
1.0
  6
Continuous
100
AcDbLine
 10
-17.636802000000003
 20
-17.0749289999999974
 30
0.0
 11
-17.6909950000000009
 21
-16.9938229999999919
 31
0.0
  0
LINE
  5
242
100
AcDbEntity
  8
F.Cu
 62
256
370
-1
 48
1.0
  6
Continuous
100
AcDbLine
 10
-17.6909950000000009
 20
-16.9938229999999919
 30
0.0
 11
-17.7100250000000017
 21
-16.8981519999999961
 31
0.0
  0
LINE
  5
243
100
AcDbEntity
  8
F.Cu
 62
256
370
-1
 48
1.0
  6
Continuous
100
AcDbLine
 10
-17.7100250000000017
 20
-16.8981519999999961
 30
0.0
 11
-17.7100250000000017
 21
-16.3731520000000046
 31
0.0
  0
LINE
  5
244
100
AcDbEntity
  8
F.Cu
 62
256
370
-1
 48
1.0
  6
Continuous
100
AcDbLine
 10
-17.7100250000000017
 20
-16.3731520000000046
 30
0.0
 11
-17.6960980000000063
 21
-16.3031330000000025
 31
0.0
  0
LINE
  5
245
100
AcDbEntity
  8
F.Cu
 62
256
370
-1
 48
1.0
  6
Continuous
100
AcDbLine
 10
-17.6960980000000063
 20
-16.3031330000000025
 30
0.0
 11
-18.0993020000000087
 21
-15.8999290000000002
 31
0.0
  0
LINE
  5
246
100
AcDbEntity
  8
F.Cu
 62
256
370
-1
 48
1.0
  6
Continuous
100
AcDbLine
 10
-18.0993020000000087
 20
-15.8999290000000002
 30
0.0
 11
-18.1303880000000106
 21
-15.862048999999999
 31
0.0
  0
LINE
  5
247
100
AcDbEntity
  8
F.Cu
 62
256
370
-1
 48
1.0
  6
Continuous
100
AcDbLine
 10
-18.1303880000000106
 20
-15.862048999999999
 30
0.0
 11
-18.1303920000000005
 21
-15.8620449999999948
 31
0.0
  0
LINE
  5
248
100
AcDbEntity
  8
F.Cu
 62
256
370
-1
 48
1.0
  6
Continuous
100
AcDbLine
 10
-18.1303920000000005
 20
-15.8620449999999948
 30
0.0
 11
-18.1677210000000002
 21
-15.771924999999996
 31
0.0
  0
LINE
  5
249
100
AcDbEntity
  8
F.Cu
 62
256
370
-1
 48
1.0
  6
Continuous
100
AcDbLine
 10
-18.1677210000000002
 20
-15.771924999999996
 30
0.0
 11
-18.1725250000000074
 21
-15.7231519999999989
 31
0.0
  0
LINE
  5
24A
100
AcDbEntity
  8
F.Cu
 62
256
370
-1
 48
1.0
  6
Continuous
100
AcDbLine
 10
-18.1725250000000074
 20
-15.7231519999999989
 30
0.0
 11
-18.1725250000000074
 21
-15.2392059999999958
 31
0.0
  0
LINE
  5
24B
100
AcDbEntity
  8
F.Cu
 62
256
370
-1
 48
1.0
  6
Continuous
100
AcDbLine
 10
-18.1725250000000074
 20
-15.2392059999999958
 30
0.0
 11
-19.2965390000000099
 21
-14.1151919999999933
 31
0.0
  0
LINE
  5
24C
100
AcDbEntity
  8
F.Cu
 62
256
370
-1
 48
1.0
  6
Continuous
100
AcDbLine
 10
-19.2965390000000099
 20
-14.1151919999999933
 30
0.0
 11
-19.3978450000000038
 21
-14.2050129999999939
 31
0.0
  0
LINE
  5
24D
100
AcDbEntity
  8
F.Cu
 62
256
370
-1
 48
1.0
  6
Continuous
100
AcDbLine
 10
-19.3978450000000038
 20
-14.2050129999999939
 30
0.0
 11
-19.5465780000000109
 21
-14.3266090000000048
 31
0.0
  0
LINE
  5
24E
100
AcDbEntity
  8
F.Cu
 62
256
370
-1
 48
1.0
  6
Continuous
100
AcDbLine
 10
-19.5465780000000109
 20
-14.3266090000000048
 30
0.0
 11
-19.700057000000001
 21
-14.4421569999999946
 31
0.0
  0
LINE
  5
24F
100
AcDbEntity
  8
F.Cu
 62
256
370
-1
 48
1.0
  6
Continuous
100
AcDbLine
 10
-19.700057000000001
 20
-14.4421569999999946
 30
0.0
 11
-19.8580359999999985
 21
-14.551472000000004
 31
0.0
  0
LINE
  5
250
100
AcDbEntity
  8
F.Cu
 62
256
370
-1
 48
1.0
  6
Continuous
100
AcDbLine
 10
-19.8580359999999985
 20
-14.551472000000004
 30
0.0
 11
-19.938904000000008
 21
-14.6033120000000025
 31
0.0
  0
LINE
  5
251
100
AcDbEntity
  8
F.Cu
 62
256
370
-1
 48
1.0
  6
Continuous
100
AcDbLine
 10
-19.938904000000008
 20
-14.6033120000000025
 30
0.0
 11
-20.5896790000000038
 21
-13.4761359999999968
 31
0.0
  0
LINE
  5
252
100
AcDbEntity
  8
F.Cu
 62
256
370
-1
 48
1.0
  6
Continuous
100
AcDbLine
 10
-20.5896790000000038
 20
-13.4761359999999968
 30
0.0
 11
-20.5233950000000078
 21
-13.4320950000000039
 31
0.0
  0
LINE
  5
253
100
AcDbEntity
  8
F.Cu
 62
256
370
-1
 48
1.0
  6
Continuous
100
AcDbLine
 10
-20.5233950000000078
 20
-13.4320950000000039
 30
0.0
 11
-20.3944390000000055
 21
-13.3388099999999952
 31
0.0
  0
LINE
  5
254
100
AcDbEntity
  8
F.Cu
 62
256
370
-1
 48
1.0
  6
Continuous
100
AcDbLine
 10
-20.3944390000000055
 20
-13.3388099999999952
 30
0.0
 11
-20.2698579999999993
 21
-13.2397579999999948
 31
0.0
  0
LINE
  5
255
100
AcDbEntity
  8
F.Cu
 62
256
370
-1
 48
1.0
  6
Continuous
100
AcDbLine
 10
-20.2698579999999993
 20
-13.2397579999999948
 30
0.0
 11
-20.1499069999999989
 21
-13.1351470000000035
 31
0.0
  0
LINE
  5
256
100
AcDbEntity
  8
F.Cu
 62
256
370
-1
 48
1.0
  6
Continuous
100
AcDbLine
 10
-20.1499069999999989
 20
-13.1351470000000035
 30
0.0
 11
-20.0348359999999985
 21
-13.025190000000002
 31
0.0
  0
LINE
  5
257
100
AcDbEntity
  8
F.Cu
 62
256
370
-1
 48
1.0
  6
Continuous
100
AcDbLine
 10
-20.0348359999999985
 20
-13.025190000000002
 30
0.0
 11
-19.9248820000000109
 21
-12.9101169999999996
 31
0.0
  0
LINE
  5
258
100
AcDbEntity
  8
F.Cu
 62
256
370
-1
 48
1.0
  6
Continuous
100
AcDbLine
 10
-19.9248820000000109
 20
-12.9101169999999996
 30
0.0
 11
-19.8202720000000028
 21
-12.7901639999999972
 31
0.0
  0
LINE
  5
259
100
AcDbEntity
  8
F.Cu
 62
256
370
-1
 48
1.0
  6
Continuous
100
AcDbLine
 10
-19.8202720000000028
 20
-12.7901639999999972
 30
0.0
 11
-19.7212240000000065
 21
-12.6655799999999985
 31
0.0
  0
LINE
  5
25A
100
AcDbEntity
  8
F.Cu
 62
256
370
-1
 48
1.0
  6
Continuous
100
AcDbLine
 10
-19.7212240000000065
 20
-12.6655799999999985
 30
0.0
 11
-19.627941000000007
 21
-12.5366229999999987
 31
0.0
  0
LINE
  5
25B
100
AcDbEntity
  8
F.Cu
 62
256
370
-1
 48
1.0
  6
Continuous
100
AcDbLine
 10
-19.627941000000007
 20
-12.5366229999999987
 30
0.0
 11
-19.5838889999999992
 21
-12.4703459999999993
 31
0.0
  0
LINE
  5
25C
100
AcDbEntity
  8
F.Cu
 62
256
370
-1
 48
1.0
  6
Continuous
100
AcDbLine
 10
-19.5838889999999992
 20
-12.4703459999999993
 30
0.0
 11
-18.4567130000000077
 21
-13.1211210000000023
 31
0.0
  0
LINE
  5
25D
100
AcDbEntity
  8
F.Cu
 62
256
370
-1
 48
1.0
  6
Continuous
100
AcDbLine
 10
-17.718670000000003
 20
-10.8459530000000015
 30
0.0
 11
-17.7343510000000038
 21
-11.0374229999999969
 31
0.0
  0
LINE
  5
25E
100
AcDbEntity
  8
F.Cu
 62
256
370
-1
 48
1.0
  6
Continuous
100
AcDbLine
 10
-17.7343510000000038
 20
-11.0374229999999969
 30
0.0
 11
-17.7576790000000102
 21
-11.2281130000000005
 31
0.0
  0
LINE
  5
25F
100
AcDbEntity
  8
F.Cu
 62
256
370
-1
 48
1.0
  6
Continuous
100
AcDbLine
 10
-17.7576790000000102
 20
-11.2281130000000005
 30
0.0
 11
-17.7886190000000113
 21
-11.4177169999999961
 31
0.0
  0
LINE
  5
260
100
AcDbEntity
  8
F.Cu
 62
256
370
-1
 48
1.0
  6
Continuous
100
AcDbLine
 10
-17.7886190000000113
 20
-11.4177169999999961
 30
0.0
 11
-17.8079780000000056
 21
-11.5123549999999994
 31
0.0
  0
LINE
  5
261
100
AcDbEntity
  8
F.Cu
 62
256
370
-1
 48
1.0
  6
Continuous
100
AcDbLine
 10
-17.8079780000000056
 20
-11.5123549999999994
 30
0.0
 11
-17.3833220000000068
 21
-11.5123549999999994
 31
0.0
  0
LINE
  5
262
100
AcDbEntity
  8
F.Cu
 62
256
370
-1
 48
1.0
  6
Continuous
100
AcDbLine
 10
-17.3833220000000068
 20
-11.5123549999999994
 30
0.0
 11
-17.3345490000000098
 21
-11.5171589999999995
 31
0.0
  0
LINE
  5
263
100
AcDbEntity
  8
F.Cu
 62
256
370
-1
 48
1.0
  6
Continuous
100
AcDbLine
 10
-17.3345490000000098
 20
-11.5171589999999995
 30
0.0
 11
-17.2444290000000109
 21
-11.5544879999999992
 31
0.0
  0
LINE
  5
264
100
AcDbEntity
  8
F.Cu
 62
256
370
-1
 48
1.0
  6
Continuous
100
AcDbLine
 10
-17.2444290000000109
 20
-11.5544879999999992
 30
0.0
 11
-17.2444250000000068
 21
-11.5544919999999962
 31
0.0
  0
LINE
  5
265
100
AcDbEntity
  8
F.Cu
 62
256
370
-1
 48
1.0
  6
Continuous
100
AcDbLine
 10
-17.2444250000000068
 20
-11.5544919999999962
 30
0.0
 11
-17.2065450000000055
 21
-11.5855779999999982
 31
0.0
  0
LINE
  5
266
100
AcDbEntity
  8
F.Cu
 62
256
370
-1
 48
1.0
  6
Continuous
100
AcDbLine
 10
-17.2065450000000055
 20
-11.5855779999999982
 30
0.0
 11
-16.6689720000000108
 21
-12.1231519999999975
 31
0.0
  0
LINE
  5
267
100
AcDbEntity
  8
F.Cu
 62
256
370
-1
 48
1.0
  6
Continuous
100
AcDbLine
 10
-16.6689720000000108
 20
-12.1231519999999975
 30
0.0
 11
-16.0600250000000102
 21
-12.1231519999999975
 31
0.0
  0
LINE
  5
268
100
AcDbEntity
  8
F.Cu
 62
256
370
-1
 48
1.0
  6
Continuous
100
AcDbLine
 10
-16.0600250000000102
 20
-12.1231519999999975
 30
0.0
 11
-15.9643540000000002
 21
-12.1421819999999983
 31
0.0
  0
LINE
  5
269
100
AcDbEntity
  8
F.Cu
 62
256
370
-1
 48
1.0
  6
Continuous
100
AcDbLine
 10
-15.9643540000000002
 20
-12.1421819999999983
 30
0.0
 11
-15.8832480000000089
 21
-12.1963749999999962
 31
0.0
  0
LINE
  5
26A
100
AcDbEntity
  8
F.Cu
 62
256
370
-1
 48
1.0
  6
Continuous
100
AcDbLine
 10
-15.8832480000000089
 20
-12.1963749999999962
 30
0.0
 11
-15.829055000000011
 21
-12.2774810000000016
 31
0.0
  0
LINE
  5
26B
100
AcDbEntity
  8
F.Cu
 62
256
370
-1
 48
1.0
  6
Continuous
100
AcDbLine
 10
-15.829055000000011
 20
-12.2774810000000016
 30
0.0
 11
-15.8100250000000102
 21
-12.3731519999999975
 31
0.0
  0
LINE
  5
26C
100
AcDbEntity
  8
F.Cu
 62
256
370
-1
 48
1.0
  6
Continuous
100
AcDbLine
 10
-15.8100250000000102
 20
-12.3731519999999975
 30
0.0
 11
-15.8100250000000102
 21
-12.8981519999999961
 31
0.0
  0
LINE
  5
26D
100
AcDbEntity
  8
F.Cu
 62
256
370
-1
 48
1.0
  6
Continuous
100
AcDbLine
 10
-15.8100250000000102
 20
-12.8981519999999961
 30
0.0
 11
-15.829055000000011
 21
-12.993822999999999
 31
0.0
  0
LINE
  5
26E
100
AcDbEntity
  8
F.Cu
 62
256
370
-1
 48
1.0
  6
Continuous
100
AcDbLine
 10
-15.829055000000011
 20
-12.993822999999999
 30
0.0
 11
-15.8832480000000089
 21
-13.0749289999999974
 31
0.0
  0
LINE
  5
26F
100
AcDbEntity
  8
F.Cu
 62
256
370
-1
 48
1.0
  6
Continuous
100
AcDbLine
 10
-15.8832480000000089
 20
-13.0749289999999974
 30
0.0
 11
-15.9643540000000002
 21
-13.1291219999999953
 31
0.0
  0
LINE
  5
270
100
AcDbEntity
  8
F.Cu
 62
256
370
-1
 48
1.0
  6
Continuous
100
AcDbLine
 10
-15.9643540000000002
 20
-13.1291219999999953
 30
0.0
 11
-16.0600250000000102
 21
-13.1481519999999961
 31
0.0
  0
LINE
  5
271
100
AcDbEntity
  8
F.Cu
 62
256
370
-1
 48
1.0
  6
Continuous
100
AcDbLine
 10
-16.0600250000000102
 20
-13.1481519999999961
 30
0.0
 11
-16.9600250000000017
 21
-13.1481519999999961
 31
0.0
  0
LINE
  5
272
100
AcDbEntity
  8
F.Cu
 62
256
370
-1
 48
1.0
  6
Continuous
100
AcDbLine
 10
-16.9600250000000017
 20
-13.1481519999999961
 30
0.0
 11
-17.0556959999999975
 21
-13.1291219999999953
 31
0.0
  0
LINE
  5
273
100
AcDbEntity
  8
F.Cu
 62
256
370
-1
 48
1.0
  6
Continuous
100
AcDbLine
 10
-17.0556959999999975
 20
-13.1291219999999953
 30
0.0
 11
-17.136802000000003
 21
-13.0749289999999974
 31
0.0
  0
LINE
  5
274
100
AcDbEntity
  8
F.Cu
 62
256
370
-1
 48
1.0
  6
Continuous
100
AcDbLine
 10
-17.136802000000003
 20
-13.0749289999999974
 30
0.0
 11
-17.1909950000000009
 21
-12.993822999999999
 31
0.0
  0
LINE
  5
275
100
AcDbEntity
  8
F.Cu
 62
256
370
-1
 48
1.0
  6
Continuous
100
AcDbLine
 10
-17.1909950000000009
 20
-12.993822999999999
 30
0.0
 11
-17.2100250000000017
 21
-12.8981519999999961
 31
0.0
  0
LINE
  5
276
100
AcDbEntity
  8
F.Cu
 62
256
370
-1
 48
1.0
  6
Continuous
100
AcDbLine
 10
-17.2100250000000017
 20
-12.8981519999999961
 30
0.0
 11
-17.2100250000000017
 21
-12.3731519999999975
 31
0.0
  0
LINE
  5
277
100
AcDbEntity
  8
F.Cu
 62
256
370
-1
 48
1.0
  6
Continuous
100
AcDbLine
 10
-17.2100250000000017
 20
-12.3731519999999975
 30
0.0
 11
-17.1960980000000063
 21
-12.3031329999999954
 31
0.0
  0
LINE
  5
278
100
AcDbEntity
  8
F.Cu
 62
256
370
-1
 48
1.0
  6
Continuous
100
AcDbLine
 10
-17.1960980000000063
 20
-12.3031329999999954
 30
0.0
 11
-17.4868760000000094
 21
-12.0123549999999994
 31
0.0
  0
LINE
  5
279
100
AcDbEntity
  8
F.Cu
 62
256
370
-1
 48
1.0
  6
Continuous
100
AcDbLine
 10
-17.4868760000000094
 20
-12.0123549999999994
 30
0.0
 11
-17.9383400000000108
 21
-12.0123549999999994
 31
0.0
  0
LINE
  5
27A
100
AcDbEntity
  8
F.Cu
 62
256
370
-1
 48
1.0
  6
Continuous
100
AcDbLine
 10
-17.9383400000000108
 20
-12.0123549999999994
 30
0.0
 11
-17.9873150000000095
 21
-12.1592339999999979
 31
0.0
  0
LINE
  5
27B
100
AcDbEntity
  8
F.Cu
 62
256
370
-1
 48
1.0
  6
Continuous
100
AcDbLine
 10
-17.9873150000000095
 20
-12.1592339999999979
 30
0.0
 11
-18.055326000000008
 21
-12.3389039999999994
 31
0.0
  0
LINE
  5
27C
100
AcDbEntity
  8
F.Cu
 62
256
370
-1
 48
1.0
  6
Continuous
100
AcDbLine
 10
-18.055326000000008
 20
-12.3389039999999994
 30
0.0
 11
-18.130471
 21
-12.5157099999999986
 31
0.0
  0
LINE
  5
27D
100
AcDbEntity
  8
F.Cu
 62
256
370
-1
 48
1.0
  6
Continuous
100
AcDbLine
 10
-18.130471
 20
-12.5157099999999986
 30
0.0
 11
-18.2126300000000043
 21
-12.6893659999999997
 31
0.0
  0
LINE
  5
27E
100
AcDbEntity
  8
F.Cu
 62
256
370
-1
 48
1.0
  6
Continuous
100
AcDbLine
 10
-18.2126300000000043
 20
-12.6893659999999997
 30
0.0
 11
-18.2567130000000049
 21
-12.7747109999999964
 31
0.0
  0
LINE
  5
27F
100
AcDbEntity
  8
F.Cu
 62
256
370
-1
 48
1.0
  6
Continuous
100
AcDbLine
 10
-18.2567130000000049
 20
-12.7747109999999964
 30
0.0
 11
-19.3838890000000106
 21
-12.1239349999999959
 31
0.0
  0
LINE
  5
280
100
AcDbEntity
  8
F.Cu
 62
256
370
-1
 48
1.0
  6
Continuous
100
AcDbLine
 10
-19.3838890000000106
 20
-12.1239349999999959
 30
0.0
 11
-19.3485040000000055
 21
-12.0526529999999994
 31
0.0
  0
LINE
  5
281
100
AcDbEntity
  8
F.Cu
 62
256
370
-1
 48
1.0
  6
Continuous
100
AcDbLine
 10
-19.3485040000000055
 20
-12.0526529999999994
 30
0.0
 11
-19.2834650000000067
 21
-11.9073879999999974
 31
0.0
  0
LINE
  5
282
100
AcDbEntity
  8
F.Cu
 62
256
370
-1
 48
1.0
  6
Continuous
100
AcDbLine
 10
-19.2834650000000067
 20
-11.9073879999999974
 30
0.0
 11
-19.2250960000000077
 21
-11.7593169999999958
 31
0.0
  0
LINE
  5
283
100
AcDbEntity
  8
F.Cu
 62
256
370
-1
 48
1.0
  6
Continuous
100
AcDbLine
 10
-19.2250960000000077
 20
-11.7593169999999958
 30
0.0
 11
-19.1735180000000014
 21
-11.6087459999999965
 31
0.0
  0
LINE
  5
284
100
AcDbEntity
  8
F.Cu
 62
256
370
-1
 48
1.0
  6
Continuous
100
AcDbLine
 10
-19.1735180000000014
 20
-11.6087459999999965
 30
0.0
 11
-19.1288380000000018
 21
-11.4559849999999983
 31
0.0
  0
LINE
  5
285
100
AcDbEntity
  8
F.Cu
 62
256
370
-1
 48
1.0
  6
Continuous
100
AcDbLine
 10
-19.1288380000000018
 20
-11.4559849999999983
 30
0.0
 11
-19.091148000000004
 21
-11.3013520000000014
 31
0.0
  0
LINE
  5
286
100
AcDbEntity
  8
F.Cu
 62
256
370
-1
 48
1.0
  6
Continuous
100
AcDbLine
 10
-19.091148000000004
 20
-11.3013520000000014
 30
0.0
 11
-19.0605260000000101
 21
-11.1451649999999987
 31
0.0
  0
LINE
  5
287
100
AcDbEntity
  8
F.Cu
 62
256
370
-1
 48
1.0
  6
Continuous
100
AcDbLine
 10
-19.0605260000000101
 20
-11.1451649999999987
 30
0.0
 11
-19.037035000000003
 21
-10.9877479999999963
 31
0.0
  0
LINE
  5
288
100
AcDbEntity
  8
F.Cu
 62
256
370
-1
 48
1.0
  6
Continuous
100
AcDbLine
 10
-19.037035000000003
 20
-10.9877479999999963
 30
0.0
 11
-19.0207240000000013
 21
-10.8294250000000005
 31
0.0
  0
LINE
  5
289
100
AcDbEntity
  8
F.Cu
 62
256
370
-1
 48
1.0
  6
Continuous
100
AcDbLine
 10
-19.0207240000000013
 20
-10.8294250000000005
 30
0.0
 11
-19.015743999999998
 21
-10.75
 31
0.0
  0
LINE
  5
28A
100
AcDbEntity
  8
F.Cu
 62
256
370
-1
 48
1.0
  6
Continuous
100
AcDbLine
 10
-19.015743999999998
 20
-10.75
 30
0.0
 11
-17.7141930000000087
 21
-10.75
 31
0.0
  0
LINE
  5
28B
100
AcDbEntity
  8
F.Cu
 62
256
370
-1
 48
1.0
  6
Continuous
100
AcDbLine
 10
-17.7141930000000087
 20
-10.75
 30
0.0
 11
-17.718670000000003
 21
-10.8459530000000015
 31
0.0
  0
LINE
  5
28C
100
AcDbEntity
  8
F.Cu
 62
256
370
-1
 48
1.0
  6
Continuous
100
AcDbLine
 10
-22.3143320000000074
 20
-5.7534899999999984
 30
0.0
 11
-22.1189640000000054
 21
-5.7654549999999949
 31
0.0
  0
LINE
  5
28D
100
AcDbEntity
  8
F.Cu
 62
256
370
-1
 48
1.0
  6
Continuous
100
AcDbLine
 10
-22.1189640000000054
 20
-5.7654549999999949
 30
0.0
 11
-21.9242460000000108
 21
-5.7853739999999965
 31
0.0
  0
LINE
  5
28E
100
AcDbEntity
  8
F.Cu
 62
256
370
-1
 48
1.0
  6
Continuous
100
AcDbLine
 10
-21.9242460000000108
 20
-5.7853739999999965
 30
0.0
 11
-21.7305020000000013
 21
-5.8132140000000012
 31
0.0
  0
LINE
  5
28F
100
AcDbEntity
  8
F.Cu
 62
256
370
-1
 48
1.0
  6
Continuous
100
AcDbLine
 10
-21.7305020000000013
 20
-5.8132140000000012
 30
0.0
 11
-21.5380540000000025
 21
-5.8489289999999974
 31
0.0
  0
LINE
  5
290
100
AcDbEntity
  8
F.Cu
 62
256
370
-1
 48
1.0
  6
Continuous
100
AcDbLine
 10
-21.5380540000000025
 20
-5.8489289999999974
 30
0.0
 11
-21.3472220000000021
 21
-5.8924590000000014
 31
0.0
  0
LINE
  5
291
100
AcDbEntity
  8
F.Cu
 62
256
370
-1
 48
1.0
  6
Continuous
100
AcDbLine
 10
-21.3472220000000021
 20
-5.8924590000000014
 30
0.0
 11
-21.15832300000001
 21
-5.9437319999999962
 31
0.0
  0
LINE
  5
292
100
AcDbEntity
  8
F.Cu
 62
256
370
-1
 48
1.0
  6
Continuous
100
AcDbLine
 10
-21.15832300000001
 20
-5.9437319999999962
 30
0.0
 11
-20.9716719999999981
 21
-6.0026629999999974
 31
0.0
  0
LINE
  5
293
100
AcDbEntity
  8
F.Cu
 62
256
370
-1
 48
1.0
  6
Continuous
100
AcDbLine
 10
-20.9716719999999981
 20
-6.0026629999999974
 30
0.0
 11
-20.7875780000000105
 21
-6.0691550000000012
 31
0.0
  0
LINE
  5
294
100
AcDbEntity
  8
F.Cu
 62
256
370
-1
 48
1.0
  6
Continuous
100
AcDbLine
 10
-20.7875780000000105
 20
-6.0691550000000012
 30
0.0
 11
-20.6063469999999995
 21
-6.1430950000000015
 31
0.0
  0
LINE
  5
295
100
AcDbEntity
  8
F.Cu
 62
256
370
-1
 48
1.0
  6
Continuous
100
AcDbLine
 10
-20.6063469999999995
 20
-6.1430950000000015
 30
0.0
 11
-20.4282809999999984
 21
-6.2243619999999984
 31
0.0
  0
LINE
  5
296
100
AcDbEntity
  8
F.Cu
 62
256
370
-1
 48
1.0
  6
Continuous
100
AcDbLine
 10
-20.4282809999999984
 20
-6.2243619999999984
 30
0.0
 11
-20.2536759999999987
 21
-6.3128200000000012
 31
0.0
  0
LINE
  5
297
100
AcDbEntity
  8
F.Cu
 62
256
370
-1
 48
1.0
  6
Continuous
100
AcDbLine
 10
-20.2536759999999987
 20
-6.3128200000000012
 30
0.0
 11
-20.0828220000000073
 21
-6.4083229999999949
 31
0.0
  0
LINE
  5
298
100
AcDbEntity
  8
F.Cu
 62
256
370
-1
 48
1.0
  6
Continuous
100
AcDbLine
 10
-20.0828220000000073
 20
-6.4083229999999949
 30
0.0
 11
-19.9160040000000009
 21
-6.5107109999999997
 31
0.0
  0
LINE
  5
299
100
AcDbEntity
  8
F.Cu
 62
256
370
-1
 48
1.0
  6
Continuous
100
AcDbLine
 10
-19.9160040000000009
 20
-6.5107109999999997
 30
0.0
 11
-19.890026000000006
 21
-6.5281519999999977
 31
0.0
  0
LINE
  5
29A
100
AcDbEntity
  8
F.Cu
 62
256
370
-1
 48
1.0
  6
Continuous
100
AcDbLine
 10
-19.890026000000006
 20
-6.5281519999999977
 30
0.0
 11
-14.1850250000000102
 21
-6.5281519999999977
 31
0.0
  0
LINE
  5
29B
100
AcDbEntity
  8
F.Cu
 62
256
370
-1
 48
1.0
  6
Continuous
100
AcDbLine
 10
-14.1850250000000102
 20
-6.5281519999999977
 30
0.0
 11
-14.1850250000000102
 21
-6.0161519999999973
 31
0.0
  0
LINE
  5
29C
100
AcDbEntity
  8
F.Cu
 62
256
370
-1
 48
1.0
  6
Continuous
100
AcDbLine
 10
-14.1850250000000102
 20
-6.0161519999999973
 30
0.0
 11
-7.8350250000000159
 21
-6.0161519999999973
 31
0.0
  0
LINE
  5
29D
100
AcDbEntity
  8
F.Cu
 62
256
370
-1
 48
1.0
  6
Continuous
100
AcDbLine
 10
-7.8350250000000159
 20
-6.0161519999999973
 30
0.0
 11
-7.8350250000000159
 21
-7.5401519999999982
 31
0.0
  0
LINE
  5
29E
100
AcDbEntity
  8
F.Cu
 62
256
370
-1
 48
1.0
  6
Continuous
100
AcDbLine
 10
-7.8350250000000159
 20
-7.5401519999999982
 30
0.0
 11
-14.1850250000000102
 21
-7.5401519999999982
 31
0.0
  0
LINE
  5
29F
100
AcDbEntity
  8
F.Cu
 62
256
370
-1
 48
1.0
  6
Continuous
100
AcDbLine
 10
-14.1850250000000102
 20
-7.5401519999999982
 30
0.0
 11
-14.1850250000000102
 21
-7.0281519999999977
 31
0.0
  0
LINE
  5
2A0
100
AcDbEntity
  8
F.Cu
 62
256
370
-1
 48
1.0
  6
Continuous
100
AcDbLine
 10
-14.1850250000000102
 20
-7.0281519999999977
 30
0.0
 11
-19.2491839999999996
 21
-7.0281519999999977
 31
0.0
  0
LINE
  5
2A1
100
AcDbEntity
  8
F.Cu
 62
256
370
-1
 48
1.0
  6
Continuous
100
AcDbLine
 10
-19.2491839999999996
 20
-7.0281519999999977
 30
0.0
 11
-19.1518850000000072
 21
-7.1195919999999964
 31
0.0
  0
LINE
  5
2A2
100
AcDbEntity
  8
F.Cu
 62
256
370
-1
 48
1.0
  6
Continuous
100
AcDbLine
 10
-19.1518850000000072
 20
-7.1195919999999964
 30
0.0
 11
-19.0148360000000025
 21
-7.2593389999999962
 31
0.0
  0
LINE
  5
2A3
100
AcDbEntity
  8
F.Cu
 62
256
370
-1
 48
1.0
  6
Continuous
100
AcDbLine
 10
-19.0148360000000025
 20
-7.2593389999999962
 30
0.0
 11
-18.8835970000000088
 21
-7.4045559999999986
 31
0.0
  0
LINE
  5
2A4
100
AcDbEntity
  8
F.Cu
 62
256
370
-1
 48
1.0
  6
Continuous
100
AcDbLine
 10
-18.8835970000000088
 20
-7.4045559999999986
 30
0.0
 11
-18.758386999999999
 21
-7.5550029999999984
 31
0.0
  0
LINE
  5
2A5
100
AcDbEntity
  8
F.Cu
 62
256
370
-1
 48
1.0
  6
Continuous
100
AcDbLine
 10
-18.758386999999999
 20
-7.5550029999999984
 30
0.0
 11
-18.6394140000000021
 21
-7.7104279999999994
 31
0.0
  0
LINE
  5
2A6
100
AcDbEntity
  8
F.Cu
 62
256
370
-1
 48
1.0
  6
Continuous
100
AcDbLine
 10
-18.6394140000000021
 20
-7.7104279999999994
 30
0.0
 11
-18.526875000000004
 21
-7.8705750000000014
 31
0.0
  0
LINE
  5
2A7
100
AcDbEntity
  8
F.Cu
 62
256
370
-1
 48
1.0
  6
Continuous
100
AcDbLine
 10
-18.526875000000004
 20
-7.8705750000000014
 30
0.0
 11
-18.4209590000000105
 21
-8.0351759999999981
 31
0.0
  0
LINE
  5
2A8
100
AcDbEntity
  8
F.Cu
 62
256
370
-1
 48
1.0
  6
Continuous
100
AcDbLine
 10
-18.4209590000000105
 20
-8.0351759999999981
 30
0.0
 11
-18.3218410000000063
 21
-8.2039579999999983
 31
0.0
  0
LINE
  5
2A9
100
AcDbEntity
  8
F.Cu
 62
256
370
-1
 48
1.0
  6
Continuous
100
AcDbLine
 10
-18.3218410000000063
 20
-8.2039579999999983
 30
0.0
 11
-18.2296860000000009
 21
-8.3766400000000001
 31
0.0
  0
LINE
  5
2AA
100
AcDbEntity
  8
F.Cu
 62
256
370
-1
 48
1.0
  6
Continuous
100
AcDbLine
 10
-18.2296860000000009
 20
-8.3766400000000001
 30
0.0
 11
-18.1446460000000087
 21
-8.5529349999999962
 31
0.0
  0
LINE
  5
2AB
100
AcDbEntity
  8
F.Cu
 62
256
370
-1
 48
1.0
  6
Continuous
100
AcDbLine
 10
-18.1446460000000087
 20
-8.5529349999999962
 30
0.0
 11
-18.0668640000000096
 21
-8.7325509999999991
 31
0.0
  0
LINE
  5
2AC
100
AcDbEntity
  8
F.Cu
 62
256
370
-1
 48
1.0
  6
Continuous
100
AcDbLine
 10
-18.0668640000000096
 20
-8.7325509999999991
 30
0.0
 11
-17.9964690000000047
 21
-8.9151879999999988
 31
0.0
  0
LINE
  5
2AD
100
AcDbEntity
  8
F.Cu
 62
256
370
-1
 48
1.0
  6
Continuous
100
AcDbLine
 10
-17.9964690000000047
 20
-8.9151879999999988
 30
0.0
 11
-17.9335769999999997
 21
-9.100543
 31
0.0
  0
LINE
  5
2AE
100
AcDbEntity
  8
F.Cu
 62
256
370
-1
 48
1.0
  6
Continuous
100
AcDbLine
 10
-17.9335769999999997
 20
-9.100543
 30
0.0
 11
-17.878294000000011
 21
-9.2883069999999943
 31
0.0
  0
LINE
  5
2AF
100
AcDbEntity
  8
F.Cu
 62
256
370
-1
 48
1.0
  6
Continuous
100
AcDbLine
 10
-17.878294000000011
 20
-9.2883069999999943
 30
0.0
 11
-17.830711000000008
 21
-9.4781690000000012
 31
0.0
  0
LINE
  5
2B0
100
AcDbEntity
  8
F.Cu
 62
256
370
-1
 48
1.0
  6
Continuous
100
AcDbLine
 10
-17.830711000000008
 20
-9.4781690000000012
 30
0.0
 11
-17.7909070000000042
 21
-9.6698129999999978
 31
0.0
  0
LINE
  5
2B1
100
AcDbEntity
  8
F.Cu
 62
256
370
-1
 48
1.0
  6
Continuous
100
AcDbLine
 10
-17.7909070000000042
 20
-9.6698129999999978
 30
0.0
 11
-17.7589490000000012
 21
-9.8629199999999955
 31
0.0
  0
LINE
  5
2B2
100
AcDbEntity
  8
F.Cu
 62
256
370
-1
 48
1.0
  6
Continuous
100
AcDbLine
 10
-17.7589490000000012
 20
-9.8629199999999955
 30
0.0
 11
-17.7348900000000071
 21
-10.0571699999999993
 31
0.0
  0
LINE
  5
2B3
100
AcDbEntity
  8
F.Cu
 62
256
370
-1
 48
1.0
  6
Continuous
100
AcDbLine
 10
-17.7348900000000071
 20
-10.0571699999999993
 30
0.0
 11
-17.7187690000000089
 21
-10.2522389999999959
 31
0.0
  0
LINE
  5
2B4
100
AcDbEntity
  8
F.Cu
 62
256
370
-1
 48
1.0
  6
Continuous
100
AcDbLine
 10
-17.7187690000000089
 20
-10.2522389999999959
 30
0.0
 11
-17.7141930000000087
 21
-10.3500000000000014
 31
0.0
  0
LINE
  5
2B5
100
AcDbEntity
  8
F.Cu
 62
256
370
-1
 48
1.0
  6
Continuous
100
AcDbLine
 10
-17.7141930000000087
 20
-10.3500000000000014
 30
0.0
 11
-20.5200499999999977
 21
-10.3500000000000014
 31
0.0
  0
LINE
  5
2B6
100
AcDbEntity
  8
F.Cu
 62
256
370
-1
 48
1.0
  6
Continuous
100
AcDbLine
 10
-20.5200499999999977
 20
-10.3500000000000014
 30
0.0
 11
-20.5267920000000004
 21
-10.2877769999999984
 31
0.0
  0
LINE
  5
2B7
100
AcDbEntity
  8
F.Cu
 62
256
370
-1
 48
1.0
  6
Continuous
100
AcDbLine
 10
-20.5267920000000004
 20
-10.2877769999999984
 30
0.0
 11
-20.5470729999999975
 21
-10.1642609999999962
 31
0.0
  0
LINE
  5
2B8
100
AcDbEntity
  8
F.Cu
 62
256
370
-1
 48
1.0
  6
Continuous
100
AcDbLine
 10
-20.5470729999999975
 20
-10.1642609999999962
 30
0.0
 11
-20.5750390000000039
 21
-10.0422549999999973
 31
0.0
  0
LINE
  5
2B9
100
AcDbEntity
  8
F.Cu
 62
256
370
-1
 48
1.0
  6
Continuous
100
AcDbLine
 10
-20.5750390000000039
 20
-10.0422549999999973
 30
0.0
 11
-20.6105810000000105
 21
-9.9222359999999981
 31
0.0
  0
LINE
  5
2BA
100
AcDbEntity
  8
F.Cu
 62
256
370
-1
 48
1.0
  6
Continuous
100
AcDbLine
 10
-20.6105810000000105
 20
-9.9222359999999981
 30
0.0
 11
-20.6535590000000013
 21
-9.804674999999996
 31
0.0
  0
LINE
  5
2BB
100
AcDbEntity
  8
F.Cu
 62
256
370
-1
 48
1.0
  6
Continuous
100
AcDbLine
 10
-20.6535590000000013
 20
-9.804674999999996
 30
0.0
 11
-20.7038050000000027
 21
-9.6900329999999997
 31
0.0
  0
LINE
  5
2BC
100
AcDbEntity
  8
F.Cu
 62
256
370
-1
 48
1.0
  6
Continuous
100
AcDbLine
 10
-20.7038050000000027
 20
-9.6900329999999997
 30
0.0
 11
-20.7611220000000003
 21
-9.578756999999996
 31
0.0
  0
LINE
  5
2BD
100
AcDbEntity
  8
F.Cu
 62
256
370
-1
 48
1.0
  6
Continuous
100
AcDbLine
 10
-20.7611220000000003
 20
-9.578756999999996
 30
0.0
 11
-20.8252860000000055
 21
-9.4712829999999997
 31
0.0
  0
LINE
  5
2BE
100
AcDbEntity
  8
F.Cu
 62
256
370
-1
 48
1.0
  6
Continuous
100
AcDbLine
 10
-20.8252860000000055
 20
-9.4712829999999997
 30
0.0
 11
-20.8960459999999983
 21
-9.3680329999999969
 31
0.0
  0
LINE
  5
2BF
100
AcDbEntity
  8
F.Cu
 62
256
370
-1
 48
1.0
  6
Continuous
100
AcDbLine
 10
-20.8960459999999983
 20
-9.3680329999999969
 30
0.0
 11
-20.9731250000000102
 21
-9.2694089999999942
 31
0.0
  0
LINE
  5
2C0
100
AcDbEntity
  8
F.Cu
 62
256
370
-1
 48
1.0
  6
Continuous
100
AcDbLine
 10
-20.9731250000000102
 20
-9.2694089999999942
 30
0.0
 11
-21.0562200000000104
 21
-9.1758000000000006
 31
0.0
  0
LINE
  5
2C1
100
AcDbEntity
  8
F.Cu
 62
256
370
-1
 48
1.0
  6
Continuous
100
AcDbLine
 10
-21.0562200000000104
 20
-9.1758000000000006
 30
0.0
 11
-21.1450070000000068
 21
-9.0875699999999977
 31
0.0
  0
LINE
  5
2C2
100
AcDbEntity
  8
F.Cu
 62
256
370
-1
 48
1.0
  6
Continuous
100
AcDbLine
 10
-21.1450070000000068
 20
-9.0875699999999977
 30
0.0
 11
-21.2391380000000112
 21
-9.0050659999999976
 31
0.0
  0
LINE
  5
2C3
100
AcDbEntity
  8
F.Cu
 62
256
370
-1
 48
1.0
  6
Continuous
100
AcDbLine
 10
-21.2391380000000112
 20
-9.0050659999999976
 30
0.0
 11
-21.3382450000000006
 21
-8.9286099999999973
 31
0.0
  0
LINE
  5
2C4
100
AcDbEntity
  8
F.Cu
 62
256
370
-1
 48
1.0
  6
Continuous
100
AcDbLine
 10
-21.3382450000000006
 20
-8.9286099999999973
 30
0.0
 11
-21.441939000000005
 21
-8.8585019999999997
 31
0.0
  0
LINE
  5
2C5
100
AcDbEntity
  8
F.Cu
 62
256
370
-1
 48
1.0
  6
Continuous
100
AcDbLine
 10
-21.441939000000005
 20
-8.8585019999999997
 30
0.0
 11
-21.5498150000000095
 21
-8.7950149999999976
 31
0.0
  0
LINE
  5
2C6
100
AcDbEntity
  8
F.Cu
 62
256
370
-1
 48
1.0
  6
Continuous
100
AcDbLine
 10
-21.5498150000000095
 20
-8.7950149999999976
 30
0.0
 11
-21.6614490000000046
 21
-8.7383999999999968
 31
0.0
  0
LINE
  5
2C7
100
AcDbEntity
  8
F.Cu
 62
256
370
-1
 48
1.0
  6
Continuous
100
AcDbLine
 10
-21.6614490000000046
 20
-8.7383999999999968
 30
0.0
 11
-21.7764060000000086
 21
-8.6888769999999962
 31
0.0
  0
LINE
  5
2C8
100
AcDbEntity
  8
F.Cu
 62
256
370
-1
 48
1.0
  6
Continuous
100
AcDbLine
 10
-21.7764060000000086
 20
-8.6888769999999962
 30
0.0
 11
-21.894235000000009
 21
-8.6466399999999961
 31
0.0
  0
LINE
  5
2C9
100
AcDbEntity
  8
F.Cu
 62
256
370
-1
 48
1.0
  6
Continuous
100
AcDbLine
 10
-21.894235000000009
 20
-8.6466399999999961
 30
0.0
 11
-22.0144750000000045
 21
-8.6118549999999967
 31
0.0
  0
LINE
  5
2CA
100
AcDbEntity
  8
F.Cu
 62
256
370
-1
 48
1.0
  6
Continuous
100
AcDbLine
 10
-22.0144750000000045
 20
-8.6118549999999967
 30
0.0
 11
-22.1366550000000046
 21
-8.5846579999999957
 31
0.0
  0
LINE
  5
2CB
100
AcDbEntity
  8
F.Cu
 62
256
370
-1
 48
1.0
  6
Continuous
100
AcDbLine
 10
-22.1366550000000046
 20
-8.5846579999999957
 30
0.0
 11
-22.2602970000000084
 21
-8.5651549999999954
 31
0.0
  0
LINE
  5
2CC
100
AcDbEntity
  8
F.Cu
 62
256
370
-1
 48
1.0
  6
Continuous
100
AcDbLine
 10
-22.2602970000000084
 20
-8.5651549999999954
 30
0.0
 11
-22.384916000000004
 21
-8.5534219999999959
 31
0.0
  0
LINE
  5
2CD
100
AcDbEntity
  8
F.Cu
 62
256
370
-1
 48
1.0
  6
Continuous
100
AcDbLine
 10
-22.384916000000004
 20
-8.5534219999999959
 30
0.0
 11
-22.5100249999999988
 21
-8.5495059999999992
 31
0.0
  0
LINE
  5
2CE
100
AcDbEntity
  8
F.Cu
 62
256
370
-1
 48
1.0
  6
Continuous
100
AcDbLine
 10
-22.5100249999999988
 20
-8.5495059999999992
 30
0.0
 11
-22.6351340000000079
 21
-8.5534219999999959
 31
0.0
  0
LINE
  5
2CF
100
AcDbEntity
  8
F.Cu
 62
256
370
-1
 48
1.0
  6
Continuous
100
AcDbLine
 10
-22.6351340000000079
 20
-8.5534219999999959
 30
0.0
 11
-22.7597530000000035
 21
-8.5651549999999954
 31
0.0
  0
LINE
  5
2D0
100
AcDbEntity
  8
F.Cu
 62
256
370
-1
 48
1.0
  6
Continuous
100
AcDbLine
 10
-22.7597530000000035
 20
-8.5651549999999954
 30
0.0
 11
-22.8833950000000073
 21
-8.5846579999999957
 31
0.0
  0
LINE
  5
2D1
100
AcDbEntity
  8
F.Cu
 62
256
370
-1
 48
1.0
  6
Continuous
100
AcDbLine
 10
-22.8833950000000073
 20
-8.5846579999999957
 30
0.0
 11
-23.0055750000000074
 21
-8.6118549999999967
 31
0.0
  0
LINE
  5
2D2
100
AcDbEntity
  8
F.Cu
 62
256
370
-1
 48
1.0
  6
Continuous
100
AcDbLine
 10
-23.0055750000000074
 20
-8.6118549999999967
 30
0.0
 11
-23.1258150000000029
 21
-8.6466399999999961
 31
0.0
  0
LINE
  5
2D3
100
AcDbEntity
  8
F.Cu
 62
256
370
-1
 48
1.0
  6
Continuous
100
AcDbLine
 10
-23.1258150000000029
 20
-8.6466399999999961
 30
0.0
 11
-23.2436440000000033
 21
-8.6888769999999962
 31
0.0
  0
LINE
  5
2D4
100
AcDbEntity
  8
F.Cu
 62
256
370
-1
 48
1.0
  6
Continuous
100
AcDbLine
 10
-23.2436440000000033
 20
-8.6888769999999962
 30
0.0
 11
-23.3586010000000073
 21
-8.7383999999999968
 31
0.0
  0
LINE
  5
2D5
100
AcDbEntity
  8
F.Cu
 62
256
370
-1
 48
1.0
  6
Continuous
100
AcDbLine
 10
-23.3586010000000073
 20
-8.7383999999999968
 30
0.0
 11
-23.4702350000000024
 21
-8.7950149999999976
 31
0.0
  0
LINE
  5
2D6
100
AcDbEntity
  8
F.Cu
 62
256
370
-1
 48
1.0
  6
Continuous
100
AcDbLine
 10
-23.4702350000000024
 20
-8.7950149999999976
 30
0.0
 11
-23.5781110000000069
 21
-8.8585019999999997
 31
0.0
  0
LINE
  5
2D7
100
AcDbEntity
  8
F.Cu
 62
256
370
-1
 48
1.0
  6
Continuous
100
AcDbLine
 10
-23.5781110000000069
 20
-8.8585019999999997
 30
0.0
 11
-23.6818049999999971
 21
-8.9286099999999973
 31
0.0
  0
LINE
  5
2D8
100
AcDbEntity
  8
F.Cu
 62
256
370
-1
 48
1.0
  6
Continuous
100
AcDbLine
 10
-23.6818049999999971
 20
-8.9286099999999973
 30
0.0
 11
-23.7809120000000007
 21
-9.0050659999999976
 31
0.0
  0
LINE
  5
2D9
100
AcDbEntity
  8
F.Cu
 62
256
370
-1
 48
1.0
  6
Continuous
100
AcDbLine
 10
-23.7809120000000007
 20
-9.0050659999999976
 30
0.0
 11
-23.8750430000000051
 21
-9.0875699999999977
 31
0.0
  0
LINE
  5
2DA
100
AcDbEntity
  8
F.Cu
 62
256
370
-1
 48
1.0
  6
Continuous
100
AcDbLine
 10
-23.8750430000000051
 20
-9.0875699999999977
 30
0.0
 11
-23.9638300000000015
 21
-9.1758000000000006
 31
0.0
  0
LINE
  5
2DB
100
AcDbEntity
  8
F.Cu
 62
256
370
-1
 48
1.0
  6
Continuous
100
AcDbLine
 10
-23.9638300000000015
 20
-9.1758000000000006
 30
0.0
 11
-24.0469250000000017
 21
-9.2694089999999942
 31
0.0
  0
LINE
  5
2DC
100
AcDbEntity
  8
F.Cu
 62
256
370
-1
 48
1.0
  6
Continuous
100
AcDbLine
 10
-24.0469250000000017
 20
-9.2694089999999942
 30
0.0
 11
-24.1240039999999993
 21
-9.3680329999999969
 31
0.0
  0
LINE
  5
2DD
100
AcDbEntity
  8
F.Cu
 62
256
370
-1
 48
1.0
  6
Continuous
100
AcDbLine
 10
-24.1240039999999993
 20
-9.3680329999999969
 30
0.0
 11
-24.1947640000000064
 21
-9.4712829999999997
 31
0.0
  0
LINE
  5
2DE
100
AcDbEntity
  8
F.Cu
 62
256
370
-1
 48
1.0
  6
Continuous
100
AcDbLine
 10
-24.1947640000000064
 20
-9.4712829999999997
 30
0.0
 11
-24.2589279999999974
 21
-9.578756999999996
 31
0.0
  0
LINE
  5
2DF
100
AcDbEntity
  8
F.Cu
 62
256
370
-1
 48
1.0
  6
Continuous
100
AcDbLine
 10
-24.2589279999999974
 20
-9.578756999999996
 30
0.0
 11
-24.3162450000000092
 21
-9.6900329999999997
 31
0.0
  0
LINE
  5
2E0
100
AcDbEntity
  8
F.Cu
 62
256
370
-1
 48
1.0
  6
Continuous
100
AcDbLine
 10
-24.3162450000000092
 20
-9.6900329999999997
 30
0.0
 11
-24.3664910000000106
 21
-9.804674999999996
 31
0.0
  0
LINE
  5
2E1
100
AcDbEntity
  8
F.Cu
 62
256
370
-1
 48
1.0
  6
Continuous
100
AcDbLine
 10
-24.3664910000000106
 20
-9.804674999999996
 30
0.0
 11
-24.4094690000000014
 21
-9.9222359999999981
 31
0.0
  0
LINE
  5
2E2
100
AcDbEntity
  8
F.Cu
 62
256
370
-1
 48
1.0
  6
Continuous
100
AcDbLine
 10
-24.4094690000000014
 20
-9.9222359999999981
 30
0.0
 11
-24.445011000000008
 21
-10.0422549999999973
 31
0.0
  0
LINE
  5
2E3
100
AcDbEntity
  8
F.Cu
 62
256
370
-1
 48
1.0
  6
Continuous
100
AcDbLine
 10
-24.445011000000008
 20
-10.0422549999999973
 30
0.0
 11
-24.4729770000000002
 21
-10.1642609999999962
 31
0.0
  0
LINE
  5
2E4
100
AcDbEntity
  8
F.Cu
 62
256
370
-1
 48
1.0
  6
Continuous
100
AcDbLine
 10
-24.4729770000000002
 20
-10.1642609999999962
 30
0.0
 11
-24.4932579999999973
 21
-10.2877769999999984
 31
0.0
  0
LINE
  5
2E5
100
AcDbEntity
  8
F.Cu
 62
256
370
-1
 48
1.0
  6
Continuous
100
AcDbLine
 10
-24.4932579999999973
 20
-10.2877769999999984
 30
0.0
 11
-24.5
 21
-10.3500000000000014
 31
0.0
  0
LINE
  5
2E6
100
AcDbEntity
  8
F.Cu
 62
256
370
-1
 48
1.0
  6
Continuous
100
AcDbLine
 10
-24.5
 20
-10.3500000000000014
 30
0.0
 11
-27.3058570000000032
 21
-10.3500000000000014
 31
0.0
  0
LINE
  5
2E7
100
AcDbEntity
  8
F.Cu
 62
256
370
-1
 48
1.0
  6
Continuous
100
AcDbLine
 10
-27.3058570000000032
 20
-10.3500000000000014
 30
0.0
 11
-27.301281000000003
 21
-10.2522389999999959
 31
0.0
  0
LINE
  5
2E8
100
AcDbEntity
  8
F.Cu
 62
256
370
-1
 48
1.0
  6
Continuous
100
AcDbLine
 10
-27.301281000000003
 20
-10.2522389999999959
 30
0.0
 11
-27.2851600000000047
 21
-10.0571699999999993
 31
0.0
  0
LINE
  5
2E9
100
AcDbEntity
  8
F.Cu
 62
256
370
-1
 48
1.0
  6
Continuous
100
AcDbLine
 10
-27.2851600000000047
 20
-10.0571699999999993
 30
0.0
 11
-27.2611010000000107
 21
-9.8629199999999955
 31
0.0
  0
LINE
  5
2EA
100
AcDbEntity
  8
F.Cu
 62
256
370
-1
 48
1.0
  6
Continuous
100
AcDbLine
 10
-27.2611010000000107
 20
-9.8629199999999955
 30
0.0
 11
-27.2291430000000076
 21
-9.6698129999999978
 31
0.0
  0
LINE
  5
2EB
100
AcDbEntity
  8
F.Cu
 62
256
370
-1
 48
1.0
  6
Continuous
100
AcDbLine
 10
-27.2291430000000076
 20
-9.6698129999999978
 30
0.0
 11
-27.1893390000000039
 21
-9.4781690000000012
 31
0.0
  0
LINE
  5
2EC
100
AcDbEntity
  8
F.Cu
 62
256
370
-1
 48
1.0
  6
Continuous
100
AcDbLine
 10
-27.1893390000000039
 20
-9.4781690000000012
 30
0.0
 11
-27.1417560000000009
 21
-9.2883069999999943
 31
0.0
  0
LINE
  5
2ED
100
AcDbEntity
  8
F.Cu
 62
256
370
-1
 48
1.0
  6
Continuous
100
AcDbLine
 10
-27.1417560000000009
 20
-9.2883069999999943
 30
0.0
 11
-27.086472999999998
 21
-9.100543
 31
0.0
  0
LINE
  5
2EE
100
AcDbEntity
  8
F.Cu
 62
256
370
-1
 48
1.0
  6
Continuous
100
AcDbLine
 10
-27.086472999999998
 20
-9.100543
 30
0.0
 11
-27.0235810000000072
 21
-8.9151879999999988
 31
0.0
  0
LINE
  5
2EF
100
AcDbEntity
  8
F.Cu
 62
256
370
-1
 48
1.0
  6
Continuous
100
AcDbLine
 10
-27.0235810000000072
 20
-8.9151879999999988
 30
0.0
 11
-26.9531860000000023
 21
-8.7325509999999991
 31
0.0
  0
LINE
  5
2F0
100
AcDbEntity
  8
F.Cu
 62
256
370
-1
 48
1.0
  6
Continuous
100
AcDbLine
 10
-26.9531860000000023
 20
-8.7325509999999991
 30
0.0
 11
-26.8754040000000032
 21
-8.5529349999999962
 31
0.0
  0
LINE
  5
2F1
100
AcDbEntity
  8
F.Cu
 62
256
370
-1
 48
1.0
  6
Continuous
100
AcDbLine
 10
-26.8754040000000032
 20
-8.5529349999999962
 30
0.0
 11
-26.7903640000000109
 21
-8.3766400000000001
 31
0.0
  0
LINE
  5
2F2
100
AcDbEntity
  8
F.Cu
 62
256
370
-1
 48
1.0
  6
Continuous
100
AcDbLine
 10
-26.7903640000000109
 20
-8.3766400000000001
 30
0.0
 11
-26.6982090000000056
 21
-8.2039579999999983
 31
0.0
  0
LINE
  5
2F3
100
AcDbEntity
  8
F.Cu
 62
256
370
-1
 48
1.0
  6
Continuous
100
AcDbLine
 10
-26.6982090000000056
 20
-8.2039579999999983
 30
0.0
 11
-26.5990910000000014
 21
-8.0351759999999981
 31
0.0
  0
LINE
  5
2F4
100
AcDbEntity
  8
F.Cu
 62
256
370
-1
 48
1.0
  6
Continuous
100
AcDbLine
 10
-26.5990910000000014
 20
-8.0351759999999981
 30
0.0
 11
-26.4931750000000079
 21
-7.8705750000000014
 31
0.0
  0
LINE
  5
2F5
100
AcDbEntity
  8
F.Cu
 62
256
370
-1
 48
1.0
  6
Continuous
100
AcDbLine
 10
-26.4931750000000079
 20
-7.8705750000000014
 30
0.0
 11
-26.3806360000000097
 21
-7.7104279999999994
 31
0.0
  0
LINE
  5
2F6
100
AcDbEntity
  8
F.Cu
 62
256
370
-1
 48
1.0
  6
Continuous
100
AcDbLine
 10
-26.3806360000000097
 20
-7.7104279999999994
 30
0.0
 11
-26.2616629999999986
 21
-7.5550029999999984
 31
0.0
  0
LINE
  5
2F7
100
AcDbEntity
  8
F.Cu
 62
256
370
-1
 48
1.0
  6
Continuous
100
AcDbLine
 10
-26.2616629999999986
 20
-7.5550029999999984
 30
0.0
 11
-26.136453000000003
 21
-7.4045559999999986
 31
0.0
  0
LINE
  5
2F8
100
AcDbEntity
  8
F.Cu
 62
256
370
-1
 48
1.0
  6
Continuous
100
AcDbLine
 10
-26.136453000000003
 20
-7.4045559999999986
 30
0.0
 11
-26.0052140000000094
 21
-7.2593389999999962
 31
0.0
  0
LINE
  5
2F9
100
AcDbEntity
  8
F.Cu
 62
256
370
-1
 48
1.0
  6
Continuous
100
AcDbLine
 10
-26.0052140000000094
 20
-7.2593389999999962
 30
0.0
 11
-25.8681650000000047
 21
-7.1195919999999964
 31
0.0
  0
LINE
  5
2FA
100
AcDbEntity
  8
F.Cu
 62
256
370
-1
 48
1.0
  6
Continuous
100
AcDbLine
 10
-25.8681650000000047
 20
-7.1195919999999964
 30
0.0
 11
-25.7708659999999981
 21
-7.0281519999999977
 31
0.0
  0
LINE
  5
2FB
100
AcDbEntity
  8
F.Cu
 62
256
370
-1
 48
1.0
  6
Continuous
100
AcDbLine
 10
-25.7708659999999981
 20
-7.0281519999999977
 30
0.0
 11
-29.3350250000000017
 21
-7.0281519999999977
 31
0.0
  0
LINE
  5
2FC
100
AcDbEntity
  8
F.Cu
 62
256
370
-1
 48
1.0
  6
Continuous
100
AcDbLine
 10
-29.3350250000000017
 20
-7.0281519999999977
 30
0.0
 11
-29.3350250000000017
 21
-7.5401519999999982
 31
0.0
  0
LINE
  5
2FD
100
AcDbEntity
  8
F.Cu
 62
256
370
-1
 48
1.0
  6
Continuous
100
AcDbLine
 10
-29.3350250000000017
 20
-7.5401519999999982
 30
0.0
 11
-35.6850250000000102
 21
-7.5401519999999982
 31
0.0
  0
LINE
  5
2FE
100
AcDbEntity
  8
F.Cu
 62
256
370
-1
 48
1.0
  6
Continuous
100
AcDbLine
 10
-35.6850250000000102
 20
-7.5401519999999982
 30
0.0
 11
-35.6850250000000102
 21
-6.0161519999999973
 31
0.0
  0
LINE
  5
2FF
100
AcDbEntity
  8
F.Cu
 62
256
370
-1
 48
1.0
  6
Continuous
100
AcDbLine
 10
-35.6850250000000102
 20
-6.0161519999999973
 30
0.0
 11
-29.3350250000000017
 21
-6.0161519999999973
 31
0.0
  0
LINE
  5
300
100
AcDbEntity
  8
F.Cu
 62
256
370
-1
 48
1.0
  6
Continuous
100
AcDbLine
 10
-29.3350250000000017
 20
-6.0161519999999973
 30
0.0
 11
-29.3350250000000017
 21
-6.5281519999999977
 31
0.0
  0
LINE
  5
301
100
AcDbEntity
  8
F.Cu
 62
256
370
-1
 48
1.0
  6
Continuous
100
AcDbLine
 10
-29.3350250000000017
 20
-6.5281519999999977
 30
0.0
 11
-25.1300240000000059
 21
-6.5281519999999977
 31
0.0
  0
LINE
  5
302
100
AcDbEntity
  8
F.Cu
 62
256
370
-1
 48
1.0
  6
Continuous
100
AcDbLine
 10
-25.1300240000000059
 20
-6.5281519999999977
 30
0.0
 11
-25.104046000000011
 21
-6.5107109999999997
 31
0.0
  0
LINE
  5
303
100
AcDbEntity
  8
F.Cu
 62
256
370
-1
 48
1.0
  6
Continuous
100
AcDbLine
 10
-25.104046000000011
 20
-6.5107109999999997
 30
0.0
 11
-24.9372280000000046
 21
-6.4083229999999949
 31
0.0
  0
LINE
  5
304
100
AcDbEntity
  8
F.Cu
 62
256
370
-1
 48
1.0
  6
Continuous
100
AcDbLine
 10
-24.9372280000000046
 20
-6.4083229999999949
 30
0.0
 11
-24.766373999999999
 21
-6.3128200000000012
 31
0.0
  0
LINE
  5
305
100
AcDbEntity
  8
F.Cu
 62
256
370
-1
 48
1.0
  6
Continuous
100
AcDbLine
 10
-24.766373999999999
 20
-6.3128200000000012
 30
0.0
 11
-24.5917689999999993
 21
-6.2243619999999984
 31
0.0
  0
LINE
  5
306
100
AcDbEntity
  8
F.Cu
 62
256
370
-1
 48
1.0
  6
Continuous
100
AcDbLine
 10
-24.5917689999999993
 20
-6.2243619999999984
 30
0.0
 11
-24.4137029999999982
 21
-6.1430950000000015
 31
0.0
  0
LINE
  5
307
100
AcDbEntity
  8
F.Cu
 62
256
370
-1
 48
1.0
  6
Continuous
100
AcDbLine
 10
-24.4137029999999982
 20
-6.1430950000000015
 30
0.0
 11
-24.2324720000000013
 21
-6.0691550000000012
 31
0.0
  0
LINE
  5
308
100
AcDbEntity
  8
F.Cu
 62
256
370
-1
 48
1.0
  6
Continuous
100
AcDbLine
 10
-24.2324720000000013
 20
-6.0691550000000012
 30
0.0
 11
-24.0483779999999996
 21
-6.0026629999999974
 31
0.0
  0
LINE
  5
309
100
AcDbEntity
  8
F.Cu
 62
256
370
-1
 48
1.0
  6
Continuous
100
AcDbLine
 10
-24.0483779999999996
 20
-6.0026629999999974
 30
0.0
 11
-23.8617270000000019
 21
-5.9437319999999962
 31
0.0
  0
LINE
  5
30A
100
AcDbEntity
  8
F.Cu
 62
256
370
-1
 48
1.0
  6
Continuous
100
AcDbLine
 10
-23.8617270000000019
 20
-5.9437319999999962
 30
0.0
 11
-23.6728280000000098
 21
-5.8924590000000014
 31
0.0
  0
LINE
  5
30B
100
AcDbEntity
  8
F.Cu
 62
256
370
-1
 48
1.0
  6
Continuous
100
AcDbLine
 10
-23.6728280000000098
 20
-5.8924590000000014
 30
0.0
 11
-23.4819960000000094
 21
-5.8489289999999974
 31
0.0
  0
LINE
  5
30C
100
AcDbEntity
  8
F.Cu
 62
256
370
-1
 48
1.0
  6
Continuous
100
AcDbLine
 10
-23.4819960000000094
 20
-5.8489289999999974
 30
0.0
 11
-23.2895480000000106
 21
-5.8132140000000012
 31
0.0
  0
LINE
  5
30D
100
AcDbEntity
  8
F.Cu
 62
256
370
-1
 48
1.0
  6
Continuous
100
AcDbLine
 10
-23.2895480000000106
 20
-5.8132140000000012
 30
0.0
 11
-23.0958040000000011
 21
-5.7853739999999965
 31
0.0
  0
LINE
  5
30E
100
AcDbEntity
  8
F.Cu
 62
256
370
-1
 48
1.0
  6
Continuous
100
AcDbLine
 10
-23.0958040000000011
 20
-5.7853739999999965
 30
0.0
 11
-22.9010860000000065
 21
-5.7654549999999949
 31
0.0
  0
LINE
  5
30F
100
AcDbEntity
  8
F.Cu
 62
256
370
-1
 48
1.0
  6
Continuous
100
AcDbLine
 10
-22.9010860000000065
 20
-5.7654549999999949
 30
0.0
 11
-22.7057180000000045
 21
-5.7534899999999984
 31
0.0
  0
LINE
  5
310
100
AcDbEntity
  8
F.Cu
 62
256
370
-1
 48
1.0
  6
Continuous
100
AcDbLine
 10
-22.7057180000000045
 20
-5.7534899999999984
 30
0.0
 11
-22.5100249999999988
 21
-5.7494999999999967
 31
0.0
  0
LINE
  5
311
100
AcDbEntity
  8
F.Cu
 62
256
370
-1
 48
1.0
  6
Continuous
100
AcDbLine
 10
-22.5100249999999988
 20
-5.7494999999999967
 30
0.0
 11
-22.3143320000000074
 21
-5.7534899999999984
 31
0.0
  0
CIRCLE
  5
312
100
AcDbEntity
  8
Edge.Cuts
 62
256
370
-1
 48
1.0
  6
BYLAYER
100
AcDbCircle
 10
-22.5
 20
-10.5500000000000007
 30
0.0
 40
1.7999999999999989
  0
INSERT
  5
313
100
AcDbEntity
  8
comp
 62
256
370
-1
 48
1.0
  6
BYLAYER
100
AcDbBlockReference
  2
conn2.56x2
 10
-36.5
 20
-8.1999999999999993
 30
0.0
 41
1.0
 42
-1.0
 43
1.0
 50
180.0
  0
INSERT
  5
314
100
AcDbEntity
  8
comp
 62
256
370
-1
 48
1.0
  6
BYLAYER
100
AcDbBlockReference
  2
conn2.56x2
 10
-7.0
 20
-8.1999999999999993
 30
0.0
  0
LINE
  5
315
100
AcDbEntity
  8
0
 62
256
370
-1
 48
1.0
  6
BYLAYER
100
AcDbLine
 10
0.0
 20
-2.0
 30
0.0
 11
0.0
 21
-23.0
 31
0.0
  0
LINE
  5
316
100
AcDbEntity
  8
0
 62
256
370
-1
 48
1.0
  6
BYLAYER
100
AcDbLine
 10
-43.4999999999999929
 20
-2.0
 30
0.0
 11
-43.4999999999999858
 21
-23.0
 31
0.0
  0
LINE
  5
317
100
AcDbEntity
  8
0
 62
256
370
-1
 48
1.0
  6
BYLAYER
100
AcDbLine
 10
-39.4999999999999858
 20
-25.0
 30
0.0
 11
-43.4999999999999858
 21
-23.0
 31
0.0
  0
LINE
  5
318
100
AcDbEntity
  8
0
 62
256
370
-1
 48
1.0
  6
BYLAYER
100
AcDbLine
 10
-4.0
 20
-25.0
 30
0.0
 11
0.0
 21
-23.0
 31
0.0
  0
LINE
  5
319
100
AcDbEntity
  8
0
 62
256
370
-1
 48
1.0
  6
BYLAYER
100
AcDbLine
 10
-39.4999999999999929
 20
0.0
 30
0.0
 11
-43.4999999999999929
 21
-2.0
 31
0.0
  0
LINE
  5
31A
100
AcDbEntity
  8
0
 62
256
370
-1
 48
1.0
  6
BYLAYER
100
AcDbLine
 10
-4.0
 20
0.0
 30
0.0
 11
0.0
 21
-2.0
 31
0.0
  0
ENDSEC
  0
SECTION
  2
OBJECTS
  0
DICTIONARY
  5
C
100
AcDbDictionary
280
0
281
1
  3
ACAD_GROUP
350
D
  3
ACAD_LAYOUT
350
1A
  3
ACAD_MLINESTYLE
350
17
  3
ACAD_PLOTSETTINGS
350
19
  3
ACAD_PLOTSTYLENAME
350
E
  3
AcDbVariableDictionary
350
31B
  3
QCAD_OBJECTS
350
31C
  0
DICTIONARY
  5
D
100
AcDbDictionary
280
0
281
1
  0
ACDBDICTIONARYWDFLT
  5
E
100
AcDbDictionary
281
1
  3
Normal
350
F
100
AcDbDictionaryWithDefault
340
F
  0
ACDBPLACEHOLDER
  5
F
  0
DICTIONARY
  5
17
100
AcDbDictionary
280
0
281
1
  3
Standard
350
18
  0
MLINESTYLE
  5
18
100
AcDbMlineStyle
  2
STANDARD
 70
0
  3

 62
256
 51
90.0
 52
90.0
 71
2
 49
0.5
 62
256
  6
BYLAYER
 49
-0.5
 62
256
  6
BYLAYER
  0
DICTIONARY
  5
19
100
AcDbDictionary
280
0
281
1
  0
DICTIONARY
  5
1A
100
AcDbDictionary
281
1
  3
Layout1
350
1E
  3
Layout2
350
26
  3
Model
350
22
  0
LAYOUT
  5
1E
100
AcDbPlotSettings
  1

  2
none_device
  4

  6

 40
0.0
 41
0.0
 42
0.0
 43
0.0
 44
0.0
 45
0.0
 46
0.0
 47
0.0
 48
0.0
 49
0.0
140
0.0
141
0.0
142
1.0
143
1.0
 70
688
 72
0
 73
0
 74
5
  7

 75
16
147
1.0
148
0.0
149
0.0
100
AcDbLayout
  1
Layout1
 70
1
 71
1
 10
0.0
 20
0.0
 11
420.0
 21
297.0
 12
0.0
 22
0.0
 32
0.0
 14
100000000000000000000.0
 24
100000000000000000000.0
 34
100000000000000000000.0
 15
-100000000000000000000.0
 25
-100000000000000000000.0
 35
-100000000000000000000.0
146
0.0
 13
0.0
 23
0.0
 33
0.0
 16
1.0
 26
0.0
 36
0.0
 17
0.0
 27
1.0
 37
0.0
 76
0
330
1B
  0
LAYOUT
  5
22
100
AcDbPlotSettings
  1

  2
none_device
  4

  6

 40
0.0
 41
0.0
 42
0.0
 43
0.0
 44
0.0
 45
0.0
 46
0.0
 47
0.0
 48
0.0
 49
0.0
140
0.0
141
0.0
142
1.0
143
1.0
 70
1712
 72
0
 73
0
 74
0
  7

 75
0
147
1.0
148
0.0
149
0.0
100
AcDbLayout
  1
Model
 70
1
 71
0
 10
0.0
 20
0.0
 11
12.0
 21
9.0
 12
0.0
 22
0.0
 32
0.0
 14
0.0
 24
0.0
 34
0.0
 15
0.0
 25
0.0
 35
0.0
146
0.0
 13
0.0
 23
0.0
 33
0.0
 16
1.0
 26
0.0
 36
0.0
 17
0.0
 27
1.0
 37
0.0
 76
0
330
1F
  0
LAYOUT
  5
26
100
AcDbPlotSettings
  1

  2
none_device
  4

  6

 40
0.0
 41
0.0
 42
0.0
 43
0.0
 44
0.0
 45
0.0
 46
0.0
 47
0.0
 48
0.0
 49
0.0
140
0.0
141
0.0
142
1.0
143
1.0
 70
688
 72
0
 73
0
 74
5
  7

 75
16
147
1.0
148
0.0
149
0.0
100
AcDbLayout
  1
Layout2
 70
1
 71
2
 10
0.0
 20
0.0
 11
12.0
 21
9.0
 12
0.0
 22
0.0
 32
0.0
 14
0.0
 24
0.0
 34
0.0
 15
0.0
 25
0.0
 35
0.0
146
0.0
 13
0.0
 23
0.0
 33
0.0
 16
1.0
 26
0.0
 36
0.0
 17
0.0
 27
1.0
 37
0.0
 76
0
330
23
  0
DICTIONARY
  5
31B
100
AcDbDictionary
281
1
  3
DIMASSOC
350
31E
  3
HIDETEXT
350
31D
  0
DICTIONARYVAR
  5
31D
100
DictionaryVariables
280
0
  1
2
  0
DICTIONARYVAR
  5
31E
100
DictionaryVariables
280
0
  1
1
  0
DICTIONARY
  5
31C
100
AcDbDictionary
281
1
  3
ColorSettings/BackgroundColor
350
31F
  3
ColorSettings/ColorMode
350
320
  3
Grid/DisplayGrid00
350
321
  3
Grid/DisplayGrid01
350
322
  3
Grid/DisplayGrid02
350
323
  3
Grid/DisplayGrid03
350
324
  3
Grid/GridSpacingX00
350
325
  3
Grid/GridSpacingX01
350
326
  3
Grid/GridSpacingX02
350
327
  3
Grid/GridSpacingX03
350
328
  3
Grid/GridSpacingY00
350
329
  3
Grid/GridSpacingY01
350
32A
  3
Grid/GridSpacingY02
350
32B
  3
Grid/GridSpacingY03
350
32C
  3
Grid/IsometricGrid00
350
32D
  3
Grid/IsometricGrid01
350
32E
  3
Grid/IsometricGrid02
350
32F
  3
Grid/IsometricGrid03
350
330
  3
Grid/IsometricProjection00
350
331
  3
Grid/IsometricProjection01
350
332
  3
Grid/IsometricProjection02
350
333
  3
Grid/IsometricProjection03
350
334
  3
Grid/MetaGridSpacingX00
350
335
  3
Grid/MetaGridSpacingX01
350
336
  3
Grid/MetaGridSpacingX02
350
337
  3
Grid/MetaGridSpacingX03
350
338
  3
Grid/MetaGridSpacingY00
350
339
  3
Grid/MetaGridSpacingY01
350
33A
  3
Grid/MetaGridSpacingY02
350
33B
  3
Grid/MetaGridSpacingY03
350
33C
  3
MultiPageSettings/Columns
350
33D
  3
MultiPageSettings/GlueMarginsBottom
350
33E
  3
MultiPageSettings/GlueMarginsLeft
350
33F
  3
MultiPageSettings/GlueMarginsRight
350
340
  3
MultiPageSettings/GlueMarginsTop
350
341
  3
MultiPageSettings/PrintCropMarks
350
342
  3
MultiPageSettings/Rows
350
343
  3
PageSettings/OffsetX
350
344
  3
PageSettings/OffsetY
350
345
  3
PageSettings/PageOrientation
350
346
  3
PageSettings/PaperHeight
350
347
  3
PageSettings/PaperWidth
350
348
  3
PageSettings/Scale
350
349
  3
PageSettings/ShowPaperBorders
350
34A
  3
PageTagSettings/EnablePageTags
350
34B
  3
PageTagSettings/TagAlignment
350
34C
  3
PageTagSettings/TagFont
350
34D
  3
PageTagSettings/TagPosition
350
34E
  3
QCADVersion
350
34F
  3
UnitSettings/PaperUnit
350
350
  3
ViewportCenter
350
351
  3
ViewportHeight
350
352
  3
ViewportWidth
350
353
  0
XRECORD
  5
31F
330
31C
100
AcDbXrecord
280
1
1000
White
  0
XRECORD
  5
320
330
31C
100
AcDbXrecord
280
1
1000
FullColor
  0
XRECORD
  5
321
330
31C
100
AcDbXrecord
280
1
290
1
  0
XRECORD
  5
322
330
31C
100
AcDbXrecord
280
1
290
1
  0
XRECORD
  5
323
330
31C
100
AcDbXrecord
280
1
290
1
  0
XRECORD
  5
324
330
31C
100
AcDbXrecord
280
1
290
1
  0
XRECORD
  5
325
330
31C
100
AcDbXrecord
280
1
1000
auto
  0
XRECORD
  5
326
330
31C
100
AcDbXrecord
280
1
1000
auto
  0
XRECORD
  5
327
330
31C
100
AcDbXrecord
280
1
1000
auto
  0
XRECORD
  5
328
330
31C
100
AcDbXrecord
280
1
1000
auto
  0
XRECORD
  5
329
330
31C
100
AcDbXrecord
280
1
1000
auto
  0
XRECORD
  5
32A
330
31C
100
AcDbXrecord
280
1
1000
auto
  0
XRECORD
  5
32B
330
31C
100
AcDbXrecord
280
1
1000
auto
  0
XRECORD
  5
32C
330
31C
100
AcDbXrecord
280
1
1000
auto
  0
XRECORD
  5
32D
330
31C
100
AcDbXrecord
280
1
290
0
  0
XRECORD
  5
32E
330
31C
100
AcDbXrecord
280
1
290
0
  0
XRECORD
  5
32F
330
31C
100
AcDbXrecord
280
1
290
0
  0
XRECORD
  5
330
330
31C
100
AcDbXrecord
280
1
290
0
  0
XRECORD
  5
331
330
31C
100
AcDbXrecord
280
1
 90
65537
  0
XRECORD
  5
332
330
31C
100
AcDbXrecord
280
1
 90
65537
  0
XRECORD
  5
333
330
31C
100
AcDbXrecord
280
1
 90
65537
  0
XRECORD
  5
334
330
31C
100
AcDbXrecord
280
1
 90
65537
  0
XRECORD
  5
335
330
31C
100
AcDbXrecord
280
1
1000
auto
  0
XRECORD
  5
336
330
31C
100
AcDbXrecord
280
1
1000
auto
  0
XRECORD
  5
337
330
31C
100
AcDbXrecord
280
1
1000
auto
  0
XRECORD
  5
338
330
31C
100
AcDbXrecord
280
1
1000
auto
  0
XRECORD
  5
339
330
31C
100
AcDbXrecord
280
1
1000
auto
  0
XRECORD
  5
33A
330
31C
100
AcDbXrecord
280
1
1000
auto
  0
XRECORD
  5
33B
330
31C
100
AcDbXrecord
280
1
1000
auto
  0
XRECORD
  5
33C
330
31C
100
AcDbXrecord
280
1
1000
auto
  0
XRECORD
  5
33D
330
31C
100
AcDbXrecord
280
1
 90
1
  0
XRECORD
  5
33E
330
31C
100
AcDbXrecord
280
1
 40
10.0
  0
XRECORD
  5
33F
330
31C
100
AcDbXrecord
280
1
 40
10.0
  0
XRECORD
  5
340
330
31C
100
AcDbXrecord
280
1
 40
10.0
  0
XRECORD
  5
341
330
31C
100
AcDbXrecord
280
1
 40
10.0
  0
XRECORD
  5
342
330
31C
100
AcDbXrecord
280
1
290
0
  0
XRECORD
  5
343
330
31C
100
AcDbXrecord
280
1
 90
1
  0
XRECORD
  5
344
330
31C
100
AcDbXrecord
280
1
 40
0.0
  0
XRECORD
  5
345
330
31C
100
AcDbXrecord
280
1
 40
0.0
  0
XRECORD
  5
346
330
31C
100
AcDbXrecord
280
1
1000
Portrait
  0
XRECORD
  5
347
330
31C
100
AcDbXrecord
280
1
 40
297.0
  0
XRECORD
  5
348
330
31C
100
AcDbXrecord
280
1
 40
210.0
  0
XRECORD
  5
349
330
31C
100
AcDbXrecord
280
1
1000
1:1
  0
XRECORD
  5
34A
330
31C
100
AcDbXrecord
280
1
290
1
  0
XRECORD
  5
34B
330
31C
100
AcDbXrecord
280
1
290
0
  0
XRECORD
  5
34C
330
31C
100
AcDbXrecord
280
1
1000
Inside
  0
XRECORD
  5
34D
330
31C
100
AcDbXrecord
280
1
1000
Arial,10,-1,5,50,0,0,0,0,0
  0
XRECORD
  5
34E
330
31C
100
AcDbXrecord
280
1
1000
TopLeft
  0
XRECORD
  5
34F
330
31C
100
AcDbXrecord
280
1
1000
3.32.3
  0
XRECORD
  5
350
330
31C
100
AcDbXrecord
280
1
 90
4
  0
XRECORD
  5
352
330
31C
100
AcDbXrecord
280
1
 40
43.0172536224195881
  0
XRECORD
  5
353
330
31C
100
AcDbXrecord
280
1
 40
81.2858493774292157
  0
ENDSEC
  0
EOF
